999
DXF file generated by netDxf https://github.com/haplokuon/netDxf, Copyright(C) 2009-2020 Daniel Carvajal, Licensed under LGPL
0
SECTION
2
HEADER
9
$ACADVER
1
AC1015
9
$DWGCODEPAGE
3
ANSI_1252
9
$HANDSEED
5
1A8
9
$ANGBASE
50
0.0
9
$ANGDIR
70
0
9
$ATTMODE
70
1
9
$AUNITS
70
0
9
$AUPREC
70
0
9
$CECOLOR
62
256
9
$CELTSCALE
40
1.0
9
$CELTYPE
6
ByLayer
9
$CELWEIGHT
370
-1
9
$CLAYER
8
0
9
$CMLJUST
70
0
9
$CMLSCALE
40
20.0
9
$CMLSTYLE
2
Standard
9
$DIMSTYLE
2
Standard
9
$TEXTSIZE
40
2.5
9
$TEXTSTYLE
7
Standard
9
$LUNITS
70
2
9
$LUPREC
70
4
9
$MIRRTEXT
70
0
9
$EXTNAMES
290
1
9
$INSBASE
10
0.0
20
0.0
30
0.0
9
$INSUNITS
70
0
9
$LTSCALE
40
1.0
9
$LWDISPLAY
290
0
9
$PDMODE
70
0
9
$PDSIZE
40
0.0
9
$PLINEGEN
70
0
9
$PSLTSCALE
70
1
9
$TDCREATE
40
2459821.45292247
9
$TDUCREATE
40
2459821.11958913
9
$TDUPDATE
40
2459821.45292247
9
$TDUUPDATE
40
2459821.11958913
9
$TDINDWG
40
0.0
9
$UCSORG
10
0.0
20
0.0
30
0.0
9
$UCSXDIR
10
1.0
20
0.0
30
0.0
9
$UCSYDIR
10
0.0
20
1.0
30
0.0
9
$DIMADEC
70
0
9
$DIMALT
70
0
9
$DIMALTD
70
2
9
$DIMALTF
40
25.4
9
$DIMALTRND
40
0.0
9
$DIMALTTD
70
2
9
$DIMALTTZ
70
0
9
$DIMALTU
70
2
9
$DIMALTZ
70
0
9
$DIMAPOST
1

9
$DIMATFIT
70
3
9
$DIMAUNIT
70
0
9
$DIMASZ
40
0.18
9
$DIMAZIN
70
0
9
$DIMSAH
70
0
9
$DIMBLK
1

9
$DIMLDRBLK
1

9
$DIMCEN
40
0.09
9
$DIMCLRD
70
0
9
$DIMCLRE
70
0
9
$DIMCLRT
70
0
9
$DIMDEC
70
4
9
$DIMDLE
40
0.0
9
$DIMDLI
40
0.38
9
$DIMDSEP
70
46
9
$DIMEXE
40
0.18
9
$DIMEXO
40
0.0625
9
$DIMFXLON
70
0
9
$DIMFXL
40
1.0
9
$DIMGAP
40
0.09
9
$DIMJUST
70
0
9
$DIMLFAC
40
1.0
9
$DIMLUNIT
70
2
9
$DIMLWD
70
-2
9
$DIMLWE
70
-2
9
$DIMPOST
1

9
$DIMRND
40
0.0
9
$DIMSCALE
40
1.0
9
$DIMSD1
70
0
9
$DIMSD2
70
0
9
$DIMSE1
70
0
9
$DIMSE2
70
0
9
$DIMSOXD
70
0
9
$DIMTAD
70
0
9
$DIMTDEC
70
4
9
$DIMTFAC
40
1.0
9
$DIMTIH
70
0
9
$DIMTIX
70
0
9
$DIMTM
40
0.0
9
$DIMTMOVE
70
0
9
$DIMTOFL
70
0
9
$DIMTOH
70
0
9
$DIMTOL
70
0
9
$DIMLIM
70
0
9
$DIMTOLJ
70
1
9
$DIMTP
40
0.0
9
$DIMTXT
40
0.18
9
$DIMTXTDIRECTION
70
0
9
$DIMTZIN
70
0
9
$DIMZIN
70
0
9
$DIMFRAC
70
0
9
$DIMLTYPE
6
ByBlock
9
$DIMLTEX1
6
ByBlock
9
$DIMLTEX2
6
ByBlock
0
ENDSEC
0
SECTION
2
CLASSES
0
CLASS
1
RASTERVARIABLES
2
AcDbRasterVariables
3
ISM
90
0
280
0
281
0
0
ENDSEC
0
SECTION
2
TABLES
0
TABLE
2
APPID
5
4
330
0
100
AcDbSymbolTable
70
5
0
APPID
5
19
330
4
100
AcDbSymbolTableRecord
100
AcDbRegAppTableRecord
2
ACAD
70
0
0
APPID
5
28
330
4
100
AcDbSymbolTableRecord
100
AcDbRegAppTableRecord
2
AcAecLayerStandard
70
0
0
APPID
5
1A3
330
4
100
AcDbSymbolTableRecord
100
AcDbRegAppTableRecord
2
AcCmTransparency
70
0
0
APPID
5
1A4
330
4
100
AcDbSymbolTableRecord
100
AcDbRegAppTableRecord
2
GradientColor1ACI
70
0
0
APPID
5
1A5
330
4
100
AcDbSymbolTableRecord
100
AcDbRegAppTableRecord
2
GradientColor2ACI
70
0
0
ENDTAB
0
TABLE
2
VPORT
5
1
330
0
100
AcDbSymbolTable
70
1
0
VPORT
5
2
330
1
100
AcDbSymbolTableRecord
100
AcDbViewportTableRecord
2
*Active
70
0
10
0.0
20
0.0
11
1.0
21
1.0
12
0.0
22
0.0
13
0.0
23
0.0
14
0.5
24
0.5
15
10.0
25
10.0
16
0.0
26
0.0
36
1.0
17
0.0
27
0.0
37
0.0
40
10.0
41
1.0
75
0
76
1
0
ENDTAB
0
TABLE
2
LTYPE
5
7
330
0
100
AcDbSymbolTable
70
5
0
LTYPE
5
15
330
7
100
AcDbSymbolTableRecord
100
AcDbLinetypeTableRecord
2
Continuous
70
0
3
Solid line
72
65
73
0
40
0.0
0
LTYPE
5
16
330
7
100
AcDbSymbolTableRecord
100
AcDbLinetypeTableRecord
2
ByLayer
70
0
3

72
65
73
0
40
0.0
0
LTYPE
5
17
330
7
100
AcDbSymbolTableRecord
100
AcDbLinetypeTableRecord
2
ByBlock
70
0
3

72
65
73
0
40
0.0
0
LTYPE
5
27
330
7
100
AcDbSymbolTableRecord
100
AcDbLinetypeTableRecord
2
\U+70B9\U+753B\U+7EBF
70
0
3
\U+70B9\U+753B\U+7EBF: ____ . ____ . ____ . ____ . ____ . ____
72
65
73
4
40
18.0
49
12.0
74
0
49
-2.0
74
0
49
2.0
74
0
49
-2.0
74
0
0
LTYPE
5
2B
330
7
100
AcDbSymbolTableRecord
100
AcDbLinetypeTableRecord
2
\U+865A\U+7EBF
70
0
3
\U+865A\U+7EBF: __ __ __ __ __ __ __ __ __ __ __ __ __
72
65
73
2
40
2.0
49
1.0
74
0
49
-1.0
74
0
0
ENDTAB
0
TABLE
2
LAYER
5
5
102
{ACAD_XDICTIONARY
360
6
102
}
330
0
100
AcDbSymbolTable
70
4
0
LAYER
5
14
330
5
100
AcDbSymbolTableRecord
100
AcDbLayerTableRecord
2
0
70
0
62
7
6
Continuous
290
1
370
-3
390
0
0
LAYER
5
26
330
5
100
AcDbSymbolTableRecord
100
AcDbLayerTableRecord
2
\U+4E2D\U+5FC3\U+7EBF\U+5C42
70
0
62
1
6
\U+70B9\U+753B\U+7EBF
290
1
370
18
390
0
1001
AcAecLayerStandard
1000

1000
\U+4E2D\U+5FC3\U+7EBF\U+5C42
0
LAYER
5
2A
330
5
100
AcDbSymbolTableRecord
100
AcDbLayerTableRecord
2
\U+865A\U+7EBF\U+5C42
70
0
62
6
6
\U+865A\U+7EBF
290
1
370
25
390
0
1001
AcAecLayerStandard
1000

1000
\U+865A\U+7EBF\U+5C42
0
LAYER
5
30
330
5
100
AcDbSymbolTableRecord
100
AcDbLayerTableRecord
2
\U+7C97\U+5B9E\U+7EBF\U+5C42
70
0
62
7
6
Continuous
290
1
370
35
390
0
1001
AcAecLayerStandard
1000

1000
\U+7C97\U+5B9E\U+7EBF\U+5C42
0
ENDTAB
0
TABLE
2
STYLE
5
8
330
0
100
AcDbSymbolTable
70
1
0
STYLE
5
18
330
8
100
AcDbSymbolTableRecord
100
AcDbTextStyleTableRecord
2
Standard
3
simplex.shx
70
0
71
0
40
0.0
41
1.0
42
0.0
50
0.0
0
ENDTAB
0
TABLE
2
DIMSTYLE
5
A
330
0
100
AcDbSymbolTable
70
1
100
AcDbDimStyleTable
0
DIMSTYLE
105
1A
330
A
100
AcDbSymbolTableRecord
100
AcDbDimStyleTableRecord
2
Standard
3

4

40
1.0
41
0.18
42
0.0625
43
0.38
44
0.18
45
0.0
46
0.0
47
0.0
48
0.0
49
1.0
70
0
71
0
72
0
73
0
74
0
75
0
76
0
77
0
78
0
79
0
140
0.18
141
0.09
143
25.4
144
1.0
146
1.0
147
0.09
148
0.0
170
0
171
2
172
0
174
0
175
0
176
0
177
0
178
0
179
0
271
4
272
4
273
2
274
2
275
0
276
0
277
2
278
46
279
0
280
0
281
0
282
0
283
1
284
0
285
0
286
0
289
3
290
0
294
0
340
18
173
0
345
17
346
17
347
17
371
-2
372
-2
0
ENDTAB
0
TABLE
2
VIEW
5
3
330
0
100
AcDbSymbolTable
70
0
0
ENDTAB
0
TABLE
2
UCS
5
C
330
0
100
AcDbSymbolTable
70
0
0
ENDTAB
0
TABLE
2
BLOCK_RECORD
5
D
330
0
100
AcDbSymbolTable
70
3
0
BLOCK_RECORD
5
1C
330
D
100
AcDbSymbolTableRecord
100
AcDbBlockTableRecord
2
*Model_Space
340
20
0
BLOCK_RECORD
5
22
330
D
100
AcDbSymbolTableRecord
100
AcDbBlockTableRecord
2
BLOCK6
340
0
70
0
280
1
281
0
1001
ACAD
1000
DesignCenter Data
1002
{
1070
1
1070
0
1002
}
0
BLOCK_RECORD
5
19D
330
D
100
AcDbSymbolTableRecord
100
AcDbBlockTableRecord
2
*Paper_Space
340
1A2
0
ENDTAB
0
ENDSEC
0
SECTION
2
BLOCKS
0
BLOCK
5
1E
330
1C
100
AcDbEntity
67
0
8
0
100
AcDbBlockBegin
2
*Model_Space
70
0
10
0.0
20
0.0
30
0.0
3
*Model_Space
4

0
ENDBLK
5
1D
330
1C
100
AcDbEntity
8
0
100
AcDbBlockEnd
0
BLOCK
5
24
330
22
100
AcDbEntity
8
0
100
AcDbBlockBegin
2
BLOCK6
70
0
10
0.0
20
0.0
30
0.0
3
BLOCK6
4

0
LINE
5
25
330
22
100
AcDbEntity
8
\U+4E2D\U+5FC3\U+7EBF\U+5C42
62
256
6
ByLayer
370
-1
48
1.0
60
0
100
AcDbLine
10
-1852.80694273576
20
-0.0000000000200089
30
0.0
11
-852.80694273576
21
-0.0000000000109139
31
0.0
39
0.0
210
0.0
220
0.0
230
1.0
0
LINE
5
29
330
22
100
AcDbEntity
8
\U+865A\U+7EBF\U+5C42
62
256
6
ByLayer
370
-1
48
1.0
60
0
100
AcDbLine
10
-401.275308785161
20
-1242.75
30
0.0
11
-1398.72469121481
21
-1242.75000000001
31
0.0
39
0.0
210
0.0
220
0.0
230
1.0
0
LINE
5
2C
330
22
100
AcDbEntity
8
\U+865A\U+7EBF\U+5C42
62
256
6
ByLayer
370
-1
48
1.0
60
0
100
AcDbLine
10
-1398.72469121484
20
1242.74999999998
30
0.0
11
-401.275308785186
21
1242.74999999999
31
0.0
39
0.0
210
0.0
220
0.0
230
1.0
0
LINE
5
2D
330
22
100
AcDbEntity
8
\U+865A\U+7EBF\U+5C42
62
256
6
ByLayer
370
-1
48
1.0
60
0
100
AcDbLine
10
-1400.00000000001
20
1244.74999999998
30
0.0
11
-1398.72469121484
21
1242.74999999998
31
0.0
39
0.0
210
0.0
220
0.0
230
1.0
0
LINE
5
2E
330
22
100
AcDbEntity
8
\U+865A\U+7EBF\U+5C42
62
256
6
ByLayer
370
-1
48
1.0
60
0
100
AcDbLine
10
-1399.99999999999
20
-1244.75000000001
30
0.0
11
-1398.72469121481
21
-1242.75000000001
31
0.0
39
0.0
210
0.0
220
0.0
230
1.0
0
LINE
5
2F
330
22
100
AcDbEntity
8
\U+7C97\U+5B9E\U+7EBF\U+5C42
62
256
6
ByLayer
370
-1
48
1.0
60
0
100
AcDbLine
10
-399.999999999988
20
-1244.75000000001
30
0.0
11
-400.000000000011
21
1244.75
31
0.0
39
0.0
210
0.0
220
0.0
230
1.0
0
LWPOLYLINE
5
31
330
22
100
AcDbEntity
8
\U+7C97\U+5B9E\U+7EBF\U+5C42
62
256
6
ByLayer
370
-1
48
1.0
60
0
100
AcDbPolyline
90
3
70
0
38
0.0
39
0.0
10
-1399.99999999999
20
-1244.75000000001
40
0.0
41
0.0
42
0.0
10
-1400.00000000001
20
1244.74999999998
40
0.0
41
0.0
42
0.0
10
-400.000000000011
20
1244.74999999999
40
0.0
41
0.0
42
0.0
210
0.0
220
0.0
230
1.0
0
LWPOLYLINE
5
32
330
22
100
AcDbEntity
8
\U+7C97\U+5B9E\U+7EBF\U+5C42
62
256
6
ByLayer
370
-1
48
1.0
60
0
100
AcDbPolyline
90
2
70
0
38
0.0
39
0.0
10
-399.999999999988
20
-1244.75
40
0.0
41
0.0
42
0.0
10
-1399.99999999999
20
-1244.75000000001
40
0.0
41
0.0
42
0.0
210
0.0
220
0.0
230
1.0
0
LINE
5
33
330
22
100
AcDbEntity
8
\U+4E2D\U+5FC3\U+7EBF\U+5C42
62
256
6
ByLayer
370
-1
48
1.0
60
0
100
AcDbLine
10
-899.999999999986
20
-1349.60767424256
30
0.0
11
-900.000000000011
21
1312.67597131621
31
0.0
39
0.0
210
0.0
220
0.0
230
1.0
0
LINE
5
34
330
22
100
AcDbEntity
8
\U+4E2D\U+5FC3\U+7EBF\U+5C42
62
256
6
ByLayer
370
-1
48
1.0
60
0
100
AcDbLine
10
52.8069427357568
20
0.0
30
0.0
11
-852.806942735759
21
-0.0000000000109139
31
0.0
39
0.0
210
0.0
220
0.0
230
1.0
0
LINE
5
35
330
22
100
AcDbEntity
8
\U+7C97\U+5B9E\U+7EBF\U+5C42
62
256
6
ByLayer
370
-1
48
1.0
60
0
100
AcDbLine
10
-903.000000000014
20
1294.74999999973
30
0.0
11
-902.999999999983
21
-1294.75000000001
31
0.0
39
0.0
210
0.0
220
0.0
230
1.0
0
LINE
5
36
330
22
100
AcDbEntity
8
\U+7C97\U+5B9E\U+7EBF\U+5C42
62
256
6
ByLayer
370
-1
48
1.0
60
0
100
AcDbLine
10
-896.999999999984
20
-1294.75000000047
30
0.0
11
-897.000000000014
21
1294.74999999999
31
0.0
39
0.0
210
0.0
220
0.0
230
1.0
0
LINE
5
37
330
22
100
AcDbEntity
8
\U+7C97\U+5B9E\U+7EBF\U+5C42
62
256
6
ByLayer
370
-1
48
1.0
60
0
100
AcDbLine
10
-897.000000000013
20
1294.74999999999
30
0.0
11
-903.000000000013
21
1294.74999999999
31
0.0
39
0.0
210
0.0
220
0.0
230
1.0
0
LINE
5
38
330
22
100
AcDbEntity
8
\U+7C97\U+5B9E\U+7EBF\U+5C42
62
256
6
ByLayer
370
-1
48
1.0
60
0
100
AcDbLine
10
-1400.00000000001
20
1294.74999999998
30
0.0
11
-400.000000000012
21
1294.74999999999
31
0.0
39
0.0
210
0.0
220
0.0
230
1.0
0
LINE
5
39
330
22
100
AcDbEntity
8
\U+7C97\U+5B9E\U+7EBF\U+5C42
62
256
6
ByLayer
370
-1
48
1.0
60
0
100
AcDbLine
10
-400.000000000012
20
1294.74999999999
30
0.0
11
-400.000000000011
21
1244.75
31
0.0
39
0.0
210
0.0
220
0.0
230
1.0
0
LINE
5
3A
330
22
100
AcDbEntity
8
\U+7C97\U+5B9E\U+7EBF\U+5C42
62
256
6
ByLayer
370
-1
48
1.0
60
0
100
AcDbLine
10
-1400.00000000001
20
1294.74999999998
30
0.0
11
-1400.00000000001
21
1244.74999999998
31
0.0
39
0.0
210
0.0
220
0.0
230
1.0
0
LINE
5
3B
330
22
100
AcDbEntity
8
\U+7C97\U+5B9E\U+7EBF\U+5C42
62
256
6
ByLayer
370
-1
48
1.0
60
0
100
AcDbLine
10
-1400.00000000001
20
455.999999999984
30
0.0
11
-1400.00000000001
21
449.999999999984
31
0.0
39
0.0
210
0.0
220
0.0
230
1.0
0
LINE
5
3C
330
22
100
AcDbEntity
8
\U+7C97\U+5B9E\U+7EBF\U+5C42
62
256
6
ByLayer
370
-1
48
1.0
60
0
100
AcDbLine
10
-1400.00000000001
20
449.999999999984
30
0.0
11
-400.000000000003
21
449.999999999996
31
0.0
39
0.0
210
0.0
220
0.0
230
1.0
0
LINE
5
3D
330
22
100
AcDbEntity
8
\U+7C97\U+5B9E\U+7EBF\U+5C42
62
256
6
ByLayer
370
-1
48
1.0
60
0
100
AcDbLine
10
-400.000000000004
20
455.999999999996
30
0.0
11
-1400.00000000001
21
455.999999999984
31
0.0
39
0.0
210
0.0
220
0.0
230
1.0
0
LWPOLYLINE
5
3E
330
22
100
AcDbEntity
8
\U+7C97\U+5B9E\U+7EBF\U+5C42
62
256
6
ByLayer
370
-1
48
1.0
60
0
100
AcDbPolyline
90
4
70
1
38
0.0
39
0.0
10
-1350.00000000001
20
1244.74999999998
40
0.0
41
0.0
42
0.0
10
-1350.00000000001
20
1254.74999999998
40
0.0
41
0.0
42
0.0
10
-1290.00000000001
20
1254.74999999998
40
0.0
41
0.0
42
0.0
10
-1290.00000000001
20
1244.74999999998
40
0.0
41
0.0
42
0.0
210
0.0
220
0.0
230
1.0
0
LWPOLYLINE
5
3F
330
22
100
AcDbEntity
8
\U+7C97\U+5B9E\U+7EBF\U+5C42
62
256
6
ByLayer
370
-1
48
1.0
60
0
100
AcDbPolyline
90
4
70
1
38
0.0
39
0.0
10
-450.000000000012
20
1244.74999999999
40
0.0
41
0.0
42
0.0
10
-450.000000000012
20
1254.74999999999
40
0.0
41
0.0
42
0.0
10
-510.000000000014
20
1254.74999999999
40
0.0
41
0.0
42
0.0
10
-510.000000000014
20
1244.74999999999
40
0.0
41
0.0
42
0.0
210
0.0
220
0.0
230
1.0
0
LINE
5
40
330
22
100
AcDbEntity
8
\U+865A\U+7EBF\U+5C42
62
256
6
ByLayer
370
-1
48
1.0
60
0
100
AcDbLine
10
-1398.72469121482
20
-1242.75000000001
30
0.0
11
-401.275308785161
21
-1242.75000000001
31
0.0
39
0.0
210
0.0
220
0.0
230
1.0
0
LINE
5
41
330
22
100
AcDbEntity
8
\U+7C97\U+5B9E\U+7EBF\U+5C42
62
256
6
ByLayer
370
-1
48
1.0
60
0
100
AcDbLine
10
-896.999999999987
20
-1294.75000000001
30
0.0
11
-902.999999999987
21
-1294.75000000001
31
0.0
39
0.0
210
0.0
220
0.0
230
1.0
0
LINE
5
42
330
22
100
AcDbEntity
8
\U+7C97\U+5B9E\U+7EBF\U+5C42
62
256
6
ByLayer
370
-1
48
1.0
60
0
100
AcDbLine
10
-1399.99999999998
20
-1294.75000000001
30
0.0
11
-399.999999999987
21
-1294.75000000001
31
0.0
39
0.0
210
0.0
220
0.0
230
1.0
0
LINE
5
43
330
22
100
AcDbEntity
8
\U+7C97\U+5B9E\U+7EBF\U+5C42
62
256
6
ByLayer
370
-1
48
1.0
60
0
100
AcDbLine
10
-399.999999999987
20
-1294.75000000001
30
0.0
11
-399.999999999987
21
-1244.75000000001
31
0.0
39
0.0
210
0.0
220
0.0
230
1.0
0
LINE
5
44
330
22
100
AcDbEntity
8
\U+7C97\U+5B9E\U+7EBF\U+5C42
62
256
6
ByLayer
370
-1
48
1.0
60
0
100
AcDbLine
10
-1399.99999999998
20
-1294.75000000001
30
0.0
11
-1399.99999999998
21
-1244.75000000001
31
0.0
39
0.0
210
0.0
220
0.0
230
1.0
0
LWPOLYLINE
5
45
330
22
100
AcDbEntity
8
\U+7C97\U+5B9E\U+7EBF\U+5C42
62
256
6
ByLayer
370
-1
48
1.0
60
0
100
AcDbPolyline
90
4
70
1
38
0.0
39
0.0
10
-1349.99999999999
20
-1244.75000000001
40
0.0
41
0.0
42
0.0
10
-1349.99999999999
20
-1254.75000000001
40
0.0
41
0.0
42
0.0
10
-1289.99999999998
20
-1254.75000000001
40
0.0
41
0.0
42
0.0
10
-1289.99999999998
20
-1244.75000000001
40
0.0
41
0.0
42
0.0
210
0.0
220
0.0
230
1.0
0
LWPOLYLINE
5
46
330
22
100
AcDbEntity
8
\U+7C97\U+5B9E\U+7EBF\U+5C42
62
256
6
ByLayer
370
-1
48
1.0
60
0
100
AcDbPolyline
90
4
70
1
38
0.0
39
0.0
10
-449.999999999989
20
-1244.75
40
0.0
41
0.0
42
0.0
10
-449.999999999989
20
-1254.75
40
0.0
41
0.0
42
0.0
10
-509.999999999991
20
-1254.75000000001
40
0.0
41
0.0
42
0.0
10
-509.999999999991
20
-1244.75000000001
40
0.0
41
0.0
42
0.0
210
0.0
220
0.0
230
1.0
0
LINE
5
47
330
22
100
AcDbEntity
8
\U+865A\U+7EBF\U+5C42
62
256
6
ByLayer
370
-1
48
1.0
60
0
100
AcDbLine
10
-401.275308785186
20
1242.75
30
0.0
11
-400.000000000012
21
1244.74999999999
31
0.0
39
0.0
210
0.0
220
0.0
230
1.0
0
LINE
5
48
330
22
100
AcDbEntity
8
\U+7C97\U+5B9E\U+7EBF\U+5C42
62
256
6
ByLayer
370
-1
48
1.0
60
0
100
AcDbLine
10
-1400.0
20
-450.000000000013
30
0.0
11
-399.999999999994
21
-450.000000000006
31
0.0
39
0.0
210
0.0
220
0.0
230
1.0
0
LINE
5
49
330
22
100
AcDbEntity
8
\U+7C97\U+5B9E\U+7EBF\U+5C42
62
256
6
ByLayer
370
-1
48
1.0
60
0
100
AcDbLine
10
-399.999999999994
20
-456.000000000005
30
0.0
11
-1400.0
21
-456.000000000013
31
0.0
39
0.0
210
0.0
220
0.0
230
1.0
0
LWPOLYLINE
5
4A
330
22
100
AcDbEntity
8
\U+7C97\U+5B9E\U+7EBF\U+5C42
62
256
6
ByLayer
370
-1
48
1.0
60
0
100
AcDbPolyline
90
4
70
1
38
0.0
39
0.0
10
-1793.99999999999
20
-650.00000000002
40
0.0
41
0.0
42
0.0
10
-1799.99999999999
20
-650.00000000002
40
0.0
41
0.0
42
0.0
10
-1800.0
20
649.99999999998
40
0.0
41
0.0
42
0.0
10
-1794.00000000001
20
649.99999999998
40
0.0
41
0.0
42
0.0
210
0.0
220
0.0
230
1.0
0
LINE
5
4B
330
22
100
AcDbEntity
8
\U+7C97\U+5B9E\U+7EBF\U+5C42
62
256
6
ByLayer
370
-1
48
1.0
60
0
100
AcDbLine
10
-1700.0
20
599.99999999998
30
0.0
11
-1400.00000000001
21
1244.74999999998
31
0.0
39
0.0
210
0.0
220
0.0
230
1.0
0
LINE
5
4C
330
22
100
AcDbEntity
8
\U+7C97\U+5B9E\U+7EBF\U+5C42
62
256
6
ByLayer
370
-1
48
1.0
60
0
100
AcDbLine
10
-1699.99999999999
20
-600.00000000002
30
0.0
11
-1399.99999999999
21
-1244.75000000001
31
0.0
39
0.0
210
0.0
220
0.0
230
1.0
0
LINE
5
4D
330
22
100
AcDbEntity
8
\U+7C97\U+5B9E\U+7EBF\U+5C42
62
256
6
ByLayer
370
-1
48
1.0
60
0
100
AcDbLine
10
-1794.00000000001
20
599.99999999998
30
0.0
11
-1700.0
21
599.99999999998
31
0.0
39
0.0
210
0.0
220
0.0
230
1.0
0
LINE
5
4E
330
22
100
AcDbEntity
8
\U+7C97\U+5B9E\U+7EBF\U+5C42
62
256
6
ByLayer
370
-1
48
1.0
60
0
100
AcDbLine
10
-1793.99999999999
20
-600.00000000002
30
0.0
11
-1699.99999999999
21
-600.00000000002
31
0.0
39
0.0
210
0.0
220
0.0
230
1.0
0
LINE
5
4F
330
22
100
AcDbEntity
8
\U+865A\U+7EBF\U+5C42
62
256
6
ByLayer
370
-1
48
1.0
60
0
100
AcDbLine
10
-1698.72469121486
20
597.99999999992
30
0.0
11
-1398.72469121484
21
1242.74999999998
31
0.0
39
0.0
210
0.0
220
0.0
230
1.0
0
LINE
5
50
330
22
100
AcDbEntity
8
\U+865A\U+7EBF\U+5C42
62
256
6
ByLayer
370
-1
48
1.0
60
0
100
AcDbLine
10
-1794.00000000001
20
597.99999999998
30
0.0
11
-1698.72469121486
21
597.99999999998
31
0.0
39
0.0
210
0.0
220
0.0
230
1.0
0
LINE
5
51
330
22
100
AcDbEntity
8
\U+865A\U+7EBF\U+5C42
62
256
6
ByLayer
370
-1
48
1.0
60
0
100
AcDbLine
10
-1793.99999999999
20
-598.00000000002
30
0.0
11
-1698.72469121438
21
-598.00000000002
31
0.0
39
0.0
210
0.0
220
0.0
230
1.0
0
LINE
5
52
330
22
100
AcDbEntity
8
\U+865A\U+7EBF\U+5C42
62
256
6
ByLayer
370
-1
48
1.0
60
0
100
AcDbLine
10
-1698.72469121438
20
-598.000000000966
30
0.0
11
-1398.72469121481
21
-1242.75000000001
31
0.0
39
0.0
210
0.0
220
0.0
230
1.0
0
LWPOLYLINE
5
53
330
22
100
AcDbEntity
8
\U+7C97\U+5B9E\U+7EBF\U+5C42
62
256
6
ByLayer
370
-1
48
1.0
60
0
100
AcDbPolyline
90
4
70
1
38
0.0
39
0.0
10
-5.999999999995
20
-650.0
40
0.0
41
0.0
42
0.0
10
0.0000000000050022
20
-650.0
40
0.0
41
0.0
42
0.0
10
-0.0000000000045475
20
650.0
40
0.0
41
0.0
42
0.0
10
-6.00000000000455
20
649.999999999998
40
0.0
41
0.0
42
0.0
210
0.0
220
0.0
230
1.0
0
LINE
5
54
330
22
100
AcDbEntity
8
\U+7C97\U+5B9E\U+7EBF\U+5C42
62
256
6
ByLayer
370
-1
48
1.0
60
0
100
AcDbLine
10
-5.99999999999318
20
-600.000000000004
30
0.0
11
-99.9999999999932
21
-600.000000000004
31
0.0
39
0.0
210
0.0
220
0.0
230
1.0
0
LINE
5
55
330
22
100
AcDbEntity
8
\U+865A\U+7EBF\U+5C42
62
256
6
ByLayer
370
-1
48
1.0
60
0
100
AcDbLine
10
-5.99999999999318
20
-598.000000000004
30
0.0
11
-101.275308785606
21
-598.000000000004
31
0.0
39
0.0
210
0.0
220
0.0
230
1.0
0
LINE
5
56
330
22
100
AcDbEntity
8
\U+7C97\U+5B9E\U+7EBF\U+5C42
62
256
6
ByLayer
370
-1
48
1.0
60
0
100
AcDbLine
10
-99.9999999999932
20
-600.000000000004
30
0.0
11
-399.999999999986
21
-1244.75000000001
31
0.0
39
0.0
210
0.0
220
0.0
230
1.0
0
LINE
5
57
330
22
100
AcDbEntity
8
\U+865A\U+7EBF\U+5C42
62
256
6
ByLayer
370
-1
48
1.0
60
0
100
AcDbLine
10
-101.275308785608
20
-598.000000000946
30
0.0
11
-401.275308785161
21
-1242.75
31
0.0
39
0.0
210
0.0
220
0.0
230
1.0
0
LINE
5
58
330
22
100
AcDbEntity
8
\U+7C97\U+5B9E\U+7EBF\U+5C42
62
256
6
ByLayer
370
-1
48
1.0
60
0
100
AcDbLine
10
-100.000000000005
20
599.999999999996
30
0.0
11
-400.000000000011
21
1244.75
31
0.0
39
0.0
210
0.0
220
0.0
230
1.0
0
LINE
5
59
330
22
100
AcDbEntity
8
\U+7C97\U+5B9E\U+7EBF\U+5C42
62
256
6
ByLayer
370
-1
48
1.0
60
0
100
AcDbLine
10
-6.00000000000455
20
599.999999999998
30
0.0
11
-100.000000000005
21
599.999999999996
31
0.0
39
0.0
210
0.0
220
0.0
230
1.0
0
LINE
5
5A
330
22
100
AcDbEntity
8
\U+865A\U+7EBF\U+5C42
62
256
6
ByLayer
370
-1
48
1.0
60
0
100
AcDbLine
10
-101.275308785151
20
597.999999999938
30
0.0
11
-401.275308785186
21
1242.75
31
0.0
39
0.0
210
0.0
220
0.0
230
1.0
0
LINE
5
5B
330
22
100
AcDbEntity
8
\U+865A\U+7EBF\U+5C42
62
256
6
ByLayer
370
-1
48
1.0
60
0
100
AcDbLine
10
-6.00000000000455
20
597.999999999998
30
0.0
11
-101.275308785151
21
597.999999999996
31
0.0
39
0.0
210
0.0
220
0.0
230
1.0
0
LINE
5
5C
330
22
100
AcDbEntity
8
\U+865A\U+7EBF\U+5C42
62
256
6
ByLayer
370
-1
48
1.0
60
0
100
AcDbLine
10
-401.275308785161
20
-1242.75
30
0.0
11
-399.999999999988
21
-1244.75
31
0.0
39
0.0
210
0.0
220
0.0
230
1.0
0
LINE
5
5D
330
22
100
AcDbEntity
8
\U+865A\U+7EBF\U+5C42
62
256
6
ByLayer
370
-1
48
1.0
60
0
100
AcDbLine
10
-1350.00000000001
20
1242.74999999999
30
0.0
11
-1350.00000000001
21
1192.74999999999
31
0.0
39
0.0
210
0.0
220
0.0
230
1.0
0
LINE
5
5E
330
22
100
AcDbEntity
8
\U+865A\U+7EBF\U+5C42
62
256
6
ByLayer
370
-1
48
1.0
60
0
100
AcDbLine
10
-1350.00000000001
20
1192.74999999999
30
0.0
11
-1348.00000000001
21
1192.74999999999
31
0.0
39
0.0
210
0.0
220
0.0
230
1.0
0
ARC
5
5F
330
22
100
AcDbEntity
8
\U+865A\U+7EBF\U+5C42
62
256
6
ByLayer
370
-1
48
1.0
60
0
100
AcDbCircle
39
0.0
10
-1348.00000000001
20
1195.74999999999
30
0.0
40
3.0
210
0.0
220
0.0
230
1.0
100
AcDbArc
50
270.0
51
0.0
0
ARC
5
60
330
22
100
AcDbEntity
8
\U+865A\U+7EBF\U+5C42
62
256
6
ByLayer
370
-1
48
1.0
60
0
100
AcDbCircle
39
0.0
10
-1339.00000000001
20
1231.74999999999
30
0.0
40
6.0
210
0.0
220
0.0
230
1.0
100
AcDbArc
50
90.0
51
180.0
0
ARC
5
61
330
22
100
AcDbEntity
8
\U+865A\U+7EBF\U+5C42
62
256
6
ByLayer
370
-1
48
1.0
60
0
100
AcDbCircle
39
0.0
10
-1303.00000000001
20
1240.74999999999
30
0.0
40
3.0
210
0.0
220
0.0
230
1.0
100
AcDbArc
50
270.0
51
0.0
0
LINE
5
62
330
22
100
AcDbEntity
8
\U+865A\U+7EBF\U+5C42
62
256
6
ByLayer
370
-1
48
1.0
60
0
100
AcDbLine
10
-1345.00000000001
20
1195.74999999999
30
0.0
11
-1345.00000000001
21
1231.74999999999
31
0.0
39
0.0
210
0.0
220
0.0
230
1.0
0
LINE
5
63
330
22
100
AcDbEntity
8
\U+865A\U+7EBF\U+5C42
62
256
6
ByLayer
370
-1
48
1.0
60
0
100
AcDbLine
10
-1339.00000000001
20
1237.74999999999
30
0.0
11
-1303.00000000001
21
1237.74999999999
31
0.0
39
0.0
210
0.0
220
0.0
230
1.0
0
LINE
5
64
330
22
100
AcDbEntity
8
\U+865A\U+7EBF\U+5C42
62
256
6
ByLayer
370
-1
48
1.0
60
0
100
AcDbLine
10
-1300.00000000001
20
1240.74999999999
30
0.0
11
-1300.00000000001
21
1242.74999999999
31
0.0
39
0.0
210
0.0
220
0.0
230
1.0
0
LINE
5
65
330
22
100
AcDbEntity
8
\U+865A\U+7EBF\U+5C42
62
256
6
ByLayer
370
-1
48
1.0
60
0
100
AcDbLine
10
-1350.00000000001
20
1242.74999999999
30
0.0
11
-1300.00000000001
21
1242.74999999999
31
0.0
39
0.0
210
0.0
220
0.0
230
1.0
0
LINE
5
66
330
22
100
AcDbEntity
8
\U+865A\U+7EBF\U+5C42
62
256
6
ByLayer
370
-1
48
1.0
60
0
100
AcDbLine
10
-1350.0
20
-1242.75000000001
30
0.0
11
-1350.0
21
-1192.75000000001
31
0.0
39
0.0
210
0.0
220
0.0
230
1.0
0
LINE
5
67
330
22
100
AcDbEntity
8
\U+865A\U+7EBF\U+5C42
62
256
6
ByLayer
370
-1
48
1.0
60
0
100
AcDbLine
10
-1350.0
20
-1192.75000000001
30
0.0
11
-1348.0
21
-1192.75000000001
31
0.0
39
0.0
210
0.0
220
0.0
230
1.0
0
ARC
5
68
330
22
100
AcDbEntity
8
\U+865A\U+7EBF\U+5C42
62
256
6
ByLayer
370
-1
48
1.0
60
0
100
AcDbCircle
39
0.0
10
-1348.0
20
-1195.75000000001
30
0.0
40
3.0
210
0.0
220
0.0
230
1.0
100
AcDbArc
50
0.0
51
90.0
0
ARC
5
69
330
22
100
AcDbEntity
8
\U+865A\U+7EBF\U+5C42
62
256
6
ByLayer
370
-1
48
1.0
60
0
100
AcDbCircle
39
0.0
10
-1339.0
20
-1231.75000000001
30
0.0
40
6.0
210
0.0
220
0.0
230
1.0
100
AcDbArc
50
180.0
51
270.0
0
ARC
5
6A
330
22
100
AcDbEntity
8
\U+865A\U+7EBF\U+5C42
62
256
6
ByLayer
370
-1
48
1.0
60
0
100
AcDbCircle
39
0.0
10
-1303.0
20
-1240.75000000001
30
0.0
40
3.0
210
0.0
220
0.0
230
1.0
100
AcDbArc
50
0.0
51
90.0
0
LINE
5
6B
330
22
100
AcDbEntity
8
\U+865A\U+7EBF\U+5C42
62
256
6
ByLayer
370
-1
48
1.0
60
0
100
AcDbLine
10
-1345.0
20
-1195.75000000001
30
0.0
11
-1345.0
21
-1231.75000000001
31
0.0
39
0.0
210
0.0
220
0.0
230
1.0
0
LINE
5
6C
330
22
100
AcDbEntity
8
\U+865A\U+7EBF\U+5C42
62
256
6
ByLayer
370
-1
48
1.0
60
0
100
AcDbLine
10
-1339.0
20
-1237.75000000001
30
0.0
11
-1303.0
21
-1237.75000000001
31
0.0
39
0.0
210
0.0
220
0.0
230
1.0
0
LINE
5
6D
330
22
100
AcDbEntity
8
\U+865A\U+7EBF\U+5C42
62
256
6
ByLayer
370
-1
48
1.0
60
0
100
AcDbLine
10
-1300.0
20
-1240.75000000001
30
0.0
11
-1300.0
21
-1242.75000000001
31
0.0
39
0.0
210
0.0
220
0.0
230
1.0
0
LINE
5
6E
330
22
100
AcDbEntity
8
\U+865A\U+7EBF\U+5C42
62
256
6
ByLayer
370
-1
48
1.0
60
0
100
AcDbLine
10
-1350.0
20
-1242.75000000001
30
0.0
11
-1300.0
21
-1242.75000000001
31
0.0
39
0.0
210
0.0
220
0.0
230
1.0
0
LINE
5
6F
330
22
100
AcDbEntity
8
\U+865A\U+7EBF\U+5C42
62
256
6
ByLayer
370
-1
48
1.0
60
0
100
AcDbLine
10
-1345.0
20
638.499999999988
30
0.0
11
-1395.0
21
638.499999999987
31
0.0
39
0.0
210
0.0
220
0.0
230
1.0
0
LINE
5
70
330
22
100
AcDbEntity
8
\U+865A\U+7EBF\U+5C42
62
256
6
ByLayer
370
-1
48
1.0
60
0
100
AcDbLine
10
-1395.0
20
638.499999999987
30
0.0
11
-1395.0
21
636.499999999987
31
0.0
39
0.0
210
0.0
220
0.0
230
1.0
0
ARC
5
71
330
22
100
AcDbEntity
8
\U+865A\U+7EBF\U+5C42
62
256
6
ByLayer
370
-1
48
1.0
60
0
100
AcDbCircle
39
0.0
10
-1392.0
20
636.499999999987
30
0.0
40
3.0
210
0.0
220
0.0
230
1.0
100
AcDbArc
50
179.999999999998
51
270.0
0
ARC
5
72
330
22
100
AcDbEntity
8
\U+865A\U+7EBF\U+5C42
62
256
6
ByLayer
370
-1
48
1.0
60
0
100
AcDbCircle
39
0.0
10
-1356.0
20
627.499999999988
30
0.0
40
6.0
210
0.0
220
0.0
230
1.0
100
AcDbArc
50
0.0
51
90.0
0
ARC
5
73
330
22
100
AcDbEntity
8
\U+865A\U+7EBF\U+5C42
62
256
6
ByLayer
370
-1
48
1.0
60
0
100
AcDbCircle
39
0.0
10
-1347.0
20
591.499999999988
30
0.0
40
3.0
210
0.0
220
0.0
230
1.0
100
AcDbArc
50
180.0
51
270.0
0
LINE
5
74
330
22
100
AcDbEntity
8
\U+865A\U+7EBF\U+5C42
62
256
6
ByLayer
370
-1
48
1.0
60
0
100
AcDbLine
10
-1392.0
20
633.499999999987
30
0.0
11
-1356.0
21
633.499999999988
31
0.0
39
0.0
210
0.0
220
0.0
230
1.0
0
LINE
5
75
330
22
100
AcDbEntity
8
\U+865A\U+7EBF\U+5C42
62
256
6
ByLayer
370
-1
48
1.0
60
0
100
AcDbLine
10
-1350.0
20
627.499999999988
30
0.0
11
-1350.0
21
591.499999999988
31
0.0
39
0.0
210
0.0
220
0.0
230
1.0
0
LINE
5
76
330
22
100
AcDbEntity
8
\U+865A\U+7EBF\U+5C42
62
256
6
ByLayer
370
-1
48
1.0
60
0
100
AcDbLine
10
-1347.0
20
588.499999999988
30
0.0
11
-1345.0
21
588.499999999988
31
0.0
39
0.0
210
0.0
220
0.0
230
1.0
0
LINE
5
77
330
22
100
AcDbEntity
8
\U+865A\U+7EBF\U+5C42
62
256
6
ByLayer
370
-1
48
1.0
60
0
100
AcDbLine
10
-1345.0
20
638.499999999988
30
0.0
11
-1345.0
21
588.499999999988
31
0.0
39
0.0
210
0.0
220
0.0
230
1.0
0
LINE
5
78
330
22
100
AcDbEntity
8
\U+865A\U+7EBF\U+5C42
62
256
6
ByLayer
370
-1
48
1.0
60
0
100
AcDbLine
10
-1345.0
20
24.999999999987
30
0.0
11
-1395.0
21
24.9999999999861
31
0.0
39
0.0
210
0.0
220
0.0
230
1.0
0
LINE
5
79
330
22
100
AcDbEntity
8
\U+865A\U+7EBF\U+5C42
62
256
6
ByLayer
370
-1
48
1.0
60
0
100
AcDbLine
10
-1395.0
20
24.9999999999861
30
0.0
11
-1395.0
21
22.9999999999861
31
0.0
39
0.0
210
0.0
220
0.0
230
1.0
0
ARC
5
7A
330
22
100
AcDbEntity
8
\U+865A\U+7EBF\U+5C42
62
256
6
ByLayer
370
-1
48
1.0
60
0
100
AcDbCircle
39
0.0
10
-1392.0
20
22.9999999999861
30
0.0
40
3.0
210
0.0
220
0.0
230
1.0
100
AcDbArc
50
179.999999999996
51
270.0
0
ARC
5
7B
330
22
100
AcDbEntity
8
\U+865A\U+7EBF\U+5C42
62
256
6
ByLayer
370
-1
48
1.0
60
0
100
AcDbCircle
39
0.0
10
-1356.0
20
13.9999999999861
30
0.0
40
6.0
210
0.0
220
0.0
230
1.0
100
AcDbArc
50
0.0
51
90.0
0
ARC
5
7C
330
22
100
AcDbEntity
8
\U+865A\U+7EBF\U+5C42
62
256
6
ByLayer
370
-1
48
1.0
60
0
100
AcDbCircle
39
0.0
10
-1347.0
20
-22.000000000013
30
0.0
40
3.0
210
0.0
220
0.0
230
1.0
100
AcDbArc
50
179.999999999996
51
270.0
0
LINE
5
7D
330
22
100
AcDbEntity
8
\U+865A\U+7EBF\U+5C42
62
256
6
ByLayer
370
-1
48
1.0
60
0
100
AcDbLine
10
-1392.0
20
19.9999999999861
30
0.0
11
-1356.0
21
19.9999999999861
31
0.0
39
0.0
210
0.0
220
0.0
230
1.0
0
LINE
5
7E
330
22
100
AcDbEntity
8
\U+865A\U+7EBF\U+5C42
62
256
6
ByLayer
370
-1
48
1.0
60
0
100
AcDbLine
10
-1350.0
20
13.999999999987
30
0.0
11
-1350.0
21
-22.000000000013
31
0.0
39
0.0
210
0.0
220
0.0
230
1.0
0
LINE
5
7F
330
22
100
AcDbEntity
8
\U+865A\U+7EBF\U+5C42
62
256
6
ByLayer
370
-1
48
1.0
60
0
100
AcDbLine
10
-1347.0
20
-25.000000000013
30
0.0
11
-1345.0
21
-25.000000000013
31
0.0
39
0.0
210
0.0
220
0.0
230
1.0
0
LINE
5
80
330
22
100
AcDbEntity
8
\U+865A\U+7EBF\U+5C42
62
256
6
ByLayer
370
-1
48
1.0
60
0
100
AcDbLine
10
-1345.0
20
24.999999999987
30
0.0
11
-1345.0
21
-25.000000000013
31
0.0
39
0.0
210
0.0
220
0.0
230
1.0
0
LINE
5
81
330
22
100
AcDbEntity
8
\U+865A\U+7EBF\U+5C42
62
256
6
ByLayer
370
-1
48
1.0
60
0
100
AcDbLine
10
-1347.50000000001
20
1225.74999999999
30
0.0
11
-1360.50000000001
21
1225.74999999999
31
0.0
39
0.0
210
0.0
220
0.0
230
1.0
0
ARC
5
82
330
22
100
AcDbEntity
8
\U+865A\U+7EBF\U+5C42
62
256
6
ByLayer
370
-1
48
1.0
60
0
100
AcDbCircle
39
0.0
10
-1354.61880215353
20
1232.67820323026
30
0.0
40
4.618802153517
210
0.0
220
0.0
230
1.0
100
AcDbArc
50
330.000000000006
51
30.0000000000056
0
ARC
5
83
330
22
100
AcDbEntity
8
\U+865A\U+7EBF\U+5C42
62
256
6
ByLayer
370
-1
48
1.0
60
0
100
AcDbCircle
39
0.0
10
-1353.38119784649
20
1232.67820323026
30
0.0
40
4.618802153517
210
0.0
220
0.0
230
1.0
100
AcDbArc
50
149.999999999998
51
209.999999999998
0
LINE
5
84
330
22
100
AcDbEntity
8
\U+865A\U+7EBF\U+5C42
62
256
6
ByLayer
370
-1
48
1.0
60
0
100
AcDbLine
10
-1350.61880215353
20
1234.98760430702
30
0.0
11
-1357.38119784649
21
1234.98760430702
31
0.0
39
0.0
210
0.0
220
0.0
230
1.0
0
ARC
5
85
330
22
100
AcDbEntity
8
\U+865A\U+7EBF\U+5C42
62
256
6
ByLayer
370
-1
48
1.0
60
0
100
AcDbCircle
39
0.0
10
-1354.61880215353
20
1218.82179676971
30
0.0
40
4.618802153517
210
0.0
220
0.0
230
1.0
100
AcDbArc
50
330.000000000003
51
30.0000000000026
0
ARC
5
86
330
22
100
AcDbEntity
8
\U+865A\U+7EBF\U+5C42
62
256
6
ByLayer
370
-1
48
1.0
60
0
100
AcDbCircle
39
0.0
10
-1353.38119784649
20
1218.82179676971
30
0.0
40
4.618802153517
210
0.0
220
0.0
230
1.0
100
AcDbArc
50
150.000000000006
51
210.000000000005
0
ARC
5
87
330
22
100
AcDbEntity
8
\U+865A\U+7EBF\U+5C42
62
256
6
ByLayer
370
-1
48
1.0
60
0
100
AcDbCircle
39
0.0
10
-1340.45299461622
20
1225.74999999999
30
0.0
40
17.5470053837925
210
0.0
220
0.0
230
1.0
100
AcDbArc
50
164.738519575146
51
195.261480424866
0
ARC
5
88
330
22
100
AcDbEntity
8
\U+865A\U+7EBF\U+5C42
62
256
6
ByLayer
370
-1
48
1.0
60
0
100
AcDbCircle
39
0.0
10
-1367.5470053838
20
1225.74999999999
30
0.0
40
17.5470053837925
210
0.0
220
0.0
230
1.0
100
AcDbArc
50
344.738519575142
51
15.2614804248624
0
LINE
5
89
330
22
100
AcDbEntity
8
\U+865A\U+7EBF\U+5C42
62
256
6
ByLayer
370
-1
48
1.0
60
0
100
AcDbLine
10
-1350.61880215353
20
1230.3688021535
30
0.0
11
-1357.38119784649
21
1230.3688021535
31
0.0
39
0.0
210
0.0
220
0.0
230
1.0
0
LINE
5
8A
330
22
100
AcDbEntity
8
\U+865A\U+7EBF\U+5C42
62
256
6
ByLayer
370
-1
48
1.0
60
0
100
AcDbLine
10
-1350.61880215353
20
1221.13119784647
30
0.0
11
-1357.38119784649
21
1221.13119784647
31
0.0
39
0.0
210
0.0
220
0.0
230
1.0
0
LINE
5
8B
330
22
100
AcDbEntity
8
\U+865A\U+7EBF\U+5C42
62
256
6
ByLayer
370
-1
48
1.0
60
0
100
AcDbLine
10
-1350.00000000001
20
1232.67820323026
30
0.0
11
-1350.00000000001
21
1218.82179676971
31
0.0
39
0.0
210
0.0
220
0.0
230
1.0
0
LINE
5
8C
330
22
100
AcDbEntity
8
\U+865A\U+7EBF\U+5C42
62
256
6
ByLayer
370
-1
48
1.0
60
0
100
AcDbLine
10
-1358.00000000001
20
1232.67820323026
30
0.0
11
-1358.00000000001
21
1218.82179676971
31
0.0
39
0.0
210
0.0
220
0.0
230
1.0
0
LINE
5
8D
330
22
100
AcDbEntity
8
\U+865A\U+7EBF\U+5C42
62
256
6
ByLayer
370
-1
48
1.0
60
0
100
AcDbLine
10
-1350.61880215353
20
1216.51239569295
30
0.0
11
-1357.38119784649
21
1216.51239569295
31
0.0
39
0.0
210
0.0
220
0.0
230
1.0
0
LINE
5
8E
330
22
100
AcDbEntity
8
\U+865A\U+7EBF\U+5C42
62
256
6
ByLayer
370
-1
48
1.0
60
0
100
AcDbLine
10
-1347.50000000001
20
613.499999999987
30
0.0
11
-1360.50000000001
21
613.499999999987
31
0.0
39
0.0
210
0.0
220
0.0
230
1.0
0
ARC
5
8F
330
22
100
AcDbEntity
8
\U+865A\U+7EBF\U+5C42
62
256
6
ByLayer
370
-1
48
1.0
60
0
100
AcDbCircle
39
0.0
10
-1354.61880215353
20
620.428203230262
30
0.0
40
4.61880215351702
210
0.0
220
0.0
230
1.0
100
AcDbArc
50
329.999999999998
51
29.9999999999999
0
ARC
5
90
330
22
100
AcDbEntity
8
\U+865A\U+7EBF\U+5C42
62
256
6
ByLayer
370
-1
48
1.0
60
0
100
AcDbCircle
39
0.0
10
-1353.38119784649
20
620.428203230262
30
0.0
40
4.618802153517
210
0.0
220
0.0
230
1.0
100
AcDbArc
50
149.999999999998
51
210.0
0
LINE
5
91
330
22
100
AcDbEntity
8
\U+865A\U+7EBF\U+5C42
62
256
6
ByLayer
370
-1
48
1.0
60
0
100
AcDbLine
10
-1350.61880215353
20
622.737604307021
30
0.0
11
-1357.38119784649
21
622.737604307021
31
0.0
39
0.0
210
0.0
220
0.0
230
1.0
0
ARC
5
92
330
22
100
AcDbEntity
8
\U+865A\U+7EBF\U+5C42
62
256
6
ByLayer
370
-1
48
1.0
60
0
100
AcDbCircle
39
0.0
10
-1354.61880215353
20
606.571796769712
30
0.0
40
4.61880215351701
210
0.0
220
0.0
230
1.0
100
AcDbArc
50
330.000000000003
51
30.0000000000023
0
ARC
5
93
330
22
100
AcDbEntity
8
\U+865A\U+7EBF\U+5C42
62
256
6
ByLayer
370
-1
48
1.0
60
0
100
AcDbCircle
39
0.0
10
-1353.38119784649
20
606.571796769712
30
0.0
40
4.618802153517
210
0.0
220
0.0
230
1.0
100
AcDbArc
50
150.000000000002
51
210.000000000002
0
ARC
5
94
330
22
100
AcDbEntity
8
\U+865A\U+7EBF\U+5C42
62
256
6
ByLayer
370
-1
48
1.0
60
0
100
AcDbCircle
39
0.0
10
-1340.45299461622
20
613.499999999987
30
0.0
40
17.5470053837925
210
0.0
220
0.0
230
1.0
100
AcDbArc
50
164.738519575149
51
195.261480424869
0
ARC
5
95
330
22
100
AcDbEntity
8
\U+865A\U+7EBF\U+5C42
62
256
6
ByLayer
370
-1
48
1.0
60
0
100
AcDbCircle
39
0.0
10
-1367.5470053838
20
613.499999999987
30
0.0
40
17.5470053837925
210
0.0
220
0.0
230
1.0
100
AcDbArc
50
344.738519575138
51
15.2614804248586
0
LINE
5
96
330
22
100
AcDbEntity
8
\U+865A\U+7EBF\U+5C42
62
256
6
ByLayer
370
-1
48
1.0
60
0
100
AcDbLine
10
-1350.61880215353
20
618.118802153504
30
0.0
11
-1357.38119784649
21
618.118802153504
31
0.0
39
0.0
210
0.0
220
0.0
230
1.0
0
LINE
5
97
330
22
100
AcDbEntity
8
\U+865A\U+7EBF\U+5C42
62
256
6
ByLayer
370
-1
48
1.0
60
0
100
AcDbLine
10
-1350.61880215353
20
608.88119784647
30
0.0
11
-1357.38119784649
21
608.88119784647
31
0.0
39
0.0
210
0.0
220
0.0
230
1.0
0
LINE
5
98
330
22
100
AcDbEntity
8
\U+865A\U+7EBF\U+5C42
62
256
6
ByLayer
370
-1
48
1.0
60
0
100
AcDbLine
10
-1350.00000000001
20
620.428203230262
30
0.0
11
-1350.00000000001
21
606.571796769712
31
0.0
39
0.0
210
0.0
220
0.0
230
1.0
0
LINE
5
99
330
22
100
AcDbEntity
8
\U+865A\U+7EBF\U+5C42
62
256
6
ByLayer
370
-1
48
1.0
60
0
100
AcDbLine
10
-1358.00000000001
20
620.428203230262
30
0.0
11
-1358.00000000001
21
606.571796769712
31
0.0
39
0.0
210
0.0
220
0.0
230
1.0
0
LINE
5
9A
330
22
100
AcDbEntity
8
\U+865A\U+7EBF\U+5C42
62
256
6
ByLayer
370
-1
48
1.0
60
0
100
AcDbLine
10
-1350.61880215353
20
604.262395692954
30
0.0
11
-1357.38119784649
21
604.262395692954
31
0.0
39
0.0
210
0.0
220
0.0
230
1.0
0
LINE
5
9B
330
22
100
AcDbEntity
8
\U+865A\U+7EBF\U+5C42
62
256
6
ByLayer
370
-1
48
1.0
60
0
100
AcDbLine
10
-1347.50000000001
20
-0.0000000000138698
30
0.0
11
-1360.50000000001
21
-0.0000000000138698
31
0.0
39
0.0
210
0.0
220
0.0
230
1.0
0
ARC
5
9C
330
22
100
AcDbEntity
8
\U+865A\U+7EBF\U+5C42
62
256
6
ByLayer
370
-1
48
1.0
60
0
100
AcDbCircle
39
0.0
10
-1354.61880215353
20
6.92820323026308
30
0.0
40
4.61880215351699
210
0.0
220
0.0
230
1.0
100
AcDbArc
50
330.000000000004
51
30.0000000000054
0
ARC
5
9D
330
22
100
AcDbEntity
8
\U+865A\U+7EBF\U+5C42
62
256
6
ByLayer
370
-1
48
1.0
60
0
100
AcDbCircle
39
0.0
10
-1353.38119784649
20
6.92820323026308
30
0.0
40
4.61880215351699
210
0.0
220
0.0
230
1.0
100
AcDbArc
50
149.999999999998
51
209.999999999999
0
LINE
5
9E
330
22
100
AcDbEntity
8
\U+865A\U+7EBF\U+5C42
62
256
6
ByLayer
370
-1
48
1.0
60
0
100
AcDbLine
10
-1350.61880215353
20
9.237604307021
30
0.0
11
-1357.38119784649
21
9.237604307021
31
0.0
39
0.0
210
0.0
220
0.0
230
1.0
0
ARC
5
9F
330
22
100
AcDbEntity
8
\U+865A\U+7EBF\U+5C42
62
256
6
ByLayer
370
-1
48
1.0
60
0
100
AcDbCircle
39
0.0
10
-1354.61880215353
20
-6.928203230289
30
0.0
40
4.618802153517
210
0.0
220
0.0
230
1.0
100
AcDbArc
50
330.000000000005
51
30.0000000000049
0
ARC
5
A0
330
22
100
AcDbEntity
8
\U+865A\U+7EBF\U+5C42
62
256
6
ByLayer
370
-1
48
1.0
60
0
100
AcDbCircle
39
0.0
10
-1353.38119784649
20
-6.928203230289
30
0.0
40
4.61880215351701
210
0.0
220
0.0
230
1.0
100
AcDbArc
50
150.000000000009
51
210.000000000009
0
ARC
5
A1
330
22
100
AcDbEntity
8
\U+865A\U+7EBF\U+5C42
62
256
6
ByLayer
370
-1
48
1.0
60
0
100
AcDbCircle
39
0.0
10
-1340.45299461621
20
-0.0000000000138698
30
0.0
40
17.5470053837925
210
0.0
220
0.0
230
1.0
100
AcDbArc
50
164.738519575146
51
195.261480424866
0
ARC
5
A2
330
22
100
AcDbEntity
8
\U+865A\U+7EBF\U+5C42
62
256
6
ByLayer
370
-1
48
1.0
60
0
100
AcDbCircle
39
0.0
10
-1367.5470053838
20
-0.0000000000138698
30
0.0
40
17.5470053837925
210
0.0
220
0.0
230
1.0
100
AcDbArc
50
344.738519575143
51
15.2614804248639
0
LINE
5
A3
330
22
100
AcDbEntity
8
\U+865A\U+7EBF\U+5C42
62
256
6
ByLayer
370
-1
48
1.0
60
0
100
AcDbLine
10
-1350.61880215353
20
4.61880215350402
30
0.0
11
-1357.38119784649
21
4.61880215350197
31
0.0
39
0.0
210
0.0
220
0.0
230
1.0
0
LINE
5
A4
330
22
100
AcDbEntity
8
\U+865A\U+7EBF\U+5C42
62
256
6
ByLayer
370
-1
48
1.0
60
0
100
AcDbLine
10
-1350.61880215353
20
-4.61880215352994
30
0.0
11
-1357.38119784649
21
-4.61880215352994
31
0.0
39
0.0
210
0.0
220
0.0
230
1.0
0
LINE
5
A5
330
22
100
AcDbEntity
8
\U+865A\U+7EBF\U+5C42
62
256
6
ByLayer
370
-1
48
1.0
60
0
100
AcDbLine
10
-1350.00000000001
20
6.92820323026308
30
0.0
11
-1350.00000000001
21
-6.928203230289
31
0.0
39
0.0
210
0.0
220
0.0
230
1.0
0
LINE
5
A6
330
22
100
AcDbEntity
8
\U+865A\U+7EBF\U+5C42
62
256
6
ByLayer
370
-1
48
1.0
60
0
100
AcDbLine
10
-1358.00000000001
20
6.92820323026308
30
0.0
11
-1358.00000000001
21
-6.92820323028991
31
0.0
39
0.0
210
0.0
220
0.0
230
1.0
0
LINE
5
A7
330
22
100
AcDbEntity
8
\U+865A\U+7EBF\U+5C42
62
256
6
ByLayer
370
-1
48
1.0
60
0
100
AcDbLine
10
-1350.61880215353
20
-9.23760430704692
30
0.0
11
-1357.38119784649
21
-9.23760430704806
31
0.0
39
0.0
210
0.0
220
0.0
230
1.0
0
LINE
5
A8
330
22
100
AcDbEntity
8
\U+865A\U+7EBF\U+5C42
62
256
6
ByLayer
370
-1
48
1.0
60
0
100
AcDbLine
10
-1347.5
20
-1225.75000000001
30
0.0
11
-1360.5
21
-1225.75000000001
31
0.0
39
0.0
210
0.0
220
0.0
230
1.0
0
ARC
5
A9
330
22
100
AcDbEntity
8
\U+865A\U+7EBF\U+5C42
62
256
6
ByLayer
370
-1
48
1.0
60
0
100
AcDbCircle
39
0.0
10
-1354.61880215352
20
-1218.82179676974
30
0.0
40
4.61880215351704
210
0.0
220
0.0
230
1.0
100
AcDbArc
50
329.999999999993
51
29.9999999999938
0
ARC
5
AA
330
22
100
AcDbEntity
8
\U+865A\U+7EBF\U+5C42
62
256
6
ByLayer
370
-1
48
1.0
60
0
100
AcDbCircle
39
0.0
10
-1353.38119784649
20
-1218.82179676974
30
0.0
40
4.61880215351699
210
0.0
220
0.0
230
1.0
100
AcDbArc
50
150.00000000001
51
210.000000000014
0
LINE
5
AB
330
22
100
AcDbEntity
8
\U+865A\U+7EBF\U+5C42
62
256
6
ByLayer
370
-1
48
1.0
60
0
100
AcDbLine
10
-1350.61880215352
20
-1216.51239569298
30
0.0
11
-1357.38119784649
21
-1216.51239569298
31
0.0
39
0.0
210
0.0
220
0.0
230
1.0
0
ARC
5
AC
330
22
100
AcDbEntity
8
\U+865A\U+7EBF\U+5C42
62
256
6
ByLayer
370
-1
48
1.0
60
0
100
AcDbCircle
39
0.0
10
-1354.61880215352
20
-1232.67820323029
30
0.0
40
4.61880215351699
210
0.0
220
0.0
230
1.0
100
AcDbArc
50
330.000000000004
51
30.0000000000054
0
ARC
5
AD
330
22
100
AcDbEntity
8
\U+865A\U+7EBF\U+5C42
62
256
6
ByLayer
370
-1
48
1.0
60
0
100
AcDbCircle
39
0.0
10
-1353.38119784649
20
-1232.67820323029
30
0.0
40
4.61880215351697
210
0.0
220
0.0
230
1.0
100
AcDbArc
50
150.000000000017
51
210.000000000012
0
ARC
5
AE
330
22
100
AcDbEntity
8
\U+865A\U+7EBF\U+5C42
62
256
6
ByLayer
370
-1
48
1.0
60
0
100
AcDbCircle
39
0.0
10
-1340.45299461621
20
-1225.75000000001
30
0.0
40
17.5470053837925
210
0.0
220
0.0
230
1.0
100
AcDbArc
50
164.738519575144
51
195.261480424864
0
ARC
5
AF
330
22
100
AcDbEntity
8
\U+865A\U+7EBF\U+5C42
62
256
6
ByLayer
370
-1
48
1.0
60
0
100
AcDbCircle
39
0.0
10
-1367.5470053838
20
-1225.75000000001
30
0.0
40
17.5470053837925
210
0.0
220
0.0
230
1.0
100
AcDbArc
50
344.738519575139
51
15.2614804248593
0
LINE
5
B0
330
22
100
AcDbEntity
8
\U+865A\U+7EBF\U+5C42
62
256
6
ByLayer
370
-1
48
1.0
60
0
100
AcDbLine
10
-1350.61880215352
20
-1221.1311978465
30
0.0
11
-1357.38119784649
21
-1221.1311978465
31
0.0
39
0.0
210
0.0
220
0.0
230
1.0
0
LINE
5
B1
330
22
100
AcDbEntity
8
\U+865A\U+7EBF\U+5C42
62
256
6
ByLayer
370
-1
48
1.0
60
0
100
AcDbLine
10
-1350.61880215352
20
-1230.36880215353
30
0.0
11
-1357.38119784649
21
-1230.36880215353
31
0.0
39
0.0
210
0.0
220
0.0
230
1.0
0
LINE
5
B2
330
22
100
AcDbEntity
8
\U+865A\U+7EBF\U+5C42
62
256
6
ByLayer
370
-1
48
1.0
60
0
100
AcDbLine
10
-1350.0
20
-1218.82179676974
30
0.0
11
-1350.0
21
-1232.67820323029
31
0.0
39
0.0
210
0.0
220
0.0
230
1.0
0
LINE
5
B3
330
22
100
AcDbEntity
8
\U+865A\U+7EBF\U+5C42
62
256
6
ByLayer
370
-1
48
1.0
60
0
100
AcDbLine
10
-1358.0
20
-1218.82179676974
30
0.0
11
-1358.0
21
-1232.67820323029
31
0.0
39
0.0
210
0.0
220
0.0
230
1.0
0
LINE
5
B4
330
22
100
AcDbEntity
8
\U+865A\U+7EBF\U+5C42
62
256
6
ByLayer
370
-1
48
1.0
60
0
100
AcDbLine
10
-1350.61880215352
20
-1234.98760430705
30
0.0
11
-1357.38119784649
21
-1234.98760430705
31
0.0
39
0.0
210
0.0
220
0.0
230
1.0
0
LINE
5
B5
330
22
100
AcDbEntity
8
\U+865A\U+7EBF\U+5C42
62
256
6
ByLayer
370
-1
48
1.0
60
0
100
AcDbLine
10
-1347.50000000001
20
1170.24999999999
30
0.0
11
-1360.50000000001
21
1170.24999999999
31
0.0
39
0.0
210
0.0
220
0.0
230
1.0
0
ARC
5
B6
330
22
100
AcDbEntity
8
\U+865A\U+7EBF\U+5C42
62
256
6
ByLayer
370
-1
48
1.0
60
0
100
AcDbCircle
39
0.0
10
-1354.61880215353
20
1177.17820323026
30
0.0
40
4.618802153517
210
0.0
220
0.0
230
1.0
100
AcDbArc
50
329.999999999998
51
29.999999999998
0
ARC
5
B7
330
22
100
AcDbEntity
8
\U+865A\U+7EBF\U+5C42
62
256
6
ByLayer
370
-1
48
1.0
60
0
100
AcDbCircle
39
0.0
10
-1353.38119784649
20
1177.17820323026
30
0.0
40
4.61880215351701
210
0.0
220
0.0
230
1.0
100
AcDbArc
50
150.000000000004
51
210.000000000004
0
LINE
5
B8
330
22
100
AcDbEntity
8
\U+865A\U+7EBF\U+5C42
62
256
6
ByLayer
370
-1
48
1.0
60
0
100
AcDbLine
10
-1350.61880215353
20
1179.48760430702
30
0.0
11
-1357.38119784649
21
1179.48760430702
31
0.0
39
0.0
210
0.0
220
0.0
230
1.0
0
ARC
5
B9
330
22
100
AcDbEntity
8
\U+865A\U+7EBF\U+5C42
62
256
6
ByLayer
370
-1
48
1.0
60
0
100
AcDbCircle
39
0.0
10
-1354.61880215353
20
1163.32179676971
30
0.0
40
4.618802153517
210
0.0
220
0.0
230
1.0
100
AcDbArc
50
329.999999999999
51
29.9999999999986
0
ARC
5
BA
330
22
100
AcDbEntity
8
\U+865A\U+7EBF\U+5C42
62
256
6
ByLayer
370
-1
48
1.0
60
0
100
AcDbCircle
39
0.0
10
-1353.38119784649
20
1163.32179676971
30
0.0
40
4.618802153517
210
0.0
220
0.0
230
1.0
100
AcDbArc
50
150.000000000006
51
210.000000000006
0
ARC
5
BB
330
22
100
AcDbEntity
8
\U+865A\U+7EBF\U+5C42
62
256
6
ByLayer
370
-1
48
1.0
60
0
100
AcDbCircle
39
0.0
10
-1340.45299461622
20
1170.24999999999
30
0.0
40
17.5470053837925
210
0.0
220
0.0
230
1.0
100
AcDbArc
50
164.738519575146
51
195.261480424866
0
ARC
5
BC
330
22
100
AcDbEntity
8
\U+865A\U+7EBF\U+5C42
62
256
6
ByLayer
370
-1
48
1.0
60
0
100
AcDbCircle
39
0.0
10
-1367.5470053838
20
1170.24999999999
30
0.0
40
17.5470053837925
210
0.0
220
0.0
230
1.0
100
AcDbArc
50
344.738519575136
51
15.2614804248557
0
LINE
5
BD
330
22
100
AcDbEntity
8
\U+865A\U+7EBF\U+5C42
62
256
6
ByLayer
370
-1
48
1.0
60
0
100
AcDbLine
10
-1350.61880215353
20
1174.8688021535
30
0.0
11
-1357.38119784649
21
1174.8688021535
31
0.0
39
0.0
210
0.0
220
0.0
230
1.0
0
LINE
5
BE
330
22
100
AcDbEntity
8
\U+865A\U+7EBF\U+5C42
62
256
6
ByLayer
370
-1
48
1.0
60
0
100
AcDbLine
10
-1350.61880215353
20
1165.63119784647
30
0.0
11
-1357.38119784649
21
1165.63119784647
31
0.0
39
0.0
210
0.0
220
0.0
230
1.0
0
LINE
5
BF
330
22
100
AcDbEntity
8
\U+865A\U+7EBF\U+5C42
62
256
6
ByLayer
370
-1
48
1.0
60
0
100
AcDbLine
10
-1350.00000000001
20
1177.17820323026
30
0.0
11
-1350.00000000001
21
1163.32179676971
31
0.0
39
0.0
210
0.0
220
0.0
230
1.0
0
LINE
5
C0
330
22
100
AcDbEntity
8
\U+865A\U+7EBF\U+5C42
62
256
6
ByLayer
370
-1
48
1.0
60
0
100
AcDbLine
10
-1358.00000000001
20
1177.17820323026
30
0.0
11
-1358.00000000001
21
1163.32179676971
31
0.0
39
0.0
210
0.0
220
0.0
230
1.0
0
LINE
5
C1
330
22
100
AcDbEntity
8
\U+865A\U+7EBF\U+5C42
62
256
6
ByLayer
370
-1
48
1.0
60
0
100
AcDbLine
10
-1350.61880215353
20
1161.01239569295
30
0.0
11
-1357.38119784649
21
1161.01239569295
31
0.0
39
0.0
210
0.0
220
0.0
230
1.0
0
LINE
5
C2
330
22
100
AcDbEntity
8
\U+865A\U+7EBF\U+5C42
62
256
6
ByLayer
370
-1
48
1.0
60
0
100
AcDbLine
10
-1347.50000000001
20
670.249999999988
30
0.0
11
-1360.50000000001
21
670.249999999988
31
0.0
39
0.0
210
0.0
220
0.0
230
1.0
0
ARC
5
C3
330
22
100
AcDbEntity
8
\U+865A\U+7EBF\U+5C42
62
256
6
ByLayer
370
-1
48
1.0
60
0
100
AcDbCircle
39
0.0
10
-1354.61880215353
20
677.178203230262
30
0.0
40
4.61880215351701
210
0.0
220
0.0
230
1.0
100
AcDbArc
50
330.0
51
30.0000000000011
0
ARC
5
C4
330
22
100
AcDbEntity
8
\U+865A\U+7EBF\U+5C42
62
256
6
ByLayer
370
-1
48
1.0
60
0
100
AcDbCircle
39
0.0
10
-1353.38119784649
20
677.178203230262
30
0.0
40
4.61880215351701
210
0.0
220
0.0
230
1.0
100
AcDbArc
50
150.000000000005
51
210.000000000005
0
LINE
5
C5
330
22
100
AcDbEntity
8
\U+865A\U+7EBF\U+5C42
62
256
6
ByLayer
370
-1
48
1.0
60
0
100
AcDbLine
10
-1350.61880215353
20
679.487604307021
30
0.0
11
-1357.38119784649
21
679.487604307021
31
0.0
39
0.0
210
0.0
220
0.0
230
1.0
0
ARC
5
C6
330
22
100
AcDbEntity
8
\U+865A\U+7EBF\U+5C42
62
256
6
ByLayer
370
-1
48
1.0
60
0
100
AcDbCircle
39
0.0
10
-1354.61880215353
20
663.321796769712
30
0.0
40
4.618802153517
210
0.0
220
0.0
230
1.0
100
AcDbArc
50
330.000000000003
51
30.0000000000033
0
ARC
5
C7
330
22
100
AcDbEntity
8
\U+865A\U+7EBF\U+5C42
62
256
6
ByLayer
370
-1
48
1.0
60
0
100
AcDbCircle
39
0.0
10
-1353.38119784649
20
663.321796769712
30
0.0
40
4.61880215351701
210
0.0
220
0.0
230
1.0
100
AcDbArc
50
150.000000000002
51
210.000000000003
0
ARC
5
C8
330
22
100
AcDbEntity
8
\U+865A\U+7EBF\U+5C42
62
256
6
ByLayer
370
-1
48
1.0
60
0
100
AcDbCircle
39
0.0
10
-1340.45299461622
20
670.249999999988
30
0.0
40
17.5470053837925
210
0.0
220
0.0
230
1.0
100
AcDbArc
50
164.738519575142
51
195.261480424863
0
ARC
5
C9
330
22
100
AcDbEntity
8
\U+865A\U+7EBF\U+5C42
62
256
6
ByLayer
370
-1
48
1.0
60
0
100
AcDbCircle
39
0.0
10
-1367.5470053838
20
670.249999999987
30
0.0
40
17.5470053837925
210
0.0
220
0.0
230
1.0
100
AcDbArc
50
344.738519575146
51
15.2614804248665
0
LINE
5
CA
330
22
100
AcDbEntity
8
\U+865A\U+7EBF\U+5C42
62
256
6
ByLayer
370
-1
48
1.0
60
0
100
AcDbLine
10
-1350.61880215353
20
674.868802153504
30
0.0
11
-1357.38119784649
21
674.868802153504
31
0.0
39
0.0
210
0.0
220
0.0
230
1.0
0
LINE
5
CB
330
22
100
AcDbEntity
8
\U+865A\U+7EBF\U+5C42
62
256
6
ByLayer
370
-1
48
1.0
60
0
100
AcDbLine
10
-1350.61880215353
20
665.63119784647
30
0.0
11
-1357.38119784649
21
665.63119784647
31
0.0
39
0.0
210
0.0
220
0.0
230
1.0
0
LINE
5
CC
330
22
100
AcDbEntity
8
\U+865A\U+7EBF\U+5C42
62
256
6
ByLayer
370
-1
48
1.0
60
0
100
AcDbLine
10
-1350.00000000001
20
677.178203230262
30
0.0
11
-1350.00000000001
21
663.321796769712
31
0.0
39
0.0
210
0.0
220
0.0
230
1.0
0
LINE
5
CD
330
22
100
AcDbEntity
8
\U+865A\U+7EBF\U+5C42
62
256
6
ByLayer
370
-1
48
1.0
60
0
100
AcDbLine
10
-1358.00000000001
20
677.178203230262
30
0.0
11
-1358.00000000001
21
663.321796769712
31
0.0
39
0.0
210
0.0
220
0.0
230
1.0
0
LINE
5
CE
330
22
100
AcDbEntity
8
\U+865A\U+7EBF\U+5C42
62
256
6
ByLayer
370
-1
48
1.0
60
0
100
AcDbLine
10
-1350.61880215353
20
661.012395692954
30
0.0
11
-1357.38119784649
21
661.012395692954
31
0.0
39
0.0
210
0.0
220
0.0
230
1.0
0
LINE
5
CF
330
22
100
AcDbEntity
8
\U+865A\U+7EBF\U+5C42
62
256
6
ByLayer
370
-1
48
1.0
60
0
100
AcDbLine
10
-1347.50000000001
20
556.749999999988
30
0.0
11
-1360.50000000001
21
556.749999999988
31
0.0
39
0.0
210
0.0
220
0.0
230
1.0
0
ARC
5
D0
330
22
100
AcDbEntity
8
\U+865A\U+7EBF\U+5C42
62
256
6
ByLayer
370
-1
48
1.0
60
0
100
AcDbCircle
39
0.0
10
-1354.61880215353
20
563.678203230262
30
0.0
40
4.61880215351701
210
0.0
220
0.0
230
1.0
100
AcDbArc
50
330.000000000002
51
30.0000000000038
0
ARC
5
D1
330
22
100
AcDbEntity
8
\U+865A\U+7EBF\U+5C42
62
256
6
ByLayer
370
-1
48
1.0
60
0
100
AcDbCircle
39
0.0
10
-1353.38119784649
20
563.678203230262
30
0.0
40
4.618802153517
210
0.0
220
0.0
230
1.0
100
AcDbArc
50
150.0
51
210.0
0
LINE
5
D2
330
22
100
AcDbEntity
8
\U+865A\U+7EBF\U+5C42
62
256
6
ByLayer
370
-1
48
1.0
60
0
100
AcDbLine
10
-1350.61880215353
20
565.987604307022
30
0.0
11
-1357.38119784649
21
565.987604307022
31
0.0
39
0.0
210
0.0
220
0.0
230
1.0
0
ARC
5
D3
330
22
100
AcDbEntity
8
\U+865A\U+7EBF\U+5C42
62
256
6
ByLayer
370
-1
48
1.0
60
0
100
AcDbCircle
39
0.0
10
-1354.61880215353
20
549.821796769712
30
0.0
40
4.61880215351699
210
0.0
220
0.0
230
1.0
100
AcDbArc
50
330.000000000005
51
30.000000000005
0
ARC
5
D4
330
22
100
AcDbEntity
8
\U+865A\U+7EBF\U+5C42
62
256
6
ByLayer
370
-1
48
1.0
60
0
100
AcDbCircle
39
0.0
10
-1353.38119784649
20
549.821796769712
30
0.0
40
4.61880215351702
210
0.0
220
0.0
230
1.0
100
AcDbArc
50
150.000000000007
51
210.000000000006
0
ARC
5
D5
330
22
100
AcDbEntity
8
\U+865A\U+7EBF\U+5C42
62
256
6
ByLayer
370
-1
48
1.0
60
0
100
AcDbCircle
39
0.0
10
-1340.45299461622
20
556.749999999988
30
0.0
40
17.5470053837925
210
0.0
220
0.0
230
1.0
100
AcDbArc
50
164.738519575144
51
195.261480424864
0
ARC
5
D6
330
22
100
AcDbEntity
8
\U+865A\U+7EBF\U+5C42
62
256
6
ByLayer
370
-1
48
1.0
60
0
100
AcDbCircle
39
0.0
10
-1367.5470053838
20
556.749999999987
30
0.0
40
17.5470053837925
210
0.0
220
0.0
230
1.0
100
AcDbArc
50
344.73851957514
51
15.26148042486
0
LINE
5
D7
330
22
100
AcDbEntity
8
\U+865A\U+7EBF\U+5C42
62
256
6
ByLayer
370
-1
48
1.0
60
0
100
AcDbLine
10
-1350.61880215353
20
561.368802153504
30
0.0
11
-1357.38119784649
21
561.368802153504
31
0.0
39
0.0
210
0.0
220
0.0
230
1.0
0
LINE
5
D8
330
22
100
AcDbEntity
8
\U+865A\U+7EBF\U+5C42
62
256
6
ByLayer
370
-1
48
1.0
60
0
100
AcDbLine
10
-1350.61880215353
20
552.13119784647
30
0.0
11
-1357.38119784649
21
552.13119784647
31
0.0
39
0.0
210
0.0
220
0.0
230
1.0
0
LINE
5
D9
330
22
100
AcDbEntity
8
\U+865A\U+7EBF\U+5C42
62
256
6
ByLayer
370
-1
48
1.0
60
0
100
AcDbLine
10
-1350.00000000001
20
563.678203230262
30
0.0
11
-1350.00000000001
21
549.821796769712
31
0.0
39
0.0
210
0.0
220
0.0
230
1.0
0
LINE
5
DA
330
22
100
AcDbEntity
8
\U+865A\U+7EBF\U+5C42
62
256
6
ByLayer
370
-1
48
1.0
60
0
100
AcDbLine
10
-1358.00000000001
20
563.678203230262
30
0.0
11
-1358.00000000001
21
549.821796769712
31
0.0
39
0.0
210
0.0
220
0.0
230
1.0
0
LINE
5
DB
330
22
100
AcDbEntity
8
\U+865A\U+7EBF\U+5C42
62
256
6
ByLayer
370
-1
48
1.0
60
0
100
AcDbLine
10
-1350.61880215353
20
547.512395692954
30
0.0
11
-1357.38119784649
21
547.512395692954
31
0.0
39
0.0
210
0.0
220
0.0
230
1.0
0
LINE
5
DC
330
22
100
AcDbEntity
8
\U+865A\U+7EBF\U+5C42
62
256
6
ByLayer
370
-1
48
1.0
60
0
100
AcDbLine
10
-1347.50000000001
20
306.749999999988
30
0.0
11
-1360.50000000001
21
306.749999999988
31
0.0
39
0.0
210
0.0
220
0.0
230
1.0
0
ARC
5
DD
330
22
100
AcDbEntity
8
\U+865A\U+7EBF\U+5C42
62
256
6
ByLayer
370
-1
48
1.0
60
0
100
AcDbCircle
39
0.0
10
-1354.61880215353
20
313.678203230263
30
0.0
40
4.61880215351699
210
0.0
220
0.0
230
1.0
100
AcDbArc
50
330.000000000002
51
30.0000000000012
0
ARC
5
DE
330
22
100
AcDbEntity
8
\U+865A\U+7EBF\U+5C42
62
256
6
ByLayer
370
-1
48
1.0
60
0
100
AcDbCircle
39
0.0
10
-1353.38119784649
20
313.678203230263
30
0.0
40
4.61880215351703
210
0.0
220
0.0
230
1.0
100
AcDbArc
50
149.999999999999
51
209.999999999998
0
LINE
5
DF
330
22
100
AcDbEntity
8
\U+865A\U+7EBF\U+5C42
62
256
6
ByLayer
370
-1
48
1.0
60
0
100
AcDbLine
10
-1350.61880215353
20
315.987604307022
30
0.0
11
-1357.38119784649
21
315.987604307022
31
0.0
39
0.0
210
0.0
220
0.0
230
1.0
0
ARC
5
E0
330
22
100
AcDbEntity
8
\U+865A\U+7EBF\U+5C42
62
256
6
ByLayer
370
-1
48
1.0
60
0
100
AcDbCircle
39
0.0
10
-1354.61880215353
20
299.821796769712
30
0.0
40
4.61880215351701
210
0.0
220
0.0
230
1.0
100
AcDbArc
50
330.000000000003
51
30.0000000000038
0
ARC
5
E1
330
22
100
AcDbEntity
8
\U+865A\U+7EBF\U+5C42
62
256
6
ByLayer
370
-1
48
1.0
60
0
100
AcDbCircle
39
0.0
10
-1353.38119784649
20
299.821796769712
30
0.0
40
4.61880215351701
210
0.0
220
0.0
230
1.0
100
AcDbArc
50
150.000000000006
51
210.000000000005
0
ARC
5
E2
330
22
100
AcDbEntity
8
\U+865A\U+7EBF\U+5C42
62
256
6
ByLayer
370
-1
48
1.0
60
0
100
AcDbCircle
39
0.0
10
-1340.45299461621
20
306.749999999988
30
0.0
40
17.5470053837925
210
0.0
220
0.0
230
1.0
100
AcDbArc
50
164.738519575143
51
195.261480424863
0
ARC
5
E3
330
22
100
AcDbEntity
8
\U+865A\U+7EBF\U+5C42
62
256
6
ByLayer
370
-1
48
1.0
60
0
100
AcDbCircle
39
0.0
10
-1367.5470053838
20
306.749999999987
30
0.0
40
17.5470053837925
210
0.0
220
0.0
230
1.0
100
AcDbArc
50
344.738519575138
51
15.2614804248578
0
LINE
5
E4
330
22
100
AcDbEntity
8
\U+865A\U+7EBF\U+5C42
62
256
6
ByLayer
370
-1
48
1.0
60
0
100
AcDbLine
10
-1350.61880215353
20
311.368802153504
30
0.0
11
-1357.38119784649
21
311.368802153504
31
0.0
39
0.0
210
0.0
220
0.0
230
1.0
0
LINE
5
E5
330
22
100
AcDbEntity
8
\U+865A\U+7EBF\U+5C42
62
256
6
ByLayer
370
-1
48
1.0
60
0
100
AcDbLine
10
-1350.61880215353
20
302.13119784647
30
0.0
11
-1357.38119784649
21
302.13119784647
31
0.0
39
0.0
210
0.0
220
0.0
230
1.0
0
LINE
5
E6
330
22
100
AcDbEntity
8
\U+865A\U+7EBF\U+5C42
62
256
6
ByLayer
370
-1
48
1.0
60
0
100
AcDbLine
10
-1350.00000000001
20
313.678203230263
30
0.0
11
-1350.00000000001
21
299.821796769712
31
0.0
39
0.0
210
0.0
220
0.0
230
1.0
0
LINE
5
E7
330
22
100
AcDbEntity
8
\U+865A\U+7EBF\U+5C42
62
256
6
ByLayer
370
-1
48
1.0
60
0
100
AcDbLine
10
-1358.00000000001
20
313.678203230263
30
0.0
11
-1358.00000000001
21
299.821796769712
31
0.0
39
0.0
210
0.0
220
0.0
230
1.0
0
LINE
5
E8
330
22
100
AcDbEntity
8
\U+865A\U+7EBF\U+5C42
62
256
6
ByLayer
370
-1
48
1.0
60
0
100
AcDbLine
10
-1350.61880215353
20
297.512395692954
30
0.0
11
-1357.38119784649
21
297.512395692954
31
0.0
39
0.0
210
0.0
220
0.0
230
1.0
0
LINE
5
E9
330
22
100
AcDbEntity
8
\U+865A\U+7EBF\U+5C42
62
256
6
ByLayer
370
-1
48
1.0
60
0
100
AcDbLine
10
-1347.50000000001
20
56.7499999999879
30
0.0
11
-1360.50000000001
21
56.749999999987
31
0.0
39
0.0
210
0.0
220
0.0
230
1.0
0
ARC
5
EA
330
22
100
AcDbEntity
8
\U+865A\U+7EBF\U+5C42
62
256
6
ByLayer
370
-1
48
1.0
60
0
100
AcDbCircle
39
0.0
10
-1354.61880215353
20
63.678203230264
30
0.0
40
4.61880215351699
210
0.0
220
0.0
230
1.0
100
AcDbArc
50
330.000000000001
51
30.0000000000018
0
ARC
5
EB
330
22
100
AcDbEntity
8
\U+865A\U+7EBF\U+5C42
62
256
6
ByLayer
370
-1
48
1.0
60
0
100
AcDbCircle
39
0.0
10
-1353.38119784649
20
63.678203230264
30
0.0
40
4.61880215351704
210
0.0
220
0.0
230
1.0
100
AcDbArc
50
149.999999999999
51
210.000000000001
0
LINE
5
EC
330
22
100
AcDbEntity
8
\U+865A\U+7EBF\U+5C42
62
256
6
ByLayer
370
-1
48
1.0
60
0
100
AcDbLine
10
-1350.61880215353
20
65.9876043070221
30
0.0
11
-1357.38119784649
21
65.987604307021
31
0.0
39
0.0
210
0.0
220
0.0
230
1.0
0
ARC
5
ED
330
22
100
AcDbEntity
8
\U+865A\U+7EBF\U+5C42
62
256
6
ByLayer
370
-1
48
1.0
60
0
100
AcDbCircle
39
0.0
10
-1354.61880215353
20
49.8217967697121
30
0.0
40
4.61880215351702
210
0.0
220
0.0
230
1.0
100
AcDbArc
50
329.999999999996
51
29.9999999999978
0
ARC
5
EE
330
22
100
AcDbEntity
8
\U+865A\U+7EBF\U+5C42
62
256
6
ByLayer
370
-1
48
1.0
60
0
100
AcDbCircle
39
0.0
10
-1353.38119784649
20
49.8217967697121
30
0.0
40
4.61880215351701
210
0.0
220
0.0
230
1.0
100
AcDbArc
50
150.000000000005
51
210.000000000005
0
ARC
5
EF
330
22
100
AcDbEntity
8
\U+865A\U+7EBF\U+5C42
62
256
6
ByLayer
370
-1
48
1.0
60
0
100
AcDbCircle
39
0.0
10
-1340.45299461621
20
56.7499999999879
30
0.0
40
17.5470053837925
210
0.0
220
0.0
230
1.0
100
AcDbArc
50
164.738519575146
51
195.261480424866
0
ARC
5
F0
330
22
100
AcDbEntity
8
\U+865A\U+7EBF\U+5C42
62
256
6
ByLayer
370
-1
48
1.0
60
0
100
AcDbCircle
39
0.0
10
-1367.5470053838
20
56.749999999987
30
0.0
40
17.5470053837925
210
0.0
220
0.0
230
1.0
100
AcDbArc
50
344.738519575139
51
15.2614804248593
0
LINE
5
F1
330
22
100
AcDbEntity
8
\U+865A\U+7EBF\U+5C42
62
256
6
ByLayer
370
-1
48
1.0
60
0
100
AcDbLine
10
-1350.61880215353
20
61.368802153504
30
0.0
11
-1357.38119784649
21
61.368802153504
31
0.0
39
0.0
210
0.0
220
0.0
230
1.0
0
LINE
5
F2
330
22
100
AcDbEntity
8
\U+865A\U+7EBF\U+5C42
62
256
6
ByLayer
370
-1
48
1.0
60
0
100
AcDbLine
10
-1350.61880215353
20
52.131197846471
30
0.0
11
-1357.38119784649
21
52.1311978464701
31
0.0
39
0.0
210
0.0
220
0.0
230
1.0
0
LINE
5
F3
330
22
100
AcDbEntity
8
\U+865A\U+7EBF\U+5C42
62
256
6
ByLayer
370
-1
48
1.0
60
0
100
AcDbLine
10
-1350.00000000001
20
63.678203230264
30
0.0
11
-1350.00000000001
21
49.8217967697121
31
0.0
39
0.0
210
0.0
220
0.0
230
1.0
0
LINE
5
F4
330
22
100
AcDbEntity
8
\U+865A\U+7EBF\U+5C42
62
256
6
ByLayer
370
-1
48
1.0
60
0
100
AcDbLine
10
-1358.00000000001
20
63.6782032302631
30
0.0
11
-1358.00000000001
21
49.8217967697121
31
0.0
39
0.0
210
0.0
220
0.0
230
1.0
0
LINE
5
F5
330
22
100
AcDbEntity
8
\U+865A\U+7EBF\U+5C42
62
256
6
ByLayer
370
-1
48
1.0
60
0
100
AcDbLine
10
-1350.61880215353
20
47.512395692954
30
0.0
11
-1357.38119784649
21
47.512395692954
31
0.0
39
0.0
210
0.0
220
0.0
230
1.0
0
LINE
5
F6
330
22
100
AcDbEntity
8
\U+865A\U+7EBF\U+5C42
62
256
6
ByLayer
370
-1
48
1.0
60
0
100
AcDbLine
10
-1347.50000000001
20
-670.250000000014
30
0.0
11
-1360.50000000001
21
-670.250000000014
31
0.0
39
0.0
210
0.0
220
0.0
230
1.0
0
ARC
5
F7
330
22
100
AcDbEntity
8
\U+865A\U+7EBF\U+5C42
62
256
6
ByLayer
370
-1
48
1.0
60
0
100
AcDbCircle
39
0.0
10
-1354.61880215353
20
-663.321796769737
30
0.0
40
4.618802153517
210
0.0
220
0.0
230
1.0
100
AcDbArc
50
330.000000000001
51
30.0000000000042
0
ARC
5
F8
330
22
100
AcDbEntity
8
\U+865A\U+7EBF\U+5C42
62
256
6
ByLayer
370
-1
48
1.0
60
0
100
AcDbCircle
39
0.0
10
-1353.38119784649
20
-663.321796769737
30
0.0
40
4.61880215351697
210
0.0
220
0.0
230
1.0
100
AcDbArc
50
150.000000000005
51
210.000000000006
0
LINE
5
F9
330
22
100
AcDbEntity
8
\U+865A\U+7EBF\U+5C42
62
256
6
ByLayer
370
-1
48
1.0
60
0
100
AcDbLine
10
-1350.61880215353
20
-661.012395692978
30
0.0
11
-1357.38119784649
21
-661.012395692979
31
0.0
39
0.0
210
0.0
220
0.0
230
1.0
0
ARC
5
FA
330
22
100
AcDbEntity
8
\U+865A\U+7EBF\U+5C42
62
256
6
ByLayer
370
-1
48
1.0
60
0
100
AcDbCircle
39
0.0
10
-1354.61880215353
20
-677.178203230288
30
0.0
40
4.61880215351702
210
0.0
220
0.0
230
1.0
100
AcDbArc
50
329.999999999996
51
29.9999999999954
0
ARC
5
FB
330
22
100
AcDbEntity
8
\U+865A\U+7EBF\U+5C42
62
256
6
ByLayer
370
-1
48
1.0
60
0
100
AcDbCircle
39
0.0
10
-1353.38119784649
20
-677.178203230288
30
0.0
40
4.61880215351697
210
0.0
220
0.0
230
1.0
100
AcDbArc
50
150.000000000005
51
210.000000000006
0
ARC
5
FC
330
22
100
AcDbEntity
8
\U+865A\U+7EBF\U+5C42
62
256
6
ByLayer
370
-1
48
1.0
60
0
100
AcDbCircle
39
0.0
10
-1340.45299461621
20
-670.250000000014
30
0.0
40
17.5470053837925
210
0.0
220
0.0
230
1.0
100
AcDbArc
50
164.738519575146
51
195.261480424866
0
ARC
5
FD
330
22
100
AcDbEntity
8
\U+865A\U+7EBF\U+5C42
62
256
6
ByLayer
370
-1
48
1.0
60
0
100
AcDbCircle
39
0.0
10
-1367.5470053838
20
-670.250000000014
30
0.0
40
17.5470053837925
210
0.0
220
0.0
230
1.0
100
AcDbArc
50
344.738519575141
51
15.2614804248608
0
LINE
5
FE
330
22
100
AcDbEntity
8
\U+865A\U+7EBF\U+5C42
62
256
6
ByLayer
370
-1
48
1.0
60
0
100
AcDbLine
10
-1350.61880215353
20
-665.631197846496
30
0.0
11
-1357.38119784649
21
-665.631197846498
31
0.0
39
0.0
210
0.0
220
0.0
230
1.0
0
LINE
5
FF
330
22
100
AcDbEntity
8
\U+865A\U+7EBF\U+5C42
62
256
6
ByLayer
370
-1
48
1.0
60
0
100
AcDbLine
10
-1350.61880215353
20
-674.86880215353
30
0.0
11
-1357.38119784649
21
-674.86880215353
31
0.0
39
0.0
210
0.0
220
0.0
230
1.0
0
LINE
5
100
330
22
100
AcDbEntity
8
\U+865A\U+7EBF\U+5C42
62
256
6
ByLayer
370
-1
48
1.0
60
0
100
AcDbLine
10
-1350.00000000001
20
-663.321796769737
30
0.0
11
-1350.00000000001
21
-677.178203230288
31
0.0
39
0.0
210
0.0
220
0.0
230
1.0
0
LINE
5
101
330
22
100
AcDbEntity
8
\U+865A\U+7EBF\U+5C42
62
256
6
ByLayer
370
-1
48
1.0
60
0
100
AcDbLine
10
-1358.00000000001
20
-663.321796769737
30
0.0
11
-1358.00000000001
21
-677.17820323029
31
0.0
39
0.0
210
0.0
220
0.0
230
1.0
0
LINE
5
102
330
22
100
AcDbEntity
8
\U+865A\U+7EBF\U+5C42
62
256
6
ByLayer
370
-1
48
1.0
60
0
100
AcDbLine
10
-1350.61880215353
20
-679.487604307046
30
0.0
11
-1357.38119784649
21
-679.487604307046
31
0.0
39
0.0
210
0.0
220
0.0
230
1.0
0
LINE
5
103
330
22
100
AcDbEntity
8
\U+865A\U+7EBF\U+5C42
62
256
6
ByLayer
370
-1
48
1.0
60
0
100
AcDbLine
10
-1347.50000000001
20
-920.250000000014
30
0.0
11
-1360.50000000001
21
-920.250000000014
31
0.0
39
0.0
210
0.0
220
0.0
230
1.0
0
ARC
5
104
330
22
100
AcDbEntity
8
\U+865A\U+7EBF\U+5C42
62
256
6
ByLayer
370
-1
48
1.0
60
0
100
AcDbCircle
39
0.0
10
-1354.61880215352
20
-913.321796769739
30
0.0
40
4.618802153517
210
0.0
220
0.0
230
1.0
100
AcDbArc
50
330.000000000006
51
30.0000000000008
0
ARC
5
105
330
22
100
AcDbEntity
8
\U+865A\U+7EBF\U+5C42
62
256
6
ByLayer
370
-1
48
1.0
60
0
100
AcDbCircle
39
0.0
10
-1353.38119784649
20
-913.321796769739
30
0.0
40
4.61880215351697
210
0.0
220
0.0
230
1.0
100
AcDbArc
50
149.999999999998
51
210.000000000001
0
LINE
5
106
330
22
100
AcDbEntity
8
\U+865A\U+7EBF\U+5C42
62
256
6
ByLayer
370
-1
48
1.0
60
0
100
AcDbLine
10
-1350.61880215352
20
-911.012395692979
30
0.0
11
-1357.38119784649
21
-911.012395692979
31
0.0
39
0.0
210
0.0
220
0.0
230
1.0
0
ARC
5
107
330
22
100
AcDbEntity
8
\U+865A\U+7EBF\U+5C42
62
256
6
ByLayer
370
-1
48
1.0
60
0
100
AcDbCircle
39
0.0
10
-1354.61880215352
20
-927.178203230288
30
0.0
40
4.61880215351698
210
0.0
220
0.0
230
1.0
100
AcDbArc
50
329.999999999999
51
29.9999999999943
0
ARC
5
108
330
22
100
AcDbEntity
8
\U+865A\U+7EBF\U+5C42
62
256
6
ByLayer
370
-1
48
1.0
60
0
100
AcDbCircle
39
0.0
10
-1353.38119784649
20
-927.178203230288
30
0.0
40
4.61880215351699
210
0.0
220
0.0
230
1.0
100
AcDbArc
50
150.000000000006
51
210.000000000001
0
ARC
5
109
330
22
100
AcDbEntity
8
\U+865A\U+7EBF\U+5C42
62
256
6
ByLayer
370
-1
48
1.0
60
0
100
AcDbCircle
39
0.0
10
-1340.45299461621
20
-920.250000000014
30
0.0
40
17.5470053837925
210
0.0
220
0.0
230
1.0
100
AcDbArc
50
164.738519575145
51
195.261480424865
0
ARC
5
10A
330
22
100
AcDbEntity
8
\U+865A\U+7EBF\U+5C42
62
256
6
ByLayer
370
-1
48
1.0
60
0
100
AcDbCircle
39
0.0
10
-1367.5470053838
20
-920.250000000014
30
0.0
40
17.5470053837925
210
0.0
220
0.0
230
1.0
100
AcDbArc
50
344.738519575142
51
15.2614804248623
0
LINE
5
10B
330
22
100
AcDbEntity
8
\U+865A\U+7EBF\U+5C42
62
256
6
ByLayer
370
-1
48
1.0
60
0
100
AcDbLine
10
-1350.61880215352
20
-915.631197846496
30
0.0
11
-1357.38119784649
21
-915.631197846498
31
0.0
39
0.0
210
0.0
220
0.0
230
1.0
0
LINE
5
10C
330
22
100
AcDbEntity
8
\U+865A\U+7EBF\U+5C42
62
256
6
ByLayer
370
-1
48
1.0
60
0
100
AcDbLine
10
-1350.61880215352
20
-924.868802153532
30
0.0
11
-1357.38119784649
21
-924.868802153532
31
0.0
39
0.0
210
0.0
220
0.0
230
1.0
0
LINE
5
10D
330
22
100
AcDbEntity
8
\U+865A\U+7EBF\U+5C42
62
256
6
ByLayer
370
-1
48
1.0
60
0
100
AcDbLine
10
-1350.00000000001
20
-913.321796769739
30
0.0
11
-1350.00000000001
21
-927.178203230288
31
0.0
39
0.0
210
0.0
220
0.0
230
1.0
0
LINE
5
10E
330
22
100
AcDbEntity
8
\U+865A\U+7EBF\U+5C42
62
256
6
ByLayer
370
-1
48
1.0
60
0
100
AcDbLine
10
-1358.00000000001
20
-913.321796769739
30
0.0
11
-1358.00000000001
21
-927.17820323029
31
0.0
39
0.0
210
0.0
220
0.0
230
1.0
0
LINE
5
10F
330
22
100
AcDbEntity
8
\U+865A\U+7EBF\U+5C42
62
256
6
ByLayer
370
-1
48
1.0
60
0
100
AcDbLine
10
-1350.61880215352
20
-929.487604307048
30
0.0
11
-1357.38119784649
21
-929.487604307048
31
0.0
39
0.0
210
0.0
220
0.0
230
1.0
0
LINE
5
110
330
22
100
AcDbEntity
8
\U+865A\U+7EBF\U+5C42
62
256
6
ByLayer
370
-1
48
1.0
60
0
100
AcDbLine
10
-1347.5
20
-1170.25000000001
30
0.0
11
-1360.5
21
-1170.25000000001
31
0.0
39
0.0
210
0.0
220
0.0
230
1.0
0
ARC
5
111
330
22
100
AcDbEntity
8
\U+865A\U+7EBF\U+5C42
62
256
6
ByLayer
370
-1
48
1.0
60
0
100
AcDbCircle
39
0.0
10
-1354.61880215352
20
-1163.32179676974
30
0.0
40
4.61880215351697
210
0.0
220
0.0
230
1.0
100
AcDbArc
50
330.000000000001
51
29.9999999999966
0
ARC
5
112
330
22
100
AcDbEntity
8
\U+865A\U+7EBF\U+5C42
62
256
6
ByLayer
370
-1
48
1.0
60
0
100
AcDbCircle
39
0.0
10
-1353.38119784649
20
-1163.32179676974
30
0.0
40
4.61880215351703
210
0.0
220
0.0
230
1.0
100
AcDbArc
50
150.000000000006
51
210.000000000007
0
LINE
5
113
330
22
100
AcDbEntity
8
\U+865A\U+7EBF\U+5C42
62
256
6
ByLayer
370
-1
48
1.0
60
0
100
AcDbLine
10
-1350.61880215352
20
-1161.01239569298
30
0.0
11
-1357.38119784649
21
-1161.01239569298
31
0.0
39
0.0
210
0.0
220
0.0
230
1.0
0
ARC
5
114
330
22
100
AcDbEntity
8
\U+865A\U+7EBF\U+5C42
62
256
6
ByLayer
370
-1
48
1.0
60
0
100
AcDbCircle
39
0.0
10
-1354.61880215352
20
-1177.17820323029
30
0.0
40
4.61880215351709
210
0.0
220
0.0
230
1.0
100
AcDbArc
50
329.999999999993
51
29.9999999999951
0
ARC
5
115
330
22
100
AcDbEntity
8
\U+865A\U+7EBF\U+5C42
62
256
6
ByLayer
370
-1
48
1.0
60
0
100
AcDbCircle
39
0.0
10
-1353.38119784649
20
-1177.17820323029
30
0.0
40
4.61880215351704
210
0.0
220
0.0
230
1.0
100
AcDbArc
50
149.999999999993
51
209.999999999998
0
ARC
5
116
330
22
100
AcDbEntity
8
\U+865A\U+7EBF\U+5C42
62
256
6
ByLayer
370
-1
48
1.0
60
0
100
AcDbCircle
39
0.0
10
-1340.45299461621
20
-1170.25000000001
30
0.0
40
17.5470053837925
210
0.0
220
0.0
230
1.0
100
AcDbArc
50
164.738519575147
51
195.261480424867
0
ARC
5
117
330
22
100
AcDbEntity
8
\U+865A\U+7EBF\U+5C42
62
256
6
ByLayer
370
-1
48
1.0
60
0
100
AcDbCircle
39
0.0
10
-1367.5470053838
20
-1170.25000000001
30
0.0
40
17.5470053837925
210
0.0
220
0.0
230
1.0
100
AcDbArc
50
344.738519575145
51
15.2614804248654
0
LINE
5
118
330
22
100
AcDbEntity
8
\U+865A\U+7EBF\U+5C42
62
256
6
ByLayer
370
-1
48
1.0
60
0
100
AcDbLine
10
-1350.61880215352
20
-1165.6311978465
30
0.0
11
-1357.38119784649
21
-1165.6311978465
31
0.0
39
0.0
210
0.0
220
0.0
230
1.0
0
LINE
5
119
330
22
100
AcDbEntity
8
\U+865A\U+7EBF\U+5C42
62
256
6
ByLayer
370
-1
48
1.0
60
0
100
AcDbLine
10
-1350.61880215352
20
-1174.86880215353
30
0.0
11
-1357.38119784649
21
-1174.86880215353
31
0.0
39
0.0
210
0.0
220
0.0
230
1.0
0
LINE
5
11A
330
22
100
AcDbEntity
8
\U+865A\U+7EBF\U+5C42
62
256
6
ByLayer
370
-1
48
1.0
60
0
100
AcDbLine
10
-1350.0
20
-1163.32179676974
30
0.0
11
-1350.0
21
-1177.17820323029
31
0.0
39
0.0
210
0.0
220
0.0
230
1.0
0
LINE
5
11B
330
22
100
AcDbEntity
8
\U+865A\U+7EBF\U+5C42
62
256
6
ByLayer
370
-1
48
1.0
60
0
100
AcDbLine
10
-1358.0
20
-1163.32179676974
30
0.0
11
-1358.0
21
-1177.17820323029
31
0.0
39
0.0
210
0.0
220
0.0
230
1.0
0
LINE
5
11C
330
22
100
AcDbEntity
8
\U+865A\U+7EBF\U+5C42
62
256
6
ByLayer
370
-1
48
1.0
60
0
100
AcDbLine
10
-1350.61880215352
20
-1179.48760430705
30
0.0
11
-1357.38119784649
21
-1179.48760430705
31
0.0
39
0.0
210
0.0
220
0.0
230
1.0
0
LINE
5
11D
330
22
100
AcDbEntity
8
\U+865A\U+7EBF\U+5C42
62
256
6
ByLayer
370
-1
48
1.0
60
0
100
AcDbLine
10
-1347.50000000001
20
920.249999999986
30
0.0
11
-1360.50000000001
21
920.249999999986
31
0.0
39
0.0
210
0.0
220
0.0
230
1.0
0
ARC
5
11E
330
22
100
AcDbEntity
8
\U+865A\U+7EBF\U+5C42
62
256
6
ByLayer
370
-1
48
1.0
60
0
100
AcDbCircle
39
0.0
10
-1354.61880215353
20
927.178203230261
30
0.0
40
4.618802153517
210
0.0
220
0.0
230
1.0
100
AcDbArc
50
330.000000000005
51
30.0000000000047
0
ARC
5
11F
330
22
100
AcDbEntity
8
\U+865A\U+7EBF\U+5C42
62
256
6
ByLayer
370
-1
48
1.0
60
0
100
AcDbCircle
39
0.0
10
-1353.38119784649
20
927.178203230261
30
0.0
40
4.61880215351701
210
0.0
220
0.0
230
1.0
100
AcDbArc
50
150.000000000006
51
210.000000000006
0
LINE
5
120
330
22
100
AcDbEntity
8
\U+865A\U+7EBF\U+5C42
62
256
6
ByLayer
370
-1
48
1.0
60
0
100
AcDbLine
10
-1350.61880215353
20
929.48760430702
30
0.0
11
-1357.38119784649
21
929.48760430702
31
0.0
39
0.0
210
0.0
220
0.0
230
1.0
0
ARC
5
121
330
22
100
AcDbEntity
8
\U+865A\U+7EBF\U+5C42
62
256
6
ByLayer
370
-1
48
1.0
60
0
100
AcDbCircle
39
0.0
10
-1354.61880215353
20
913.32179676971
30
0.0
40
4.61880215351701
210
0.0
220
0.0
230
1.0
100
AcDbArc
50
330.000000000004
51
30.0000000000044
0
ARC
5
122
330
22
100
AcDbEntity
8
\U+865A\U+7EBF\U+5C42
62
256
6
ByLayer
370
-1
48
1.0
60
0
100
AcDbCircle
39
0.0
10
-1353.38119784649
20
913.32179676971
30
0.0
40
4.61880215351701
210
0.0
220
0.0
230
1.0
100
AcDbArc
50
150.000000000003
51
210.000000000004
0
ARC
5
123
330
22
100
AcDbEntity
8
\U+865A\U+7EBF\U+5C42
62
256
6
ByLayer
370
-1
48
1.0
60
0
100
AcDbCircle
39
0.0
10
-1340.45299461622
20
920.249999999986
30
0.0
40
17.5470053837925
210
0.0
220
0.0
230
1.0
100
AcDbArc
50
164.738519575144
51
195.261480424864
0
ARC
5
124
330
22
100
AcDbEntity
8
\U+865A\U+7EBF\U+5C42
62
256
6
ByLayer
370
-1
48
1.0
60
0
100
AcDbCircle
39
0.0
10
-1367.5470053838
20
920.249999999986
30
0.0
40
17.5470053837925
210
0.0
220
0.0
230
1.0
100
AcDbArc
50
344.738519575136
51
15.2614804248567
0
LINE
5
125
330
22
100
AcDbEntity
8
\U+865A\U+7EBF\U+5C42
62
256
6
ByLayer
370
-1
48
1.0
60
0
100
AcDbLine
10
-1350.61880215353
20
924.868802153502
30
0.0
11
-1357.38119784649
21
924.868802153502
31
0.0
39
0.0
210
0.0
220
0.0
230
1.0
0
LINE
5
126
330
22
100
AcDbEntity
8
\U+865A\U+7EBF\U+5C42
62
256
6
ByLayer
370
-1
48
1.0
60
0
100
AcDbLine
10
-1350.61880215353
20
915.631197846469
30
0.0
11
-1357.38119784649
21
915.631197846469
31
0.0
39
0.0
210
0.0
220
0.0
230
1.0
0
LINE
5
127
330
22
100
AcDbEntity
8
\U+865A\U+7EBF\U+5C42
62
256
6
ByLayer
370
-1
48
1.0
60
0
100
AcDbLine
10
-1350.00000000001
20
927.178203230261
30
0.0
11
-1350.00000000001
21
913.32179676971
31
0.0
39
0.0
210
0.0
220
0.0
230
1.0
0
LINE
5
128
330
22
100
AcDbEntity
8
\U+865A\U+7EBF\U+5C42
62
256
6
ByLayer
370
-1
48
1.0
60
0
100
AcDbLine
10
-1358.00000000001
20
927.178203230261
30
0.0
11
-1358.00000000001
21
913.32179676971
31
0.0
39
0.0
210
0.0
220
0.0
230
1.0
0
LINE
5
129
330
22
100
AcDbEntity
8
\U+865A\U+7EBF\U+5C42
62
256
6
ByLayer
370
-1
48
1.0
60
0
100
AcDbLine
10
-1350.61880215353
20
911.012395692952
30
0.0
11
-1357.38119784649
21
911.012395692952
31
0.0
39
0.0
210
0.0
220
0.0
230
1.0
0
LINE
5
12A
330
22
100
AcDbEntity
8
\U+865A\U+7EBF\U+5C42
62
256
6
ByLayer
370
-1
48
1.0
60
0
100
AcDbLine
10
-1398.83935378153
20
306.749999999987
30
0.0
11
-1251.16064621848
21
306.749999999988
31
0.0
39
0.0
210
0.0
220
0.0
230
1.0
0
LINE
5
12B
330
22
100
AcDbEntity
8
\U+865A\U+7EBF\U+5C42
62
256
6
ByLayer
370
-1
48
1.0
60
0
100
AcDbLine
10
-1350.0
20
-1192.75000000001
30
0.0
11
-1350.00000000001
21
-638.500000000017
31
0.0
39
0.0
210
0.0
220
0.0
230
1.0
0
LINE
5
12C
330
22
100
AcDbEntity
8
\U+865A\U+7EBF\U+5C42
62
256
6
ByLayer
370
-1
48
1.0
60
0
100
AcDbLine
10
-1345.0
20
-638.500000000014
30
0.0
11
-1345.0
21
-1217.75000000001
31
0.0
39
0.0
210
0.0
220
0.0
230
1.0
0
LINE
5
12D
330
22
100
AcDbEntity
8
\U+865A\U+7EBF\U+5C42
62
256
6
ByLayer
370
-1
48
1.0
60
0
100
AcDbLine
10
-1300.00000000001
20
-638.500000000017
30
0.0
11
-1300.0
21
-1242.75000000001
31
0.0
39
0.0
210
0.0
220
0.0
230
1.0
0
LINE
5
12E
330
22
100
AcDbEntity
8
\U+865A\U+7EBF\U+5C42
62
256
6
ByLayer
370
-1
48
1.0
60
0
100
AcDbLine
10
-1350.00000000001
20
-25.000000000018
30
0.0
11
-1350.00000000001
21
588.499999999984
31
0.0
39
0.0
210
0.0
220
0.0
230
1.0
0
LINE
5
12F
330
22
100
AcDbEntity
8
\U+865A\U+7EBF\U+5C42
62
256
6
ByLayer
370
-1
48
1.0
60
0
100
AcDbLine
10
-1350.00000000001
20
588.499999999984
30
0.0
11
-1350.00000000001
21
1192.74999999999
31
0.0
39
0.0
210
0.0
220
0.0
230
1.0
0
LINE
5
130
330
22
100
AcDbEntity
8
\U+865A\U+7EBF\U+5C42
62
256
6
ByLayer
370
-1
48
1.0
60
0
100
AcDbLine
10
-1345.00000000001
20
1195.74999999999
30
0.0
11
-1345.00000000001
21
588.499999999988
31
0.0
39
0.0
210
0.0
220
0.0
230
1.0
0
LINE
5
131
330
22
100
AcDbEntity
8
\U+865A\U+7EBF\U+5C42
62
256
6
ByLayer
370
-1
48
1.0
60
0
100
AcDbLine
10
-1345.00000000001
20
588.499999999988
30
0.0
11
-1345.0
21
-25.0000000000121
31
0.0
39
0.0
210
0.0
220
0.0
230
1.0
0
LINE
5
132
330
22
100
AcDbEntity
8
\U+865A\U+7EBF\U+5C42
62
256
6
ByLayer
370
-1
48
1.0
60
0
100
AcDbLine
10
-1300.00000000001
20
1242.74999999999
30
0.0
11
-1300.00000000001
21
588.499999999984
31
0.0
39
0.0
210
0.0
220
0.0
230
1.0
0
LINE
5
133
330
22
100
AcDbEntity
8
\U+865A\U+7EBF\U+5C42
62
256
6
ByLayer
370
-1
48
1.0
60
0
100
AcDbLine
10
-1300.00000000001
20
588.499999999984
30
0.0
11
-1300.00000000001
21
-25.0000000000171
31
0.0
39
0.0
210
0.0
220
0.0
230
1.0
0
LINE
5
134
330
22
100
AcDbEntity
8
\U+865A\U+7EBF\U+5C42
62
256
6
ByLayer
370
-1
48
1.0
60
0
100
AcDbLine
10
-1345.0
20
-588.500000000012
30
0.0
11
-1395.0
21
-588.500000000014
31
0.0
39
0.0
210
0.0
220
0.0
230
1.0
0
LINE
5
135
330
22
100
AcDbEntity
8
\U+865A\U+7EBF\U+5C42
62
256
6
ByLayer
370
-1
48
1.0
60
0
100
AcDbLine
10
-1395.0
20
-588.500000000014
30
0.0
11
-1395.0
21
-590.500000000014
31
0.0
39
0.0
210
0.0
220
0.0
230
1.0
0
ARC
5
136
330
22
100
AcDbEntity
8
\U+865A\U+7EBF\U+5C42
62
256
6
ByLayer
370
-1
48
1.0
60
0
100
AcDbCircle
39
0.0
10
-1392.0
20
-590.500000000014
30
0.0
40
3.0
210
0.0
220
0.0
230
1.0
100
AcDbArc
50
179.999999999996
51
270.0
0
ARC
5
137
330
22
100
AcDbEntity
8
\U+865A\U+7EBF\U+5C42
62
256
6
ByLayer
370
-1
48
1.0
60
0
100
AcDbCircle
39
0.0
10
-1356.0
20
-599.500000000014
30
0.0
40
6.0
210
0.0
220
0.0
230
1.0
100
AcDbArc
50
359.999999999998
51
90.0
0
LINE
5
138
330
22
100
AcDbEntity
8
\U+865A\U+7EBF\U+5C42
62
256
6
ByLayer
370
-1
48
1.0
60
0
100
AcDbLine
10
-1392.0
20
-593.500000000014
30
0.0
11
-1356.0
21
-593.500000000014
31
0.0
39
0.0
210
0.0
220
0.0
230
1.0
0
LINE
5
139
330
22
100
AcDbEntity
8
\U+865A\U+7EBF\U+5C42
62
256
6
ByLayer
370
-1
48
1.0
60
0
100
AcDbLine
10
-1350.0
20
-599.500000000012
30
0.0
11
-1350.0
21
-635.500000000012
31
0.0
39
0.0
210
0.0
220
0.0
230
1.0
0
LINE
5
13A
330
22
100
AcDbEntity
8
\U+865A\U+7EBF\U+5C42
62
256
6
ByLayer
370
-1
48
1.0
60
0
100
AcDbLine
10
-1345.0
20
-588.500000000012
30
0.0
11
-1345.0
21
-638.500000000012
31
0.0
39
0.0
210
0.0
220
0.0
230
1.0
0
LINE
5
13B
330
22
100
AcDbEntity
8
\U+865A\U+7EBF\U+5C42
62
256
6
ByLayer
370
-1
48
1.0
60
0
100
AcDbLine
10
-1347.50000000001
20
-613.500000000014
30
0.0
11
-1360.50000000001
21
-613.500000000014
31
0.0
39
0.0
210
0.0
220
0.0
230
1.0
0
ARC
5
13C
330
22
100
AcDbEntity
8
\U+865A\U+7EBF\U+5C42
62
256
6
ByLayer
370
-1
48
1.0
60
0
100
AcDbCircle
39
0.0
10
-1354.61880215353
20
-606.571796769738
30
0.0
40
4.61880215351703
210
0.0
220
0.0
230
1.0
100
AcDbArc
50
329.999999999999
51
29.9999999999995
0
ARC
5
13D
330
22
100
AcDbEntity
8
\U+865A\U+7EBF\U+5C42
62
256
6
ByLayer
370
-1
48
1.0
60
0
100
AcDbCircle
39
0.0
10
-1353.38119784649
20
-606.571796769738
30
0.0
40
4.61880215351697
210
0.0
220
0.0
230
1.0
100
AcDbArc
50
150.000000000001
51
210.000000000002
0
LINE
5
13E
330
22
100
AcDbEntity
8
\U+865A\U+7EBF\U+5C42
62
256
6
ByLayer
370
-1
48
1.0
60
0
100
AcDbLine
10
-1350.61880215353
20
-604.262395692978
30
0.0
11
-1357.38119784649
21
-604.262395692978
31
0.0
39
0.0
210
0.0
220
0.0
230
1.0
0
ARC
5
13F
330
22
100
AcDbEntity
8
\U+865A\U+7EBF\U+5C42
62
256
6
ByLayer
370
-1
48
1.0
60
0
100
AcDbCircle
39
0.0
10
-1354.61880215353
20
-620.428203230288
30
0.0
40
4.618802153517
210
0.0
220
0.0
230
1.0
100
AcDbArc
50
329.999999999997
51
29.9999999999967
0
ARC
5
140
330
22
100
AcDbEntity
8
\U+865A\U+7EBF\U+5C42
62
256
6
ByLayer
370
-1
48
1.0
60
0
100
AcDbCircle
39
0.0
10
-1353.38119784649
20
-620.428203230288
30
0.0
40
4.61880215351703
210
0.0
220
0.0
230
1.0
100
AcDbArc
50
150.000000000017
51
210.000000000016
0
ARC
5
141
330
22
100
AcDbEntity
8
\U+865A\U+7EBF\U+5C42
62
256
6
ByLayer
370
-1
48
1.0
60
0
100
AcDbCircle
39
0.0
10
-1340.45299461621
20
-613.500000000014
30
0.0
40
17.5470053837925
210
0.0
220
0.0
230
1.0
100
AcDbArc
50
164.738519575145
51
195.261480424865
0
ARC
5
142
330
22
100
AcDbEntity
8
\U+865A\U+7EBF\U+5C42
62
256
6
ByLayer
370
-1
48
1.0
60
0
100
AcDbCircle
39
0.0
10
-1367.5470053838
20
-613.500000000014
30
0.0
40
17.5470053837925
210
0.0
220
0.0
230
1.0
100
AcDbArc
50
344.738519575142
51
15.2614804248632
0
LINE
5
143
330
22
100
AcDbEntity
8
\U+865A\U+7EBF\U+5C42
62
256
6
ByLayer
370
-1
48
1.0
60
0
100
AcDbLine
10
-1350.61880215353
20
-608.881197846496
30
0.0
11
-1357.38119784649
21
-608.881197846497
31
0.0
39
0.0
210
0.0
220
0.0
230
1.0
0
LINE
5
144
330
22
100
AcDbEntity
8
\U+865A\U+7EBF\U+5C42
62
256
6
ByLayer
370
-1
48
1.0
60
0
100
AcDbLine
10
-1350.61880215353
20
-618.11880215353
30
0.0
11
-1357.38119784649
21
-618.11880215353
31
0.0
39
0.0
210
0.0
220
0.0
230
1.0
0
LINE
5
145
330
22
100
AcDbEntity
8
\U+865A\U+7EBF\U+5C42
62
256
6
ByLayer
370
-1
48
1.0
60
0
100
AcDbLine
10
-1350.00000000001
20
-606.571796769738
30
0.0
11
-1350.00000000001
21
-620.428203230288
31
0.0
39
0.0
210
0.0
220
0.0
230
1.0
0
LINE
5
146
330
22
100
AcDbEntity
8
\U+865A\U+7EBF\U+5C42
62
256
6
ByLayer
370
-1
48
1.0
60
0
100
AcDbLine
10
-1358.00000000001
20
-606.571796769738
30
0.0
11
-1358.00000000001
21
-620.42820323029
31
0.0
39
0.0
210
0.0
220
0.0
230
1.0
0
LINE
5
147
330
22
100
AcDbEntity
8
\U+865A\U+7EBF\U+5C42
62
256
6
ByLayer
370
-1
48
1.0
60
0
100
AcDbLine
10
-1350.61880215353
20
-622.737604307046
30
0.0
11
-1357.38119784649
21
-622.737604307046
31
0.0
39
0.0
210
0.0
220
0.0
230
1.0
0
LINE
5
148
330
22
100
AcDbEntity
8
\U+865A\U+7EBF\U+5C42
62
256
6
ByLayer
370
-1
48
1.0
60
0
100
AcDbLine
10
-1347.50000000001
20
-56.7500000000109
30
0.0
11
-1360.50000000001
21
-56.7500000000109
31
0.0
39
0.0
210
0.0
220
0.0
230
1.0
0
ARC
5
149
330
22
100
AcDbEntity
8
\U+865A\U+7EBF\U+5C42
62
256
6
ByLayer
370
-1
48
1.0
60
0
100
AcDbCircle
39
0.0
10
-1354.61880215353
20
-49.8217967697369
30
0.0
40
4.618802153517
210
0.0
220
0.0
230
1.0
100
AcDbArc
50
330.000000000004
51
30.0000000000051
0
ARC
5
14A
330
22
100
AcDbEntity
8
\U+865A\U+7EBF\U+5C42
62
256
6
ByLayer
370
-1
48
1.0
60
0
100
AcDbCircle
39
0.0
10
-1353.38119784649
20
-49.8217967697369
30
0.0
40
4.61880215351701
210
0.0
220
0.0
230
1.0
100
AcDbArc
50
150.000000000002
51
210.000000000001
0
LINE
5
14B
330
22
100
AcDbEntity
8
\U+865A\U+7EBF\U+5C42
62
256
6
ByLayer
370
-1
48
1.0
60
0
100
AcDbLine
10
-1350.61880215353
20
-47.5123956929779
30
0.0
11
-1357.38119784649
21
-47.5123956929779
31
0.0
39
0.0
210
0.0
220
0.0
230
1.0
0
ARC
5
14C
330
22
100
AcDbEntity
8
\U+865A\U+7EBF\U+5C42
62
256
6
ByLayer
370
-1
48
1.0
60
0
100
AcDbCircle
39
0.0
10
-1354.61880215353
20
-63.678203230287
30
0.0
40
4.618802153517
210
0.0
220
0.0
230
1.0
100
AcDbArc
50
330.000000000002
51
30.0000000000059
0
ARC
5
14D
330
22
100
AcDbEntity
8
\U+865A\U+7EBF\U+5C42
62
256
6
ByLayer
370
-1
48
1.0
60
0
100
AcDbCircle
39
0.0
10
-1353.38119784649
20
-63.678203230287
30
0.0
40
4.618802153517
210
0.0
220
0.0
230
1.0
100
AcDbArc
50
150.000000000006
51
210.000000000005
0
ARC
5
14E
330
22
100
AcDbEntity
8
\U+865A\U+7EBF\U+5C42
62
256
6
ByLayer
370
-1
48
1.0
60
0
100
AcDbCircle
39
0.0
10
-1340.45299461622
20
-56.7500000000109
30
0.0
40
17.5470053837925
210
0.0
220
0.0
230
1.0
100
AcDbArc
50
164.738519575142
51
195.261480424863
0
ARC
5
14F
330
22
100
AcDbEntity
8
\U+865A\U+7EBF\U+5C42
62
256
6
ByLayer
370
-1
48
1.0
60
0
100
AcDbCircle
39
0.0
10
-1367.5470053838
20
-56.7500000000121
30
0.0
40
17.5470053837925
210
0.0
220
0.0
230
1.0
100
AcDbArc
50
344.738519575139
51
15.2614804248593
0
LINE
5
150
330
22
100
AcDbEntity
8
\U+865A\U+7EBF\U+5C42
62
256
6
ByLayer
370
-1
48
1.0
60
0
100
AcDbLine
10
-1350.61880215353
20
-52.1311978464951
30
0.0
11
-1357.38119784649
21
-52.1311978464951
31
0.0
39
0.0
210
0.0
220
0.0
230
1.0
0
LINE
5
151
330
22
100
AcDbEntity
8
\U+865A\U+7EBF\U+5C42
62
256
6
ByLayer
370
-1
48
1.0
60
0
100
AcDbLine
10
-1350.61880215353
20
-61.368802153529
30
0.0
11
-1357.38119784649
21
-61.368802153529
31
0.0
39
0.0
210
0.0
220
0.0
230
1.0
0
LINE
5
152
330
22
100
AcDbEntity
8
\U+865A\U+7EBF\U+5C42
62
256
6
ByLayer
370
-1
48
1.0
60
0
100
AcDbLine
10
-1350.00000000001
20
-49.8217967697369
30
0.0
11
-1350.00000000001
21
-63.678203230287
31
0.0
39
0.0
210
0.0
220
0.0
230
1.0
0
LINE
5
153
330
22
100
AcDbEntity
8
\U+865A\U+7EBF\U+5C42
62
256
6
ByLayer
370
-1
48
1.0
60
0
100
AcDbLine
10
-1358.00000000001
20
-49.8217967697369
30
0.0
11
-1358.00000000001
21
-63.678203230287
31
0.0
39
0.0
210
0.0
220
0.0
230
1.0
0
LINE
5
154
330
22
100
AcDbEntity
8
\U+865A\U+7EBF\U+5C42
62
256
6
ByLayer
370
-1
48
1.0
60
0
100
AcDbLine
10
-1350.61880215353
20
-65.9876043070449
30
0.0
11
-1357.38119784649
21
-65.9876043070449
31
0.0
39
0.0
210
0.0
220
0.0
230
1.0
0
LINE
5
155
330
22
100
AcDbEntity
8
\U+865A\U+7EBF\U+5C42
62
256
6
ByLayer
370
-1
48
1.0
60
0
100
AcDbLine
10
-1347.50000000001
20
-306.75000000001
30
0.0
11
-1360.50000000001
21
-306.75000000001
31
0.0
39
0.0
210
0.0
220
0.0
230
1.0
0
ARC
5
156
330
22
100
AcDbEntity
8
\U+865A\U+7EBF\U+5C42
62
256
6
ByLayer
370
-1
48
1.0
60
0
100
AcDbCircle
39
0.0
10
-1354.61880215353
20
-299.821796769738
30
0.0
40
4.61880215351702
210
0.0
220
0.0
230
1.0
100
AcDbArc
50
329.999999999999
51
29.9999999999978
0
ARC
5
157
330
22
100
AcDbEntity
8
\U+865A\U+7EBF\U+5C42
62
256
6
ByLayer
370
-1
48
1.0
60
0
100
AcDbCircle
39
0.0
10
-1353.38119784649
20
-299.821796769738
30
0.0
40
4.61880215351701
210
0.0
220
0.0
230
1.0
100
AcDbArc
50
150.000000000002
51
210.000000000001
0
LINE
5
158
330
22
100
AcDbEntity
8
\U+865A\U+7EBF\U+5C42
62
256
6
ByLayer
370
-1
48
1.0
60
0
100
AcDbLine
10
-1350.61880215353
20
-297.512395692978
30
0.0
11
-1357.38119784649
21
-297.512395692978
31
0.0
39
0.0
210
0.0
220
0.0
230
1.0
0
ARC
5
159
330
22
100
AcDbEntity
8
\U+865A\U+7EBF\U+5C42
62
256
6
ByLayer
370
-1
48
1.0
60
0
100
AcDbCircle
39
0.0
10
-1354.61880215353
20
-313.678203230286
30
0.0
40
4.61880215351705
210
0.0
220
0.0
230
1.0
100
AcDbArc
50
329.999999999996
51
29.9999999999989
0
ARC
5
15A
330
22
100
AcDbEntity
8
\U+865A\U+7EBF\U+5C42
62
256
6
ByLayer
370
-1
48
1.0
60
0
100
AcDbCircle
39
0.0
10
-1353.38119784649
20
-313.678203230286
30
0.0
40
4.61880215351697
210
0.0
220
0.0
230
1.0
100
AcDbArc
50
150.000000000014
51
210.000000000014
0
ARC
5
15B
330
22
100
AcDbEntity
8
\U+865A\U+7EBF\U+5C42
62
256
6
ByLayer
370
-1
48
1.0
60
0
100
AcDbCircle
39
0.0
10
-1340.45299461621
20
-306.75000000001
30
0.0
40
17.5470053837925
210
0.0
220
0.0
230
1.0
100
AcDbArc
50
164.738519575143
51
195.261480424864
0
ARC
5
15C
330
22
100
AcDbEntity
8
\U+865A\U+7EBF\U+5C42
62
256
6
ByLayer
370
-1
48
1.0
60
0
100
AcDbCircle
39
0.0
10
-1367.5470053838
20
-306.750000000012
30
0.0
40
17.5470053837925
210
0.0
220
0.0
230
1.0
100
AcDbArc
50
344.738519575137
51
15.2614804248579
0
LINE
5
15D
330
22
100
AcDbEntity
8
\U+865A\U+7EBF\U+5C42
62
256
6
ByLayer
370
-1
48
1.0
60
0
100
AcDbLine
10
-1350.61880215353
20
-302.131197846494
30
0.0
11
-1357.38119784649
21
-302.131197846494
31
0.0
39
0.0
210
0.0
220
0.0
230
1.0
0
LINE
5
15E
330
22
100
AcDbEntity
8
\U+865A\U+7EBF\U+5C42
62
256
6
ByLayer
370
-1
48
1.0
60
0
100
AcDbLine
10
-1350.61880215353
20
-311.36880215353
30
0.0
11
-1357.38119784649
21
-311.36880215353
31
0.0
39
0.0
210
0.0
220
0.0
230
1.0
0
LINE
5
15F
330
22
100
AcDbEntity
8
\U+865A\U+7EBF\U+5C42
62
256
6
ByLayer
370
-1
48
1.0
60
0
100
AcDbLine
10
-1350.00000000001
20
-299.821796769738
30
0.0
11
-1350.00000000001
21
-313.678203230286
31
0.0
39
0.0
210
0.0
220
0.0
230
1.0
0
LINE
5
160
330
22
100
AcDbEntity
8
\U+865A\U+7EBF\U+5C42
62
256
6
ByLayer
370
-1
48
1.0
60
0
100
AcDbLine
10
-1358.00000000001
20
-299.821796769738
30
0.0
11
-1358.00000000001
21
-313.678203230286
31
0.0
39
0.0
210
0.0
220
0.0
230
1.0
0
LINE
5
161
330
22
100
AcDbEntity
8
\U+865A\U+7EBF\U+5C42
62
256
6
ByLayer
370
-1
48
1.0
60
0
100
AcDbLine
10
-1350.61880215353
20
-315.987604307046
30
0.0
11
-1357.38119784649
21
-315.987604307046
31
0.0
39
0.0
210
0.0
220
0.0
230
1.0
0
LINE
5
162
330
22
100
AcDbEntity
8
\U+865A\U+7EBF\U+5C42
62
256
6
ByLayer
370
-1
48
1.0
60
0
100
AcDbLine
10
-1347.50000000001
20
-556.75000000001
30
0.0
11
-1360.50000000001
21
-556.750000000012
31
0.0
39
0.0
210
0.0
220
0.0
230
1.0
0
ARC
5
163
330
22
100
AcDbEntity
8
\U+865A\U+7EBF\U+5C42
62
256
6
ByLayer
370
-1
48
1.0
60
0
100
AcDbCircle
39
0.0
10
-1354.61880215353
20
-549.821796769735
30
0.0
40
4.61880215351696
210
0.0
220
0.0
230
1.0
100
AcDbArc
50
330.000000000007
51
30.0000000000074
0
ARC
5
164
330
22
100
AcDbEntity
8
\U+865A\U+7EBF\U+5C42
62
256
6
ByLayer
370
-1
48
1.0
60
0
100
AcDbCircle
39
0.0
10
-1353.38119784649
20
-549.821796769735
30
0.0
40
4.61880215351703
210
0.0
220
0.0
230
1.0
100
AcDbArc
50
150.000000000001
51
210.000000000004
0
LINE
5
165
330
22
100
AcDbEntity
8
\U+865A\U+7EBF\U+5C42
62
256
6
ByLayer
370
-1
48
1.0
60
0
100
AcDbLine
10
-1350.61880215353
20
-547.512395692978
30
0.0
11
-1357.38119784649
21
-547.512395692978
31
0.0
39
0.0
210
0.0
220
0.0
230
1.0
0
ARC
5
166
330
22
100
AcDbEntity
8
\U+865A\U+7EBF\U+5C42
62
256
6
ByLayer
370
-1
48
1.0
60
0
100
AcDbCircle
39
0.0
10
-1354.61880215353
20
-563.678203230286
30
0.0
40
4.61880215351697
210
0.0
220
0.0
230
1.0
100
AcDbArc
50
330.000000000004
51
30.0000000000069
0
ARC
5
167
330
22
100
AcDbEntity
8
\U+865A\U+7EBF\U+5C42
62
256
6
ByLayer
370
-1
48
1.0
60
0
100
AcDbCircle
39
0.0
10
-1353.38119784649
20
-563.678203230286
30
0.0
40
4.61880215351703
210
0.0
220
0.0
230
1.0
100
AcDbArc
50
149.999999999999
51
209.999999999999
0
ARC
5
168
330
22
100
AcDbEntity
8
\U+865A\U+7EBF\U+5C42
62
256
6
ByLayer
370
-1
48
1.0
60
0
100
AcDbCircle
39
0.0
10
-1340.45299461621
20
-556.75000000001
30
0.0
40
17.5470053837925
210
0.0
220
0.0
230
1.0
100
AcDbArc
50
164.738519575146
51
195.261480424866
0
ARC
5
169
330
22
100
AcDbEntity
8
\U+865A\U+7EBF\U+5C42
62
256
6
ByLayer
370
-1
48
1.0
60
0
100
AcDbCircle
39
0.0
10
-1367.5470053838
20
-556.750000000012
30
0.0
40
17.5470053837925
210
0.0
220
0.0
230
1.0
100
AcDbArc
50
344.738519575141
51
15.2614804248608
0
LINE
5
16A
330
22
100
AcDbEntity
8
\U+865A\U+7EBF\U+5C42
62
256
6
ByLayer
370
-1
48
1.0
60
0
100
AcDbLine
10
-1350.61880215353
20
-552.131197846494
30
0.0
11
-1357.38119784649
21
-552.131197846494
31
0.0
39
0.0
210
0.0
220
0.0
230
1.0
0
LINE
5
16B
330
22
100
AcDbEntity
8
\U+865A\U+7EBF\U+5C42
62
256
6
ByLayer
370
-1
48
1.0
60
0
100
AcDbLine
10
-1350.61880215353
20
-561.368802153528
30
0.0
11
-1357.38119784649
21
-561.36880215353
31
0.0
39
0.0
210
0.0
220
0.0
230
1.0
0
LINE
5
16C
330
22
100
AcDbEntity
8
\U+865A\U+7EBF\U+5C42
62
256
6
ByLayer
370
-1
48
1.0
60
0
100
AcDbLine
10
-1350.00000000001
20
-549.821796769735
30
0.0
11
-1350.00000000001
21
-563.678203230286
31
0.0
39
0.0
210
0.0
220
0.0
230
1.0
0
LINE
5
16D
330
22
100
AcDbEntity
8
\U+865A\U+7EBF\U+5C42
62
256
6
ByLayer
370
-1
48
1.0
60
0
100
AcDbLine
10
-1358.00000000001
20
-549.821796769737
30
0.0
11
-1358.00000000001
21
-563.678203230286
31
0.0
39
0.0
210
0.0
220
0.0
230
1.0
0
LINE
5
16E
330
22
100
AcDbEntity
8
\U+865A\U+7EBF\U+5C42
62
256
6
ByLayer
370
-1
48
1.0
60
0
100
AcDbLine
10
-1350.61880215353
20
-565.987604307046
30
0.0
11
-1357.38119784649
21
-565.987604307046
31
0.0
39
0.0
210
0.0
220
0.0
230
1.0
0
LINE
5
16F
330
22
100
AcDbEntity
8
\U+865A\U+7EBF\U+5C42
62
256
6
ByLayer
370
-1
48
1.0
60
0
100
AcDbLine
10
-1398.83935378153
20
-306.750000000012
30
0.0
11
-1251.16064621848
21
-306.75000000001
31
0.0
39
0.0
210
0.0
220
0.0
230
1.0
0
LINE
5
170
330
22
100
AcDbEntity
8
\U+865A\U+7EBF\U+5C42
62
256
6
ByLayer
370
-1
48
1.0
60
0
100
AcDbLine
10
-1350.00000000001
20
-638.500000000017
30
0.0
11
-1350.00000000001
21
-25.000000000015
31
0.0
39
0.0
210
0.0
220
0.0
230
1.0
0
LINE
5
171
330
22
100
AcDbEntity
8
\U+865A\U+7EBF\U+5C42
62
256
6
ByLayer
370
-1
48
1.0
60
0
100
AcDbLine
10
-1345.00000000001
20
-25.0000000000109
30
0.0
11
-1345.0
21
-638.50000000001
31
0.0
39
0.0
210
0.0
220
0.0
230
1.0
0
LINE
5
172
330
22
100
AcDbEntity
8
\U+865A\U+7EBF\U+5C42
62
256
6
ByLayer
370
-1
48
1.0
60
0
100
AcDbLine
10
-1300.00000000001
20
-25.000000000015
30
0.0
11
-1300.00000000001
21
-638.500000000016
31
0.0
39
0.0
210
0.0
220
0.0
230
1.0
0
LINE
5
173
330
22
100
AcDbEntity
8
\U+7C97\U+5B9E\U+7EBF\U+5C42
62
256
6
ByLayer
370
-1
48
1.0
60
0
100
AcDbLine
10
-1194.00000000002
20
-1244.75000000001
30
0.0
11
-1194.00000000002
21
-1374.75000000001
31
0.0
39
0.0
210
0.0
220
0.0
230
1.0
0
LINE
5
174
330
22
100
AcDbEntity
8
\U+7C97\U+5B9E\U+7EBF\U+5C42
62
256
6
ByLayer
370
-1
48
1.0
60
0
100
AcDbLine
10
-1194.00000000002
20
-1374.75000000001
30
0.0
11
-1200.00000000003
21
-1374.75000000001
31
0.0
39
0.0
210
0.0
220
0.0
230
1.0
0
LINE
5
175
330
22
100
AcDbEntity
8
\U+7C97\U+5B9E\U+7EBF\U+5C42
62
256
6
ByLayer
370
-1
48
1.0
60
0
100
AcDbLine
10
-1200.00000000003
20
-1374.75000000001
30
0.0
11
-1200.00000000002
21
-1244.75000000001
31
0.0
39
0.0
210
0.0
220
0.0
230
1.0
0
LINE
5
176
330
22
100
AcDbEntity
8
\U+7C97\U+5B9E\U+7EBF\U+5C42
62
256
6
ByLayer
370
-1
48
1.0
60
0
100
AcDbLine
10
-1200.00000000002
20
-1244.75000000001
30
0.0
11
-1194.00000000002
21
-1244.75000000001
31
0.0
39
0.0
210
0.0
220
0.0
230
1.0
0
LINE
5
177
330
22
100
AcDbEntity
8
\U+7C97\U+5B9E\U+7EBF\U+5C42
62
256
6
ByLayer
370
-1
48
1.0
60
0
100
AcDbLine
10
-500.000000000012
20
-1244.75000000001
30
0.0
11
-500.000000000013
21
-1374.75000000001
31
0.0
39
0.0
210
0.0
220
0.0
230
1.0
0
LINE
5
178
330
22
100
AcDbEntity
8
\U+7C97\U+5B9E\U+7EBF\U+5C42
62
256
6
ByLayer
370
-1
48
1.0
60
0
100
AcDbLine
10
-500.000000000013
20
-1374.75000000001
30
0.0
11
-506.000000000012
21
-1374.75000000001
31
0.0
39
0.0
210
0.0
220
0.0
230
1.0
0
LINE
5
179
330
22
100
AcDbEntity
8
\U+7C97\U+5B9E\U+7EBF\U+5C42
62
256
6
ByLayer
370
-1
48
1.0
60
0
100
AcDbLine
10
-506.000000000012
20
-1374.75000000001
30
0.0
11
-506.000000000012
21
-1244.75000000001
31
0.0
39
0.0
210
0.0
220
0.0
230
1.0
0
LINE
5
17A
330
22
100
AcDbEntity
8
\U+7C97\U+5B9E\U+7EBF\U+5C42
62
256
6
ByLayer
370
-1
48
1.0
60
0
100
AcDbLine
10
-506.000000000012
20
-1244.75000000001
30
0.0
11
-500.000000000012
21
-1244.75000000001
31
0.0
39
0.0
210
0.0
220
0.0
230
1.0
0
LINE
5
17B
330
22
100
AcDbEntity
8
\U+7C97\U+5B9E\U+7EBF\U+5C42
62
256
6
ByLayer
370
-1
48
1.0
60
0
100
AcDbLine
10
-1208.00000000002
20
-1244.75000000001
30
0.0
11
-1208.00000000002
21
-1408.75003530064
31
0.0
39
0.0
210
0.0
220
0.0
230
1.0
0
LINE
5
17C
330
22
100
AcDbEntity
8
\U+7C97\U+5B9E\U+7EBF\U+5C42
62
256
6
ByLayer
370
-1
48
1.0
60
0
100
AcDbLine
10
-1258.00000000002
20
-1244.75000000001
30
0.0
11
-1258.00000000002
21
-1408.7500013598
31
0.0
39
0.0
210
0.0
220
0.0
230
1.0
0
LINE
5
17D
330
22
100
AcDbEntity
8
\U+7C97\U+5B9E\U+7EBF\U+5C42
62
256
6
ByLayer
370
-1
48
1.0
60
0
100
AcDbLine
10
-1247.99997993553
20
-1418.75
30
0.0
11
-1217.99999999986
21
-1418.75
31
0.0
39
0.0
210
0.0
220
0.0
230
1.0
0
ELLIPSE
5
17E
330
22
100
AcDbEntity
8
\U+7C97\U+5B9E\U+7EBF\U+5C42
62
256
6
ByLayer
370
-1
48
1.0
60
0
100
AcDbEllipse
10
-1247.99999994038
20
-1408.74999994038
30
0.0
11
7.07106785409787
21
-7.07106785409787
31
0.0
210
0.0
220
0.0
230
1.0
40
0.999999999975165
41
-2.35619449614108
42
-0.785398169371024
0
LINE
5
17F
330
22
100
AcDbEntity
8
\U+7C97\U+5B9E\U+7EBF\U+5C42
62
256
6
ByLayer
370
-1
48
1.0
60
0
100
AcDbLine
10
-1241.00000000002
20
-1393.75000000002
30
0.0
11
-1241.00000000002
21
-1403.75000000002
31
0.0
39
0.0
210
0.0
220
0.0
230
1.0
0
LINE
5
180
330
22
100
AcDbEntity
8
\U+7C97\U+5B9E\U+7EBF\U+5C42
62
256
6
ByLayer
370
-1
48
1.0
60
0
100
AcDbLine
10
-1225.00000000002
20
-1393.75000000002
30
0.0
11
-1225.00000000002
21
-1403.75000000002
31
0.0
39
0.0
210
0.0
220
0.0
230
1.0
0
ELLIPSE
5
181
330
22
100
AcDbEntity
8
\U+7C97\U+5B9E\U+7EBF\U+5C42
62
256
6
ByLayer
370
-1
48
1.0
60
0
100
AcDbEllipse
10
-1233.00000000005
20
-1393.74999999993
30
0.0
11
5.6568542493681
21
-5.6568542493681
31
0.0
210
0.0
220
0.0
230
1.0
40
0.999999999977263
41
0.78539816338075
42
-2.35619053457518
0
ELLIPSE
5
182
330
22
100
AcDbEntity
8
\U+7C97\U+5B9E\U+7EBF\U+5C42
62
256
6
ByLayer
370
-1
48
1.0
60
0
100
AcDbEllipse
10
-1233.00000000008
20
-1403.74999999993
30
0.0
11
5.65685424965075
21
5.65685424965075
31
0.0
210
0.0
220
0.0
230
1.0
40
0.999999999977263
41
2.35619449023486
42
-0.785394043001974
0
LINE
5
183
330
22
100
AcDbEntity
8
\U+7C97\U+5B9E\U+7EBF\U+5C42
62
256
6
ByLayer
370
-1
48
1.0
60
0
100
AcDbLine
10
-1258.00000000002
20
-1244.75000000001
30
0.0
11
-1208.00000000002
21
-1244.75000000001
31
0.0
39
0.0
210
0.0
220
0.0
230
1.0
0
ELLIPSE
5
184
330
22
100
AcDbEntity
8
\U+7C97\U+5B9E\U+7EBF\U+5C42
62
256
6
ByLayer
370
-1
48
1.0
60
0
100
AcDbEllipse
10
-1217.99999999986
20
-1408.75000000009
30
0.0
11
7.0710678117751
21
7.0710678117751
31
0.0
210
0.0
220
0.0
230
1.0
40
0.999999999993791
41
-2.35619449018924
42
-0.785398163400551
0
LINE
5
185
330
22
100
AcDbEntity
8
\U+4E2D\U+5FC3\U+7EBF\U+5C42
62
256
6
ByLayer
370
-1
48
1.0
60
0
100
AcDbLine
10
-1233.00000000002
20
-1385.07374692325
30
0.0
11
-1233.00000000002
21
-1412.42625307678
31
0.0
39
0.0
210
0.0
220
0.0
230
1.0
0
LINE
5
186
330
22
100
AcDbEntity
8
\U+4E2D\U+5FC3\U+7EBF\U+5C42
62
256
6
ByLayer
370
-1
48
1.0
60
0
100
AcDbLine
10
-1219.32374692326
20
-1398.75000000002
30
0.0
11
-1246.67625307679
21
-1398.75000000002
31
0.0
39
0.0
210
0.0
220
0.0
230
1.0
0
LINE
5
187
330
22
100
AcDbEntity
8
\U+7C97\U+5B9E\U+7EBF\U+5C42
62
7
6
ByLayer
370
-1
48
1.0
60
0
100
AcDbLine
10
-665.370822808349
20
-1448.75
30
0.0
11
-665.370822808349
21
-1378.75000000001
31
0.0
39
0.0
210
0.0
220
0.0
230
1.0
0
LINE
5
188
330
22
100
AcDbEntity
8
\U+7C97\U+5B9E\U+7EBF\U+5C42
62
7
6
ByLayer
370
-1
48
1.0
60
0
100
AcDbLine
10
-649.370822808348
20
-1448.75
30
0.0
11
-649.370822808347
21
-1378.75000000001
31
0.0
39
0.0
210
0.0
220
0.0
230
1.0
0
LINE
5
189
330
22
100
AcDbEntity
8
\U+4E2D\U+5FC3\U+7EBF\U+5C42
62
256
6
ByLayer
370
-1
48
1.0
60
0
100
AcDbLine
10
-646.370822808348
20
-1448.75
30
0.0
11
-668.370822808349
21
-1448.75
31
0.0
39
0.0
210
0.0
220
0.0
230
1.0
0
LINE
5
18A
330
22
100
AcDbEntity
8
\U+4E2D\U+5FC3\U+7EBF\U+5C42
62
256
6
ByLayer
370
-1
48
1.0
60
0
100
AcDbLine
10
-657.370822808348
20
-1459.75
30
0.0
11
-657.370822808349
21
-1372.03618279953
31
0.0
39
0.0
210
0.0
220
0.0
230
1.0
0
ELLIPSE
5
18B
330
22
100
AcDbEntity
8
\U+7C97\U+5B9E\U+7EBF\U+5C42
62
7
6
ByLayer
370
-1
48
1.0
60
0
100
AcDbEllipse
10
-657.370822808349
20
-1448.75
30
0.0
11
5.65420195260791
21
-5.65950530350946
31
0.0
210
0.0
220
0.0
230
1.0
40
0.999999999992421
41
-2.35572573574821
42
0.785866917841588
0
ELLIPSE
5
18C
330
22
100
AcDbEntity
8
\U+865A\U+7EBF\U+5C42
62
256
6
ByLayer
370
-1
48
1.0
60
0
100
AcDbEllipse
10
-657.370822808349
20
-1448.75
30
0.0
11
5.65685424946178
21
-5.65685424946178
31
0.0
210
0.0
220
0.0
230
1.0
40
0.999999999962104
41
0.785398163416391
42
-2.3561944901734
0
LINE
5
18D
330
22
100
AcDbEntity
8
\U+7C97\U+5B9E\U+7EBF\U+5C42
62
256
6
ByLayer
370
-1
48
1.0
60
0
100
AcDbLine
10
-500.000000000012
20
-1374.75000000001
30
0.0
11
-500.000000000012
21
-1378.75000000001
31
0.0
39
0.0
210
0.0
220
0.0
230
1.0
0
LINE
5
18E
330
22
100
AcDbEntity
8
\U+7C97\U+5B9E\U+7EBF\U+5C42
62
256
6
ByLayer
370
-1
48
1.0
60
0
100
AcDbLine
10
-500.000000000012
20
-1378.75000000001
30
0.0
11
-1200.00000000003
21
-1378.75000000001
31
0.0
39
0.0
210
0.0
220
0.0
230
1.0
0
LINE
5
18F
330
22
100
AcDbEntity
8
\U+7C97\U+5B9E\U+7EBF\U+5C42
62
256
6
ByLayer
370
-1
48
1.0
60
0
100
AcDbLine
10
-1200.00000000003
20
-1378.75000000001
30
0.0
11
-1200.00000000003
21
-1374.75000000001
31
0.0
39
0.0
210
0.0
220
0.0
230
1.0
0
LINE
5
190
330
22
100
AcDbEntity
8
\U+7C97\U+5B9E\U+7EBF\U+5C42
62
256
6
ByLayer
370
-1
48
1.0
60
0
100
AcDbLine
10
-1200.00000000003
20
-1374.75000000001
30
0.0
11
-500.000000000012
21
-1374.75000000001
31
0.0
39
0.0
210
0.0
220
0.0
230
1.0
0
LINE
5
191
330
22
100
AcDbEntity
8
\U+7C97\U+5B9E\U+7EBF\U+5C42
62
256
6
ByLayer
370
-1
48
1.0
60
0
100
AcDbLine
10
-1107.99999999997
20
-1378.75000000001
30
0.0
11
-1107.99999999997
21
-1398.75000000001
31
0.0
39
0.0
210
0.0
220
0.0
230
1.0
0
LINE
5
192
330
22
100
AcDbEntity
8
\U+7C97\U+5B9E\U+7EBF\U+5C42
62
256
6
ByLayer
370
-1
48
1.0
60
0
100
AcDbLine
10
-1202.99999999995
20
-1418.75000000001
30
0.0
11
-1247.99999999967
21
-1418.75000000001
31
0.0
39
0.0
210
0.0
220
0.0
230
1.0
0
LINE
5
193
330
22
100
AcDbEntity
8
\U+7C97\U+5B9E\U+7EBF\U+5C42
62
256
6
ByLayer
370
-1
48
1.0
60
0
100
AcDbLine
10
-1107.99999999997
20
-1378.75000000001
30
0.0
11
-1257.99999999995
21
-1378.75000000001
31
0.0
39
0.0
210
0.0
220
0.0
230
1.0
0
LINE
5
194
330
22
100
AcDbEntity
8
\U+7C97\U+5B9E\U+7EBF\U+5C42
62
256
6
ByLayer
370
-1
48
1.0
60
0
100
AcDbLine
10
-1107.99999999997
20
-1398.75000000001
30
0.0
11
-1202.99999999995
21
-1418.75000000001
31
0.0
39
0.0
210
0.0
220
0.0
230
1.0
0
ELLIPSE
5
195
330
22
100
AcDbEntity
8
\U+7C97\U+5B9E\U+7EBF\U+5C42
62
256
6
ByLayer
370
-1
48
1.0
60
0
100
AcDbEllipse
10
-1247.99999999947
20
-1408.7499999995
30
0.0
11
7.07753854723232
21
-7.06459115042834
31
0.0
210
0.0
220
0.0
230
1.0
40
0.999999999993791
41
-2.35711000949549
42
-0.786313682755926
0
LINE
5
196
330
22
100
AcDbEntity
8
\U+7C97\U+5B9E\U+7EBF\U+5C42
62
256
6
ByLayer
370
-1
48
1.0
60
0
100
AcDbLine
10
-1228.00000000004
20
-1390.75000000003
30
0.0
11
-1238.00000000004
21
-1390.75000000003
31
0.0
39
0.0
210
0.0
220
0.0
230
1.0
0
LINE
5
197
330
22
100
AcDbEntity
8
\U+7C97\U+5B9E\U+7EBF\U+5C42
62
256
6
ByLayer
370
-1
48
1.0
60
0
100
AcDbLine
10
-1228.00000000004
20
-1406.75000000003
30
0.0
11
-1238.00000000004
21
-1406.75000000003
31
0.0
39
0.0
210
0.0
220
0.0
230
1.0
0
ELLIPSE
5
198
330
22
100
AcDbEntity
8
\U+7C97\U+5B9E\U+7EBF\U+5C42
62
256
6
ByLayer
370
-1
48
1.0
60
0
100
AcDbEllipse
10
-1227.99999999994
20
-1398.75
30
0.0
11
7.99999999991849
21
0.0
31
0.0
210
0.0
220
0.0
230
1.0
40
1.0
41
-1.5707963267949
42
1.57080028240624
0
ELLIPSE
5
199
330
22
100
AcDbEntity
8
\U+7C97\U+5B9E\U+7EBF\U+5C42
62
256
6
ByLayer
370
-1
48
1.0
60
0
100
AcDbEllipse
10
-1237.99999999995
20
-1398.74999999997
30
0.0
11
5.6568542495721
21
5.6568542495721
31
0.0
210
0.0
220
0.0
230
1.0
40
0.999999999969683
41
0.785398163412607
42
-2.35619036977751
0
LINE
5
19A
330
22
100
AcDbEntity
8
\U+4E2D\U+5FC3\U+7EBF\U+5C42
62
256
6
ByLayer
370
-1
48
1.0
60
0
100
AcDbLine
10
-1233.00000000004
20
-1416.48730775376
30
0.0
11
-1233.00000000004
21
-1381.01269224629
31
0.0
39
0.0
210
0.0
220
0.0
230
1.0
0
LINE
5
19B
330
22
100
AcDbEntity
8
\U+4E2D\U+5FC3\U+7EBF\U+5C42
62
256
6
ByLayer
370
-1
48
1.0
60
0
100
AcDbLine
10
-1250.73730775377
20
-1398.75000000003
30
0.0
11
-1215.2626922463
21
-1398.75000000003
31
0.0
39
0.0
210
0.0
220
0.0
230
1.0
0
LINE
5
19C
330
22
100
AcDbEntity
8
\U+7C97\U+5B9E\U+7EBF\U+5C42
62
256
6
ByLayer
370
-1
48
1.0
60
0
100
AcDbLine
10
-1257.99999999992
20
-1408.74996499924
30
0.0
11
-1257.99999999995
21
-1378.75000000001
31
0.0
39
0.0
210
0.0
220
0.0
230
1.0
0
ENDBLK
5
23
330
22
100
AcDbEntity
8
0
100
AcDbBlockEnd
0
BLOCK
5
19F
330
19D
100
AcDbEntity
67
1
8
0
100
AcDbBlockBegin
2
*Paper_Space
70
0
10
0.0
20
0.0
30
0.0
3
*Paper_Space
4

0
ENDBLK
5
19E
330
19D
100
AcDbEntity
8
0
100
AcDbBlockEnd
0
ENDSEC
0
SECTION
2
ENTITIES
0
VIEWPORT
5
1A1
330
19D
100
AcDbEntity
67
1
8
0
62
256
6
ByLayer
370
-1
48
1.0
60
0
100
AcDbViewport
10
0.0
20
0.0
30
0.0
40
297.0
41
210.0
68
1
69
1
12
50.0
22
100.0
13
0.0
23
0.0
14
10.0
24
10.0
15
10.0
25
10.0
16
0.0
26
0.0
36
1.0
17
0.0
27
0.0
37
0.0
42
50.0
43
0.0
44
0.0
45
250.0
50
0.0
51
0.0
72
1000
90
819232
110
0.0
120
0.0
130
0.0
111
1.0
121
0.0
131
0.0
112
0.0
122
1.0
132
0.0
0
ENDSEC
0
SECTION
2
OBJECTS
0
DICTIONARY
5
1A6
330
0
100
AcDbDictionary
280
1
281
1
3
ACAD_GROUP
350
12
3
ACAD_LAYOUT
350
1A0
3
ACAD_DGNDEFINITIONS
350
F
3
ACAD_DWFDEFINITIONS
350
10
3
ACAD_PDFDEFINITIONS
350
11
3
ACAD_MLINESTYLE
350
B
3
ACAD_IMAGE_DICT
350
E
3
ACAD_IMAGE_VARS
350
21
0
DICTIONARY
5
12
330
1A6
100
AcDbDictionary
280
1
281
1
0
DICTIONARY
5
1A0
330
1A6
100
AcDbDictionary
280
1
281
1
3
Model
350
20
3
Layout1
350
1A2
0
DICTIONARY
5
F
330
1A6
100
AcDbDictionary
280
1
281
1
0
DICTIONARY
5
10
330
1A6
100
AcDbDictionary
280
1
281
1
0
DICTIONARY
5
11
330
1A6
100
AcDbDictionary
280
1
281
1
0
DICTIONARY
5
B
330
1A6
100
AcDbDictionary
280
1
281
1
3
Standard
350
1B
0
DICTIONARY
5
E
330
1A6
100
AcDbDictionary
280
1
281
1
0
DICTIONARY
5
6
330
5
100
AcDbDictionary
280
1
281
1
3
ACAD_LAYERSTATES
360
1A7
0
DICTIONARY
5
1A7
330
6
100
AcDbDictionary
280
1
281
1
0
LAYOUT
5
20
330
1A0
100
AcDbPlotSettings
1

2
none_device
4
ISO_A4_(210.00_x_297.00_MM)
6

40
7.5
41
20.0
42
7.5
43
20.0
44
210.0
45
297.0
46
0.0
47
0.0
48
0.0
49
0.0
140
0.0
141
0.0
142
1.0
143
1.0
70
11952
72
1
73
1
74
1
7

75
0
76
0
77
2
78
300
147
1.0
148
0.0
149
0.0
100
AcDbLayout
1
Model
71
0
10
-20.0
20
-7.5
11
277.0
21
202.5
12
0.0
22
0.0
32
0.0
14
25.7
24
19.5
34
0.0
15
231.3
25
175.5
35
0.0
146
0.0
13
0.0
23
0.0
33
0.0
16
1.0
26
0.0
36
0.0
17
0.0
27
1.0
37
0.0
76
0
330
1C
0
LAYOUT
5
1A2
330
1A0
100
AcDbPlotSettings
1

2
none_device
4
ISO_A4_(210.00_x_297.00_MM)
6

40
7.5
41
20.0
42
7.5
43
20.0
44
210.0
45
297.0
46
0.0
47
0.0
48
0.0
49
0.0
140
0.0
141
0.0
142
1.0
143
1.0
70
688
72
1
73
1
74
1
7

75
0
76
0
77
2
78
300
147
1.0
148
0.0
149
0.0
100
AcDbLayout
1
Layout1
71
1
10
-20.0
20
-7.5
11
277.0
21
202.5
12
0.0
22
0.0
32
0.0
14
25.7
24
19.5
34
0.0
15
231.3
25
175.5
35
0.0
146
0.0
13
0.0
23
0.0
33
0.0
16
1.0
26
0.0
36
0.0
17
0.0
27
1.0
37
0.0
76
0
330
19D
0
MLINESTYLE
5
1B
330
B
100
AcDbMlineStyle
2
Standard
70
0
3

62
256
51
90.0
52
90.0
71
2
49
0.5
62
256
6
ByLayer
49
-0.5
62
256
6
ByLayer
0
RASTERVARIABLES
5
21
330
E
100
AcDbRasterVariables
90
0
70
1
71
1
72
0
0
ENDSEC
0
EOF
