999
DXF file generated by netDxf https://github.com/haplokuon/netDxf, Copyright(C) 2009-2020 Daniel Carvajal, Licensed under LGPL
0
SECTION
2
HEADER
9
$ACADVER
1
AC1015
9
$DWGCODEPAGE
3
ANSI_1252
9
$HANDSEED
5
1AD
9
$ANGBASE
50
0.0
9
$ANGDIR
70
0
9
$ATTMODE
70
1
9
$AUNITS
70
0
9
$AUPREC
70
0
9
$CECOLOR
62
256
9
$CELTSCALE
40
1.0
9
$CELTYPE
6
ByLayer
9
$CELWEIGHT
370
-1
9
$CLAYER
8
0
9
$CMLJUST
70
0
9
$CMLSCALE
40
20.0
9
$CMLSTYLE
2
Standard
9
$DIMSTYLE
2
Standard
9
$TEXTSIZE
40
2.5
9
$TEXTSTYLE
7
Standard
9
$LUNITS
70
2
9
$LUPREC
70
4
9
$MIRRTEXT
70
0
9
$EXTNAMES
290
1
9
$INSBASE
10
0.0
20
0.0
30
0.0
9
$INSUNITS
70
0
9
$LTSCALE
40
1.0
9
$LWDISPLAY
290
0
9
$PDMODE
70
0
9
$PDSIZE
40
0.0
9
$PLINEGEN
70
0
9
$PSLTSCALE
70
1
9
$TDCREATE
40
2459821.452912
9
$TDUCREATE
40
2459821.11957867
9
$TDUPDATE
40
2459821.452912
9
$TDUUPDATE
40
2459821.11957867
9
$TDINDWG
40
0.0
9
$UCSORG
10
0.0
20
0.0
30
0.0
9
$UCSXDIR
10
1.0
20
0.0
30
0.0
9
$UCSYDIR
10
0.0
20
1.0
30
0.0
9
$DIMADEC
70
0
9
$DIMALT
70
0
9
$DIMALTD
70
2
9
$DIMALTF
40
25.4
9
$DIMALTRND
40
0.0
9
$DIMALTTD
70
2
9
$DIMALTTZ
70
0
9
$DIMALTU
70
2
9
$DIMALTZ
70
0
9
$DIMAPOST
1

9
$DIMATFIT
70
3
9
$DIMAUNIT
70
0
9
$DIMASZ
40
0.18
9
$DIMAZIN
70
0
9
$DIMSAH
70
0
9
$DIMBLK
1

9
$DIMLDRBLK
1

9
$DIMCEN
40
0.09
9
$DIMCLRD
70
0
9
$DIMCLRE
70
0
9
$DIMCLRT
70
0
9
$DIMDEC
70
4
9
$DIMDLE
40
0.0
9
$DIMDLI
40
0.38
9
$DIMDSEP
70
46
9
$DIMEXE
40
0.18
9
$DIMEXO
40
0.0625
9
$DIMFXLON
70
0
9
$DIMFXL
40
1.0
9
$DIMGAP
40
0.09
9
$DIMJUST
70
0
9
$DIMLFAC
40
1.0
9
$DIMLUNIT
70
2
9
$DIMLWD
70
-2
9
$DIMLWE
70
-2
9
$DIMPOST
1

9
$DIMRND
40
0.0
9
$DIMSCALE
40
1.0
9
$DIMSD1
70
0
9
$DIMSD2
70
0
9
$DIMSE1
70
0
9
$DIMSE2
70
0
9
$DIMSOXD
70
0
9
$DIMTAD
70
0
9
$DIMTDEC
70
4
9
$DIMTFAC
40
1.0
9
$DIMTIH
70
0
9
$DIMTIX
70
0
9
$DIMTM
40
0.0
9
$DIMTMOVE
70
0
9
$DIMTOFL
70
0
9
$DIMTOH
70
0
9
$DIMTOL
70
0
9
$DIMLIM
70
0
9
$DIMTOLJ
70
1
9
$DIMTP
40
0.0
9
$DIMTXT
40
0.18
9
$DIMTXTDIRECTION
70
0
9
$DIMTZIN
70
0
9
$DIMZIN
70
0
9
$DIMFRAC
70
0
9
$DIMLTYPE
6
ByBlock
9
$DIMLTEX1
6
ByBlock
9
$DIMLTEX2
6
ByBlock
0
ENDSEC
0
SECTION
2
CLASSES
0
CLASS
1
RASTERVARIABLES
2
AcDbRasterVariables
3
ISM
90
0
280
0
281
0
0
ENDSEC
0
SECTION
2
TABLES
0
TABLE
2
APPID
5
4
330
0
100
AcDbSymbolTable
70
7
0
APPID
5
19
330
4
100
AcDbSymbolTableRecord
100
AcDbRegAppTableRecord
2
ACAD
70
0
0
APPID
5
44
330
4
100
AcDbSymbolTableRecord
100
AcDbRegAppTableRecord
2
RAK
70
0
0
APPID
5
62
330
4
100
AcDbSymbolTableRecord
100
AcDbRegAppTableRecord
2
AcAecLayerStandard
70
0
0
APPID
5
69
330
4
100
AcDbSymbolTableRecord
100
AcDbRegAppTableRecord
2
AcDbBlockRepETag
70
0
0
APPID
5
1A8
330
4
100
AcDbSymbolTableRecord
100
AcDbRegAppTableRecord
2
AcCmTransparency
70
0
0
APPID
5
1A9
330
4
100
AcDbSymbolTableRecord
100
AcDbRegAppTableRecord
2
GradientColor1ACI
70
0
0
APPID
5
1AA
330
4
100
AcDbSymbolTableRecord
100
AcDbRegAppTableRecord
2
GradientColor2ACI
70
0
0
ENDTAB
0
TABLE
2
VPORT
5
1
330
0
100
AcDbSymbolTable
70
1
0
VPORT
5
2
330
1
100
AcDbSymbolTableRecord
100
AcDbViewportTableRecord
2
*Active
70
0
10
0.0
20
0.0
11
1.0
21
1.0
12
0.0
22
0.0
13
0.0
23
0.0
14
0.5
24
0.5
15
10.0
25
10.0
16
0.0
26
0.0
36
1.0
17
0.0
27
0.0
37
0.0
40
10.0
41
1.0
75
0
76
1
0
ENDTAB
0
TABLE
2
LTYPE
5
7
330
0
100
AcDbSymbolTable
70
8
0
LTYPE
5
15
330
7
100
AcDbSymbolTableRecord
100
AcDbLinetypeTableRecord
2
Continuous
70
0
3
Solid line
72
65
73
0
40
0.0
0
LTYPE
5
16
330
7
100
AcDbSymbolTableRecord
100
AcDbLinetypeTableRecord
2
ByLayer
70
0
3

72
65
73
0
40
0.0
0
LTYPE
5
17
330
7
100
AcDbSymbolTableRecord
100
AcDbLinetypeTableRecord
2
ByBlock
70
0
3

72
65
73
0
40
0.0
0
LTYPE
5
66
330
7
100
AcDbSymbolTableRecord
100
AcDbLinetypeTableRecord
2
PHANTOM
70
0
3
Phantom ______  __  __  ______  __  __  ______
72
65
73
6
40
5.5
49
3.0
74
0
49
-0.5
74
0
49
0.5
74
0
49
-0.5
74
0
49
0.5
74
0
49
-0.5
74
0
0
LTYPE
5
6C
330
7
100
AcDbSymbolTableRecord
100
AcDbLinetypeTableRecord
2
CENTER
70
0
3
Center ____ _ ____ _ ____ _ ____ _ ____ _ ____
72
65
73
4
40
2.0
49
1.25
74
0
49
-0.25
74
0
49
0.25
74
0
49
-0.25
74
0
0
LTYPE
5
104
330
7
100
AcDbSymbolTableRecord
100
AcDbLinetypeTableRecord
2
DASHED
70
0
3
Dashed __ __ __ __ __ __ __ __ __ __ __ __ __ _
72
65
73
2
40
0.75
49
0.5
74
0
49
-0.25
74
0
0
LTYPE
5
149
330
7
100
AcDbSymbolTableRecord
100
AcDbLinetypeTableRecord
2
DASHDOT2
70
0
3
Dash dot (.5x) _._._._._._._._._._._._._._._.
72
65
73
4
40
12.7
49
6.35
74
0
49
-3.175
74
0
49
0.0
74
0
49
-3.175
74
0
0
LTYPE
5
156
330
7
100
AcDbSymbolTableRecord
100
AcDbLinetypeTableRecord
2
CENTER2
70
0
3
Center (.5x) ___ _ ___ _ ___ _ ___ _ ___ _ ___
72
65
73
4
40
1.125
49
0.75
74
0
49
-0.125
74
0
49
0.125
74
0
49
-0.125
74
0
0
ENDTAB
0
TABLE
2
LAYER
5
5
102
{ACAD_XDICTIONARY
360
6
102
}
330
0
100
AcDbSymbolTable
70
11
0
LAYER
5
14
330
5
100
AcDbSymbolTableRecord
100
AcDbLayerTableRecord
2
0
70
0
62
7
6
Continuous
290
1
370
-3
390
0
0
LAYER
5
3A
330
5
100
AcDbSymbolTableRecord
100
AcDbLayerTableRecord
2
CENTER
70
0
62
1
6
Continuous
290
1
370
-3
390
0
0
LAYER
5
43
330
5
100
AcDbSymbolTableRecord
100
AcDbLayerTableRecord
2
AM_0
70
0
62
7
6
Continuous
290
1
370
50
390
0
1001
RAK
1000
{ACET-LAYISO
1070
0
1070
7
1000
CONTINUOUS
1071
50
1071
1
1005
1D4F
1000
ACET-LAYISO}
0
LAYER
5
61
330
5
100
AcDbSymbolTableRecord
100
AcDbLayerTableRecord
2
\U+7C97\U+5B9E\U+7EBF
70
0
62
3
6
Continuous
290
1
370
25
390
0
1001
AcAecLayerStandard
1000

1000

0
LAYER
5
65
330
5
100
AcDbSymbolTableRecord
100
AcDbLayerTableRecord
2
\U+53CC\U+70B9\U+753B\U+7EBF
70
0
62
6
6
PHANTOM
290
1
370
20
390
0
0
LAYER
5
109
330
5
100
AcDbSymbolTableRecord
100
AcDbLayerTableRecord
2
\U+5C3A\U+5BF8\U+6807\U+6CE8
70
0
62
3
6
Continuous
290
1
370
13
390
0
0
LAYER
5
11B
330
5
100
AcDbSymbolTableRecord
100
AcDbLayerTableRecord
2
\U+4E2D\U+5FC3\U+7EBF
70
0
62
1
6
CENTER
290
1
370
20
390
0
0
LAYER
5
148
330
5
100
AcDbSymbolTableRecord
100
AcDbLayerTableRecord
2
\U+77ED\U+4E2D\U+5FC3\U+7EBF
70
0
62
10
6
DASHDOT2
290
1
370
-3
390
0
1001
AcAecLayerStandard
1000

1000

0
LAYER
5
14C
330
5
100
AcDbSymbolTableRecord
100
AcDbLayerTableRecord
2
\U+865A\U+7EBF
70
0
62
5
6
DASHED
290
1
370
-3
390
0
0
LAYER
5
155
330
5
100
AcDbSymbolTableRecord
100
AcDbLayerTableRecord
2
\U+70B9\U+5212\U+7EBF01
70
0
62
10
6
CENTER2
290
1
370
15
390
0
0
LAYER
5
18C
330
5
100
AcDbSymbolTableRecord
100
AcDbLayerTableRecord
2
\U+56FE\U+5C423
70
0
62
2
6
Continuous
290
1
370
18
390
0
1001
AcAecLayerStandard
1000

1000

0
ENDTAB
0
TABLE
2
STYLE
5
8
330
0
100
AcDbSymbolTable
70
1
0
STYLE
5
18
330
8
100
AcDbSymbolTableRecord
100
AcDbTextStyleTableRecord
2
Standard
3
simplex.shx
70
0
71
0
40
0.0
41
1.0
42
0.0
50
0.0
0
ENDTAB
0
TABLE
2
DIMSTYLE
5
A
330
0
100
AcDbSymbolTable
70
1
100
AcDbDimStyleTable
0
DIMSTYLE
105
1A
330
A
100
AcDbSymbolTableRecord
100
AcDbDimStyleTableRecord
2
Standard
3

4

40
1.0
41
0.18
42
0.0625
43
0.38
44
0.18
45
0.0
46
0.0
47
0.0
48
0.0
49
1.0
70
0
71
0
72
0
73
0
74
0
75
0
76
0
77
0
78
0
79
0
140
0.18
141
0.09
143
25.4
144
1.0
146
1.0
147
0.09
148
0.0
170
0
171
2
172
0
174
0
175
0
176
0
177
0
178
0
179
0
271
4
272
4
273
2
274
2
275
0
276
0
277
2
278
46
279
0
280
0
281
0
282
0
283
1
284
0
285
0
286
0
289
3
290
0
294
0
340
18
173
0
345
17
346
17
347
17
371
-2
372
-2
0
ENDTAB
0
TABLE
2
VIEW
5
3
330
0
100
AcDbSymbolTable
70
0
0
ENDTAB
0
TABLE
2
UCS
5
C
330
0
100
AcDbSymbolTable
70
0
0
ENDTAB
0
TABLE
2
BLOCK_RECORD
5
D
330
0
100
AcDbSymbolTable
70
3
0
BLOCK_RECORD
5
1C
330
D
100
AcDbSymbolTableRecord
100
AcDbBlockTableRecord
2
*Model_Space
340
20
0
BLOCK_RECORD
5
22
330
D
100
AcDbSymbolTableRecord
100
AcDbBlockTableRecord
2
A$C1730634E
340
0
70
0
280
1
281
0
1001
ACAD
1000
DesignCenter Data
1002
{
1070
1
1070
0
1002
}
0
BLOCK_RECORD
5
1A2
330
D
100
AcDbSymbolTableRecord
100
AcDbBlockTableRecord
2
*Paper_Space
340
1A7
0
ENDTAB
0
ENDSEC
0
SECTION
2
BLOCKS
0
BLOCK
5
1E
330
1C
100
AcDbEntity
67
0
8
0
100
AcDbBlockBegin
2
*Model_Space
70
0
10
0.0
20
0.0
30
0.0
3
*Model_Space
4

0
ENDBLK
5
1D
330
1C
100
AcDbEntity
8
0
100
AcDbBlockEnd
0
BLOCK
5
24
330
22
100
AcDbEntity
8
0
100
AcDbBlockBegin
2
A$C1730634E
70
0
10
0.0
20
0.0
30
0.0
3
A$C1730634E
4

0
LINE
5
25
330
22
100
AcDbEntity
8
0
62
256
6
ByLayer
370
-1
48
1.0
60
0
100
AcDbLine
10
82.2472663305816
20
410.632954420471
30
-0.0000000000009095
11
82.2472663305671
21
475.632954420464
31
-0.0000000000009095
39
0.0
210
0.0
220
0.0
230
1.0
0
LINE
5
26
330
22
100
AcDbEntity
8
0
62
256
6
ByLayer
370
-1
48
1.0
60
0
100
AcDbLine
10
82.2472663305816
20
1435.68295442101
30
-0.0000000000009095
11
82.2472663305816
21
1500.68295442101
31
-0.0000000000009095
39
0.0
210
0.0
220
0.0
230
1.0
0
LINE
5
27
330
22
100
AcDbEntity
8
0
62
256
6
ByLayer
370
-1
48
1.0
60
0
100
AcDbLine
10
3118.38146326611
20
410.632954420478
30
-0.0000000000009095
11
3118.38146326611
21
475.632954420478
31
-0.0000000000009095
39
0.0
210
0.0
220
0.0
230
1.0
0
LINE
5
28
330
22
100
AcDbEntity
8
0
62
256
6
ByLayer
370
-1
48
1.0
60
0
100
AcDbLine
10
3118.38146326612
20
1435.68295442102
30
-0.0000000000009095
11
3118.38146326611
21
1500.68295442102
31
-0.0000000000009095
39
0.0
210
0.0
220
0.0
230
1.0
0
LINE
5
29
330
22
100
AcDbEntity
8
0
62
256
6
ByLayer
370
-1
48
1.0
60
0
100
AcDbLine
10
82.2472663305671
20
475.632954420478
30
-0.0000000000009095
11
199.645266330772
21
475.632954420464
31
0.0000000000000239
39
0.0
210
0.0
220
0.0
230
1.0
0
LINE
5
2A
330
22
100
AcDbEntity
8
0
62
256
6
ByLayer
370
-1
48
1.0
60
0
100
AcDbLine
10
1116.55494818329
20
475.632954420478
30
-0.0000000000009095
11
3118.38146326612
21
475.632954420478
31
-0.0000000000009095
39
0.0
210
0.0
220
0.0
230
1.0
0
LINE
5
2B
330
22
100
AcDbEntity
8
0
62
256
6
ByLayer
370
-1
48
1.0
60
0
100
AcDbLine
10
82.2472663305525
20
410.632954420471
30
-0.0000000000009095
11
339.933584478014
21
410.632954420478
31
-0.0000000000009095
39
0.0
210
0.0
220
0.0
230
1.0
0
LINE
5
2C
330
22
100
AcDbEntity
8
0
62
256
6
ByLayer
370
-1
48
1.0
60
0
100
AcDbLine
10
1116.55494818329
20
410.632954420478
30
-0.0000000000009095
11
3118.38146326611
21
410.632954420471
31
-0.0000000000009095
39
0.0
210
0.0
220
0.0
230
1.0
0
LINE
5
2D
330
22
100
AcDbEntity
8
0
62
256
6
ByLayer
370
-1
48
1.0
60
0
100
AcDbLine
10
82.2472663305671
20
1500.68295442101
30
-0.0000000000009095
11
339.933584478014
21
1500.68295442102
31
-0.0000000000009095
39
0.0
210
0.0
220
0.0
230
1.0
0
LINE
5
2E
330
22
100
AcDbEntity
8
0
62
256
6
ByLayer
370
-1
48
1.0
60
0
100
AcDbLine
10
1116.74426633061
20
1500.68295442102
30
-0.0000000000009095
11
3118.38146326612
21
1500.68295442101
31
-0.0000000000009095
39
0.0
210
0.0
220
0.0
230
1.0
0
LINE
5
2F
330
22
100
AcDbEntity
8
0
62
256
6
ByLayer
370
-1
48
1.0
60
0
100
AcDbLine
10
82.2472663305671
20
1435.682954421
30
-0.0000000000009095
11
199.645266330772
21
1435.682954421
31
0.0000000000000239
39
0.0
210
0.0
220
0.0
230
1.0
0
LINE
5
30
330
22
100
AcDbEntity
8
0
62
256
6
ByLayer
370
-1
48
1.0
60
0
100
AcDbLine
10
1116.74426633064
20
1435.682954421
30
-0.0000000000009095
11
3118.38146326614
21
1435.68295442102
31
-0.0000000000009095
39
0.0
210
0.0
220
0.0
230
1.0
0
LINE
5
31
330
22
100
AcDbEntity
8
0
62
256
6
ByLayer
370
-1
48
1.0
60
0
100
AcDbLine
10
1133.74526633124
20
475.632954420478
30
-0.0000000000009095
11
1133.74526633124
21
1435.68295442101
31
-0.0000000000009095
39
0.0
210
0.0
220
0.0
230
1.0
0
LINE
5
32
330
22
100
AcDbEntity
8
0
62
256
6
ByLayer
370
-1
48
1.0
60
0
100
AcDbLine
10
1198.74526633124
20
475.632954420471
30
-0.0000000000009095
11
1198.74526633124
21
1435.68295442101
31
-0.0000000000009095
39
0.0
210
0.0
220
0.0
230
1.0
0
LINE
5
33
330
22
100
AcDbEntity
8
0
62
256
6
ByLayer
370
-1
48
1.0
60
0
100
AcDbLine
10
1864.64749356826
20
475.632954421329
30
-0.0000000000009095
11
1864.64749356828
21
1435.68295442186
31
-0.0000000000009095
39
0.0
210
0.0
220
0.0
230
1.0
0
LINE
5
34
330
22
100
AcDbEntity
8
0
62
256
6
ByLayer
370
-1
48
1.0
60
0
100
AcDbLine
10
1929.64749356828
20
475.632954421322
30
-0.0000000000009095
11
1929.64749356828
21
1435.68295442186
31
-0.0000000000009095
39
0.0
210
0.0
220
0.0
230
1.0
0
LINE
5
35
330
22
100
AcDbEntity
8
0
62
256
6
ByLayer
370
-1
48
1.0
60
0
100
AcDbLine
10
2880.88146326918
20
475.632954420478
30
-0.0000000000009095
11
2880.88146326918
21
679.872612853498
31
-0.0000000000009095
39
0.0
210
0.0
220
0.0
230
1.0
0
LINE
5
36
330
22
100
AcDbEntity
8
0
62
256
6
ByLayer
370
-1
48
1.0
60
0
100
AcDbLine
10
2880.88146326918
20
1231.443295988
30
-0.0000000000009095
11
2880.88146326918
21
1435.68295442102
31
-0.0000000000009095
39
0.0
210
0.0
220
0.0
230
1.0
0
LINE
5
37
330
22
100
AcDbEntity
8
0
62
256
6
ByLayer
370
-1
48
1.0
60
0
100
AcDbLine
10
2945.88146326918
20
475.632954420478
30
-0.0000000000009095
11
2945.88146326918
21
679.872612853498
31
-0.0000000000009095
39
0.0
210
0.0
220
0.0
230
1.0
0
LINE
5
38
330
22
100
AcDbEntity
8
0
62
256
6
ByLayer
370
-1
48
1.0
60
0
100
AcDbLine
10
2945.88146326918
20
1231.443295988
30
-0.0000000000009095
11
2945.88146326918
21
1435.68295442102
31
-0.0000000000009095
39
0.0
210
0.0
220
0.0
230
1.0
0
LINE
5
39
330
22
100
AcDbEntity
8
CENTER
62
256
6
ByLayer
370
-1
48
2.0
60
0
100
AcDbLine
10
-0.0000257248902926
20
955.657954420742
30
-0.0000000000009095
11
3351.14615968583
21
955.657954420742
31
-0.0000000000009095
39
0.0
210
0.0
220
0.0
230
1.0
0
LINE
5
3B
330
22
100
AcDbEntity
8
CENTER
62
256
6
ByLayer
370
-1
48
2.0
60
0
100
AcDbLine
10
728.244266330643
20
0.0000124897778733
30
-0.0000000000009095
11
728.244266330643
21
1873.09793084423
31
-0.0000000000009095
39
0.0
210
0.0
220
0.0
230
1.0
0
ARC
5
3C
330
22
100
AcDbEntity
8
0
62
256
6
ByLayer
370
-1
48
1.0
60
0
100
AcDbCircle
39
0.0
10
1171.24526633062
20
438.132954420471
30
-0.0000000000009095
40
11.0
210
0.0
220
0.0
230
1.0
100
AcDbArc
50
245.84655174367
51
114.15344825633
0
CIRCLE
5
3D
330
22
100
AcDbEntity
8
0
62
256
6
ByLayer
370
-1
48
1.0
60
0
100
AcDbCircle
10
2918.38146326602
20
438.1329544205
30
-0.0000000000009095
40
11.0
39
0.0
210
0.0
220
0.0
230
1.0
0
CIRCLE
5
3E
330
22
100
AcDbEntity
8
0
62
256
6
ByLayer
370
-1
48
1.0
60
0
100
AcDbCircle
10
1902.24526633062
20
438.132954420471
30
-0.0000000000009095
40
11.0
39
0.0
210
0.0
220
0.0
230
1.0
0
CIRCLE
5
3F
330
22
100
AcDbEntity
8
0
62
256
6
ByLayer
370
-1
48
1.0
60
0
100
AcDbCircle
10
1171.24526633062
20
1473.18295442101
30
-0.0000000000009095
40
11.0
39
0.0
210
0.0
220
0.0
230
1.0
0
CIRCLE
5
40
330
22
100
AcDbEntity
8
0
62
256
6
ByLayer
370
-1
48
1.0
60
0
100
AcDbCircle
10
2918.38146326602
20
1473.182954421
30
-0.0000000000009095
40
11.0
39
0.0
210
0.0
220
0.0
230
1.0
0
CIRCLE
5
41
330
22
100
AcDbEntity
8
0
62
256
6
ByLayer
370
-1
48
1.0
60
0
100
AcDbCircle
10
1902.24526633062
20
1473.18295442101
30
-0.0000000000009095
40
11.0
39
0.0
210
0.0
220
0.0
230
1.0
0
LINE
5
42
330
22
100
AcDbEntity
8
AM_0
62
256
6
ByLayer
370
-1
48
1.0
60
0
100
AcDbLine
10
175.24726633064
20
290.632954420478
30
-0.0000000000009095
11
175.24726633064
21
410.632954420471
31
-0.0000000000009095
39
0.0
210
0.0
220
0.0
230
1.0
0
LINE
5
45
330
22
100
AcDbEntity
8
AM_0
62
256
6
ByLayer
370
-1
48
1.0
60
0
100
AcDbLine
10
339.933584478014
20
290.632954420478
30
-0.0000000000009095
11
175.24726633064
21
290.632954420478
31
-0.0000000000009095
39
0.0
210
0.0
220
0.0
230
1.0
0
ARC
5
46
330
22
100
AcDbEntity
8
AM_0
62
256
6
ByLayer
370
-1
48
1.0
60
0
100
AcDbCircle
39
0.0
10
282.24726633064
20
350.632954420485
30
-0.0000000000009095
40
7.5
210
0.0
220
0.0
230
1.0
100
AcDbArc
50
53.158744875613
51
306.841255124387
0
LINE
5
47
330
22
100
AcDbEntity
8
AM_0
62
256
6
ByLayer
370
-1
48
1.0
60
0
100
AcDbLine
10
1278.24126633063
20
410.632954420471
30
-0.0000000000009095
11
1278.24126633063
21
290.632954420493
31
-0.0000000000009095
39
0.0
210
0.0
220
0.0
230
1.0
0
LINE
5
48
330
22
100
AcDbEntity
8
AM_0
62
256
6
ByLayer
370
-1
48
1.0
60
0
100
AcDbLine
10
1278.24126633063
20
290.632954420493
30
-0.0000000000009095
11
1116.5549481833
21
290.632954420485
31
-0.0000000000009095
39
0.0
210
0.0
220
0.0
230
1.0
0
ARC
5
49
330
22
100
AcDbEntity
8
AM_0
62
256
6
ByLayer
370
-1
48
1.0
60
0
100
AcDbCircle
39
0.0
10
1171.24126633063
20
350.632954420493
30
-0.0000000000009095
40
7.5
210
0.0
220
0.0
230
1.0
100
AcDbArc
50
233.158744875363
51
126.841255124637
0
LINE
5
4A
330
22
100
AcDbEntity
8
AM_0
62
256
6
ByLayer
370
-1
48
1.0
60
0
100
AcDbLine
10
1937.81136479827
20
290.632954420464
30
-0.0000000000009095
11
1937.81136479828
21
410.632954420471
31
-0.0000000000009095
39
0.0
210
0.0
220
0.0
230
1.0
0
LINE
5
4B
330
22
100
AcDbEntity
8
AM_0
62
256
6
ByLayer
370
-1
48
1.0
60
0
100
AcDbLine
10
2151.81136479827
20
410.632954420471
30
-0.0000000000009095
11
2151.81136479827
21
290.632954420471
31
-0.0000000000009095
39
0.0
210
0.0
220
0.0
230
1.0
0
LINE
5
4C
330
22
100
AcDbEntity
8
AM_0
62
256
6
ByLayer
370
-1
48
1.0
60
0
100
AcDbLine
10
2151.81136479827
20
290.632954420471
30
-0.0000000000009095
11
1937.81136479827
21
290.632954420464
31
-0.0000000000009095
39
0.0
210
0.0
220
0.0
230
1.0
0
CIRCLE
5
4D
330
22
100
AcDbEntity
8
AM_0
62
256
6
ByLayer
370
-1
48
1.0
60
0
100
AcDbCircle
10
2044.81136479827
20
350.632954420471
30
-0.0000000000009095
40
7.5
39
0.0
210
0.0
220
0.0
230
1.0
0
LINE
5
4E
330
22
100
AcDbEntity
8
AM_0
62
256
6
ByLayer
370
-1
48
1.0
60
0
100
AcDbLine
10
2811.38146326598
20
290.632954420478
30
-0.0000000000009095
11
2811.38146326599
21
410.632954420471
31
-0.0000000000009095
39
0.0
210
0.0
220
0.0
230
1.0
0
LINE
5
4F
330
22
100
AcDbEntity
8
AM_0
62
256
6
ByLayer
370
-1
48
1.0
60
0
100
AcDbLine
10
3025.38146326599
20
410.632954420471
30
-0.0000000000009095
11
3025.38146326598
21
290.632954420485
31
-0.0000000000009095
39
0.0
210
0.0
220
0.0
230
1.0
0
LINE
5
50
330
22
100
AcDbEntity
8
AM_0
62
256
6
ByLayer
370
-1
48
1.0
60
0
100
AcDbLine
10
3025.38146326598
20
290.632954420485
30
-0.0000000000009095
11
2811.38146326598
21
290.632954420478
31
-0.0000000000009095
39
0.0
210
0.0
220
0.0
230
1.0
0
CIRCLE
5
51
330
22
100
AcDbEntity
8
AM_0
62
256
6
ByLayer
370
-1
48
1.0
60
0
100
AcDbCircle
10
2918.38146326598
20
350.632954420485
30
-0.0000000000009095
40
7.5
39
0.0
210
0.0
220
0.0
230
1.0
0
LINE
5
52
330
22
100
AcDbEntity
8
AM_0
62
256
6
ByLayer
370
-1
48
1.0
60
0
100
AcDbLine
10
175.24726633064
20
1620.68295442105
30
-0.0000000000009095
11
175.24726633064
21
1500.682954421
31
-0.0000000000009095
39
0.0
210
0.0
220
0.0
230
1.0
0
LINE
5
53
330
22
100
AcDbEntity
8
AM_0
62
256
6
ByLayer
370
-1
48
1.0
60
0
100
AcDbLine
10
336.744266330643
20
1620.68295442104
30
-0.0000000000009095
11
175.24726633064
21
1620.68295442105
31
-0.0000000000009095
39
0.0
210
0.0
220
0.0
230
1.0
0
CIRCLE
5
54
330
22
100
AcDbEntity
8
AM_0
62
256
6
ByLayer
370
-1
48
1.0
60
0
100
AcDbCircle
10
282.24726633064
20
1560.68295442104
30
-0.0000000000009095
40
7.5
39
0.0
210
0.0
220
0.0
230
1.0
0
LINE
5
55
330
22
100
AcDbEntity
8
AM_0
62
256
6
ByLayer
370
-1
48
1.0
60
0
100
AcDbLine
10
1278.24126633063
20
1500.682954421
30
-0.0000000000009095
11
1278.24126633063
21
1620.68295442103
31
-0.0000000000009095
39
0.0
210
0.0
220
0.0
230
1.0
0
LINE
5
56
330
22
100
AcDbEntity
8
AM_0
62
256
6
ByLayer
370
-1
48
1.0
60
0
100
AcDbLine
10
1278.24126633063
20
1620.68295442103
30
-0.0000000000009095
11
1116.74426633064
21
1620.68295442104
31
-0.0000000000009095
39
0.0
210
0.0
220
0.0
230
1.0
0
CIRCLE
5
57
330
22
100
AcDbEntity
8
AM_0
62
256
6
ByLayer
370
-1
48
1.0
60
0
100
AcDbCircle
10
1171.24126633063
20
1560.68295442103
30
-0.0000000000009095
40
7.5
39
0.0
210
0.0
220
0.0
230
1.0
0
LINE
5
58
330
22
100
AcDbEntity
8
AM_0
62
256
6
ByLayer
370
-1
48
1.0
60
0
100
AcDbLine
10
1937.81136479827
20
1620.68295442105
30
-0.0000000000009095
11
1937.81136479828
21
1500.682954421
31
-0.0000000000009095
39
0.0
210
0.0
220
0.0
230
1.0
0
LINE
5
59
330
22
100
AcDbEntity
8
AM_0
62
256
6
ByLayer
370
-1
48
1.0
60
0
100
AcDbLine
10
2151.81136479827
20
1500.682954421
30
-0.0000000000009095
11
2151.81136479827
21
1620.68295442104
31
-0.0000000000009095
39
0.0
210
0.0
220
0.0
230
1.0
0
LINE
5
5A
330
22
100
AcDbEntity
8
AM_0
62
256
6
ByLayer
370
-1
48
1.0
60
0
100
AcDbLine
10
2151.81136479827
20
1620.68295442104
30
-0.0000000000009095
11
1937.81136479827
21
1620.68295442105
31
-0.0000000000009095
39
0.0
210
0.0
220
0.0
230
1.0
0
CIRCLE
5
5B
330
22
100
AcDbEntity
8
AM_0
62
256
6
ByLayer
370
-1
48
1.0
60
0
100
AcDbCircle
10
2044.81136479827
20
1560.68295442104
30
-0.0000000000009095
40
7.5
39
0.0
210
0.0
220
0.0
230
1.0
0
LINE
5
5C
330
22
100
AcDbEntity
8
AM_0
62
256
6
ByLayer
370
-1
48
1.0
60
0
100
AcDbLine
10
2811.38146326598
20
1620.68295442105
30
-0.0000000000009095
11
2811.38146326601
21
1500.68295442101
31
-0.0000000000009095
39
0.0
210
0.0
220
0.0
230
1.0
0
LINE
5
5D
330
22
100
AcDbEntity
8
AM_0
62
256
6
ByLayer
370
-1
48
1.0
60
0
100
AcDbLine
10
3025.38146326598
20
1500.68295442101
30
-0.0000000000009095
11
3025.38146326598
21
1620.68295442104
31
-0.0000000000009095
39
0.0
210
0.0
220
0.0
230
1.0
0
LINE
5
5E
330
22
100
AcDbEntity
8
AM_0
62
256
6
ByLayer
370
-1
48
1.0
60
0
100
AcDbLine
10
3025.38146326598
20
1620.68295442104
30
-0.0000000000009095
11
2811.38146326598
21
1620.68295442105
31
-0.0000000000009095
39
0.0
210
0.0
220
0.0
230
1.0
0
CIRCLE
5
5F
330
22
100
AcDbEntity
8
AM_0
62
256
6
ByLayer
370
-1
48
1.0
60
0
100
AcDbCircle
10
2918.38146326598
20
1560.68295442104
30
-0.0000000000009095
40
7.5
39
0.0
210
0.0
220
0.0
230
1.0
0
LINE
5
60
330
22
100
AcDbEntity
8
\U+7C97\U+5B9E\U+7EBF
62
256
6
ByLayer
370
-1
48
10.0
60
0
100
AcDbLine
10
209.345266330711
20
1494.64594821269
30
0.0
11
339.933584478014
21
1494.64594821269
31
0.0
39
0.0
210
0.0
220
0.0
230
1.0
0
LINE
5
63
330
22
100
AcDbEntity
8
\U+7C97\U+5B9E\U+7EBF
62
256
6
ByLayer
370
-1
48
10.0
60
0
100
AcDbLine
10
209.345266330725
20
416.669960628809
30
0.0
11
339.933584478014
21
416.669960628788
31
0.0
39
0.0
210
0.0
220
0.0
230
1.0
0
LWPOLYLINE
5
64
330
22
100
AcDbEntity
8
\U+53CC\U+70B9\U+753B\U+7EBF
62
256
6
ByLayer
370
-1
48
50.0
60
0
100
AcDbPolyline
90
4
70
1
38
0.0
39
0.0
10
1167.18121637365
20
1170.45277835751
40
0.0
41
0.0
42
0.0
10
1864.64749356826
20
1170.45277835751
40
0.0
41
0.0
42
0.0
10
1864.64749356826
20
788.823262398742
40
0.0
41
0.0
42
0.0
10
1167.18121637365
20
788.823262398742
40
0.0
41
0.0
42
0.0
210
0.0
220
0.0
230
1.0
0
LWPOLYLINE
5
67
330
22
100
AcDbEntity
8
\U+53CC\U+70B9\U+753B\U+7EBF
62
256
6
ByLayer
370
-1
48
50.0
60
0
100
AcDbPolyline
90
4
70
1
38
0.0
39
0.0
10
1875.81335350354
20
1216.36452081746
40
0.0
41
0.0
42
0.0
10
2119.06817402624
20
1216.36452081746
40
0.0
41
0.0
42
0.0
10
2119.06817402624
20
719.60547480212
40
0.0
41
0.0
42
0.0
10
1875.81335350354
20
719.60547480212
40
0.0
41
0.0
42
0.0
210
0.0
220
0.0
230
1.0
0
LINE
5
68
330
22
100
AcDbEntity
8
0
62
3
6
ByLayer
370
-1
48
1.0
60
0
100
AcDbLine
10
2760.9124607632
20
679.872612853498
30
-0.0000000000009095
11
3074.99188963819
21
679.872612853498
31
0.0
39
0.0
210
0.0
220
0.0
230
1.0
1001
AcDbBlockRepETag
1070
1
1071
0
1005
7C4F
0
LINE
5
6A
330
22
100
AcDbEntity
8
0
62
3
6
ByLayer
370
-1
48
1.0
60
0
100
AcDbLine
10
2760.9124607632
20
1231.44329598799
30
-0.0000000000009095
11
3074.99188963819
21
1231.44329598799
31
0.0
39
0.0
210
0.0
220
0.0
230
1.0
1001
AcDbBlockRepETag
1070
1
1071
1
1005
7C50
0
LINE
5
6B
330
22
100
AcDbEntity
8
0
62
2
6
CENTER
370
-1
48
1.0
60
0
100
AcDbLine
10
1885.5048096667
20
955.657954420742
30
-0.0000000000009095
11
3007.19358535478
21
955.657954420742
31
-0.0000000000009095
39
0.0
210
0.0
220
0.0
230
1.0
1001
AcDbBlockRepETag
1070
1
1071
2
1005
7C51
0
LINE
5
6D
330
22
100
AcDbEntity
8
0
62
3
6
ByLayer
370
-1
48
1.0
60
0
100
AcDbLine
10
2757.4124607632
20
1231.44329598799
30
-0.0000000000009095
11
2757.4124607632
21
955.657954420749
31
-0.0000000000009095
39
0.0
210
0.0
220
0.0
230
1.0
1001
AcDbBlockRepETag
1070
1
1071
5
1005
7C52
0
LINE
5
6E
330
22
100
AcDbEntity
8
0
62
3
6
ByLayer
370
-1
48
1.0
60
0
100
AcDbLine
10
2757.4124607632
20
955.657954420749
30
-0.0000000000009095
11
2757.4124607632
21
1227.94329598799
31
-0.0000000000009095
39
0.0
210
0.0
220
0.0
230
1.0
1001
AcDbBlockRepETag
1070
1
1071
6
1005
7C53
0
LINE
5
6F
330
22
100
AcDbEntity
8
0
62
3
6
ByLayer
370
-1
48
1.0
60
0
100
AcDbLine
10
2186.29426314891
20
955.657954420749
30
-0.0000000000009095
11
2186.29426314891
21
1235.09005004213
31
-0.0000000000009095
39
0.0
210
0.0
220
0.0
230
1.0
1001
AcDbBlockRepETag
1070
1
1071
10
1005
7C54
0
LINE
5
70
330
22
100
AcDbEntity
8
0
62
2
6
ByLayer
370
-1
48
1.0
60
0
100
AcDbLine
10
2195.63777462745
20
1221.14761441728
30
-0.0000000000009095
11
2151.99301928669
21
1221.14761441728
31
-0.0000000000009095
39
0.0
210
0.0
220
0.0
230
1.0
1001
AcDbBlockRepETag
1070
1
1071
35
1005
7C55
0
LINE
5
71
330
22
100
AcDbEntity
8
0
62
3
6
ByLayer
370
-1
48
1.0
60
0
100
AcDbLine
10
2186.29426314891
20
1201.51417585233
30
-0.0000000000009095
11
2147.11339618779
21
1201.51417585233
31
-0.0000000000009095
39
0.0
210
0.0
220
0.0
230
1.0
1001
AcDbBlockRepETag
1070
1
1071
36
1005
7C56
0
LINE
5
72
330
22
100
AcDbEntity
8
0
62
3
6
ByLayer
370
-1
48
1.0
60
0
100
AcDbLine
10
2129.61339618779
20
1184.01417585233
30
-0.0000000000009095
11
2129.61339618779
21
955.657954420749
31
-0.0000000000009095
39
0.0
210
0.0
220
0.0
230
1.0
1001
AcDbBlockRepETag
1070
1
1071
39
1005
7C57
0
LINE
5
73
330
22
100
AcDbEntity
8
0
62
3
6
ByLayer
370
-1
48
1.0
60
0
100
AcDbLine
10
1981.13358447807
20
993.157954420742
30
-0.0000000000009095
11
1981.13358447807
21
918.157954420742
31
-0.0000000000009095
39
0.0
210
0.0
220
0.0
230
1.0
1001
AcDbBlockRepETag
1070
1
1071
40
1005
7C58
0
LINE
5
74
330
22
100
AcDbEntity
8
0
62
3
6
ByLayer
370
-1
48
1.0
60
0
100
AcDbLine
10
2119.38358447807
20
993.157954420742
30
-0.0000000000009095
11
2119.38358447807
21
955.657954420749
31
-0.0000000000009095
39
0.0
210
0.0
220
0.0
230
1.0
1001
AcDbBlockRepETag
1070
1
1071
41
1005
7C59
0
LINE
5
75
330
22
100
AcDbEntity
8
0
62
3
6
ByLayer
370
-1
48
1.0
60
0
100
AcDbLine
10
1981.13358447807
20
918.157954420742
30
-0.0000000000009095
11
2119.38358447807
21
918.157954420742
31
-0.0000000000009095
39
0.0
210
0.0
220
0.0
230
1.0
1001
AcDbBlockRepETag
1070
1
1071
42
1005
7C5A
0
LINE
5
76
330
22
100
AcDbEntity
8
0
62
3
6
ByLayer
370
-1
48
1.0
60
0
100
AcDbLine
10
1979.38358447807
20
919.907954420742
30
-0.0000000000009095
11
1981.13358447807
21
918.157954420742
31
-0.0000000000009095
39
0.0
210
0.0
220
0.0
230
1.0
1001
AcDbBlockRepETag
1070
1
1071
43
1005
7C5B
0
LINE
5
77
330
22
100
AcDbEntity
8
0
62
3
6
ByLayer
370
-1
48
1.0
60
0
100
AcDbLine
10
1981.13358447807
20
993.157954420742
30
-0.0000000000009095
11
2119.38358447807
21
993.157954420742
31
-0.0000000000009095
39
0.0
210
0.0
220
0.0
230
1.0
1001
AcDbBlockRepETag
1070
1
1071
45
1005
7C5C
0
LINE
5
78
330
22
100
AcDbEntity
8
0
62
3
6
ByLayer
370
-1
48
1.0
60
0
100
AcDbLine
10
2108.83738139
20
998.763893814677
30
-0.0000000000009095
11
1979.38358447807
21
998.763893814677
31
-0.0000000000009095
39
0.0
210
0.0
220
0.0
230
1.0
1001
AcDbBlockRepETag
1070
1
1071
46
1005
7C5D
0
LINE
5
79
330
22
100
AcDbEntity
8
0
62
3
6
ByLayer
370
-1
48
1.0
60
0
100
AcDbLine
10
1981.13358447807
20
993.157954420742
30
-0.0000000000009095
11
1979.38358447807
21
991.407954420742
31
-0.0000000000009095
39
0.0
210
0.0
220
0.0
230
1.0
1001
AcDbBlockRepETag
1070
1
1071
47
1005
7C5E
0
LINE
5
7A
330
22
100
AcDbEntity
8
0
62
3
6
ByLayer
370
-1
48
1.0
60
0
100
AcDbLine
10
2119.38358447807
20
993.157954420742
30
-0.0000000000009095
11
2129.61339618779
21
1003.38776613047
31
-0.0000000000009095
39
0.0
210
0.0
220
0.0
230
1.0
1001
AcDbBlockRepETag
1070
1
1071
48
1005
7C5F
0
LINE
5
7B
330
22
100
AcDbEntity
8
0
62
3
6
ByLayer
370
-1
48
1.0
60
0
100
AcDbLine
10
2108.83738139
20
998.763893814677
30
-0.0000000000009095
11
2108.83738139
21
993.157954420742
31
-0.0000000000009095
39
0.0
210
0.0
220
0.0
230
1.0
1001
AcDbBlockRepETag
1070
1
1071
49
1005
7C60
0
ARC
5
7C
330
22
100
AcDbEntity
8
0
62
3
6
ByLayer
370
-1
48
1.0
60
0
100
AcDbCircle
39
0.0
10
2147.11339618779
20
1184.01417585233
30
-0.0000000000009095
40
17.5
210
0.0
220
0.0
230
1.0
100
AcDbArc
50
90.0
51
180.0
1001
AcDbBlockRepETag
1070
1
1071
50
1005
7C61
0
LWPOLYLINE
5
7D
330
22
100
AcDbEntity
8
0
62
3
6
ByLayer
370
-1
48
1.0
60
0
100
AcDbPolyline
90
3
70
0
38
0.0
39
0.0
10
2493.38146326595
20
1083.83813382524
40
0.0
41
0.0
42
0.0
10
2716.16331932941
20
1083.83813382524
40
0.0
41
0.0
42
0.0
10
2751.07061273382
20
1054.26388461489
40
0.0
41
0.0
42
0.0
210
0.0
220
0.0
230
1.0
1001
AcDbBlockRepETag
1070
1
1071
51
1005
7C62
0
LWPOLYLINE
5
7E
330
22
100
AcDbEntity
8
0
62
3
6
ByLayer
370
-1
48
1.0
60
0
100
AcDbPolyline
90
4
70
0
38
0.0
39
0.0
10
2203.91303910133
20
1078.8549393876
40
0.0
41
0.0
42
0.0
10
2219.84897832983
20
1105.39593168811
40
0.0
41
0.0
42
0.0
10
2716.16331932941
20
1105.39593168811
40
0.0
41
0.0
42
0.0
10
2751.07061273382
20
1075.82168247776
40
0.0
41
0.0
42
0.0
210
0.0
220
0.0
230
1.0
1001
AcDbBlockRepETag
1070
1
1071
52
1005
7C63
0
LWPOLYLINE
5
7F
330
22
100
AcDbEntity
8
0
62
3
6
ByLayer
370
-1
48
1.0
60
0
100
AcDbPolyline
90
3
70
0
38
0.0
39
0.0
10
2203.91303910133
20
1057.29714152473
40
0.0
41
0.0
42
0.0
10
2219.84897832983
20
1083.83813382524
40
0.0
41
0.0
42
0.0
10
2493.38146326595
20
1083.83813382524
40
0.0
41
0.0
42
0.0
210
0.0
220
0.0
230
1.0
1001
AcDbBlockRepETag
1070
1
1071
53
1005
7C64
0
LINE
5
80
330
22
100
AcDbEntity
8
0
62
3
6
ByLayer
370
-1
48
1.0
60
0
100
AcDbLine
10
2182.79426314891
20
955.657954420742
30
-0.0000000000009095
11
2182.79426314891
21
1201.51417585233
31
-0.0000000000009095
39
0.0
210
0.0
220
0.0
230
1.0
1001
AcDbBlockRepETag
1070
1
1071
54
1005
7C65
0
LINE
5
81
330
22
100
AcDbEntity
8
0
62
3
6
ByLayer
370
-1
48
1.0
60
0
100
AcDbLine
10
2191.26937984553
20
1233.86472442147
30
-0.0000000000009095
11
2191.26937984553
21
955.657954420742
31
-0.0000000000009095
39
0.0
210
0.0
220
0.0
230
1.0
1001
AcDbBlockRepETag
1070
1
1071
55
1005
7C66
0
LWPOLYLINE
5
82
330
22
100
AcDbEntity
8
0
62
3
6
ByLayer
370
-1
48
1.0
60
0
100
AcDbPolyline
90
3
70
0
38
0.0
39
0.0
10
2203.91303910133
20
1036.9369983125
40
0.0
41
0.0
42
0.0
10
2219.84897832983
20
1063.47799061301
40
0.0
41
0.0
42
0.0
10
2493.38146326595
20
1063.47799061301
40
0.0
41
0.0
42
0.0
210
0.0
220
0.0
230
1.0
1001
AcDbBlockRepETag
1070
1
1071
89
1005
7C67
0
LWPOLYLINE
5
83
330
22
100
AcDbEntity
8
0
62
3
6
ByLayer
370
-1
48
1.0
60
0
100
AcDbPolyline
90
3
70
0
38
0.0
39
0.0
10
2203.91303910133
20
1001.00733615116
40
0.0
41
0.0
42
0.0
10
2219.84897832983
20
1027.54832845167
40
0.0
41
0.0
42
0.0
10
2493.38146326595
20
1027.54832845167
40
0.0
41
0.0
42
0.0
210
0.0
220
0.0
230
1.0
1001
AcDbBlockRepETag
1070
1
1071
90
1005
7C68
0
LWPOLYLINE
5
84
330
22
100
AcDbEntity
8
0
62
3
6
ByLayer
370
-1
48
1.0
60
0
100
AcDbPolyline
90
3
70
0
38
0.0
39
0.0
10
2203.91303910133
20
1020.16982471276
40
0.0
41
0.0
42
0.0
10
2219.84897832983
20
1046.71081701327
40
0.0
41
0.0
42
0.0
10
2493.38146326595
20
1046.71081701327
40
0.0
41
0.0
42
0.0
210
0.0
220
0.0
230
1.0
1001
AcDbBlockRepETag
1070
1
1071
91
1005
7C69
0
LWPOLYLINE
5
85
330
22
100
AcDbEntity
8
0
62
3
6
ByLayer
370
-1
48
1.0
60
0
100
AcDbPolyline
90
3
70
0
38
0.0
39
0.0
10
2203.91303910133
20
974.658916855471
40
0.0
41
0.0
42
0.0
10
2219.84897832983
20
1001.19990915598
40
0.0
41
0.0
42
0.0
10
2493.38146326595
20
1001.19990915598
40
0.0
41
0.0
42
0.0
210
0.0
220
0.0
230
1.0
1001
AcDbBlockRepETag
1070
1
1071
92
1005
7C6A
0
LWPOLYLINE
5
86
330
22
100
AcDbEntity
8
0
62
3
6
ByLayer
370
-1
48
1.0
60
0
100
AcDbPolyline
90
3
70
0
38
0.0
39
0.0
10
2203.91303910133
20
948.310500390071
40
0.0
41
0.0
42
0.0
10
2219.84897832983
20
974.851492690585
40
0.0
41
0.0
42
0.0
10
2493.38146326595
20
974.851492690585
40
0.0
41
0.0
42
0.0
210
0.0
220
0.0
230
1.0
1001
AcDbBlockRepETag
1070
1
1071
93
1005
7C6B
0
LWPOLYLINE
5
87
330
22
100
AcDbEntity
8
0
62
3
6
ByLayer
370
-1
48
1.0
60
0
100
AcDbPolyline
90
3
70
0
38
0.0
39
0.0
10
2493.38146326595
20
1063.47799061301
40
0.0
41
0.0
42
0.0
10
2716.16331932941
20
1063.47799061301
40
0.0
41
0.0
42
0.0
10
2751.07061273382
20
1033.90374140266
40
0.0
41
0.0
42
0.0
210
0.0
220
0.0
230
1.0
1001
AcDbBlockRepETag
1070
1
1071
106
1005
7C6C
0
LWPOLYLINE
5
88
330
22
100
AcDbEntity
8
0
62
3
6
ByLayer
370
-1
48
1.0
60
0
100
AcDbPolyline
90
3
70
0
38
0.0
39
0.0
10
2493.38146326595
20
1027.54832845167
40
0.0
41
0.0
42
0.0
10
2716.16331932941
20
1027.54832845167
40
0.0
41
0.0
42
0.0
10
2751.07061273382
20
997.974079241321
40
0.0
41
0.0
42
0.0
210
0.0
220
0.0
230
1.0
1001
AcDbBlockRepETag
1070
1
1071
107
1005
7C6D
0
LWPOLYLINE
5
89
330
22
100
AcDbEntity
8
0
62
3
6
ByLayer
370
-1
48
1.0
60
0
100
AcDbPolyline
90
3
70
0
38
0.0
39
0.0
10
2493.38146326595
20
1046.71081701327
40
0.0
41
0.0
42
0.0
10
2716.16331932941
20
1046.71081701327
40
0.0
41
0.0
42
0.0
10
2751.07061273382
20
1017.13656780292
40
0.0
41
0.0
42
0.0
210
0.0
220
0.0
230
1.0
1001
AcDbBlockRepETag
1070
1
1071
108
1005
7C6E
0
LWPOLYLINE
5
8A
330
22
100
AcDbEntity
8
0
62
3
6
ByLayer
370
-1
48
1.0
60
0
100
AcDbPolyline
90
3
70
0
38
0.0
39
0.0
10
2493.38146326595
20
1001.19990915598
40
0.0
41
0.0
42
0.0
10
2716.16331932941
20
1001.19990915598
40
0.0
41
0.0
42
0.0
10
2751.07061273382
20
971.625659945632
40
0.0
41
0.0
42
0.0
210
0.0
220
0.0
230
1.0
1001
AcDbBlockRepETag
1070
1
1071
109
1005
7C6F
0
LWPOLYLINE
5
8B
330
22
100
AcDbEntity
8
0
62
3
6
ByLayer
370
-1
48
1.0
60
0
100
AcDbPolyline
90
3
70
0
38
0.0
39
0.0
10
2493.38146326595
20
974.851492690585
40
0.0
41
0.0
42
0.0
10
2716.16331932941
20
974.851492690585
40
0.0
41
0.0
42
0.0
10
2751.07061273382
20
945.277243480232
40
0.0
41
0.0
42
0.0
210
0.0
220
0.0
230
1.0
1001
AcDbBlockRepETag
1070
1
1071
110
1005
7C70
0
LWPOLYLINE
5
8C
330
22
100
AcDbEntity
8
0
62
3
6
ByLayer
370
-1
48
1.0
60
0
100
AcDbPolyline
90
4
70
0
38
0.0
39
0.0
10
2203.91303910133
20
1098.0174251189
40
0.0
41
0.0
42
0.0
10
2219.84897832983
20
1124.55841741941
40
0.0
41
0.0
42
0.0
10
2716.16331932941
20
1124.55841741941
40
0.0
41
0.0
42
0.0
10
2751.07061273382
20
1094.98416820906
40
0.0
41
0.0
42
0.0
210
0.0
220
0.0
230
1.0
1001
AcDbBlockRepETag
1070
1
1071
112
1005
7C71
0
LWPOLYLINE
5
8D
330
22
100
AcDbEntity
8
0
62
3
6
ByLayer
370
-1
48
1.0
60
0
100
AcDbPolyline
90
4
70
0
38
0.0
39
0.0
10
2203.91303910133
20
1119.57522298176
40
0.0
41
0.0
42
0.0
10
2219.84897832983
20
1146.11621528227
40
0.0
41
0.0
42
0.0
10
2716.16331932941
20
1146.11621528227
40
0.0
41
0.0
42
0.0
10
2751.07061273382
20
1116.54196607192
40
0.0
41
0.0
42
0.0
210
0.0
220
0.0
230
1.0
1001
AcDbBlockRepETag
1070
1
1071
113
1005
7C72
0
LWPOLYLINE
5
8E
330
22
100
AcDbEntity
8
0
62
3
6
ByLayer
370
-1
48
1.0
60
0
100
AcDbPolyline
90
4
70
0
38
0.0
39
0.0
10
2203.91303910133
20
1142.33067549526
40
0.0
41
0.0
42
0.0
10
2219.84897832983
20
1168.87166779577
40
0.0
41
0.0
42
0.0
10
2716.16331932941
20
1168.87166779577
40
0.0
41
0.0
42
0.0
10
2751.07061273382
20
1139.29741858542
40
0.0
41
0.0
42
0.0
210
0.0
220
0.0
230
1.0
1001
AcDbBlockRepETag
1070
1
1071
114
1005
7C73
0
LWPOLYLINE
5
8F
330
22
100
AcDbEntity
8
0
62
3
6
ByLayer
370
-1
48
1.0
60
0
100
AcDbPolyline
90
4
70
0
38
0.0
39
0.0
10
2203.91303910133
20
1163.88847335812
40
0.0
41
0.0
42
0.0
10
2219.84897832983
20
1190.42946565864
40
0.0
41
0.0
42
0.0
10
2716.16331932941
20
1190.42946565864
40
0.0
41
0.0
42
0.0
10
2751.07061273382
20
1160.85521644828
40
0.0
41
0.0
42
0.0
210
0.0
220
0.0
230
1.0
1001
AcDbBlockRepETag
1070
1
1071
115
1005
7C74
0
LWPOLYLINE
5
90
330
22
100
AcDbEntity
8
0
62
3
6
ByLayer
370
-1
48
1.0
60
0
100
AcDbPolyline
90
4
70
0
38
0.0
39
0.0
10
2203.91303910133
20
1179.45799230723
40
0.0
41
0.0
42
0.0
10
2219.84897832983
20
1205.99898460774
40
0.0
41
0.0
42
0.0
10
2716.16331932941
20
1205.99898460774
40
0.0
41
0.0
42
0.0
10
2751.07061273382
20
1176.42473539739
40
0.0
41
0.0
42
0.0
210
0.0
220
0.0
230
1.0
1001
AcDbBlockRepETag
1070
1
1071
116
1005
7C75
0
LWPOLYLINE
5
91
330
22
100
AcDbEntity
8
0
62
3
6
ByLayer
370
-1
48
1.0
60
0
100
AcDbPolyline
90
4
70
0
38
0.0
39
0.0
10
2203.91303910133
20
1192.63220195508
40
0.0
41
0.0
42
0.0
10
2219.84897832983
20
1219.17319425559
40
0.0
41
0.0
42
0.0
10
2716.16331932941
20
1219.17319425559
40
0.0
41
0.0
42
0.0
10
2751.07061273382
20
1189.59894504524
40
0.0
41
0.0
42
0.0
210
0.0
220
0.0
230
1.0
1001
AcDbBlockRepETag
1070
1
1071
117
1005
7C76
0
LWPOLYLINE
5
92
330
22
100
AcDbEntity
8
0
62
3
6
ByLayer
370
-1
48
1.0
60
0
100
AcDbPolyline
90
4
70
0
38
0.0
39
0.0
10
2203.91303910133
20
1203.41109947136
40
0.0
41
0.0
42
0.0
10
2219.84897832983
20
1229.95209177188
40
0.0
41
0.0
42
0.0
10
2716.16331932941
20
1229.95209177188
40
0.0
41
0.0
42
0.0
10
2751.07061273382
20
1200.37784256152
40
0.0
41
0.0
42
0.0
210
0.0
220
0.0
230
1.0
1001
AcDbBlockRepETag
1070
1
1071
118
1005
7C77
0
LINE
5
93
330
22
100
AcDbEntity
8
0
62
3
6
ByLayer
370
-1
48
1.0
60
0
100
AcDbLine
10
2716.63746326594
20
1235.65795442074
30
-0.0000000000009095
11
2191.26937984553
21
1235.65795442074
31
-0.0000000000009095
39
0.0
210
0.0
220
0.0
230
1.0
1001
AcDbBlockRepETag
1070
1
1071
119
1005
7C78
0
ARC
5
94
330
22
100
AcDbEntity
8
0
62
3
6
ByLayer
370
-1
48
1.0
60
0
100
AcDbCircle
39
0.0
10
2182.79426314891
20
1235.09005004213
30
-0.0000000000009095
40
3.5
210
0.0
220
0.0
230
1.0
100
AcDbArc
50
0.0
51
90.0
1001
AcDbBlockRepETag
1070
1
1071
120
1005
7C79
0
ARC
5
95
330
22
100
AcDbEntity
8
0
62
3
6
ByLayer
370
-1
48
1.0
60
0
100
AcDbCircle
39
0.0
10
2173.04874431102
20
1235.09005004213
30
-0.0000000000009095
40
3.5
210
0.0
220
0.0
230
1.0
100
AcDbArc
50
90.0
51
180.0
1001
AcDbBlockRepETag
1070
1
1071
121
1005
7C7A
0
LINE
5
96
330
22
100
AcDbEntity
8
0
62
3
6
ByLayer
370
-1
48
1.0
60
0
100
AcDbLine
10
2170.32562172088
20
1213.38857546542
30
-0.0000000000009095
11
2186.29426314891
21
1213.38857546542
31
-0.0000000000009095
39
0.0
210
0.0
220
0.0
230
1.0
1001
AcDbBlockRepETag
1070
1
1071
122
1005
7C7B
0
LINE
5
97
330
22
100
AcDbEntity
8
0
62
3
6
ByLayer
370
-1
48
1.0
60
0
100
AcDbLine
10
2170.43759189728
20
1228.90665336913
30
-0.0000000000009095
11
2186.29426314891
21
1228.90665336913
31
-0.0000000000009095
39
0.0
210
0.0
220
0.0
230
1.0
1001
AcDbBlockRepETag
1070
1
1071
123
1005
7C7C
0
ARC
5
98
330
22
100
AcDbEntity
8
0
62
3
6
ByLayer
370
-1
48
1.0
60
0
100
AcDbCircle
39
0.0
10
2182.79426314891
20
1207.20517879242
30
-0.0000000000009095
40
3.5
210
0.0
220
0.0
230
1.0
100
AcDbArc
50
270.0
51
0.0
1001
AcDbBlockRepETag
1070
1
1071
124
1005
7C7D
0
LINE
5
99
330
22
100
AcDbEntity
8
0
62
3
6
ByLayer
370
-1
48
1.0
60
0
100
AcDbLine
10
2161.21518938623
20
1228.48392705226
30
-0.0000000000009095
11
2161.21518938623
21
1213.81130178229
31
-0.0000000000009095
39
0.0
210
0.0
220
0.0
230
1.0
1001
AcDbBlockRepETag
1070
1
1071
125
1005
7C7E
0
LINE
5
9A
330
22
100
AcDbEntity
8
0
62
3
6
ByLayer
370
-1
48
1.0
60
0
100
AcDbLine
10
2169.54874431102
20
1235.09005004213
30
-0.0000000000009095
11
2169.54874431102
21
1221.14761441728
31
-0.0000000000009095
39
0.0
210
0.0
220
0.0
230
1.0
1001
AcDbBlockRepETag
1070
1
1071
126
1005
7C7F
0
LINE
5
9B
330
22
100
AcDbEntity
8
0
62
3
6
ByLayer
370
-1
48
1.0
60
0
100
AcDbLine
10
2169.54874431102
20
1207.20517879242
30
-0.0000000000009095
11
2169.54874431102
21
1221.14761441728
31
-0.0000000000009095
39
0.0
210
0.0
220
0.0
230
1.0
1001
AcDbBlockRepETag
1070
1
1071
127
1005
7C80
0
LINE
5
9C
330
22
100
AcDbEntity
8
0
62
3
6
ByLayer
370
-1
48
1.0
60
0
100
AcDbLine
10
2173.04874431102
20
1238.59005004213
30
-0.0000000000009095
11
2182.79426314891
21
1238.59005004213
31
-0.0000000000009095
39
0.0
210
0.0
220
0.0
230
1.0
1001
AcDbBlockRepETag
1070
1
1071
128
1005
7C81
0
LINE
5
9D
330
22
100
AcDbEntity
8
0
62
3
6
ByLayer
370
-1
48
1.0
60
0
100
AcDbLine
10
2173.04874431102
20
1203.70517879242
30
-0.0000000000009095
11
2182.79426314891
21
1203.70517879242
31
-0.0000000000009095
39
0.0
210
0.0
220
0.0
230
1.0
1001
AcDbBlockRepETag
1070
1
1071
129
1005
7C82
0
LINE
5
9E
330
22
100
AcDbEntity
8
0
62
3
6
ByLayer
370
-1
48
1.0
60
0
100
AcDbLine
10
2162.96518938623
20
1230.23392705226
30
-0.0000000000009095
11
2161.21518938623
21
1228.48392705226
31
-0.0000000000009095
39
0.0
210
0.0
220
0.0
230
1.0
1001
AcDbBlockRepETag
1070
1
1071
130
1005
7C83
0
LINE
5
9F
330
22
100
AcDbEntity
8
0
62
3
6
ByLayer
370
-1
48
1.0
60
0
100
AcDbLine
10
2161.21518938623
20
1213.81130178229
30
-0.0000000000009095
11
2162.96518938623
21
1212.06130178229
31
-0.0000000000009095
39
0.0
210
0.0
220
0.0
230
1.0
1001
AcDbBlockRepETag
1070
1
1071
131
1005
7C84
0
LINE
5
A0
330
22
100
AcDbEntity
8
0
62
3
6
ByLayer
370
-1
48
1.0
60
0
100
AcDbLine
10
2162.96518938623
20
1212.06130178229
30
-0.0000000000009095
11
2162.96518938623
21
1230.23392705226
31
-0.0000000000009095
39
0.0
210
0.0
220
0.0
230
1.0
1001
AcDbBlockRepETag
1070
1
1071
132
1005
7C85
0
LINE
5
A1
330
22
100
AcDbEntity
8
0
62
3
6
ByLayer
370
-1
48
1.0
60
0
100
AcDbLine
10
2169.54874431102
20
1230.23392705226
30
-0.0000000000009095
11
2162.96518938623
21
1230.23392705226
31
-0.0000000000009095
39
0.0
210
0.0
220
0.0
230
1.0
1001
AcDbBlockRepETag
1070
1
1071
133
1005
7C86
0
LINE
5
A2
330
22
100
AcDbEntity
8
0
62
3
6
ByLayer
370
-1
48
1.0
60
0
100
AcDbLine
10
2169.54874431102
20
1212.06130178229
30
-0.0000000000009095
11
2162.96518938623
21
1212.06130178229
31
-0.0000000000009095
39
0.0
210
0.0
220
0.0
230
1.0
1001
AcDbBlockRepETag
1070
1
1071
134
1005
7C87
0
ARC
5
A3
330
22
100
AcDbEntity
8
0
62
3
6
ByLayer
370
-1
48
1.0
60
0
100
AcDbCircle
39
0.0
10
2173.04874431102
20
1207.20517879242
30
-0.0000000000009095
40
3.5
210
0.0
220
0.0
230
1.0
100
AcDbArc
50
180.0
51
270.0
1001
AcDbBlockRepETag
1070
1
1071
135
1005
7C88
0
ARC
5
A4
330
22
100
AcDbEntity
8
0
62
3
6
ByLayer
370
-1
48
1.0
60
0
100
AcDbCircle
39
0.0
10
2180.2919819371
20
1208.99590780882
30
-0.0000000000009095
40
10.8914583550923
210
0.0
220
0.0
230
1.0
100
AcDbArc
50
156.214540589751
51
170.536694925238
1001
AcDbBlockRepETag
1070
1
1071
136
1005
7C89
0
ARC
5
A5
330
22
100
AcDbEntity
8
0
62
3
6
ByLayer
370
-1
48
1.0
60
0
100
AcDbCircle
39
0.0
10
2206.10908882673
20
1220.88982395583
30
-0.0000000000009095
40
36.5612533569401
210
0.0
220
0.0
230
1.0
100
AcDbArc
50
167.285242137523
51
191.839412659973
1001
AcDbBlockRepETag
1070
1
1071
137
1005
7C8A
0
ARC
5
A6
330
22
100
AcDbEntity
8
0
62
3
6
ByLayer
370
-1
48
1.0
60
0
100
AcDbCircle
39
0.0
10
2179.70983620983
20
1233.42730799494
30
-0.0000000000009095
40
10.2962371617866
210
0.0
220
0.0
230
1.0
100
AcDbArc
50
189.293407001087
51
205.856890429894
1001
AcDbBlockRepETag
1070
1
1071
138
1005
7C8B
0
LINE
5
A7
330
22
100
AcDbEntity
8
0
62
3
6
ByLayer
370
-1
48
1.0
60
0
100
AcDbLine
10
2186.29426314891
20
1233.86472442147
30
-0.0000000000009095
11
2191.26937984553
21
1233.86472442147
31
-0.0000000000009095
39
0.0
210
0.0
220
0.0
230
1.0
1001
AcDbBlockRepETag
1070
1
1071
139
1005
7C8C
0
LINE
5
A8
330
22
100
AcDbEntity
8
0
62
3
6
ByLayer
370
-1
48
1.0
60
0
100
AcDbLine
10
2191.26937984553
20
1233.86472442147
30
-0.0000000000009095
11
2191.26937984553
21
1235.65795442074
31
-0.0000000000009095
39
0.0
210
0.0
220
0.0
230
1.0
1001
AcDbBlockRepETag
1070
1
1071
140
1005
7C8D
0
LINE
5
A9
330
22
100
AcDbEntity
8
0
62
3
6
ByLayer
370
-1
48
1.0
60
0
100
AcDbLine
10
2716.63746326594
20
1235.65795442074
30
-0.0000000000009095
11
2757.4124607632
21
1207.71777937982
31
-0.0000000000009095
39
0.0
210
0.0
220
0.0
230
1.0
1001
AcDbBlockRepETag
1070
1
1071
141
1005
7C8E
0
ARC
5
AA
330
22
100
AcDbEntity
8
0
62
3
6
ByLayer
370
-1
48
1.0
60
0
100
AcDbCircle
39
0.0
10
2760.9124607632
20
1227.94329598799
30
-0.0000000000009095
40
3.5
210
0.0
220
0.0
230
1.0
100
AcDbArc
50
90.0
51
180.0
1001
AcDbBlockRepETag
1070
1
1071
142
1005
7C8F
0
LINE
5
AB
330
22
100
AcDbEntity
8
0
62
3
6
ByLayer
370
-1
48
1.0
60
0
100
AcDbLine
10
3007.19358535478
20
955.657954420742
30
-0.0000000000009095
11
3007.19358535478
21
737.40577209217
31
-0.0000000000009095
39
0.0
210
0.0
220
0.0
230
1.0
1001
AcDbBlockRepETag
1070
1
1071
143
1005
7C90
0
ARC
5
AC
330
22
100
AcDbEntity
8
0
62
3
6
ByLayer
370
-1
48
1.0
60
0
100
AcDbCircle
39
0.0
10
2964.80189051489
20
700.872612853498
30
-0.0000000000009095
40
21.0
210
0.0
220
0.0
230
1.0
100
AcDbArc
50
270.0
51
0.0
1001
AcDbBlockRepETag
1070
1
1071
144
1005
7C91
0
ARC
5
AD
330
22
100
AcDbEntity
8
0
62
3
6
ByLayer
370
-1
48
1.0
60
0
100
AcDbCircle
39
0.0
10
2996.69358535478
20
737.40577209217
30
-0.0000000000009095
40
10.5
210
0.0
220
0.0
230
1.0
100
AcDbArc
50
270.0
51
0.0
1001
AcDbBlockRepETag
1070
1
1071
145
1005
7C92
0
ARC
5
AE
330
22
100
AcDbEntity
8
0
62
3
6
ByLayer
370
-1
48
1.0
60
0
100
AcDbCircle
39
0.0
10
2996.30189051489
20
716.40577209217
30
-0.0000000000009095
40
10.5
210
0.0
220
0.0
230
1.0
100
AcDbArc
50
90.0
51
180.0
1001
AcDbBlockRepETag
1070
1
1071
146
1005
7C93
0
LINE
5
AF
330
22
100
AcDbEntity
8
0
62
3
6
ByLayer
370
-1
48
1.0
60
0
100
AcDbLine
10
2996.69358535478
20
726.90577209217
30
-0.0000000000009095
11
2996.30189051489
21
726.90577209217
31
-0.0000000000009095
39
0.0
210
0.0
220
0.0
230
1.0
1001
AcDbBlockRepETag
1070
1
1071
147
1005
7C94
0
LINE
5
B0
330
22
100
AcDbEntity
8
0
62
3
6
ByLayer
370
-1
48
1.0
60
0
100
AcDbLine
10
2985.80189051489
20
700.872612853498
30
-0.0000000000009095
11
2985.80189051489
21
716.40577209217
31
-0.0000000000009095
39
0.0
210
0.0
220
0.0
230
1.0
1001
AcDbBlockRepETag
1070
1
1071
148
1005
7C95
0
LINE
5
B1
330
22
100
AcDbEntity
8
0
62
3
6
ByLayer
370
-1
48
1.0
60
0
100
AcDbLine
10
3007.19358535478
20
955.657954420742
30
-0.0000000000009095
11
3007.19358535478
21
1173.91013674931
31
-0.0000000000009095
39
0.0
210
0.0
220
0.0
230
1.0
1001
AcDbBlockRepETag
1070
1
1071
149
1005
7C96
0
LINE
5
B2
330
22
100
AcDbEntity
8
0
62
3
6
ByLayer
370
-1
48
1.0
60
0
100
AcDbLine
10
3117.38358447807
20
955.657954420742
30
0.0
11
3117.38358447807
21
1173.91013674931
31
0.0
39
0.0
210
0.0
220
0.0
230
1.0
1001
AcDbBlockRepETag
1070
1
1071
205
1005
7C97
0
ARC
5
B3
330
22
100
AcDbEntity
8
0
62
3
6
ByLayer
370
-1
48
1.0
60
0
100
AcDbCircle
39
0.0
10
2996.69358535478
20
1173.91013674931
30
-0.0000000000009095
40
10.5
210
0.0
220
0.0
230
1.0
100
AcDbArc
50
0.0
51
90.0
1001
AcDbBlockRepETag
1070
1
1071
150
1005
7C98
0
LINE
5
B4
330
22
100
AcDbEntity
8
0
62
3
6
ByLayer
370
-1
48
1.0
60
0
100
AcDbLine
10
2985.80189051489
20
1210.44329598799
30
-0.0000000000009095
11
2985.80189051489
21
1194.91013674931
31
-0.0000000000009095
39
0.0
210
0.0
220
0.0
230
1.0
1001
AcDbBlockRepETag
1070
1
1071
151
1005
7C99
0
ARC
5
B5
330
22
100
AcDbEntity
8
0
62
3
6
ByLayer
370
-1
48
1.0
60
0
100
AcDbCircle
39
0.0
10
2996.30189051489
20
1194.91013674931
30
-0.0000000000009095
40
10.5
210
0.0
220
0.0
230
1.0
100
AcDbArc
50
180.0
51
270.0
1001
AcDbBlockRepETag
1070
1
1071
152
1005
7C9A
0
LINE
5
B6
330
22
100
AcDbEntity
8
0
62
3
6
ByLayer
370
-1
48
1.0
60
0
100
AcDbLine
10
2996.69358535478
20
1184.41013674931
30
-0.0000000000009095
11
2996.30189051489
21
1184.41013674931
31
-0.0000000000009095
39
0.0
210
0.0
220
0.0
230
1.0
1001
AcDbBlockRepETag
1070
1
1071
153
1005
7C9B
0
ARC
5
B7
330
22
100
AcDbEntity
8
0
62
3
6
ByLayer
370
-1
48
1.0
60
0
100
AcDbCircle
39
0.0
10
2964.80189051489
20
1210.44329598799
30
-0.0000000000009095
40
21.0
210
0.0
220
0.0
230
1.0
100
AcDbArc
50
0.0
51
90.0
1001
AcDbBlockRepETag
1070
1
1071
154
1005
7C9C
0
LINE
5
B8
330
22
100
AcDbEntity
8
0
62
3
6
ByLayer
370
-1
48
1.0
60
0
100
AcDbLine
10
1979.38358447807
20
998.763893814677
30
-0.0000000000009095
11
1979.38358447807
21
919.907954420742
31
-0.0000000000009095
39
0.0
210
0.0
220
0.0
230
1.0
1001
AcDbBlockRepETag
1070
1
1071
159
1005
7C9D
0
LINE
5
B9
330
22
100
AcDbEntity
8
0
62
3
6
ByLayer
370
-1
48
1.0
60
0
100
AcDbLine
10
3117.38358447807
20
955.657954420742
30
0.0
11
3117.38358447807
21
737.40577209217
31
0.0
39
0.0
210
0.0
220
0.0
230
1.0
1001
AcDbBlockRepETag
1070
1
1071
206
1005
7C9E
0
ARC
5
BA
330
22
100
AcDbEntity
8
0
62
3
6
ByLayer
370
-1
48
1.0
60
0
100
AcDbCircle
39
0.0
10
3074.99188963819
20
700.872612853498
30
0.0
40
21.0
210
0.0
220
0.0
230
1.0
100
AcDbArc
50
270.0
51
0.0
1001
AcDbBlockRepETag
1070
1
1071
207
1005
7C9F
0
ARC
5
BB
330
22
100
AcDbEntity
8
0
62
3
6
ByLayer
370
-1
48
1.0
60
0
100
AcDbCircle
39
0.0
10
3106.88358447807
20
737.40577209217
30
0.0
40
10.5
210
0.0
220
0.0
230
1.0
100
AcDbArc
50
270.0
51
0.0
1001
AcDbBlockRepETag
1070
1
1071
208
1005
7CA0
0
ARC
5
BC
330
22
100
AcDbEntity
8
0
62
3
6
ByLayer
370
-1
48
1.0
60
0
100
AcDbCircle
39
0.0
10
3106.49188963819
20
716.40577209217
30
0.0
40
10.5
210
0.0
220
0.0
230
1.0
100
AcDbArc
50
90.0
51
180.0
1001
AcDbBlockRepETag
1070
1
1071
209
1005
7CA1
0
LINE
5
BD
330
22
100
AcDbEntity
8
0
62
3
6
ByLayer
370
-1
48
1.0
60
0
100
AcDbLine
10
3106.88358447807
20
726.90577209217
30
0.0
11
3106.49188963819
21
726.90577209217
31
0.0
39
0.0
210
0.0
220
0.0
230
1.0
1001
AcDbBlockRepETag
1070
1
1071
210
1005
7CA2
0
LINE
5
BE
330
22
100
AcDbEntity
8
0
62
3
6
ByLayer
370
-1
48
1.0
60
0
100
AcDbLine
10
3095.99188963819
20
700.872612853498
30
0.0
11
3095.99188963819
21
716.40577209217
31
0.0
39
0.0
210
0.0
220
0.0
230
1.0
1001
AcDbBlockRepETag
1070
1
1071
211
1005
7CA3
0
ARC
5
BF
330
22
100
AcDbEntity
8
0
62
3
6
ByLayer
370
-1
48
1.0
60
0
100
AcDbCircle
39
0.0
10
3106.88358447807
20
1173.91013674931
30
0.0
40
10.5
210
0.0
220
0.0
230
1.0
100
AcDbArc
50
0.0
51
90.0
1001
AcDbBlockRepETag
1070
1
1071
212
1005
7CA4
0
LINE
5
C0
330
22
100
AcDbEntity
8
0
62
3
6
ByLayer
370
-1
48
1.0
60
0
100
AcDbLine
10
3095.99188963819
20
1210.44329598799
30
0.0
11
3095.99188963819
21
1194.91013674931
31
0.0
39
0.0
210
0.0
220
0.0
230
1.0
1001
AcDbBlockRepETag
1070
1
1071
213
1005
7CA5
0
ARC
5
C1
330
22
100
AcDbEntity
8
0
62
3
6
ByLayer
370
-1
48
1.0
60
0
100
AcDbCircle
39
0.0
10
3106.49188963819
20
1194.91013674931
30
0.0
40
10.5
210
0.0
220
0.0
230
1.0
100
AcDbArc
50
180.0
51
270.0
1001
AcDbBlockRepETag
1070
1
1071
214
1005
7CA6
0
LINE
5
C2
330
22
100
AcDbEntity
8
0
62
3
6
ByLayer
370
-1
48
1.0
60
0
100
AcDbLine
10
3106.88358447807
20
1184.41013674931
30
0.0
11
3106.49188963819
21
1184.41013674931
31
0.0
39
0.0
210
0.0
220
0.0
230
1.0
1001
AcDbBlockRepETag
1070
1
1071
215
1005
7CA7
0
ARC
5
C3
330
22
100
AcDbEntity
8
0
62
3
6
ByLayer
370
-1
48
1.0
60
0
100
AcDbCircle
39
0.0
10
3074.99188963819
20
1210.44329598799
30
0.0
40
21.0
210
0.0
220
0.0
230
1.0
100
AcDbArc
50
0.0
51
90.0
1001
AcDbBlockRepETag
1070
1
1071
216
1005
7CA8
0
LINE
5
C4
330
22
100
AcDbEntity
8
0
62
3
6
ByLayer
370
-1
48
1.0
60
0
100
AcDbLine
10
2757.4124607632
20
679.872612853498
30
-0.0000000000009095
11
2757.4124607632
21
955.657954420734
31
-0.0000000000009095
39
0.0
210
0.0
220
0.0
230
1.0
1001
AcDbBlockRepETag
1070
1
1071
5
1005
7C52
0
LINE
5
C5
330
22
100
AcDbEntity
8
0
62
3
6
ByLayer
370
-1
48
1.0
60
0
100
AcDbLine
10
2757.4124607632
20
955.657954420734
30
-0.0000000000009095
11
2757.4124607632
21
683.372612853498
31
-0.0000000000009095
39
0.0
210
0.0
220
0.0
230
1.0
1001
AcDbBlockRepETag
1070
1
1071
6
1005
7C53
0
LINE
5
C6
330
22
100
AcDbEntity
8
0
62
3
6
ByLayer
370
-1
48
1.0
60
0
100
AcDbLine
10
2186.29426314891
20
955.657954420734
30
-0.0000000000009095
11
2186.29426314891
21
676.225858799349
31
-0.0000000000009095
39
0.0
210
0.0
220
0.0
230
1.0
1001
AcDbBlockRepETag
1070
1
1071
10
1005
7C54
0
LINE
5
C7
330
22
100
AcDbEntity
8
0
62
2
6
ByLayer
370
-1
48
1.0
60
0
100
AcDbLine
10
2195.63777462745
20
690.168294424206
30
-0.0000000000009095
11
2151.99301928669
21
690.168294424206
31
-0.0000000000009095
39
0.0
210
0.0
220
0.0
230
1.0
1001
AcDbBlockRepETag
1070
1
1071
35
1005
7C55
0
LINE
5
C8
330
22
100
AcDbEntity
8
0
62
3
6
ByLayer
370
-1
48
1.0
60
0
100
AcDbLine
10
2186.29426314891
20
709.801732989152
30
-0.0000000000009095
11
2147.11339618779
21
709.801732989152
31
-0.0000000000009095
39
0.0
210
0.0
220
0.0
230
1.0
1001
AcDbBlockRepETag
1070
1
1071
36
1005
7C56
0
LINE
5
C9
330
22
100
AcDbEntity
8
0
62
3
6
ByLayer
370
-1
48
1.0
60
0
100
AcDbLine
10
2129.61339618779
20
727.301732989152
30
-0.0000000000009095
11
2129.61339618779
21
955.657954420734
31
-0.0000000000009095
39
0.0
210
0.0
220
0.0
230
1.0
1001
AcDbBlockRepETag
1070
1
1071
39
1005
7C57
0
LINE
5
CA
330
22
100
AcDbEntity
8
0
62
3
6
ByLayer
370
-1
48
1.0
60
0
100
AcDbLine
10
2119.38358447807
20
918.157954420742
30
-0.0000000000009095
11
2119.38358447807
21
955.657954420734
31
-0.0000000000009095
39
0.0
210
0.0
220
0.0
230
1.0
1001
AcDbBlockRepETag
1070
1
1071
41
1005
7C59
0
LINE
5
CB
330
22
100
AcDbEntity
8
0
62
3
6
ByLayer
370
-1
48
1.0
60
0
100
AcDbLine
10
2119.38358447807
20
918.157954420742
30
-0.0000000000009095
11
2129.61339618779
21
907.928142711018
31
-0.0000000000009095
39
0.0
210
0.0
220
0.0
230
1.0
1001
AcDbBlockRepETag
1070
1
1071
48
1005
7C5F
0
ARC
5
CC
330
22
100
AcDbEntity
8
0
62
3
6
ByLayer
370
-1
48
1.0
60
0
100
AcDbCircle
39
0.0
10
2147.11339618779
20
727.301732989152
30
-0.0000000000009095
40
17.5
210
0.0
220
0.0
230
1.0
100
AcDbArc
50
180.0
51
270.0
1001
AcDbBlockRepETag
1070
1
1071
50
1005
7C61
0
LWPOLYLINE
5
CD
330
22
100
AcDbEntity
8
0
62
3
6
ByLayer
370
-1
48
1.0
60
0
100
AcDbPolyline
90
3
70
0
38
0.0
39
0.0
10
2493.38146326595
20
827.477775016239
40
0.0
41
0.0
42
0.0
10
2716.16331932941
20
827.477775016239
40
0.0
41
0.0
42
0.0
10
2751.07061273382
20
857.052024226592
40
0.0
41
0.0
42
0.0
210
0.0
220
0.0
230
1.0
1001
AcDbBlockRepETag
1070
1
1071
51
1005
7C62
0
LWPOLYLINE
5
CE
330
22
100
AcDbEntity
8
0
62
3
6
ByLayer
370
-1
48
1.0
60
0
100
AcDbPolyline
90
4
70
0
38
0.0
39
0.0
10
2203.91303910133
20
832.460969453889
40
0.0
41
0.0
42
0.0
10
2219.84897832983
20
805.919977153375
40
0.0
41
0.0
42
0.0
10
2716.16331932941
20
805.919977153375
40
0.0
41
0.0
42
0.0
10
2751.07061273382
20
835.494226363728
40
0.0
41
0.0
42
0.0
210
0.0
220
0.0
230
1.0
1001
AcDbBlockRepETag
1070
1
1071
52
1005
7C63
0
LWPOLYLINE
5
CF
330
22
100
AcDbEntity
8
0
62
3
6
ByLayer
370
-1
48
1.0
60
0
100
AcDbPolyline
90
3
70
0
38
0.0
39
0.0
10
2203.91303910133
20
854.018767316753
40
0.0
41
0.0
42
0.0
10
2219.84897832983
20
827.477775016239
40
0.0
41
0.0
42
0.0
10
2493.38146326595
20
827.477775016239
40
0.0
41
0.0
42
0.0
210
0.0
220
0.0
230
1.0
1001
AcDbBlockRepETag
1070
1
1071
53
1005
7C64
0
LINE
5
D0
330
22
100
AcDbEntity
8
0
62
3
6
ByLayer
370
-1
48
1.0
60
0
100
AcDbLine
10
2182.79426314891
20
955.657954420742
30
-0.0000000000009095
11
2182.79426314891
21
709.801732989152
31
-0.0000000000009095
39
0.0
210
0.0
220
0.0
230
1.0
1001
AcDbBlockRepETag
1070
1
1071
54
1005
7C65
0
LINE
5
D1
330
22
100
AcDbEntity
8
0
62
3
6
ByLayer
370
-1
48
1.0
60
0
100
AcDbLine
10
2191.26937984553
20
677.45118442001
30
-0.0000000000009095
11
2191.26937984553
21
955.657954420742
31
-0.0000000000009095
39
0.0
210
0.0
220
0.0
230
1.0
1001
AcDbBlockRepETag
1070
1
1071
55
1005
7C66
0
LWPOLYLINE
5
D2
330
22
100
AcDbEntity
8
0
62
3
6
ByLayer
370
-1
48
1.0
60
0
100
AcDbPolyline
90
3
70
0
38
0.0
39
0.0
10
2203.91303910133
20
874.378910528983
40
0.0
41
0.0
42
0.0
10
2219.84897832983
20
847.83791822847
40
0.0
41
0.0
42
0.0
10
2493.38146326595
20
847.83791822847
40
0.0
41
0.0
42
0.0
210
0.0
220
0.0
230
1.0
1001
AcDbBlockRepETag
1070
1
1071
89
1005
7C67
0
LWPOLYLINE
5
D3
330
22
100
AcDbEntity
8
0
62
3
6
ByLayer
370
-1
48
1.0
60
0
100
AcDbPolyline
90
3
70
0
38
0.0
39
0.0
10
2203.91303910133
20
910.308572690323
40
0.0
41
0.0
42
0.0
10
2219.84897832983
20
883.767580389809
40
0.0
41
0.0
42
0.0
10
2493.38146326595
20
883.767580389809
40
0.0
41
0.0
42
0.0
210
0.0
220
0.0
230
1.0
1001
AcDbBlockRepETag
1070
1
1071
90
1005
7C68
0
LWPOLYLINE
5
D4
330
22
100
AcDbEntity
8
0
62
3
6
ByLayer
370
-1
48
1.0
60
0
100
AcDbPolyline
90
3
70
0
38
0.0
39
0.0
10
2203.91303910133
20
891.146084128726
40
0.0
41
0.0
42
0.0
10
2219.84897832983
20
864.605091828213
40
0.0
41
0.0
42
0.0
10
2493.38146326595
20
864.605091828213
40
0.0
41
0.0
42
0.0
210
0.0
220
0.0
230
1.0
1001
AcDbBlockRepETag
1070
1
1071
91
1005
7C69
0
LWPOLYLINE
5
D5
330
22
100
AcDbEntity
8
0
62
3
6
ByLayer
370
-1
48
1.0
60
0
100
AcDbPolyline
90
3
70
0
38
0.0
39
0.0
10
2203.91303910133
20
936.656991986012
40
0.0
41
0.0
42
0.0
10
2219.84897832983
20
910.115999685499
40
0.0
41
0.0
42
0.0
10
2493.38146326595
20
910.115999685499
40
0.0
41
0.0
42
0.0
210
0.0
220
0.0
230
1.0
1001
AcDbBlockRepETag
1070
1
1071
92
1005
7C6A
0
LWPOLYLINE
5
D6
330
22
100
AcDbEntity
8
0
62
3
6
ByLayer
370
-1
48
1.0
60
0
100
AcDbPolyline
90
3
70
0
38
0.0
39
0.0
10
2203.91303910133
20
963.005408451412
40
0.0
41
0.0
42
0.0
10
2219.84897832983
20
936.464416150899
40
0.0
41
0.0
42
0.0
10
2493.38146326595
20
936.464416150899
40
0.0
41
0.0
42
0.0
210
0.0
220
0.0
230
1.0
1001
AcDbBlockRepETag
1070
1
1071
93
1005
7C6B
0
LWPOLYLINE
5
D7
330
22
100
AcDbEntity
8
0
62
3
6
ByLayer
370
-1
48
1.0
60
0
100
AcDbPolyline
90
3
70
0
38
0.0
39
0.0
10
2493.38146326595
20
847.83791822847
40
0.0
41
0.0
42
0.0
10
2716.16331932941
20
847.83791822847
40
0.0
41
0.0
42
0.0
10
2751.07061273382
20
877.412167438822
40
0.0
41
0.0
42
0.0
210
0.0
220
0.0
230
1.0
1001
AcDbBlockRepETag
1070
1
1071
106
1005
7C6C
0
LWPOLYLINE
5
D8
330
22
100
AcDbEntity
8
0
62
3
6
ByLayer
370
-1
48
1.0
60
0
100
AcDbPolyline
90
3
70
0
38
0.0
39
0.0
10
2493.38146326595
20
883.767580389809
40
0.0
41
0.0
42
0.0
10
2716.16331932941
20
883.767580389809
40
0.0
41
0.0
42
0.0
10
2751.07061273382
20
913.341829600162
40
0.0
41
0.0
42
0.0
210
0.0
220
0.0
230
1.0
1001
AcDbBlockRepETag
1070
1
1071
107
1005
7C6D
0
LWPOLYLINE
5
D9
330
22
100
AcDbEntity
8
0
62
3
6
ByLayer
370
-1
48
1.0
60
0
100
AcDbPolyline
90
3
70
0
38
0.0
39
0.0
10
2493.38146326595
20
864.605091828213
40
0.0
41
0.0
42
0.0
10
2716.16331932941
20
864.605091828213
40
0.0
41
0.0
42
0.0
10
2751.07061273382
20
894.179341038565
40
0.0
41
0.0
42
0.0
210
0.0
220
0.0
230
1.0
1001
AcDbBlockRepETag
1070
1
1071
108
1005
7C6E
0
LWPOLYLINE
5
DA
330
22
100
AcDbEntity
8
0
62
3
6
ByLayer
370
-1
48
1.0
60
0
100
AcDbPolyline
90
3
70
0
38
0.0
39
0.0
10
2493.38146326595
20
910.115999685499
40
0.0
41
0.0
42
0.0
10
2716.16331932941
20
910.115999685499
40
0.0
41
0.0
42
0.0
10
2751.07061273382
20
939.690248895851
40
0.0
41
0.0
42
0.0
210
0.0
220
0.0
230
1.0
1001
AcDbBlockRepETag
1070
1
1071
109
1005
7C6F
0
LWPOLYLINE
5
DB
330
22
100
AcDbEntity
8
0
62
3
6
ByLayer
370
-1
48
1.0
60
0
100
AcDbPolyline
90
3
70
0
38
0.0
39
0.0
10
2493.38146326595
20
936.464416150899
40
0.0
41
0.0
42
0.0
10
2716.16331932941
20
936.464416150899
40
0.0
41
0.0
42
0.0
10
2751.07061273382
20
966.038665361251
40
0.0
41
0.0
42
0.0
210
0.0
220
0.0
230
1.0
1001
AcDbBlockRepETag
1070
1
1071
110
1005
7C70
0
LWPOLYLINE
5
DC
330
22
100
AcDbEntity
8
0
62
3
6
ByLayer
370
-1
48
1.0
60
0
100
AcDbPolyline
90
4
70
0
38
0.0
39
0.0
10
2203.91303910133
20
813.298483722581
40
0.0
41
0.0
42
0.0
10
2219.84897832983
20
786.757491422075
40
0.0
41
0.0
42
0.0
10
2716.16331932941
20
786.757491422075
40
0.0
41
0.0
42
0.0
10
2751.07061273382
20
816.33174063242
40
0.0
41
0.0
42
0.0
210
0.0
220
0.0
230
1.0
1001
AcDbBlockRepETag
1070
1
1071
112
1005
7C71
0
LWPOLYLINE
5
DD
330
22
100
AcDbEntity
8
0
62
3
6
ByLayer
370
-1
48
1.0
60
0
100
AcDbPolyline
90
4
70
0
38
0.0
39
0.0
10
2203.91303910133
20
791.740685859724
40
0.0
41
0.0
42
0.0
10
2219.84897832983
20
765.19969355921
40
0.0
41
0.0
42
0.0
10
2716.16331932941
20
765.19969355921
40
0.0
41
0.0
42
0.0
10
2751.07061273382
20
794.773942769563
40
0.0
41
0.0
42
0.0
210
0.0
220
0.0
230
1.0
1001
AcDbBlockRepETag
1070
1
1071
113
1005
7C72
0
LWPOLYLINE
5
DE
330
22
100
AcDbEntity
8
0
62
3
6
ByLayer
370
-1
48
1.0
60
0
100
AcDbPolyline
90
4
70
0
38
0.0
39
0.0
10
2203.91303910133
20
768.985233346226
40
0.0
41
0.0
42
0.0
10
2219.84897832983
20
742.444241045712
40
0.0
41
0.0
42
0.0
10
2716.16331932941
20
742.444241045712
40
0.0
41
0.0
42
0.0
10
2751.07061273382
20
772.018490256065
40
0.0
41
0.0
42
0.0
210
0.0
220
0.0
230
1.0
1001
AcDbBlockRepETag
1070
1
1071
114
1005
7C73
0
LWPOLYLINE
5
DF
330
22
100
AcDbEntity
8
0
62
3
6
ByLayer
370
-1
48
1.0
60
0
100
AcDbPolyline
90
4
70
0
38
0.0
39
0.0
10
2203.91303910133
20
747.427435483361
40
0.0
41
0.0
42
0.0
10
2219.84897832983
20
720.886443182848
40
0.0
41
0.0
42
0.0
10
2716.16331932941
20
720.886443182848
40
0.0
41
0.0
42
0.0
10
2751.07061273382
20
750.460692393201
40
0.0
41
0.0
42
0.0
210
0.0
220
0.0
230
1.0
1001
AcDbBlockRepETag
1070
1
1071
115
1005
7C74
0
LWPOLYLINE
5
E0
330
22
100
AcDbEntity
8
0
62
3
6
ByLayer
370
-1
48
1.0
60
0
100
AcDbPolyline
90
4
70
0
38
0.0
39
0.0
10
2203.91303910133
20
731.857916534253
40
0.0
41
0.0
42
0.0
10
2219.84897832983
20
705.316924233739
40
0.0
41
0.0
42
0.0
10
2716.16331932941
20
705.316924233739
40
0.0
41
0.0
42
0.0
10
2751.07061273382
20
734.891173444092
40
0.0
41
0.0
42
0.0
210
0.0
220
0.0
230
1.0
1001
AcDbBlockRepETag
1070
1
1071
116
1005
7C75
0
LWPOLYLINE
5
E1
330
22
100
AcDbEntity
8
0
62
3
6
ByLayer
370
-1
48
1.0
60
0
100
AcDbPolyline
90
4
70
0
38
0.0
39
0.0
10
2203.91303910133
20
718.683706886404
40
0.0
41
0.0
42
0.0
10
2219.84897832983
20
692.142714585891
40
0.0
41
0.0
42
0.0
10
2716.16331932941
20
692.142714585891
40
0.0
41
0.0
42
0.0
10
2751.07061273382
20
721.716963796243
40
0.0
41
0.0
42
0.0
210
0.0
220
0.0
230
1.0
1001
AcDbBlockRepETag
1070
1
1071
117
1005
7C76
0
LWPOLYLINE
5
E2
330
22
100
AcDbEntity
8
0
62
3
6
ByLayer
370
-1
48
1.0
60
0
100
AcDbPolyline
90
4
70
0
38
0.0
39
0.0
10
2203.91303910133
20
707.90480937012
40
0.0
41
0.0
42
0.0
10
2219.84897832983
20
681.363817069607
40
0.0
41
0.0
42
0.0
10
2716.16331932941
20
681.363817069607
40
0.0
41
0.0
42
0.0
10
2751.07061273382
20
710.938066279959
40
0.0
41
0.0
42
0.0
210
0.0
220
0.0
230
1.0
1001
AcDbBlockRepETag
1070
1
1071
118
1005
7C77
0
LINE
5
E3
330
22
100
AcDbEntity
8
0
62
3
6
ByLayer
370
-1
48
1.0
60
0
100
AcDbLine
10
2716.63746326594
20
675.657954420742
30
-0.0000000000009095
11
2191.26937984553
21
675.657954420742
31
-0.0000000000009095
39
0.0
210
0.0
220
0.0
230
1.0
1001
AcDbBlockRepETag
1070
1
1071
119
1005
7C78
0
ARC
5
E4
330
22
100
AcDbEntity
8
0
62
3
6
ByLayer
370
-1
48
1.0
60
0
100
AcDbCircle
39
0.0
10
2182.79426314891
20
676.225858799349
30
-0.0000000000009095
40
3.5
210
0.0
220
0.0
230
1.0
100
AcDbArc
50
270.0
51
0.0
1001
AcDbBlockRepETag
1070
1
1071
120
1005
7C79
0
ARC
5
E5
330
22
100
AcDbEntity
8
0
62
3
6
ByLayer
370
-1
48
1.0
60
0
100
AcDbCircle
39
0.0
10
2173.04874431102
20
676.225858799349
30
-0.0000000000009095
40
3.5
210
0.0
220
0.0
230
1.0
100
AcDbArc
50
180.0
51
270.0
1001
AcDbBlockRepETag
1070
1
1071
121
1005
7C7A
0
LINE
5
E6
330
22
100
AcDbEntity
8
0
62
3
6
ByLayer
370
-1
48
1.0
60
0
100
AcDbLine
10
2170.32562172088
20
697.927333376057
30
-0.0000000000009095
11
2186.29426314891
21
697.927333376057
31
-0.0000000000009095
39
0.0
210
0.0
220
0.0
230
1.0
1001
AcDbBlockRepETag
1070
1
1071
122
1005
7C7B
0
LINE
5
E7
330
22
100
AcDbEntity
8
0
62
3
6
ByLayer
370
-1
48
1.0
60
0
100
AcDbLine
10
2170.43759189728
20
682.409255472354
30
-0.0000000000009095
11
2186.29426314891
21
682.409255472354
31
-0.0000000000009095
39
0.0
210
0.0
220
0.0
230
1.0
1001
AcDbBlockRepETag
1070
1
1071
123
1005
7C7C
0
ARC
5
E8
330
22
100
AcDbEntity
8
0
62
3
6
ByLayer
370
-1
48
1.0
60
0
100
AcDbCircle
39
0.0
10
2182.79426314891
20
704.110730049062
30
-0.0000000000009095
40
3.5
210
0.0
220
0.0
230
1.0
100
AcDbArc
50
0.0
51
90.0
1001
AcDbBlockRepETag
1070
1
1071
124
1005
7C7D
0
LINE
5
E9
330
22
100
AcDbEntity
8
0
62
3
6
ByLayer
370
-1
48
1.0
60
0
100
AcDbLine
10
2161.21518938623
20
682.831981789219
30
-0.0000000000009095
11
2161.21518938623
21
697.504607059192
31
-0.0000000000009095
39
0.0
210
0.0
220
0.0
230
1.0
1001
AcDbBlockRepETag
1070
1
1071
125
1005
7C7E
0
LINE
5
EA
330
22
100
AcDbEntity
8
0
62
3
6
ByLayer
370
-1
48
1.0
60
0
100
AcDbLine
10
2169.54874431102
20
676.225858799349
30
-0.0000000000009095
11
2169.54874431102
21
690.168294424206
31
-0.0000000000009095
39
0.0
210
0.0
220
0.0
230
1.0
1001
AcDbBlockRepETag
1070
1
1071
126
1005
7C7F
0
LINE
5
EB
330
22
100
AcDbEntity
8
0
62
3
6
ByLayer
370
-1
48
1.0
60
0
100
AcDbLine
10
2169.54874431102
20
704.110730049062
30
-0.0000000000009095
11
2169.54874431102
21
690.168294424206
31
-0.0000000000009095
39
0.0
210
0.0
220
0.0
230
1.0
1001
AcDbBlockRepETag
1070
1
1071
127
1005
7C80
0
LINE
5
EC
330
22
100
AcDbEntity
8
0
62
3
6
ByLayer
370
-1
48
1.0
60
0
100
AcDbLine
10
2173.04874431102
20
672.725858799349
30
-0.0000000000009095
11
2182.79426314891
21
672.725858799349
31
-0.0000000000009095
39
0.0
210
0.0
220
0.0
230
1.0
1001
AcDbBlockRepETag
1070
1
1071
128
1005
7C81
0
LINE
5
ED
330
22
100
AcDbEntity
8
0
62
3
6
ByLayer
370
-1
48
1.0
60
0
100
AcDbLine
10
2173.04874431102
20
707.610730049062
30
-0.0000000000009095
11
2182.79426314891
21
707.610730049062
31
-0.0000000000009095
39
0.0
210
0.0
220
0.0
230
1.0
1001
AcDbBlockRepETag
1070
1
1071
129
1005
7C82
0
LINE
5
EE
330
22
100
AcDbEntity
8
0
62
3
6
ByLayer
370
-1
48
1.0
60
0
100
AcDbLine
10
2162.96518938623
20
681.081981789219
30
-0.0000000000009095
11
2161.21518938623
21
682.831981789219
31
-0.0000000000009095
39
0.0
210
0.0
220
0.0
230
1.0
1001
AcDbBlockRepETag
1070
1
1071
130
1005
7C83
0
LINE
5
EF
330
22
100
AcDbEntity
8
0
62
3
6
ByLayer
370
-1
48
1.0
60
0
100
AcDbLine
10
2161.21518938623
20
697.504607059192
30
-0.0000000000009095
11
2162.96518938623
21
699.254607059192
31
-0.0000000000009095
39
0.0
210
0.0
220
0.0
230
1.0
1001
AcDbBlockRepETag
1070
1
1071
131
1005
7C84
0
LINE
5
F0
330
22
100
AcDbEntity
8
0
62
3
6
ByLayer
370
-1
48
1.0
60
0
100
AcDbLine
10
2162.96518938623
20
699.254607059192
30
-0.0000000000009095
11
2162.96518938623
21
681.081981789219
31
-0.0000000000009095
39
0.0
210
0.0
220
0.0
230
1.0
1001
AcDbBlockRepETag
1070
1
1071
132
1005
7C85
0
LINE
5
F1
330
22
100
AcDbEntity
8
0
62
3
6
ByLayer
370
-1
48
1.0
60
0
100
AcDbLine
10
2169.54874431102
20
681.081981789219
30
-0.0000000000009095
11
2162.96518938623
21
681.081981789219
31
-0.0000000000009095
39
0.0
210
0.0
220
0.0
230
1.0
1001
AcDbBlockRepETag
1070
1
1071
133
1005
7C86
0
LINE
5
F2
330
22
100
AcDbEntity
8
0
62
3
6
ByLayer
370
-1
48
1.0
60
0
100
AcDbLine
10
2169.54874431102
20
699.254607059192
30
-0.0000000000009095
11
2162.96518938623
21
699.254607059192
31
-0.0000000000009095
39
0.0
210
0.0
220
0.0
230
1.0
1001
AcDbBlockRepETag
1070
1
1071
134
1005
7C87
0
ARC
5
F3
330
22
100
AcDbEntity
8
0
62
3
6
ByLayer
370
-1
48
1.0
60
0
100
AcDbCircle
39
0.0
10
2173.04874431102
20
704.110730049062
30
-0.0000000000009095
40
3.5
210
0.0
220
0.0
230
1.0
100
AcDbArc
50
90.0
51
180.0
1001
AcDbBlockRepETag
1070
1
1071
135
1005
7C88
0
ARC
5
F4
330
22
100
AcDbEntity
8
0
62
3
6
ByLayer
370
-1
48
1.0
60
0
100
AcDbCircle
39
0.0
10
2180.2919819371
20
702.320001032662
30
-0.0000000000009095
40
10.8914583550923
210
0.0
220
0.0
230
1.0
100
AcDbArc
50
189.463305074351
51
203.785459409867
1001
AcDbBlockRepETag
1070
1
1071
136
1005
7C89
0
ARC
5
F5
330
22
100
AcDbEntity
8
0
62
3
6
ByLayer
370
-1
48
1.0
60
0
100
AcDbCircle
39
0.0
10
2206.10908882673
20
690.426084885657
30
-0.0000000000009095
40
36.5612533569401
210
0.0
220
0.0
230
1.0
100
AcDbArc
50
168.160587340027
51
192.714757862477
1001
AcDbBlockRepETag
1070
1
1071
137
1005
7C8A
0
ARC
5
F6
330
22
100
AcDbEntity
8
0
62
3
6
ByLayer
370
-1
48
1.0
60
0
100
AcDbCircle
39
0.0
10
2179.70983620983
20
677.888600846542
30
-0.0000000000009095
40
10.2962371617866
210
0.0
220
0.0
230
1.0
100
AcDbArc
50
154.143109569731
51
170.706592999324
1001
AcDbBlockRepETag
1070
1
1071
138
1005
7C8B
0
LINE
5
F7
330
22
100
AcDbEntity
8
0
62
3
6
ByLayer
370
-1
48
1.0
60
0
100
AcDbLine
10
2186.29426314891
20
677.45118442001
30
-0.0000000000009095
11
2191.26937984553
21
677.45118442001
31
-0.0000000000009095
39
0.0
210
0.0
220
0.0
230
1.0
1001
AcDbBlockRepETag
1070
1
1071
139
1005
7C8C
0
LINE
5
F8
330
22
100
AcDbEntity
8
0
62
3
6
ByLayer
370
-1
48
1.0
60
0
100
AcDbLine
10
2191.26937984553
20
677.45118442001
30
-0.0000000000009095
11
2191.26937984553
21
675.657954420742
31
-0.0000000000009095
39
0.0
210
0.0
220
0.0
230
1.0
1001
AcDbBlockRepETag
1070
1
1071
140
1005
7C8D
0
LINE
5
F9
330
22
100
AcDbEntity
8
0
62
3
6
ByLayer
370
-1
48
1.0
60
0
100
AcDbLine
10
2716.63746326594
20
675.657954420742
30
-0.0000000000009095
11
2757.4124607632
21
703.598129461665
31
-0.0000000000009095
39
0.0
210
0.0
220
0.0
230
1.0
1001
AcDbBlockRepETag
1070
1
1071
141
1005
7C8E
0
ARC
5
FA
330
22
100
AcDbEntity
8
0
62
3
6
ByLayer
370
-1
48
1.0
60
0
100
AcDbCircle
39
0.0
10
2760.9124607632
20
683.372612853498
30
-0.0000000000009095
40
3.5
210
0.0
220
0.0
230
1.0
100
AcDbArc
50
180.0
51
270.0
1001
AcDbBlockRepETag
1070
1
1071
142
1005
7C8F
0
LINE
5
FB
330
22
100
AcDbEntity
8
0
62
256
6
ByLayer
370
-1
48
1.0
60
0
100
AcDbLine
10
1111.55494818318
20
142.857954420739
30
-0.0000000000004774
11
1111.55494818321
21
1838.25795442074
31
-0.0000000000004774
39
0.0
210
0.0
220
0.0
230
1.0
0
LINE
5
FC
330
22
100
AcDbEntity
8
0
62
256
6
ByLayer
370
-1
48
1.0
60
0
100
AcDbLine
10
1116.5549481833
20
142.857954420739
30
-0.0000000000004774
11
1116.55494818324
21
1833.25795442074
31
-0.0000000000004774
39
0.0
210
0.0
220
0.0
230
1.0
0
LINE
5
FD
330
22
100
AcDbEntity
8
0
62
256
6
ByLayer
370
-1
48
1.0
60
0
100
AcDbLine
10
344.932948183123
20
142.857954420739
30
-0.0000000000004774
11
344.932948183137
21
1838.25795442074
31
-0.0000000000004774
39
0.0
210
0.0
220
0.0
230
1.0
0
LINE
5
FE
330
22
100
AcDbEntity
8
0
62
256
6
ByLayer
370
-1
48
1.0
60
0
100
AcDbLine
10
339.933584478014
20
142.857954420739
30
-0.0000000000004774
11
339.933584478014
21
1833.25795442074
31
-0.0000000000004774
39
0.0
210
0.0
220
0.0
230
1.0
0
LINE
5
FF
330
22
100
AcDbEntity
8
0
62
256
6
ByLayer
370
-1
48
1.0
60
0
100
AcDbLine
10
339.933584478014
20
142.857954420739
30
-0.0000000000009095
11
1116.5549481833
21
142.857954420739
31
-0.0000000000009095
39
0.0
210
0.0
220
0.0
230
1.0
0
LINE
5
100
330
22
100
AcDbEntity
8
0
62
256
6
ByLayer
370
-1
48
1.0
60
0
100
AcDbLine
10
344.932948183137
20
1838.25795442074
30
-0.0000000000009095
11
1111.55494818321
21
1838.25795442074
31
-0.0000000000009095
39
0.0
210
0.0
220
0.0
230
1.0
0
LINE
5
101
330
22
100
AcDbEntity
8
0
62
256
6
ByLayer
370
-1
48
1.0
60
0
100
AcDbLine
10
339.933584478014
20
1833.25795442074
30
-0.0000000000009095
11
1116.55494818324
21
1833.25795442074
31
-0.0000000000009095
39
0.0
210
0.0
220
0.0
230
1.0
0
LINE
5
102
330
22
100
AcDbEntity
8
\U+7C97\U+5B9E\U+7EBF
62
256
6
ByLayer
370
-1
48
10.0
60
0
100
AcDbLine
10
212.34526633074
20
416.669960628875
30
0.0
11
339.933584478014
21
416.669960628875
31
0.0
39
0.0
210
0.0
220
0.0
230
1.0
0
LINE
5
103
330
22
100
AcDbEntity
8
0
62
4
6
DASHED
370
-1
48
3.0
60
0
100
AcDbLine
10
212.34526633074
20
421.669960628875
30
0.0
11
339.933584478014
21
421.669960628882
31
0.0
39
0.0
210
0.0
220
0.0
230
1.0
0
LINE
5
105
330
22
100
AcDbEntity
8
\U+7C97\U+5B9E\U+7EBF
62
256
6
ByLayer
370
-1
48
10.0
60
0
100
AcDbLine
10
212.345266330754
20
1494.64594821276
30
0.0
11
339.933584478014
21
1494.64594821279
31
0.0
39
0.0
210
0.0
220
0.0
230
1.0
0
LINE
5
106
330
22
100
AcDbEntity
8
0
62
4
6
DASHED
370
-1
48
3.0
60
0
100
AcDbLine
10
212.345266330754
20
1489.64594821276
30
0.0
11
339.933584478014
21
1489.64594821278
31
0.0
39
0.0
210
0.0
220
0.0
230
1.0
0
LINE
5
107
330
22
100
AcDbEntity
8
0
62
4
6
DASHED
370
-1
48
3.0
60
0
100
AcDbLine
10
212.345266330754
20
1494.64594821275
30
-0.0000000000009095
11
212.34526633074
21
416.669960628875
31
-0.0000000000009095
39
0.0
210
0.0
220
0.0
230
1.0
0
HATCH
5
108
330
22
100
AcDbEntity
8
\U+5C3A\U+5BF8\U+6807\U+6CE8
62
256
6
ByLayer
370
-1
48
1.0
60
0
100
AcDbHatch
10
0.0
20
0.0
30
-0.0000000000009095
210
0.0
220
0.0
230
1.0
2
ANSI31
70
0
71
0
91
8
92
7
72
1
73
1
93
10
10
994.881824478012
20
987.739204420715
42
0.0
10
1042.981824478
20
987.739204420715
42
0.0
10
1042.981824478
20
1006.45795442072
42
0.0
10
1036.631824478
20
1006.45795442072
42
0.0
10
1036.631824478
20
1133.39445442071
42
0.0
10
1033.33182447801
20
1133.39445442071
42
0.0
10
1033.33182447799
20
1177.90795442072
42
0.0
10
1020.631824478
20
1177.90795442071
42
0.0
10
1020.631824478
20
1006.45795442072
42
0.0
10
994.881824478012
20
1006.45795442072
42
0.0
97
0
92
7
72
1
73
1
93
10
10
926.981824478004
20
904.857954420717
42
0.0
10
1020.631824478
20
904.857954420717
42
0.0
10
1020.631824478
20
733.407954420712
42
0.0
10
1033.33182447801
20
733.407954420712
42
0.0
10
1033.33182447801
20
777.921454420713
42
0.0
10
1036.631824478
20
777.921454420713
42
0.0
10
1036.631824478
20
904.857954420717
42
0.0
10
1042.981824478
20
904.857954420717
42
0.0
10
1042.981824478
20
927.876704420712
42
0.0
10
926.981824478004
20
927.876704420712
42
0.0
97
0
92
7
72
1
73
1
93
4
10
926.981824478004
20
1006.45795442072
42
0.0
10
926.981824478004
20
987.739204420715
42
0.0
10
940.031824478006
20
987.739204420715
42
0.0
10
940.031824478006
20
1006.45795442072
42
0.0
97
0
92
7
72
1
73
1
93
4
10
952.031824478006
20
987.739204420715
42
0.0
10
982.881824477998
20
987.739204420715
42
0.0
10
982.881824477998
20
1006.45795442072
42
0.0
10
952.031824478006
20
1006.45795442072
42
0.0
97
0
92
7
72
1
73
1
93
4
10
982.881824477998
20
987.739204420715
42
0.0
10
983.881824477998
20
987.739204420715
42
0.0
10
983.881824477998
20
1006.45795442072
42
0.0
10
982.881824477998
20
1006.45795442072
42
0.0
97
0
92
7
72
1
73
1
93
4
10
993.881824478012
20
987.739204420715
42
0.0
10
994.881824478012
20
987.739204420715
42
0.0
10
994.881824478012
20
1006.45795442072
42
0.0
10
993.881824477998
20
1006.45795442072
42
0.0
97
0
92
7
72
1
73
1
93
4
10
951.031824478006
20
987.739204420715
42
0.0
10
952.031824478006
20
987.739204420715
42
0.0
10
952.031824478006
20
1006.45795442072
42
0.0
10
951.031824478006
20
1006.45795442072
42
0.0
97
0
92
7
72
1
73
1
93
4
10
940.031824478006
20
987.739204420715
42
0.0
10
941.031824478006
20
987.739204420715
42
0.0
10
941.031824478006
20
1006.45795442072
42
0.0
10
940.031824478006
20
1006.45795442072
42
0.0
97
0
75
0
76
1
52
0.0
41
2.0
77
0
78
1
53
45.0
43
8918.35495518162
44
-8776.60663521251
45
-4.49012806053458
46
4.49012806053458
79
0
47
0.0
98
1
10
0.0
20
0.0
1001
ACAD
1010
0.0
1020
0.0
1030
0.0
0
LINE
5
10A
330
22
100
AcDbEntity
8
0
62
256
6
ByLayer
370
-1
48
1.0
60
0
100
AcDbLine
10
1020.631824478
20
1177.90795442071
30
-0.0000000000009095
11
1020.631824478
21
1006.45795442072
31
-0.0000000000009095
39
0.0
210
0.0
220
0.0
230
1.0
0
LINE
5
10B
330
22
100
AcDbEntity
8
0
62
256
6
ByLayer
370
-1
48
1.0
60
0
100
AcDbLine
10
1020.631824478
20
904.857954420717
30
-0.0000000000009095
11
1020.631824478
21
733.407954420712
31
-0.0000000000009095
39
0.0
210
0.0
220
0.0
230
1.0
0
LINE
5
10C
330
22
100
AcDbEntity
8
0
62
256
6
ByLayer
370
-1
48
1.0
60
0
100
AcDbLine
10
1020.631824478
20
733.407954420712
30
-0.0000000000009095
11
1033.33182447801
21
733.407954420712
31
-0.0000000000009095
39
0.0
210
0.0
220
0.0
230
1.0
0
LINE
5
10D
330
22
100
AcDbEntity
8
0
62
256
6
ByLayer
370
-1
48
1.0
60
0
100
AcDbLine
10
1036.631824478
20
777.921454420713
30
-0.0000000000009095
11
1036.631824478
21
904.857954420717
31
-0.0000000000009095
39
0.0
210
0.0
220
0.0
230
1.0
0
LINE
5
10E
330
22
100
AcDbEntity
8
0
62
256
6
ByLayer
370
-1
48
1.0
60
0
100
AcDbLine
10
1036.631824478
20
1006.45795442072
30
-0.0000000000009095
11
1036.631824478
21
1133.39445442071
31
-0.0000000000009095
39
0.0
210
0.0
220
0.0
230
1.0
0
LINE
5
10F
330
22
100
AcDbEntity
8
0
62
256
6
ByLayer
370
-1
48
1.0
60
0
100
AcDbLine
10
1020.631824478
20
1177.90795442071
30
-0.0000000000009095
11
1033.33182447799
21
1177.90795442072
31
-0.0000000000009095
39
0.0
210
0.0
220
0.0
230
1.0
0
LINE
5
110
330
22
100
AcDbEntity
8
0
62
256
6
ByLayer
370
-1
48
1.0
60
0
100
AcDbLine
10
926.981824478004
20
1006.45795442072
30
-0.0000000000009095
11
926.981824478004
21
904.857954420717
31
-0.0000000000009095
39
0.0
210
0.0
220
0.0
230
1.0
0
LINE
5
111
330
22
100
AcDbEntity
8
0
62
256
6
ByLayer
370
-1
48
1.0
60
0
100
AcDbLine
10
1042.981824478
20
1006.45795442072
30
-0.0000000000009095
11
1042.981824478
21
904.857954420717
31
-0.0000000000009095
39
0.0
210
0.0
220
0.0
230
1.0
0
LINE
5
112
330
22
100
AcDbEntity
8
0
62
256
6
ByLayer
370
-1
48
1.0
60
0
100
AcDbLine
10
1042.981824478
20
1006.45795442072
30
-0.0000000000009095
11
1036.631824478
21
1006.45795442072
31
-0.0000000000009095
39
0.0
210
0.0
220
0.0
230
1.0
0
LINE
5
113
330
22
100
AcDbEntity
8
0
62
256
6
ByLayer
370
-1
48
1.0
60
0
100
AcDbLine
10
1020.631824478
20
1006.45795442072
30
-0.0000000000009095
11
926.981824478004
21
1006.45795442072
31
-0.0000000000009095
39
0.0
210
0.0
220
0.0
230
1.0
0
LINE
5
114
330
22
100
AcDbEntity
8
0
62
256
6
ByLayer
370
-1
48
1.0
60
0
100
AcDbLine
10
926.981824478004
20
904.857954420717
30
-0.0000000000009095
11
1020.631824478
21
904.857954420717
31
-0.0000000000009095
39
0.0
210
0.0
220
0.0
230
1.0
0
LINE
5
115
330
22
100
AcDbEntity
8
0
62
256
6
ByLayer
370
-1
48
1.0
60
0
100
AcDbLine
10
1036.631824478
20
904.857954420717
30
-0.0000000000009095
11
1042.981824478
21
904.857954420717
31
-0.0000000000009095
39
0.0
210
0.0
220
0.0
230
1.0
0
LINE
5
116
330
22
100
AcDbEntity
8
0
62
256
6
ByLayer
370
-1
48
1.0
60
0
100
AcDbLine
10
1033.33182447801
20
1133.39445442071
30
-0.0000000000009095
11
1033.33182447801
21
1177.90795442071
31
-0.0000000000009095
39
0.0
210
0.0
220
0.0
230
1.0
0
LINE
5
117
330
22
100
AcDbEntity
8
0
62
256
6
ByLayer
370
-1
48
1.0
60
0
100
AcDbLine
10
1036.631824478
20
1133.39445442071
30
-0.0000000000009095
11
1033.33182447801
21
1133.39445442071
31
-0.0000000000009095
39
0.0
210
0.0
220
0.0
230
1.0
0
LINE
5
118
330
22
100
AcDbEntity
8
0
62
256
6
ByLayer
370
-1
48
1.0
60
0
100
AcDbLine
10
1033.33182447801
20
777.921454420713
30
-0.0000000000009095
11
1033.33182447801
21
733.407954420712
31
-0.0000000000009095
39
0.0
210
0.0
220
0.0
230
1.0
0
LINE
5
119
330
22
100
AcDbEntity
8
0
62
256
6
ByLayer
370
-1
48
1.0
60
0
100
AcDbLine
10
1036.631824478
20
777.921454420713
30
-0.0000000000009095
11
1033.33182447801
21
777.921454420713
31
-0.0000000000009095
39
0.0
210
0.0
220
0.0
230
1.0
0
LINE
5
11A
330
22
100
AcDbEntity
8
\U+4E2D\U+5FC3\U+7EBF
62
256
6
ByLayer
370
-1
48
10.0
60
0
100
AcDbLine
10
946.031824478006
20
1034.50516554559
30
-0.0000000000009095
11
946.031824478006
21
986.703937036291
31
-0.0000000000009095
39
0.0
210
0.0
220
0.0
230
1.0
0
LINE
5
11C
330
22
100
AcDbEntity
8
0
62
256
6
ByLayer
370
-1
48
1.0
60
0
100
AcDbLine
10
1042.981824478
20
987.739204420715
30
-0.0000000000009095
11
926.981824478004
21
987.739204420715
31
-0.0000000000009095
39
0.0
210
0.0
220
0.0
230
1.0
0
LINE
5
11D
330
22
100
AcDbEntity
8
0
62
256
6
ByLayer
370
-1
48
1.0
60
0
100
AcDbLine
10
1042.981824478
20
927.876704420712
30
-0.0000000000009095
11
926.981824478004
21
927.876704420712
31
-0.0000000000009095
39
0.0
210
0.0
220
0.0
230
1.0
0
LINE
5
11E
330
22
100
AcDbEntity
8
0
62
256
6
ByLayer
370
-1
48
1.0
60
0
100
AcDbLine
10
1042.981824478
20
982.262424939079
30
-0.0000000000009095
11
926.981824478004
21
982.262424939079
31
-0.0000000000009095
39
0.0
210
0.0
220
0.0
230
1.0
0
LINE
5
11F
330
22
100
AcDbEntity
8
\U+4E2D\U+5FC3\U+7EBF
62
256
6
ByLayer
370
-1
48
10.0
60
0
100
AcDbLine
10
988.881824477998
20
1015.45516554559
30
-0.0000000000009095
11
988.881824477998
21
945.937050201304
31
-0.0000000000009095
39
0.0
210
0.0
220
0.0
230
1.0
0
LINE
5
120
330
22
100
AcDbEntity
8
\U+5C3A\U+5BF8\U+6807\U+6CE8
62
256
6
ByLayer
370
-1
48
1.0
60
0
100
AcDbLine
10
952.031824478006
20
1006.45795442072
30
-0.0000000000009095
11
952.031824478006
21
987.739204420715
31
-0.0000000000009095
39
0.0
210
0.0
220
0.0
230
1.0
0
LINE
5
121
330
22
100
AcDbEntity
8
0
62
256
6
ByLayer
370
-1
48
1.0
60
0
100
AcDbLine
10
951.031824478006
20
1006.45795442072
30
-0.0000000000009095
11
951.031824478006
21
987.739204420708
31
-0.0000000000009095
39
0.0
210
0.0
220
0.0
230
1.0
0
LINE
5
122
330
22
100
AcDbEntity
8
\U+5C3A\U+5BF8\U+6807\U+6CE8
62
256
6
ByLayer
370
-1
48
1.0
60
0
100
AcDbLine
10
940.031824478006
20
1006.45795442072
30
-0.0000000000009095
11
940.031824478006
21
987.739204420715
31
-0.0000000000009095
39
0.0
210
0.0
220
0.0
230
1.0
0
LINE
5
123
330
22
100
AcDbEntity
8
0
62
256
6
ByLayer
370
-1
48
1.0
60
0
100
AcDbLine
10
941.031824478006
20
1006.45795442072
30
-0.0000000000009095
11
941.031824478006
21
987.739204420708
31
-0.0000000000009095
39
0.0
210
0.0
220
0.0
230
1.0
0
LINE
5
124
330
22
100
AcDbEntity
8
\U+5C3A\U+5BF8\U+6807\U+6CE8
62
256
6
ByLayer
370
-1
48
1.0
60
0
100
AcDbLine
10
994.881824478012
20
1006.45795442072
30
-0.0000000000009095
11
994.881824478012
21
987.739204420708
31
-0.0000000000009095
39
0.0
210
0.0
220
0.0
230
1.0
0
LINE
5
125
330
22
100
AcDbEntity
8
0
62
256
6
ByLayer
370
-1
48
1.0
60
0
100
AcDbLine
10
993.881824477998
20
1006.45795442072
30
-0.0000000000009095
11
993.881824478012
21
987.739204420708
31
-0.0000000000009095
39
0.0
210
0.0
220
0.0
230
1.0
0
LINE
5
126
330
22
100
AcDbEntity
8
\U+5C3A\U+5BF8\U+6807\U+6CE8
62
256
6
ByLayer
370
-1
48
1.0
60
0
100
AcDbLine
10
982.881824477998
20
1006.45795442072
30
-0.0000000000009095
11
982.881824477998
21
987.739204420708
31
-0.0000000000009095
39
0.0
210
0.0
220
0.0
230
1.0
0
LINE
5
127
330
22
100
AcDbEntity
8
0
62
256
6
ByLayer
370
-1
48
1.0
60
0
100
AcDbLine
10
983.881824477998
20
1006.45795442072
30
-0.0000000000009095
11
983.881824477998
21
987.739204420708
31
-0.0000000000009095
39
0.0
210
0.0
220
0.0
230
1.0
0
CIRCLE
5
128
330
22
100
AcDbEntity
8
0
62
256
6
ByLayer
370
-1
48
1.0
60
0
100
AcDbCircle
10
988.881824477998
20
955.657954420712
30
-0.0000000000009095
40
5.25000000000068
39
0.0
210
0.0
220
0.0
230
1.0
0
ARC
5
129
330
22
100
AcDbEntity
8
\U+5C3A\U+5BF8\U+6807\U+6CE8
62
256
6
ByLayer
370
-1
48
1.0
60
0
100
AcDbCircle
39
0.0
10
988.881824477998
20
955.657954420712
30
-0.0000000000009095
40
6.00000000000068
210
0.0
220
0.0
230
1.0
100
AcDbArc
50
167.45985038485
51
98.7673745199146
0
LINE
5
12A
330
22
100
AcDbEntity
8
0
62
256
6
ByLayer
370
-1
48
1.0
60
0
100
AcDbLine
10
1020.631824478
20
1146.15795442071
30
-0.0000000000009095
11
1001.58182447801
21
1146.15795442071
31
-0.0000000000009095
39
0.0
210
0.0
220
0.0
230
1.0
0
LINE
5
12B
330
22
100
AcDbEntity
8
0
62
256
6
ByLayer
370
-1
48
1.0
60
0
100
AcDbLine
10
1001.58182447801
20
1146.15795442071
30
-0.0000000000009095
11
957.131824477998
21
1025.50795442071
31
-0.0000000000009095
39
0.0
210
0.0
220
0.0
230
1.0
0
LINE
5
12C
330
22
100
AcDbEntity
8
0
62
256
6
ByLayer
370
-1
48
1.0
60
0
100
AcDbLine
10
957.131824477998
20
1025.50795442071
30
-0.0000000000009095
11
957.131824477998
21
1006.45795442072
31
-0.0000000000009095
39
0.0
210
0.0
220
0.0
230
1.0
0
LINE
5
12D
330
22
100
AcDbEntity
8
0
62
256
6
ByLayer
370
-1
48
1.0
60
0
100
AcDbLine
10
1020.631824478
20
765.15795442072
30
-0.0000000000009095
11
1001.58182447801
21
765.15795442072
31
-0.0000000000009095
39
0.0
210
0.0
220
0.0
230
1.0
0
LINE
5
12E
330
22
100
AcDbEntity
8
0
62
256
6
ByLayer
370
-1
48
1.0
60
0
100
AcDbLine
10
1001.58182447801
20
765.15795442072
30
-0.0000000000009095
11
957.131824477998
21
885.807954420721
31
-0.0000000000009095
39
0.0
210
0.0
220
0.0
230
1.0
0
LINE
5
12F
330
22
100
AcDbEntity
8
0
62
256
6
ByLayer
370
-1
48
1.0
60
0
100
AcDbLine
10
957.131824478012
20
885.807954420721
30
-0.0000000000009095
11
957.131824477998
21
904.857954420717
31
-0.0000000000009095
39
0.0
210
0.0
220
0.0
230
1.0
0
LINE
5
130
330
22
100
AcDbEntity
8
\U+4E2D\U+5FC3\U+7EBF
62
256
6
ByLayer
370
-1
48
10.0
60
0
100
AcDbLine
10
932.571805641681
20
995.657954420712
30
-0.0000000000009095
11
922.954333976289
21
995.657954420712
31
-0.0000000000009095
39
0.0
210
0.0
220
0.0
230
1.0
0
LINE
5
131
330
22
100
AcDbEntity
8
\U+4E2D\U+5FC3\U+7EBF
62
256
6
ByLayer
370
-1
48
10.0
60
0
100
AcDbLine
10
932.571805641681
20
915.657954420712
30
-0.0000000000009095
11
922.954333976289
21
915.657954420712
31
-0.0000000000009095
39
0.0
210
0.0
220
0.0
230
1.0
0
LINE
5
132
330
22
100
AcDbEntity
8
\U+7C97\U+5B9E\U+7EBF
62
256
6
ByLayer
370
-1
48
10.0
60
0
100
AcDbLine
10
1127.0549481833
20
135.157954420742
30
-0.0000000000004774
11
1164.88828151664
21
135.157954420742
31
-0.0000000000004774
39
0.0
210
0.0
220
0.0
230
1.0
0
LINE
5
133
330
22
100
AcDbEntity
8
\U+7C97\U+5B9E\U+7EBF
62
256
6
ByLayer
370
-1
48
10.0
60
0
100
AcDbLine
10
1166.5549481833
20
133.491287754055
30
-0.0000000000004774
11
1166.5549481833
21
130.157954420742
31
-0.0000000000004774
39
0.0
210
0.0
220
0.0
230
1.0
0
LINE
5
134
330
22
100
AcDbEntity
8
\U+7C97\U+5B9E\U+7EBF
62
256
6
ByLayer
370
-1
48
10.0
60
0
100
AcDbLine
10
1116.5549481833
20
180.157954420742
30
-0.0000000000004774
11
1119.88828151664
21
180.157954420742
31
-0.0000000000004774
39
0.0
210
0.0
220
0.0
230
1.0
0
LINE
5
135
330
22
100
AcDbEntity
8
\U+7C97\U+5B9E\U+7EBF
62
256
6
ByLayer
370
-1
48
10.0
60
0
100
AcDbLine
10
1121.5549481833
20
178.491287754055
30
-0.0000000000004774
11
1121.5549481833
21
140.657954420742
31
-0.0000000000004774
39
0.0
210
0.0
220
0.0
230
1.0
0
LINE
5
136
330
22
100
AcDbEntity
8
\U+7C97\U+5B9E\U+7EBF
62
256
6
ByLayer
370
-1
48
10.0
60
0
100
AcDbLine
10
1166.5549481833
20
130.157954420742
30
-0.0000000000004774
11
1116.5549481833
21
130.157954420742
31
-0.0000000000004774
39
0.0
210
0.0
220
0.0
230
1.0
0
LINE
5
137
330
22
100
AcDbEntity
8
\U+7C97\U+5B9E\U+7EBF
62
256
6
ByLayer
370
-1
48
10.0
60
0
100
AcDbLine
10
1116.5549481833
20
130.157954420742
30
-0.0000000000004774
11
1116.5549481833
21
180.157954420742
31
-0.0000000000004774
39
0.0
210
0.0
220
0.0
230
1.0
0
ARC
5
138
330
22
100
AcDbEntity
8
\U+7C97\U+5B9E\U+7EBF
62
256
6
ByLayer
370
-1
48
10.0
60
0
100
AcDbCircle
39
0.0
10
1164.88828151664
20
133.491287754055
30
-0.0000000000004774
40
1.66666666666667
210
0.0
220
0.0
230
1.0
100
AcDbArc
50
0.0
51
90.0
0
ARC
5
139
330
22
100
AcDbEntity
8
\U+7C97\U+5B9E\U+7EBF
62
256
6
ByLayer
370
-1
48
10.0
60
0
100
AcDbCircle
39
0.0
10
1127.0549481833
20
140.657954420742
30
-0.0000000000004774
40
5.5
210
0.0
220
0.0
230
1.0
100
AcDbArc
50
180.0
51
270.0
0
ARC
5
13A
330
22
100
AcDbEntity
8
\U+7C97\U+5B9E\U+7EBF
62
256
6
ByLayer
370
-1
48
10.0
60
0
100
AcDbCircle
39
0.0
10
1119.88828151664
20
178.491287754055
30
-0.0000000000004774
40
1.66666666666667
210
0.0
220
0.0
230
1.0
100
AcDbArc
50
0.0
51
90.0
0
LINE
5
13B
330
22
100
AcDbEntity
8
\U+7C97\U+5B9E\U+7EBF
62
256
6
ByLayer
370
-1
48
10.0
60
0
100
AcDbLine
10
329.433584478014
20
135.157954420742
30
-0.0000000000004774
11
291.600251144686
21
135.157954420742
31
-0.0000000000004774
39
0.0
210
0.0
220
0.0
230
1.0
0
LINE
5
13C
330
22
100
AcDbEntity
8
\U+7C97\U+5B9E\U+7EBF
62
256
6
ByLayer
370
-1
48
10.0
60
0
100
AcDbLine
10
289.933584478014
20
133.491287754055
30
-0.0000000000004774
11
289.933584478014
21
130.157954420742
31
-0.0000000000004774
39
0.0
210
0.0
220
0.0
230
1.0
0
LINE
5
13D
330
22
100
AcDbEntity
8
\U+7C97\U+5B9E\U+7EBF
62
256
6
ByLayer
370
-1
48
10.0
60
0
100
AcDbLine
10
339.933584478014
20
180.157954420742
30
-0.0000000000004774
11
336.600251144686
21
180.157954420742
31
-0.0000000000004774
39
0.0
210
0.0
220
0.0
230
1.0
0
LINE
5
13E
330
22
100
AcDbEntity
8
\U+7C97\U+5B9E\U+7EBF
62
256
6
ByLayer
370
-1
48
10.0
60
0
100
AcDbLine
10
334.933584478014
20
178.491287754055
30
-0.0000000000004774
11
334.933584478014
21
140.657954420742
31
-0.0000000000004774
39
0.0
210
0.0
220
0.0
230
1.0
0
LINE
5
13F
330
22
100
AcDbEntity
8
\U+7C97\U+5B9E\U+7EBF
62
256
6
ByLayer
370
-1
48
10.0
60
0
100
AcDbLine
10
289.933584478014
20
130.157954420742
30
-0.0000000000004774
11
339.933584478014
21
130.157954420742
31
-0.0000000000004774
39
0.0
210
0.0
220
0.0
230
1.0
0
LINE
5
140
330
22
100
AcDbEntity
8
\U+7C97\U+5B9E\U+7EBF
62
256
6
ByLayer
370
-1
48
10.0
60
0
100
AcDbLine
10
339.933584478014
20
130.157954420742
30
-0.0000000000004774
11
339.933584478014
21
180.157954420742
31
-0.0000000000004774
39
0.0
210
0.0
220
0.0
230
1.0
0
ARC
5
141
330
22
100
AcDbEntity
8
\U+7C97\U+5B9E\U+7EBF
62
256
6
ByLayer
370
-1
48
10.0
60
0
100
AcDbCircle
39
0.0
10
291.600251144686
20
133.491287754055
30
-0.0000000000004774
40
1.66666666666667
210
0.0
220
0.0
230
1.0
100
AcDbArc
50
90.0
51
180.0
0
ARC
5
142
330
22
100
AcDbEntity
8
\U+7C97\U+5B9E\U+7EBF
62
256
6
ByLayer
370
-1
48
10.0
60
0
100
AcDbCircle
39
0.0
10
329.433584478014
20
140.657954420742
30
-0.0000000000004774
40
5.5
210
0.0
220
0.0
230
1.0
100
AcDbArc
50
270.0
51
0.0
0
ARC
5
143
330
22
100
AcDbEntity
8
\U+7C97\U+5B9E\U+7EBF
62
256
6
ByLayer
370
-1
48
10.0
60
0
100
AcDbCircle
39
0.0
10
336.600251144686
20
178.491287754055
30
-0.0000000000004774
40
1.66666666666667
210
0.0
220
0.0
230
1.0
100
AcDbArc
50
90.0
51
180.0
0
LINE
5
144
330
22
100
AcDbEntity
8
\U+7C97\U+5B9E\U+7EBF
62
256
6
ByLayer
370
-1
48
10.0
60
0
100
AcDbLine
10
1116.5549481833
20
130.157954420742
30
-0.0000000000004774
11
339.933584478014
21
130.157954420742
31
-0.0000000000004774
39
0.0
210
0.0
220
0.0
230
1.0
0
LINE
5
145
330
22
100
AcDbEntity
8
\U+7C97\U+5B9E\U+7EBF
62
256
6
ByLayer
370
-1
48
10.0
60
0
100
AcDbLine
10
1116.5549481833
20
135.157954420742
30
-0.0000000000004774
11
339.933584478014
21
135.157954420742
31
-0.0000000000004774
39
0.0
210
0.0
220
0.0
230
1.0
0
LINE
5
146
330
22
100
AcDbEntity
8
\U+7C97\U+5B9E\U+7EBF
62
256
6
ByLayer
370
-1
48
10.0
60
0
100
AcDbLine
10
1116.5549481833
20
180.157954420742
30
-0.0000000000004774
11
339.933584478014
21
180.157954420742
31
-0.0000000000004774
39
0.0
210
0.0
220
0.0
230
1.0
0
LINE
5
147
330
22
100
AcDbEntity
8
\U+77ED\U+4E2D\U+5FC3\U+7EBF
62
256
6
ByLayer
370
-1
48
5.0
60
0
100
AcDbLine
10
269.645266330801
20
955.657954420705
30
-0.0000000000009095
11
179.645266330801
21
955.657954420716
31
-0.0000000000009095
39
0.0
210
0.0
220
0.0
230
1.0
0
LINE
5
14A
330
22
100
AcDbEntity
8
\U+5C3A\U+5BF8\U+6807\U+6CE8
62
0
6
ByLayer
370
-1
48
1.0
60
0
100
AcDbLine
10
249.645266330685
20
411.669960628857
30
-0.0000000000009095
11
204.645266330801
21
411.669960628857
31
-0.0000000000009095
39
0.0
210
0.0
220
0.0
230
1.0
0
LINE
5
14B
330
22
100
AcDbEntity
8
\U+865A\U+7EBF
62
256
6
ByLayer
370
-1
48
10.0
60
0
100
AcDbLine
10
249.645266330685
20
416.669960628766
30
-0.0000000000009095
11
204.645266330801
21
416.669960628755
31
-0.0000000000009095
39
0.0
210
0.0
220
0.0
230
1.0
0
LINE
5
14D
330
22
100
AcDbEntity
8
\U+5C3A\U+5BF8\U+6807\U+6CE8
62
0
6
ByLayer
370
-1
48
1.0
60
0
100
AcDbLine
10
204.645266330801
20
366.669960628755
30
-0.0000000000009095
11
199.645266330801
21
366.669960628755
31
-0.0000000000009095
39
0.0
210
0.0
220
0.0
230
1.0
0
LINE
5
14E
330
22
100
AcDbEntity
8
\U+5C3A\U+5BF8\U+6807\U+6CE8
62
0
6
ByLayer
370
-1
48
1.0
60
0
100
AcDbLine
10
199.645266330801
20
366.669960628755
30
-0.0000000000009095
11
199.645266330801
21
1544.64594821266
31
-0.0000000000009095
39
0.0
210
0.0
220
0.0
230
1.0
0
LINE
5
14F
330
22
100
AcDbEntity
8
\U+5C3A\U+5BF8\U+6807\U+6CE8
62
0
6
ByLayer
370
-1
48
1.0
60
0
100
AcDbLine
10
204.645266330801
20
366.669960628755
30
-0.0000000000009095
11
204.645266330801
21
1544.64594821267
31
-0.0000000000009095
39
0.0
210
0.0
220
0.0
230
1.0
0
LINE
5
150
330
22
100
AcDbEntity
8
\U+5C3A\U+5BF8\U+6807\U+6CE8
62
0
6
ByLayer
370
-1
48
1.0
60
0
100
AcDbLine
10
249.645266330801
20
1499.64594821255
30
-0.0000000000009095
11
249.645266330685
21
411.669960628857
31
-0.0000000000009095
39
0.0
210
0.0
220
0.0
230
1.0
0
LINE
5
151
330
22
100
AcDbEntity
8
\U+5C3A\U+5BF8\U+6807\U+6CE8
62
0
6
ByLayer
370
-1
48
1.0
60
0
100
AcDbLine
10
249.645266330685
20
1499.64594821255
30
-0.0000000000009095
11
204.645266330801
21
1499.64594821255
31
-0.0000000000009095
39
0.0
210
0.0
220
0.0
230
1.0
0
LINE
5
152
330
22
100
AcDbEntity
8
\U+865A\U+7EBF
62
256
6
ByLayer
370
-1
48
10.0
60
0
100
AcDbLine
10
249.645266330685
20
1494.64594821264
30
-0.0000000000009095
11
204.645266330801
21
1494.64594821266
31
-0.0000000000009095
39
0.0
210
0.0
220
0.0
230
1.0
0
LINE
5
153
330
22
100
AcDbEntity
8
\U+5C3A\U+5BF8\U+6807\U+6CE8
62
0
6
ByLayer
370
-1
48
1.0
60
0
100
AcDbLine
10
204.645266330801
20
1544.64594821266
30
-0.0000000000009095
11
199.645266330801
21
1544.64594821266
31
-0.0000000000009095
39
0.0
210
0.0
220
0.0
230
1.0
0
LINE
5
154
330
22
100
AcDbEntity
8
\U+70B9\U+5212\U+7EBF01
62
256
6
ByLayer
370
-1
48
1.0
60
0
100
AcDbLine
10
1066.17849774378
20
955.657954420712
30
-0.0000000000009095
11
655.988294007955
21
955.657954420712
31
-0.0000000000009095
39
0.0
210
0.0
220
0.0
230
1.0
1001
AcDbBlockRepETag
1070
1
1071
0
1005
7B99
0
LINE
5
157
330
22
100
AcDbEntity
8
0
62
256
6
ByLayer
370
-1
48
1.0
60
0
100
AcDbLine
10
674.033584478009
20
589.326954420714
30
-0.0000000000009095
11
674.033584478009
21
1321.98895442072
31
-0.0000000000009095
39
0.0
210
0.0
220
0.0
230
1.0
1001
AcDbBlockRepETag
1070
1
1071
1
1005
7B9A
0
LINE
5
158
330
22
100
AcDbEntity
8
0
62
5
6
ByLayer
370
-1
48
1.0
60
0
100
AcDbLine
10
334.183584478011
20
1531.65795442073
30
-0.0000000000009095
11
334.183584478011
21
1479.17730490677
31
-0.0000000000009095
39
0.0
210
0.0
220
0.0
230
1.0
1001
AcDbBlockRepETag
1070
1
1071
2
1005
7B9B
0
LINE
5
159
330
22
100
AcDbEntity
8
0
62
1
6
CENTER2
370
-1
48
2.0
60
0
100
AcDbLine
10
757.717567316689
20
955.657954420716
30
-0.0000000000009095
11
283.066175879761
21
955.657954420731
31
-0.0000000000009095
39
0.0
210
0.0
220
0.0
230
1.0
1001
AcDbBlockRepETag
1070
1
1071
3
1005
7B9C
0
LINE
5
15A
330
22
100
AcDbEntity
8
0
62
1
6
CENTER2
370
-1
48
2.0
60
0
100
AcDbLine
10
394.377642514268
20
1478.35795442073
30
-0.0000000000009095
11
283.066175879761
21
1478.35795442073
31
-0.0000000000009095
39
0.0
210
0.0
220
0.0
230
1.0
1001
AcDbBlockRepETag
1070
1
1071
4
1005
7B9D
0
LINE
5
15B
330
22
100
AcDbEntity
8
0
62
1
6
CENTER2
370
-1
48
2.0
60
0
100
AcDbLine
10
404.440581038794
20
432.957954420734
30
-0.0000000000009095
11
283.066175879761
21
432.957954420734
31
-0.0000000000009095
39
0.0
210
0.0
220
0.0
230
1.0
1001
AcDbBlockRepETag
1070
1
1071
5
1005
7B9E
0
LINE
5
15C
330
22
100
AcDbEntity
8
0
62
1
6
CENTER2
370
-1
48
2.0
60
0
100
AcDbLine
10
392.365704420339
20
1515.65795442072
30
-0.0000000000009095
11
283.066175879761
21
1515.65795442073
31
-0.0000000000009095
39
0.0
210
0.0
220
0.0
230
1.0
1001
AcDbBlockRepETag
1070
1
1071
6
1005
7B9F
0
LINE
5
15D
330
22
100
AcDbEntity
8
0
62
1
6
CENTER2
370
-1
48
2.0
60
0
100
AcDbLine
10
400.424070975827
20
395.657954420731
30
-0.0000000000009095
11
283.066175879761
21
395.657954420731
31
-0.0000000000009095
39
0.0
210
0.0
220
0.0
230
1.0
1001
AcDbBlockRepETag
1070
1
1071
7
1005
7BA0
0
LINE
5
15E
330
22
100
AcDbEntity
8
0
62
5
6
ByLayer
370
-1
48
1.0
60
0
100
AcDbLine
10
334.183584478011
20
379.657954420702
30
-0.0000000000009095
11
334.183584478011
21
432.730964355589
31
-0.0000000000009095
39
0.0
210
0.0
220
0.0
230
1.0
1001
AcDbBlockRepETag
1070
1
1071
8
1005
7BA1
0
LINE
5
15F
330
22
100
AcDbEntity
8
0
62
5
6
ByLayer
370
-1
48
1.0
60
0
100
AcDbLine
10
696.89558447801
20
1310.72045442073
30
-0.0000000000009095
11
696.89558447801
21
600.657954420716
31
-0.0000000000009095
39
0.0
210
0.0
220
0.0
230
1.0
1001
AcDbBlockRepETag
1070
1
1071
9
1005
7BA2
0
LINE
5
160
330
22
100
AcDbEntity
8
0
62
5
6
ByLayer
370
-1
48
1.0
60
0
100
AcDbLine
10
334.183584478011
20
432.730964355589
30
-0.0000000000009095
11
334.183584478011
21
1478.35795442073
31
-0.0000000000009095
39
0.0
210
0.0
220
0.0
230
1.0
1001
AcDbBlockRepETag
1070
1
1071
10
1005
7BA3
0
LINE
5
161
330
22
100
AcDbEntity
8
0
62
5
6
ByLayer
370
-1
48
1.0
60
0
100
AcDbLine
10
336.933584478011
20
1531.65795442073
30
-0.0000000000009095
11
336.933584478011
21
1478.58494448584
31
-0.0000000000009095
39
0.0
210
0.0
220
0.0
230
1.0
1001
AcDbBlockRepETag
1070
1
1071
11
1005
7BA4
0
LINE
5
162
330
22
100
AcDbEntity
8
0
62
4
6
DASHED
370
-1
48
5.0
60
0
100
AcDbLine
10
336.933584478011
20
432.730964355589
30
-0.0000000000009095
11
336.933584478011
21
1478.35795442073
31
-0.0000000000009095
39
0.0
210
0.0
220
0.0
230
1.0
1001
AcDbBlockRepETag
1070
1
1071
12
1005
7BA5
0
LINE
5
163
330
22
100
AcDbEntity
8
0
62
5
6
ByLayer
370
-1
48
1.0
60
0
100
AcDbLine
10
336.933584478011
20
379.657954420702
30
-0.0000000000009095
11
336.933584478011
21
432.730964355589
31
-0.0000000000009095
39
0.0
210
0.0
220
0.0
230
1.0
1001
AcDbBlockRepETag
1070
1
1071
13
1005
7BA6
0
LINE
5
164
330
22
100
AcDbEntity
8
0
62
5
6
ByLayer
370
-1
48
1.0
60
0
100
AcDbLine
10
336.933584478011
20
379.657954420702
30
-0.0000000000009095
11
334.183584478011
21
379.657954420702
31
-0.0000000000009095
39
0.0
210
0.0
220
0.0
230
1.0
1001
AcDbBlockRepETag
1070
1
1071
14
1005
7BA7
0
LINE
5
165
330
22
100
AcDbEntity
8
0
62
5
6
ByLayer
370
-1
48
1.0
60
0
100
AcDbLine
10
336.933584478011
20
1531.65795442073
30
-0.0000000000009095
11
334.183584478011
21
1531.65795442073
31
-0.0000000000009095
39
0.0
210
0.0
220
0.0
230
1.0
1001
AcDbBlockRepETag
1070
1
1071
15
1005
7BA8
0
LINE
5
166
330
22
100
AcDbEntity
8
0
62
5
6
ByLayer
370
-1
48
1.0
60
0
100
AcDbLine
10
572.074214873744
20
1291.36328179919
30
-0.0000000000009095
11
376.245984477773
21
1406.3230910183
31
-0.0000000000009095
39
0.0
210
0.0
220
0.0
230
1.0
1001
AcDbBlockRepETag
1070
1
1071
16
1005
7BA9
0
LINE
5
167
330
22
100
AcDbEntity
8
0
62
5
6
ByLayer
370
-1
48
1.0
60
0
100
AcDbLine
10
573.449214873744
20
1293.74485165959
30
-0.0000000000009095
11
377.620984477773
21
1408.7046608787
31
-0.0000000000009095
39
0.0
210
0.0
220
0.0
230
1.0
1001
AcDbBlockRepETag
1070
1
1071
17
1005
7BAA
0
ARC
5
168
330
22
100
AcDbEntity
8
0
62
5
6
ByLayer
370
-1
48
1.0
60
0
100
AcDbCircle
39
0.0
10
622.480514873834
20
1378.66955442076
30
-0.0000000000009095
40
100.8126
210
0.0
220
0.0
230
1.0
100
AcDbArc
50
239.99999999999
51
317.57427119238
1001
AcDbBlockRepETag
1070
1
1071
18
1005
7BAB
0
ARC
5
169
330
22
100
AcDbEntity
8
0
62
5
6
ByLayer
370
-1
48
1.0
60
0
100
AcDbCircle
39
0.0
10
622.480514873834
20
1378.66955442076
30
-0.0000000000009095
40
98.0626
210
0.0
220
0.0
230
1.0
100
AcDbArc
50
239.99999999999
51
317.57427119238
1001
AcDbBlockRepETag
1070
1
1071
19
1005
7BAC
0
ARC
5
16A
330
22
100
AcDbEntity
8
0
62
5
6
ByLayer
370
-1
48
1.0
60
0
100
AcDbCircle
39
0.0
10
418.308384478001
20
1479.17730490674
30
-0.0000000000009095
40
84.1248
210
0.0
220
0.0
230
1.0
100
AcDbArc
50
180.0
51
239.99999999999
1001
AcDbBlockRepETag
1070
1
1071
20
1005
7BAD
0
ARC
5
16B
330
22
100
AcDbEntity
8
0
62
5
6
ByLayer
370
-1
48
1.0
60
0
100
AcDbCircle
39
0.0
10
418.308384478001
20
1479.17730490674
30
-0.0000000000009095
40
81.3748
210
0.0
220
0.0
230
1.0
100
AcDbArc
50
180.0
51
239.99999999999
1001
AcDbBlockRepETag
1070
1
1071
21
1005
7BAE
0
LINE
5
16C
330
22
100
AcDbEntity
8
0
62
5
6
ByLayer
370
-1
48
1.0
60
0
100
AcDbLine
10
694.865665188026
20
1312.51319771373
30
-0.0000000000009095
11
696.89558447801
21
1310.65795442073
31
-0.0000000000009095
39
0.0
210
0.0
220
0.0
230
1.0
1001
AcDbBlockRepETag
1070
1
1071
22
1005
7BAF
0
LINE
5
16D
330
22
100
AcDbEntity
8
0
62
5
6
ByLayer
370
-1
48
1.0
60
0
100
AcDbLine
10
572.074214873744
20
619.952627042247
30
-0.0000000000009095
11
376.245984477773
21
504.992817823131
31
-0.0000000000009095
39
0.0
210
0.0
220
0.0
230
1.0
1001
AcDbBlockRepETag
1070
1
1071
23
1005
7BB0
0
LINE
5
16E
330
22
100
AcDbEntity
8
0
62
5
6
ByLayer
370
-1
48
1.0
60
0
100
AcDbLine
10
573.449214873744
20
617.571057181845
30
-0.0000000000009095
11
377.620984477773
21
502.61124796273
31
-0.0000000000009095
39
0.0
210
0.0
220
0.0
230
1.0
1001
AcDbBlockRepETag
1070
1
1071
24
1005
7BB1
0
ARC
5
16F
330
22
100
AcDbEntity
8
0
62
5
6
ByLayer
370
-1
48
1.0
60
0
100
AcDbCircle
39
0.0
10
622.480514873834
20
532.646354420674
30
-0.0000000000009095
40
100.8126
210
0.0
220
0.0
230
1.0
100
AcDbArc
50
42.4257288076202
51
120.00000000001
1001
AcDbBlockRepETag
1070
1
1071
25
1005
7BB2
0
ARC
5
170
330
22
100
AcDbEntity
8
0
62
5
6
ByLayer
370
-1
48
1.0
60
0
100
AcDbCircle
39
0.0
10
622.480514873834
20
532.646354420674
30
-0.0000000000009095
40
98.0626
210
0.0
220
0.0
230
1.0
100
AcDbArc
50
42.4257288076202
51
120.00000000001
1001
AcDbBlockRepETag
1070
1
1071
26
1005
7BB3
0
ARC
5
171
330
22
100
AcDbEntity
8
0
62
5
6
ByLayer
370
-1
48
1.0
60
0
100
AcDbCircle
39
0.0
10
418.308384478001
20
432.138603934694
30
-0.0000000000009095
40
84.1248
210
0.0
220
0.0
230
1.0
100
AcDbArc
50
120.00000000001
51
180.0
1001
AcDbBlockRepETag
1070
1
1071
27
1005
7BB4
0
ARC
5
172
330
22
100
AcDbEntity
8
0
62
5
6
ByLayer
370
-1
48
1.0
60
0
100
AcDbCircle
39
0.0
10
418.308384478001
20
432.138603934694
30
-0.0000000000009095
40
81.3748
210
0.0
220
0.0
230
1.0
100
AcDbArc
50
120.00000000001
51
180.0
1001
AcDbBlockRepETag
1070
1
1071
28
1005
7BB5
0
LINE
5
173
330
22
100
AcDbEntity
8
0
62
5
6
ByLayer
370
-1
48
1.0
60
0
100
AcDbLine
10
694.865665188026
20
598.802711127701
30
-0.0000000000009095
11
696.89558447801
21
600.657954420702
31
-0.0000000000009095
39
0.0
210
0.0
220
0.0
230
1.0
1001
AcDbBlockRepETag
1070
1
1071
29
1005
7BB6
0
LINE
5
174
330
22
100
AcDbEntity
8
0
62
256
6
ByLayer
370
-1
48
1.0
60
0
100
AcDbLine
10
795.953584478015
20
444.48295442072
30
-0.0000000000009095
11
795.953584478015
21
1466.83295442072
31
-0.0000000000009095
39
0.0
210
0.0
220
0.0
230
1.0
1001
AcDbBlockRepETag
1070
1
1071
30
1005
7BB7
0
LINE
5
175
330
22
100
AcDbEntity
8
\U+70B9\U+5212\U+7EBF01
62
256
6
ByLayer
370
-1
48
1.0
60
0
100
AcDbLine
10
1063.79649774378
20
955.657954420716
30
-0.0000000000009095
11
655.132294007955
21
955.657954420716
31
-0.0000000000009095
39
0.0
210
0.0
220
0.0
230
1.0
1001
AcDbBlockRepETag
1070
1
1071
31
1005
7BB8
0
LINE
5
176
330
22
100
AcDbEntity
8
0
62
256
6
ByLayer
370
-1
48
1.0
60
0
100
AcDbLine
10
674.033584478009
20
588.326954420718
30
-0.0000000000009095
11
674.033584478013
21
1322.98895442072
31
-0.0000000000009095
39
0.0
210
0.0
220
0.0
230
1.0
1001
AcDbBlockRepETag
1070
1
1071
32
1005
7BB9
0
ARC
5
177
330
22
100
AcDbEntity
8
0
62
256
6
ByLayer
370
-1
48
1.0
60
0
100
AcDbCircle
39
0.0
10
700.195584478013
20
1333.73695442072
30
-0.0000000000009095
40
15.748
210
0.0
220
0.0
230
1.0
100
AcDbArc
50
270.0
51
315.036259871778
1001
AcDbBlockRepETag
1070
1
1071
33
1005
7BBA
0
ARC
5
178
330
22
100
AcDbEntity
8
0
62
256
6
ByLayer
370
-1
48
1.0
60
0
100
AcDbCircle
39
0.0
10
700.195584478013
20
1333.73695442072
30
-0.0000000000009095
40
10.748
210
0.0
220
0.0
230
1.0
100
AcDbArc
50
270.0
51
315.036259871778
1001
AcDbBlockRepETag
1070
1
1071
34
1005
7BBB
0
LINE
5
179
330
22
100
AcDbEntity
8
0
62
256
6
ByLayer
370
-1
48
1.0
60
0
100
AcDbLine
10
674.033584478009
20
1317.98895442072
30
-0.0000000000009095
11
700.195584478013
21
1317.98895442072
31
-0.0000000000009095
39
0.0
210
0.0
220
0.0
230
1.0
1001
AcDbBlockRepETag
1070
1
1071
35
1005
7BBC
0
LINE
5
17A
330
22
100
AcDbEntity
8
0
62
256
6
ByLayer
370
-1
48
1.0
60
0
100
AcDbLine
10
674.033584478009
20
1322.98895442072
30
-0.0000000000009095
11
700.195584478013
21
1322.98895442072
31
-0.0000000000009095
39
0.0
210
0.0
220
0.0
230
1.0
1001
AcDbBlockRepETag
1070
1
1071
36
1005
7BBD
0
SPLINE
5
17B
330
22
100
AcDbEntity
8
0
62
256
6
ByLayer
370
-1
48
1.0
60
0
100
AcDbSpline
70
1060
71
3
42
0.0000001
43
0.0000001
44
0.0000000001
11
795.953584478015
21
1466.83295442072
31
-0.0000000000009095
11
789.095584478015
21
1450.06895442072
31
-0.0000000000009095
11
782.745584478016
21
1436.17515442072
31
-0.0000000000009095
11
776.395584478018
21
1422.28135442071
31
-0.0000000000009095
11
769.791584478011
21
1408.38755442072
31
-0.0000000000009095
11
762.679584478017
21
1394.49375442072
31
-0.0000000000009095
11
754.805584478021
21
1380.59995442071
31
-0.0000000000009095
11
746.677584478017
21
1366.70615442071
31
-0.0000000000009095
11
738.041584478011
21
1352.81235442072
31
-0.0000000000009095
11
727.627584478014
21
1338.91855442071
31
-0.0000000000009095
11
711.338146991231
21
1322.6084862135
31
-0.0000000000009095
1001
AcDbBlockRepETag
1070
1
1071
37
1005
7BBE
0
SPLINE
5
17C
330
22
100
AcDbEntity
8
0
62
256
6
ByLayer
370
-1
48
1.0
60
0
100
AcDbSpline
70
4
71
3
42
0.0000001
43
0.0000001
44
0.0000000001
40
0.0
40
0.0
40
0.0
40
0.0
40
8.55871128219248
40
8.55871128219248
40
15.9314075005907
40
15.9314075005907
40
20.8888467906774
40
20.8888467906774
40
25.8462860807641
40
25.8462860807641
40
31.6781741302075
40
31.6781741302075
40
36.4656934061791
40
36.4656934061791
40
41.2532126821506
40
41.2532126821506
40
48.9029445700638
40
48.9029445700638
40
56.5526764579769
40
56.5526764579769
40
65.1925014891069
40
65.1925014891069
40
73.8323265202369
40
73.8323265202369
40
79.695614514112
40
79.695614514112
40
94.4353114538791
40
94.4353114538791
40
100.964566212425
40
100.964566212425
40
107.493820970972
40
107.493820970972
40
116.270009544757
40
116.270009544757
40
125.046198118542
40
125.046198118542
40
142.598575266112
40
142.598575266112
40
147.737139237774
40
147.737139237774
40
152.875703209435
40
152.875703209435
40
163.152831152758
40
163.152831152758
40
168.496877359405
40
168.496877359405
40
168.496877359405
40
168.496877359405
41
1.0
10
791.30371330808
20
1468.67107794839
30
-0.0000000000009095
41
1.0
10
790.254584573704
20
1466.01711406508
30
-0.0000000000009095
41
1.0
10
789.210274148816
20
1463.37548226403
30
-0.0000000000009095
41
1.0
10
787.23714798093
20
1458.4978385232
30
-0.0000000000009095
41
1.0
10
786.312392600801
20
1456.25634590936
30
-0.0000000000009095
41
1.0
10
784.725005158551
20
1452.54330706331
30
-0.0000000000009095
41
1.0
10
784.075215250796
20
1451.06255913126
30
-0.0000000000009095
41
1.0
10
782.74289543082
20
1448.09232595568
30
-0.0000000000009095
41
1.0
10
782.06281096461
20
1446.60553492892
30
-0.0000000000009095
41
1.0
10
780.565910082667
20
1443.36018475088
30
-0.0000000000009095
41
1.0
10
779.746129046602
20
1441.59995296053
30
-0.0000000000009095
41
1.0
10
778.252900891621
20
1438.37546682776
30
-0.0000000000009095
41
1.0
10
777.580674865618
20
1436.91365140681
30
-0.0000000000009095
41
1.0
10
776.24881183789
20
1433.99924261101
30
-0.0000000000009095
41
1.0
10
775.587053362662
20
1432.54395901478
30
-0.0000000000009095
41
1.0
10
773.870938254106
20
1428.77185134809
30
-0.0000000000009095
41
1.0
10
772.818575150453
20
1426.46055915201
30
-0.0000000000009095
41
1.0
10
770.694879343846
20
1421.86369975913
30
-0.0000000000009095
41
1.0
10
769.620889608275
20
1419.57146973007
30
-0.0000000000009095
41
1.0
10
767.306455857353
20
1414.7044727044
30
-0.0000000000009095
41
1.0
10
766.061933420871
20
1412.13003350154
30
-0.0000000000009095
41
1.0
10
763.54024061804
20
1407.00610551105
30
-0.0000000000009095
41
1.0
10
762.263686940496
20
1404.46073245703
30
-0.0000000000009095
41
1.0
10
760.07499363563
20
1400.22769767672
30
-0.0000000000009095
41
1.0
10
759.177648354402
20
1398.52738761762
30
-0.0000000000009095
41
1.0
10
755.96730633366
20
1392.59775040056
30
-0.0000000000009095
41
1.0
10
753.53820271053
20
1388.38201569939
30
-0.0000000000009095
41
1.0
10
749.987826789453
20
1382.25856830296
30
-0.0000000000009095
41
1.0
10
748.895181864685
20
1380.3757448667
30
-0.0000000000009095
41
1.0
10
746.710304523291
20
1376.62204023291
30
-0.0000000000009095
41
1.0
10
745.616386011709
20
1374.7489788741
30
-0.0000000000009095
41
1.0
10
743.042324302973
20
1370.37087943544
30
-0.0000000000009095
41
1.0
10
741.559597955882
20
1367.86679375426
30
-0.0000000000009095
41
1.0
10
738.567481284375
20
1362.91694854966
30
-0.0000000000009095
41
1.0
10
737.054667699646
20
1360.46987177793
30
-0.0000000000009095
41
1.0
10
732.400222252698
20
1353.2507813428
30
-0.0000000000009095
41
1.0
10
729.136432563188
20
1348.59193940595
30
-0.0000000000009095
41
1.0
10
724.552987339888
20
1342.99808553197
30
-0.0000000000009095
41
1.0
10
723.492904493822
20
1341.76414280919
30
-0.0000000000009095
41
1.0
10
721.301593357486
20
1339.32936662616
30
-0.0000000000009095
41
1.0
10
720.173314642376
20
1338.12925770392
30
-0.0000000000009095
41
1.0
10
716.708725924291
20
1334.56407836637
30
-0.0000000000009095
41
1.0
10
714.292442944068
20
1332.23436508159
30
-0.0000000000009095
41
1.0
10
710.53655799646
20
1328.69492836851
30
-0.0000000000009095
41
1.0
10
709.236932990716
20
1327.48433558953
30
-0.0000000000009095
41
1.0
10
707.800376321196
20
1326.14178193934
30
-0.0000000000009095
1001
AcDbBlockRepETag
1070
1
1071
38
1005
7BBF
0
LINE
5
17D
330
22
100
AcDbEntity
8
0
62
256
6
ByLayer
370
-1
48
1.0
60
0
100
AcDbLine
10
795.953584478015
20
1466.83295442072
30
-0.0000000000009095
11
791.30371330808
21
1468.67107794839
31
-0.0000000000009095
39
0.0
210
0.0
220
0.0
230
1.0
1001
AcDbBlockRepETag
1070
1
1071
39
1005
7BC0
0
LINE
5
17E
330
22
100
AcDbEntity
8
0
62
256
6
ByLayer
370
-1
48
1.0
60
0
100
AcDbLine
10
1033.33182447801
20
444.48295442072
30
-0.0000000000009095
11
1033.33182447801
21
1466.83295442072
31
-0.0000000000009095
39
0.0
210
0.0
220
0.0
230
1.0
1001
AcDbBlockRepETag
1070
1
1071
40
1005
7BC1
0
LINE
5
17F
330
22
100
AcDbEntity
8
0
62
256
6
ByLayer
370
-1
48
1.0
60
0
100
AcDbLine
10
1041.33182447801
20
444.48295442072
30
-0.0000000000009095
11
1041.33182447801
21
1466.83295442072
31
-0.0000000000009095
39
0.0
210
0.0
220
0.0
230
1.0
1001
AcDbBlockRepETag
1070
1
1071
41
1005
7BC2
0
LINE
5
180
330
22
100
AcDbEntity
8
0
62
256
6
ByLayer
370
-1
48
1.0
60
0
100
AcDbLine
10
795.953584478015
20
444.48295442072
30
-0.0000000000009095
11
1041.33182447801
21
444.48295442072
31
-0.0000000000009095
39
0.0
210
0.0
220
0.0
230
1.0
1001
AcDbBlockRepETag
1070
1
1071
42
1005
7BC3
0
LINE
5
181
330
22
100
AcDbEntity
8
0
62
256
6
ByLayer
370
-1
48
1.0
60
0
100
AcDbLine
10
795.953584478015
20
1466.83295442072
30
-0.0000000000009095
11
1041.33182447801
21
1466.83295442072
31
-0.0000000000009095
39
0.0
210
0.0
220
0.0
230
1.0
1001
AcDbBlockRepETag
1070
1
1071
43
1005
7BC4
0
ARC
5
182
330
22
100
AcDbEntity
8
0
62
256
6
ByLayer
370
-1
48
1.0
60
0
100
AcDbCircle
39
0.0
10
700.195584478013
20
577.578954420718
30
-0.0000000000009095
40
15.748
210
0.0
220
0.0
230
1.0
100
AcDbArc
50
44.9637401280005
51
90.0
1001
AcDbBlockRepETag
1070
1
1071
44
1005
7BC5
0
ARC
5
183
330
22
100
AcDbEntity
8
0
62
256
6
ByLayer
370
-1
48
1.0
60
0
100
AcDbCircle
39
0.0
10
700.195584478013
20
577.578954420718
30
-0.0000000000009095
40
10.748
210
0.0
220
0.0
230
1.0
100
AcDbArc
50
44.9637401280005
51
90.0
1001
AcDbBlockRepETag
1070
1
1071
45
1005
7BC6
0
LINE
5
184
330
22
100
AcDbEntity
8
0
62
256
6
ByLayer
370
-1
48
1.0
60
0
100
AcDbLine
10
674.033584478009
20
593.326954420718
30
-0.0000000000009095
11
700.195584478013
21
593.326954420718
31
-0.0000000000009095
39
0.0
210
0.0
220
0.0
230
1.0
1001
AcDbBlockRepETag
1070
1
1071
46
1005
7BC7
0
LINE
5
185
330
22
100
AcDbEntity
8
0
62
256
6
ByLayer
370
-1
48
1.0
60
0
100
AcDbLine
10
674.033584478009
20
588.326954420718
30
-0.0000000000009095
11
700.195584478013
21
588.326954420718
31
-0.0000000000009095
39
0.0
210
0.0
220
0.0
230
1.0
1001
AcDbBlockRepETag
1070
1
1071
47
1005
7BC8
0
SPLINE
5
186
330
22
100
AcDbEntity
8
0
62
256
6
ByLayer
370
-1
48
1.0
60
0
100
AcDbSpline
70
1060
71
3
42
0.0000001
43
0.0000001
44
0.0000000001
11
795.953584478015
21
444.48295442072
31
-0.0000000000009095
11
789.095584478015
21
461.246954420716
31
-0.0000000000009095
11
782.745584478016
21
475.140754420721
31
-0.0000000000009095
11
776.395584478018
21
489.034554420719
31
-0.0000000000009095
11
769.791584478011
21
502.928354420725
31
-0.0000000000009095
11
762.679584478017
21
516.822154420723
31
-0.0000000000009095
11
754.805584478021
21
530.715954420721
31
-0.0000000000009095
11
746.677584478017
21
544.609754420726
31
-0.0000000000009095
11
738.041584478011
21
558.503554420724
31
-0.0000000000009095
11
727.627584478014
21
572.397354420722
31
-0.0000000000009095
11
711.338146991231
21
588.70742262794
31
-0.0000000000009095
1001
AcDbBlockRepETag
1070
1
1071
48
1005
7BC9
0
SPLINE
5
187
330
22
100
AcDbEntity
8
0
62
256
6
ByLayer
370
-1
48
1.0
60
0
100
AcDbSpline
70
4
71
3
42
0.0000001
43
0.0000001
44
0.0000000001
40
0.0
40
0.0
40
0.0
40
0.0
40
8.55871128219248
40
8.55871128219248
40
15.9314075005907
40
15.9314075005907
40
20.8888467906774
40
20.8888467906774
40
25.8462860807641
40
25.8462860807641
40
31.6781741302075
40
31.6781741302075
40
36.4656934061791
40
36.4656934061791
40
41.2532126821506
40
41.2532126821506
40
48.9029445700638
40
48.9029445700638
40
56.5526764579769
40
56.5526764579769
40
65.1925014891069
40
65.1925014891069
40
73.8323265202369
40
73.8323265202369
40
79.695614514112
40
79.695614514112
40
94.4353114538791
40
94.4353114538791
40
100.964566212425
40
100.964566212425
40
107.493820970972
40
107.493820970972
40
116.270009544757
40
116.270009544757
40
125.046198118542
40
125.046198118542
40
142.598575266112
40
142.598575266112
40
147.737139237774
40
147.737139237774
40
152.875703209435
40
152.875703209435
40
163.152831152758
40
163.152831152758
40
168.496877359405
40
168.496877359405
40
168.496877359405
40
168.496877359405
41
1.0
10
791.30371330808
20
442.644830893045
30
-0.0000000000009095
41
1.0
10
790.254584573704
20
445.298794776358
30
-0.0000000000009095
41
1.0
10
789.210274148816
20
447.94042657741
30
-0.0000000000009095
41
1.0
10
787.23714798093
20
452.818070318241
30
-0.0000000000009095
41
1.0
10
786.312392600801
20
455.059562932078
30
-0.0000000000009095
41
1.0
10
784.725005158551
20
458.772601778128
30
-0.0000000000009095
41
1.0
10
784.075215250796
20
460.253349710172
30
-0.0000000000009095
41
1.0
10
782.74289543082
20
463.223582885756
30
-0.0000000000009095
41
1.0
10
782.06281096461
20
464.71037391252
30
-0.0000000000009095
41
1.0
10
780.565910082667
20
467.95572409056
30
-0.0000000000009095
41
1.0
10
779.746129046602
20
469.715955880903
30
-0.0000000000009095
41
1.0
10
778.252900891621
20
472.940442013682
30
-0.0000000000009095
41
1.0
10
777.580674865618
20
474.402257434627
30
-0.0000000000009095
41
1.0
10
776.24881183789
20
477.316666230425
30
-0.0000000000009095
41
1.0
10
775.587053362662
20
478.771949826656
30
-0.0000000000009095
41
1.0
10
773.870938254106
20
482.544057493342
30
-0.0000000000009095
41
1.0
10
772.818575150453
20
484.855349689427
30
-0.0000000000009095
41
1.0
10
770.694879343846
20
489.452209082312
30
-0.0000000000009095
41
1.0
10
769.620889608275
20
491.744439111371
30
-0.0000000000009095
41
1.0
10
767.306455857353
20
496.611436137038
30
-0.0000000000009095
41
1.0
10
766.061933420871
20
499.185875339888
30
-0.0000000000009095
41
1.0
10
763.54024061804
20
504.309803330387
30
-0.0000000000009095
41
1.0
10
762.263686940496
20
506.855176384404
30
-0.0000000000009095
41
1.0
10
760.07499363563
20
511.088211164711
30
-0.0000000000009095
41
1.0
10
759.177648354402
20
512.788521223807
30
-0.0000000000009095
41
1.0
10
755.96730633366
20
518.718158440872
30
-0.0000000000009095
41
1.0
10
753.53820271053
20
522.933893142039
30
-0.0000000000009095
41
1.0
10
749.987826789453
20
529.057340538475
30
-0.0000000000009095
41
1.0
10
748.895181864685
20
530.940163974734
30
-0.0000000000009095
41
1.0
10
746.710304523291
20
534.69386860853
30
-0.0000000000009095
41
1.0
10
745.616386011709
20
536.566929967343
30
-0.0000000000009095
41
1.0
10
743.042324302973
20
540.945029405997
30
-0.0000000000009095
41
1.0
10
741.559597955882
20
543.44911508718
30
-0.0000000000009095
41
1.0
10
738.567481284375
20
548.398960291775
30
-0.0000000000009095
41
1.0
10
737.054667699646
20
550.846037063504
30
-0.0000000000009095
41
1.0
10
732.400222252698
20
558.065127498634
30
-0.0000000000009095
41
1.0
10
729.136432563188
20
562.72396943549
30
-0.0000000000009095
41
1.0
10
724.552987339888
20
568.317823309462
30
-0.0000000000009095
41
1.0
10
723.492904493822
20
569.551766032248
30
-0.0000000000009095
41
1.0
10
721.301593357486
20
571.986542215283
30
-0.0000000000009095
41
1.0
10
720.173314642376
20
573.186651137515
30
-0.0000000000009095
41
1.0
10
716.708725924291
20
576.751830475059
30
-0.0000000000009095
41
1.0
10
714.292442944068
20
579.081543759839
30
-0.0000000000009095
41
1.0
10
710.53655799646
20
582.620980472919
30
-0.0000000000009095
41
1.0
10
709.236932990716
20
583.831573251908
30
-0.0000000000009095
41
1.0
10
707.8003763212
20
585.174126902089
30
-0.0000000000009095
1001
AcDbBlockRepETag
1070
1
1071
49
1005
7BCA
0
LINE
5
188
330
22
100
AcDbEntity
8
0
62
256
6
ByLayer
370
-1
48
1.0
60
0
100
AcDbLine
10
795.953584478015
20
444.48295442072
30
-0.0000000000009095
11
791.30371330808
21
442.644830893045
31
-0.0000000000009095
39
0.0
210
0.0
220
0.0
230
1.0
1001
AcDbBlockRepETag
1070
1
1071
50
1005
7BCB
0
LINE
5
189
330
22
100
AcDbEntity
8
0
62
256
6
ByLayer
370
-1
48
1.0
60
0
100
AcDbLine
10
1033.33182447801
20
444.48295442072
30
-0.0000000000009095
11
1033.33182447801
21
1466.83295442072
31
-0.0000000000009095
39
0.0
210
0.0
220
0.0
230
1.0
1001
AcDbBlockRepETag
1070
1
1071
51
1005
7BCC
0
LINE
5
18A
330
22
100
AcDbEntity
8
0
62
256
6
ByLayer
370
-1
48
1.0
60
0
100
AcDbLine
10
1033.33182447801
20
444.48295442072
30
-0.0000000000009095
11
1033.33182447801
21
1466.83295442072
31
-0.0000000000009095
39
0.0
210
0.0
220
0.0
230
1.0
1001
AcDbBlockRepETag
1070
1
1071
52
1005
7BCD
0
LINE
5
18B
330
22
100
AcDbEntity
8
\U+56FE\U+5C423
62
256
6
ByLayer
370
-1
48
1.0
60
0
100
AcDbLine
10
1826.981824478
20
927.876704420734
30
-0.0000000000009095
11
928.981824478004
21
927.876704420734
31
-0.0000000000009095
39
0.0
210
0.0
220
0.0
230
1.0
0
LINE
5
18D
330
22
100
AcDbEntity
8
\U+56FE\U+5C423
62
256
6
ByLayer
370
-1
48
1.0
60
0
100
AcDbLine
10
926.981824478004
20
929.876704420734
30
-0.0000000000009095
11
926.981824478004
21
981.439204420734
31
-0.0000000000009095
39
0.0
210
0.0
220
0.0
230
1.0
0
LINE
5
18E
330
22
100
AcDbEntity
8
\U+56FE\U+5C423
62
256
6
ByLayer
370
-1
48
1.0
60
0
100
AcDbLine
10
928.981824478004
20
927.876704420734
30
-0.0000000000009095
11
926.981824478004
21
929.876704420734
31
-0.0000000000009095
39
0.0
210
0.0
220
0.0
230
1.0
0
LINE
5
18F
330
22
100
AcDbEntity
8
\U+56FE\U+5C423
62
256
6
ByLayer
370
-1
48
1.0
60
0
100
AcDbLine
10
926.981824478004
20
981.439204420734
30
-0.0000000000009095
11
928.981824478004
21
983.439204420734
31
-0.0000000000009095
39
0.0
210
0.0
220
0.0
230
1.0
0
LINE
5
190
330
22
100
AcDbEntity
8
\U+56FE\U+5C423
62
256
6
ByLayer
370
-1
48
1.0
60
0
100
AcDbLine
10
928.981824478004
20
983.439204420734
30
-0.0000000000009095
11
1826.981824478
21
983.439204420734
31
-0.0000000000009095
39
0.0
210
0.0
220
0.0
230
1.0
0
LINE
5
191
330
22
100
AcDbEntity
8
\U+56FE\U+5C423
62
256
6
ByLayer
370
-1
48
1.0
60
0
100
AcDbLine
10
1966.981824478
20
981.157954420734
30
-0.0000000000009095
11
1966.981824478
21
930.157954420734
31
-0.0000000000009095
39
0.0
210
0.0
220
0.0
230
1.0
0
LINE
5
192
330
22
100
AcDbEntity
8
\U+56FE\U+5C423
62
256
6
ByLayer
370
-1
48
1.0
60
0
100
AcDbLine
10
926.981824478004
20
981.157954420734
30
-0.0000000000009095
11
926.981824478004
21
930.157954420734
31
-0.0000000000009095
39
0.0
210
0.0
220
0.0
230
1.0
0
LINE
5
193
330
22
100
AcDbEntity
8
\U+56FE\U+5C423
62
256
6
ByLayer
370
-1
48
1.0
60
0
100
AcDbLine
10
1964.981824478
20
983.157954420734
30
-0.0000000000009095
11
1966.981824478
21
981.157954420734
31
-0.0000000000009095
39
0.0
210
0.0
220
0.0
230
1.0
0
LINE
5
194
330
22
100
AcDbEntity
8
\U+56FE\U+5C423
62
256
6
ByLayer
370
-1
48
1.0
60
0
100
AcDbLine
10
1964.981824478
20
928.157954420734
30
-0.0000000000009095
11
1966.981824478
21
930.157954420734
31
-0.0000000000009095
39
0.0
210
0.0
220
0.0
230
1.0
0
LINE
5
195
330
22
100
AcDbEntity
8
\U+56FE\U+5C423
62
256
6
ByLayer
370
-1
48
1.0
60
0
100
AcDbLine
10
1964.981824478
20
983.157954420734
30
-0.0000000000009095
11
1826.981824478
21
983.157954420734
31
-0.0000000000009095
39
0.0
210
0.0
220
0.0
230
1.0
0
LINE
5
196
330
22
100
AcDbEntity
8
\U+56FE\U+5C423
62
256
6
ByLayer
370
-1
48
1.0
60
0
100
AcDbLine
10
1964.981824478
20
928.157954420734
30
-0.0000000000009095
11
1826.981824478
21
928.157954420734
31
-0.0000000000009095
39
0.0
210
0.0
220
0.0
230
1.0
0
LINE
5
197
330
22
100
AcDbEntity
8
\U+56FE\U+5C423
62
256
6
ByLayer
370
-1
48
1.0
60
0
100
AcDbLine
10
1047.981824478
20
963.657954420734
30
-0.0000000000009095
11
926.981824478004
21
963.657954420734
31
-0.0000000000009095
39
0.0
210
0.0
220
0.0
230
1.0
0
LINE
5
198
330
22
100
AcDbEntity
8
\U+56FE\U+5C423
62
256
6
ByLayer
370
-1
48
1.0
60
0
100
AcDbLine
10
1047.981824478
20
947.657954420734
30
-0.0000000000009095
11
926.981824478004
21
947.657954420734
31
-0.0000000000009095
39
0.0
210
0.0
220
0.0
230
1.0
0
LINE
5
199
330
22
100
AcDbEntity
8
\U+56FE\U+5C423
62
256
6
ByLayer
370
-1
48
1.0
60
0
100
AcDbLine
10
1966.981824478
20
963.657954420734
30
-0.0000000000009095
11
1845.981824478
21
963.657954420734
31
-0.0000000000009095
39
0.0
210
0.0
220
0.0
230
1.0
0
LINE
5
19A
330
22
100
AcDbEntity
8
\U+56FE\U+5C423
62
256
6
ByLayer
370
-1
48
1.0
60
0
100
AcDbLine
10
1966.981824478
20
947.657954420734
30
-0.0000000000009095
11
1845.981824478
21
947.657954420734
31
-0.0000000000009095
39
0.0
210
0.0
220
0.0
230
1.0
0
ARC
5
19B
330
22
100
AcDbEntity
8
\U+56FE\U+5C423
62
256
6
ByLayer
370
-1
48
1.0
60
0
100
AcDbCircle
39
0.0
10
1845.981824478
20
955.657954420734
30
-0.0000000000009095
40
8.0
210
0.0
220
0.0
230
1.0
100
AcDbArc
50
90.0
51
270.0
0
LINE
5
19C
330
22
100
AcDbEntity
8
\U+56FE\U+5C423
62
256
6
ByLayer
370
-1
48
1.0
60
0
100
AcDbLine
10
1826.981824478
20
983.439204420734
30
-0.0000000000009095
11
1826.981824478
21
927.876704420734
31
-0.0000000000009095
39
0.0
210
0.0
220
0.0
230
1.0
0
LINE
5
19D
330
22
100
AcDbEntity
8
\U+56FE\U+5C423
62
256
6
ByLayer
370
-1
48
1.0
60
0
100
AcDbLine
10
928.981824478004
20
927.876704420734
30
-0.0000000000009095
11
928.981824478004
21
947.657954420734
31
-0.0000000000009095
39
0.0
210
0.0
220
0.0
230
1.0
0
LINE
5
19E
330
22
100
AcDbEntity
8
\U+56FE\U+5C423
62
256
6
ByLayer
370
-1
48
1.0
60
0
100
AcDbLine
10
928.981824478004
20
983.439204420734
30
-0.0000000000009095
11
928.981824478004
21
963.657954420734
31
-0.0000000000009095
39
0.0
210
0.0
220
0.0
230
1.0
0
LINE
5
19F
330
22
100
AcDbEntity
8
\U+56FE\U+5C423
62
256
6
ByLayer
370
-1
48
1.0
60
0
100
AcDbLine
10
1964.981824478
20
928.157954420734
30
-0.0000000000009095
11
1964.981824478
21
947.657954420734
31
-0.0000000000009095
39
0.0
210
0.0
220
0.0
230
1.0
0
LINE
5
1A0
330
22
100
AcDbEntity
8
\U+56FE\U+5C423
62
256
6
ByLayer
370
-1
48
1.0
60
0
100
AcDbLine
10
1964.981824478
20
983.157954420734
30
-0.0000000000009095
11
1964.981824478
21
963.657954420734
31
-0.0000000000009095
39
0.0
210
0.0
220
0.0
230
1.0
0
ARC
5
1A1
330
22
100
AcDbEntity
8
\U+56FE\U+5C423
62
256
6
ByLayer
370
-1
48
1.0
60
0
100
AcDbCircle
39
0.0
10
1047.981824478
20
955.657954420734
30
-0.0000000000009095
40
8.0
210
0.0
220
0.0
230
1.0
100
AcDbArc
50
270.0
51
90.0
0
ENDBLK
5
23
330
22
100
AcDbEntity
8
0
100
AcDbBlockEnd
0
BLOCK
5
1A4
330
1A2
100
AcDbEntity
67
1
8
0
100
AcDbBlockBegin
2
*Paper_Space
70
0
10
0.0
20
0.0
30
0.0
3
*Paper_Space
4

0
ENDBLK
5
1A3
330
1A2
100
AcDbEntity
8
0
100
AcDbBlockEnd
0
ENDSEC
0
SECTION
2
ENTITIES
0
VIEWPORT
5
1A6
330
1A2
100
AcDbEntity
67
1
8
0
62
256
6
ByLayer
370
-1
48
1.0
60
0
100
AcDbViewport
10
0.0
20
0.0
30
0.0
40
297.0
41
210.0
68
1
69
1
12
50.0
22
100.0
13
0.0
23
0.0
14
10.0
24
10.0
15
10.0
25
10.0
16
0.0
26
0.0
36
1.0
17
0.0
27
0.0
37
0.0
42
50.0
43
0.0
44
0.0
45
250.0
50
0.0
51
0.0
72
1000
90
819232
110
0.0
120
0.0
130
0.0
111
1.0
121
0.0
131
0.0
112
0.0
122
1.0
132
0.0
0
ENDSEC
0
SECTION
2
OBJECTS
0
DICTIONARY
5
1AB
330
0
100
AcDbDictionary
280
1
281
1
3
ACAD_GROUP
350
12
3
ACAD_LAYOUT
350
1A5
3
ACAD_DGNDEFINITIONS
350
F
3
ACAD_DWFDEFINITIONS
350
10
3
ACAD_PDFDEFINITIONS
350
11
3
ACAD_MLINESTYLE
350
B
3
ACAD_IMAGE_DICT
350
E
3
ACAD_IMAGE_VARS
350
21
0
DICTIONARY
5
12
330
1AB
100
AcDbDictionary
280
1
281
1
0
DICTIONARY
5
1A5
330
1AB
100
AcDbDictionary
280
1
281
1
3
Model
350
20
3
Layout1
350
1A7
0
DICTIONARY
5
F
330
1AB
100
AcDbDictionary
280
1
281
1
0
DICTIONARY
5
10
330
1AB
100
AcDbDictionary
280
1
281
1
0
DICTIONARY
5
11
330
1AB
100
AcDbDictionary
280
1
281
1
0
DICTIONARY
5
B
330
1AB
100
AcDbDictionary
280
1
281
1
3
Standard
350
1B
0
DICTIONARY
5
E
330
1AB
100
AcDbDictionary
280
1
281
1
0
DICTIONARY
5
6
330
5
100
AcDbDictionary
280
1
281
1
3
ACAD_LAYERSTATES
360
1AC
0
DICTIONARY
5
1AC
330
6
100
AcDbDictionary
280
1
281
1
0
LAYOUT
5
20
330
1A5
100
AcDbPlotSettings
1

2
none_device
4
ISO_A4_(210.00_x_297.00_MM)
6

40
7.5
41
20.0
42
7.5
43
20.0
44
210.0
45
297.0
46
0.0
47
0.0
48
0.0
49
0.0
140
0.0
141
0.0
142
1.0
143
1.0
70
11952
72
1
73
1
74
1
7

75
0
76
0
77
2
78
300
147
1.0
148
0.0
149
0.0
100
AcDbLayout
1
Model
71
0
10
-20.0
20
-7.5
11
277.0
21
202.5
12
0.0
22
0.0
32
0.0
14
25.7
24
19.5
34
0.0
15
231.3
25
175.5
35
0.0
146
0.0
13
0.0
23
0.0
33
0.0
16
1.0
26
0.0
36
0.0
17
0.0
27
1.0
37
0.0
76
0
330
1C
0
LAYOUT
5
1A7
330
1A5
100
AcDbPlotSettings
1

2
none_device
4
ISO_A4_(210.00_x_297.00_MM)
6

40
7.5
41
20.0
42
7.5
43
20.0
44
210.0
45
297.0
46
0.0
47
0.0
48
0.0
49
0.0
140
0.0
141
0.0
142
1.0
143
1.0
70
688
72
1
73
1
74
1
7

75
0
76
0
77
2
78
300
147
1.0
148
0.0
149
0.0
100
AcDbLayout
1
Layout1
71
1
10
-20.0
20
-7.5
11
277.0
21
202.5
12
0.0
22
0.0
32
0.0
14
25.7
24
19.5
34
0.0
15
231.3
25
175.5
35
0.0
146
0.0
13
0.0
23
0.0
33
0.0
16
1.0
26
0.0
36
0.0
17
0.0
27
1.0
37
0.0
76
0
330
1A2
0
MLINESTYLE
5
1B
330
B
100
AcDbMlineStyle
2
Standard
70
0
3

62
256
51
90.0
52
90.0
71
2
49
0.5
62
256
6
ByLayer
49
-0.5
62
256
6
ByLayer
0
RASTERVARIABLES
5
21
330
E
100
AcDbRasterVariables
90
0
70
1
71
1
72
0
0
ENDSEC
0
EOF
