999
DXF file generated by netDxf https://github.com/haplokuon/netDxf, Copyright(C) 2009-2020 Daniel Carvajal, Licensed under LGPL
0
SECTION
2
HEADER
9
$ACADVER
1
AC1015
9
$DWGCODEPAGE
3
ANSI_1252
9
$HANDSEED
5
174
9
$ANGBASE
50
0.0
9
$ANGDIR
70
0
9
$ATTMODE
70
1
9
$AUNITS
70
0
9
$AUPREC
70
0
9
$CECOLOR
62
256
9
$CELTSCALE
40
1.0
9
$CELTYPE
6
ByLayer
9
$CELWEIGHT
370
-1
9
$CLAYER
8
0
9
$CMLJUST
70
0
9
$CMLSCALE
40
20.0
9
$CMLSTYLE
2
Standard
9
$DIMSTYLE
2
Standard
9
$TEXTSIZE
40
2.5
9
$TEXTSTYLE
7
Standard
9
$LUNITS
70
2
9
$LUPREC
70
4
9
$MIRRTEXT
70
0
9
$EXTNAMES
290
1
9
$INSBASE
10
0.0
20
0.0
30
0.0
9
$INSUNITS
70
0
9
$LTSCALE
40
1.0
9
$LWDISPLAY
290
0
9
$PDMODE
70
0
9
$PDSIZE
40
0.0
9
$PLINEGEN
70
0
9
$PSLTSCALE
70
1
9
$TDCREATE
40
2459821.45291917
9
$TDUCREATE
40
2459821.11958583
9
$TDUPDATE
40
2459821.45291917
9
$TDUUPDATE
40
2459821.11958583
9
$TDINDWG
40
0.0
9
$UCSORG
10
0.0
20
0.0
30
0.0
9
$UCSXDIR
10
1.0
20
0.0
30
0.0
9
$UCSYDIR
10
0.0
20
1.0
30
0.0
9
$DIMADEC
70
0
9
$DIMALT
70
0
9
$DIMALTD
70
2
9
$DIMALTF
40
25.4
9
$DIMALTRND
40
0.0
9
$DIMALTTD
70
2
9
$DIMALTTZ
70
0
9
$DIMALTU
70
2
9
$DIMALTZ
70
0
9
$DIMAPOST
1

9
$DIMATFIT
70
3
9
$DIMAUNIT
70
0
9
$DIMASZ
40
0.18
9
$DIMAZIN
70
0
9
$DIMSAH
70
0
9
$DIMBLK
1

9
$DIMLDRBLK
1

9
$DIMCEN
40
0.09
9
$DIMCLRD
70
0
9
$DIMCLRE
70
0
9
$DIMCLRT
70
0
9
$DIMDEC
70
4
9
$DIMDLE
40
0.0
9
$DIMDLI
40
0.38
9
$DIMDSEP
70
46
9
$DIMEXE
40
0.18
9
$DIMEXO
40
0.0625
9
$DIMFXLON
70
0
9
$DIMFXL
40
1.0
9
$DIMGAP
40
0.09
9
$DIMJUST
70
0
9
$DIMLFAC
40
1.0
9
$DIMLUNIT
70
2
9
$DIMLWD
70
-2
9
$DIMLWE
70
-2
9
$DIMPOST
1

9
$DIMRND
40
0.0
9
$DIMSCALE
40
1.0
9
$DIMSD1
70
0
9
$DIMSD2
70
0
9
$DIMSE1
70
0
9
$DIMSE2
70
0
9
$DIMSOXD
70
0
9
$DIMTAD
70
0
9
$DIMTDEC
70
4
9
$DIMTFAC
40
1.0
9
$DIMTIH
70
0
9
$DIMTIX
70
0
9
$DIMTM
40
0.0
9
$DIMTMOVE
70
0
9
$DIMTOFL
70
0
9
$DIMTOH
70
0
9
$DIMTOL
70
0
9
$DIMLIM
70
0
9
$DIMTOLJ
70
1
9
$DIMTP
40
0.0
9
$DIMTXT
40
0.18
9
$DIMTXTDIRECTION
70
0
9
$DIMTZIN
70
0
9
$DIMZIN
70
0
9
$DIMFRAC
70
0
9
$DIMLTYPE
6
ByBlock
9
$DIMLTEX1
6
ByBlock
9
$DIMLTEX2
6
ByBlock
0
ENDSEC
0
SECTION
2
CLASSES
0
CLASS
1
RASTERVARIABLES
2
AcDbRasterVariables
3
ISM
90
0
280
0
281
0
0
ENDSEC
0
SECTION
2
TABLES
0
TABLE
2
APPID
5
4
330
0
100
AcDbSymbolTable
70
5
0
APPID
5
19
330
4
100
AcDbSymbolTableRecord
100
AcDbRegAppTableRecord
2
ACAD
70
0
0
APPID
5
27
330
4
100
AcDbSymbolTableRecord
100
AcDbRegAppTableRecord
2
AcAecLayerStandard
70
0
0
APPID
5
16F
330
4
100
AcDbSymbolTableRecord
100
AcDbRegAppTableRecord
2
AcCmTransparency
70
0
0
APPID
5
170
330
4
100
AcDbSymbolTableRecord
100
AcDbRegAppTableRecord
2
GradientColor1ACI
70
0
0
APPID
5
171
330
4
100
AcDbSymbolTableRecord
100
AcDbRegAppTableRecord
2
GradientColor2ACI
70
0
0
ENDTAB
0
TABLE
2
VPORT
5
1
330
0
100
AcDbSymbolTable
70
1
0
VPORT
5
2
330
1
100
AcDbSymbolTableRecord
100
AcDbViewportTableRecord
2
*Active
70
0
10
0.0
20
0.0
11
1.0
21
1.0
12
0.0
22
0.0
13
0.0
23
0.0
14
0.5
24
0.5
15
10.0
25
10.0
16
0.0
26
0.0
36
1.0
17
0.0
27
0.0
37
0.0
40
10.0
41
1.0
75
0
76
1
0
ENDTAB
0
TABLE
2
LTYPE
5
7
330
0
100
AcDbSymbolTable
70
4
0
LTYPE
5
15
330
7
100
AcDbSymbolTableRecord
100
AcDbLinetypeTableRecord
2
Continuous
70
0
3
Solid line
72
65
73
0
40
0.0
0
LTYPE
5
16
330
7
100
AcDbSymbolTableRecord
100
AcDbLinetypeTableRecord
2
ByLayer
70
0
3

72
65
73
0
40
0.0
0
LTYPE
5
17
330
7
100
AcDbSymbolTableRecord
100
AcDbLinetypeTableRecord
2
ByBlock
70
0
3

72
65
73
0
40
0.0
0
LTYPE
5
2B
330
7
100
AcDbSymbolTableRecord
100
AcDbLinetypeTableRecord
2
\U+70B9\U+753B\U+7EBF
70
0
3
\U+70B9\U+753B\U+7EBF: ____ . ____ . ____ . ____ . ____ . ____
72
65
73
4
40
18.0
49
12.0
74
0
49
-2.0
74
0
49
2.0
74
0
49
-2.0
74
0
0
ENDTAB
0
TABLE
2
LAYER
5
5
102
{ACAD_XDICTIONARY
360
6
102
}
330
0
100
AcDbSymbolTable
70
3
0
LAYER
5
14
330
5
100
AcDbSymbolTableRecord
100
AcDbLayerTableRecord
2
0
70
0
62
7
6
Continuous
290
1
370
-3
390
0
0
LAYER
5
26
330
5
100
AcDbSymbolTableRecord
100
AcDbLayerTableRecord
2
\U+7C97\U+5B9E\U+7EBF\U+5C42
70
0
62
7
6
Continuous
290
1
370
35
390
0
1001
AcAecLayerStandard
1000

1000
\U+7C97\U+5B9E\U+7EBF\U+5C42
0
LAYER
5
2A
330
5
100
AcDbSymbolTableRecord
100
AcDbLayerTableRecord
2
\U+4E2D\U+5FC3\U+7EBF\U+5C42
70
0
62
1
6
\U+70B9\U+753B\U+7EBF
290
1
370
18
390
0
1001
AcAecLayerStandard
1000

1000
\U+4E2D\U+5FC3\U+7EBF\U+5C42
0
ENDTAB
0
TABLE
2
STYLE
5
8
330
0
100
AcDbSymbolTable
70
1
0
STYLE
5
18
330
8
100
AcDbSymbolTableRecord
100
AcDbTextStyleTableRecord
2
Standard
3
simplex.shx
70
0
71
0
40
0.0
41
1.0
42
0.0
50
0.0
0
ENDTAB
0
TABLE
2
DIMSTYLE
5
A
330
0
100
AcDbSymbolTable
70
1
100
AcDbDimStyleTable
0
DIMSTYLE
105
1A
330
A
100
AcDbSymbolTableRecord
100
AcDbDimStyleTableRecord
2
Standard
3

4

40
1.0
41
0.18
42
0.0625
43
0.38
44
0.18
45
0.0
46
0.0
47
0.0
48
0.0
49
1.0
70
0
71
0
72
0
73
0
74
0
75
0
76
0
77
0
78
0
79
0
140
0.18
141
0.09
143
25.4
144
1.0
146
1.0
147
0.09
148
0.0
170
0
171
2
172
0
174
0
175
0
176
0
177
0
178
0
179
0
271
4
272
4
273
2
274
2
275
0
276
0
277
2
278
46
279
0
280
0
281
0
282
0
283
1
284
0
285
0
286
0
289
3
290
0
294
0
340
18
173
0
345
17
346
17
347
17
371
-2
372
-2
0
ENDTAB
0
TABLE
2
VIEW
5
3
330
0
100
AcDbSymbolTable
70
0
0
ENDTAB
0
TABLE
2
UCS
5
C
330
0
100
AcDbSymbolTable
70
0
0
ENDTAB
0
TABLE
2
BLOCK_RECORD
5
D
330
0
100
AcDbSymbolTable
70
3
0
BLOCK_RECORD
5
1C
330
D
100
AcDbSymbolTableRecord
100
AcDbBlockTableRecord
2
*Model_Space
340
20
0
BLOCK_RECORD
5
22
330
D
100
AcDbSymbolTableRecord
100
AcDbBlockTableRecord
2
C$6F86D92A8C6E4CB7974A0CAB0F2AAE7E_1
340
0
70
0
280
1
281
0
1001
ACAD
1000
DesignCenter Data
1002
{
1070
1
1070
0
1002
}
0
BLOCK_RECORD
5
169
330
D
100
AcDbSymbolTableRecord
100
AcDbBlockTableRecord
2
*Paper_Space
340
16E
0
ENDTAB
0
ENDSEC
0
SECTION
2
BLOCKS
0
BLOCK
5
1E
330
1C
100
AcDbEntity
67
0
8
0
100
AcDbBlockBegin
2
*Model_Space
70
0
10
0.0
20
0.0
30
0.0
3
*Model_Space
4

0
ENDBLK
5
1D
330
1C
100
AcDbEntity
8
0
100
AcDbBlockEnd
0
BLOCK
5
24
330
22
100
AcDbEntity
8
0
100
AcDbBlockBegin
2
C$6F86D92A8C6E4CB7974A0CAB0F2AAE7E_1
70
0
10
0.0
20
0.0
30
0.0
3
C$6F86D92A8C6E4CB7974A0CAB0F2AAE7E_1
4

0
CIRCLE
5
25
330
22
100
AcDbEntity
8
\U+7C97\U+5B9E\U+7EBF\U+5C42
62
256
6
ByLayer
370
-1
48
1.0
60
0
100
AcDbCircle
10
2619.46160819323
20
2619.46160821163
30
0.0
40
2400.0
39
0.0
210
0.0
220
0.0
230
1.0
0
CIRCLE
5
28
330
22
100
AcDbEntity
8
\U+7C97\U+5B9E\U+7EBF\U+5C42
62
256
6
ByLayer
370
-1
48
1.0
60
0
100
AcDbCircle
10
2619.46160819323
20
2619.46160821163
30
0.0
40
2500.0
39
0.0
210
0.0
220
0.0
230
1.0
0
LINE
5
29
330
22
100
AcDbEntity
8
\U+4E2D\U+5FC3\U+7EBF\U+5C42
62
256
6
ByLayer
370
-1
48
1.0
60
0
100
AcDbLine
10
0.0
20
2619.46160821163
30
0.0
11
5238.92321635387
21
2619.46160821163
31
0.0
39
0.0
210
0.0
220
0.0
230
1.0
0
LINE
5
2C
330
22
100
AcDbEntity
8
\U+4E2D\U+5FC3\U+7EBF\U+5C42
62
256
6
ByLayer
370
-1
48
1.0
60
0
100
AcDbLine
10
2619.46160819323
20
0.0
30
0.0
11
2619.46160819323
21
5238.92321640486
31
0.0
39
0.0
210
0.0
220
0.0
230
1.0
0
CIRCLE
5
2D
330
22
100
AcDbEntity
8
\U+7C97\U+5B9E\U+7EBF\U+5C42
62
256
6
ByLayer
370
-1
48
1.0
60
0
100
AcDbCircle
10
2619.46160819323
20
2619.46160821163
30
0.0
40
2410.0
39
0.0
210
0.0
220
0.0
230
1.0
0
CIRCLE
5
2E
330
22
100
AcDbEntity
8
\U+4E2D\U+5FC3\U+7EBF\U+5C42
62
256
6
ByLayer
370
-1
48
1.0
60
0
100
AcDbCircle
10
2619.46160819323
20
2619.46160821163
30
0.0
40
2460.0
39
0.0
210
0.0
220
0.0
230
1.0
0
CIRCLE
5
2F
330
22
100
AcDbEntity
8
\U+7C97\U+5B9E\U+7EBF\U+5C42
62
256
6
ByLayer
370
-1
48
1.0
60
0
100
AcDbCircle
10
2555.06631535586
20
5078.6186276515
30
0.0
40
7.0
39
0.0
210
0.0
220
0.0
230
1.0
0
LINE
5
30
330
22
100
AcDbEntity
8
\U+4E2D\U+5FC3\U+7EBF\U+5C42
62
256
6
ByLayer
370
-1
48
1.0
60
0
100
AcDbLine
10
2555.30190789063
20
5069.62171172672
30
0.0
11
2554.83072282109
21
5087.61554357628
31
0.0
39
0.0
210
0.0
220
0.0
230
1.0
0
CIRCLE
5
31
330
22
100
AcDbEntity
8
\U+7C97\U+5B9E\U+7EBF\U+5C42
62
256
6
ByLayer
370
-1
48
1.0
60
0
100
AcDbCircle
10
2426.45223510987
20
5071.87824620022
30
0.0
40
7.0
39
0.0
210
0.0
220
0.0
230
1.0
0
LINE
5
32
330
22
100
AcDbEntity
8
\U+4E2D\U+5FC3\U+7EBF\U+5C42
62
256
6
ByLayer
370
-1
48
1.0
60
0
100
AcDbLine
10
2427.15836697142
20
5062.90599019662
30
0.0
11
2425.74610324831
21
5080.85050220382
31
0.0
39
0.0
210
0.0
220
0.0
230
1.0
0
CIRCLE
5
33
330
22
100
AcDbEntity
8
\U+7C97\U+5B9E\U+7EBF\U+5C42
62
256
6
ByLayer
370
-1
48
1.0
60
0
100
AcDbCircle
10
2298.36718029961
20
5058.41596133148
30
0.0
40
7.0
39
0.0
210
0.0
220
0.0
230
1.0
0
LINE
5
34
330
22
100
AcDbEntity
8
\U+4E2D\U+5FC3\U+7EBF\U+5C42
62
256
6
ByLayer
370
-1
48
1.0
60
0
100
AcDbLine
10
2299.54191602959
20
5049.49295757911
30
0.0
11
2297.19244456963
21
5067.33896508384
31
0.0
39
0.0
210
0.0
220
0.0
230
1.0
0
CIRCLE
5
35
330
22
100
AcDbEntity
8
\U+7C97\U+5B9E\U+7EBF\U+5C42
62
256
6
ByLayer
370
-1
48
1.0
60
0
100
AcDbCircle
10
2171.16222315726
20
5038.26867223235
30
0.0
40
7.0
39
0.0
210
0.0
220
0.0
230
1.0
0
LINE
5
36
330
22
100
AcDbEntity
8
\U+4E2D\U+5FC3\U+7EBF\U+5C42
62
256
6
ByLayer
370
-1
48
1.0
60
0
100
AcDbLine
10
2172.80234288668
20
5029.41937806427
30
0.0
11
2169.52210342783
21
5047.11796640042
31
0.0
39
0.0
210
0.0
220
0.0
230
1.0
0
CIRCLE
5
37
330
22
100
AcDbEntity
8
\U+7C97\U+5B9E\U+7EBF\U+5C42
62
256
6
ByLayer
370
-1
48
1.0
60
0
100
AcDbCircle
10
2045.18602362841
20
5011.49160122183
30
0.0
40
7.0
39
0.0
210
0.0
220
0.0
230
1.0
0
LINE
5
38
330
22
100
AcDbEntity
8
\U+4E2D\U+5FC3\U+7EBF\U+5C42
62
256
6
ByLayer
370
-1
48
1.0
60
0
100
AcDbLine
10
2047.28703190312
20
5002.74027193825
30
0.0
11
2043.08501535371
21
5020.24293050541
31
0.0
39
0.0
210
0.0
220
0.0
230
1.0
0
CIRCLE
5
39
330
22
100
AcDbEntity
8
\U+7C97\U+5B9E\U+7EBF\U+5C42
62
256
6
ByLayer
370
-1
48
1.0
60
0
100
AcDbCircle
10
1920.7838737195
20
4978.15814239032
30
0.0
40
7.0
39
0.0
210
0.0
220
0.0
230
1.0
0
LINE
5
3A
330
22
100
AcDbEntity
8
\U+4E2D\U+5FC3\U+7EBF\U+5C42
62
256
6
ByLayer
370
-1
48
1.0
60
0
100
AcDbLine
10
1923.34001182183
20
4969.5287647765
30
0.0
11
1918.22773561716
21
4986.78752000413
31
0.0
39
0.0
210
0.0
220
0.0
230
1.0
0
CIRCLE
5
3B
330
22
100
AcDbEntity
8
\U+7C97\U+5B9E\U+7EBF\U+5C42
62
256
6
ByLayer
370
-1
48
1.0
60
0
100
AcDbCircle
10
1798.29675107632
20
4938.35966043148
30
0.0
40
7.0
39
0.0
210
0.0
220
0.0
230
1.0
0
LINE
5
3C
330
22
100
AcDbEntity
8
\U+4E2D\U+5FC3\U+7EBF\U+5C42
62
256
6
ByLayer
370
-1
48
1.0
60
0
100
AcDbLine
10
1801.30101280942
20
4929.87588701165
30
0.0
11
1795.29248934322
21
4946.84343385131
31
0.0
39
0.0
210
0.0
220
0.0
230
1.0
0
CIRCLE
5
3D
330
22
100
AcDbEntity
8
\U+7C97\U+5B9E\U+7EBF\U+5C42
62
256
6
ByLayer
370
-1
48
1.0
60
0
100
AcDbCircle
10
1678.06038438807
20
4892.20524021801
30
0.0
40
7.0
39
0.0
210
0.0
220
0.0
230
1.0
0
LINE
5
3E
330
22
100
AcDbEntity
8
\U+4E2D\U+5FC3\U+7EBF\U+5C42
62
256
6
ByLayer
370
-1
48
1.0
60
0
100
AcDbLine
10
1681.50453527936
20
4883.8903244254
30
0.0
11
1674.61623349679
21
4900.52015601061
31
0.0
39
0.0
210
0.0
220
0.0
230
1.0
0
CIRCLE
5
3F
330
22
100
AcDbEntity
8
\U+7C97\U+5B9E\U+7EBF\U+5C42
62
256
6
ByLayer
370
-1
48
1.0
60
0
100
AcDbCircle
10
1560.40433317832
20
4839.82138780756
30
0.0
40
7.0
39
0.0
210
0.0
220
0.0
230
1.0
0
LINE
5
40
330
22
100
AcDbEntity
8
\U+4E2D\U+5FC3\U+7EBF\U+5C42
62
256
6
ByLayer
370
-1
48
1.0
60
0
100
AcDbLine
10
1564.27893304959
20
4831.69812024841
30
0.0
11
1556.52973330704
21
4847.9446553667
31
0.0
39
0.0
210
0.0
220
0.0
230
1.0
0
CIRCLE
5
41
330
22
100
AcDbEntity
8
\U+7C97\U+5B9E\U+7EBF\U+5C42
62
256
6
ByLayer
370
-1
48
1.0
60
0
100
AcDbCircle
10
1445.65108450525
20
4781.35168369842
30
0.0
40
7.0
39
0.0
210
0.0
220
0.0
230
1.0
0
LINE
5
42
330
22
100
AcDbEntity
8
\U+4E2D\U+5FC3\U+7EBF\U+5C42
62
256
6
ByLayer
370
-1
48
1.0
60
0
100
AcDbLine
10
1449.94551334758
20
4773.44232968446
30
0.0
11
1441.35665566291
21
4789.26103771238
31
0.0
39
0.0
210
0.0
220
0.0
230
1.0
0
CIRCLE
5
43
330
22
100
AcDbEntity
8
\U+7C97\U+5B9E\U+7EBF\U+5C42
62
256
6
ByLayer
370
-1
48
1.0
60
0
100
AcDbCircle
10
1334.11516904708
20
4716.95638928539
30
0.0
40
7.0
39
0.0
210
0.0
220
0.0
230
1.0
0
LINE
5
44
330
22
100
AcDbEntity
8
\U+4E2D\U+5FC3\U+7EBF\U+5C42
62
256
6
ByLayer
370
-1
48
1.0
60
0
100
AcDbLine
10
1338.81765612952
20
4709.2826278062
30
0.0
11
1329.41268196463
21
4724.63015076458
31
0.0
39
0.0
210
0.0
220
0.0
230
1.0
0
CIRCLE
5
45
330
22
100
AcDbEntity
8
\U+7C97\U+5B9E\U+7EBF\U+5C42
62
256
6
ByLayer
370
-1
48
1.0
60
0
100
AcDbCircle
10
1226.10229899531
20
4646.81200759439
30
0.0
40
7.0
39
0.0
210
0.0
220
0.0
230
1.0
0
LINE
5
46
330
22
100
AcDbEntity
8
\U+4E2D\U+5FC3\U+7EBF\U+5C42
62
256
6
ByLayer
370
-1
48
1.0
60
0
100
AcDbLine
10
1231.19995512764
20
4639.39487189679
30
0.0
11
1221.00464286299
21
4654.22914329198
31
0.0
39
0.0
210
0.0
220
0.0
230
1.0
0
CIRCLE
5
47
330
22
100
AcDbEntity
8
\U+7C97\U+5B9E\U+7EBF\U+5C42
62
256
6
ByLayer
370
-1
48
1.0
60
0
100
AcDbCircle
10
1121.90853011888
20
4571.11079949995
30
0.0
40
7.0
39
0.0
210
0.0
220
0.0
230
1.0
0
LINE
5
48
330
22
100
AcDbEntity
8
\U+4E2D\U+5FC3\U+7EBF\U+5C42
62
256
6
ByLayer
370
-1
48
1.0
60
0
100
AcDbLine
10
1127.38738297996
20
4563.97061943733
30
0.0
11
1116.4296772578
21
4578.25097956257
31
0.0
39
0.0
210
0.0
220
0.0
230
1.0
0
CIRCLE
5
49
330
22
100
AcDbEntity
8
\U+7C97\U+5B9E\U+7EBF\U+5C42
62
256
6
ByLayer
370
-1
48
1.0
60
0
100
AcDbCircle
10
1021.81945029585
20
4490.06025675153
30
0.0
40
7.0
39
0.0
210
0.0
220
0.0
230
1.0
0
LINE
5
4A
330
22
100
AcDbEntity
8
\U+4E2D\U+5FC3\U+7EBF\U+5C42
62
256
6
ByLayer
370
-1
48
1.0
60
0
100
AcDbLine
10
1027.66448273083
20
4483.21660306113
30
0.0
11
1015.97441786088
21
4496.90391044193
31
0.0
39
0.0
210
0.0
220
0.0
230
1.0
0
CIRCLE
5
4B
330
22
100
AcDbEntity
8
\U+7C97\U+5B9E\U+7EBF\U+5C42
62
256
6
ByLayer
370
-1
48
1.0
60
0
100
AcDbCircle
10
926.10939673692
20
4403.88253325307
30
0.0
40
7.0
39
0.0
210
0.0
220
0.0
230
1.0
0
LINE
5
4C
330
22
100
AcDbEntity
8
\U+4E2D\U+5FC3\U+7EBF\U+5C42
62
256
6
ByLayer
370
-1
48
1.0
60
0
100
AcDbLine
10
932.304587918163
20
4397.35416391395
30
0.0
11
919.914205555673
21
4410.41090259217
31
0.0
39
0.0
210
0.0
220
0.0
230
1.0
0
CIRCLE
5
4D
330
22
100
AcDbEntity
8
\U+7C97\U+5B9E\U+7EBF\U+5C42
62
256
6
ByLayer
370
-1
48
1.0
60
0
100
AcDbCircle
10
835.040704046154
20
4312.81383615451
30
0.0
40
7.0
39
0.0
210
0.0
220
0.0
230
1.0
0
LINE
5
4E
330
22
100
AcDbEntity
8
\U+4E2D\U+5FC3\U+7EBF\U+5C42
62
256
6
ByLayer
370
-1
48
1.0
60
0
100
AcDbLine
10
841.569073385268
20
4306.61864497327
30
0.0
11
828.512334707044
21
4319.00902733576
31
0.0
39
0.0
210
0.0
220
0.0
230
1.0
0
CIRCLE
5
4F
330
22
100
AcDbEntity
8
\U+7C97\U+5B9E\U+7EBF\U+5C42
62
256
6
ByLayer
370
-1
48
1.0
60
0
100
AcDbCircle
10
748.862985180123
20
4217.10377842451
30
0.0
40
7.0
39
0.0
210
0.0
220
0.0
230
1.0
0
LINE
5
50
330
22
100
AcDbEntity
8
\U+4E2D\U+5FC3\U+7EBF\U+5C42
62
256
6
ByLayer
370
-1
48
1.0
60
0
100
AcDbLine
10
755.706638870521
20
4211.25874598954
30
0.0
11
742.019331489719
21
4222.94881085948
31
0.0
39
0.0
210
0.0
220
0.0
230
1.0
0
CIRCLE
5
51
330
22
100
AcDbEntity
8
\U+7C97\U+5B9E\U+7EBF\U+5C42
62
256
6
ByLayer
370
-1
48
1.0
60
0
100
AcDbCircle
10
667.812447276094
20
4117.01469467858
30
0.0
40
7.0
39
0.0
210
0.0
220
0.0
230
1.0
0
LINE
5
52
330
22
100
AcDbEntity
8
\U+4E2D\U+5FC3\U+7EBF\U+5C42
62
256
6
ByLayer
370
-1
48
1.0
60
0
100
AcDbLine
10
674.952627338716
20
4111.5358418175
30
0.0
11
660.672267213471
21
4122.49354753966
31
0.0
39
0.0
210
0.0
220
0.0
230
1.0
0
CIRCLE
5
53
330
22
100
AcDbEntity
8
\U+7C97\U+5B9E\U+7EBF\U+5C42
62
256
6
ByLayer
370
-1
48
1.0
60
0
100
AcDbCircle
10
592.11124422471
20
4012.82092213816
30
0.0
40
7.0
39
0.0
210
0.0
220
0.0
230
1.0
0
LINE
5
54
330
22
100
AcDbEntity
8
\U+4E2D\U+5FC3\U+7EBF\U+5C42
62
256
6
ByLayer
370
-1
48
1.0
60
0
100
AcDbLine
10
599.528379922307
20
4007.72326600583
30
0.0
11
584.69410852711
21
4017.91857827048
31
0.0
39
0.0
210
0.0
220
0.0
230
1.0
0
CIRCLE
5
55
330
22
100
AcDbEntity
8
\U+7C97\U+5B9E\U+7EBF\U+5C42
62
256
6
ByLayer
370
-1
48
1.0
60
0
100
AcDbCircle
10
521.966867761606
20
3904.80804869135
30
0.0
40
7.0
39
0.0
210
0.0
220
0.0
230
1.0
0
LINE
5
56
330
22
100
AcDbEntity
8
\U+4E2D\U+5FC3\U+7EBF\U+5C42
62
256
6
ByLayer
370
-1
48
1.0
60
0
100
AcDbLine
10
529.640629240792
20
3900.10556160891
30
0.0
11
514.293106282417
21
3909.5105357738
31
0.0
39
0.0
210
0.0
220
0.0
230
1.0
0
CIRCLE
5
57
330
22
100
AcDbEntity
8
\U+7C97\U+5B9E\U+7EBF\U+5C42
62
256
6
ByLayer
370
-1
48
1.0
60
0
100
AcDbCircle
10
457.571578746993
20
3793.27213011641
30
0.0
40
7.0
39
0.0
210
0.0
220
0.0
230
1.0
0
LINE
5
58
330
22
100
AcDbEntity
8
\U+4E2D\U+5FC3\U+7EBF\U+5C42
62
256
6
ByLayer
370
-1
48
1.0
60
0
100
AcDbLine
10
465.480932760947
20
3788.97770127407
30
0.0
11
449.662224733034
21
3797.56655895874
31
0.0
39
0.0
210
0.0
220
0.0
230
1.0
0
CIRCLE
5
59
330
22
100
AcDbEntity
8
\U+7C97\U+5B9E\U+7EBF\U+5C42
62
256
6
ByLayer
370
-1
48
1.0
60
0
100
AcDbCircle
10
399.101880192
20
3678.51887861336
30
0.0
40
7.0
39
0.0
210
0.0
220
0.0
230
1.0
0
LINE
5
5A
330
22
100
AcDbEntity
8
\U+4E2D\U+5FC3\U+7EBF\U+5C42
62
256
6
ByLayer
370
-1
48
1.0
60
0
100
AcDbLine
10
407.225147751149
20
3674.64427874209
30
0.0
11
390.978612632847
21
3682.39347848464
31
0.0
39
0.0
210
0.0
220
0.0
230
1.0
0
CIRCLE
5
5B
330
22
100
AcDbEntity
8
\U+7C97\U+5B9E\U+7EBF\U+5C42
62
256
6
ByLayer
370
-1
48
1.0
60
0
100
AcDbCircle
10
346.718033476187
20
3560.86282486819
30
0.0
40
7.0
39
0.0
210
0.0
220
0.0
230
1.0
0
LINE
5
5C
330
22
100
AcDbEntity
8
\U+4E2D\U+5FC3\U+7EBF\U+5C42
62
256
6
ByLayer
370
-1
48
1.0
60
0
100
AcDbLine
10
355.032949268789
20
3557.41867397691
30
0.0
11
338.403117683585
21
3564.30697575948
31
0.0
39
0.0
210
0.0
220
0.0
230
1.0
0
CIRCLE
5
5D
330
22
100
AcDbEntity
8
\U+7C97\U+5B9E\U+7EBF\U+5C42
62
256
6
ByLayer
370
-1
48
1.0
60
0
100
AcDbCircle
10
300.563619082241
20
3440.62645594604
30
0.0
40
7.0
39
0.0
210
0.0
220
0.0
230
1.0
0
LINE
5
5E
330
22
100
AcDbEntity
8
\U+4E2D\U+5FC3\U+7EBF\U+5C42
62
256
6
ByLayer
370
-1
48
1.0
60
0
100
AcDbLine
10
309.047392502071
20
3437.62219421294
30
0.0
11
292.079845662411
21
3443.63071767914
31
0.0
39
0.0
210
0.0
220
0.0
230
1.0
0
CIRCLE
5
5F
330
22
100
AcDbEntity
8
\U+7C97\U+5B9E\U+7EBF\U+5C42
62
256
6
ByLayer
370
-1
48
1.0
60
0
100
AcDbCircle
10
260.765143051867
20
3318.13933137659
30
0.0
40
7.0
39
0.0
210
0.0
220
0.0
230
1.0
0
LINE
5
60
330
22
100
AcDbEntity
8
\U+4E2D\U+5FC3\U+7EBF\U+5C42
62
256
6
ByLayer
370
-1
48
1.0
60
0
100
AcDbLine
10
269.394520665679
20
3315.58319327425
30
0.0
11
252.135765438055
21
3320.69546947892
31
0.0
39
0.0
210
0.0
220
0.0
230
1.0
0
CIRCLE
5
61
330
22
100
AcDbEntity
8
\U+7C97\U+5B9E\U+7EBF\U+5C42
62
256
6
ByLayer
370
-1
48
1.0
60
0
100
AcDbCircle
10
227.431690241505
20
3193.7371798543
30
0.0
40
7.0
39
0.0
210
0.0
220
0.0
230
1.0
0
LINE
5
62
330
22
100
AcDbEntity
8
\U+4E2D\U+5FC3\U+7EBF\U+5C42
62
256
6
ByLayer
370
-1
48
1.0
60
0
100
AcDbLine
10
236.183019525081
20
3191.6361715796
30
0.0
11
218.680360957922
21
3195.838188129
31
0.0
39
0.0
210
0.0
220
0.0
230
1.0
0
CIRCLE
5
63
330
22
100
AcDbEntity
8
\U+7C97\U+5B9E\U+7EBF\U+5C42
62
256
6
ByLayer
370
-1
48
1.0
60
0
100
AcDbCircle
10
200.654625328327
20
3067.76097902944
30
0.0
40
7.0
39
0.0
210
0.0
220
0.0
230
1.0
0
LINE
5
64
330
22
100
AcDbEntity
8
\U+4E2D\U+5FC3\U+7EBF\U+5C42
62
256
6
ByLayer
370
-1
48
1.0
60
0
100
AcDbLine
10
209.503919496401
20
3066.1208593
30
0.0
11
191.805331160253
21
3069.40109875886
31
0.0
39
0.0
210
0.0
220
0.0
230
1.0
0
CIRCLE
5
65
330
22
100
AcDbEntity
8
\U+7C97\U+5B9E\U+7EBF\U+5C42
62
256
6
ByLayer
370
-1
48
1.0
60
0
100
AcDbCircle
10
180.507342386009
20
2940.55602091193
30
0.0
40
7.0
39
0.0
210
0.0
220
0.0
230
1.0
0
LINE
5
66
330
22
100
AcDbEntity
8
\U+4E2D\U+5FC3\U+7EBF\U+5C42
62
256
6
ByLayer
370
-1
48
1.0
60
0
100
AcDbLine
10
189.430346138375
20
2939.38128518195
30
0.0
11
171.584338633646
21
2941.73075664191
31
0.0
39
0.0
210
0.0
220
0.0
230
1.0
0
CIRCLE
5
67
330
22
100
AcDbEntity
8
\U+7C97\U+5B9E\U+7EBF\U+5C42
62
256
6
ByLayer
370
-1
48
1.0
60
0
100
AcDbCircle
10
167.045063716679
20
2812.4709654501
30
0.0
40
7.0
39
0.0
210
0.0
220
0.0
230
1.0
0
LINE
5
68
330
22
100
AcDbEntity
8
\U+4E2D\U+5FC3\U+7EBF\U+5C42
62
256
6
ByLayer
370
-1
48
1.0
60
0
100
AcDbLine
10
176.017319720275
20
2811.76483358855
30
0.0
11
158.072807713081
21
2813.17709731165
31
0.0
39
0.0
210
0.0
220
0.0
230
1.0
0
CIRCLE
5
69
330
22
100
AcDbEntity
8
\U+7C97\U+5B9E\U+7EBF\U+5C42
62
256
6
ByLayer
370
-1
48
1.0
60
0
100
AcDbCircle
10
160.304688490411
20
2683.85688487786
30
0.0
40
7.0
39
0.0
210
0.0
220
0.0
230
1.0
0
LINE
5
6A
330
22
100
AcDbEntity
8
\U+4E2D\U+5FC3\U+7EBF\U+5C42
62
256
6
ByLayer
370
-1
48
1.0
60
0
100
AcDbLine
10
169.301604415192
20
2683.62129234309
30
0.0
11
151.307772565633
21
2684.09247741263
31
0.0
39
0.0
210
0.0
220
0.0
230
1.0
0
CIRCLE
5
6B
330
22
100
AcDbEntity
8
\U+7C97\U+5B9E\U+7EBF\U+5C42
62
256
6
ByLayer
370
-1
48
1.0
60
0
100
AcDbCircle
10
160.304691607191
20
2555.06630145022
30
0.0
40
7.0
39
0.0
210
0.0
220
0.0
230
1.0
0
LINE
5
6C
330
22
100
AcDbEntity
8
\U+4E2D\U+5FC3\U+7EBF\U+5C42
62
256
6
ByLayer
370
-1
48
1.0
60
0
100
AcDbLine
10
169.301607531968
20
2555.30189398499
30
0.0
11
151.307775682409
21
2554.83070891545
31
0.0
39
0.0
210
0.0
220
0.0
230
1.0
0
CIRCLE
5
6D
330
22
100
AcDbEntity
8
\U+7C97\U+5B9E\U+7EBF\U+5C42
62
256
6
ByLayer
370
-1
48
1.0
60
0
100
AcDbCircle
10
167.045073058471
20
2426.45222120422
30
0.0
40
7.0
39
0.0
210
0.0
220
0.0
230
1.0
0
LINE
5
6E
330
22
100
AcDbEntity
8
\U+4E2D\U+5FC3\U+7EBF\U+5C42
62
256
6
ByLayer
370
-1
48
1.0
60
0
100
AcDbLine
10
176.01732906207
20
2427.15835306577
30
0.0
11
158.072817054875
21
2425.74608934267
31
0.0
39
0.0
210
0.0
220
0.0
230
1.0
0
CIRCLE
5
6F
330
22
100
AcDbEntity
8
\U+7C97\U+5B9E\U+7EBF\U+5C42
62
256
6
ByLayer
370
-1
48
1.0
60
0
100
AcDbCircle
10
180.507357927214
20
2298.36716639397
30
0.0
40
7.0
39
0.0
210
0.0
220
0.0
230
1.0
0
LINE
5
70
330
22
100
AcDbEntity
8
\U+4E2D\U+5FC3\U+7EBF\U+5C42
62
256
6
ByLayer
370
-1
48
1.0
60
0
100
AcDbLine
10
189.430361679577
20
2299.54190212394
30
0.0
11
171.584354174847
21
2297.19243066398
31
0.0
39
0.0
210
0.0
220
0.0
230
1.0
0
CIRCLE
5
71
330
22
100
AcDbEntity
8
\U+7C97\U+5B9E\U+7EBF\U+5C42
62
256
6
ByLayer
370
-1
48
1.0
60
0
100
AcDbCircle
10
200.654647026342
20
2171.16220925161
30
0.0
40
7.0
39
0.0
210
0.0
220
0.0
230
1.0
0
LINE
5
72
330
22
100
AcDbEntity
8
\U+4E2D\U+5FC3\U+7EBF\U+5C42
62
256
6
ByLayer
370
-1
48
1.0
60
0
100
AcDbLine
10
209.503941194416
20
2172.80232898103
30
0.0
11
191.805352858264
21
2169.52208952218
31
0.0
39
0.0
210
0.0
220
0.0
230
1.0
0
CIRCLE
5
73
330
22
100
AcDbEntity
8
\U+7C97\U+5B9E\U+7EBF\U+5C42
62
256
6
ByLayer
370
-1
48
1.0
60
0
100
AcDbCircle
10
227.431718036856
20
2045.18600972277
30
0.0
40
7.0
39
0.0
210
0.0
220
0.0
230
1.0
0
LINE
5
74
330
22
100
AcDbEntity
8
\U+4E2D\U+5FC3\U+7EBF\U+5C42
62
256
6
ByLayer
370
-1
48
1.0
60
0
100
AcDbLine
10
236.183047320435
20
2047.28701799747
30
0.0
11
218.680388753277
21
2043.08500144806
31
0.0
39
0.0
210
0.0
220
0.0
230
1.0
0
CIRCLE
5
75
330
22
100
AcDbEntity
8
\U+7C97\U+5B9E\U+7EBF\U+5C42
62
256
6
ByLayer
370
-1
48
1.0
60
0
100
AcDbCircle
10
260.765176868372
20
1920.78385981385
30
0.0
40
7.0
39
0.0
210
0.0
220
0.0
230
1.0
0
LINE
5
76
330
22
100
AcDbEntity
8
\U+4E2D\U+5FC3\U+7EBF\U+5C42
62
256
6
ByLayer
370
-1
48
1.0
60
0
100
AcDbLine
10
269.394554482184
20
1923.33999791619
30
0.0
11
252.13579925456
21
1918.22772171151
31
0.0
39
0.0
210
0.0
220
0.0
230
1.0
0
CIRCLE
5
77
330
22
100
AcDbEntity
8
\U+7C97\U+5B9E\U+7EBF\U+5C42
62
256
6
ByLayer
370
-1
48
1.0
60
0
100
AcDbCircle
10
300.56365882721
20
1798.29673717068
30
0.0
40
7.0
39
0.0
210
0.0
220
0.0
230
1.0
0
LINE
5
78
330
22
100
AcDbEntity
8
\U+4E2D\U+5FC3\U+7EBF\U+5C42
62
256
6
ByLayer
370
-1
48
1.0
60
0
100
AcDbLine
10
309.04743224704
20
1801.30099890378
30
0.0
11
292.07988540738
21
1795.29247543757
31
0.0
39
0.0
210
0.0
220
0.0
230
1.0
0
CIRCLE
5
79
330
22
100
AcDbEntity
8
\U+7C97\U+5B9E\U+7EBF\U+5C42
62
256
6
ByLayer
370
-1
48
1.0
60
0
100
AcDbCircle
10
346.718079040678
20
1678.06037048243
30
0.0
40
7.0
39
0.0
210
0.0
220
0.0
230
1.0
0
LINE
5
7A
330
22
100
AcDbEntity
8
\U+4E2D\U+5FC3\U+7EBF\U+5C42
62
256
6
ByLayer
370
-1
48
1.0
60
0
100
AcDbLine
10
355.032994833284
20
1681.50452137371
30
0.0
11
338.40316324808
21
1674.61621959114
31
0.0
39
0.0
210
0.0
220
0.0
230
1.0
0
CIRCLE
5
7B
330
22
100
AcDbEntity
8
\U+7C97\U+5B9E\U+7EBF\U+5C42
62
256
6
ByLayer
370
-1
48
1.0
60
0
100
AcDbCircle
10
399.101931451136
20
1560.40431927267
30
0.0
40
7.0
39
0.0
210
0.0
220
0.0
230
1.0
0
LINE
5
7C
330
22
100
AcDbEntity
8
\U+4E2D\U+5FC3\U+7EBF\U+5C42
62
256
6
ByLayer
370
-1
48
1.0
60
0
100
AcDbLine
10
407.225199010281
20
1564.27891914394
30
0.0
11
390.978663891987
21
1556.52971940139
31
0.0
39
0.0
210
0.0
220
0.0
230
1.0
0
CIRCLE
5
7D
330
22
100
AcDbEntity
8
\U+7C97\U+5B9E\U+7EBF\U+5C42
62
256
6
ByLayer
370
-1
48
1.0
60
0
100
AcDbCircle
10
457.571635560271
20
1445.6510705996
30
0.0
40
7.0
39
0.0
210
0.0
220
0.0
230
1.0
0
LINE
5
7E
330
22
100
AcDbEntity
8
\U+4E2D\U+5FC3\U+7EBF\U+5C42
62
256
6
ByLayer
370
-1
48
1.0
60
0
100
AcDbLine
10
465.480989574229
20
1449.94549944194
30
0.0
11
449.662281546312
21
1441.35664175726
31
0.0
39
0.0
210
0.0
220
0.0
230
1.0
0
CIRCLE
5
7F
330
22
100
AcDbEntity
8
\U+7C97\U+5B9E\U+7EBF\U+5C42
62
256
6
ByLayer
370
-1
48
1.0
60
0
100
AcDbCircle
10
521.966929973299
20
1334.11515514143
30
0.0
40
7.0
39
0.0
210
0.0
220
0.0
230
1.0
0
LINE
5
80
330
22
100
AcDbEntity
8
\U+4E2D\U+5FC3\U+7EBF\U+5C42
62
256
6
ByLayer
370
-1
48
1.0
60
0
100
AcDbLine
10
529.640691452489
20
1338.81764222387
30
0.0
11
514.293168494114
21
1329.41266805899
31
0.0
39
0.0
210
0.0
220
0.0
230
1.0
0
CIRCLE
5
81
330
22
100
AcDbEntity
8
\U+7C97\U+5B9E\U+7EBF\U+5C42
62
256
6
ByLayer
370
-1
48
1.0
60
0
100
AcDbCircle
10
592.111311664303
20
1226.10228508966
30
0.0
40
7.0
39
0.0
210
0.0
220
0.0
230
1.0
0
LINE
5
82
330
22
100
AcDbEntity
8
\U+4E2D\U+5FC3\U+7EBF\U+5C42
62
256
6
ByLayer
370
-1
48
1.0
60
0
100
AcDbLine
10
599.528447361903
20
1231.19994122199
30
0.0
11
584.69417596671
21
1221.00462895734
31
0.0
39
0.0
210
0.0
220
0.0
230
1.0
0
CIRCLE
5
83
330
22
100
AcDbEntity
8
\U+7C97\U+5B9E\U+7EBF\U+5C42
62
256
6
ByLayer
370
-1
48
1.0
60
0
100
AcDbCircle
10
667.812519758736
20
1121.90851621324
30
0.0
40
7.0
39
0.0
210
0.0
220
0.0
230
1.0
0
LINE
5
84
330
22
100
AcDbEntity
8
\U+4E2D\U+5FC3\U+7EBF\U+5C42
62
256
6
ByLayer
370
-1
48
1.0
60
0
100
AcDbLine
10
674.952699821359
20
1127.38736907432
30
0.0
11
660.672339696117
21
1116.42966335216
31
0.0
39
0.0
210
0.0
220
0.0
230
1.0
0
CIRCLE
5
85
330
22
100
AcDbEntity
8
\U+7C97\U+5B9E\U+7EBF\U+5C42
62
256
6
ByLayer
370
-1
48
1.0
60
0
100
AcDbCircle
10
748.863062507153
20
1021.81943639021
30
0.0
40
7.0
39
0.0
210
0.0
220
0.0
230
1.0
0
LINE
5
86
330
22
100
AcDbEntity
8
\U+4E2D\U+5FC3\U+7EBF\U+5C42
62
256
6
ByLayer
370
-1
48
1.0
60
0
100
AcDbLine
10
755.706716197557
20
1027.66446882518
30
0.0
11
742.019408816755
21
1015.97440395524
31
0.0
39
0.0
210
0.0
220
0.0
230
1.0
0
CIRCLE
5
87
330
22
100
AcDbEntity
8
\U+7C97\U+5B9E\U+7EBF\U+5C42
62
256
6
ByLayer
370
-1
48
1.0
60
0
100
AcDbCircle
10
835.040786005622
20
926.109382831275
30
0.0
40
7.0
39
0.0
210
0.0
220
0.0
230
1.0
0
LINE
5
88
330
22
100
AcDbEntity
8
\U+4E2D\U+5FC3\U+7EBF\U+5C42
62
256
6
ByLayer
370
-1
48
1.0
60
0
100
AcDbLine
10
841.569155344732
20
932.304574012516
30
0.0
11
828.512416666512
21
919.914191650028
31
0.0
39
0.0
210
0.0
220
0.0
230
1.0
0
CIRCLE
5
89
330
22
100
AcDbEntity
8
\U+7C97\U+5B9E\U+7EBF\U+5C42
62
256
6
ByLayer
370
-1
48
1.0
60
0
100
AcDbCircle
10
926.109483104177
20
835.040690140511
30
0.0
40
7.0
39
0.0
210
0.0
220
0.0
230
1.0
0
LINE
5
8A
330
22
100
AcDbEntity
8
\U+4E2D\U+5FC3\U+7EBF\U+5C42
62
256
6
ByLayer
370
-1
48
1.0
60
0
100
AcDbLine
10
932.30467428542
20
841.56905947962
30
0.0
11
919.914291922934
21
828.512320801397
31
0.0
39
0.0
210
0.0
220
0.0
230
1.0
0
CIRCLE
5
8B
330
22
100
AcDbEntity
8
\U+7C97\U+5B9E\U+7EBF\U+5C42
62
256
6
ByLayer
370
-1
48
1.0
60
0
100
AcDbCircle
10
1021.81954083417
20
748.862971274477
30
0.0
40
7.0
39
0.0
210
0.0
220
0.0
230
1.0
0
LINE
5
8C
330
22
100
AcDbEntity
8
\U+4E2D\U+5FC3\U+7EBF\U+5C42
62
256
6
ByLayer
370
-1
48
1.0
60
0
100
AcDbLine
10
1027.66457326914
20
755.706624964874
30
0.0
11
1015.9745083992
21
742.019317584076
31
0.0
39
0.0
210
0.0
220
0.0
230
1.0
0
CIRCLE
5
8D
330
22
100
AcDbEntity
8
\U+7C97\U+5B9E\U+7EBF\U+5C42
62
256
6
ByLayer
370
-1
48
1.0
60
0
100
AcDbCircle
10
1121.90862458011
20
667.812433370449
30
0.0
40
7.0
39
0.0
210
0.0
220
0.0
230
1.0
0
LINE
5
8E
330
22
100
AcDbEntity
8
\U+4E2D\U+5FC3\U+7EBF\U+5C42
62
256
6
ByLayer
370
-1
48
1.0
60
0
100
AcDbLine
10
1127.38747744119
20
674.952613433068
30
0.0
11
1116.42977171903
21
660.672253307826
31
0.0
39
0.0
210
0.0
220
0.0
230
1.0
0
CIRCLE
5
8F
330
22
100
AcDbEntity
8
\U+7C97\U+5B9E\U+7EBF\U+5C42
62
256
6
ByLayer
370
-1
48
1.0
60
0
100
AcDbCircle
10
1226.10239712053
20
592.111230319062
30
0.0
40
7.0
39
0.0
210
0.0
220
0.0
230
1.0
0
LINE
5
90
330
22
100
AcDbEntity
8
\U+4E2D\U+5FC3\U+7EBF\U+5C42
62
256
6
ByLayer
370
-1
48
1.0
60
0
100
AcDbLine
10
1231.20005325285
20
599.528366016661
30
0.0
11
1221.0047409882
21
584.694094621464
31
0.0
39
0.0
210
0.0
220
0.0
230
1.0
0
CIRCLE
5
91
330
22
100
AcDbEntity
8
\U+7C97\U+5B9E\U+7EBF\U+5C42
62
256
6
ByLayer
370
-1
48
1.0
60
0
100
AcDbCircle
10
1334.11527056733
20
521.966853855956
30
0.0
40
7.0
39
0.0
210
0.0
220
0.0
230
1.0
0
LINE
5
92
330
22
100
AcDbEntity
8
\U+4E2D\U+5FC3\U+7EBF\U+5C42
62
256
6
ByLayer
370
-1
48
1.0
60
0
100
AcDbLine
10
1338.81775764978
20
529.640615335143
30
0.0
11
1329.4127834849
21
514.293092376771
31
0.0
39
0.0
210
0.0
220
0.0
230
1.0
0
CIRCLE
5
93
330
22
100
AcDbEntity
8
\U+7C97\U+5B9E\U+7EBF\U+5C42
62
256
6
ByLayer
370
-1
48
1.0
60
0
100
AcDbCircle
10
1445.65118914228
20
457.571564841346
30
0.0
40
7.0
39
0.0
210
0.0
220
0.0
230
1.0
0
LINE
5
94
330
22
100
AcDbEntity
8
\U+4E2D\U+5FC3\U+7EBF\U+5C42
62
256
6
ByLayer
370
-1
48
1.0
60
0
100
AcDbLine
10
1449.94561798462
20
465.480918855303
30
0.0
11
1441.35676029994
21
449.662210827388
31
0.0
39
0.0
210
0.0
220
0.0
230
1.0
0
CIRCLE
5
95
330
22
100
AcDbEntity
8
\U+7C97\U+5B9E\U+7EBF\U+5C42
62
256
6
ByLayer
370
-1
48
1.0
60
0
100
AcDbCircle
10
1560.40444064532
20
399.101866286354
30
0.0
40
7.0
39
0.0
210
0.0
220
0.0
230
1.0
0
LINE
5
96
330
22
100
AcDbEntity
8
\U+4E2D\U+5FC3\U+7EBF\U+5C42
62
256
6
ByLayer
370
-1
48
1.0
60
0
100
AcDbLine
10
1564.2790405166
20
407.225133845499
30
0.0
11
1556.52984077405
21
390.978598727203
31
0.0
39
0.0
210
0.0
220
0.0
230
1.0
0
CIRCLE
5
97
330
22
100
AcDbEntity
8
\U+7C97\U+5B9E\U+7EBF\U+5C42
62
256
6
ByLayer
370
-1
48
1.0
60
0
100
AcDbCircle
10
1678.0604943905
20
346.718019570537
30
0.0
40
7.0
39
0.0
210
0.0
220
0.0
230
1.0
0
LINE
5
98
330
22
100
AcDbEntity
8
\U+4E2D\U+5FC3\U+7EBF\U+5C42
62
256
6
ByLayer
370
-1
48
1.0
60
0
100
AcDbLine
10
1681.50464528178
20
355.032935363137
30
0.0
11
1674.61634349922
21
338.403103777935
31
0.0
39
0.0
210
0.0
220
0.0
230
1.0
0
CIRCLE
5
99
330
22
100
AcDbEntity
8
\U+7C97\U+5B9E\U+7EBF\U+5C42
62
256
6
ByLayer
370
-1
48
1.0
60
0
100
AcDbCircle
10
1798.29686331266
20
300.563605176593
30
0.0
40
7.0
39
0.0
210
0.0
220
0.0
230
1.0
0
LINE
5
9A
330
22
100
AcDbEntity
8
\U+4E2D\U+5FC3\U+7EBF\U+5C42
62
256
6
ByLayer
370
-1
48
1.0
60
0
100
AcDbLine
10
1801.30112504576
20
309.047378596421
30
0.0
11
1795.29260157956
21
292.079831756762
31
0.0
39
0.0
210
0.0
220
0.0
230
1.0
0
CIRCLE
5
9B
330
22
100
AcDbEntity
8
\U+7C97\U+5B9E\U+7EBF\U+5C42
62
256
6
ByLayer
370
-1
48
1.0
60
0
100
AcDbCircle
10
1920.78398788211
20
260.765129146219
30
0.0
40
7.0
39
0.0
210
0.0
220
0.0
230
1.0
0
LINE
5
9C
330
22
100
AcDbEntity
8
\U+4E2D\U+5FC3\U+7EBF\U+5C42
62
256
6
ByLayer
370
-1
48
1.0
60
0
100
AcDbLine
10
1923.34012598444
20
269.394506760033
30
0.0
11
1918.22784977977
21
252.135751532405
31
0.0
39
0.0
210
0.0
220
0.0
230
1.0
0
CIRCLE
5
9D
330
22
100
AcDbEntity
8
\U+7C97\U+5B9E\U+7EBF\U+5C42
62
256
6
ByLayer
370
-1
48
1.0
60
0
100
AcDbCircle
10
2045.18613940438
20
227.431676335859
30
0.0
40
7.0
39
0.0
210
0.0
220
0.0
230
1.0
0
LINE
5
9E
330
22
100
AcDbEntity
8
\U+4E2D\U+5FC3\U+7EBF\U+5C42
62
256
6
ByLayer
370
-1
48
1.0
60
0
100
AcDbLine
10
2047.28714767909
20
236.183005619438
30
0.0
11
2043.08513112968
21
218.680347052281
31
0.0
39
0.0
210
0.0
220
0.0
230
1.0
0
CIRCLE
5
9F
330
22
100
AcDbEntity
8
\U+7C97\U+5B9E\U+7EBF\U+5C42
62
256
6
ByLayer
370
-1
48
1.0
60
0
100
AcDbCircle
10
2171.16234022926
20
200.654611422682
30
0.0
40
7.0
39
0.0
210
0.0
220
0.0
230
1.0
0
LINE
5
A0
330
22
100
AcDbEntity
8
\U+4E2D\U+5FC3\U+7EBF\U+5C42
62
256
6
ByLayer
370
-1
48
1.0
60
0
100
AcDbLine
10
2172.80245995869
20
209.503905590756
30
0.0
11
2169.52222049983
21
191.805317254605
31
0.0
39
0.0
210
0.0
220
0.0
230
1.0
0
CIRCLE
5
A1
330
22
100
AcDbEntity
8
\U+7C97\U+5B9E\U+7EBF\U+5C42
62
256
6
ByLayer
370
-1
48
1.0
60
0
100
AcDbCircle
10
2298.36729834675
20
180.507328480365
30
0.0
40
7.0
39
0.0
210
0.0
220
0.0
230
1.0
0
LINE
5
A2
330
22
100
AcDbEntity
8
\U+4E2D\U+5FC3\U+7EBF\U+5C42
62
256
6
ByLayer
370
-1
48
1.0
60
0
100
AcDbLine
10
2299.54203407673
20
189.430332232728
30
0.0
11
2297.19256261676
21
171.584324728
31
0.0
39
0.0
210
0.0
220
0.0
230
1.0
0
CIRCLE
5
A3
330
22
100
AcDbEntity
8
\U+7C97\U+5B9E\U+7EBF\U+5C42
62
256
6
ByLayer
370
-1
48
1.0
60
0
100
AcDbCircle
10
2426.45235380859
20
167.045049811032
30
0.0
40
7.0
39
0.0
210
0.0
220
0.0
230
1.0
0
LINE
5
A4
330
22
100
AcDbEntity
8
\U+4E2D\U+5FC3\U+7EBF\U+5C42
62
256
6
ByLayer
370
-1
48
1.0
60
0
100
AcDbLine
10
2427.15848567013
20
176.01730581463
30
0.0
11
2425.74622194704
21
158.072793807434
31
0.0
39
0.0
210
0.0
220
0.0
230
1.0
0
CIRCLE
5
A5
330
22
100
AcDbEntity
8
\U+7C97\U+5B9E\U+7EBF\U+5C42
62
256
6
ByLayer
370
-1
48
1.0
60
0
100
AcDbCircle
10
2555.06643438083
20
160.304674584767
30
0.0
40
7.0
39
0.0
210
0.0
220
0.0
230
1.0
0
LINE
5
A6
330
22
100
AcDbEntity
8
\U+4E2D\U+5FC3\U+7EBF\U+5C42
62
256
6
ByLayer
370
-1
48
1.0
60
0
100
AcDbLine
10
2555.3020269156
20
169.301590509547
30
0.0
11
2554.83084184606
21
151.307758659988
31
0.0
39
0.0
210
0.0
220
0.0
230
1.0
0
CIRCLE
5
A7
330
22
100
AcDbEntity
8
\U+7C97\U+5B9E\U+7EBF\U+5C42
62
256
6
ByLayer
370
-1
48
1.0
60
0
100
AcDbCircle
10
2683.85701780847
20
160.304677701546
30
0.0
40
7.0
39
0.0
210
0.0
220
0.0
230
1.0
0
LINE
5
A8
330
22
100
AcDbEntity
8
\U+4E2D\U+5FC3\U+7EBF\U+5C42
62
256
6
ByLayer
370
-1
48
1.0
60
0
100
AcDbLine
10
2683.6214252737
20
169.301593626326
30
0.0
11
2684.09261034324
21
151.307761776766
31
0.0
39
0.0
210
0.0
220
0.0
230
1.0
0
CIRCLE
5
A9
330
22
100
AcDbEntity
8
\U+7C97\U+5B9E\U+7EBF\U+5C42
62
256
6
ByLayer
370
-1
48
1.0
60
0
100
AcDbCircle
10
2812.47109805447
20
167.045059152825
30
0.0
40
7.0
39
0.0
210
0.0
220
0.0
230
1.0
0
LINE
5
AA
330
22
100
AcDbEntity
8
\U+4E2D\U+5FC3\U+7EBF\U+5C42
62
256
6
ByLayer
370
-1
48
1.0
60
0
100
AcDbLine
10
2811.76496619291
20
176.017315156423
30
0.0
11
2813.17722991602
21
158.072803149227
31
0.0
39
0.0
210
0.0
220
0.0
230
1.0
0
CIRCLE
5
AB
330
22
100
AcDbEntity
8
\U+7C97\U+5B9E\U+7EBF\U+5C42
62
256
6
ByLayer
370
-1
48
1.0
60
0
100
AcDbCircle
10
2940.55615286473
20
180.507344021566
30
0.0
40
7.0
39
0.0
210
0.0
220
0.0
230
1.0
0
LINE
5
AC
330
22
100
AcDbEntity
8
\U+4E2D\U+5FC3\U+7EBF\U+5C42
62
256
6
ByLayer
370
-1
48
1.0
60
0
100
AcDbLine
10
2939.38141713475
20
189.43034777393
30
0.0
11
2941.73088859471
21
171.584340269202
31
0.0
39
0.0
210
0.0
220
0.0
230
1.0
0
CIRCLE
5
AD
330
22
100
AcDbEntity
8
\U+7C97\U+5B9E\U+7EBF\U+5C42
62
256
6
ByLayer
370
-1
48
1.0
60
0
100
AcDbCircle
10
3067.76111000708
20
200.654633120695
30
0.0
40
7.0
39
0.0
210
0.0
220
0.0
230
1.0
0
LINE
5
AE
330
22
100
AcDbEntity
8
\U+4E2D\U+5FC3\U+7EBF\U+5C42
62
256
6
ByLayer
370
-1
48
1.0
60
0
100
AcDbLine
10
3066.12099027766
20
209.50392728877
30
0.0
11
3069.40122973651
21
191.805338952619
31
0.0
39
0.0
210
0.0
220
0.0
230
1.0
0
CIRCLE
5
AF
330
22
100
AcDbEntity
8
\U+7C97\U+5B9E\U+7EBF\U+5C42
62
256
6
ByLayer
370
-1
48
1.0
60
0
100
AcDbCircle
10
3193.73730953593
20
227.431704131211
30
0.0
40
7.0
39
0.0
210
0.0
220
0.0
230
1.0
0
LINE
5
B0
330
22
100
AcDbEntity
8
\U+4E2D\U+5FC3\U+7EBF\U+5C42
62
256
6
ByLayer
370
-1
48
1.0
60
0
100
AcDbLine
10
3191.63630126122
20
236.183033414791
30
0.0
11
3195.83831781063
21
218.680374847632
31
0.0
39
0.0
210
0.0
220
0.0
230
1.0
0
CIRCLE
5
B1
330
22
100
AcDbEntity
8
\U+7C97\U+5B9E\U+7EBF\U+5C42
62
256
6
ByLayer
370
-1
48
1.0
60
0
100
AcDbCircle
10
3318.13945944483
20
260.765162962724
30
0.0
40
7.0
39
0.0
210
0.0
220
0.0
230
1.0
0
LINE
5
B2
330
22
100
AcDbEntity
8
\U+4E2D\U+5FC3\U+7EBF\U+5C42
62
256
6
ByLayer
370
-1
48
1.0
60
0
100
AcDbLine
10
3315.5833213425
20
269.394540576539
30
0.0
11
3320.69559754716
21
252.135785348911
31
0.0
39
0.0
210
0.0
220
0.0
230
1.0
0
CIRCLE
5
B3
330
22
100
AcDbEntity
8
\U+7C97\U+5B9E\U+7EBF\U+5C42
62
256
6
ByLayer
370
-1
48
1.0
60
0
100
AcDbCircle
10
3440.62658208802
20
300.563644921567
30
0.0
40
7.0
39
0.0
210
0.0
220
0.0
230
1.0
0
LINE
5
B4
330
22
100
AcDbEntity
8
\U+4E2D\U+5FC3\U+7EBF\U+5C42
62
256
6
ByLayer
370
-1
48
1.0
60
0
100
AcDbLine
10
3437.62232035492
20
309.047418341396
30
0.0
11
3443.63084382112
21
292.079871501737
31
0.0
39
0.0
210
0.0
220
0.0
230
1.0
0
CIRCLE
5
B5
330
22
100
AcDbEntity
8
\U+7C97\U+5B9E\U+7EBF\U+5C42
62
256
6
ByLayer
370
-1
48
1.0
60
0
100
AcDbCircle
10
3560.86294877626
20
346.718065135035
30
0.0
40
7.0
39
0.0
210
0.0
220
0.0
230
1.0
0
LINE
5
B6
330
22
100
AcDbEntity
8
\U+4E2D\U+5FC3\U+7EBF\U+5C42
62
256
6
ByLayer
370
-1
48
1.0
60
0
100
AcDbLine
10
3557.41879788498
20
355.032980927635
30
0.0
11
3564.30709966755
21
338.403149342433
31
0.0
39
0.0
210
0.0
220
0.0
230
1.0
0
CIRCLE
5
B7
330
22
100
AcDbEntity
8
\U+7C97\U+5B9E\U+7EBF\U+5C42
62
256
6
ByLayer
370
-1
48
1.0
60
0
100
AcDbCircle
10
3678.51899998602
20
399.101917545486
30
0.0
40
7.0
39
0.0
210
0.0
220
0.0
230
1.0
0
LINE
5
B8
330
22
100
AcDbEntity
8
\U+4E2D\U+5FC3\U+7EBF\U+5C42
62
256
6
ByLayer
370
-1
48
1.0
60
0
100
AcDbLine
10
3674.64440011475
20
407.225185104635
30
0.0
11
3682.3935998573
21
390.978649986338
31
0.0
39
0.0
210
0.0
220
0.0
230
1.0
0
CIRCLE
5
B9
330
22
100
AcDbEntity
8
\U+7C97\U+5B9E\U+7EBF\U+5C42
62
256
6
ByLayer
370
-1
48
1.0
60
0
100
AcDbCircle
10
3793.27224865908
20
457.571621654621
30
0.0
40
7.0
39
0.0
210
0.0
220
0.0
230
1.0
0
LINE
5
BA
330
22
100
AcDbEntity
8
\U+4E2D\U+5FC3\U+7EBF\U+5C42
62
256
6
ByLayer
370
-1
48
1.0
60
0
100
AcDbLine
10
3788.97781981675
20
465.480975668578
30
0.0
11
3797.56667750142
21
449.662267640663
31
0.0
39
0.0
210
0.0
220
0.0
230
1.0
0
CIRCLE
5
BB
330
22
100
AcDbEntity
8
\U+7C97\U+5B9E\U+7EBF\U+5C42
62
256
6
ByLayer
370
-1
48
1.0
60
0
100
AcDbCircle
10
3904.80816411726
20
521.966916067649
30
0.0
40
7.0
39
0.0
210
0.0
220
0.0
230
1.0
0
LINE
5
BC
330
22
100
AcDbEntity
8
\U+4E2D\U+5FC3\U+7EBF\U+5C42
62
256
6
ByLayer
370
-1
48
1.0
60
0
100
AcDbLine
10
3900.10567703482
20
529.640677546837
30
0.0
11
3909.5106511997
21
514.293154588464
31
0.0
39
0.0
210
0.0
220
0.0
230
1.0
0
CIRCLE
5
BD
330
22
100
AcDbEntity
8
\U+7C97\U+5B9E\U+7EBF\U+5C42
62
256
6
ByLayer
370
-1
48
1.0
60
0
100
AcDbCircle
10
4012.82103416902
20
592.111297758656
30
0.0
40
7.0
39
0.0
210
0.0
220
0.0
230
1.0
0
LINE
5
BE
330
22
100
AcDbEntity
8
\U+4E2D\U+5FC3\U+7EBF\U+5C42
62
256
6
ByLayer
370
-1
48
1.0
60
0
100
AcDbLine
10
4007.7233780367
20
599.528433456255
30
0.0
11
4017.91869030135
21
584.694162061058
31
0.0
39
0.0
210
0.0
220
0.0
230
1.0
0
CIRCLE
5
BF
330
22
100
AcDbEntity
8
\U+7C97\U+5B9E\U+7EBF\U+5C42
62
256
6
ByLayer
370
-1
48
1.0
60
0
100
AcDbCircle
10
4117.01480304545
20
667.812505853093
30
0.0
40
7.0
39
0.0
210
0.0
220
0.0
230
1.0
0
LINE
5
C0
330
22
100
AcDbEntity
8
\U+4E2D\U+5FC3\U+7EBF\U+5C42
62
256
6
ByLayer
370
-1
48
1.0
60
0
100
AcDbLine
10
4111.53595018438
20
674.952685915716
30
0.0
11
4122.49365590653
21
660.672325790474
31
0.0
39
0.0
210
0.0
220
0.0
230
1.0
0
CIRCLE
5
C1
330
22
100
AcDbEntity
8
\U+7C97\U+5B9E\U+7EBF\U+5C42
62
256
6
ByLayer
370
-1
48
1.0
60
0
100
AcDbCircle
10
4217.10388286848
20
748.863048601508
30
0.0
40
7.0
39
0.0
210
0.0
220
0.0
230
1.0
0
LINE
5
C2
330
22
100
AcDbEntity
8
\U+4E2D\U+5FC3\U+7EBF\U+5C42
62
256
6
ByLayer
370
-1
48
1.0
60
0
100
AcDbLine
10
4211.25885043351
20
755.706702291909
30
0.0
11
4222.94891530345
21
742.019394911111
31
0.0
39
0.0
210
0.0
220
0.0
230
1.0
0
CIRCLE
5
C3
330
22
100
AcDbEntity
8
\U+7C97\U+5B9E\U+7EBF\U+5C42
62
256
6
ByLayer
370
-1
48
1.0
60
0
100
AcDbCircle
10
4312.81393642742
20
835.040772099977
30
0.0
40
7.0
39
0.0
210
0.0
220
0.0
230
1.0
0
LINE
5
C4
330
22
100
AcDbEntity
8
\U+4E2D\U+5FC3\U+7EBF\U+5C42
62
256
6
ByLayer
370
-1
48
1.0
60
0
100
AcDbLine
10
4306.61874524618
20
841.569141439088
30
0.0
11
4319.00912760866
21
828.512402760867
31
0.0
39
0.0
210
0.0
220
0.0
230
1.0
0
CIRCLE
5
C5
330
22
100
AcDbEntity
8
\U+7C97\U+5B9E\U+7EBF\U+5C42
62
256
6
ByLayer
370
-1
48
1.0
60
0
100
AcDbCircle
10
4403.88262911818
20
926.109469198529
30
0.0
40
7.0
39
0.0
210
0.0
220
0.0
230
1.0
0
LINE
5
C6
330
22
100
AcDbEntity
8
\U+4E2D\U+5FC3\U+7EBF\U+5C42
62
256
6
ByLayer
370
-1
48
1.0
60
0
100
AcDbLine
10
4397.35425977907
20
932.304660379776
30
0.0
11
4410.41099845729
21
919.914278017288
31
0.0
39
0.0
210
0.0
220
0.0
230
1.0
0
CIRCLE
5
C7
330
22
100
AcDbEntity
8
\U+7C97\U+5B9E\U+7EBF\U+5C42
62
256
6
ByLayer
370
-1
48
1.0
60
0
100
AcDbCircle
10
4490.06034798421
20
1021.81952692853
30
0.0
40
7.0
39
0.0
210
0.0
220
0.0
230
1.0
0
LINE
5
C8
330
22
100
AcDbEntity
8
\U+4E2D\U+5FC3\U+7EBF\U+5C42
62
256
6
ByLayer
370
-1
48
1.0
60
0
100
AcDbLine
10
4483.21669429381
20
1027.6645593635
30
0.0
11
4496.90400167461
21
1015.97449449356
31
0.0
39
0.0
210
0.0
220
0.0
230
1.0
0
CIRCLE
5
C9
330
22
100
AcDbEntity
8
\U+7C97\U+5B9E\U+7EBF\U+5C42
62
256
6
ByLayer
370
-1
48
1.0
60
0
100
AcDbCircle
10
4571.11088588824
20
1121.90861067447
30
0.0
40
7.0
39
0.0
210
0.0
220
0.0
230
1.0
0
LINE
5
CA
330
22
100
AcDbEntity
8
\U+4E2D\U+5FC3\U+7EBF\U+5C42
62
256
6
ByLayer
370
-1
48
1.0
60
0
100
AcDbLine
10
4563.97070582562
20
1127.38746353555
30
0.0
11
4578.25106595087
21
1116.42975781339
31
0.0
39
0.0
210
0.0
220
0.0
230
1.0
0
CIRCLE
5
CB
330
22
100
AcDbEntity
8
\U+7C97\U+5B9E\U+7EBF\U+5C42
62
256
6
ByLayer
370
-1
48
1.0
60
0
100
AcDbCircle
10
4646.81208893963
20
1226.10238321489
30
0.0
40
7.0
39
0.0
210
0.0
220
0.0
230
1.0
0
LINE
5
CC
330
22
100
AcDbEntity
8
\U+4E2D\U+5FC3\U+7EBF\U+5C42
62
256
6
ByLayer
370
-1
48
1.0
60
0
100
AcDbLine
10
4639.39495324203
20
1231.20003934721
30
0.0
11
4654.22922463723
21
1221.00472708257
31
0.0
39
0.0
210
0.0
220
0.0
230
1.0
0
CIRCLE
5
CD
330
22
100
AcDbEntity
8
\U+7C97\U+5B9E\U+7EBF\U+5C42
62
256
6
ByLayer
370
-1
48
1.0
60
0
100
AcDbCircle
10
4716.95646540273
20
1334.11525666169
30
0.0
40
7.0
39
0.0
210
0.0
220
0.0
230
1.0
0
LINE
5
CE
330
22
100
AcDbEntity
8
\U+4E2D\U+5FC3\U+7EBF\U+5C42
62
256
6
ByLayer
370
-1
48
1.0
60
0
100
AcDbLine
10
4709.28270392355
20
1338.81774374414
30
0.0
11
4724.63022688192
21
1329.41276957926
31
0.0
39
0.0
210
0.0
220
0.0
230
1.0
0
CIRCLE
5
CF
330
22
100
AcDbEntity
8
\U+7C97\U+5B9E\U+7EBF\U+5C42
62
256
6
ByLayer
370
-1
48
1.0
60
0
100
AcDbCircle
10
4781.35175441734
20
1445.65117523664
30
0.0
40
7.0
39
0.0
210
0.0
220
0.0
230
1.0
0
LINE
5
D0
330
22
100
AcDbEntity
8
\U+4E2D\U+5FC3\U+7EBF\U+5C42
62
256
6
ByLayer
370
-1
48
1.0
60
0
100
AcDbLine
10
4773.44240040339
20
1449.94560407898
30
0.0
11
4789.2611084313
21
1441.3567463943
31
0.0
39
0.0
210
0.0
220
0.0
230
1.0
0
CIRCLE
5
D1
330
22
100
AcDbEntity
8
\U+7C97\U+5B9E\U+7EBF\U+5C42
62
256
6
ByLayer
370
-1
48
1.0
60
0
100
AcDbCircle
10
4839.82145297234
20
1560.40442673969
30
0.0
40
7.0
39
0.0
210
0.0
220
0.0
230
1.0
0
LINE
5
D2
330
22
100
AcDbEntity
8
\U+4E2D\U+5FC3\U+7EBF\U+5C42
62
256
6
ByLayer
370
-1
48
1.0
60
0
100
AcDbLine
10
4831.69818541319
20
1564.27902661096
30
0.0
11
4847.94472053149
21
1556.52982686842
31
0.0
39
0.0
210
0.0
220
0.0
230
1.0
0
CIRCLE
5
D3
330
22
100
AcDbEntity
8
\U+7C97\U+5B9E\U+7EBF\U+5C42
62
256
6
ByLayer
370
-1
48
1.0
60
0
100
AcDbCircle
10
4892.20529968815
20
1678.06048048486
30
0.0
40
7.0
39
0.0
210
0.0
220
0.0
230
1.0
0
LINE
5
D4
330
22
100
AcDbEntity
8
\U+4E2D\U+5FC3\U+7EBF\U+5C42
62
256
6
ByLayer
370
-1
48
1.0
60
0
100
AcDbLine
10
4883.89038389555
20
1681.50463137615
30
0.0
11
4900.52021548076
21
1674.61632959358
31
0.0
39
0.0
210
0.0
220
0.0
230
1.0
0
CIRCLE
5
D5
330
22
100
AcDbEntity
8
\U+7C97\U+5B9E\U+7EBF\U+5C42
62
256
6
ByLayer
370
-1
48
1.0
60
0
100
AcDbCircle
10
4938.3597140821
20
1798.29684940701
30
0.0
40
7.0
39
0.0
210
0.0
220
0.0
230
1.0
0
LINE
5
D6
330
22
100
AcDbEntity
8
\U+4E2D\U+5FC3\U+7EBF\U+5C42
62
256
6
ByLayer
370
-1
48
1.0
60
0
100
AcDbLine
10
4929.87594066227
20
1801.30111114012
30
0.0
11
4946.84348750193
21
1795.29258767392
31
0.0
39
0.0
210
0.0
220
0.0
230
1.0
0
CIRCLE
5
D7
330
22
100
AcDbEntity
8
\U+7C97\U+5B9E\U+7EBF\U+5C42
62
256
6
ByLayer
370
-1
48
1.0
60
0
100
AcDbCircle
10
4978.15819011247
20
1920.78397397645
30
0.0
40
7.0
39
0.0
210
0.0
220
0.0
230
1.0
0
LINE
5
D8
330
22
100
AcDbEntity
8
\U+4E2D\U+5FC3\U+7EBF\U+5C42
62
256
6
ByLayer
370
-1
48
1.0
60
0
100
AcDbLine
10
4969.52881249865
20
1923.34011207879
30
0.0
11
4986.78756772628
21
1918.22783587412
31
0.0
39
0.0
210
0.0
220
0.0
230
1.0
0
CIRCLE
5
D9
330
22
100
AcDbEntity
8
\U+7C97\U+5B9E\U+7EBF\U+5C42
62
256
6
ByLayer
370
-1
48
1.0
60
0
100
AcDbCircle
10
5011.49164292283
20
2045.18612549875
30
0.0
40
7.0
39
0.0
210
0.0
220
0.0
230
1.0
0
LINE
5
DA
330
22
100
AcDbEntity
8
\U+4E2D\U+5FC3\U+7EBF\U+5C42
62
256
6
ByLayer
370
-1
48
1.0
60
0
100
AcDbLine
10
5002.74031363925
20
2047.28713377345
30
0.0
11
5020.24297220641
21
2043.08511722405
31
0.0
39
0.0
210
0.0
220
0.0
230
1.0
0
CIRCLE
5
DB
330
22
100
AcDbEntity
8
\U+7C97\U+5B9E\U+7EBF\U+5C42
62
256
6
ByLayer
370
-1
48
1.0
60
0
100
AcDbCircle
10
5038.26870783601
20
2171.16232632361
30
0.0
40
7.0
39
0.0
210
0.0
220
0.0
230
1.0
0
LINE
5
DC
330
22
100
AcDbEntity
8
\U+4E2D\U+5FC3\U+7EBF\U+5C42
62
256
6
ByLayer
370
-1
48
1.0
60
0
100
AcDbLine
10
5029.41941366793
20
2172.80244605303
30
0.0
11
5047.11800200408
21
2169.52220659418
31
0.0
39
0.0
210
0.0
220
0.0
230
1.0
0
CIRCLE
5
DD
330
22
100
AcDbEntity
8
\U+7C97\U+5B9E\U+7EBF\U+5C42
62
256
6
ByLayer
370
-1
48
1.0
60
0
100
AcDbCircle
10
5058.41599077833
20
2298.36728444111
30
0.0
40
7.0
39
0.0
210
0.0
220
0.0
230
1.0
0
LINE
5
DE
330
22
100
AcDbEntity
8
\U+4E2D\U+5FC3\U+7EBF\U+5C42
62
256
6
ByLayer
370
-1
48
1.0
60
0
100
AcDbLine
10
5049.49298702596
20
2299.54202017109
30
0.0
11
5067.33899453069
21
2297.19254871113
31
0.0
39
0.0
210
0.0
220
0.0
230
1.0
0
CIRCLE
5
DF
330
22
100
AcDbEntity
8
\U+7C97\U+5B9E\U+7EBF\U+5C42
62
256
6
ByLayer
370
-1
48
1.0
60
0
100
AcDbCircle
10
5071.87826944765
20
2426.45233990294
30
0.0
40
7.0
39
0.0
210
0.0
220
0.0
230
1.0
0
LINE
5
E0
330
22
100
AcDbEntity
8
\U+4E2D\U+5FC3\U+7EBF\U+5C42
62
256
6
ByLayer
370
-1
48
1.0
60
0
100
AcDbLine
10
5062.90601344406
20
2427.1584717645
30
0.0
11
5080.85052545125
21
2425.7462080414
31
0.0
39
0.0
210
0.0
220
0.0
230
1.0
0
CIRCLE
5
E1
330
22
100
AcDbEntity
8
\U+7C97\U+5B9E\U+7EBF\U+5C42
62
256
6
ByLayer
370
-1
48
1.0
60
0
100
AcDbCircle
10
5078.61864467392
20
2555.06642047518
30
0.0
40
7.0
39
0.0
210
0.0
220
0.0
230
1.0
0
LINE
5
E2
330
22
100
AcDbEntity
8
\U+4E2D\U+5FC3\U+7EBF\U+5C42
62
256
6
ByLayer
370
-1
48
1.0
60
0
100
AcDbLine
10
5069.62172874914
20
2555.30201300995
30
0.0
11
5087.6155605987
21
2554.83082794041
31
0.0
39
0.0
210
0.0
220
0.0
230
1.0
0
CIRCLE
5
E3
330
22
100
AcDbEntity
8
\U+7C97\U+5B9E\U+7EBF\U+5C42
62
256
6
ByLayer
370
-1
48
1.0
60
0
100
AcDbCircle
10
5078.61864155714
20
2683.85700390283
30
0.0
40
7.0
39
0.0
210
0.0
220
0.0
230
1.0
0
LINE
5
E4
330
22
100
AcDbEntity
8
\U+4E2D\U+5FC3\U+7EBF\U+5C42
62
256
6
ByLayer
370
-1
48
1.0
60
0
100
AcDbLine
10
5069.62172563236
20
2683.62141136806
30
0.0
11
5087.61555748192
21
2684.0925964376
31
0.0
39
0.0
210
0.0
220
0.0
230
1.0
0
CIRCLE
5
E5
330
22
100
AcDbEntity
8
\U+7C97\U+5B9E\U+7EBF\U+5C42
62
256
6
ByLayer
370
-1
48
1.0
60
0
100
AcDbCircle
10
5071.87826010586
20
2812.47108414882
30
0.0
40
7.0
39
0.0
210
0.0
220
0.0
230
1.0
0
LINE
5
E6
330
22
100
AcDbEntity
8
\U+4E2D\U+5FC3\U+7EBF\U+5C42
62
256
6
ByLayer
370
-1
48
1.0
60
0
100
AcDbLine
10
5062.90600410227
20
2811.76495228727
30
0.0
11
5080.85051610946
21
2813.17721601038
31
0.0
39
0.0
210
0.0
220
0.0
230
1.0
0
CIRCLE
5
E7
330
22
100
AcDbEntity
8
\U+7C97\U+5B9E\U+7EBF\U+5C42
62
256
6
ByLayer
370
-1
48
1.0
60
0
100
AcDbCircle
10
5058.41597523712
20
2940.55613895907
30
0.0
40
7.0
39
0.0
210
0.0
220
0.0
230
1.0
0
LINE
5
E8
330
22
100
AcDbEntity
8
\U+4E2D\U+5FC3\U+7EBF\U+5C42
62
256
6
ByLayer
370
-1
48
1.0
60
0
100
AcDbLine
10
5049.49297148476
20
2939.3814032291
30
0.0
11
5067.33897898949
21
2941.73087468906
31
0.0
39
0.0
210
0.0
220
0.0
230
1.0
0
CIRCLE
5
E9
330
22
100
AcDbEntity
8
\U+7C97\U+5B9E\U+7EBF\U+5C42
62
256
6
ByLayer
370
-1
48
1.0
60
0
100
AcDbCircle
10
5038.268686138
20
3067.76109610144
30
0.0
40
7.0
39
0.0
210
0.0
220
0.0
230
1.0
0
LINE
5
EA
330
22
100
AcDbEntity
8
\U+4E2D\U+5FC3\U+7EBF\U+5C42
62
256
6
ByLayer
370
-1
48
1.0
60
0
100
AcDbLine
10
5029.41939196992
20
3066.120976372
30
0.0
11
5047.11798030607
21
3069.40121583087
31
0.0
39
0.0
210
0.0
220
0.0
230
1.0
0
CIRCLE
5
EB
330
22
100
AcDbEntity
8
\U+7C97\U+5B9E\U+7EBF\U+5C42
62
256
6
ByLayer
370
-1
48
1.0
60
0
100
AcDbCircle
10
5011.49161512748
20
3193.73729563027
30
0.0
40
7.0
39
0.0
210
0.0
220
0.0
230
1.0
0
LINE
5
EC
330
22
100
AcDbEntity
8
\U+4E2D\U+5FC3\U+7EBF\U+5C42
62
256
6
ByLayer
370
-1
48
1.0
60
0
100
AcDbLine
10
5002.7402858439
20
3191.63628735558
30
0.0
11
5020.24294441106
21
3195.83830390498
31
0.0
39
0.0
210
0.0
220
0.0
230
1.0
0
CIRCLE
5
ED
330
22
100
AcDbEntity
8
\U+7C97\U+5B9E\U+7EBF\U+5C42
62
256
6
ByLayer
370
-1
48
1.0
60
0
100
AcDbCircle
10
4978.15815629596
20
3318.1394455392
30
0.0
40
7.0
39
0.0
210
0.0
220
0.0
230
1.0
0
LINE
5
EE
330
22
100
AcDbEntity
8
\U+4E2D\U+5FC3\U+7EBF\U+5C42
62
256
6
ByLayer
370
-1
48
1.0
60
0
100
AcDbLine
10
4969.52877868215
20
3315.58330743686
30
0.0
11
4986.78753390977
21
3320.69558364153
31
0.0
39
0.0
210
0.0
220
0.0
230
1.0
0
CIRCLE
5
EF
330
22
100
AcDbEntity
8
\U+7C97\U+5B9E\U+7EBF\U+5C42
62
256
6
ByLayer
370
-1
48
1.0
60
0
100
AcDbCircle
10
4938.35967433712
20
3440.62656818237
30
0.0
40
7.0
39
0.0
210
0.0
220
0.0
230
1.0
0
LINE
5
F0
330
22
100
AcDbEntity
8
\U+4E2D\U+5FC3\U+7EBF\U+5C42
62
256
6
ByLayer
370
-1
48
1.0
60
0
100
AcDbLine
10
4929.87590091729
20
3437.62230644927
30
0.0
11
4946.84344775695
21
3443.63082991548
31
0.0
39
0.0
210
0.0
220
0.0
230
1.0
0
CIRCLE
5
F1
330
22
100
AcDbEntity
8
\U+7C97\U+5B9E\U+7EBF\U+5C42
62
256
6
ByLayer
370
-1
48
1.0
60
0
100
AcDbCircle
10
4892.20525412365
20
3560.86293487062
30
0.0
40
7.0
39
0.0
210
0.0
220
0.0
230
1.0
0
LINE
5
F2
330
22
100
AcDbEntity
8
\U+4E2D\U+5FC3\U+7EBF\U+5C42
62
256
6
ByLayer
370
-1
48
1.0
60
0
100
AcDbLine
10
4883.89033833105
20
3557.41878397934
30
0.0
11
4900.52016991625
21
3564.30708576191
31
0.0
39
0.0
210
0.0
220
0.0
230
1.0
0
CIRCLE
5
F3
330
22
100
AcDbEntity
8
\U+7C97\U+5B9E\U+7EBF\U+5C42
62
256
6
ByLayer
370
-1
48
1.0
60
0
100
AcDbCircle
10
4839.8214017132
20
3678.51898608038
30
0.0
40
7.0
39
0.0
210
0.0
220
0.0
230
1.0
0
LINE
5
F4
330
22
100
AcDbEntity
8
\U+4E2D\U+5FC3\U+7EBF\U+5C42
62
256
6
ByLayer
370
-1
48
1.0
60
0
100
AcDbLine
10
4831.69813415405
20
3674.64438620911
30
0.0
11
4847.94466927235
21
3682.39358595166
31
0.0
39
0.0
210
0.0
220
0.0
230
1.0
0
CIRCLE
5
F5
330
22
100
AcDbEntity
8
\U+7C97\U+5B9E\U+7EBF\U+5C42
62
256
6
ByLayer
370
-1
48
1.0
60
0
100
AcDbCircle
10
4781.35169760406
20
3793.27223475345
30
0.0
40
7.0
39
0.0
210
0.0
220
0.0
230
1.0
0
LINE
5
F6
330
22
100
AcDbEntity
8
\U+4E2D\U+5FC3\U+7EBF\U+5C42
62
256
6
ByLayer
370
-1
48
1.0
60
0
100
AcDbLine
10
4773.4423435901
20
3788.97780591111
30
0.0
11
4789.26105161802
21
3797.56666359578
31
0.0
39
0.0
210
0.0
220
0.0
230
1.0
0
CIRCLE
5
F7
330
22
100
AcDbEntity
8
\U+7C97\U+5B9E\U+7EBF\U+5C42
62
256
6
ByLayer
370
-1
48
1.0
60
0
100
AcDbCircle
10
4716.95640319103
20
3904.80815021161
30
0.0
40
7.0
39
0.0
210
0.0
220
0.0
230
1.0
0
LINE
5
F8
330
22
100
AcDbEntity
8
\U+4E2D\U+5FC3\U+7EBF\U+5C42
62
256
6
ByLayer
370
-1
48
1.0
60
0
100
AcDbLine
10
4709.28264171185
20
3900.10566312917
30
0.0
11
4724.63016467022
21
3909.51063729406
31
0.0
39
0.0
210
0.0
220
0.0
230
1.0
0
CIRCLE
5
F9
330
22
100
AcDbEntity
8
\U+7C97\U+5B9E\U+7EBF\U+5C42
62
256
6
ByLayer
370
-1
48
1.0
60
0
100
AcDbCircle
10
4646.81202150003
20
4012.82102026338
30
0.0
40
7.0
39
0.0
210
0.0
220
0.0
230
1.0
0
LINE
5
FA
330
22
100
AcDbEntity
8
\U+4E2D\U+5FC3\U+7EBF\U+5C42
62
256
6
ByLayer
370
-1
48
1.0
60
0
100
AcDbLine
10
4639.39488580243
20
4007.72336413106
30
0.0
11
4654.22915719762
21
4017.91867639571
31
0.0
39
0.0
210
0.0
220
0.0
230
1.0
0
CIRCLE
5
FB
330
22
100
AcDbEntity
8
\U+7C97\U+5B9E\U+7EBF\U+5C42
62
256
6
ByLayer
370
-1
48
1.0
60
0
100
AcDbCircle
10
4571.11081340559
20
4117.01478913981
30
0.0
40
7.0
39
0.0
210
0.0
220
0.0
230
1.0
0
LINE
5
FC
330
22
100
AcDbEntity
8
\U+4E2D\U+5FC3\U+7EBF\U+5C42
62
256
6
ByLayer
370
-1
48
1.0
60
0
100
AcDbLine
10
4563.97063334296
20
4111.53593627874
30
0.0
11
4578.25099346821
21
4122.49364200089
31
0.0
39
0.0
210
0.0
220
0.0
230
1.0
0
CIRCLE
5
FD
330
22
100
AcDbEntity
8
\U+7C97\U+5B9E\U+7EBF\U+5C42
62
256
6
ByLayer
370
-1
48
1.0
60
0
100
AcDbCircle
10
4490.06027065717
20
4217.10386896284
30
0.0
40
7.0
39
0.0
210
0.0
220
0.0
230
1.0
0
LINE
5
FE
330
22
100
AcDbEntity
8
\U+4E2D\U+5FC3\U+7EBF\U+5C42
62
256
6
ByLayer
370
-1
48
1.0
60
0
100
AcDbLine
10
4483.21661696678
20
4211.25883652787
30
0.0
11
4496.90392434758
21
4222.94890139781
31
0.0
39
0.0
210
0.0
220
0.0
230
1.0
0
CIRCLE
5
FF
330
22
100
AcDbEntity
8
\U+7C97\U+5B9E\U+7EBF\U+5C42
62
256
6
ByLayer
370
-1
48
1.0
60
0
100
AcDbCircle
10
4403.88254715871
20
4312.81392252177
30
0.0
40
7.0
39
0.0
210
0.0
220
0.0
230
1.0
0
LINE
5
100
330
22
100
AcDbEntity
8
\U+4E2D\U+5FC3\U+7EBF\U+5C42
62
256
6
ByLayer
370
-1
48
1.0
60
0
100
AcDbLine
10
4397.35417781959
20
4306.61873134053
30
0.0
11
4410.41091649782
21
4319.00911370302
31
0.0
39
0.0
210
0.0
220
0.0
230
1.0
0
CIRCLE
5
101
330
22
100
AcDbEntity
8
\U+7C97\U+5B9E\U+7EBF\U+5C42
62
256
6
ByLayer
370
-1
48
1.0
60
0
100
AcDbCircle
10
4312.81385006015
20
4403.88261521254
30
0.0
40
7.0
39
0.0
210
0.0
220
0.0
230
1.0
0
LINE
5
102
330
22
100
AcDbEntity
8
\U+4E2D\U+5FC3\U+7EBF\U+5C42
62
256
6
ByLayer
370
-1
48
1.0
60
0
100
AcDbLine
10
4306.61865887891
20
4397.35424587343
30
0.0
11
4319.00904124139
21
4410.41098455165
31
0.0
39
0.0
210
0.0
220
0.0
230
1.0
0
CIRCLE
5
103
330
22
100
AcDbEntity
8
\U+7C97\U+5B9E\U+7EBF\U+5C42
62
256
6
ByLayer
370
-1
48
1.0
60
0
100
AcDbCircle
10
4217.10379233015
20
4490.06033407857
30
0.0
40
7.0
39
0.0
210
0.0
220
0.0
230
1.0
0
LINE
5
104
330
22
100
AcDbEntity
8
\U+4E2D\U+5FC3\U+7EBF\U+5C42
62
256
6
ByLayer
370
-1
48
1.0
60
0
100
AcDbLine
10
4211.25875989518
20
4483.21668038817
30
0.0
11
4222.94882476513
21
4496.90398776897
31
0.0
39
0.0
210
0.0
220
0.0
230
1.0
0
CIRCLE
5
105
330
22
100
AcDbEntity
8
\U+7C97\U+5B9E\U+7EBF\U+5C42
62
256
6
ByLayer
370
-1
48
1.0
60
0
100
AcDbCircle
10
4117.01470858422
20
4571.1108719826
30
0.0
40
7.0
39
0.0
210
0.0
220
0.0
230
1.0
0
LINE
5
106
330
22
100
AcDbEntity
8
\U+4E2D\U+5FC3\U+7EBF\U+5C42
62
256
6
ByLayer
370
-1
48
1.0
60
0
100
AcDbLine
10
4111.53585572314
20
4563.97069191998
30
0.0
11
4122.4935614453
21
4578.25105204522
31
0.0
39
0.0
210
0.0
220
0.0
230
1.0
0
CIRCLE
5
107
330
22
100
AcDbEntity
8
\U+7C97\U+5B9E\U+7EBF\U+5C42
62
256
6
ByLayer
370
-1
48
1.0
60
0
100
AcDbCircle
10
4012.8209360438
20
4646.81207503398
30
0.0
40
7.0
39
0.0
210
0.0
220
0.0
230
1.0
0
LINE
5
108
330
22
100
AcDbEntity
8
\U+4E2D\U+5FC3\U+7EBF\U+5C42
62
256
6
ByLayer
370
-1
48
1.0
60
0
100
AcDbLine
10
4007.72327991147
20
4639.39493933639
30
0.0
11
4017.91859217612
21
4654.22921073159
31
0.0
39
0.0
210
0.0
220
0.0
230
1.0
0
CIRCLE
5
109
330
22
100
AcDbEntity
8
\U+7C97\U+5B9E\U+7EBF\U+5C42
62
256
6
ByLayer
370
-1
48
1.0
60
0
100
AcDbCircle
10
3904.808062597
20
4716.95645149708
30
0.0
40
7.0
39
0.0
210
0.0
220
0.0
230
1.0
0
LINE
5
10A
330
22
100
AcDbEntity
8
\U+4E2D\U+5FC3\U+7EBF\U+5C42
62
256
6
ByLayer
370
-1
48
1.0
60
0
100
AcDbLine
10
3900.10557551456
20
4709.28269001789
30
0.0
11
3909.51054967945
21
4724.63021297627
31
0.0
39
0.0
210
0.0
220
0.0
230
1.0
0
CIRCLE
5
10B
330
22
100
AcDbEntity
8
\U+7C97\U+5B9E\U+7EBF\U+5C42
62
256
6
ByLayer
370
-1
48
1.0
60
0
100
AcDbCircle
10
3793.27214402206
20
4781.35174051169
30
0.0
40
7.0
39
0.0
210
0.0
220
0.0
230
1.0
0
LINE
5
10C
330
22
100
AcDbEntity
8
\U+4E2D\U+5FC3\U+7EBF\U+5C42
62
256
6
ByLayer
370
-1
48
1.0
60
0
100
AcDbLine
10
3788.97771517972
20
4773.44238649774
30
0.0
11
3797.56657286439
21
4789.26109452565
31
0.0
39
0.0
210
0.0
220
0.0
230
1.0
0
CIRCLE
5
10D
330
22
100
AcDbEntity
8
\U+7C97\U+5B9E\U+7EBF\U+5C42
62
256
6
ByLayer
370
-1
48
1.0
60
0
100
AcDbCircle
10
3678.51889251901
20
4839.82143906669
30
0.0
40
7.0
39
0.0
210
0.0
220
0.0
230
1.0
0
LINE
5
10E
330
22
100
AcDbEntity
8
\U+4E2D\U+5FC3\U+7EBF\U+5C42
62
256
6
ByLayer
370
-1
48
1.0
60
0
100
AcDbLine
10
3674.64429264774
20
4831.69817150754
30
0.0
11
3682.39349239029
21
4847.94470662584
31
0.0
39
0.0
210
0.0
220
0.0
230
1.0
0
CIRCLE
5
10F
330
22
100
AcDbEntity
8
\U+7C97\U+5B9E\U+7EBF\U+5C42
62
256
6
ByLayer
370
-1
48
1.0
60
0
100
AcDbCircle
10
3560.86283877384
20
4892.2052857825
30
0.0
40
7.0
39
0.0
210
0.0
220
0.0
230
1.0
0
LINE
5
110
330
22
100
AcDbEntity
8
\U+4E2D\U+5FC3\U+7EBF\U+5C42
62
256
6
ByLayer
370
-1
48
1.0
60
0
100
AcDbLine
10
3557.41868788255
20
4883.8903699899
30
0.0
11
3564.30698966513
21
4900.52020157511
31
0.0
39
0.0
210
0.0
220
0.0
230
1.0
0
CIRCLE
5
111
330
22
100
AcDbEntity
8
\U+7C97\U+5B9E\U+7EBF\U+5C42
62
256
6
ByLayer
370
-1
48
1.0
60
0
100
AcDbCircle
10
3440.62646985169
20
4938.35970017645
30
0.0
40
7.0
39
0.0
210
0.0
220
0.0
230
1.0
0
LINE
5
112
330
22
100
AcDbEntity
8
\U+4E2D\U+5FC3\U+7EBF\U+5C42
62
256
6
ByLayer
370
-1
48
1.0
60
0
100
AcDbLine
10
3437.62220811858
20
4929.87592675662
30
0.0
11
3443.63073158479
21
4946.84347359628
31
0.0
39
0.0
210
0.0
220
0.0
230
1.0
0
CIRCLE
5
113
330
22
100
AcDbEntity
8
\U+7C97\U+5B9E\U+7EBF\U+5C42
62
256
6
ByLayer
370
-1
48
1.0
60
0
100
AcDbCircle
10
3318.13934528223
20
4978.15817620682
30
0.0
40
7.0
39
0.0
210
0.0
220
0.0
230
1.0
0
LINE
5
114
330
22
100
AcDbEntity
8
\U+4E2D\U+5FC3\U+7EBF\U+5C42
62
256
6
ByLayer
370
-1
48
1.0
60
0
100
AcDbLine
10
3315.58320717989
20
4969.52879859301
30
0.0
11
3320.69548338456
21
4986.78755382063
31
0.0
39
0.0
210
0.0
220
0.0
230
1.0
0
CIRCLE
5
115
330
22
100
AcDbEntity
8
\U+7C97\U+5B9E\U+7EBF\U+5C42
62
256
6
ByLayer
370
-1
48
1.0
60
0
100
AcDbCircle
10
3193.73719375995
20
5011.49162901718
30
0.0
40
7.0
39
0.0
210
0.0
220
0.0
230
1.0
0
LINE
5
116
330
22
100
AcDbEntity
8
\U+4E2D\U+5FC3\U+7EBF\U+5C42
62
256
6
ByLayer
370
-1
48
1.0
60
0
100
AcDbLine
10
3191.63618548524
20
5002.7402997336
30
0.0
11
3195.83820203465
21
5020.24295830076
31
0.0
39
0.0
210
0.0
220
0.0
230
1.0
0
CIRCLE
5
117
330
22
100
AcDbEntity
8
\U+7C97\U+5B9E\U+7EBF\U+5C42
62
256
6
ByLayer
370
-1
48
1.0
60
0
100
AcDbCircle
10
3067.76099293508
20
5038.26869393036
30
0.0
40
7.0
39
0.0
210
0.0
220
0.0
230
1.0
0
LINE
5
118
330
22
100
AcDbEntity
8
\U+4E2D\U+5FC3\U+7EBF\U+5C42
62
256
6
ByLayer
370
-1
48
1.0
60
0
100
AcDbLine
10
3066.12087320565
20
5029.41939976229
30
0.0
11
3069.40111266451
21
5047.11798809844
31
0.0
39
0.0
210
0.0
220
0.0
230
1.0
0
CIRCLE
5
119
330
22
100
AcDbEntity
8
\U+7C97\U+5B9E\U+7EBF\U+5C42
62
256
6
ByLayer
370
-1
48
1.0
60
0
100
AcDbCircle
10
2940.55603481757
20
5058.41597687268
30
0.0
40
7.0
39
0.0
210
0.0
220
0.0
230
1.0
0
LINE
5
11A
330
22
100
AcDbEntity
8
\U+4E2D\U+5FC3\U+7EBF\U+5C42
62
256
6
ByLayer
370
-1
48
1.0
60
0
100
AcDbLine
10
2939.3812990876
20
5049.49297312031
30
0.0
11
2941.73077054755
21
5067.33898062504
31
0.0
39
0.0
210
0.0
220
0.0
230
1.0
0
CIRCLE
5
11B
330
22
100
AcDbEntity
8
\U+7C97\U+5B9E\U+7EBF\U+5C42
62
256
6
ByLayer
370
-1
48
1.0
60
0
100
AcDbCircle
10
2812.47097935574
20
5071.87825554201
30
0.0
40
7.0
39
0.0
210
0.0
220
0.0
230
1.0
0
LINE
5
11C
330
22
100
AcDbEntity
8
\U+4E2D\U+5FC3\U+7EBF\U+5C42
62
256
6
ByLayer
370
-1
48
1.0
60
0
100
AcDbLine
10
2811.76484749418
20
5062.90599953841
30
0.0
11
2813.17711121729
21
5080.85051154561
31
0.0
39
0.0
210
0.0
220
0.0
230
1.0
0
CIRCLE
5
11D
330
22
100
AcDbEntity
8
\U+7C97\U+5B9E\U+7EBF\U+5C42
62
256
6
ByLayer
370
-1
48
1.0
60
0
100
AcDbCircle
10
2683.8568987835
20
5078.61863076827
30
0.0
40
7.0
39
0.0
210
0.0
220
0.0
230
1.0
0
LINE
5
11E
330
22
100
AcDbEntity
8
\U+4E2D\U+5FC3\U+7EBF\U+5C42
62
256
6
ByLayer
370
-1
48
1.0
60
0
100
AcDbLine
10
2683.62130624873
20
5069.6217148435
30
0.0
11
2684.09249131827
21
5087.61554669305
31
0.0
39
0.0
210
0.0
220
0.0
230
1.0
0
CIRCLE
5
11F
330
22
100
AcDbEntity
8
\U+7C97\U+5B9E\U+7EBF\U+5C42
62
256
6
ByLayer
370
-1
48
1.0
60
0
100
AcDbCircle
10
2555.06631535586
20
5078.6186276515
30
0.0
40
7.0
39
0.0
210
0.0
220
0.0
230
1.0
0
LINE
5
120
330
22
100
AcDbEntity
8
\U+4E2D\U+5FC3\U+7EBF\U+5C42
62
256
6
ByLayer
370
-1
48
1.0
60
0
100
AcDbLine
10
2555.30190789063
20
5069.62171172672
30
0.0
11
2554.83072282109
21
5087.61554357628
31
0.0
39
0.0
210
0.0
220
0.0
230
1.0
0
ARC
5
121
330
22
100
AcDbEntity
8
\U+7C97\U+5B9E\U+7EBF\U+5C42
62
256
6
ByLayer
370
-1
48
1.0
60
0
100
AcDbCircle
39
0.0
10
2619.46160819338
20
2609.46160821175
30
0.0
40
2400.00000000012
210
0.0
220
0.0
230
1.0
100
AcDbArc
50
267.014493994253
51
272.985506005747
0
ARC
5
122
330
22
100
AcDbEntity
8
\U+7C97\U+5B9E\U+7EBF\U+5C42
62
256
6
ByLayer
370
-1
48
1.0
60
0
100
AcDbCircle
39
0.0
10
2619.46160819337
20
2609.46160821155
30
0.0
40
2409.99999999993
210
0.0
220
0.0
230
1.0
100
AcDbArc
50
267.026893139963
51
272.973106860037
0
LINE
5
123
330
22
100
AcDbEntity
8
\U+7C97\U+5B9E\U+7EBF\U+5C42
62
256
6
ByLayer
370
-1
48
1.0
60
0
100
AcDbLine
10
2744.46160819338
20
202.705492616786
30
0.0
11
2744.46160819338
21
212.719027127232
31
0.0
39
0.0
210
0.0
220
0.0
230
1.0
0
LINE
5
124
330
22
100
AcDbEntity
8
\U+7C97\U+5B9E\U+7EBF\U+5C42
62
256
6
ByLayer
370
-1
48
1.0
60
0
100
AcDbLine
10
2494.46160819338
20
202.705492561055
30
0.0
11
2494.46160819338
21
212.719027071714
31
0.0
39
0.0
210
0.0
220
0.0
230
1.0
0
LINE
5
125
330
22
100
AcDbEntity
8
\U+4E2D\U+5FC3\U+7EBF\U+5C42
62
256
6
ByLayer
370
-1
48
1.0
60
0
100
AcDbLine
10
2619.46160819338
20
187.47905465812
30
0.0
11
2619.46160819338
21
220.632690447062
31
0.0
39
0.0
210
0.0
220
0.0
230
1.0
0
LINE
5
126
330
22
100
AcDbEntity
8
\U+7C97\U+5B9E\U+7EBF\U+5C42
62
256
6
ByLayer
370
-1
48
1.0
60
0
100
AcDbLine
10
2627.46160938541
20
199.461608211626
30
0.0
11
2627.4616079549
21
14.4616082116263
31
0.0
39
0.0
210
0.0
220
0.0
230
1.0
0
LINE
5
127
330
22
100
AcDbEntity
8
\U+7C97\U+5B9E\U+7EBF\U+5C42
62
256
6
ByLayer
370
-1
48
1.0
60
0
100
AcDbLine
10
2627.4616079549
20
14.4616082116263
30
0.0
11
2611.4616079549
21
14.4616082116263
31
0.0
39
0.0
210
0.0
220
0.0
230
1.0
0
LINE
5
128
330
22
100
AcDbEntity
8
\U+7C97\U+5B9E\U+7EBF\U+5C42
62
256
6
ByLayer
370
-1
48
1.0
60
0
100
AcDbLine
10
2611.4616079549
20
14.4616082116263
30
0.0
11
2611.46160700123
21
199.461608211626
31
0.0
39
0.0
210
0.0
220
0.0
230
1.0
0
LINE
5
129
330
22
100
AcDbEntity
8
\U+7C97\U+5B9E\U+7EBF\U+5C42
62
256
6
ByLayer
370
-1
48
1.0
60
0
100
AcDbLine
10
2611.46160700123
20
199.461608211626
30
0.0
11
2627.46160938541
21
199.461608211626
31
0.0
39
0.0
210
0.0
220
0.0
230
1.0
0
ARC
5
12A
330
22
100
AcDbEntity
8
\U+7C97\U+5B9E\U+7EBF\U+5C42
62
256
6
ByLayer
370
-1
48
1.0
60
0
100
AcDbCircle
39
0.0
10
2619.46160819352
20
2609.46160821159
30
0.0
40
2405.99999999996
210
0.0
220
0.0
230
1.0
100
AcDbArc
50
265.948293727597
51
274.051706272404
0
ARC
5
12B
330
22
100
AcDbEntity
8
\U+7C97\U+5B9E\U+7EBF\U+5C42
62
256
6
ByLayer
370
-1
48
1.0
60
0
100
AcDbCircle
39
0.0
10
2619.46160819351
20
2609.46160821151
30
0.0
40
2399.99999999988
210
0.0
220
0.0
230
1.0
100
AcDbArc
50
265.938147479918
51
274.061852520082
0
LINE
5
12C
330
22
100
AcDbEntity
8
\U+7C97\U+5B9E\U+7EBF\U+5C42
62
256
6
ByLayer
370
-1
48
1.0
60
0
100
AcDbLine
10
2789.46160819351
20
209.474941596837
30
0.0
11
2789.46160819351
21
215.490012709507
31
0.0
39
0.0
210
0.0
220
0.0
230
1.0
0
LINE
5
12D
330
22
100
AcDbEntity
8
\U+7C97\U+5B9E\U+7EBF\U+5C42
62
256
6
ByLayer
370
-1
48
1.0
60
0
100
AcDbLine
10
2449.46160819351
20
209.474941617903
30
0.0
11
2449.46160819351
21
215.490012770076
31
0.0
39
0.0
210
0.0
220
0.0
230
1.0
0
LINE
5
12E
330
22
100
AcDbEntity
8
\U+4E2D\U+5FC3\U+7EBF\U+5C42
62
256
6
ByLayer
370
-1
48
1.0
60
0
100
AcDbLine
10
2619.46160819351
20
194.14104833173
30
0.0
11
2619.46160819351
21
218.490012739791
31
0.0
39
0.0
210
0.0
220
0.0
230
1.0
0
LINE
5
12F
330
22
100
AcDbEntity
8
\U+7C97\U+5B9E\U+7EBF\U+5C42
62
256
6
ByLayer
370
-1
48
1.0
60
0
100
AcDbLine
10
2519.46160819336
20
203.46160892688
30
0.0
11
2719.46160819336
21
203.461607496369
31
0.0
39
0.0
210
0.0
220
0.0
230
1.0
0
LINE
5
130
330
22
100
AcDbEntity
8
\U+7C97\U+5B9E\U+7EBF\U+5C42
62
256
6
ByLayer
370
-1
48
1.0
60
0
100
AcDbLine
10
2719.46160819336
20
203.461607496369
30
0.0
11
2719.46160819336
21
187.461607496369
31
0.0
39
0.0
210
0.0
220
0.0
230
1.0
0
LINE
5
131
330
22
100
AcDbEntity
8
\U+7C97\U+5B9E\U+7EBF\U+5C42
62
256
6
ByLayer
370
-1
48
1.0
60
0
100
AcDbLine
10
2719.46160819336
20
187.461607496369
30
0.0
11
2519.46160819336
21
187.461606542694
31
0.0
39
0.0
210
0.0
220
0.0
230
1.0
0
LINE
5
132
330
22
100
AcDbEntity
8
\U+7C97\U+5B9E\U+7EBF\U+5C42
62
256
6
ByLayer
370
-1
48
1.0
60
0
100
AcDbLine
10
2519.46160819336
20
187.461606542694
30
0.0
11
2519.46160819336
21
203.46160892688
31
0.0
39
0.0
210
0.0
220
0.0
230
1.0
0
ARC
5
133
330
22
100
AcDbEntity
8
\U+7C97\U+5B9E\U+7EBF\U+5C42
62
256
6
ByLayer
370
-1
48
1.0
60
0
100
AcDbCircle
39
0.0
10
2629.46168218787
20
2619.46163948645
30
0.0
40
2400.00000000012
210
0.0
220
0.0
230
1.0
100
AcDbArc
50
357.014493994253
51
2.98550600574657
0
ARC
5
134
330
22
100
AcDbEntity
8
\U+7C97\U+5B9E\U+7EBF\U+5C42
62
256
6
ByLayer
370
-1
48
1.0
60
0
100
AcDbCircle
39
0.0
10
2629.46168218806
20
2619.46163948644
30
0.0
40
2409.99999999993
210
0.0
220
0.0
230
1.0
100
AcDbArc
50
357.026893139963
51
2.97310686003682
0
LINE
5
135
330
22
100
AcDbEntity
8
\U+7C97\U+5B9E\U+7EBF\U+5C42
62
256
6
ByLayer
370
-1
48
1.0
60
0
100
AcDbLine
10
5036.21779778283
20
2744.46163948645
30
0.0
11
5026.20426327238
21
2744.46163948645
31
0.0
39
0.0
210
0.0
220
0.0
230
1.0
0
LINE
5
136
330
22
100
AcDbEntity
8
\U+7C97\U+5B9E\U+7EBF\U+5C42
62
256
6
ByLayer
370
-1
48
1.0
60
0
100
AcDbLine
10
5036.21779783856
20
2494.46163948645
30
0.0
11
5026.2042633279
21
2494.46163948645
31
0.0
39
0.0
210
0.0
220
0.0
230
1.0
0
LINE
5
137
330
22
100
AcDbEntity
8
\U+4E2D\U+5FC3\U+7EBF\U+5C42
62
256
6
ByLayer
370
-1
48
1.0
60
0
100
AcDbLine
10
5051.44423574149
20
2619.46163948645
30
0.0
11
5018.29059995255
21
2619.46163948645
31
0.0
39
0.0
210
0.0
220
0.0
230
1.0
0
LINE
5
138
330
22
100
AcDbEntity
8
\U+7C97\U+5B9E\U+7EBF\U+5C42
62
256
6
ByLayer
370
-1
48
1.0
60
0
100
AcDbLine
10
5039.46168218799
20
2627.46164067849
30
0.0
11
5224.46168218799
21
2627.46163924797
31
0.0
39
0.0
210
0.0
220
0.0
230
1.0
0
LINE
5
139
330
22
100
AcDbEntity
8
\U+7C97\U+5B9E\U+7EBF\U+5C42
62
256
6
ByLayer
370
-1
48
1.0
60
0
100
AcDbLine
10
5224.46168218799
20
2627.46163924797
30
0.0
11
5224.46168218799
21
2611.46163924797
31
0.0
39
0.0
210
0.0
220
0.0
230
1.0
0
LINE
5
13A
330
22
100
AcDbEntity
8
\U+7C97\U+5B9E\U+7EBF\U+5C42
62
256
6
ByLayer
370
-1
48
1.0
60
0
100
AcDbLine
10
5224.46168218799
20
2611.46163924797
30
0.0
11
5039.46168218799
21
2611.4616382943
31
0.0
39
0.0
210
0.0
220
0.0
230
1.0
0
LINE
5
13B
330
22
100
AcDbEntity
8
\U+7C97\U+5B9E\U+7EBF\U+5C42
62
256
6
ByLayer
370
-1
48
1.0
60
0
100
AcDbLine
10
5039.46168218799
20
2611.4616382943
30
0.0
11
5039.46168218799
21
2627.46164067849
31
0.0
39
0.0
210
0.0
220
0.0
230
1.0
0
ARC
5
13C
330
22
100
AcDbEntity
8
\U+7C97\U+5B9E\U+7EBF\U+5C42
62
256
6
ByLayer
370
-1
48
1.0
60
0
100
AcDbCircle
39
0.0
10
2629.46168218803
20
2619.46163948659
30
0.0
40
2405.99999999996
210
0.0
220
0.0
230
1.0
100
AcDbArc
50
355.948293727597
51
4.05170627240353
0
ARC
5
13D
330
22
100
AcDbEntity
8
\U+7C97\U+5B9E\U+7EBF\U+5C42
62
256
6
ByLayer
370
-1
48
1.0
60
0
100
AcDbCircle
39
0.0
10
2629.4616821881
20
2619.46163948659
30
0.0
40
2399.99999999988
210
0.0
220
0.0
230
1.0
100
AcDbArc
50
355.938147479918
51
4.06185252008189
0
LINE
5
13E
330
22
100
AcDbEntity
8
\U+7C97\U+5B9E\U+7EBF\U+5C42
62
256
6
ByLayer
370
-1
48
1.0
60
0
100
AcDbLine
10
5029.44834880278
20
2789.46163948659
30
0.0
11
5023.43327769011
21
2789.46163948659
31
0.0
39
0.0
210
0.0
220
0.0
230
1.0
0
LINE
5
13F
330
22
100
AcDbEntity
8
\U+7C97\U+5B9E\U+7EBF\U+5C42
62
256
6
ByLayer
370
-1
48
1.0
60
0
100
AcDbLine
10
5029.44834878171
20
2449.46163948659
30
0.0
11
5023.43327762954
21
2449.46163948659
31
0.0
39
0.0
210
0.0
220
0.0
230
1.0
0
LINE
5
140
330
22
100
AcDbEntity
8
\U+4E2D\U+5FC3\U+7EBF\U+5C42
62
256
6
ByLayer
370
-1
48
1.0
60
0
100
AcDbLine
10
5044.78224206788
20
2619.46163948659
30
0.0
11
5020.43327765982
21
2619.46163948659
31
0.0
39
0.0
210
0.0
220
0.0
230
1.0
0
LINE
5
141
330
22
100
AcDbEntity
8
\U+7C97\U+5B9E\U+7EBF\U+5C42
62
256
6
ByLayer
370
-1
48
1.0
60
0
100
AcDbLine
10
5035.46168147273
20
2519.46163948644
30
0.0
11
5035.46168290324
21
2719.46163948644
31
0.0
39
0.0
210
0.0
220
0.0
230
1.0
0
LINE
5
142
330
22
100
AcDbEntity
8
\U+7C97\U+5B9E\U+7EBF\U+5C42
62
256
6
ByLayer
370
-1
48
1.0
60
0
100
AcDbLine
10
5035.46168290324
20
2719.46163948644
30
0.0
11
5051.46168290324
21
2719.46163948644
31
0.0
39
0.0
210
0.0
220
0.0
230
1.0
0
LINE
5
143
330
22
100
AcDbEntity
8
\U+7C97\U+5B9E\U+7EBF\U+5C42
62
256
6
ByLayer
370
-1
48
1.0
60
0
100
AcDbLine
10
5051.46168290324
20
2719.46163948644
30
0.0
11
5051.46168385692
21
2519.46163948644
31
0.0
39
0.0
210
0.0
220
0.0
230
1.0
0
LINE
5
144
330
22
100
AcDbEntity
8
\U+7C97\U+5B9E\U+7EBF\U+5C42
62
256
6
ByLayer
370
-1
48
1.0
60
0
100
AcDbLine
10
5051.46168385692
20
2519.46163948644
30
0.0
11
5035.46168147273
21
2519.46163948644
31
0.0
39
0.0
210
0.0
220
0.0
230
1.0
0
ARC
5
145
330
22
100
AcDbEntity
8
\U+7C97\U+5B9E\U+7EBF\U+5C42
62
256
6
ByLayer
370
-1
48
1.0
60
0
100
AcDbCircle
39
0.0
10
2619.46165091316
20
2629.46171348094
30
0.0
40
2400.00000000012
210
0.0
220
0.0
230
1.0
100
AcDbArc
50
87.0144939942535
51
92.9855060057466
0
ARC
5
146
330
22
100
AcDbEntity
8
\U+7C97\U+5B9E\U+7EBF\U+5C42
62
256
6
ByLayer
370
-1
48
1.0
60
0
100
AcDbCircle
39
0.0
10
2619.46165091317
20
2629.46171348113
30
0.0
40
2409.99999999993
210
0.0
220
0.0
230
1.0
100
AcDbArc
50
87.0268931399632
51
92.9731068600368
0
LINE
5
147
330
22
100
AcDbEntity
8
\U+7C97\U+5B9E\U+7EBF\U+5C42
62
256
6
ByLayer
370
-1
48
1.0
60
0
100
AcDbLine
10
2494.46165091316
20
5036.2178290759
30
0.0
11
2494.46165091316
21
5026.20429456545
31
0.0
39
0.0
210
0.0
220
0.0
230
1.0
0
LINE
5
148
330
22
100
AcDbEntity
8
\U+7C97\U+5B9E\U+7EBF\U+5C42
62
256
6
ByLayer
370
-1
48
1.0
60
0
100
AcDbLine
10
2744.46165091316
20
5036.21782913163
30
0.0
11
2744.46165091316
21
5026.20429462097
31
0.0
39
0.0
210
0.0
220
0.0
230
1.0
0
LINE
5
149
330
22
100
AcDbEntity
8
\U+4E2D\U+5FC3\U+7EBF\U+5C42
62
256
6
ByLayer
370
-1
48
1.0
60
0
100
AcDbLine
10
2619.46165091316
20
5051.44426703456
30
0.0
11
2619.46165091316
21
5018.29063124562
31
0.0
39
0.0
210
0.0
220
0.0
230
1.0
0
LINE
5
14A
330
22
100
AcDbEntity
8
\U+7C97\U+5B9E\U+7EBF\U+5C42
62
256
6
ByLayer
370
-1
48
1.0
60
0
100
AcDbLine
10
2611.46164972113
20
5039.46171348106
30
0.0
11
2611.46165115164
21
5224.46171348106
31
0.0
39
0.0
210
0.0
220
0.0
230
1.0
0
LINE
5
14B
330
22
100
AcDbEntity
8
\U+7C97\U+5B9E\U+7EBF\U+5C42
62
256
6
ByLayer
370
-1
48
1.0
60
0
100
AcDbLine
10
2611.46165115164
20
5224.46171348106
30
0.0
11
2627.46165115164
21
5224.46171348106
31
0.0
39
0.0
210
0.0
220
0.0
230
1.0
0
LINE
5
14C
330
22
100
AcDbEntity
8
\U+7C97\U+5B9E\U+7EBF\U+5C42
62
256
6
ByLayer
370
-1
48
1.0
60
0
100
AcDbLine
10
2627.46165115164
20
5224.46171348106
30
0.0
11
2627.46165210531
21
5039.46171348106
31
0.0
39
0.0
210
0.0
220
0.0
230
1.0
0
LINE
5
14D
330
22
100
AcDbEntity
8
\U+7C97\U+5B9E\U+7EBF\U+5C42
62
256
6
ByLayer
370
-1
48
1.0
60
0
100
AcDbLine
10
2627.46165210531
20
5039.46171348106
30
0.0
11
2611.46164972113
21
5039.46171348106
31
0.0
39
0.0
210
0.0
220
0.0
230
1.0
0
ARC
5
14E
330
22
100
AcDbEntity
8
\U+7C97\U+5B9E\U+7EBF\U+5C42
62
256
6
ByLayer
370
-1
48
1.0
60
0
100
AcDbCircle
39
0.0
10
2619.46165091302
20
2629.4617134811
30
0.0
40
2405.99999999996
210
0.0
220
0.0
230
1.0
100
AcDbArc
50
85.9482937275968
51
94.0517062724035
0
ARC
5
14F
330
22
100
AcDbEntity
8
\U+7C97\U+5B9E\U+7EBF\U+5C42
62
256
6
ByLayer
370
-1
48
1.0
60
0
100
AcDbCircle
39
0.0
10
2619.46165091302
20
2629.46171348117
30
0.0
40
2399.99999999988
210
0.0
220
0.0
230
1.0
100
AcDbArc
50
85.9381474799181
51
94.0618525200819
0
LINE
5
150
330
22
100
AcDbEntity
8
\U+7C97\U+5B9E\U+7EBF\U+5C42
62
256
6
ByLayer
370
-1
48
1.0
60
0
100
AcDbLine
10
2449.46165091302
20
5029.44838009585
30
0.0
11
2449.46165091302
21
5023.43330898318
31
0.0
39
0.0
210
0.0
220
0.0
230
1.0
0
LINE
5
151
330
22
100
AcDbEntity
8
\U+7C97\U+5B9E\U+7EBF\U+5C42
62
256
6
ByLayer
370
-1
48
1.0
60
0
100
AcDbLine
10
2789.46165091302
20
5029.44838007478
30
0.0
11
2789.46165091302
21
5023.4333089226
31
0.0
39
0.0
210
0.0
220
0.0
230
1.0
0
LINE
5
152
330
22
100
AcDbEntity
8
\U+4E2D\U+5FC3\U+7EBF\U+5C42
62
256
6
ByLayer
370
-1
48
1.0
60
0
100
AcDbLine
10
2619.46165091302
20
5044.78227336095
30
0.0
11
2619.46165091302
21
5020.43330895289
31
0.0
39
0.0
210
0.0
220
0.0
230
1.0
0
LINE
5
153
330
22
100
AcDbEntity
8
\U+7C97\U+5B9E\U+7EBF\U+5C42
62
256
6
ByLayer
370
-1
48
1.0
60
0
100
AcDbLine
10
2719.46165091318
20
5035.4617127658
30
0.0
11
2519.46165091318
21
5035.46171419631
31
0.0
39
0.0
210
0.0
220
0.0
230
1.0
0
LINE
5
154
330
22
100
AcDbEntity
8
\U+7C97\U+5B9E\U+7EBF\U+5C42
62
256
6
ByLayer
370
-1
48
1.0
60
0
100
AcDbLine
10
2519.46165091318
20
5035.46171419631
30
0.0
11
2519.46165091318
21
5051.46171419631
31
0.0
39
0.0
210
0.0
220
0.0
230
1.0
0
LINE
5
155
330
22
100
AcDbEntity
8
\U+7C97\U+5B9E\U+7EBF\U+5C42
62
256
6
ByLayer
370
-1
48
1.0
60
0
100
AcDbLine
10
2519.46165091318
20
5051.46171419631
30
0.0
11
2719.46165091318
21
5051.46171514999
31
0.0
39
0.0
210
0.0
220
0.0
230
1.0
0
LINE
5
156
330
22
100
AcDbEntity
8
\U+7C97\U+5B9E\U+7EBF\U+5C42
62
256
6
ByLayer
370
-1
48
1.0
60
0
100
AcDbLine
10
2719.46165091318
20
5051.46171514999
30
0.0
11
2719.46165091318
21
5035.4617127658
31
0.0
39
0.0
210
0.0
220
0.0
230
1.0
0
ARC
5
157
330
22
100
AcDbEntity
8
\U+7C97\U+5B9E\U+7EBF\U+5C42
62
256
6
ByLayer
370
-1
48
1.0
60
0
100
AcDbCircle
39
0.0
10
2609.46157691867
20
2619.46168220624
30
0.0
40
2400.00000000012
210
0.0
220
0.0
230
1.0
100
AcDbArc
50
177.014493994253
51
182.985506005747
0
ARC
5
158
330
22
100
AcDbEntity
8
\U+7C97\U+5B9E\U+7EBF\U+5C42
62
256
6
ByLayer
370
-1
48
1.0
60
0
100
AcDbCircle
39
0.0
10
2609.46157691848
20
2619.46168220624
30
0.0
40
2409.99999999993
210
0.0
220
0.0
230
1.0
100
AcDbArc
50
177.026893139963
51
182.973106860037
0
LINE
5
159
330
22
100
AcDbEntity
8
\U+7C97\U+5B9E\U+7EBF\U+5C42
62
256
6
ByLayer
370
-1
48
1.0
60
0
100
AcDbLine
10
202.705461323714
20
2494.46168220624
30
0.0
11
212.71899583416
21
2494.46168220624
31
0.0
39
0.0
210
0.0
220
0.0
230
1.0
0
LINE
5
15A
330
22
100
AcDbEntity
8
\U+7C97\U+5B9E\U+7EBF\U+5C42
62
256
6
ByLayer
370
-1
48
1.0
60
0
100
AcDbLine
10
202.705461267983
20
2744.46168220624
30
0.0
11
212.718995778642
21
2744.46168220624
31
0.0
39
0.0
210
0.0
220
0.0
230
1.0
0
LINE
5
15B
330
22
100
AcDbEntity
8
\U+4E2D\U+5FC3\U+7EBF\U+5C42
62
256
6
ByLayer
370
-1
48
1.0
60
0
100
AcDbLine
10
187.479023365048
20
2619.46168220624
30
0.0
11
220.63265915399
21
2619.46168220624
31
0.0
39
0.0
210
0.0
220
0.0
230
1.0
0
LINE
5
15C
330
22
100
AcDbEntity
8
\U+7C97\U+5B9E\U+7EBF\U+5C42
62
256
6
ByLayer
370
-1
48
1.0
60
0
100
AcDbLine
10
199.461576918555
20
2611.4616810142
30
0.0
11
14.4615769185548
21
2611.46168244471
31
0.0
39
0.0
210
0.0
220
0.0
230
1.0
0
LINE
5
15D
330
22
100
AcDbEntity
8
\U+7C97\U+5B9E\U+7EBF\U+5C42
62
256
6
ByLayer
370
-1
48
1.0
60
0
100
AcDbLine
10
14.4615769185548
20
2611.46168244471
30
0.0
11
14.4615769185548
21
2627.46168244471
31
0.0
39
0.0
210
0.0
220
0.0
230
1.0
0
LINE
5
15E
330
22
100
AcDbEntity
8
\U+7C97\U+5B9E\U+7EBF\U+5C42
62
256
6
ByLayer
370
-1
48
1.0
60
0
100
AcDbLine
10
14.4615769185548
20
2627.46168244471
30
0.0
11
199.461576918555
21
2627.46168339838
31
0.0
39
0.0
210
0.0
220
0.0
230
1.0
0
LINE
5
15F
330
22
100
AcDbEntity
8
\U+7C97\U+5B9E\U+7EBF\U+5C42
62
256
6
ByLayer
370
-1
48
1.0
60
0
100
AcDbLine
10
199.461576918555
20
2627.46168339838
30
0.0
11
199.461576918555
21
2611.4616810142
31
0.0
39
0.0
210
0.0
220
0.0
230
1.0
0
ARC
5
160
330
22
100
AcDbEntity
8
\U+7C97\U+5B9E\U+7EBF\U+5C42
62
256
6
ByLayer
370
-1
48
1.0
60
0
100
AcDbCircle
39
0.0
10
2609.46157691852
20
2619.46168220609
30
0.0
40
2405.99999999996
210
0.0
220
0.0
230
1.0
100
AcDbArc
50
175.948293727597
51
184.051706272404
0
ARC
5
161
330
22
100
AcDbEntity
8
\U+7C97\U+5B9E\U+7EBF\U+5C42
62
256
6
ByLayer
370
-1
48
1.0
60
0
100
AcDbCircle
39
0.0
10
2609.46157691844
20
2619.4616822061
30
0.0
40
2399.99999999988
210
0.0
220
0.0
230
1.0
100
AcDbArc
50
175.938147479918
51
184.061852520082
0
LINE
5
162
330
22
100
AcDbEntity
8
\U+7C97\U+5B9E\U+7EBF\U+5C42
62
256
6
ByLayer
370
-1
48
1.0
60
0
100
AcDbLine
10
209.474910303767
20
2449.4616822061
30
0.0
11
215.489981416437
21
2449.4616822061
31
0.0
39
0.0
210
0.0
220
0.0
230
1.0
0
LINE
5
163
330
22
100
AcDbEntity
8
\U+7C97\U+5B9E\U+7EBF\U+5C42
62
256
6
ByLayer
370
-1
48
1.0
60
0
100
AcDbLine
10
209.474910324833
20
2789.4616822061
30
0.0
11
215.489981477006
21
2789.4616822061
31
0.0
39
0.0
210
0.0
220
0.0
230
1.0
0
LINE
5
164
330
22
100
AcDbEntity
8
\U+4E2D\U+5FC3\U+7EBF\U+5C42
62
256
6
ByLayer
370
-1
48
1.0
60
0
100
AcDbLine
10
194.14101703866
20
2619.4616822061
30
0.0
11
218.489981446722
21
2619.4616822061
31
0.0
39
0.0
210
0.0
220
0.0
230
1.0
0
LINE
5
165
330
22
100
AcDbEntity
8
\U+7C97\U+5B9E\U+7EBF\U+5C42
62
256
6
ByLayer
370
-1
48
1.0
60
0
100
AcDbLine
10
203.46157763381
20
2719.46168220625
30
0.0
11
203.461576203299
21
2519.46168220625
31
0.0
39
0.0
210
0.0
220
0.0
230
1.0
0
LINE
5
166
330
22
100
AcDbEntity
8
\U+7C97\U+5B9E\U+7EBF\U+5C42
62
256
6
ByLayer
370
-1
48
1.0
60
0
100
AcDbLine
10
203.461576203299
20
2519.46168220625
30
0.0
11
187.461576203299
21
2519.46168220625
31
0.0
39
0.0
210
0.0
220
0.0
230
1.0
0
LINE
5
167
330
22
100
AcDbEntity
8
\U+7C97\U+5B9E\U+7EBF\U+5C42
62
256
6
ByLayer
370
-1
48
1.0
60
0
100
AcDbLine
10
187.461576203299
20
2519.46168220625
30
0.0
11
187.461575249624
21
2719.46168220625
31
0.0
39
0.0
210
0.0
220
0.0
230
1.0
0
LINE
5
168
330
22
100
AcDbEntity
8
\U+7C97\U+5B9E\U+7EBF\U+5C42
62
256
6
ByLayer
370
-1
48
1.0
60
0
100
AcDbLine
10
187.461575249624
20
2719.46168220625
30
0.0
11
203.46157763381
21
2719.46168220625
31
0.0
39
0.0
210
0.0
220
0.0
230
1.0
0
ENDBLK
5
23
330
22
100
AcDbEntity
8
0
100
AcDbBlockEnd
0
BLOCK
5
16B
330
169
100
AcDbEntity
67
1
8
0
100
AcDbBlockBegin
2
*Paper_Space
70
0
10
0.0
20
0.0
30
0.0
3
*Paper_Space
4

0
ENDBLK
5
16A
330
169
100
AcDbEntity
8
0
100
AcDbBlockEnd
0
ENDSEC
0
SECTION
2
ENTITIES
0
VIEWPORT
5
16D
330
169
100
AcDbEntity
67
1
8
0
62
256
6
ByLayer
370
-1
48
1.0
60
0
100
AcDbViewport
10
0.0
20
0.0
30
0.0
40
297.0
41
210.0
68
1
69
1
12
50.0
22
100.0
13
0.0
23
0.0
14
10.0
24
10.0
15
10.0
25
10.0
16
0.0
26
0.0
36
1.0
17
0.0
27
0.0
37
0.0
42
50.0
43
0.0
44
0.0
45
250.0
50
0.0
51
0.0
72
1000
90
819232
110
0.0
120
0.0
130
0.0
111
1.0
121
0.0
131
0.0
112
0.0
122
1.0
132
0.0
0
ENDSEC
0
SECTION
2
OBJECTS
0
DICTIONARY
5
172
330
0
100
AcDbDictionary
280
1
281
1
3
ACAD_GROUP
350
12
3
ACAD_LAYOUT
350
16C
3
ACAD_DGNDEFINITIONS
350
F
3
ACAD_DWFDEFINITIONS
350
10
3
ACAD_PDFDEFINITIONS
350
11
3
ACAD_MLINESTYLE
350
B
3
ACAD_IMAGE_DICT
350
E
3
ACAD_IMAGE_VARS
350
21
0
DICTIONARY
5
12
330
172
100
AcDbDictionary
280
1
281
1
0
DICTIONARY
5
16C
330
172
100
AcDbDictionary
280
1
281
1
3
Model
350
20
3
Layout1
350
16E
0
DICTIONARY
5
F
330
172
100
AcDbDictionary
280
1
281
1
0
DICTIONARY
5
10
330
172
100
AcDbDictionary
280
1
281
1
0
DICTIONARY
5
11
330
172
100
AcDbDictionary
280
1
281
1
0
DICTIONARY
5
B
330
172
100
AcDbDictionary
280
1
281
1
3
Standard
350
1B
0
DICTIONARY
5
E
330
172
100
AcDbDictionary
280
1
281
1
0
DICTIONARY
5
6
330
5
100
AcDbDictionary
280
1
281
1
3
ACAD_LAYERSTATES
360
173
0
DICTIONARY
5
173
330
6
100
AcDbDictionary
280
1
281
1
0
LAYOUT
5
20
330
16C
100
AcDbPlotSettings
1

2
none_device
4
ISO_A4_(210.00_x_297.00_MM)
6

40
7.5
41
20.0
42
7.5
43
20.0
44
210.0
45
297.0
46
0.0
47
0.0
48
0.0
49
0.0
140
0.0
141
0.0
142
1.0
143
1.0
70
11952
72
1
73
1
74
1
7

75
0
76
0
77
2
78
300
147
1.0
148
0.0
149
0.0
100
AcDbLayout
1
Model
71
0
10
-20.0
20
-7.5
11
277.0
21
202.5
12
0.0
22
0.0
32
0.0
14
25.7
24
19.5
34
0.0
15
231.3
25
175.5
35
0.0
146
0.0
13
0.0
23
0.0
33
0.0
16
1.0
26
0.0
36
0.0
17
0.0
27
1.0
37
0.0
76
0
330
1C
0
LAYOUT
5
16E
330
16C
100
AcDbPlotSettings
1

2
none_device
4
ISO_A4_(210.00_x_297.00_MM)
6

40
7.5
41
20.0
42
7.5
43
20.0
44
210.0
45
297.0
46
0.0
47
0.0
48
0.0
49
0.0
140
0.0
141
0.0
142
1.0
143
1.0
70
688
72
1
73
1
74
1
7

75
0
76
0
77
2
78
300
147
1.0
148
0.0
149
0.0
100
AcDbLayout
1
Layout1
71
1
10
-20.0
20
-7.5
11
277.0
21
202.5
12
0.0
22
0.0
32
0.0
14
25.7
24
19.5
34
0.0
15
231.3
25
175.5
35
0.0
146
0.0
13
0.0
23
0.0
33
0.0
16
1.0
26
0.0
36
0.0
17
0.0
27
1.0
37
0.0
76
0
330
169
0
MLINESTYLE
5
1B
330
B
100
AcDbMlineStyle
2
Standard
70
0
3

62
256
51
90.0
52
90.0
71
2
49
0.5
62
256
6
ByLayer
49
-0.5
62
256
6
ByLayer
0
RASTERVARIABLES
5
21
330
E
100
AcDbRasterVariables
90
0
70
1
71
1
72
0
0
ENDSEC
0
EOF
