999
DXF file generated by netDxf https://github.com/haplokuon/netDxf, Copyright(C) 2009-2020 Daniel Carvajal, Licensed under LGPL
0
SECTION
2
HEADER
9
$ACADVER
1
AC1015
9
$DWGCODEPAGE
3
ANSI_1252
9
$HANDSEED
5
6A
9
$ANGBASE
50
0.0
9
$ANGDIR
70
0
9
$ATTMODE
70
1
9
$AUNITS
70
0
9
$AUPREC
70
0
9
$CECOLOR
62
256
9
$CELTSCALE
40
1.0
9
$CELTYPE
6
ByLayer
9
$CELWEIGHT
370
-1
9
$CLAYER
8
0
9
$CMLJUST
70
0
9
$CMLSCALE
40
20.0
9
$CMLSTYLE
2
Standard
9
$DIMSTYLE
2
Standard
9
$TEXTSIZE
40
2.5
9
$TEXTSTYLE
7
Standard
9
$LUNITS
70
2
9
$LUPREC
70
4
9
$MIRRTEXT
70
0
9
$EXTNAMES
290
1
9
$INSBASE
10
0.0
20
0.0
30
0.0
9
$INSUNITS
70
0
9
$LTSCALE
40
1.0
9
$LWDISPLAY
290
0
9
$PDMODE
70
0
9
$PDSIZE
40
0.0
9
$PLINEGEN
70
0
9
$PSLTSCALE
70
1
9
$TDCREATE
40
2459821.45292774
9
$TDUCREATE
40
2459821.11959441
9
$TDUPDATE
40
2459821.45292774
9
$TDUUPDATE
40
2459821.11959441
9
$TDINDWG
40
0.0
9
$UCSORG
10
0.0
20
0.0
30
0.0
9
$UCSXDIR
10
1.0
20
0.0
30
0.0
9
$UCSYDIR
10
0.0
20
1.0
30
0.0
9
$DIMADEC
70
0
9
$DIMALT
70
0
9
$DIMALTD
70
2
9
$DIMALTF
40
25.4
9
$DIMALTRND
40
0.0
9
$DIMALTTD
70
2
9
$DIMALTTZ
70
0
9
$DIMALTU
70
2
9
$DIMALTZ
70
0
9
$DIMAPOST
1

9
$DIMATFIT
70
3
9
$DIMAUNIT
70
0
9
$DIMASZ
40
0.18
9
$DIMAZIN
70
0
9
$DIMSAH
70
0
9
$DIMBLK
1

9
$DIMLDRBLK
1

9
$DIMCEN
40
0.09
9
$DIMCLRD
70
0
9
$DIMCLRE
70
0
9
$DIMCLRT
70
0
9
$DIMDEC
70
4
9
$DIMDLE
40
0.0
9
$DIMDLI
40
0.38
9
$DIMDSEP
70
46
9
$DIMEXE
40
0.18
9
$DIMEXO
40
0.0625
9
$DIMFXLON
70
0
9
$DIMFXL
40
1.0
9
$DIMGAP
40
0.09
9
$DIMJUST
70
0
9
$DIMLFAC
40
1.0
9
$DIMLUNIT
70
2
9
$DIMLWD
70
-2
9
$DIMLWE
70
-2
9
$DIMPOST
1

9
$DIMRND
40
0.0
9
$DIMSCALE
40
1.0
9
$DIMSD1
70
0
9
$DIMSD2
70
0
9
$DIMSE1
70
0
9
$DIMSE2
70
0
9
$DIMSOXD
70
0
9
$DIMTAD
70
0
9
$DIMTDEC
70
4
9
$DIMTFAC
40
1.0
9
$DIMTIH
70
0
9
$DIMTIX
70
0
9
$DIMTM
40
0.0
9
$DIMTMOVE
70
0
9
$DIMTOFL
70
0
9
$DIMTOH
70
0
9
$DIMTOL
70
0
9
$DIMLIM
70
0
9
$DIMTOLJ
70
1
9
$DIMTP
40
0.0
9
$DIMTXT
40
0.18
9
$DIMTXTDIRECTION
70
0
9
$DIMTZIN
70
0
9
$DIMZIN
70
0
9
$DIMFRAC
70
0
9
$DIMLTYPE
6
ByBlock
9
$DIMLTEX1
6
ByBlock
9
$DIMLTEX2
6
ByBlock
0
ENDSEC
0
SECTION
2
CLASSES
0
CLASS
1
RASTERVARIABLES
2
AcDbRasterVariables
3
ISM
90
0
280
0
281
0
0
ENDSEC
0
SECTION
2
TABLES
0
TABLE
2
APPID
5
4
330
0
100
AcDbSymbolTable
70
6
0
APPID
5
19
330
4
100
AcDbSymbolTableRecord
100
AcDbRegAppTableRecord
2
ACAD
70
0
0
APPID
5
27
330
4
100
AcDbSymbolTableRecord
100
AcDbRegAppTableRecord
2
RAK
70
0
0
APPID
5
46
330
4
100
AcDbSymbolTableRecord
100
AcDbRegAppTableRecord
2
_TCH
70
0
0
APPID
5
65
330
4
100
AcDbSymbolTableRecord
100
AcDbRegAppTableRecord
2
AcCmTransparency
70
0
0
APPID
5
66
330
4
100
AcDbSymbolTableRecord
100
AcDbRegAppTableRecord
2
GradientColor1ACI
70
0
0
APPID
5
67
330
4
100
AcDbSymbolTableRecord
100
AcDbRegAppTableRecord
2
GradientColor2ACI
70
0
0
ENDTAB
0
TABLE
2
VPORT
5
1
330
0
100
AcDbSymbolTable
70
1
0
VPORT
5
2
330
1
100
AcDbSymbolTableRecord
100
AcDbViewportTableRecord
2
*Active
70
0
10
0.0
20
0.0
11
1.0
21
1.0
12
0.0
22
0.0
13
0.0
23
0.0
14
0.5
24
0.5
15
10.0
25
10.0
16
0.0
26
0.0
36
1.0
17
0.0
27
0.0
37
0.0
40
10.0
41
1.0
75
0
76
1
0
ENDTAB
0
TABLE
2
LTYPE
5
7
330
0
100
AcDbSymbolTable
70
5
0
LTYPE
5
15
330
7
100
AcDbSymbolTableRecord
100
AcDbLinetypeTableRecord
2
Continuous
70
0
3
Solid line
72
65
73
0
40
0.0
0
LTYPE
5
16
330
7
100
AcDbSymbolTableRecord
100
AcDbLinetypeTableRecord
2
ByLayer
70
0
3

72
65
73
0
40
0.0
0
LTYPE
5
17
330
7
100
AcDbSymbolTableRecord
100
AcDbLinetypeTableRecord
2
ByBlock
70
0
3

72
65
73
0
40
0.0
0
LTYPE
5
2A
330
7
100
AcDbSymbolTableRecord
100
AcDbLinetypeTableRecord
2
DASHED
70
0
3
Dashed __ __ __ __ __ __ __ __ __ __ __ __ __ _
72
65
73
2
40
0.75
49
0.5
74
0
49
-0.25
74
0
0
LTYPE
5
2B
330
7
100
AcDbSymbolTableRecord
100
AcDbLinetypeTableRecord
2
DASHED2
70
0
3
Dashed (.5x) _ _ _ _ _ _ _ _ _ _ _ _ _ _ _ _ _
72
65
73
2
40
9.525
49
6.35
74
0
49
-3.175
74
0
0
ENDTAB
0
TABLE
2
LAYER
5
5
102
{ACAD_XDICTIONARY
360
6
102
}
330
0
100
AcDbSymbolTable
70
5
0
LAYER
5
14
330
5
100
AcDbSymbolTableRecord
100
AcDbLayerTableRecord
2
0
70
0
62
7
6
Continuous
290
1
370
-3
390
0
0
LAYER
5
26
330
5
100
AcDbSymbolTableRecord
100
AcDbLayerTableRecord
2
\U+6807\U+6CE8
70
0
62
1
6
Continuous
290
1
370
13
390
0
1001
RAK
1000
{ACET-LAYISO
1070
0
1070
1
1000
CONTINUOUS
1071
13
1071
1
1005
1D4F
1000
ACET-LAYISO}
0
LAYER
5
29
330
5
100
AcDbSymbolTableRecord
100
AcDbLayerTableRecord
2
dashed
70
0
62
3
6
DASHED
290
1
370
-3
390
0
1001
RAK
1000
{ACET-LAYISO
1070
0
1070
3
1000
DASHED
1071
-3
1071
1
1005
1D4F
1000
ACET-LAYISO}
0
LAYER
5
4B
330
5
100
AcDbSymbolTableRecord
100
AcDbLayerTableRecord
2
W-TWT_DIM
70
0
62
3
6
Continuous
290
1
370
-3
390
0
0
LAYER
5
52
330
5
100
AcDbSymbolTableRecord
100
AcDbLayerTableRecord
2
W-TWT_TEXT
70
0
62
7
6
Continuous
290
1
370
-3
390
0
0
ENDTAB
0
TABLE
2
STYLE
5
8
330
0
100
AcDbSymbolTable
70
3
0
STYLE
5
18
330
8
100
AcDbSymbolTableRecord
100
AcDbTextStyleTableRecord
2
Standard
3
simplex.shx
70
0
71
0
40
0.0
41
1.0
42
0.0
50
0.0
0
STYLE
5
45
330
8
100
AcDbSymbolTableRecord
100
AcDbTextStyleTableRecord
2
_TCH_DIM_T3
3
sysz.shx
70
0
71
0
40
0.0
41
0.705882352941177
42
0.0
50
0.0
1001
_TCH
1040
0.85
1040
0.6
1070
7
0
STYLE
5
51
330
8
100
AcDbSymbolTableRecord
100
AcDbTextStyleTableRecord
2
PC_TEXTSTYLE
3
isocp.shx
70
0
71
0
40
0.0
41
0.8
42
0.0
50
0.0
0
ENDTAB
0
TABLE
2
DIMSTYLE
5
A
330
0
100
AcDbSymbolTable
70
2
100
AcDbDimStyleTable
0
DIMSTYLE
105
1A
330
A
100
AcDbSymbolTableRecord
100
AcDbDimStyleTableRecord
2
Standard
3

4

40
1.0
41
0.18
42
0.0625
43
0.38
44
0.18
45
0.0
46
0.0
47
0.0
48
0.0
49
1.0
70
0
71
0
72
0
73
0
74
0
75
0
76
0
77
0
78
0
79
0
140
0.18
141
0.09
143
25.4
144
1.0
146
1.0
147
0.09
148
0.0
170
0
171
2
172
0
174
0
175
0
176
0
177
0
178
0
179
0
271
4
272
4
273
2
274
2
275
0
276
0
277
2
278
46
279
0
280
0
281
0
282
0
283
1
284
0
285
0
286
0
289
3
290
0
294
0
340
18
173
0
345
17
346
17
347
17
371
-2
372
-2
0
DIMSTYLE
105
44
330
A
100
AcDbSymbolTableRecord
100
AcDbDimStyleTableRecord
2
_TWT_ARCH&&100
3

4

40
1.0
41
100.0
42
300.0
43
0.0
44
250.0
45
0.0
46
0.0
47
0.0
48
0.0
49
1.0
70
0
71
0
72
0
73
0
74
0
75
0
76
0
77
1
78
0
79
2
140
280.0
141
0.09
143
25.4
144
1.0
146
1.0
147
135.0
148
0.0
170
0
171
2
172
1
174
1
175
0
176
0
177
0
178
7
179
2
271
0
272
0
273
2
274
2
275
0
276
0
277
2
278
46
279
2
280
0
281
0
282
0
283
1
284
0
285
0
286
0
289
3
290
0
294
0
340
45
173
0
342
47
345
17
346
17
347
17
371
-2
372
-2
0
ENDTAB
0
TABLE
2
VIEW
5
3
330
0
100
AcDbSymbolTable
70
0
0
ENDTAB
0
TABLE
2
UCS
5
C
330
0
100
AcDbSymbolTable
70
0
0
ENDTAB
0
TABLE
2
BLOCK_RECORD
5
D
330
0
100
AcDbSymbolTable
70
4
0
BLOCK_RECORD
5
1C
330
D
100
AcDbSymbolTableRecord
100
AcDbBlockTableRecord
2
*Model_Space
340
20
0
BLOCK_RECORD
5
22
330
D
100
AcDbSymbolTableRecord
100
AcDbBlockTableRecord
2
\U+7EAF\U+6C34\U+7AD930\U+7ACB\U+65B9
340
0
70
0
280
1
281
0
1001
ACAD
1000
DesignCenter Data
1002
{
1070
1
1070
0
1002
}
0
BLOCK_RECORD
5
47
330
D
100
AcDbSymbolTableRecord
100
AcDbBlockTableRecord
2
_ArchTick
340
0
70
0
280
1
281
0
1001
ACAD
1000
DesignCenter Data
1002
{
1070
1
1070
0
1002
}
0
BLOCK_RECORD
5
5F
330
D
100
AcDbSymbolTableRecord
100
AcDbBlockTableRecord
2
*Paper_Space
340
64
0
ENDTAB
0
ENDSEC
0
SECTION
2
BLOCKS
0
BLOCK
5
1E
330
1C
100
AcDbEntity
67
0
8
0
100
AcDbBlockBegin
2
*Model_Space
70
0
10
0.0
20
0.0
30
0.0
3
*Model_Space
4

0
ENDBLK
5
1D
330
1C
100
AcDbEntity
8
0
100
AcDbBlockEnd
0
BLOCK
5
24
330
22
100
AcDbEntity
8
0
100
AcDbBlockBegin
2
\U+7EAF\U+6C34\U+7AD930\U+7ACB\U+65B9
70
0
10
0.0
20
0.0
30
0.0
3
\U+7EAF\U+6C34\U+7AD930\U+7ACB\U+65B9
4

0
LWPOLYLINE
5
25
330
22
100
AcDbEntity
8
\U+6807\U+6CE8
62
256
6
ByLayer
370
-1
48
1.0
60
0
100
AcDbPolyline
90
4
70
1
38
0.0
39
0.0
10
1877.92871403554
20
-962.896046269336
40
0.0
41
0.0
42
0.0
10
16877.9287140355
20
-962.896046269336
40
0.0
41
0.0
42
0.0
10
16877.9287140355
20
-8962.89604626934
40
0.0
41
0.0
42
0.0
10
1877.92871403554
20
-8962.89604626934
40
0.0
41
0.0
42
0.0
210
0.0
220
0.0
230
1.0
0
CIRCLE
5
28
330
22
100
AcDbEntity
8
dashed
62
3
6
DASHED2
370
-1
48
1.0
60
0
100
AcDbCircle
10
4077.42871403554
20
-3162.89604626934
30
0.0
40
1200.0
39
0.0
210
0.0
220
0.0
230
1.0
0
CIRCLE
5
2C
330
22
100
AcDbEntity
8
dashed
62
3
6
DASHED2
370
-1
48
1.0
60
0
100
AcDbCircle
10
7177.42871403554
20
-3162.89604626934
30
0.0
40
900.0
39
0.0
210
0.0
220
0.0
230
1.0
0
LWPOLYLINE
5
2D
330
22
100
AcDbEntity
8
dashed
62
3
6
DASHED2
370
-1
48
1.0
60
0
100
AcDbPolyline
90
4
70
1
38
0.0
39
0.0
10
3377.92871403554
20
-7962.39604626934
40
0.0
41
0.0
42
0.0
10
3377.92871403554
20
-6462.39604626934
40
0.0
41
0.0
42
0.0
10
8877.92871403555
20
-6462.39604626934
40
0.0
41
0.0
42
0.0
10
8877.92871403555
20
-7962.39604626934
40
0.0
41
0.0
42
0.0
210
0.0
220
0.0
230
1.0
0
LWPOLYLINE
5
2E
330
22
100
AcDbEntity
8
\U+6807\U+6CE8
62
256
6
ByLayer
370
-1
48
1.0
60
0
100
AcDbPolyline
90
4
70
1
38
0.0
39
0.0
10
15877.9287140355
20
-7962.89604626933
40
0.0
41
0.0
42
0.0
10
12877.9287140355
20
-7962.89604626933
40
0.0
41
0.0
42
0.0
10
12877.9287140355
20
-4962.89604626933
40
0.0
41
0.0
42
0.0
10
15877.9287140355
20
-4962.89604626933
40
0.0
41
0.0
42
0.0
210
0.0
220
0.0
230
1.0
0
LWPOLYLINE
5
2F
330
22
100
AcDbEntity
8
dashed
62
3
6
DASHED2
370
-1
48
1.0
60
0
100
AcDbPolyline
90
4
70
1
38
0.0
39
0.0
10
3277.92871403554
20
-4478.39604626933
40
0.0
41
0.0
42
0.0
10
3977.92871403554
20
-4478.39604626933
40
0.0
41
0.0
42
0.0
10
3977.92871403554
20
-5178.39604626934
40
0.0
41
0.0
42
0.0
10
3277.92871403554
20
-5178.39604626934
40
0.0
41
0.0
42
0.0
210
0.0
220
0.0
230
1.0
0
LWPOLYLINE
5
30
330
22
100
AcDbEntity
8
dashed
62
3
6
DASHED2
370
-1
48
1.0
60
0
100
AcDbPolyline
90
4
70
1
38
0.0
39
0.0
10
4514.92871403554
20
-4478.39604626933
40
0.0
41
0.0
42
0.0
10
5214.92871403554
20
-4478.39604626933
40
0.0
41
0.0
42
0.0
10
5214.92871403554
20
-5178.39604626934
40
0.0
41
0.0
42
0.0
10
4514.92871403554
20
-5178.39604626934
40
0.0
41
0.0
42
0.0
210
0.0
220
0.0
230
1.0
0
CIRCLE
5
31
330
22
100
AcDbEntity
8
dashed
62
3
6
DASHED2
370
-1
48
1.0
60
0
100
AcDbCircle
10
15231.9287140355
20
-3162.89604626934
30
0.0
40
1250.0
39
0.0
210
0.0
220
0.0
230
1.0
0
LWPOLYLINE
5
32
330
22
100
AcDbEntity
8
dashed
62
3
6
DASHED2
370
-1
48
1.0
60
0
100
AcDbPolyline
90
4
70
1
38
0.0
39
0.0
10
11303.9287140355
20
-7962.89604626933
40
0.0
41
0.0
42
0.0
10
12002.9287140355
20
-7962.89604626933
40
0.0
41
0.0
42
0.0
10
12002.9287140355
20
-7262.89604626934
40
0.0
41
0.0
42
0.0
10
11303.9287140355
20
-7262.89604626934
40
0.0
41
0.0
42
0.0
210
0.0
220
0.0
230
1.0
0
LWPOLYLINE
5
33
330
22
100
AcDbEntity
8
dashed
62
3
6
DASHED2
370
-1
48
1.0
60
0
100
AcDbPolyline
90
4
70
1
38
0.0
39
0.0
10
11303.9287140355
20
-7262.89604626934
40
0.0
41
0.0
42
0.0
10
12002.9287140355
20
-7262.89604626934
40
0.0
41
0.0
42
0.0
10
12002.9287140355
20
-6562.89604626934
40
0.0
41
0.0
42
0.0
10
11303.9287140355
20
-6562.89604626934
40
0.0
41
0.0
42
0.0
210
0.0
220
0.0
230
1.0
0
CIRCLE
5
34
330
22
100
AcDbEntity
8
dashed
62
3
6
DASHED2
370
-1
48
1.0
60
0
100
AcDbCircle
10
9977.42871403555
20
-3162.89604626934
30
0.0
40
900.0
39
0.0
210
0.0
220
0.0
230
1.0
0
CIRCLE
5
35
330
22
100
AcDbEntity
8
dashed
62
3
6
DASHED2
370
-1
48
1.0
60
0
100
AcDbCircle
10
13427.6588699152
20
-4119.17603121523
30
0.0
40
500.0
39
0.0
210
0.0
220
0.0
230
1.0
0
LWPOLYLINE
5
36
330
22
100
AcDbEntity
8
dashed
62
3
6
DASHED2
370
-1
48
1.0
60
0
100
AcDbPolyline
90
4
70
1
38
0.0
39
0.0
10
12728.9287140355
20
-4570.39604626934
40
0.0
41
0.0
42
0.0
10
12905.9287140355
20
-4570.39604626934
40
0.0
41
0.0
42
0.0
10
12905.9287140355
20
-4765.39604626933
40
0.0
41
0.0
42
0.0
10
12728.9287140355
20
-4765.39604626933
40
0.0
41
0.0
42
0.0
210
0.0
220
0.0
230
1.0
0
LWPOLYLINE
5
37
330
22
100
AcDbEntity
8
dashed
62
3
6
DASHED2
370
-1
48
1.0
60
0
100
AcDbPolyline
90
4
70
1
38
0.0
39
0.0
10
7977.92871403555
20
-5723.69014928292
40
0.0
41
0.0
42
0.0
10
8677.92871403554
20
-5723.69014928292
40
0.0
41
0.0
42
0.0
10
8677.92871403554
20
-6423.69014928292
40
0.0
41
0.0
42
0.0
10
7977.92871403555
20
-6423.69014928292
40
0.0
41
0.0
42
0.0
210
0.0
220
0.0
230
1.0
0
LWPOLYLINE
5
38
330
22
100
AcDbEntity
8
dashed
62
3
6
DASHED2
370
-1
48
1.0
60
0
100
AcDbPolyline
90
4
70
1
38
0.0
39
0.0
10
7277.92871403555
20
-5723.69014928292
40
0.0
41
0.0
42
0.0
10
7977.92871403555
20
-5723.69014928292
40
0.0
41
0.0
42
0.0
10
7977.92871403555
20
-6423.69014928292
40
0.0
41
0.0
42
0.0
10
7277.92871403555
20
-6423.69014928292
40
0.0
41
0.0
42
0.0
210
0.0
220
0.0
230
1.0
0
LWPOLYLINE
5
39
330
22
100
AcDbEntity
8
dashed
62
3
6
DASHED2
370
-1
48
1.0
60
0
100
AcDbPolyline
90
4
70
1
38
0.0
39
0.0
10
9989.92871403555
20
-8362.89604626934
40
0.0
41
0.0
42
0.0
10
11189.9287140355
20
-8362.89604626934
40
0.0
41
0.0
42
0.0
10
11189.9287140355
20
-8962.89604626934
40
0.0
41
0.0
42
0.0
10
9989.92871403555
20
-8962.89604626934
40
0.0
41
0.0
42
0.0
210
0.0
220
0.0
230
1.0
0
LWPOLYLINE
5
3A
330
22
100
AcDbEntity
8
dashed
62
3
6
DASHED2
370
-1
48
1.0
60
0
100
AcDbPolyline
90
4
70
1
38
0.0
39
0.0
10
11189.9287140355
20
-8362.89604626934
40
0.0
41
0.0
42
0.0
10
12389.9287140355
20
-8362.89604626934
40
0.0
41
0.0
42
0.0
10
12389.9287140355
20
-8962.89604626934
40
0.0
41
0.0
42
0.0
10
11189.9287140355
20
-8962.89604626934
40
0.0
41
0.0
42
0.0
210
0.0
220
0.0
230
1.0
0
CIRCLE
5
3B
330
22
100
AcDbEntity
8
\U+6807\U+6CE8
62
256
6
ByLayer
370
-1
48
1.0
60
0
100
AcDbCircle
10
8492.42871403554
20
-4885.14934276755
30
0.0
40
307.0
39
0.0
210
0.0
220
0.0
230
1.0
0
CIRCLE
5
3C
330
22
100
AcDbEntity
8
\U+6807\U+6CE8
62
256
6
ByLayer
370
-1
48
1.0
60
0
100
AcDbCircle
10
9106.42871403554
20
-4885.14934276755
30
0.0
40
307.0
39
0.0
210
0.0
220
0.0
230
1.0
0
CIRCLE
5
3D
330
22
100
AcDbEntity
8
\U+6807\U+6CE8
62
256
6
ByLayer
370
-1
48
1.0
60
0
100
AcDbCircle
10
9720.42871403554
20
-4885.14934276755
30
0.0
40
307.0
39
0.0
210
0.0
220
0.0
230
1.0
0
LWPOLYLINE
5
3E
330
22
100
AcDbEntity
8
\U+6807\U+6CE8
62
256
6
ByLayer
370
-1
48
1.0
60
0
100
AcDbPolyline
90
4
70
1
38
0.0
39
0.0
10
12377.9287140355
20
-962.896046269336
40
0.0
41
0.0
42
0.0
10
12127.9287140355
20
-962.896046269336
40
0.0
41
0.0
42
0.0
10
12127.9287140355
20
-7962.89604626933
40
0.0
41
0.0
42
0.0
10
12377.9287140355
20
-7962.89604626933
40
0.0
41
0.0
42
0.0
210
0.0
220
0.0
230
1.0
0
LWPOLYLINE
5
3F
330
22
100
AcDbEntity
8
\U+6807\U+6CE8
62
256
6
ByLayer
370
-1
48
1.0
60
0
100
AcDbPolyline
90
4
70
1
38
0.0
39
0.0
10
12377.9287140355
20
-5512.89604626934
40
0.0
41
0.0
42
0.0
10
12377.9287140355
20
-5262.89604626934
40
0.0
41
0.0
42
0.0
10
1877.92871403554
20
-5262.89604626934
40
0.0
41
0.0
42
0.0
10
1877.92871403554
20
-5512.89604626934
40
0.0
41
0.0
42
0.0
210
0.0
220
0.0
230
1.0
0
LWPOLYLINE
5
40
330
22
100
AcDbEntity
8
\U+6807\U+6CE8
62
256
6
ByLayer
370
-1
48
1.0
60
0
100
AcDbPolyline
90
4
70
1
38
0.0
39
0.0
10
12052.9287140355
20
-962.896046269336
40
0.0
41
0.0
42
0.0
10
12452.9287140355
20
-962.896046269336
40
0.0
41
0.0
42
0.0
10
12452.9287140355
20
-1362.89604626934
40
0.0
41
0.0
42
0.0
10
12052.9287140355
20
-1362.89604626934
40
0.0
41
0.0
42
0.0
210
0.0
220
0.0
230
1.0
0
LWPOLYLINE
5
41
330
22
100
AcDbEntity
8
\U+6807\U+6CE8
62
256
6
ByLayer
370
-1
48
1.0
60
0
100
AcDbPolyline
90
4
70
1
38
0.0
39
0.0
10
12943.9287140355
20
-1262.89604626934
40
0.0
41
0.0
42
0.0
10
13943.9287140355
20
-1262.89604626934
40
0.0
41
0.0
42
0.0
10
13943.9287140355
20
-2262.89604626934
40
0.0
41
0.0
42
0.0
10
12943.9287140355
20
-2262.89604626934
40
0.0
41
0.0
42
0.0
210
0.0
220
0.0
230
1.0
0
LWPOLYLINE
5
42
330
22
100
AcDbEntity
8
dashed
62
3
6
DASHED2
370
-1
48
1.0
60
0
100
AcDbPolyline
90
4
70
1
38
0.0
39
0.0
10
12996.1279207817
20
-3180.52447281499
40
0.0
41
0.0
42
0.0
10
13695.1279207817
20
-3180.52447281499
40
0.0
41
0.0
42
0.0
10
13695.1279207817
20
-2480.52447281499
40
0.0
41
0.0
42
0.0
10
12996.1279207817
20
-2480.52447281499
40
0.0
41
0.0
42
0.0
210
0.0
220
0.0
230
1.0
0
DIMENSION
5
43
330
22
100
AcDbEntity
8
W-TWT_DIM
62
256
6
ByLayer
370
-1
48
1.0
60
0
100
AcDbDimension
10
3377.92871403554
20
-8518.39604626934
30
0.0
11
6127.92871403555
21
-8236.72937960267
31
0.0
53
0.0
70
33
71
5
72
1
41
1.0
210
0.0
220
0.0
230
1.0
3
_TWT_ARCH&&100
100
AcDbAlignedDimension
13
8877.92871403555
23
-7962.39604626934
33
0.0
14
3377.92871403554
24
-7962.39604626934
34
0.0
0
DIMENSION
5
4C
330
22
100
AcDbEntity
8
W-TWT_DIM
62
256
6
ByLayer
370
-1
48
1.0
60
0
100
AcDbDimension
10
2936.42871403565
20
-6462.39604626934
30
0.0
11
2654.76204736899
21
-7212.39604626933
31
0.0
53
0.0
70
33
71
5
72
1
41
1.0
210
0.0
220
0.0
230
1.0
3
_TWT_ARCH&&100
100
AcDbAlignedDimension
13
3377.92871403554
23
-7962.39604626934
33
0.0
14
3377.92871403554
24
-6462.39604626934
34
0.0
0
DIMENSION
5
4D
330
22
100
AcDbEntity
8
W-TWT_DIM
62
256
6
ByLayer
370
-1
48
1.0
60
0
100
AcDbDimension
10
11463.4287140357
20
-4062.89604626934
30
0.0
11
11181.762047369
21
-3162.89604626933
31
0.0
53
0.0
70
33
71
5
72
1
41
1.0
210
0.0
220
0.0
230
1.0
3
_TWT_ARCH&&100
100
AcDbAlignedDimension
13
9977.42871403555
23
-2262.89604626934
33
0.0
14
9977.42871403555
24
-4062.89604626934
34
0.0
0
DIMENSION
5
4E
330
22
100
AcDbEntity
8
W-TWT_DIM
62
256
6
ByLayer
370
-1
48
1.0
60
0
100
AcDbDimension
10
8684.92871403566
20
-4062.89604626934
30
0.0
11
8403.26204736899
21
-3162.89604626933
31
0.0
53
0.0
70
33
71
5
72
1
41
1.0
210
0.0
220
0.0
230
1.0
3
_TWT_ARCH&&100
100
AcDbAlignedDimension
13
7177.42871403554
23
-2262.89604626934
33
0.0
14
7177.42871403554
24
-4062.89604626934
34
0.0
0
DIMENSION
5
4F
330
22
100
AcDbEntity
8
W-TWT_DIM
62
256
6
ByLayer
370
-1
48
1.0
60
0
100
AcDbDimension
10
5887.92871403566
20
-4362.89604626934
30
0.0
11
5606.26204736899
21
-3162.89604626933
31
0.0
53
0.0
70
33
71
5
72
1
41
1.0
210
0.0
220
0.0
230
1.0
3
_TWT_ARCH&&100
100
AcDbAlignedDimension
13
4077.42871403554
23
-1962.89604626934
33
0.0
14
4077.42871403554
24
-4362.89604626934
34
0.0
0
TEXT
5
50
330
22
100
AcDbEntity
8
W-TWT_TEXT
62
256
6
DASHED2
370
-1
48
1.0
60
0
100
AcDbText
1
\U+7802\U+6EE4
10
6825.42871403554
20
-3340.39604626934
30
0.0
40
675.177304964539
41
0.707
50
0.0
51
0.0
7
PC_TEXTSTYLE
11
6825.42871403554
21
-3340.39604626934
31
0.0
210
0.0
220
0.0
230
1.0
71
0
72
0
100
AcDbText
73
0
0
TEXT
5
53
330
22
100
AcDbEntity
8
W-TWT_TEXT
62
256
6
DASHED2
370
-1
48
1.0
60
0
100
AcDbText
1
\U+53CD\U+6E17\U+900F\U+4E3B\U+673A
10
5097.68201053375
20
-7465.89604626933
30
0.0
40
675.177304964539
41
0.707
50
0.0
51
0.0
7
PC_TEXTSTYLE
11
5097.68201053375
21
-7465.89604626933
31
0.0
210
0.0
220
0.0
230
1.0
71
0
72
0
100
AcDbText
73
0
0
TEXT
5
54
330
22
100
AcDbEntity
8
W-TWT_TEXT
62
256
6
DASHED2
370
-1
48
1.0
60
0
100
AcDbText
1
\U+7EAF\U+6C34\U+7BB1
10
13171.9287140355
20
-6984.39604626934
30
0.0
40
675.177304964539
41
0.707
50
0.0
51
0.0
7
PC_TEXTSTYLE
11
13171.9287140355
21
-6984.39604626934
31
0.0
210
0.0
220
0.0
230
1.0
71
0
72
0
100
AcDbText
73
0
0
TEXT
5
55
330
22
100
AcDbEntity
8
W-TWT_TEXT
62
256
6
DASHED2
370
-1
48
1.0
60
0
100
AcDbText
1
30m3
10
14214.377650206
20
-6984.39604626934
30
0.0
40
700.0
41
0.707
50
0.0
51
0.0
7
PC_TEXTSTYLE
11
14214.377650206
21
-6984.39604626934
31
0.0
210
0.0
220
0.0
230
1.0
71
0
72
0
100
AcDbText
73
0
0
TEXT
5
56
330
22
100
AcDbEntity
8
W-TWT_TEXT
62
256
6
DASHED2
370
-1
48
1.0
60
0
100
AcDbText
1
\U+539F\U+6C34\U+7BB1
10
3582.42871403554
20
-3088.89604626934
30
0.0
40
675.177304964539
41
0.707
50
0.0
51
0.0
7
PC_TEXTSTYLE
11
3582.42871403554
21
-3088.89604626934
31
0.0
210
0.0
220
0.0
230
1.0
71
0
72
0
100
AcDbText
73
0
0
TEXT
5
57
330
22
100
AcDbEntity
8
W-TWT_TEXT
62
256
6
DASHED2
370
-1
48
1.0
60
0
100
AcDbText
1
10T
10
3570.18201053375
20
-4008.89604626933
30
0.0
40
700.0
41
0.707
50
0.0
51
0.0
7
PC_TEXTSTYLE
11
3570.18201053375
21
-4008.89604626933
31
0.0
210
0.0
220
0.0
230
1.0
71
0
72
0
100
AcDbText
73
0
0
TEXT
5
58
330
22
100
AcDbEntity
8
W-TWT_TEXT
62
256
6
DASHED2
370
-1
48
1.0
60
0
100
AcDbText
1
\U+4E2D\U+95F4\U+6C34\U+7BB1
10
14661.6820105338
20
-3425.39604626934
30
0.0
40
675.177304964539
41
0.707
50
0.0
51
0.0
7
PC_TEXTSTYLE
11
14661.6820105338
21
-3425.39604626934
31
0.0
210
0.0
220
0.0
230
1.0
71
0
72
0
100
AcDbText
73
0
0
TEXT
5
59
330
22
100
AcDbEntity
8
W-TWT_TEXT
62
256
6
DASHED2
370
-1
48
1.0
60
0
100
AcDbText
1
10T
10
14661.6820105338
20
-4197.39604626933
30
0.0
40
700.0
41
0.707
50
0.0
51
0.0
7
PC_TEXTSTYLE
11
14661.6820105338
21
-4197.39604626933
31
0.0
210
0.0
220
0.0
230
1.0
71
0
72
0
100
AcDbText
73
0
0
TEXT
5
5A
330
22
100
AcDbEntity
8
W-TWT_TEXT
62
256
6
DASHED2
370
-1
48
1.0
60
0
100
AcDbText
1
\U+78B3\U+6EE4
10
9625.42871403554
20
-3340.39604626934
30
0.0
40
675.177304964539
41
0.707
50
0.0
51
0.0
7
PC_TEXTSTYLE
11
9625.42871403554
21
-3340.39604626934
31
0.0
210
0.0
220
0.0
230
1.0
71
0
72
0
100
AcDbText
73
0
0
TEXT
5
5B
330
22
100
AcDbEntity
8
W-TWT_TEXT
62
256
6
DASHED2
370
-1
48
1.0
60
0
100
AcDbText
1
\U+6E05\U+6D17\U+6C34\U+7BB1
10
12078.4121664134
20
-4426.67603121523
30
0.0
40
675.177304964539
41
0.707
50
0.0
51
0.0
7
PC_TEXTSTYLE
11
12078.4121664134
21
-4426.67603121523
31
0.0
210
0.0
220
0.0
230
1.0
71
0
72
0
100
AcDbText
73
0
0
TEXT
5
5C
330
22
100
AcDbEntity
8
W-TWT_TEXT
62
256
6
DASHED2
370
-1
48
1.0
60
0
100
AcDbText
1
\U+63A7\U+5236\U+67DC
10
10260.9287140355
20
-8918.39604626934
30
0.0
40
675.177304964539
41
0.707
50
0.0
51
0.0
7
PC_TEXTSTYLE
11
10260.9287140355
21
-8918.39604626934
31
0.0
210
0.0
220
0.0
230
1.0
71
0
72
0
100
AcDbText
73
0
0
TEXT
5
5D
330
22
100
AcDbEntity
8
W-TWT_TEXT
62
256
6
DASHED2
370
-1
48
1.0
60
0
100
AcDbText
1
\U+836F\U+5242
10
10175.4287140355
20
-5100.89604626934
30
0.0
40
675.177304964539
41
0.707
50
0.0
51
0.0
7
PC_TEXTSTYLE
11
10175.4287140355
21
-5100.89604626934
31
0.0
210
0.0
220
0.0
230
1.0
71
0
72
0
100
AcDbText
73
0
0
TEXT
5
5E
330
22
100
AcDbEntity
8
W-TWT_TEXT
62
256
6
DASHED2
370
-1
48
1.0
60
0
100
AcDbText
1
\U+6D53\U+6C34\U+5751
10
12923.1820105338
20
-2005.39604626934
30
0.0
40
675.177304964539
41
0.707
50
0.0
51
0.0
7
PC_TEXTSTYLE
11
12923.1820105338
21
-2005.39604626934
31
0.0
210
0.0
220
0.0
230
1.0
71
0
72
0
100
AcDbText
73
0
0
ENDBLK
5
23
330
22
100
AcDbEntity
8
0
100
AcDbBlockEnd
0
BLOCK
5
49
330
47
100
AcDbEntity
8
0
100
AcDbBlockBegin
2
_ArchTick
70
0
10
0.0
20
0.0
30
0.0
3
_ArchTick
4

0
LWPOLYLINE
5
4A
330
47
100
AcDbEntity
8
0
62
0
6
ByBlock
370
-1
48
1.0
60
0
100
AcDbPolyline
90
2
70
0
38
0.0
39
0.0
10
-0.5
20
-0.5
40
0.4
41
0.4
42
0.0
10
0.5
20
0.5
40
0.4
41
0.4
42
0.0
210
0.0
220
0.0
230
1.0
0
ENDBLK
5
48
330
47
100
AcDbEntity
8
0
100
AcDbBlockEnd
0
BLOCK
5
61
330
5F
100
AcDbEntity
67
1
8
0
100
AcDbBlockBegin
2
*Paper_Space
70
0
10
0.0
20
0.0
30
0.0
3
*Paper_Space
4

0
ENDBLK
5
60
330
5F
100
AcDbEntity
8
0
100
AcDbBlockEnd
0
ENDSEC
0
SECTION
2
ENTITIES
0
VIEWPORT
5
63
330
5F
100
AcDbEntity
67
1
8
0
62
256
6
ByLayer
370
-1
48
1.0
60
0
100
AcDbViewport
10
0.0
20
0.0
30
0.0
40
297.0
41
210.0
68
1
69
1
12
50.0
22
100.0
13
0.0
23
0.0
14
10.0
24
10.0
15
10.0
25
10.0
16
0.0
26
0.0
36
1.0
17
0.0
27
0.0
37
0.0
42
50.0
43
0.0
44
0.0
45
250.0
50
0.0
51
0.0
72
1000
90
819232
110
0.0
120
0.0
130
0.0
111
1.0
121
0.0
131
0.0
112
0.0
122
1.0
132
0.0
0
ENDSEC
0
SECTION
2
OBJECTS
0
DICTIONARY
5
68
330
0
100
AcDbDictionary
280
1
281
1
3
ACAD_GROUP
350
12
3
ACAD_LAYOUT
350
62
3
ACAD_DGNDEFINITIONS
350
F
3
ACAD_DWFDEFINITIONS
350
10
3
ACAD_PDFDEFINITIONS
350
11
3
ACAD_MLINESTYLE
350
B
3
ACAD_IMAGE_DICT
350
E
3
ACAD_IMAGE_VARS
350
21
0
DICTIONARY
5
12
330
68
100
AcDbDictionary
280
1
281
1
0
DICTIONARY
5
62
330
68
100
AcDbDictionary
280
1
281
1
3
Model
350
20
3
Layout1
350
64
0
DICTIONARY
5
F
330
68
100
AcDbDictionary
280
1
281
1
0
DICTIONARY
5
10
330
68
100
AcDbDictionary
280
1
281
1
0
DICTIONARY
5
11
330
68
100
AcDbDictionary
280
1
281
1
0
DICTIONARY
5
B
330
68
100
AcDbDictionary
280
1
281
1
3
Standard
350
1B
0
DICTIONARY
5
E
330
68
100
AcDbDictionary
280
1
281
1
0
DICTIONARY
5
6
330
5
100
AcDbDictionary
280
1
281
1
3
ACAD_LAYERSTATES
360
69
0
DICTIONARY
5
69
330
6
100
AcDbDictionary
280
1
281
1
0
LAYOUT
5
20
330
62
100
AcDbPlotSettings
1

2
none_device
4
ISO_A4_(210.00_x_297.00_MM)
6

40
7.5
41
20.0
42
7.5
43
20.0
44
210.0
45
297.0
46
0.0
47
0.0
48
0.0
49
0.0
140
0.0
141
0.0
142
1.0
143
1.0
70
11952
72
1
73
1
74
1
7

75
0
76
0
77
2
78
300
147
1.0
148
0.0
149
0.0
100
AcDbLayout
1
Model
71
0
10
-20.0
20
-7.5
11
277.0
21
202.5
12
0.0
22
0.0
32
0.0
14
25.7
24
19.5
34
0.0
15
231.3
25
175.5
35
0.0
146
0.0
13
0.0
23
0.0
33
0.0
16
1.0
26
0.0
36
0.0
17
0.0
27
1.0
37
0.0
76
0
330
1C
0
LAYOUT
5
64
330
62
100
AcDbPlotSettings
1

2
none_device
4
ISO_A4_(210.00_x_297.00_MM)
6

40
7.5
41
20.0
42
7.5
43
20.0
44
210.0
45
297.0
46
0.0
47
0.0
48
0.0
49
0.0
140
0.0
141
0.0
142
1.0
143
1.0
70
688
72
1
73
1
74
1
7

75
0
76
0
77
2
78
300
147
1.0
148
0.0
149
0.0
100
AcDbLayout
1
Layout1
71
1
10
-20.0
20
-7.5
11
277.0
21
202.5
12
0.0
22
0.0
32
0.0
14
25.7
24
19.5
34
0.0
15
231.3
25
175.5
35
0.0
146
0.0
13
0.0
23
0.0
33
0.0
16
1.0
26
0.0
36
0.0
17
0.0
27
1.0
37
0.0
76
0
330
5F
0
MLINESTYLE
5
1B
330
B
100
AcDbMlineStyle
2
Standard
70
0
3

62
256
51
90.0
52
90.0
71
2
49
0.5
62
256
6
ByLayer
49
-0.5
62
256
6
ByLayer
0
RASTERVARIABLES
5
21
330
E
100
AcDbRasterVariables
90
0
70
1
71
1
72
0
0
ENDSEC
0
EOF
