999
DXF file generated by netDxf https://github.com/haplokuon/netDxf, Copyright(C) 2009-2020 Daniel Carvajal, Licensed under LGPL
0
SECTION
2
HEADER
9
$ACADVER
1
AC1015
9
$DWGCODEPAGE
3
ANSI_1252
9
$HANDSEED
5
8F
9
$ANGBASE
50
0.0
9
$ANGDIR
70
0
9
$ATTMODE
70
1
9
$AUNITS
70
0
9
$AUPREC
70
0
9
$CECOLOR
62
256
9
$CELTSCALE
40
1.0
9
$CELTYPE
6
ByLayer
9
$CELWEIGHT
370
-1
9
$CLAYER
8
0
9
$CMLJUST
70
0
9
$CMLSCALE
40
20.0
9
$CMLSTYLE
2
Standard
9
$DIMSTYLE
2
Standard
9
$TEXTSIZE
40
2.5
9
$TEXTSTYLE
7
Standard
9
$LUNITS
70
2
9
$LUPREC
70
4
9
$MIRRTEXT
70
0
9
$EXTNAMES
290
1
9
$INSBASE
10
0.0
20
0.0
30
0.0
9
$INSUNITS
70
0
9
$LTSCALE
40
1.0
9
$LWDISPLAY
290
0
9
$PDMODE
70
0
9
$PDSIZE
40
0.0
9
$PLINEGEN
70
0
9
$PSLTSCALE
70
1
9
$TDCREATE
40
2459821.45291941
9
$TDUCREATE
40
2459821.11958608
9
$TDUPDATE
40
2459821.45291941
9
$TDUUPDATE
40
2459821.11958608
9
$TDINDWG
40
0.0
9
$UCSORG
10
0.0
20
0.0
30
0.0
9
$UCSXDIR
10
1.0
20
0.0
30
0.0
9
$UCSYDIR
10
0.0
20
1.0
30
0.0
9
$DIMADEC
70
0
9
$DIMALT
70
0
9
$DIMALTD
70
2
9
$DIMALTF
40
25.4
9
$DIMALTRND
40
0.0
9
$DIMALTTD
70
2
9
$DIMALTTZ
70
0
9
$DIMALTU
70
2
9
$DIMALTZ
70
0
9
$DIMAPOST
1

9
$DIMATFIT
70
3
9
$DIMAUNIT
70
0
9
$DIMASZ
40
0.18
9
$DIMAZIN
70
0
9
$DIMSAH
70
0
9
$DIMBLK
1

9
$DIMLDRBLK
1

9
$DIMCEN
40
0.09
9
$DIMCLRD
70
0
9
$DIMCLRE
70
0
9
$DIMCLRT
70
0
9
$DIMDEC
70
4
9
$DIMDLE
40
0.0
9
$DIMDLI
40
0.38
9
$DIMDSEP
70
46
9
$DIMEXE
40
0.18
9
$DIMEXO
40
0.0625
9
$DIMFXLON
70
0
9
$DIMFXL
40
1.0
9
$DIMGAP
40
0.09
9
$DIMJUST
70
0
9
$DIMLFAC
40
1.0
9
$DIMLUNIT
70
2
9
$DIMLWD
70
-2
9
$DIMLWE
70
-2
9
$DIMPOST
1

9
$DIMRND
40
0.0
9
$DIMSCALE
40
1.0
9
$DIMSD1
70
0
9
$DIMSD2
70
0
9
$DIMSE1
70
0
9
$DIMSE2
70
0
9
$DIMSOXD
70
0
9
$DIMTAD
70
0
9
$DIMTDEC
70
4
9
$DIMTFAC
40
1.0
9
$DIMTIH
70
0
9
$DIMTIX
70
0
9
$DIMTM
40
0.0
9
$DIMTMOVE
70
0
9
$DIMTOFL
70
0
9
$DIMTOH
70
0
9
$DIMTOL
70
0
9
$DIMLIM
70
0
9
$DIMTOLJ
70
1
9
$DIMTP
40
0.0
9
$DIMTXT
40
0.18
9
$DIMTXTDIRECTION
70
0
9
$DIMTZIN
70
0
9
$DIMZIN
70
0
9
$DIMFRAC
70
0
9
$DIMLTYPE
6
ByBlock
9
$DIMLTEX1
6
ByBlock
9
$DIMLTEX2
6
ByBlock
0
ENDSEC
0
SECTION
2
CLASSES
0
CLASS
1
RASTERVARIABLES
2
AcDbRasterVariables
3
ISM
90
0
280
0
281
0
0
ENDSEC
0
SECTION
2
TABLES
0
TABLE
2
APPID
5
4
330
0
100
AcDbSymbolTable
70
5
0
APPID
5
19
330
4
100
AcDbSymbolTableRecord
100
AcDbRegAppTableRecord
2
ACAD
70
0
0
APPID
5
27
330
4
100
AcDbSymbolTableRecord
100
AcDbRegAppTableRecord
2
AcAecLayerStandard
70
0
0
APPID
5
8A
330
4
100
AcDbSymbolTableRecord
100
AcDbRegAppTableRecord
2
AcCmTransparency
70
0
0
APPID
5
8B
330
4
100
AcDbSymbolTableRecord
100
AcDbRegAppTableRecord
2
GradientColor1ACI
70
0
0
APPID
5
8C
330
4
100
AcDbSymbolTableRecord
100
AcDbRegAppTableRecord
2
GradientColor2ACI
70
0
0
ENDTAB
0
TABLE
2
VPORT
5
1
330
0
100
AcDbSymbolTable
70
1
0
VPORT
5
2
330
1
100
AcDbSymbolTableRecord
100
AcDbViewportTableRecord
2
*Active
70
0
10
0.0
20
0.0
11
1.0
21
1.0
12
0.0
22
0.0
13
0.0
23
0.0
14
0.5
24
0.5
15
10.0
25
10.0
16
0.0
26
0.0
36
1.0
17
0.0
27
0.0
37
0.0
40
10.0
41
1.0
75
0
76
1
0
ENDTAB
0
TABLE
2
LTYPE
5
7
330
0
100
AcDbSymbolTable
70
5
0
LTYPE
5
15
330
7
100
AcDbSymbolTableRecord
100
AcDbLinetypeTableRecord
2
Continuous
70
0
3
Solid line
72
65
73
0
40
0.0
0
LTYPE
5
16
330
7
100
AcDbSymbolTableRecord
100
AcDbLinetypeTableRecord
2
ByLayer
70
0
3

72
65
73
0
40
0.0
0
LTYPE
5
17
330
7
100
AcDbSymbolTableRecord
100
AcDbLinetypeTableRecord
2
ByBlock
70
0
3

72
65
73
0
40
0.0
0
LTYPE
5
3F
330
7
100
AcDbSymbolTableRecord
100
AcDbLinetypeTableRecord
2
\U+865A\U+7EBF
70
0
3
\U+865A\U+7EBF: __ __ __ __ __ __ __ __ __ __ __ __ __
72
65
73
2
40
2.0
49
1.0
74
0
49
-1.0
74
0
0
LTYPE
5
45
330
7
100
AcDbSymbolTableRecord
100
AcDbLinetypeTableRecord
2
\U+70B9\U+753B\U+7EBF
70
0
3
\U+70B9\U+753B\U+7EBF: ____ . ____ . ____ . ____ . ____ . ____
72
65
73
4
40
18.0
49
12.0
74
0
49
-2.0
74
0
49
2.0
74
0
49
-2.0
74
0
0
ENDTAB
0
TABLE
2
LAYER
5
5
102
{ACAD_XDICTIONARY
360
6
102
}
330
0
100
AcDbSymbolTable
70
5
0
LAYER
5
14
330
5
100
AcDbSymbolTableRecord
100
AcDbLayerTableRecord
2
0
70
0
62
7
6
Continuous
290
1
370
-3
390
0
0
LAYER
5
26
330
5
100
AcDbSymbolTableRecord
100
AcDbLayerTableRecord
2
\U+7EC6\U+5B9E\U+7EBF\U+5C42
70
0
62
7
6
Continuous
290
1
370
18
390
0
1001
AcAecLayerStandard
1000

1000
\U+7EC6\U+5B9E\U+7EBF\U+5C42
0
LAYER
5
39
330
5
100
AcDbSymbolTableRecord
100
AcDbLayerTableRecord
2
\U+7C97\U+5B9E\U+7EBF\U+5C42
70
0
62
7
6
Continuous
290
1
370
35
390
0
1001
AcAecLayerStandard
1000

1000
\U+7C97\U+5B9E\U+7EBF\U+5C42
0
LAYER
5
3E
330
5
100
AcDbSymbolTableRecord
100
AcDbLayerTableRecord
2
\U+865A\U+7EBF\U+5C42
70
0
62
6
6
\U+865A\U+7EBF
290
1
370
25
390
0
1001
AcAecLayerStandard
1000

1000
\U+865A\U+7EBF\U+5C42
0
LAYER
5
44
330
5
100
AcDbSymbolTableRecord
100
AcDbLayerTableRecord
2
\U+4E2D\U+5FC3\U+7EBF\U+5C42
70
0
62
1
6
\U+70B9\U+753B\U+7EBF
290
1
370
18
390
0
1001
AcAecLayerStandard
1000

1000
\U+4E2D\U+5FC3\U+7EBF\U+5C42
0
ENDTAB
0
TABLE
2
STYLE
5
8
330
0
100
AcDbSymbolTable
70
1
0
STYLE
5
18
330
8
100
AcDbSymbolTableRecord
100
AcDbTextStyleTableRecord
2
Standard
3
simplex.shx
70
0
71
0
40
0.0
41
1.0
42
0.0
50
0.0
0
ENDTAB
0
TABLE
2
DIMSTYLE
5
A
330
0
100
AcDbSymbolTable
70
1
100
AcDbDimStyleTable
0
DIMSTYLE
105
1A
330
A
100
AcDbSymbolTableRecord
100
AcDbDimStyleTableRecord
2
Standard
3

4

40
1.0
41
0.18
42
0.0625
43
0.38
44
0.18
45
0.0
46
0.0
47
0.0
48
0.0
49
1.0
70
0
71
0
72
0
73
0
74
0
75
0
76
0
77
0
78
0
79
0
140
0.18
141
0.09
143
25.4
144
1.0
146
1.0
147
0.09
148
0.0
170
0
171
2
172
0
174
0
175
0
176
0
177
0
178
0
179
0
271
4
272
4
273
2
274
2
275
0
276
0
277
2
278
46
279
0
280
0
281
0
282
0
283
1
284
0
285
0
286
0
289
3
290
0
294
0
340
18
173
0
345
17
346
17
347
17
371
-2
372
-2
0
ENDTAB
0
TABLE
2
VIEW
5
3
330
0
100
AcDbSymbolTable
70
0
0
ENDTAB
0
TABLE
2
UCS
5
C
330
0
100
AcDbSymbolTable
70
0
0
ENDTAB
0
TABLE
2
BLOCK_RECORD
5
D
330
0
100
AcDbSymbolTable
70
3
0
BLOCK_RECORD
5
1C
330
D
100
AcDbSymbolTableRecord
100
AcDbBlockTableRecord
2
*Model_Space
340
20
0
BLOCK_RECORD
5
22
330
D
100
AcDbSymbolTableRecord
100
AcDbBlockTableRecord
2
BLOCK23_2_1
340
0
70
0
280
1
281
0
1001
ACAD
1000
DesignCenter Data
1002
{
1070
1
1070
0
1002
}
0
BLOCK_RECORD
5
84
330
D
100
AcDbSymbolTableRecord
100
AcDbBlockTableRecord
2
*Paper_Space
340
89
0
ENDTAB
0
ENDSEC
0
SECTION
2
BLOCKS
0
BLOCK
5
1E
330
1C
100
AcDbEntity
67
0
8
0
100
AcDbBlockBegin
2
*Model_Space
70
0
10
0.0
20
0.0
30
0.0
3
*Model_Space
4

0
ENDBLK
5
1D
330
1C
100
AcDbEntity
8
0
100
AcDbBlockEnd
0
BLOCK
5
24
330
22
100
AcDbEntity
8
0
100
AcDbBlockBegin
2
BLOCK23_2_1
70
0
10
0.0
20
0.0
30
0.0
3
BLOCK23_2_1
4

0
LINE
5
25
330
22
100
AcDbEntity
8
\U+7EC6\U+5B9E\U+7EBF\U+5C42
62
256
6
ByLayer
370
-1
48
1.0
60
0
100
AcDbLine
10
-100.0
20
-100.000000000061
30
0.0
11
-100.0
21
99.9999999999973
31
0.0
39
0.0
210
0.0
220
0.0
230
1.0
0
LINE
5
28
330
22
100
AcDbEntity
8
\U+7EC6\U+5B9E\U+7EBF\U+5C42
62
256
6
ByLayer
370
-1
48
1.0
60
0
100
AcDbLine
10
100.0
20
-100.000000000061
30
0.0
11
100.0
21
99.9999999999973
31
0.0
39
0.0
210
0.0
220
0.0
230
1.0
0
LINE
5
29
330
22
100
AcDbEntity
8
\U+7EC6\U+5B9E\U+7EBF\U+5C42
62
256
6
ByLayer
370
-1
48
1.0
60
0
100
AcDbLine
10
-88.0
20
19.9999999998226
30
0.0
11
-88.0
21
99.9999999999973
31
0.0
39
0.0
210
0.0
220
0.0
230
1.0
0
LINE
5
2A
330
22
100
AcDbEntity
8
\U+7EC6\U+5B9E\U+7EBF\U+5C42
62
256
6
ByLayer
370
-1
48
1.0
60
0
100
AcDbLine
10
88.0
20
20.0000000002292
30
0.0
11
88.0
21
99.9999999999973
31
0.0
39
0.0
210
0.0
220
0.0
230
1.0
0
LINE
5
2B
330
22
100
AcDbEntity
8
\U+7EC6\U+5B9E\U+7EBF\U+5C42
62
256
6
ByLayer
370
-1
48
1.0
60
0
100
AcDbLine
10
-99.999999999899
20
-100.0
30
0.0
11
-88.0000000001901
21
-100.0
31
0.0
39
0.0
210
0.0
220
0.0
230
1.0
0
LINE
5
2C
330
22
100
AcDbEntity
8
\U+7EC6\U+5B9E\U+7EBF\U+5C42
62
256
6
ByLayer
370
-1
48
1.0
60
0
100
AcDbLine
10
87.9999999999263
20
-100.0
30
0.0
11
99.999999999985
21
-100.0
31
0.0
39
0.0
210
0.0
220
0.0
230
1.0
0
LINE
5
2D
330
22
100
AcDbEntity
8
\U+7EC6\U+5B9E\U+7EBF\U+5C42
62
256
6
ByLayer
370
-1
48
1.0
60
0
100
AcDbLine
10
-99.999999999899
20
100.000000000001
30
0.0
11
-88.0000000001901
21
100.000000000001
31
0.0
39
0.0
210
0.0
220
0.0
230
1.0
0
LINE
5
2E
330
22
100
AcDbEntity
8
\U+7EC6\U+5B9E\U+7EBF\U+5C42
62
256
6
ByLayer
370
-1
48
1.0
60
0
100
AcDbLine
10
87.9999999999263
20
100.0
30
0.0
11
99.999999999985
21
100.0
31
0.0
39
0.0
210
0.0
220
0.0
230
1.0
0
LINE
5
2F
330
22
100
AcDbEntity
8
\U+7EC6\U+5B9E\U+7EBF\U+5C42
62
256
6
ByLayer
370
-1
48
1.0
60
0
100
AcDbLine
10
-72.0000000003065
20
4.00000000000091
30
0.0
11
72.0000000000418
21
4.0
31
0.0
39
0.0
210
0.0
220
0.0
230
1.0
0
ARC
5
30
330
22
100
AcDbEntity
8
\U+7EC6\U+5B9E\U+7EBF\U+5C42
62
256
6
ByLayer
370
-1
48
1.0
60
0
100
AcDbCircle
39
0.0
10
-72.0000000007403
20
19.999999999276
30
0.0
40
15.9999999992751
210
0.0
220
0.0
230
1.0
100
AcDbArc
50
180.0
51
270.0
0
ARC
5
31
330
22
100
AcDbEntity
8
\U+7EC6\U+5B9E\U+7EBF\U+5C42
62
256
6
ByLayer
370
-1
48
1.0
60
0
100
AcDbCircle
39
0.0
10
71.99999999992
20
20.0000000001564
30
0.0
40
16.0000000001564
210
0.0
220
0.0
230
1.0
100
AcDbArc
50
270.000000000438
51
0.0000000020106831
0
LINE
5
32
330
22
100
AcDbEntity
8
\U+7EC6\U+5B9E\U+7EBF\U+5C42
62
256
6
ByLayer
370
-1
48
1.0
60
0
100
AcDbLine
10
88.0
20
-20.0000000002283
30
0.0
11
88.0
21
-99.9999999999964
31
0.0
39
0.0
210
0.0
220
0.0
230
1.0
0
ARC
5
33
330
22
100
AcDbEntity
8
\U+7EC6\U+5B9E\U+7EBF\U+5C42
62
256
6
ByLayer
370
-1
48
1.0
60
0
100
AcDbCircle
39
0.0
10
71.99999999992
20
-20.0000000001555
30
0.0
40
16.0000000001564
210
0.0
220
0.0
230
1.0
100
AcDbArc
50
0.0
51
90.0
0
LINE
5
34
330
22
100
AcDbEntity
8
\U+7EC6\U+5B9E\U+7EBF\U+5C42
62
256
6
ByLayer
370
-1
48
1.0
60
0
100
AcDbLine
10
-88.0
20
-19.9999999998217
30
0.0
11
-88.0
21
-99.9999999999964
31
0.0
39
0.0
210
0.0
220
0.0
230
1.0
0
ARC
5
35
330
22
100
AcDbEntity
8
\U+7EC6\U+5B9E\U+7EBF\U+5C42
62
256
6
ByLayer
370
-1
48
1.0
60
0
100
AcDbCircle
39
0.0
10
-72.0000000007403
20
-19.9999999992751
30
0.0
40
15.9999999992751
210
0.0
220
0.0
230
1.0
100
AcDbArc
50
89.999999996488
51
179.999999985951
0
LINE
5
36
330
22
100
AcDbEntity
8
\U+7EC6\U+5B9E\U+7EBF\U+5C42
62
256
6
ByLayer
370
-1
48
1.0
60
0
100
AcDbLine
10
-72.0000000003065
20
-4.0
30
0.0
11
72.0000000000418
21
-3.99999999999909
31
0.0
39
0.0
210
0.0
220
0.0
230
1.0
0
LINE
5
37
330
22
100
AcDbEntity
8
\U+7EC6\U+5B9E\U+7EBF\U+5C42
62
256
6
ByLayer
370
-1
48
1.0
60
0
100
AcDbLine
10
-71.9999999997594
20
-3.99999999999909
30
0.0
11
72.0000000000405
21
-4.0
31
0.0
39
0.0
210
0.0
220
0.0
230
1.0
0
LINE
5
38
330
22
100
AcDbEntity
8
\U+7C97\U+5B9E\U+7EBF\U+5C42
62
256
6
ByLayer
370
-1
48
1.0
60
0
100
AcDbLine
10
-174.999999999957
20
175.0
30
0.0
11
174.999999999868
21
175.0
31
0.0
39
0.0
210
0.0
220
0.0
230
1.0
0
LINE
5
3A
330
22
100
AcDbEntity
8
\U+7C97\U+5B9E\U+7EBF\U+5C42
62
256
6
ByLayer
370
-1
48
1.0
60
0
100
AcDbLine
10
-175.0
20
-175.000000000119
30
0.0
11
-175.0
21
175.000000000173
31
0.0
39
0.0
210
0.0
220
0.0
230
1.0
0
LINE
5
3B
330
22
100
AcDbEntity
8
\U+7C97\U+5B9E\U+7EBF\U+5C42
62
256
6
ByLayer
370
-1
48
1.0
60
0
100
AcDbLine
10
175.0
20
-175.000000000119
30
0.0
11
175.0
21
175.000000000288
31
0.0
39
0.0
210
0.0
220
0.0
230
1.0
0
LINE
5
3C
330
22
100
AcDbEntity
8
\U+7C97\U+5B9E\U+7EBF\U+5C42
62
256
6
ByLayer
370
-1
48
1.0
60
0
100
AcDbLine
10
-174.999999999957
20
-175.0
30
0.0
11
175.000000000043
21
-175.0
31
0.0
39
0.0
210
0.0
220
0.0
230
1.0
0
CIRCLE
5
3D
330
22
100
AcDbEntity
8
\U+865A\U+7EBF\U+5C42
62
256
6
ByLayer
370
-1
48
1.0
60
0
100
AcDbCircle
10
-49.9999999999573
20
49.9999999999991
30
0.0
40
11.0
39
0.0
210
0.0
220
0.0
230
1.0
0
CIRCLE
5
40
330
22
100
AcDbEntity
8
\U+865A\U+7EBF\U+5C42
62
256
6
ByLayer
370
-1
48
1.0
60
0
100
AcDbCircle
10
50.0
20
49.9999999999991
30
0.0
40
11.0
39
0.0
210
0.0
220
0.0
230
1.0
0
CIRCLE
5
41
330
22
100
AcDbEntity
8
\U+865A\U+7EBF\U+5C42
62
256
6
ByLayer
370
-1
48
1.0
60
0
100
AcDbCircle
10
-49.9999999999573
20
-50.0000000000009
30
0.0
40
11.0
39
0.0
210
0.0
220
0.0
230
1.0
0
CIRCLE
5
42
330
22
100
AcDbEntity
8
\U+865A\U+7EBF\U+5C42
62
256
6
ByLayer
370
-1
48
1.0
60
0
100
AcDbCircle
10
50.0
20
-50.0000000000009
30
0.0
40
11.0
39
0.0
210
0.0
220
0.0
230
1.0
0
LINE
5
43
330
22
100
AcDbEntity
8
\U+4E2D\U+5FC3\U+7EBF\U+5C42
62
256
6
ByLayer
370
-1
48
1.0
60
0
100
AcDbLine
10
-50.0
20
-70.7890747876399
30
0.0
11
-50.0
21
71.3549975540936
31
0.0
39
0.0
210
0.0
220
0.0
230
1.0
0
LINE
5
46
330
22
100
AcDbEntity
8
\U+4E2D\U+5FC3\U+7EBF\U+5C42
62
256
6
ByLayer
370
-1
48
1.0
60
0
100
AcDbLine
10
50.0
20
-70.7890747876399
30
0.0
11
50.0
21
71.3549975540936
31
0.0
39
0.0
210
0.0
220
0.0
230
1.0
0
LINE
5
47
330
22
100
AcDbEntity
8
\U+4E2D\U+5FC3\U+7EBF\U+5C42
62
256
6
ByLayer
370
-1
48
1.0
60
0
100
AcDbLine
10
-75.6385771674259
20
-50.0000000000009
30
0.0
11
74.699263755042
21
-50.0
31
0.0
39
0.0
210
0.0
220
0.0
230
1.0
0
LINE
5
48
330
22
100
AcDbEntity
8
\U+4E2D\U+5FC3\U+7EBF\U+5C42
62
256
6
ByLayer
370
-1
48
1.0
60
0
100
AcDbLine
10
-75.6385771674259
20
49.9999999999991
30
0.0
11
74.699263755042
21
50.0
31
0.0
39
0.0
210
0.0
220
0.0
230
1.0
0
LINE
5
49
330
22
100
AcDbEntity
8
\U+4E2D\U+5FC3\U+7EBF\U+5C42
62
256
6
ByLayer
370
-1
48
1.0
60
0
100
AcDbLine
10
0.0
20
0.0
30
0.0
11
214.171455037398
21
0.0
31
0.0
39
0.0
210
0.0
220
0.0
230
1.0
0
LINE
5
4A
330
22
100
AcDbEntity
8
\U+4E2D\U+5FC3\U+7EBF\U+5C42
62
256
6
ByLayer
370
-1
48
1.0
60
0
100
AcDbLine
10
-0.0000000000004547
20
-0.0000000000009095
30
0.0
11
-214.171455037398
21
-0.0000000000009095
31
0.0
39
0.0
210
0.0
220
0.0
230
1.0
0
CIRCLE
5
4B
330
22
100
AcDbEntity
8
\U+7C97\U+5B9E\U+7EBF\U+5C42
62
256
6
ByLayer
370
-1
48
1.0
60
0
100
AcDbCircle
10
-130.0
20
130.0
30
0.0
40
17.0
39
0.0
210
0.0
220
0.0
230
1.0
0
LINE
5
4C
330
22
100
AcDbEntity
8
\U+4E2D\U+5FC3\U+7EBF\U+5C42
62
256
6
ByLayer
370
-1
48
1.0
60
0
100
AcDbLine
10
-130.0
20
100.571063803858
30
0.0
11
-130.0
21
159.428937354009
31
0.0
39
0.0
210
0.0
220
0.0
230
1.0
0
LINE
5
4D
330
22
100
AcDbEntity
8
\U+4E2D\U+5FC3\U+7EBF\U+5C42
62
256
6
ByLayer
370
-1
48
1.0
60
0
100
AcDbLine
10
-159.428940448328
20
130.0
30
0.0
11
-100.5710614006
21
130.0
31
0.0
39
0.0
210
0.0
220
0.0
230
1.0
0
CIRCLE
5
4E
330
22
100
AcDbEntity
8
\U+7C97\U+5B9E\U+7EBF\U+5C42
62
256
6
ByLayer
370
-1
48
1.0
60
0
100
AcDbCircle
10
129.999999999999
20
130.0
30
0.0
40
17.0
39
0.0
210
0.0
220
0.0
230
1.0
0
LINE
5
4F
330
22
100
AcDbEntity
8
\U+4E2D\U+5FC3\U+7EBF\U+5C42
62
256
6
ByLayer
370
-1
48
1.0
60
0
100
AcDbLine
10
129.999999999999
20
100.571063803858
30
0.0
11
129.999999999999
21
159.428937354009
31
0.0
39
0.0
210
0.0
220
0.0
230
1.0
0
LINE
5
50
330
22
100
AcDbEntity
8
\U+4E2D\U+5FC3\U+7EBF\U+5C42
62
256
6
ByLayer
370
-1
48
1.0
60
0
100
AcDbLine
10
159.428940448327
20
130.0
30
0.0
11
100.571061400599
21
130.0
31
0.0
39
0.0
210
0.0
220
0.0
230
1.0
0
CIRCLE
5
51
330
22
100
AcDbEntity
8
\U+7C97\U+5B9E\U+7EBF\U+5C42
62
256
6
ByLayer
370
-1
48
1.0
60
0
100
AcDbCircle
10
129.999999999999
20
-130.0
30
0.0
40
17.0
39
0.0
210
0.0
220
0.0
230
1.0
0
LINE
5
52
330
22
100
AcDbEntity
8
\U+4E2D\U+5FC3\U+7EBF\U+5C42
62
256
6
ByLayer
370
-1
48
1.0
60
0
100
AcDbLine
10
129.999999999999
20
-100.571063803858
30
0.0
11
129.999999999999
21
-159.428937354009
31
0.0
39
0.0
210
0.0
220
0.0
230
1.0
0
LINE
5
53
330
22
100
AcDbEntity
8
\U+4E2D\U+5FC3\U+7EBF\U+5C42
62
256
6
ByLayer
370
-1
48
1.0
60
0
100
AcDbLine
10
159.428940448327
20
-130.0
30
0.0
11
100.571061400599
21
-130.0
31
0.0
39
0.0
210
0.0
220
0.0
230
1.0
0
CIRCLE
5
54
330
22
100
AcDbEntity
8
\U+7C97\U+5B9E\U+7EBF\U+5C42
62
256
6
ByLayer
370
-1
48
1.0
60
0
100
AcDbCircle
10
-130.0
20
-130.0
30
0.0
40
17.0
39
0.0
210
0.0
220
0.0
230
1.0
0
LINE
5
55
330
22
100
AcDbEntity
8
\U+4E2D\U+5FC3\U+7EBF\U+5C42
62
256
6
ByLayer
370
-1
48
1.0
60
0
100
AcDbLine
10
-130.0
20
-100.571063803858
30
0.0
11
-130.0
21
-159.428937354009
31
0.0
39
0.0
210
0.0
220
0.0
230
1.0
0
LINE
5
56
330
22
100
AcDbEntity
8
\U+4E2D\U+5FC3\U+7EBF\U+5C42
62
256
6
ByLayer
370
-1
48
1.0
60
0
100
AcDbLine
10
-159.428940448328
20
-130.0
30
0.0
11
-100.5710614006
21
-130.0
31
0.0
39
0.0
210
0.0
220
0.0
230
1.0
0
LINE
5
57
330
22
100
AcDbEntity
8
\U+4E2D\U+5FC3\U+7EBF\U+5C42
62
256
6
ByLayer
370
-1
48
1.0
60
0
100
AcDbLine
10
-0.0000000001323315
20
200.753105347973
30
0.0
11
-0.0000000001323315
21
-197.891549433993
31
0.0
39
0.0
210
0.0
220
0.0
230
1.0
0
LINE
5
58
330
22
100
AcDbEntity
8
\U+7EC6\U+5B9E\U+7EBF\U+5C42
62
256
6
ByLayer
370
-1
48
1.0
60
0
100
AcDbLine
10
-100.0
20
-100.000000000061
30
0.0
11
-100.0
21
99.9999999999973
31
0.0
39
0.0
210
0.0
220
0.0
230
1.0
0
LINE
5
59
330
22
100
AcDbEntity
8
\U+7EC6\U+5B9E\U+7EBF\U+5C42
62
256
6
ByLayer
370
-1
48
1.0
60
0
100
AcDbLine
10
100.0
20
-100.000000000061
30
0.0
11
100.0
21
99.9999999999973
31
0.0
39
0.0
210
0.0
220
0.0
230
1.0
0
LINE
5
5A
330
22
100
AcDbEntity
8
\U+7EC6\U+5B9E\U+7EBF\U+5C42
62
256
6
ByLayer
370
-1
48
1.0
60
0
100
AcDbLine
10
-88.0000000000001
20
19.9999999998227
30
0.0
11
-88.0000000000001
21
99.9999999999973
31
0.0
39
0.0
210
0.0
220
0.0
230
1.0
0
LINE
5
5B
330
22
100
AcDbEntity
8
\U+7EC6\U+5B9E\U+7EBF\U+5C42
62
256
6
ByLayer
370
-1
48
1.0
60
0
100
AcDbLine
10
88.0
20
20.0000000002292
30
0.0
11
88.0
21
99.9999999999973
31
0.0
39
0.0
210
0.0
220
0.0
230
1.0
0
LINE
5
5C
330
22
100
AcDbEntity
8
\U+7EC6\U+5B9E\U+7EBF\U+5C42
62
256
6
ByLayer
370
-1
48
1.0
60
0
100
AcDbLine
10
-99.9999999998991
20
-100.0
30
0.0
11
-88.0000000001901
21
-100.0
31
0.0
39
0.0
210
0.0
220
0.0
230
1.0
0
LINE
5
5D
330
22
100
AcDbEntity
8
\U+7EC6\U+5B9E\U+7EBF\U+5C42
62
256
6
ByLayer
370
-1
48
1.0
60
0
100
AcDbLine
10
87.9999999999263
20
-100.0
30
0.0
11
99.999999999985
21
-100.0
31
0.0
39
0.0
210
0.0
220
0.0
230
1.0
0
LINE
5
5E
330
22
100
AcDbEntity
8
\U+7EC6\U+5B9E\U+7EBF\U+5C42
62
256
6
ByLayer
370
-1
48
1.0
60
0
100
AcDbLine
10
-99.9999999998991
20
100.000000000001
30
0.0
11
-88.0000000001901
21
100.000000000001
31
0.0
39
0.0
210
0.0
220
0.0
230
1.0
0
LINE
5
5F
330
22
100
AcDbEntity
8
\U+7EC6\U+5B9E\U+7EBF\U+5C42
62
256
6
ByLayer
370
-1
48
1.0
60
0
100
AcDbLine
10
87.9999999999263
20
100.0
30
0.0
11
99.999999999985
21
100.0
31
0.0
39
0.0
210
0.0
220
0.0
230
1.0
0
LINE
5
60
330
22
100
AcDbEntity
8
\U+7EC6\U+5B9E\U+7EBF\U+5C42
62
256
6
ByLayer
370
-1
48
1.0
60
0
100
AcDbLine
10
-72.0000000003066
20
4.00000000000091
30
0.0
11
72.0000000000418
21
4.0
31
0.0
39
0.0
210
0.0
220
0.0
230
1.0
0
ARC
5
61
330
22
100
AcDbEntity
8
\U+7EC6\U+5B9E\U+7EBF\U+5C42
62
256
6
ByLayer
370
-1
48
1.0
60
0
100
AcDbCircle
39
0.0
10
-72.0000000007404
20
19.9999999992761
30
0.0
40
15.9999999992751
210
0.0
220
0.0
230
1.0
100
AcDbArc
50
180.0
51
270.0
0
ARC
5
62
330
22
100
AcDbEntity
8
\U+7EC6\U+5B9E\U+7EBF\U+5C42
62
256
6
ByLayer
370
-1
48
1.0
60
0
100
AcDbCircle
39
0.0
10
71.9999999999199
20
20.0000000001565
30
0.0
40
16.0000000001564
210
0.0
220
0.0
230
1.0
100
AcDbArc
50
270.000000000437
51
0.0000000020079732
0
LINE
5
63
330
22
100
AcDbEntity
8
\U+7EC6\U+5B9E\U+7EBF\U+5C42
62
256
6
ByLayer
370
-1
48
1.0
60
0
100
AcDbLine
10
88.0
20
-20.0000000002283
30
0.0
11
88.0
21
-99.9999999999963
31
0.0
39
0.0
210
0.0
220
0.0
230
1.0
0
ARC
5
64
330
22
100
AcDbEntity
8
\U+7EC6\U+5B9E\U+7EBF\U+5C42
62
256
6
ByLayer
370
-1
48
1.0
60
0
100
AcDbCircle
39
0.0
10
71.9999999999199
20
-20.0000000001555
30
0.0
40
16.0000000001564
210
0.0
220
0.0
230
1.0
100
AcDbArc
50
0.0
51
90.0
0
LINE
5
65
330
22
100
AcDbEntity
8
\U+7EC6\U+5B9E\U+7EBF\U+5C42
62
256
6
ByLayer
370
-1
48
1.0
60
0
100
AcDbLine
10
-88.0000000000001
20
-19.9999999998217
30
0.0
11
-88.0000000000001
21
-99.9999999999963
31
0.0
39
0.0
210
0.0
220
0.0
230
1.0
0
ARC
5
66
330
22
100
AcDbEntity
8
\U+7EC6\U+5B9E\U+7EBF\U+5C42
62
256
6
ByLayer
370
-1
48
1.0
60
0
100
AcDbCircle
39
0.0
10
-72.0000000007404
20
-19.9999999992751
30
0.0
40
15.9999999992751
210
0.0
220
0.0
230
1.0
100
AcDbArc
50
89.9999999964877
51
179.99999998595
0
LINE
5
67
330
22
100
AcDbEntity
8
\U+7EC6\U+5B9E\U+7EBF\U+5C42
62
256
6
ByLayer
370
-1
48
1.0
60
0
100
AcDbLine
10
-72.0000000003066
20
-4.0
30
0.0
11
72.0000000000418
21
-3.99999999999909
31
0.0
39
0.0
210
0.0
220
0.0
230
1.0
0
LINE
5
68
330
22
100
AcDbEntity
8
\U+7EC6\U+5B9E\U+7EBF\U+5C42
62
256
6
ByLayer
370
-1
48
1.0
60
0
100
AcDbLine
10
-71.9999999997595
20
-3.99999999999909
30
0.0
11
72.0000000000404
21
-4.0
31
0.0
39
0.0
210
0.0
220
0.0
230
1.0
0
LINE
5
69
330
22
100
AcDbEntity
8
\U+7C97\U+5B9E\U+7EBF\U+5C42
62
256
6
ByLayer
370
-1
48
1.0
60
0
100
AcDbLine
10
-174.999999999957
20
175.0
30
0.0
11
174.999999999869
21
175.0
31
0.0
39
0.0
210
0.0
220
0.0
230
1.0
0
LINE
5
6A
330
22
100
AcDbEntity
8
\U+7C97\U+5B9E\U+7EBF\U+5C42
62
256
6
ByLayer
370
-1
48
1.0
60
0
100
AcDbLine
10
-175.0
20
-175.000000000119
30
0.0
11
-175.0
21
175.000000000173
31
0.0
39
0.0
210
0.0
220
0.0
230
1.0
0
LINE
5
6B
330
22
100
AcDbEntity
8
\U+7C97\U+5B9E\U+7EBF\U+5C42
62
256
6
ByLayer
370
-1
48
1.0
60
0
100
AcDbLine
10
175.0
20
-175.000000000119
30
0.0
11
175.0
21
175.000000000288
31
0.0
39
0.0
210
0.0
220
0.0
230
1.0
0
LINE
5
6C
330
22
100
AcDbEntity
8
\U+7C97\U+5B9E\U+7EBF\U+5C42
62
256
6
ByLayer
370
-1
48
1.0
60
0
100
AcDbLine
10
-174.999999999957
20
-175.0
30
0.0
11
175.000000000043
21
-175.0
31
0.0
39
0.0
210
0.0
220
0.0
230
1.0
0
CIRCLE
5
6D
330
22
100
AcDbEntity
8
\U+865A\U+7EBF\U+5C42
62
256
6
ByLayer
370
-1
48
1.0
60
0
100
AcDbCircle
10
-49.9999999999573
20
49.9999999999991
30
0.0
40
11.0
39
0.0
210
0.0
220
0.0
230
1.0
0
CIRCLE
5
6E
330
22
100
AcDbEntity
8
\U+865A\U+7EBF\U+5C42
62
256
6
ByLayer
370
-1
48
1.0
60
0
100
AcDbCircle
10
50.0
20
49.9999999999991
30
0.0
40
11.0
39
0.0
210
0.0
220
0.0
230
1.0
0
CIRCLE
5
6F
330
22
100
AcDbEntity
8
\U+865A\U+7EBF\U+5C42
62
256
6
ByLayer
370
-1
48
1.0
60
0
100
AcDbCircle
10
-49.9999999999573
20
-50.0000000000009
30
0.0
40
11.0
39
0.0
210
0.0
220
0.0
230
1.0
0
CIRCLE
5
70
330
22
100
AcDbEntity
8
\U+865A\U+7EBF\U+5C42
62
256
6
ByLayer
370
-1
48
1.0
60
0
100
AcDbCircle
10
50.0
20
-50.0000000000009
30
0.0
40
11.0
39
0.0
210
0.0
220
0.0
230
1.0
0
LINE
5
71
330
22
100
AcDbEntity
8
\U+4E2D\U+5FC3\U+7EBF\U+5C42
62
256
6
ByLayer
370
-1
48
1.0
60
0
100
AcDbLine
10
-50.0
20
-70.78907478764
30
0.0
11
-50.0
21
71.3549975540936
31
0.0
39
0.0
210
0.0
220
0.0
230
1.0
0
LINE
5
72
330
22
100
AcDbEntity
8
\U+4E2D\U+5FC3\U+7EBF\U+5C42
62
256
6
ByLayer
370
-1
48
1.0
60
0
100
AcDbLine
10
50.0
20
-70.78907478764
30
0.0
11
50.0
21
71.3549975540936
31
0.0
39
0.0
210
0.0
220
0.0
230
1.0
0
LINE
5
73
330
22
100
AcDbEntity
8
\U+4E2D\U+5FC3\U+7EBF\U+5C42
62
256
6
ByLayer
370
-1
48
1.0
60
0
100
AcDbLine
10
-75.6385771674259
20
-50.0000000000009
30
0.0
11
74.699263755042
21
-50.0
31
0.0
39
0.0
210
0.0
220
0.0
230
1.0
0
LINE
5
74
330
22
100
AcDbEntity
8
\U+4E2D\U+5FC3\U+7EBF\U+5C42
62
256
6
ByLayer
370
-1
48
1.0
60
0
100
AcDbLine
10
-75.6385771674259
20
49.9999999999991
30
0.0
11
74.699263755042
21
50.0
31
0.0
39
0.0
210
0.0
220
0.0
230
1.0
0
LINE
5
75
330
22
100
AcDbEntity
8
\U+4E2D\U+5FC3\U+7EBF\U+5C42
62
256
6
ByLayer
370
-1
48
1.0
60
0
100
AcDbLine
10
0.0
20
0.0
30
0.0
11
214.171455037398
21
0.0
31
0.0
39
0.0
210
0.0
220
0.0
230
1.0
0
LINE
5
76
330
22
100
AcDbEntity
8
\U+4E2D\U+5FC3\U+7EBF\U+5C42
62
256
6
ByLayer
370
-1
48
1.0
60
0
100
AcDbLine
10
-0.0000000000005116
20
-0.0000000000008811
30
0.0
11
-214.171455037398
21
-0.0000000000008811
31
0.0
39
0.0
210
0.0
220
0.0
230
1.0
0
CIRCLE
5
77
330
22
100
AcDbEntity
8
\U+7C97\U+5B9E\U+7EBF\U+5C42
62
256
6
ByLayer
370
-1
48
1.0
60
0
100
AcDbCircle
10
-130.0
20
130.0
30
0.0
40
17.0
39
0.0
210
0.0
220
0.0
230
1.0
0
LINE
5
78
330
22
100
AcDbEntity
8
\U+4E2D\U+5FC3\U+7EBF\U+5C42
62
256
6
ByLayer
370
-1
48
1.0
60
0
100
AcDbLine
10
-130.0
20
100.571063803858
30
0.0
11
-130.0
21
159.428937354009
31
0.0
39
0.0
210
0.0
220
0.0
230
1.0
0
LINE
5
79
330
22
100
AcDbEntity
8
\U+4E2D\U+5FC3\U+7EBF\U+5C42
62
256
6
ByLayer
370
-1
48
1.0
60
0
100
AcDbLine
10
-159.428940448328
20
130.0
30
0.0
11
-100.5710614006
21
130.0
31
0.0
39
0.0
210
0.0
220
0.0
230
1.0
0
CIRCLE
5
7A
330
22
100
AcDbEntity
8
\U+7C97\U+5B9E\U+7EBF\U+5C42
62
256
6
ByLayer
370
-1
48
1.0
60
0
100
AcDbCircle
10
130.0
20
130.0
30
0.0
40
17.0
39
0.0
210
0.0
220
0.0
230
1.0
0
LINE
5
7B
330
22
100
AcDbEntity
8
\U+4E2D\U+5FC3\U+7EBF\U+5C42
62
256
6
ByLayer
370
-1
48
1.0
60
0
100
AcDbLine
10
130.0
20
100.571063803858
30
0.0
11
130.0
21
159.428937354009
31
0.0
39
0.0
210
0.0
220
0.0
230
1.0
0
LINE
5
7C
330
22
100
AcDbEntity
8
\U+4E2D\U+5FC3\U+7EBF\U+5C42
62
256
6
ByLayer
370
-1
48
1.0
60
0
100
AcDbLine
10
159.428940448327
20
130.0
30
0.0
11
100.571061400599
21
130.0
31
0.0
39
0.0
210
0.0
220
0.0
230
1.0
0
CIRCLE
5
7D
330
22
100
AcDbEntity
8
\U+7C97\U+5B9E\U+7EBF\U+5C42
62
256
6
ByLayer
370
-1
48
1.0
60
0
100
AcDbCircle
10
130.0
20
-130.0
30
0.0
40
17.0
39
0.0
210
0.0
220
0.0
230
1.0
0
LINE
5
7E
330
22
100
AcDbEntity
8
\U+4E2D\U+5FC3\U+7EBF\U+5C42
62
256
6
ByLayer
370
-1
48
1.0
60
0
100
AcDbLine
10
130.0
20
-100.571063803858
30
0.0
11
130.0
21
-159.428937354009
31
0.0
39
0.0
210
0.0
220
0.0
230
1.0
0
LINE
5
7F
330
22
100
AcDbEntity
8
\U+4E2D\U+5FC3\U+7EBF\U+5C42
62
256
6
ByLayer
370
-1
48
1.0
60
0
100
AcDbLine
10
159.428940448327
20
-130.0
30
0.0
11
100.571061400599
21
-130.0
31
0.0
39
0.0
210
0.0
220
0.0
230
1.0
0
CIRCLE
5
80
330
22
100
AcDbEntity
8
\U+7C97\U+5B9E\U+7EBF\U+5C42
62
256
6
ByLayer
370
-1
48
1.0
60
0
100
AcDbCircle
10
-130.0
20
-130.0
30
0.0
40
17.0
39
0.0
210
0.0
220
0.0
230
1.0
0
LINE
5
81
330
22
100
AcDbEntity
8
\U+4E2D\U+5FC3\U+7EBF\U+5C42
62
256
6
ByLayer
370
-1
48
1.0
60
0
100
AcDbLine
10
-130.0
20
-100.571063803858
30
0.0
11
-130.0
21
-159.428937354009
31
0.0
39
0.0
210
0.0
220
0.0
230
1.0
0
LINE
5
82
330
22
100
AcDbEntity
8
\U+4E2D\U+5FC3\U+7EBF\U+5C42
62
256
6
ByLayer
370
-1
48
1.0
60
0
100
AcDbLine
10
-159.428940448328
20
-130.0
30
0.0
11
-100.5710614006
21
-130.0
31
0.0
39
0.0
210
0.0
220
0.0
230
1.0
0
LINE
5
83
330
22
100
AcDbEntity
8
\U+4E2D\U+5FC3\U+7EBF\U+5C42
62
256
6
ByLayer
370
-1
48
1.0
60
0
100
AcDbLine
10
-0.0000000001323883
20
200.753105347973
30
0.0
11
-0.0000000001323883
21
-197.891549433993
31
0.0
39
0.0
210
0.0
220
0.0
230
1.0
0
ENDBLK
5
23
330
22
100
AcDbEntity
8
0
100
AcDbBlockEnd
0
BLOCK
5
86
330
84
100
AcDbEntity
67
1
8
0
100
AcDbBlockBegin
2
*Paper_Space
70
0
10
0.0
20
0.0
30
0.0
3
*Paper_Space
4

0
ENDBLK
5
85
330
84
100
AcDbEntity
8
0
100
AcDbBlockEnd
0
ENDSEC
0
SECTION
2
ENTITIES
0
VIEWPORT
5
88
330
84
100
AcDbEntity
67
1
8
0
62
256
6
ByLayer
370
-1
48
1.0
60
0
100
AcDbViewport
10
0.0
20
0.0
30
0.0
40
297.0
41
210.0
68
1
69
1
12
50.0
22
100.0
13
0.0
23
0.0
14
10.0
24
10.0
15
10.0
25
10.0
16
0.0
26
0.0
36
1.0
17
0.0
27
0.0
37
0.0
42
50.0
43
0.0
44
0.0
45
250.0
50
0.0
51
0.0
72
1000
90
819232
110
0.0
120
0.0
130
0.0
111
1.0
121
0.0
131
0.0
112
0.0
122
1.0
132
0.0
0
ENDSEC
0
SECTION
2
OBJECTS
0
DICTIONARY
5
8D
330
0
100
AcDbDictionary
280
1
281
1
3
ACAD_GROUP
350
12
3
ACAD_LAYOUT
350
87
3
ACAD_DGNDEFINITIONS
350
F
3
ACAD_DWFDEFINITIONS
350
10
3
ACAD_PDFDEFINITIONS
350
11
3
ACAD_MLINESTYLE
350
B
3
ACAD_IMAGE_DICT
350
E
3
ACAD_IMAGE_VARS
350
21
0
DICTIONARY
5
12
330
8D
100
AcDbDictionary
280
1
281
1
0
DICTIONARY
5
87
330
8D
100
AcDbDictionary
280
1
281
1
3
Model
350
20
3
Layout1
350
89
0
DICTIONARY
5
F
330
8D
100
AcDbDictionary
280
1
281
1
0
DICTIONARY
5
10
330
8D
100
AcDbDictionary
280
1
281
1
0
DICTIONARY
5
11
330
8D
100
AcDbDictionary
280
1
281
1
0
DICTIONARY
5
B
330
8D
100
AcDbDictionary
280
1
281
1
3
Standard
350
1B
0
DICTIONARY
5
E
330
8D
100
AcDbDictionary
280
1
281
1
0
DICTIONARY
5
6
330
5
100
AcDbDictionary
280
1
281
1
3
ACAD_LAYERSTATES
360
8E
0
DICTIONARY
5
8E
330
6
100
AcDbDictionary
280
1
281
1
0
LAYOUT
5
20
330
87
100
AcDbPlotSettings
1

2
none_device
4
ISO_A4_(210.00_x_297.00_MM)
6

40
7.5
41
20.0
42
7.5
43
20.0
44
210.0
45
297.0
46
0.0
47
0.0
48
0.0
49
0.0
140
0.0
141
0.0
142
1.0
143
1.0
70
11952
72
1
73
1
74
1
7

75
0
76
0
77
2
78
300
147
1.0
148
0.0
149
0.0
100
AcDbLayout
1
Model
71
0
10
-20.0
20
-7.5
11
277.0
21
202.5
12
0.0
22
0.0
32
0.0
14
25.7
24
19.5
34
0.0
15
231.3
25
175.5
35
0.0
146
0.0
13
0.0
23
0.0
33
0.0
16
1.0
26
0.0
36
0.0
17
0.0
27
1.0
37
0.0
76
0
330
1C
0
LAYOUT
5
89
330
87
100
AcDbPlotSettings
1

2
none_device
4
ISO_A4_(210.00_x_297.00_MM)
6

40
7.5
41
20.0
42
7.5
43
20.0
44
210.0
45
297.0
46
0.0
47
0.0
48
0.0
49
0.0
140
0.0
141
0.0
142
1.0
143
1.0
70
688
72
1
73
1
74
1
7

75
0
76
0
77
2
78
300
147
1.0
148
0.0
149
0.0
100
AcDbLayout
1
Layout1
71
1
10
-20.0
20
-7.5
11
277.0
21
202.5
12
0.0
22
0.0
32
0.0
14
25.7
24
19.5
34
0.0
15
231.3
25
175.5
35
0.0
146
0.0
13
0.0
23
0.0
33
0.0
16
1.0
26
0.0
36
0.0
17
0.0
27
1.0
37
0.0
76
0
330
84
0
MLINESTYLE
5
1B
330
B
100
AcDbMlineStyle
2
Standard
70
0
3

62
256
51
90.0
52
90.0
71
2
49
0.5
62
256
6
ByLayer
49
-0.5
62
256
6
ByLayer
0
RASTERVARIABLES
5
21
330
E
100
AcDbRasterVariables
90
0
70
1
71
1
72
0
0
ENDSEC
0
EOF
