999
DXF file generated by netDxf https://github.com/haplokuon/netDxf, Copyright(C) 2009-2020 Daniel Carvajal, Licensed under LGPL
0
SECTION
2
HEADER
9
$ACADVER
1
AC1015
9
$DWGCODEPAGE
3
ANSI_1252
9
$HANDSEED
5
53
9
$ANGBASE
50
0.0
9
$ANGDIR
70
0
9
$ATTMODE
70
1
9
$AUNITS
70
0
9
$AUPREC
70
0
9
$CECOLOR
62
256
9
$CELTSCALE
40
1.0
9
$CELTYPE
6
ByLayer
9
$CELWEIGHT
370
-1
9
$CLAYER
8
0
9
$CMLJUST
70
0
9
$CMLSCALE
40
20.0
9
$CMLSTYLE
2
Standard
9
$DIMSTYLE
2
Standard
9
$TEXTSIZE
40
2.5
9
$TEXTSTYLE
7
Standard
9
$LUNITS
70
2
9
$LUPREC
70
4
9
$MIRRTEXT
70
0
9
$EXTNAMES
290
1
9
$INSBASE
10
0.0
20
0.0
30
0.0
9
$INSUNITS
70
0
9
$LTSCALE
40
1.0
9
$LWDISPLAY
290
0
9
$PDMODE
70
0
9
$PDSIZE
40
0.0
9
$PLINEGEN
70
0
9
$PSLTSCALE
70
1
9
$TDCREATE
40
2459821.45291961
9
$TDUCREATE
40
2459821.11958627
9
$TDUPDATE
40
2459821.45291961
9
$TDUUPDATE
40
2459821.11958627
9
$TDINDWG
40
0.0
9
$UCSORG
10
0.0
20
0.0
30
0.0
9
$UCSXDIR
10
1.0
20
0.0
30
0.0
9
$UCSYDIR
10
0.0
20
1.0
30
0.0
9
$DIMADEC
70
0
9
$DIMALT
70
0
9
$DIMALTD
70
2
9
$DIMALTF
40
25.4
9
$DIMALTRND
40
0.0
9
$DIMALTTD
70
2
9
$DIMALTTZ
70
0
9
$DIMALTU
70
2
9
$DIMALTZ
70
0
9
$DIMAPOST
1

9
$DIMATFIT
70
3
9
$DIMAUNIT
70
0
9
$DIMASZ
40
0.18
9
$DIMAZIN
70
0
9
$DIMSAH
70
0
9
$DIMBLK
1

9
$DIMLDRBLK
1

9
$DIMCEN
40
0.09
9
$DIMCLRD
70
0
9
$DIMCLRE
70
0
9
$DIMCLRT
70
0
9
$DIMDEC
70
4
9
$DIMDLE
40
0.0
9
$DIMDLI
40
0.38
9
$DIMDSEP
70
46
9
$DIMEXE
40
0.18
9
$DIMEXO
40
0.0625
9
$DIMFXLON
70
0
9
$DIMFXL
40
1.0
9
$DIMGAP
40
0.09
9
$DIMJUST
70
0
9
$DIMLFAC
40
1.0
9
$DIMLUNIT
70
2
9
$DIMLWD
70
-2
9
$DIMLWE
70
-2
9
$DIMPOST
1

9
$DIMRND
40
0.0
9
$DIMSCALE
40
1.0
9
$DIMSD1
70
0
9
$DIMSD2
70
0
9
$DIMSE1
70
0
9
$DIMSE2
70
0
9
$DIMSOXD
70
0
9
$DIMTAD
70
0
9
$DIMTDEC
70
4
9
$DIMTFAC
40
1.0
9
$DIMTIH
70
0
9
$DIMTIX
70
0
9
$DIMTM
40
0.0
9
$DIMTMOVE
70
0
9
$DIMTOFL
70
0
9
$DIMTOH
70
0
9
$DIMTOL
70
0
9
$DIMLIM
70
0
9
$DIMTOLJ
70
1
9
$DIMTP
40
0.0
9
$DIMTXT
40
0.18
9
$DIMTXTDIRECTION
70
0
9
$DIMTZIN
70
0
9
$DIMZIN
70
0
9
$DIMFRAC
70
0
9
$DIMLTYPE
6
ByBlock
9
$DIMLTEX1
6
ByBlock
9
$DIMLTEX2
6
ByBlock
0
ENDSEC
0
SECTION
2
CLASSES
0
CLASS
1
RASTERVARIABLES
2
AcDbRasterVariables
3
ISM
90
0
280
0
281
0
0
ENDSEC
0
SECTION
2
TABLES
0
TABLE
2
APPID
5
4
330
0
100
AcDbSymbolTable
70
5
0
APPID
5
19
330
4
100
AcDbSymbolTableRecord
100
AcDbRegAppTableRecord
2
ACAD
70
0
0
APPID
5
27
330
4
100
AcDbSymbolTableRecord
100
AcDbRegAppTableRecord
2
AcAecLayerStandard
70
0
0
APPID
5
4E
330
4
100
AcDbSymbolTableRecord
100
AcDbRegAppTableRecord
2
AcCmTransparency
70
0
0
APPID
5
4F
330
4
100
AcDbSymbolTableRecord
100
AcDbRegAppTableRecord
2
GradientColor1ACI
70
0
0
APPID
5
50
330
4
100
AcDbSymbolTableRecord
100
AcDbRegAppTableRecord
2
GradientColor2ACI
70
0
0
ENDTAB
0
TABLE
2
VPORT
5
1
330
0
100
AcDbSymbolTable
70
1
0
VPORT
5
2
330
1
100
AcDbSymbolTableRecord
100
AcDbViewportTableRecord
2
*Active
70
0
10
0.0
20
0.0
11
1.0
21
1.0
12
0.0
22
0.0
13
0.0
23
0.0
14
0.5
24
0.5
15
10.0
25
10.0
16
0.0
26
0.0
36
1.0
17
0.0
27
0.0
37
0.0
40
10.0
41
1.0
75
0
76
1
0
ENDTAB
0
TABLE
2
LTYPE
5
7
330
0
100
AcDbSymbolTable
70
4
0
LTYPE
5
15
330
7
100
AcDbSymbolTableRecord
100
AcDbLinetypeTableRecord
2
Continuous
70
0
3
Solid line
72
65
73
0
40
0.0
0
LTYPE
5
16
330
7
100
AcDbSymbolTableRecord
100
AcDbLinetypeTableRecord
2
ByLayer
70
0
3

72
65
73
0
40
0.0
0
LTYPE
5
17
330
7
100
AcDbSymbolTableRecord
100
AcDbLinetypeTableRecord
2
ByBlock
70
0
3

72
65
73
0
40
0.0
0
LTYPE
5
2A
330
7
100
AcDbSymbolTableRecord
100
AcDbLinetypeTableRecord
2
\U+70B9\U+753B\U+7EBF
70
0
3
\U+70B9\U+753B\U+7EBF: ____ . ____ . ____ . ____ . ____ . ____
72
65
73
4
40
18.0
49
12.0
74
0
49
-2.0
74
0
49
2.0
74
0
49
-2.0
74
0
0
ENDTAB
0
TABLE
2
LAYER
5
5
102
{ACAD_XDICTIONARY
360
6
102
}
330
0
100
AcDbSymbolTable
70
3
0
LAYER
5
14
330
5
100
AcDbSymbolTableRecord
100
AcDbLayerTableRecord
2
0
70
0
62
7
6
Continuous
290
1
370
-3
390
0
0
LAYER
5
26
330
5
100
AcDbSymbolTableRecord
100
AcDbLayerTableRecord
2
\U+7C97\U+5B9E\U+7EBF\U+5C42
70
0
62
7
6
Continuous
290
1
370
35
390
0
1001
AcAecLayerStandard
1000

1000
\U+7C97\U+5B9E\U+7EBF\U+5C42
0
LAYER
5
29
330
5
100
AcDbSymbolTableRecord
100
AcDbLayerTableRecord
2
\U+4E2D\U+5FC3\U+7EBF\U+5C42
70
0
62
1
6
\U+70B9\U+753B\U+7EBF
290
1
370
18
390
0
1001
AcAecLayerStandard
1000

1000
\U+4E2D\U+5FC3\U+7EBF\U+5C42
0
ENDTAB
0
TABLE
2
STYLE
5
8
330
0
100
AcDbSymbolTable
70
1
0
STYLE
5
18
330
8
100
AcDbSymbolTableRecord
100
AcDbTextStyleTableRecord
2
Standard
3
simplex.shx
70
0
71
0
40
0.0
41
1.0
42
0.0
50
0.0
0
ENDTAB
0
TABLE
2
DIMSTYLE
5
A
330
0
100
AcDbSymbolTable
70
1
100
AcDbDimStyleTable
0
DIMSTYLE
105
1A
330
A
100
AcDbSymbolTableRecord
100
AcDbDimStyleTableRecord
2
Standard
3

4

40
1.0
41
0.18
42
0.0625
43
0.38
44
0.18
45
0.0
46
0.0
47
0.0
48
0.0
49
1.0
70
0
71
0
72
0
73
0
74
0
75
0
76
0
77
0
78
0
79
0
140
0.18
141
0.09
143
25.4
144
1.0
146
1.0
147
0.09
148
0.0
170
0
171
2
172
0
174
0
175
0
176
0
177
0
178
0
179
0
271
4
272
4
273
2
274
2
275
0
276
0
277
2
278
46
279
0
280
0
281
0
282
0
283
1
284
0
285
0
286
0
289
3
290
0
294
0
340
18
173
0
345
17
346
17
347
17
371
-2
372
-2
0
ENDTAB
0
TABLE
2
VIEW
5
3
330
0
100
AcDbSymbolTable
70
0
0
ENDTAB
0
TABLE
2
UCS
5
C
330
0
100
AcDbSymbolTable
70
0
0
ENDTAB
0
TABLE
2
BLOCK_RECORD
5
D
330
0
100
AcDbSymbolTable
70
3
0
BLOCK_RECORD
5
1C
330
D
100
AcDbSymbolTableRecord
100
AcDbBlockTableRecord
2
*Model_Space
340
20
0
BLOCK_RECORD
5
22
330
D
100
AcDbSymbolTableRecord
100
AcDbBlockTableRecord
2
BLOCK166_2_2
340
0
70
0
280
1
281
0
1001
ACAD
1000
DesignCenter Data
1002
{
1070
1
1070
0
1002
}
0
BLOCK_RECORD
5
48
330
D
100
AcDbSymbolTableRecord
100
AcDbBlockTableRecord
2
*Paper_Space
340
4D
0
ENDTAB
0
ENDSEC
0
SECTION
2
BLOCKS
0
BLOCK
5
1E
330
1C
100
AcDbEntity
67
0
8
0
100
AcDbBlockBegin
2
*Model_Space
70
0
10
0.0
20
0.0
30
0.0
3
*Model_Space
4

0
ENDBLK
5
1D
330
1C
100
AcDbEntity
8
0
100
AcDbBlockEnd
0
BLOCK
5
24
330
22
100
AcDbEntity
8
0
100
AcDbBlockBegin
2
BLOCK166_2_2
70
0
10
0.0
20
0.0
30
0.0
3
BLOCK166_2_2
4

0
CIRCLE
5
25
330
22
100
AcDbEntity
8
\U+7C97\U+5B9E\U+7EBF\U+5C42
62
2
6
ByLayer
370
-1
48
1.0
60
0
100
AcDbCircle
10
-1507.74974779459
20
1982.5883004097
30
0.0
40
136.500000000001
39
0.0
210
0.0
220
0.0
230
1.0
0
LINE
5
28
330
22
100
AcDbEntity
8
\U+4E2D\U+5FC3\U+7EBF\U+5C42
62
256
6
ByLayer
370
-1
48
1.0
60
0
100
AcDbLine
10
-1643.24841169058
20
2015.7600130441
30
0.0
11
-1372.25108702905
21
1949.4165881529
31
0.0
39
0.0
210
0.0
220
0.0
230
1.0
0
LINE
5
2B
330
22
100
AcDbEntity
8
\U+4E2D\U+5FC3\U+7EBF\U+5C42
62
256
6
ByLayer
370
-1
48
1.0
60
0
100
AcDbLine
10
-1540.92146180541
20
1847.08963826774
30
0.0
11
-1474.57803691421
21
2118.08696292927
31
0.0
39
0.0
210
0.0
220
0.0
230
1.0
0
LINE
5
2C
330
22
100
AcDbEntity
8
\U+7C97\U+5B9E\U+7EBF\U+5C42
62
2
6
ByLayer
370
-1
48
1.0
60
0
100
AcDbLine
10
-639.162386134738
20
-25.6233944261479
30
0.0
11
-310.681311315098
21
151.094413067422
31
0.0
39
0.0
210
0.0
220
0.0
230
1.0
0
LINE
5
2D
330
22
100
AcDbEntity
8
\U+7C97\U+5B9E\U+7EBF\U+5C42
62
2
6
ByLayer
370
-1
48
1.0
60
0
100
AcDbLine
10
-310.681311315098
20
151.094413067422
30
0.0
11
-313.523957012046
21
156.378290946558
31
0.0
39
0.0
210
0.0
220
0.0
230
1.0
0
LINE
5
2E
330
22
100
AcDbEntity
8
\U+7C97\U+5B9E\U+7EBF\U+5C42
62
2
6
ByLayer
370
-1
48
1.0
60
0
100
AcDbLine
10
-642.005031831685
20
-20.3395165470116
30
0.0
11
-313.523957012046
21
156.378290946558
31
0.0
39
0.0
210
0.0
220
0.0
230
1.0
0
LINE
5
2F
330
22
100
AcDbEntity
8
\U+7C97\U+5B9E\U+7EBF\U+5C42
62
2
6
ByLayer
370
-1
48
1.0
60
0
100
AcDbLine
10
-639.162386134738
20
-25.6233944261479
30
0.0
11
-642.005031831685
21
-20.3395165470116
31
0.0
39
0.0
210
0.0
220
0.0
230
1.0
0
LINE
5
30
330
22
100
AcDbEntity
8
\U+7C97\U+5B9E\U+7EBF\U+5C42
62
2
6
ByLayer
370
-1
48
1.0
60
0
100
AcDbLine
10
-357.53796160224
20
132.699427881336
30
0.0
11
-1387.52404173704
21
2047.2259798465
31
0.0
39
0.0
210
0.0
220
0.0
230
1.0
0
LINE
5
31
330
22
100
AcDbEntity
8
\U+4E2D\U+5FC3\U+7EBF\U+5C42
62
256
6
ByLayer
370
-1
48
1.0
60
0
100
AcDbLine
10
-462.246851598844
20
39.2192545754369
30
0.0
11
-1507.74974935981
21
1982.5883005985
31
0.0
39
0.0
210
0.0
220
0.0
230
1.0
0
LINE
5
32
330
22
100
AcDbEntity
8
\U+7C97\U+5B9E\U+7EBF\U+5C42
62
2
6
ByLayer
370
-1
48
1.0
60
0
100
AcDbLine
10
-597.954405102918
20
3.35904867017689
30
0.0
11
-1628.14524555536
21
1918.26743195365
31
0.0
39
0.0
210
0.0
220
0.0
230
1.0
0
CIRCLE
5
33
330
22
100
AcDbEntity
8
\U+7C97\U+5B9E\U+7EBF\U+5C42
62
256
6
ByLayer
370
-1
48
1.0
60
0
100
AcDbCircle
10
-1507.74974779453
20
1982.58830040968
30
0.0
40
136.500000000024
39
0.0
210
0.0
220
0.0
230
1.0
0
CIRCLE
5
34
330
22
100
AcDbEntity
8
\U+7C97\U+5B9E\U+7EBF\U+5C42
62
256
6
ByLayer
370
-1
48
1.0
60
0
100
AcDbCircle
10
-1507.74974779453
20
1982.58830040968
30
0.0
40
186.500000000024
39
0.0
210
0.0
220
0.0
230
1.0
0
CIRCLE
5
35
330
22
100
AcDbEntity
8
\U+4E2D\U+5FC3\U+7EBF\U+5C42
62
256
6
ByLayer
370
-1
48
1.0
60
0
100
AcDbCircle
10
-1507.74974779453
20
1982.58830040968
30
0.0
40
161.500000000024
39
0.0
210
0.0
220
0.0
230
1.0
0
CIRCLE
5
36
330
22
100
AcDbEntity
8
\U+7C97\U+5B9E\U+7EBF\U+5C42
62
256
6
ByLayer
370
-1
48
1.0
60
0
100
AcDbCircle
10
-1469.34665090359
20
2139.45592660831
30
0.0
40
6.0
39
0.0
210
0.0
220
0.0
230
1.0
0
LINE
5
37
330
22
100
AcDbEntity
8
\U+4E2D\U+5FC3\U+7EBF\U+5C42
62
256
6
ByLayer
370
-1
48
1.0
60
0
100
AcDbLine
10
-1471.48676156624
20
2130.71407747031
30
0.0
11
-1467.20654024093
21
2148.19777574631
31
0.0
39
0.0
210
0.0
220
0.0
230
1.0
0
CIRCLE
5
38
330
22
100
AcDbEntity
8
\U+7C97\U+5B9E\U+7EBF\U+5C42
62
256
6
ByLayer
370
-1
48
1.0
60
0
100
AcDbCircle
10
-1591.51681979807
20
2120.66555287352
30
0.0
40
6.0
39
0.0
210
0.0
220
0.0
230
1.0
0
LINE
5
39
330
22
100
AcDbEntity
8
\U+4E2D\U+5FC3\U+7EBF\U+5C42
62
256
6
ByLayer
370
-1
48
1.0
60
0
100
AcDbLine
10
-1586.84868575453
20
2112.97084530588
30
0.0
11
-1596.18495384161
21
2128.36026044116
31
0.0
39
0.0
210
0.0
220
0.0
230
1.0
0
CIRCLE
5
3A
330
22
100
AcDbEntity
8
\U+7C97\U+5B9E\U+7EBF\U+5C42
62
256
6
ByLayer
370
-1
48
1.0
60
0
100
AcDbCircle
10
-1664.61737399316
20
2020.99139730063
30
0.0
40
6.0
39
0.0
210
0.0
220
0.0
230
1.0
0
LINE
5
3B
330
22
100
AcDbEntity
8
\U+4E2D\U+5FC3\U+7EBF\U+5C42
62
256
6
ByLayer
370
-1
48
1.0
60
0
100
AcDbLine
10
-1655.87552485515
20
2018.85128663798
30
0.0
11
-1673.35922313116
21
2023.13150796329
31
0.0
39
0.0
210
0.0
220
0.0
230
1.0
0
CIRCLE
5
3C
330
22
100
AcDbEntity
8
\U+7C97\U+5B9E\U+7EBF\U+5C42
62
256
6
ByLayer
370
-1
48
1.0
60
0
100
AcDbCircle
10
-1645.82700025837
20
1898.82122840615
30
0.0
40
6.0
39
0.0
210
0.0
220
0.0
230
1.0
0
LINE
5
3D
330
22
100
AcDbEntity
8
\U+4E2D\U+5FC3\U+7EBF\U+5C42
62
256
6
ByLayer
370
-1
48
1.0
60
0
100
AcDbLine
10
-1638.13229269072
20
1903.48936244969
30
0.0
11
-1653.52170782601
21
1894.15309436261
31
0.0
39
0.0
210
0.0
220
0.0
230
1.0
0
CIRCLE
5
3E
330
22
100
AcDbEntity
8
\U+7C97\U+5B9E\U+7EBF\U+5C42
62
256
6
ByLayer
370
-1
48
1.0
60
0
100
AcDbCircle
10
-1546.15284468548
20
1825.72067421106
30
0.0
40
6.0
39
0.0
210
0.0
220
0.0
230
1.0
0
LINE
5
3F
330
22
100
AcDbEntity
8
\U+4E2D\U+5FC3\U+7EBF\U+5C42
62
256
6
ByLayer
370
-1
48
1.0
60
0
100
AcDbLine
10
-1544.01273402282
20
1834.46252334906
30
0.0
11
-1548.29295534813
21
1816.97882507305
31
0.0
39
0.0
210
0.0
220
0.0
230
1.0
0
CIRCLE
5
40
330
22
100
AcDbEntity
8
\U+7C97\U+5B9E\U+7EBF\U+5C42
62
256
6
ByLayer
370
-1
48
1.0
60
0
100
AcDbCircle
10
-1423.982675791
20
1844.51104794585
30
0.0
40
6.0
39
0.0
210
0.0
220
0.0
230
1.0
0
LINE
5
41
330
22
100
AcDbEntity
8
\U+4E2D\U+5FC3\U+7EBF\U+5C42
62
256
6
ByLayer
370
-1
48
1.0
60
0
100
AcDbLine
10
-1428.65080983454
20
1852.20575551349
30
0.0
11
-1419.31454174746
21
1836.8163403782
31
0.0
39
0.0
210
0.0
220
0.0
230
1.0
0
CIRCLE
5
42
330
22
100
AcDbEntity
8
\U+7C97\U+5B9E\U+7EBF\U+5C42
62
256
6
ByLayer
370
-1
48
1.0
60
0
100
AcDbCircle
10
-1350.88212159591
20
1944.18520351874
30
0.0
40
6.0
39
0.0
210
0.0
220
0.0
230
1.0
0
LINE
5
43
330
22
100
AcDbEntity
8
\U+4E2D\U+5FC3\U+7EBF\U+5C42
62
256
6
ByLayer
370
-1
48
1.0
60
0
100
AcDbLine
10
-1359.62397073391
20
1946.32531418139
30
0.0
11
-1342.1402724579
21
1942.04509285608
31
0.0
39
0.0
210
0.0
220
0.0
230
1.0
0
CIRCLE
5
44
330
22
100
AcDbEntity
8
\U+7C97\U+5B9E\U+7EBF\U+5C42
62
256
6
ByLayer
370
-1
48
1.0
60
0
100
AcDbCircle
10
-1369.67249533069
20
2066.35537241322
30
0.0
40
6.0
39
0.0
210
0.0
220
0.0
230
1.0
0
LINE
5
45
330
22
100
AcDbEntity
8
\U+4E2D\U+5FC3\U+7EBF\U+5C42
62
256
6
ByLayer
370
-1
48
1.0
60
0
100
AcDbLine
10
-1377.36720289834
20
2061.68723836968
30
0.0
11
-1361.97778776305
21
2071.02350645675
31
0.0
39
0.0
210
0.0
220
0.0
230
1.0
0
LINE
5
46
330
22
100
AcDbEntity
8
\U+4E2D\U+5FC3\U+7EBF\U+5C42
62
256
6
ByLayer
370
-1
48
1.0
60
0
100
AcDbLine
10
-1691.81423797806
20
2027.64951936221
30
0.0
11
-1323.685257611
21
1937.52708145715
31
0.0
39
0.0
210
0.0
220
0.0
230
1.0
0
LINE
5
47
330
22
100
AcDbEntity
8
\U+4E2D\U+5FC3\U+7EBF\U+5C42
62
256
6
ByLayer
370
-1
48
1.0
60
0
100
AcDbLine
10
-1552.81096674706
20
1798.52381022615
30
0.0
11
-1462.688528842
21
2166.65279059321
31
0.0
39
0.0
210
0.0
220
0.0
230
1.0
0
ENDBLK
5
23
330
22
100
AcDbEntity
8
0
100
AcDbBlockEnd
0
BLOCK
5
4A
330
48
100
AcDbEntity
67
1
8
0
100
AcDbBlockBegin
2
*Paper_Space
70
0
10
0.0
20
0.0
30
0.0
3
*Paper_Space
4

0
ENDBLK
5
49
330
48
100
AcDbEntity
8
0
100
AcDbBlockEnd
0
ENDSEC
0
SECTION
2
ENTITIES
0
VIEWPORT
5
4C
330
48
100
AcDbEntity
67
1
8
0
62
256
6
ByLayer
370
-1
48
1.0
60
0
100
AcDbViewport
10
0.0
20
0.0
30
0.0
40
297.0
41
210.0
68
1
69
1
12
50.0
22
100.0
13
0.0
23
0.0
14
10.0
24
10.0
15
10.0
25
10.0
16
0.0
26
0.0
36
1.0
17
0.0
27
0.0
37
0.0
42
50.0
43
0.0
44
0.0
45
250.0
50
0.0
51
0.0
72
1000
90
819232
110
0.0
120
0.0
130
0.0
111
1.0
121
0.0
131
0.0
112
0.0
122
1.0
132
0.0
0
ENDSEC
0
SECTION
2
OBJECTS
0
DICTIONARY
5
51
330
0
100
AcDbDictionary
280
1
281
1
3
ACAD_GROUP
350
12
3
ACAD_LAYOUT
350
4B
3
ACAD_DGNDEFINITIONS
350
F
3
ACAD_DWFDEFINITIONS
350
10
3
ACAD_PDFDEFINITIONS
350
11
3
ACAD_MLINESTYLE
350
B
3
ACAD_IMAGE_DICT
350
E
3
ACAD_IMAGE_VARS
350
21
0
DICTIONARY
5
12
330
51
100
AcDbDictionary
280
1
281
1
0
DICTIONARY
5
4B
330
51
100
AcDbDictionary
280
1
281
1
3
Model
350
20
3
Layout1
350
4D
0
DICTIONARY
5
F
330
51
100
AcDbDictionary
280
1
281
1
0
DICTIONARY
5
10
330
51
100
AcDbDictionary
280
1
281
1
0
DICTIONARY
5
11
330
51
100
AcDbDictionary
280
1
281
1
0
DICTIONARY
5
B
330
51
100
AcDbDictionary
280
1
281
1
3
Standard
350
1B
0
DICTIONARY
5
E
330
51
100
AcDbDictionary
280
1
281
1
0
DICTIONARY
5
6
330
5
100
AcDbDictionary
280
1
281
1
3
ACAD_LAYERSTATES
360
52
0
DICTIONARY
5
52
330
6
100
AcDbDictionary
280
1
281
1
0
LAYOUT
5
20
330
4B
100
AcDbPlotSettings
1

2
none_device
4
ISO_A4_(210.00_x_297.00_MM)
6

40
7.5
41
20.0
42
7.5
43
20.0
44
210.0
45
297.0
46
0.0
47
0.0
48
0.0
49
0.0
140
0.0
141
0.0
142
1.0
143
1.0
70
11952
72
1
73
1
74
1
7

75
0
76
0
77
2
78
300
147
1.0
148
0.0
149
0.0
100
AcDbLayout
1
Model
71
0
10
-20.0
20
-7.5
11
277.0
21
202.5
12
0.0
22
0.0
32
0.0
14
25.7
24
19.5
34
0.0
15
231.3
25
175.5
35
0.0
146
0.0
13
0.0
23
0.0
33
0.0
16
1.0
26
0.0
36
0.0
17
0.0
27
1.0
37
0.0
76
0
330
1C
0
LAYOUT
5
4D
330
4B
100
AcDbPlotSettings
1

2
none_device
4
ISO_A4_(210.00_x_297.00_MM)
6

40
7.5
41
20.0
42
7.5
43
20.0
44
210.0
45
297.0
46
0.0
47
0.0
48
0.0
49
0.0
140
0.0
141
0.0
142
1.0
143
1.0
70
688
72
1
73
1
74
1
7

75
0
76
0
77
2
78
300
147
1.0
148
0.0
149
0.0
100
AcDbLayout
1
Layout1
71
1
10
-20.0
20
-7.5
11
277.0
21
202.5
12
0.0
22
0.0
32
0.0
14
25.7
24
19.5
34
0.0
15
231.3
25
175.5
35
0.0
146
0.0
13
0.0
23
0.0
33
0.0
16
1.0
26
0.0
36
0.0
17
0.0
27
1.0
37
0.0
76
0
330
48
0
MLINESTYLE
5
1B
330
B
100
AcDbMlineStyle
2
Standard
70
0
3

62
256
51
90.0
52
90.0
71
2
49
0.5
62
256
6
ByLayer
49
-0.5
62
256
6
ByLayer
0
RASTERVARIABLES
5
21
330
E
100
AcDbRasterVariables
90
0
70
1
71
1
72
0
0
ENDSEC
0
EOF
