999
DXF file generated by netDxf https://github.com/haplokuon/netDxf, Copyright(C) 2009-2020 Daniel Carvajal, Licensed under LGPL
0
SECTION
2
HEADER
9
$ACADVER
1
AC1015
9
$DWGCODEPAGE
3
ANSI_1252
9
$HANDSEED
5
179
9
$ANGBASE
50
0.0
9
$ANGDIR
70
0
9
$ATTMODE
70
1
9
$AUNITS
70
0
9
$AUPREC
70
0
9
$CECOLOR
62
256
9
$CELTSCALE
40
1.0
9
$CELTYPE
6
ByLayer
9
$CELWEIGHT
370
-1
9
$CLAYER
8
0
9
$CMLJUST
70
0
9
$CMLSCALE
40
20.0
9
$CMLSTYLE
2
Standard
9
$DIMSTYLE
2
Standard
9
$TEXTSIZE
40
2.5
9
$TEXTSTYLE
7
Standard
9
$LUNITS
70
2
9
$LUPREC
70
4
9
$MIRRTEXT
70
0
9
$EXTNAMES
290
1
9
$INSBASE
10
0.0
20
0.0
30
0.0
9
$INSUNITS
70
0
9
$LTSCALE
40
1.0
9
$LWDISPLAY
290
0
9
$PDMODE
70
0
9
$PDSIZE
40
0.0
9
$PLINEGEN
70
0
9
$PSLTSCALE
70
1
9
$TDCREATE
40
2459821.45292185
9
$TDUCREATE
40
2459821.11958852
9
$TDUPDATE
40
2459821.45292185
9
$TDUUPDATE
40
2459821.11958852
9
$TDINDWG
40
0.0
9
$UCSORG
10
0.0
20
0.0
30
0.0
9
$UCSXDIR
10
1.0
20
0.0
30
0.0
9
$UCSYDIR
10
0.0
20
1.0
30
0.0
9
$DIMADEC
70
0
9
$DIMALT
70
0
9
$DIMALTD
70
2
9
$DIMALTF
40
25.4
9
$DIMALTRND
40
0.0
9
$DIMALTTD
70
2
9
$DIMALTTZ
70
0
9
$DIMALTU
70
2
9
$DIMALTZ
70
0
9
$DIMAPOST
1

9
$DIMATFIT
70
3
9
$DIMAUNIT
70
0
9
$DIMASZ
40
0.18
9
$DIMAZIN
70
0
9
$DIMSAH
70
0
9
$DIMBLK
1

9
$DIMLDRBLK
1

9
$DIMCEN
40
0.09
9
$DIMCLRD
70
0
9
$DIMCLRE
70
0
9
$DIMCLRT
70
0
9
$DIMDEC
70
4
9
$DIMDLE
40
0.0
9
$DIMDLI
40
0.38
9
$DIMDSEP
70
46
9
$DIMEXE
40
0.18
9
$DIMEXO
40
0.0625
9
$DIMFXLON
70
0
9
$DIMFXL
40
1.0
9
$DIMGAP
40
0.09
9
$DIMJUST
70
0
9
$DIMLFAC
40
1.0
9
$DIMLUNIT
70
2
9
$DIMLWD
70
-2
9
$DIMLWE
70
-2
9
$DIMPOST
1

9
$DIMRND
40
0.0
9
$DIMSCALE
40
1.0
9
$DIMSD1
70
0
9
$DIMSD2
70
0
9
$DIMSE1
70
0
9
$DIMSE2
70
0
9
$DIMSOXD
70
0
9
$DIMTAD
70
0
9
$DIMTDEC
70
4
9
$DIMTFAC
40
1.0
9
$DIMTIH
70
0
9
$DIMTIX
70
0
9
$DIMTM
40
0.0
9
$DIMTMOVE
70
0
9
$DIMTOFL
70
0
9
$DIMTOH
70
0
9
$DIMTOL
70
0
9
$DIMLIM
70
0
9
$DIMTOLJ
70
1
9
$DIMTP
40
0.0
9
$DIMTXT
40
0.18
9
$DIMTXTDIRECTION
70
0
9
$DIMTZIN
70
0
9
$DIMZIN
70
0
9
$DIMFRAC
70
0
9
$DIMLTYPE
6
ByBlock
9
$DIMLTEX1
6
ByBlock
9
$DIMLTEX2
6
ByBlock
0
ENDSEC
0
SECTION
2
CLASSES
0
CLASS
1
RASTERVARIABLES
2
AcDbRasterVariables
3
ISM
90
0
280
0
281
0
0
ENDSEC
0
SECTION
2
TABLES
0
TABLE
2
APPID
5
4
330
0
100
AcDbSymbolTable
70
5
0
APPID
5
19
330
4
100
AcDbSymbolTableRecord
100
AcDbRegAppTableRecord
2
ACAD
70
0
0
APPID
5
27
330
4
100
AcDbSymbolTableRecord
100
AcDbRegAppTableRecord
2
AcAecLayerStandard
70
0
0
APPID
5
174
330
4
100
AcDbSymbolTableRecord
100
AcDbRegAppTableRecord
2
AcCmTransparency
70
0
0
APPID
5
175
330
4
100
AcDbSymbolTableRecord
100
AcDbRegAppTableRecord
2
GradientColor1ACI
70
0
0
APPID
5
176
330
4
100
AcDbSymbolTableRecord
100
AcDbRegAppTableRecord
2
GradientColor2ACI
70
0
0
ENDTAB
0
TABLE
2
VPORT
5
1
330
0
100
AcDbSymbolTable
70
1
0
VPORT
5
2
330
1
100
AcDbSymbolTableRecord
100
AcDbViewportTableRecord
2
*Active
70
0
10
0.0
20
0.0
11
1.0
21
1.0
12
0.0
22
0.0
13
0.0
23
0.0
14
0.5
24
0.5
15
10.0
25
10.0
16
0.0
26
0.0
36
1.0
17
0.0
27
0.0
37
0.0
40
10.0
41
1.0
75
0
76
1
0
ENDTAB
0
TABLE
2
LTYPE
5
7
330
0
100
AcDbSymbolTable
70
5
0
LTYPE
5
15
330
7
100
AcDbSymbolTableRecord
100
AcDbLinetypeTableRecord
2
Continuous
70
0
3
Solid line
72
65
73
0
40
0.0
0
LTYPE
5
16
330
7
100
AcDbSymbolTableRecord
100
AcDbLinetypeTableRecord
2
ByLayer
70
0
3

72
65
73
0
40
0.0
0
LTYPE
5
17
330
7
100
AcDbSymbolTableRecord
100
AcDbLinetypeTableRecord
2
ByBlock
70
0
3

72
65
73
0
40
0.0
0
LTYPE
5
2F
330
7
100
AcDbSymbolTableRecord
100
AcDbLinetypeTableRecord
2
\U+865A\U+7EBF
70
0
3
\U+865A\U+7EBF: __ __ __ __ __ __ __ __ __ __ __ __ __
72
65
73
2
40
2.0
49
1.0
74
0
49
-1.0
74
0
0
LTYPE
5
37
330
7
100
AcDbSymbolTableRecord
100
AcDbLinetypeTableRecord
2
\U+70B9\U+753B\U+7EBF
70
0
3
\U+70B9\U+753B\U+7EBF: ____ . ____ . ____ . ____ . ____ . ____
72
65
73
4
40
18.0
49
12.0
74
0
49
-2.0
74
0
49
2.0
74
0
49
-2.0
74
0
0
ENDTAB
0
TABLE
2
LAYER
5
5
102
{ACAD_XDICTIONARY
360
6
102
}
330
0
100
AcDbSymbolTable
70
5
0
LAYER
5
14
330
5
100
AcDbSymbolTableRecord
100
AcDbLayerTableRecord
2
0
70
0
62
7
6
Continuous
290
1
370
-3
390
0
0
LAYER
5
26
330
5
100
AcDbSymbolTableRecord
100
AcDbLayerTableRecord
2
\U+7C97\U+5B9E\U+7EBF\U+5C42
70
0
62
7
6
Continuous
290
1
370
35
390
0
1001
AcAecLayerStandard
1000

1000
\U+7C97\U+5B9E\U+7EBF\U+5C42
0
LAYER
5
2E
330
5
100
AcDbSymbolTableRecord
100
AcDbLayerTableRecord
2
\U+865A\U+7EBF\U+5C42
70
0
62
6
6
\U+865A\U+7EBF
290
1
370
25
390
0
1001
AcAecLayerStandard
1000

1000
\U+865A\U+7EBF\U+5C42
0
LAYER
5
36
330
5
100
AcDbSymbolTableRecord
100
AcDbLayerTableRecord
2
\U+4E2D\U+5FC3\U+7EBF\U+5C42
70
0
62
1
6
\U+70B9\U+753B\U+7EBF
290
1
370
18
390
0
1001
AcAecLayerStandard
1000

1000
\U+4E2D\U+5FC3\U+7EBF\U+5C42
0
LAYER
5
56
330
5
100
AcDbSymbolTableRecord
100
AcDbLayerTableRecord
2
AM_8
70
0
62
1
6
Continuous
290
1
370
25
390
0
1001
AcAecLayerStandard
1000

1000

0
ENDTAB
0
TABLE
2
STYLE
5
8
330
0
100
AcDbSymbolTable
70
1
0
STYLE
5
18
330
8
100
AcDbSymbolTableRecord
100
AcDbTextStyleTableRecord
2
Standard
3
simplex.shx
70
0
71
0
40
0.0
41
1.0
42
0.0
50
0.0
0
ENDTAB
0
TABLE
2
DIMSTYLE
5
A
330
0
100
AcDbSymbolTable
70
1
100
AcDbDimStyleTable
0
DIMSTYLE
105
1A
330
A
100
AcDbSymbolTableRecord
100
AcDbDimStyleTableRecord
2
Standard
3

4

40
1.0
41
0.18
42
0.0625
43
0.38
44
0.18
45
0.0
46
0.0
47
0.0
48
0.0
49
1.0
70
0
71
0
72
0
73
0
74
0
75
0
76
0
77
0
78
0
79
0
140
0.18
141
0.09
143
25.4
144
1.0
146
1.0
147
0.09
148
0.0
170
0
171
2
172
0
174
0
175
0
176
0
177
0
178
0
179
0
271
4
272
4
273
2
274
2
275
0
276
0
277
2
278
46
279
0
280
0
281
0
282
0
283
1
284
0
285
0
286
0
289
3
290
0
294
0
340
18
173
0
345
17
346
17
347
17
371
-2
372
-2
0
ENDTAB
0
TABLE
2
VIEW
5
3
330
0
100
AcDbSymbolTable
70
0
0
ENDTAB
0
TABLE
2
UCS
5
C
330
0
100
AcDbSymbolTable
70
0
0
ENDTAB
0
TABLE
2
BLOCK_RECORD
5
D
330
0
100
AcDbSymbolTable
70
3
0
BLOCK_RECORD
5
1C
330
D
100
AcDbSymbolTableRecord
100
AcDbBlockTableRecord
2
*Model_Space
340
20
0
BLOCK_RECORD
5
22
330
D
100
AcDbSymbolTableRecord
100
AcDbBlockTableRecord
2
C$83C11EE6232E439BA3314D530D437915_1
340
0
70
0
280
1
281
0
1001
ACAD
1000
DesignCenter Data
1002
{
1070
1
1070
0
1002
}
0
BLOCK_RECORD
5
16E
330
D
100
AcDbSymbolTableRecord
100
AcDbBlockTableRecord
2
*Paper_Space
340
173
0
ENDTAB
0
ENDSEC
0
SECTION
2
BLOCKS
0
BLOCK
5
1E
330
1C
100
AcDbEntity
67
0
8
0
100
AcDbBlockBegin
2
*Model_Space
70
0
10
0.0
20
0.0
30
0.0
3
*Model_Space
4

0
ENDBLK
5
1D
330
1C
100
AcDbEntity
8
0
100
AcDbBlockEnd
0
BLOCK
5
24
330
22
100
AcDbEntity
8
0
100
AcDbBlockBegin
2
C$83C11EE6232E439BA3314D530D437915_1
70
0
10
0.0
20
0.0
30
0.0
3
C$83C11EE6232E439BA3314D530D437915_1
4

0
LINE
5
25
330
22
100
AcDbEntity
8
\U+7C97\U+5B9E\U+7EBF\U+5C42
62
256
6
ByLayer
370
-1
48
1.0
60
0
100
AcDbLine
10
-2615.99999999988
20
-823.000000000116
30
0.0
11
-2615.99999999989
21
-2.99999999998545
31
0.0
39
0.0
210
0.0
220
0.0
230
1.0
0
LINE
5
28
330
22
100
AcDbEntity
8
\U+7C97\U+5B9E\U+7EBF\U+5C42
62
256
6
ByLayer
370
-1
48
1.0
60
0
100
AcDbLine
10
-2609.99999999988
20
-823.000000000116
30
0.0
11
-2609.99999999989
21
-2.99999999998545
31
0.0
39
0.0
210
0.0
220
0.0
230
1.0
0
LINE
5
29
330
22
100
AcDbEntity
8
\U+7C97\U+5B9E\U+7EBF\U+5C42
62
256
6
ByLayer
370
-1
48
1.0
60
0
100
AcDbLine
10
-2616.0000000009
20
-3.00000000005821
30
0.0
11
0.0
21
-3.0000000000291
31
0.0
39
0.0
210
0.0
220
0.0
230
1.0
0
LINE
5
2A
330
22
100
AcDbEntity
8
\U+7C97\U+5B9E\U+7EBF\U+5C42
62
256
6
ByLayer
370
-1
48
1.0
60
0
100
AcDbLine
10
-2616.0000000009
20
-823.000000000058
30
0.0
11
0.000000000003638
21
-823.000000000029
31
0.0
39
0.0
210
0.0
220
0.0
230
1.0
0
LINE
5
2B
330
22
100
AcDbEntity
8
\U+7C97\U+5B9E\U+7EBF\U+5C42
62
256
6
ByLayer
370
-1
48
1.0
60
0
100
AcDbLine
10
-2609.99999999988
20
-763.000000000058
30
0.0
11
0.0
21
-763.000000000029
31
0.0
39
0.0
210
0.0
220
0.0
230
1.0
0
LINE
5
2C
330
22
100
AcDbEntity
8
\U+7C97\U+5B9E\U+7EBF\U+5C42
62
256
6
ByLayer
370
-1
48
1.0
60
0
100
AcDbLine
10
-2609.99999999989
20
-63.0000000000582
30
0.0
11
0.0
21
-63.0000000000291
31
0.0
39
0.0
210
0.0
220
0.0
230
1.0
0
LINE
5
2D
330
22
100
AcDbEntity
8
\U+865A\U+7EBF\U+5C42
62
256
6
ByLayer
370
-1
48
1.0
60
0
100
AcDbLine
10
-2609.99999999988
20
-771.000000000058
30
0.0
11
-140.000000000291
21
-771.000000000029
31
0.0
39
0.0
210
0.0
220
0.0
230
1.0
0
LINE
5
30
330
22
100
AcDbEntity
8
\U+865A\U+7EBF\U+5C42
62
256
6
ByLayer
370
-1
48
1.0
60
0
100
AcDbLine
10
-2609.99999999989
20
-55.0000000000582
30
0.0
11
-140.000000000295
21
-55.0000000000291
31
0.0
39
0.0
210
0.0
220
0.0
230
1.0
0
LINE
5
31
330
22
100
AcDbEntity
8
\U+7C97\U+5B9E\U+7EBF\U+5C42
62
256
6
ByLayer
370
-1
48
1.0
60
0
100
AcDbLine
10
0.000000000003638
20
-823.000000000029
30
0.0
11
0.0
21
-763.000000000029
31
0.0
39
0.0
210
0.0
220
0.0
230
1.0
0
LINE
5
32
330
22
100
AcDbEntity
8
\U+7C97\U+5B9E\U+7EBF\U+5C42
62
256
6
ByLayer
370
-1
48
1.0
60
0
100
AcDbLine
10
0.0
20
-63.0000000000291
30
0.0
11
0.0
21
-3.0000000000291
31
0.0
39
0.0
210
0.0
220
0.0
230
1.0
0
LINE
5
33
330
22
100
AcDbEntity
8
\U+865A\U+7EBF\U+5C42
62
256
6
ByLayer
370
-1
48
1.0
60
0
100
AcDbLine
10
-0.0000000002910387
20
-763.000000000029
30
0.0
11
-140.000000000291
21
-763.000000000029
31
0.0
39
0.0
210
0.0
220
0.0
230
1.0
0
LINE
5
34
330
22
100
AcDbEntity
8
\U+865A\U+7EBF\U+5C42
62
256
6
ByLayer
370
-1
48
1.0
60
0
100
AcDbLine
10
-140.000000000291
20
-763.000000000029
30
0.0
11
-140.000000000291
21
-823.000000000029
31
0.0
39
0.0
210
0.0
220
0.0
230
1.0
0
LINE
5
35
330
22
100
AcDbEntity
8
\U+4E2D\U+5FC3\U+7EBF\U+5C42
62
256
6
\U+70B9\U+753B\U+7EBF
370
18
48
1.0
60
0
100
AcDbLine
10
-70.0000000002911
20
-826.000000000029
30
0.0
11
-70.000000000291
21
-760.000000000029
31
0.0
39
0.0
210
0.0
220
0.0
230
1.0
0
LINE
5
38
330
22
100
AcDbEntity
8
\U+865A\U+7EBF\U+5C42
62
256
6
ByLayer
370
-1
48
1.0
60
0
100
AcDbLine
10
-0.0000000002910387
20
-763.000000000029
30
0.0
11
-0.000000000291046
21
-823.000000000029
31
0.0
39
0.0
210
0.0
220
0.0
230
1.0
0
LINE
5
39
330
22
100
AcDbEntity
8
\U+865A\U+7EBF\U+5C42
62
256
6
ByLayer
370
-1
48
1.0
60
0
100
AcDbLine
10
-1.65107214004093
20
-823.000000000029
30
0.0
11
-0.000000000291046
21
-823.000000000029
31
0.0
39
0.0
210
0.0
220
0.0
230
1.0
0
ARC
5
3A
330
22
100
AcDbEntity
8
\U+865A\U+7EBF\U+5C42
62
256
6
ByLayer
370
-1
48
1.0
60
0
100
AcDbCircle
39
0.0
10
-1.65107214004093
20
-817.200000000029
30
0.0
40
5.8
210
0.0
220
0.0
230
1.0
100
AcDbArc
50
185.7105931375
51
270.0
0
LINE
5
3B
330
22
100
AcDbEntity
8
\U+865A\U+7EBF\U+5C42
62
256
6
ByLayer
370
-1
48
1.0
60
0
100
AcDbLine
10
-7.42228784325881
20
-817.777121570351
30
0.0
11
-11.2445285333611
21
-779.55471466933
31
0.0
39
0.0
210
0.0
220
0.0
230
1.0
0
LINE
5
3C
330
22
100
AcDbEntity
8
\U+865A\U+7EBF\U+5C42
62
256
6
ByLayer
370
-1
48
1.0
60
0
100
AcDbLine
10
-20.6973818403558
20
-771.000000000029
30
0.0
11
-119.302618160226
21
-771.000000000029
31
0.0
39
0.0
210
0.0
220
0.0
230
1.0
0
LINE
5
3D
330
22
100
AcDbEntity
8
\U+865A\U+7EBF\U+5C42
62
256
6
ByLayer
370
-1
48
1.0
60
0
100
AcDbLine
10
-138.348927860541
20
-823.000000000029
30
0.0
11
-140.000000000291
21
-823.000000000029
31
0.0
39
0.0
210
0.0
220
0.0
230
1.0
0
ARC
5
3E
330
22
100
AcDbEntity
8
\U+865A\U+7EBF\U+5C42
62
256
6
ByLayer
370
-1
48
1.0
60
0
100
AcDbCircle
39
0.0
10
-138.348927860541
20
-817.200000000029
30
0.0
40
5.8
210
0.0
220
0.0
230
1.0
100
AcDbArc
50
270.0
51
354.289406862501
0
LINE
5
3F
330
22
100
AcDbEntity
8
\U+865A\U+7EBF\U+5C42
62
256
6
ByLayer
370
-1
48
1.0
60
0
100
AcDbLine
10
-128.755471467221
20
-779.55471466933
30
0.0
11
-132.577712157323
21
-817.777121570351
31
0.0
39
0.0
210
0.0
220
0.0
230
1.0
0
ARC
5
40
330
22
100
AcDbEntity
8
\U+865A\U+7EBF\U+5C42
62
256
6
ByLayer
370
-1
48
1.0
60
0
100
AcDbCircle
39
0.0
10
-20.6973818403558
20
-780.500000000029
30
0.0
40
9.50000000000001
210
0.0
220
0.0
230
1.0
100
AcDbArc
50
5.7105931374997
51
90.0
0
ARC
5
41
330
22
100
AcDbEntity
8
\U+865A\U+7EBF\U+5C42
62
256
6
ByLayer
370
-1
48
1.0
60
0
100
AcDbCircle
39
0.0
10
-119.302618160226
20
-780.500000000029
30
0.0
40
9.5
210
0.0
220
0.0
230
1.0
100
AcDbArc
50
90.0
51
174.2894068625
0
LINE
5
42
330
22
100
AcDbEntity
8
\U+865A\U+7EBF\U+5C42
62
256
6
ByLayer
370
-1
48
1.0
60
0
100
AcDbLine
10
-0.0000000002946763
20
-63.0000000000144
30
0.0
11
-140.000000000294
21
-63.0000000000144
31
0.0
39
0.0
210
0.0
220
0.0
230
1.0
0
LINE
5
43
330
22
100
AcDbEntity
8
\U+865A\U+7EBF\U+5C42
62
256
6
ByLayer
370
-1
48
1.0
60
0
100
AcDbLine
10
-140.000000000294
20
-63.0000000000144
30
0.0
11
-140.000000000294
21
-3.00000000001446
31
0.0
39
0.0
210
0.0
220
0.0
230
1.0
0
LINE
5
44
330
22
100
AcDbEntity
8
\U+4E2D\U+5FC3\U+7EBF\U+5C42
62
256
6
\U+70B9\U+753B\U+7EBF
370
18
48
1.0
60
0
100
AcDbLine
10
-70.0000000002947
20
-0.0000000000144524
30
0.0
11
-70.0000000002947
21
-66.0000000000144
31
0.0
39
0.0
210
0.0
220
0.0
230
1.0
0
LINE
5
45
330
22
100
AcDbEntity
8
\U+865A\U+7EBF\U+5C42
62
256
6
ByLayer
370
-1
48
1.0
60
0
100
AcDbLine
10
-0.0000000002946763
20
-63.0000000000144
30
0.0
11
-0.0000000002946763
21
-3.00000000001446
31
0.0
39
0.0
210
0.0
220
0.0
230
1.0
0
LINE
5
46
330
22
100
AcDbEntity
8
\U+865A\U+7EBF\U+5C42
62
256
6
ByLayer
370
-1
48
1.0
60
0
100
AcDbLine
10
-1.65107214004456
20
-3.00000000001446
30
0.0
11
-0.0000000002946763
21
-3.00000000001446
31
0.0
39
0.0
210
0.0
220
0.0
230
1.0
0
ELLIPSE
5
47
330
22
100
AcDbEntity
8
\U+865A\U+7EBF\U+5C42
62
256
6
ByLayer
370
-1
48
1.0
60
0
100
AcDbEllipse
10
-1.65107214004456
20
-8.80000000001441
30
0.0
11
5.8
21
0.0
31
0.0
210
0.0
220
0.0
230
1.0
40
0.999999999999999
41
1.5707963267949
42
3.04192400109863
0
LINE
5
48
330
22
100
AcDbEntity
8
\U+865A\U+7EBF\U+5C42
62
256
6
ByLayer
370
-1
48
1.0
60
0
100
AcDbLine
10
-7.42228784326244
20
-8.22287842969265
30
0.0
11
-11.2445285333647
21
-46.4452853307139
31
0.0
39
0.0
210
0.0
220
0.0
230
1.0
0
LINE
5
49
330
22
100
AcDbEntity
8
\U+865A\U+7EBF\U+5C42
62
256
6
ByLayer
370
-1
48
1.0
60
0
100
AcDbLine
10
-20.6973818403594
20
-55.0000000000144
30
0.0
11
-119.30261816023
21
-55.0000000000144
31
0.0
39
0.0
210
0.0
220
0.0
230
1.0
0
LINE
5
4A
330
22
100
AcDbEntity
8
\U+865A\U+7EBF\U+5C42
62
256
6
ByLayer
370
-1
48
1.0
60
0
100
AcDbLine
10
-138.348927860545
20
-3.00000000001446
30
0.0
11
-140.000000000294
21
-3.00000000001446
31
0.0
39
0.0
210
0.0
220
0.0
230
1.0
0
ELLIPSE
5
4B
330
22
100
AcDbEntity
8
\U+865A\U+7EBF\U+5C42
62
256
6
ByLayer
370
-1
48
1.0
60
0
100
AcDbEllipse
10
-138.348927860545
20
-8.80000000001441
30
0.0
11
4.19329904212101
21
-4.00702422545079
31
0.0
210
0.0
220
0.0
230
1.0
40
0.999999999999947
41
0.86235517617783
42
2.33348285048153
0
LINE
5
4C
330
22
100
AcDbEntity
8
\U+865A\U+7EBF\U+5C42
62
256
6
ByLayer
370
-1
48
1.0
60
0
100
AcDbLine
10
-128.755471467225
20
-46.4452853307139
30
0.0
11
-132.577712157327
21
-8.22287842969265
31
0.0
39
0.0
210
0.0
220
0.0
230
1.0
0
ELLIPSE
5
4D
330
22
100
AcDbEntity
8
\U+865A\U+7EBF\U+5C42
62
256
6
ByLayer
370
-1
48
1.0
60
0
100
AcDbEllipse
10
-20.6973818403594
20
-45.5000000000144
30
0.0
11
9.50000000000001
21
0.0
31
0.0
210
0.0
220
0.0
230
1.0
40
1.0
41
-1.5707963267949
42
-0.099668652491163
0
ELLIPSE
5
4E
330
22
100
AcDbEntity
8
\U+865A\U+7EBF\U+5C42
62
256
6
ByLayer
370
-1
48
1.0
60
0
100
AcDbEllipse
10
-119.30261816023
20
-45.5000000000144
30
0.0
11
6.67294243021384
21
-6.76179261165628
31
0.0
210
0.0
220
0.0
230
1.0
40
0.99999999999997
41
-2.24991246677687
42
-0.77878479247317
0
LINE
5
4F
330
22
100
AcDbEntity
8
\U+865A\U+7EBF\U+5C42
62
256
6
ByLayer
370
-1
48
0.5
60
0
100
AcDbLine
10
-764.99999999992
20
-763.000000000142
30
0.0
11
-764.99999999992
21
-63.0000000001146
31
0.0
39
0.0
210
0.0
220
0.0
230
1.0
0
LINE
5
50
330
22
100
AcDbEntity
8
\U+7C97\U+5B9E\U+7EBF\U+5C42
62
256
6
ByLayer
370
-1
48
1.0
60
0
100
AcDbLine
10
-514.999999999927
20
-63.0000000001273
30
0.0
11
-514.999999999927
21
-763.000000000142
31
0.0
39
0.0
210
0.0
220
0.0
230
1.0
0
LINE
5
51
330
22
100
AcDbEntity
8
\U+7C97\U+5B9E\U+7EBF\U+5C42
62
256
6
ByLayer
370
-1
48
1.0
60
0
100
AcDbLine
10
-514.999999999927
20
-763.000000000142
30
0.0
11
-719.999999999898
21
-763.000000000142
31
0.0
39
0.0
210
0.0
220
0.0
230
1.0
0
LINE
5
52
330
22
100
AcDbEntity
8
\U+865A\U+7EBF\U+5C42
62
256
6
ByLayer
370
-1
48
1.0
60
0
100
AcDbLine
10
-719.999999999898
20
-763.000000000142
30
0.0
11
-764.99999999992
21
-763.000000000142
31
0.0
39
0.0
210
0.0
220
0.0
230
1.0
0
LINE
5
53
330
22
100
AcDbEntity
8
\U+865A\U+7EBF\U+5C42
62
256
6
ByLayer
370
-1
48
1.0
60
0
100
AcDbLine
10
-764.99999999992
20
-63.0000000001146
30
0.0
11
-719.999999999898
21
-63.0000000001164
31
0.0
39
0.0
210
0.0
220
0.0
230
1.0
0
LINE
5
54
330
22
100
AcDbEntity
8
\U+7C97\U+5B9E\U+7EBF\U+5C42
62
256
6
ByLayer
370
-1
48
1.0
60
0
100
AcDbLine
10
-719.999999999898
20
-63.0000000001164
30
0.0
11
-514.999999999927
21
-63.0000000001273
31
0.0
39
0.0
210
0.0
220
0.0
230
1.0
0
LINE
5
55
330
22
100
AcDbEntity
8
AM_8
62
256
6
ByLayer
370
-1
48
1.0
60
0
100
AcDbLine
10
-705.974143073405
20
-556.462660206066
30
0.0
11
-690.237783660952
21
-570.124920920188
31
0.0
39
0.0
210
0.0
220
-0.0
230
-1.0
0
LINE
5
57
330
22
100
AcDbEntity
8
AM_8
62
256
6
ByLayer
370
-1
48
1.0
60
0
100
AcDbLine
10
-700.176123782881
20
-511.040716475008
30
0.0
11
-676.201163665221
21
-531.855705962224
31
0.0
39
0.0
210
0.0
220
-0.0
230
-1.0
0
LINE
5
58
330
22
100
AcDbEntity
8
AM_8
62
256
6
ByLayer
370
-1
48
1.0
60
0
100
AcDbLine
10
-680.448398995616
20
-507.689938179742
30
0.0
11
-739.927869402238
21
-576.199121511141
31
0.0
39
0.0
210
0.0
220
-0.0
230
-1.0
0
LINE
5
59
330
22
100
AcDbEntity
8
AM_8
62
256
6
ByLayer
370
-1
48
1.0
60
0
100
AcDbLine
10
-660.683805873983
20
-504.296694485041
30
0.0
11
-721.388337038486
21
-574.21691781852
31
0.0
39
0.0
210
0.0
220
-0.0
230
-1.0
0
LINE
5
5A
330
22
100
AcDbEntity
8
AM_8
62
256
6
ByLayer
370
-1
48
1.0
60
0
100
AcDbLine
10
-640.250384431477
20
-500.133086129318
30
0.0
11
-702.438186739417
21
-571.761759353269
31
0.0
39
0.0
210
0.0
220
-0.0
230
-1.0
0
LINE
5
5B
330
22
100
AcDbEntity
8
AM_8
62
256
6
ByLayer
370
-1
48
1.0
60
0
100
AcDbLine
10
-678.468179184357
20
-563.524667748755
30
0.0
11
-673.270664940881
21
-568.037134247407
31
0.0
39
0.0
210
0.0
220
-0.0
230
-1.0
0
LINE
5
5C
330
22
100
AcDbEntity
8
AM_8
62
256
6
ByLayer
370
-1
48
1.0
60
0
100
AcDbLine
10
-689.322151483647
20
-537.282692111898
30
0.0
11
-665.347191365927
21
-558.097681599139
31
0.0
39
0.0
210
0.0
220
-0.0
230
-1.0
0
LINE
5
5D
330
22
100
AcDbEntity
8
AM_8
62
256
6
ByLayer
370
-1
48
1.0
60
0
100
AcDbLine
10
-661.816187594599
20
-544.344699654587
30
0.0
11
-637.841227476881
21
-565.159689141798
31
0.0
39
0.0
210
0.0
220
-0.0
230
-1.0
0
LINE
5
5E
330
22
100
AcDbEntity
8
AM_8
62
256
6
ByLayer
370
-1
48
1.0
60
0
100
AcDbLine
10
-634.310223705551
20
-551.406707197276
30
0.0
11
-619.510017303286
21
-564.256202635801
31
0.0
39
0.0
210
0.0
220
-0.0
230
-1.0
0
LINE
5
5F
330
22
100
AcDbEntity
8
AM_8
62
256
6
ByLayer
370
-1
48
1.0
60
0
100
AcDbLine
10
-672.670159893833
20
-518.102724017697
30
0.0
11
-648.695199776113
21
-538.917713504938
31
0.0
39
0.0
210
0.0
220
-0.0
230
-1.0
0
LINE
5
60
330
22
100
AcDbEntity
8
AM_8
62
256
6
ByLayer
370
-1
48
1.0
60
0
100
AcDbLine
10
-606.804259816443
20
-558.468714739989
30
0.0
11
-605.192691183133
21
-559.867873862436
31
0.0
39
0.0
210
0.0
220
-0.0
230
-1.0
0
LINE
5
61
330
22
100
AcDbEntity
8
AM_8
62
256
6
ByLayer
370
-1
48
1.0
60
0
100
AcDbLine
10
-645.164196004783
20
-525.164731560415
30
0.0
11
-621.189235887063
21
-545.979721047656
31
0.0
39
0.0
210
0.0
220
-0.0
230
-1.0
0
LINE
5
62
330
22
100
AcDbEntity
8
AM_8
62
256
6
ByLayer
370
-1
48
1.0
60
0
100
AcDbLine
10
-667.778650794351
20
-505.530928776513
30
0.0
11
-659.549172075461
21
-512.675737868085
31
0.0
39
0.0
210
0.0
220
-0.0
230
-1.0
0
LINE
5
63
330
22
100
AcDbEntity
8
AM_8
62
256
6
ByLayer
370
-1
48
1.0
60
0
100
AcDbLine
10
-617.658232115735
20
-532.226739103103
30
0.0
11
-595.275959156556
21
-551.658962308356
31
0.0
39
0.0
210
0.0
220
-0.0
230
-1.0
0
LINE
5
64
330
22
100
AcDbEntity
8
AM_8
62
256
6
ByLayer
370
-1
48
1.0
60
0
100
AcDbLine
10
-651.768604790856
20
-502.612214400959
30
0.0
11
-632.043208186355
21
-519.73774541077
31
0.0
39
0.0
210
0.0
220
-0.0
230
-1.0
0
LINE
5
65
330
22
100
AcDbEntity
8
AM_8
62
256
6
ByLayer
370
-1
48
1.0
60
0
100
AcDbLine
10
-590.152268226629
20
-539.288746645788
30
0.0
11
-589.725144337173
21
-539.659574343842
31
0.0
39
0.0
210
0.0
220
-0.0
230
-1.0
0
LINE
5
66
330
22
100
AcDbEntity
8
AM_8
62
256
6
ByLayer
370
-1
48
1.0
60
0
100
AcDbLine
10
-628.512204415027
20
-505.984763466218
30
0.0
11
-604.537244297307
21
-526.799752953458
31
0.0
39
0.0
210
0.0
220
-0.0
230
-1.0
0
LINE
5
67
330
22
100
AcDbEntity
8
AM_8
62
256
6
ByLayer
370
-1
48
1.0
60
0
100
AcDbLine
10
-601.006240525977
20
-513.046771008935
30
0.0
11
-591.228412553194
21
-521.535852344693
31
0.0
39
0.0
210
0.0
220
-0.0
230
-1.0
0
LINE
5
68
330
22
100
AcDbEntity
8
AM_8
62
256
6
ByLayer
370
-1
48
1.0
60
0
100
AcDbLine
10
-619.650570841699
20
-496.859818554645
30
0.0
11
-615.391216596539
21
-500.557777316598
31
0.0
39
0.0
210
0.0
220
-0.0
230
-1.0
0
LINE
5
69
330
22
100
AcDbEntity
8
AM_8
62
256
6
ByLayer
370
-1
48
1.0
60
0
100
AcDbLine
10
-620.639301554708
20
-496.916657416879
30
0.0
11
-683.435401763911
21
-569.245975622215
31
0.0
39
0.0
210
0.0
220
-0.0
230
-1.0
0
LINE
5
6A
330
22
100
AcDbEntity
8
AM_8
62
256
6
ByLayer
370
-1
48
1.0
60
0
100
AcDbLine
10
-605.457814031234
20
-498.802290946523
30
0.0
11
-664.80281328938
21
-567.156588760301
31
0.0
39
0.0
210
0.0
220
-0.0
230
-1.0
0
LINE
5
6B
330
22
100
AcDbEntity
8
AM_8
62
256
6
ByLayer
370
-1
48
1.0
60
0
100
AcDbLine
10
-596.366332291474
20
-507.702467811553
30
0.0
11
-646.798955940199
21
-565.791382117821
31
0.0
39
0.0
210
0.0
220
-0.0
230
-1.0
0
LINE
5
6C
330
22
100
AcDbEntity
8
AM_8
62
256
6
ByLayer
370
-1
48
1.0
60
0
100
AcDbLine
10
-591.29116582927
20
-521.228685859839
30
0.0
11
-629.256957367252
21
-564.958150076869
31
0.0
39
0.0
210
0.0
220
-0.0
230
-1.0
0
LINE
5
6D
330
22
100
AcDbEntity
8
AM_8
62
256
6
ByLayer
370
-1
48
1.0
60
0
100
AcDbLine
10
-589.59282593167
20
-538.644374150764
30
0.0
11
-609.926917533507
21
-562.065430187438
31
0.0
39
0.0
210
0.0
220
-0.0
230
-1.0
0
LINE
5
6E
330
22
100
AcDbEntity
8
AM_8
62
256
6
ByLayer
370
-1
48
1.0
60
0
100
AcDbLine
10
-848.485950205599
20
-550.464453470518
30
0.0
11
-836.180993990866
21
-561.147580073928
31
0.0
39
0.0
210
0.0
220
-0.0
230
-1.0
0
LINE
5
6F
330
22
100
AcDbEntity
8
AM_8
62
256
6
ByLayer
370
-1
48
1.0
60
0
100
AcDbLine
10
-832.649990219478
20
-547.394598129401
30
0.0
11
-808.675030101758
21
-568.209587616641
31
0.0
39
0.0
210
0.0
220
-0.0
230
-1.0
0
LINE
5
70
330
22
100
AcDbEntity
8
AM_8
62
256
6
ByLayer
370
-1
48
1.0
60
0
100
AcDbLine
10
-857.216864459327
20
-526.0657105515
30
0.0
11
-847.034966290156
21
-534.905604437071
31
0.0
39
0.0
210
0.0
220
-0.0
230
-1.0
0
LINE
5
71
330
22
100
AcDbEntity
8
AM_8
62
256
6
ByLayer
370
-1
48
1.0
60
0
100
AcDbLine
10
-805.144026330428
20
-554.456605672118
30
0.0
11
-781.16906621271
21
-575.27159515933
31
0.0
39
0.0
210
0.0
220
-0.0
230
-1.0
0
LINE
5
72
330
22
100
AcDbEntity
8
AM_8
62
256
6
ByLayer
370
-1
48
1.0
60
0
100
AcDbLine
10
-843.503962518768
20
-521.152622492544
30
0.0
11
-819.529002401108
21
-541.96761197976
31
0.0
39
0.0
210
0.0
220
-0.0
230
-1.0
0
LINE
5
73
330
22
100
AcDbEntity
8
AM_8
62
256
6
ByLayer
370
-1
48
1.0
60
0
100
AcDbLine
10
-777.63806244138
20
-561.518613214807
30
0.0
11
-759.305424136712
21
-577.434955586628
31
0.0
39
0.0
210
0.0
220
-0.0
230
-1.0
0
LINE
5
74
330
22
100
AcDbEntity
8
AM_8
62
256
6
ByLayer
370
-1
48
1.0
60
0
100
AcDbLine
10
-815.99799862972
20
-528.214630035233
30
0.0
11
-792.023038511997
21
-549.029619522502
31
0.0
39
0.0
210
0.0
220
-0.0
230
-1.0
0
LINE
5
75
330
22
100
AcDbEntity
8
AM_8
62
256
6
ByLayer
370
-1
48
1.0
60
0
100
AcDbLine
10
-842.930985429017
20
-504.831490529124
30
0.0
11
-830.38297470034
21
-515.725636342899
31
0.0
39
0.0
210
0.0
220
-0.0
230
-1.0
0
LINE
5
76
330
22
100
AcDbEntity
8
AM_8
62
256
6
ByLayer
370
-1
48
1.0
60
0
100
AcDbLine
10
-750.132098552272
20
-568.580620757521
30
0.0
11
-741.227145507068
21
-576.311874662072
31
0.0
39
0.0
210
0.0
220
-0.0
230
-1.0
0
LINE
5
77
330
22
100
AcDbEntity
8
AM_8
62
256
6
ByLayer
370
-1
48
1.0
60
0
100
AcDbLine
10
-788.49203474067
20
-535.27663757795
30
0.0
11
-764.517074622891
21
-556.091627065187
31
0.0
39
0.0
210
0.0
220
-0.0
230
-1.0
0
LINE
5
78
330
22
100
AcDbEntity
8
AM_8
62
256
6
ByLayer
370
-1
48
1.0
60
0
100
AcDbLine
10
-826.851970928952
20
-501.972654398372
30
0.0
11
-802.877010811291
21
-522.787643885588
31
0.0
39
0.0
210
0.0
220
-0.0
230
-1.0
0
LINE
5
79
330
22
100
AcDbEntity
8
AM_8
62
256
6
ByLayer
370
-1
48
1.0
60
0
100
AcDbLine
10
-760.986070851622
20
-542.338645120639
30
0.0
11
-737.011110733901
21
-563.15363460788
31
0.0
39
0.0
210
0.0
220
-0.0
230
-1.0
0
LINE
5
7A
330
22
100
AcDbEntity
8
AM_8
62
256
6
ByLayer
370
-1
48
1.0
60
0
100
AcDbLine
10
-799.346007039904
20
-509.034661941061
30
0.0
11
-775.371046922183
21
-529.849651428301
31
0.0
39
0.0
210
0.0
220
-0.0
230
-1.0
0
LINE
5
7B
330
22
100
AcDbEntity
8
AM_8
62
256
6
ByLayer
370
-1
48
1.0
60
0
100
AcDbLine
10
-817.48298979021
20
-493.28818714304
30
0.0
11
-813.730983110582
21
-496.545668248731
31
0.0
39
0.0
210
0.0
220
-0.0
230
-1.0
0
LINE
5
7C
330
22
100
AcDbEntity
8
AM_8
62
256
6
ByLayer
370
-1
48
1.0
60
0
100
AcDbLine
10
-733.480106962455
20
-549.400652663349
30
0.0
11
-709.505146844795
21
-570.215642150564
31
0.0
39
0.0
210
0.0
220
-0.0
230
-1.0
0
LINE
5
7D
330
22
100
AcDbEntity
8
AM_8
62
256
6
ByLayer
370
-1
48
1.0
60
0
100
AcDbLine
10
-771.840043150854
20
-516.096669483778
30
0.0
11
-747.865083033135
21
-536.91165897099
31
0.0
39
0.0
210
0.0
220
-0.0
230
-1.0
0
LINE
5
7E
330
22
100
AcDbEntity
8
AM_8
62
256
6
ByLayer
370
-1
48
1.0
60
0
100
AcDbLine
10
-801.370080792897
20
-490.458778114691
30
0.0
11
-786.225019221475
21
-503.607675791416
31
0.0
39
0.0
210
0.0
220
-0.0
230
-1.0
0
LINE
5
7F
330
22
100
AcDbEntity
8
AM_8
62
256
6
ByLayer
370
-1
48
1.0
60
0
100
AcDbLine
10
-744.334079261806
20
-523.158677026467
30
0.0
11
-720.359119144085
21
-543.973666513708
31
0.0
39
0.0
210
0.0
220
-0.0
230
-1.0
0
LINE
5
80
330
22
100
AcDbEntity
8
AM_8
62
256
6
ByLayer
370
-1
48
1.0
60
0
100
AcDbLine
10
-782.694015450146
20
-489.854693846893
30
0.0
11
-758.719055332365
21
-510.669683334158
31
0.0
39
0.0
210
0.0
220
-0.0
230
-1.0
0
LINE
5
81
330
22
100
AcDbEntity
8
AM_8
62
256
6
ByLayer
370
-1
48
1.0
60
0
100
AcDbLine
10
-716.828115372697
20
-530.220684569181
30
0.0
11
-692.853155255035
21
-551.035674056425
31
0.0
39
0.0
210
0.0
220
-0.0
230
-1.0
0
LINE
5
82
330
22
100
AcDbEntity
8
AM_8
62
256
6
ByLayer
370
-1
48
1.0
60
0
100
AcDbLine
10
-755.188051561039
20
-496.916701389577
30
0.0
11
-731.213091443319
21
-517.731690876818
31
0.0
39
0.0
210
0.0
220
-0.0
230
-1.0
0
LINE
5
83
330
22
100
AcDbEntity
8
AM_8
62
256
6
ByLayer
370
-1
48
1.0
60
0
100
AcDbLine
10
-727.682087671987
20
-503.978708932324
30
0.0
11
-703.707127554269
21
-524.793698419536
31
0.0
39
0.0
210
0.0
220
-0.0
230
-1.0
0
LINE
5
84
330
22
100
AcDbEntity
8
AM_8
62
256
6
ByLayer
370
-1
48
1.0
60
0
100
AcDbLine
10
-819.88162619372
20
-493.944125864306
30
0.0
11
-856.344453308139
21
-535.942457229407
31
0.0
39
0.0
210
0.0
220
-0.0
230
-1.0
0
LINE
5
85
330
22
100
AcDbEntity
8
AM_8
62
256
6
ByLayer
370
-1
48
1.0
60
0
100
AcDbLine
10
-799.916687992343
20
-490.320122250129
30
0.0
11
-850.197618532153
21
-548.234314573476
31
0.0
39
0.0
210
0.0
220
-0.0
230
-1.0
0
LINE
5
86
330
22
100
AcDbEntity
8
AM_8
62
256
6
ByLayer
370
-1
48
1.0
60
0
100
AcDbLine
10
-782.684820759159
20
-489.844103289041
30
0.0
11
-841.561230435766
21
-557.658673877116
31
0.0
39
0.0
210
0.0
220
-0.0
230
-1.0
0
LINE
5
87
330
22
100
AcDbEntity
8
AM_8
62
256
6
ByLayer
370
-1
48
1.0
60
0
100
AcDbLine
10
-766.630678681559
20
-490.724602603176
30
0.0
11
-831.289257378374
21
-565.19914636759
31
0.0
39
0.0
210
0.0
220
-0.0
230
-1.0
0
LINE
5
88
330
22
100
AcDbEntity
8
AM_8
62
256
6
ByLayer
370
-1
48
1.0
60
0
100
AcDbLine
10
-752.289579948711
20
-493.578206246456
30
0.0
11
-819.381086088608
21
-570.85502567154
31
0.0
39
0.0
210
0.0
220
-0.0
230
-1.0
0
LINE
5
89
330
22
100
AcDbEntity
8
AM_8
62
256
6
ByLayer
370
-1
48
1.0
60
0
100
AcDbLine
10
-739.303957545124
20
-497.993064146106
30
0.0
11
-805.666190981062
21
-574.429898328739
31
0.0
39
0.0
210
0.0
220
-0.0
230
-1.0
0
LINE
5
8A
330
22
100
AcDbEntity
8
AM_8
62
256
6
ByLayer
370
-1
48
1.0
60
0
100
AcDbLine
10
-726.549796858299
20
-502.674522489228
30
0.0
11
-790.513798366189
21
-576.349043730894
31
0.0
39
0.0
210
0.0
220
-0.0
230
-1.0
0
LINE
5
8B
330
22
100
AcDbEntity
8
AM_8
62
256
6
ByLayer
370
-1
48
1.0
60
0
100
AcDbLine
10
-713.064143136149
20
-506.513438185069
30
0.0
11
-774.644217678104
21
-577.442123116469
31
0.0
39
0.0
210
0.0
220
-0.0
230
-1.0
0
LINE
5
8C
330
22
100
AcDbEntity
8
AM_8
62
256
6
ByLayer
370
-1
48
1.0
60
0
100
AcDbLine
10
-697.983506597161
20
-508.515233115308
30
0.0
11
-757.768924671499
21
-577.376810721809
31
0.0
39
0.0
210
0.0
220
-0.0
230
-1.0
0
LINE
5
8D
330
22
100
AcDbEntity
8
AM_8
62
256
6
ByLayer
370
-1
48
1.0
60
0
100
AcDbLine
10
-1193.97414307342
20
-556.462660206081
30
0.0
11
-1178.23778366097
21
-570.124920920202
31
0.0
39
0.0
210
0.0
220
-0.0
230
-1.0
0
LINE
5
8E
330
22
100
AcDbEntity
8
AM_8
62
256
6
ByLayer
370
-1
48
1.0
60
0
100
AcDbLine
10
-1188.1761237829
20
-511.040716475023
30
0.0
11
-1164.20116366524
21
-531.855705962239
31
0.0
39
0.0
210
0.0
220
-0.0
230
-1.0
0
LINE
5
8F
330
22
100
AcDbEntity
8
AM_8
62
256
6
ByLayer
370
-1
48
1.0
60
0
100
AcDbLine
10
-1168.44839899563
20
-507.689938179757
30
0.0
11
-1227.92786940225
21
-576.199121511156
31
0.0
39
0.0
210
0.0
220
-0.0
230
-1.0
0
LINE
5
90
330
22
100
AcDbEntity
8
AM_8
62
256
6
ByLayer
370
-1
48
1.0
60
0
100
AcDbLine
10
-1148.683805874
20
-504.296694485055
30
0.0
11
-1209.3883370385
21
-574.216917818535
31
0.0
39
0.0
210
0.0
220
-0.0
230
-1.0
0
LINE
5
91
330
22
100
AcDbEntity
8
AM_8
62
256
6
ByLayer
370
-1
48
1.0
60
0
100
AcDbLine
10
-1128.25038443149
20
-500.133086129332
30
0.0
11
-1190.43818673943
21
-571.761759353283
31
0.0
39
0.0
210
0.0
220
-0.0
230
-1.0
0
LINE
5
92
330
22
100
AcDbEntity
8
AM_8
62
256
6
ByLayer
370
-1
48
1.0
60
0
100
AcDbLine
10
-1166.46817918437
20
-563.524667748769
30
0.0
11
-1161.2706649409
21
-568.037134247422
31
0.0
39
0.0
210
0.0
220
-0.0
230
-1.0
0
LINE
5
93
330
22
100
AcDbEntity
8
AM_8
62
256
6
ByLayer
370
-1
48
1.0
60
0
100
AcDbLine
10
-1177.32215148366
20
-537.282692111913
30
0.0
11
-1153.34719136594
21
-558.097681599153
31
0.0
39
0.0
210
0.0
220
-0.0
230
-1.0
0
LINE
5
94
330
22
100
AcDbEntity
8
AM_8
62
256
6
ByLayer
370
-1
48
1.0
60
0
100
AcDbLine
10
-1149.81618759461
20
-544.344699654601
30
0.0
11
-1125.8412274769
21
-565.159689141813
31
0.0
39
0.0
210
0.0
220
-0.0
230
-1.0
0
LINE
5
95
330
22
100
AcDbEntity
8
AM_8
62
256
6
ByLayer
370
-1
48
1.0
60
0
100
AcDbLine
10
-1122.31022370557
20
-551.40670719729
30
0.0
11
-1107.5100173033
21
-564.256202635816
31
0.0
39
0.0
210
0.0
220
-0.0
230
-1.0
0
LINE
5
96
330
22
100
AcDbEntity
8
AM_8
62
256
6
ByLayer
370
-1
48
1.0
60
0
100
AcDbLine
10
-1160.67015989385
20
-518.102724017712
30
0.0
11
-1136.69519977613
21
-538.917713504952
31
0.0
39
0.0
210
0.0
220
-0.0
230
-1.0
0
LINE
5
97
330
22
100
AcDbEntity
8
AM_8
62
256
6
ByLayer
370
-1
48
1.0
60
0
100
AcDbLine
10
-1094.80425981646
20
-558.468714740004
30
0.0
11
-1093.19269118315
21
-559.86787386245
31
0.0
39
0.0
210
0.0
220
-0.0
230
-1.0
0
LINE
5
98
330
22
100
AcDbEntity
8
AM_8
62
256
6
ByLayer
370
-1
48
1.0
60
0
100
AcDbLine
10
-1133.1641960048
20
-525.164731560429
30
0.0
11
-1109.18923588708
21
-545.97972104767
31
0.0
39
0.0
210
0.0
220
-0.0
230
-1.0
0
LINE
5
99
330
22
100
AcDbEntity
8
AM_8
62
256
6
ByLayer
370
-1
48
1.0
60
0
100
AcDbLine
10
-1155.77865079437
20
-505.530928776528
30
0.0
11
-1147.54917207548
21
-512.6757378681
31
0.0
39
0.0
210
0.0
220
-0.0
230
-1.0
0
LINE
5
9A
330
22
100
AcDbEntity
8
AM_8
62
256
6
ByLayer
370
-1
48
1.0
60
0
100
AcDbLine
10
-1105.65823211575
20
-532.226739103118
30
0.0
11
-1083.27595915657
21
-551.65896230837
31
0.0
39
0.0
210
0.0
220
-0.0
230
-1.0
0
LINE
5
9B
330
22
100
AcDbEntity
8
AM_8
62
256
6
ByLayer
370
-1
48
1.0
60
0
100
AcDbLine
10
-1139.76860479087
20
-502.612214400973
30
0.0
11
-1120.04320818637
21
-519.737745410784
31
0.0
39
0.0
210
0.0
220
-0.0
230
-1.0
0
LINE
5
9C
330
22
100
AcDbEntity
8
AM_8
62
256
6
ByLayer
370
-1
48
1.0
60
0
100
AcDbLine
10
-1078.15226822664
20
-539.288746645803
30
0.0
11
-1077.72514433719
21
-539.659574343856
31
0.0
39
0.0
210
0.0
220
-0.0
230
-1.0
0
LINE
5
9D
330
22
100
AcDbEntity
8
AM_8
62
256
6
ByLayer
370
-1
48
1.0
60
0
100
AcDbLine
10
-1116.51220441504
20
-505.984763466232
30
0.0
11
-1092.53724429732
21
-526.799752953473
31
0.0
39
0.0
210
0.0
220
-0.0
230
-1.0
0
LINE
5
9E
330
22
100
AcDbEntity
8
AM_8
62
256
6
ByLayer
370
-1
48
1.0
60
0
100
AcDbLine
10
-1089.00624052599
20
-513.04677100895
30
0.0
11
-1079.22841255321
21
-521.535852344707
31
0.0
39
0.0
210
0.0
220
-0.0
230
-1.0
0
LINE
5
9F
330
22
100
AcDbEntity
8
AM_8
62
256
6
ByLayer
370
-1
48
1.0
60
0
100
AcDbLine
10
-1107.65057084171
20
-496.859818554659
30
0.0
11
-1103.39121659655
21
-500.557777316612
31
0.0
39
0.0
210
0.0
220
-0.0
230
-1.0
0
LINE
5
A0
330
22
100
AcDbEntity
8
AM_8
62
256
6
ByLayer
370
-1
48
1.0
60
0
100
AcDbLine
10
-1108.63930155472
20
-496.916657416893
30
0.0
11
-1171.43540176393
21
-569.24597562223
31
0.0
39
0.0
210
0.0
220
-0.0
230
-1.0
0
LINE
5
A1
330
22
100
AcDbEntity
8
AM_8
62
256
6
ByLayer
370
-1
48
1.0
60
0
100
AcDbLine
10
-1093.45781403125
20
-498.802290946538
30
0.0
11
-1152.80281328939
21
-567.156588760315
31
0.0
39
0.0
210
0.0
220
-0.0
230
-1.0
0
LINE
5
A2
330
22
100
AcDbEntity
8
AM_8
62
256
6
ByLayer
370
-1
48
1.0
60
0
100
AcDbLine
10
-1084.36633229149
20
-507.702467811568
30
0.0
11
-1134.79895594021
21
-565.791382117835
31
0.0
39
0.0
210
0.0
220
-0.0
230
-1.0
0
LINE
5
A3
330
22
100
AcDbEntity
8
AM_8
62
256
6
ByLayer
370
-1
48
1.0
60
0
100
AcDbLine
10
-1079.29116582928
20
-521.228685859853
30
0.0
11
-1117.25695736727
21
-564.958150076883
31
0.0
39
0.0
210
0.0
220
-0.0
230
-1.0
0
LINE
5
A4
330
22
100
AcDbEntity
8
AM_8
62
256
6
ByLayer
370
-1
48
1.0
60
0
100
AcDbLine
10
-1077.59282593168
20
-538.644374150778
30
0.0
11
-1097.92691753352
21
-562.065430187453
31
0.0
39
0.0
210
0.0
220
-0.0
230
-1.0
0
LINE
5
A5
330
22
100
AcDbEntity
8
AM_8
62
256
6
ByLayer
370
-1
48
1.0
60
0
100
AcDbLine
10
-1336.48595020561
20
-550.464453470532
30
0.0
11
-1324.18099399088
21
-561.147580073942
31
0.0
39
0.0
210
0.0
220
-0.0
230
-1.0
0
LINE
5
A6
330
22
100
AcDbEntity
8
AM_8
62
256
6
ByLayer
370
-1
48
1.0
60
0
100
AcDbLine
10
-1320.64999021949
20
-547.394598129415
30
0.0
11
-1296.67503010177
21
-568.209587616656
31
0.0
39
0.0
210
0.0
220
-0.0
230
-1.0
0
LINE
5
A7
330
22
100
AcDbEntity
8
AM_8
62
256
6
ByLayer
370
-1
48
1.0
60
0
100
AcDbLine
10
-1345.21686445934
20
-526.065710551514
30
0.0
11
-1335.03496629017
21
-534.905604437086
31
0.0
39
0.0
210
0.0
220
-0.0
230
-1.0
0
LINE
5
A8
330
22
100
AcDbEntity
8
AM_8
62
256
6
ByLayer
370
-1
48
1.0
60
0
100
AcDbLine
10
-1293.14402633044
20
-554.456605672133
30
0.0
11
-1269.16906621272
21
-575.271595159345
31
0.0
39
0.0
210
0.0
220
-0.0
230
-1.0
0
LINE
5
A9
330
22
100
AcDbEntity
8
AM_8
62
256
6
ByLayer
370
-1
48
1.0
60
0
100
AcDbLine
10
-1331.50396251878
20
-521.152622492559
30
0.0
11
-1307.52900240112
21
-541.967611979774
31
0.0
39
0.0
210
0.0
220
-0.0
230
-1.0
0
LINE
5
AA
330
22
100
AcDbEntity
8
AM_8
62
256
6
ByLayer
370
-1
48
1.0
60
0
100
AcDbLine
10
-1265.63806244139
20
-561.518613214821
30
0.0
11
-1247.30542413673
21
-577.434955586643
31
0.0
39
0.0
210
0.0
220
-0.0
230
-1.0
0
LINE
5
AB
330
22
100
AcDbEntity
8
AM_8
62
256
6
ByLayer
370
-1
48
1.0
60
0
100
AcDbLine
10
-1303.99799862973
20
-528.214630035247
30
0.0
11
-1280.02303851201
21
-549.029619522517
31
0.0
39
0.0
210
0.0
220
-0.0
230
-1.0
0
LINE
5
AC
330
22
100
AcDbEntity
8
AM_8
62
256
6
ByLayer
370
-1
48
1.0
60
0
100
AcDbLine
10
-1330.93098542903
20
-504.831490529138
30
0.0
11
-1318.38297470035
21
-515.725636342914
31
0.0
39
0.0
210
0.0
220
-0.0
230
-1.0
0
LINE
5
AD
330
22
100
AcDbEntity
8
AM_8
62
256
6
ByLayer
370
-1
48
1.0
60
0
100
AcDbLine
10
-1238.13209855229
20
-568.580620757535
30
0.0
11
-1229.22714550708
21
-576.311874662086
31
0.0
39
0.0
210
0.0
220
-0.0
230
-1.0
0
LINE
5
AE
330
22
100
AcDbEntity
8
AM_8
62
256
6
ByLayer
370
-1
48
1.0
60
0
100
AcDbLine
10
-1276.49203474068
20
-535.276637577965
30
0.0
11
-1252.51707462291
21
-556.091627065201
31
0.0
39
0.0
210
0.0
220
-0.0
230
-1.0
0
LINE
5
AF
330
22
100
AcDbEntity
8
AM_8
62
256
6
ByLayer
370
-1
48
1.0
60
0
100
AcDbLine
10
-1314.85197092897
20
-501.972654398387
30
0.0
11
-1290.87701081131
21
-522.787643885602
31
0.0
39
0.0
210
0.0
220
-0.0
230
-1.0
0
LINE
5
B0
330
22
100
AcDbEntity
8
AM_8
62
256
6
ByLayer
370
-1
48
1.0
60
0
100
AcDbLine
10
-1248.98607085164
20
-542.338645120654
30
0.0
11
-1225.01111073392
21
-563.153634607894
31
0.0
39
0.0
210
0.0
220
-0.0
230
-1.0
0
LINE
5
B1
330
22
100
AcDbEntity
8
AM_8
62
256
6
ByLayer
370
-1
48
1.0
60
0
100
AcDbLine
10
-1287.34600703992
20
-509.034661941075
30
0.0
11
-1263.3710469222
21
-529.849651428316
31
0.0
39
0.0
210
0.0
220
-0.0
230
-1.0
0
LINE
5
B2
330
22
100
AcDbEntity
8
AM_8
62
256
6
ByLayer
370
-1
48
1.0
60
0
100
AcDbLine
10
-1305.48298979022
20
-493.288187143054
30
0.0
11
-1301.7309831106
21
-496.545668248746
31
0.0
39
0.0
210
0.0
220
-0.0
230
-1.0
0
LINE
5
B3
330
22
100
AcDbEntity
8
AM_8
62
256
6
ByLayer
370
-1
48
1.0
60
0
100
AcDbLine
10
-1221.48010696247
20
-549.400652663363
30
0.0
11
-1197.50514684481
21
-570.215642150579
31
0.0
39
0.0
210
0.0
220
-0.0
230
-1.0
0
LINE
5
B4
330
22
100
AcDbEntity
8
AM_8
62
256
6
ByLayer
370
-1
48
1.0
60
0
100
AcDbLine
10
-1259.84004315087
20
-516.096669483793
30
0.0
11
-1235.86508303315
21
-536.911658971004
31
0.0
39
0.0
210
0.0
220
-0.0
230
-1.0
0
LINE
5
B5
330
22
100
AcDbEntity
8
AM_8
62
256
6
ByLayer
370
-1
48
1.0
60
0
100
AcDbLine
10
-1289.37008079291
20
-490.458778114706
30
0.0
11
-1274.22501922149
21
-503.60767579143
31
0.0
39
0.0
210
0.0
220
-0.0
230
-1.0
0
LINE
5
B6
330
22
100
AcDbEntity
8
AM_8
62
256
6
ByLayer
370
-1
48
1.0
60
0
100
AcDbLine
10
-1232.33407926182
20
-523.158677026482
30
0.0
11
-1208.3591191441
21
-543.973666513722
31
0.0
39
0.0
210
0.0
220
-0.0
230
-1.0
0
LINE
5
B7
330
22
100
AcDbEntity
8
AM_8
62
256
6
ByLayer
370
-1
48
1.0
60
0
100
AcDbLine
10
-1270.69401545016
20
-489.854693846907
30
0.0
11
-1246.71905533238
21
-510.669683334173
31
0.0
39
0.0
210
0.0
220
-0.0
230
-1.0
0
LINE
5
B8
330
22
100
AcDbEntity
8
AM_8
62
256
6
ByLayer
370
-1
48
1.0
60
0
100
AcDbLine
10
-1204.82811537271
20
-530.220684569195
30
0.0
11
-1180.85315525505
21
-551.03567405644
31
0.0
39
0.0
210
0.0
220
-0.0
230
-1.0
0
LINE
5
B9
330
22
100
AcDbEntity
8
AM_8
62
256
6
ByLayer
370
-1
48
1.0
60
0
100
AcDbLine
10
-1243.18805156105
20
-496.916701389592
30
0.0
11
-1219.21309144333
21
-517.731690876832
31
0.0
39
0.0
210
0.0
220
-0.0
230
-1.0
0
LINE
5
BA
330
22
100
AcDbEntity
8
AM_8
62
256
6
ByLayer
370
-1
48
1.0
60
0
100
AcDbLine
10
-1215.682087672
20
-503.978708932338
30
0.0
11
-1191.70712755428
21
-524.79369841955
31
0.0
39
0.0
210
0.0
220
-0.0
230
-1.0
0
LINE
5
BB
330
22
100
AcDbEntity
8
AM_8
62
256
6
ByLayer
370
-1
48
1.0
60
0
100
AcDbLine
10
-1307.88162619373
20
-493.944125864321
30
0.0
11
-1344.34445330815
21
-535.942457229422
31
0.0
39
0.0
210
0.0
220
-0.0
230
-1.0
0
LINE
5
BC
330
22
100
AcDbEntity
8
AM_8
62
256
6
ByLayer
370
-1
48
1.0
60
0
100
AcDbLine
10
-1287.91668799236
20
-490.320122250144
30
0.0
11
-1338.19761853217
21
-548.234314573491
31
0.0
39
0.0
210
0.0
220
-0.0
230
-1.0
0
LINE
5
BD
330
22
100
AcDbEntity
8
AM_8
62
256
6
ByLayer
370
-1
48
1.0
60
0
100
AcDbLine
10
-1270.68482075917
20
-489.844103289056
30
0.0
11
-1329.56123043578
21
-557.658673877131
31
0.0
39
0.0
210
0.0
220
-0.0
230
-1.0
0
LINE
5
BE
330
22
100
AcDbEntity
8
AM_8
62
256
6
ByLayer
370
-1
48
1.0
60
0
100
AcDbLine
10
-1254.63067868157
20
-490.724602603191
30
0.0
11
-1319.28925737839
21
-565.199146367604
31
0.0
39
0.0
210
0.0
220
-0.0
230
-1.0
0
LINE
5
BF
330
22
100
AcDbEntity
8
AM_8
62
256
6
ByLayer
370
-1
48
1.0
60
0
100
AcDbLine
10
-1240.28957994873
20
-493.57820624647
30
0.0
11
-1307.38108608862
21
-570.855025671555
31
0.0
39
0.0
210
0.0
220
-0.0
230
-1.0
0
LINE
5
C0
330
22
100
AcDbEntity
8
AM_8
62
256
6
ByLayer
370
-1
48
1.0
60
0
100
AcDbLine
10
-1227.30395754514
20
-497.993064146121
30
0.0
11
-1293.66619098108
21
-574.429898328754
31
0.0
39
0.0
210
0.0
220
-0.0
230
-1.0
0
LINE
5
C1
330
22
100
AcDbEntity
8
AM_8
62
256
6
ByLayer
370
-1
48
1.0
60
0
100
AcDbLine
10
-1214.54979685831
20
-502.674522489242
30
0.0
11
-1278.5137983662
21
-576.349043730909
31
0.0
39
0.0
210
0.0
220
-0.0
230
-1.0
0
LINE
5
C2
330
22
100
AcDbEntity
8
AM_8
62
256
6
ByLayer
370
-1
48
1.0
60
0
100
AcDbLine
10
-1201.06414313616
20
-506.513438185083
30
0.0
11
-1262.64421767812
21
-577.442123116484
31
0.0
39
0.0
210
0.0
220
-0.0
230
-1.0
0
LINE
5
C3
330
22
100
AcDbEntity
8
AM_8
62
256
6
ByLayer
370
-1
48
1.0
60
0
100
AcDbLine
10
-1185.98350659718
20
-508.515233115322
30
0.0
11
-1245.76892467151
21
-577.376810721824
31
0.0
39
0.0
210
0.0
220
-0.0
230
-1.0
0
LINE
5
C4
330
22
100
AcDbEntity
8
AM_8
62
256
6
ByLayer
370
-1
48
1.0
60
0
100
AcDbLine
10
-941.093000396416
20
-213.169403824294
30
0.0
11
-925.356640983962
21
-199.507143110172
31
0.0
39
0.0
210
0.0
220
0.0
230
1.0
0
LINE
5
C5
330
22
100
AcDbEntity
8
AM_8
62
256
6
ByLayer
370
-1
48
1.0
60
0
100
AcDbLine
10
-935.294981105892
20
-258.591347555352
30
0.0
11
-911.320020988231
21
-237.776358068136
31
0.0
39
0.0
210
0.0
220
0.0
230
1.0
0
LINE
5
C6
330
22
100
AcDbEntity
8
AM_8
62
256
6
ByLayer
370
-1
48
1.0
60
0
100
AcDbLine
10
-915.567256318627
20
-261.942125850618
30
0.0
11
-975.046726725248
21
-193.432942519219
31
0.0
39
0.0
210
0.0
220
0.0
230
1.0
0
LINE
5
C7
330
22
100
AcDbEntity
8
AM_8
62
256
6
ByLayer
370
-1
48
1.0
60
0
100
AcDbLine
10
-895.802663196994
20
-265.33536954532
30
0.0
11
-956.507194361496
21
-195.41514621184
31
0.0
39
0.0
210
0.0
220
0.0
230
1.0
0
LINE
5
C8
330
22
100
AcDbEntity
8
AM_8
62
256
6
ByLayer
370
-1
48
1.0
60
0
100
AcDbLine
10
-875.369241754487
20
-269.498977901042
30
0.0
11
-937.557044062427
21
-197.870304677091
31
0.0
39
0.0
210
0.0
220
0.0
230
1.0
0
LINE
5
C9
330
22
100
AcDbEntity
8
AM_8
62
256
6
ByLayer
370
-1
48
1.0
60
0
100
AcDbLine
10
-913.587036507368
20
-206.107396281605
30
0.0
11
-908.389522263891
21
-201.594929782953
31
0.0
39
0.0
210
0.0
220
0.0
230
1.0
0
LINE
5
CA
330
22
100
AcDbEntity
8
AM_8
62
256
6
ByLayer
370
-1
48
1.0
60
0
100
AcDbLine
10
-924.441008806658
20
-232.349371918462
30
0.0
11
-900.466048688937
21
-211.534382431221
31
0.0
39
0.0
210
0.0
220
0.0
230
1.0
0
LINE
5
CB
330
22
100
AcDbEntity
8
AM_8
62
256
6
ByLayer
370
-1
48
1.0
60
0
100
AcDbLine
10
-896.93504491761
20
-225.287364375773
30
0.0
11
-872.960084799891
21
-204.472374888562
31
0.0
39
0.0
210
0.0
220
0.0
230
1.0
0
LINE
5
CC
330
22
100
AcDbEntity
8
AM_8
62
256
6
ByLayer
370
-1
48
1.0
60
0
100
AcDbLine
10
-869.429081028562
20
-218.225356833085
30
0.0
11
-854.628874626297
21
-205.375861394559
31
0.0
39
0.0
210
0.0
220
0.0
230
1.0
0
LINE
5
CD
330
22
100
AcDbEntity
8
AM_8
62
256
6
ByLayer
370
-1
48
1.0
60
0
100
AcDbLine
10
-907.789017216844
20
-251.529340012663
30
0.0
11
-883.814057099123
21
-230.714350525422
31
0.0
39
0.0
210
0.0
220
0.0
230
1.0
0
LINE
5
CE
330
22
100
AcDbEntity
8
AM_8
62
256
6
ByLayer
370
-1
48
1.0
60
0
100
AcDbLine
10
-841.923117139453
20
-211.163349290371
30
0.0
11
-840.311548506143
21
-209.764190167925
31
0.0
39
0.0
210
0.0
220
0.0
230
1.0
0
LINE
5
CF
330
22
100
AcDbEntity
8
AM_8
62
256
6
ByLayer
370
-1
48
1.0
60
0
100
AcDbLine
10
-880.283053327793
20
-244.467332469945
30
0.0
11
-856.308093210073
21
-223.652342982705
31
0.0
39
0.0
210
0.0
220
0.0
230
1.0
0
LINE
5
D0
330
22
100
AcDbEntity
8
AM_8
62
256
6
ByLayer
370
-1
48
1.0
60
0
100
AcDbLine
10
-902.897508117361
20
-264.101135253847
30
0.0
11
-894.668029398471
21
-256.956326162275
31
0.0
39
0.0
210
0.0
220
0.0
230
1.0
0
LINE
5
D1
330
22
100
AcDbEntity
8
AM_8
62
256
6
ByLayer
370
-1
48
1.0
60
0
100
AcDbLine
10
-852.777089438746
20
-237.405324927257
30
0.0
11
-830.394816479566
21
-217.973101722005
31
0.0
39
0.0
210
0.0
220
0.0
230
1.0
0
LINE
5
D2
330
22
100
AcDbEntity
8
AM_8
62
256
6
ByLayer
370
-1
48
1.0
60
0
100
AcDbLine
10
-886.887462113867
20
-267.019849629401
30
0.0
11
-867.162065509365
21
-249.89431861959
31
0.0
39
0.0
210
0.0
220
0.0
230
1.0
0
LINE
5
D3
330
22
100
AcDbEntity
8
AM_8
62
256
6
ByLayer
370
-1
48
1.0
60
0
100
AcDbLine
10
-825.271125549639
20
-230.343317384572
30
0.0
11
-824.844001660184
21
-229.972489686519
31
0.0
39
0.0
210
0.0
220
0.0
230
1.0
0
LINE
5
D4
330
22
100
AcDbEntity
8
AM_8
62
256
6
ByLayer
370
-1
48
1.0
60
0
100
AcDbLine
10
-863.631061738037
20
-263.647300564142
30
0.0
11
-839.656101620317
21
-242.832311076902
31
0.0
39
0.0
210
0.0
220
0.0
230
1.0
0
LINE
5
D5
330
22
100
AcDbEntity
8
AM_8
62
256
6
ByLayer
370
-1
48
1.0
60
0
100
AcDbLine
10
-836.125097848987
20
-256.585293021425
30
0.0
11
-826.347269876205
21
-248.096211685668
31
0.0
39
0.0
210
0.0
220
0.0
230
1.0
0
LINE
5
D6
330
22
100
AcDbEntity
8
AM_8
62
256
6
ByLayer
370
-1
48
1.0
60
0
100
AcDbLine
10
-854.76942816471
20
-272.772245475716
30
0.0
11
-850.510073919549
21
-269.074286713763
31
0.0
39
0.0
210
0.0
220
0.0
230
1.0
0
LINE
5
D7
330
22
100
AcDbEntity
8
AM_8
62
256
6
ByLayer
370
-1
48
1.0
60
0
100
AcDbLine
10
-855.758158877719
20
-272.715406613482
30
0.0
11
-918.554259086922
21
-200.386088408145
31
0.0
39
0.0
210
0.0
220
0.0
230
1.0
0
LINE
5
D8
330
22
100
AcDbEntity
8
AM_8
62
256
6
ByLayer
370
-1
48
1.0
60
0
100
AcDbLine
10
-840.576671354244
20
-270.829773083837
30
0.0
11
-899.92167061239
21
-202.47547527006
31
0.0
39
0.0
210
0.0
220
0.0
230
1.0
0
LINE
5
D9
330
22
100
AcDbEntity
8
AM_8
62
256
6
ByLayer
370
-1
48
1.0
60
0
100
AcDbLine
10
-831.485189614484
20
-261.929596218807
30
0.0
11
-881.917813263209
21
-203.84068191254
31
0.0
39
0.0
210
0.0
220
0.0
230
1.0
0
LINE
5
DA
330
22
100
AcDbEntity
8
AM_8
62
256
6
ByLayer
370
-1
48
1.0
60
0
100
AcDbLine
10
-826.410023152281
20
-248.403378170522
30
0.0
11
-864.375814690262
21
-204.673913953492
31
0.0
39
0.0
210
0.0
220
0.0
230
1.0
0
LINE
5
DB
330
22
100
AcDbEntity
8
AM_8
62
256
6
ByLayer
370
-1
48
1.0
60
0
100
AcDbLine
10
-824.711683254681
20
-230.987689879597
30
0.0
11
-845.045774856518
21
-207.566633842922
31
0.0
39
0.0
210
0.0
220
0.0
230
1.0
0
LINE
5
DC
330
22
100
AcDbEntity
8
AM_8
62
256
6
ByLayer
370
-1
48
1.0
60
0
100
AcDbLine
10
-1083.60480752861
20
-219.167610559842
30
0.0
11
-1071.29985131388
21
-208.484483956432
31
0.0
39
0.0
210
0.0
220
0.0
230
1.0
0
LINE
5
DD
330
22
100
AcDbEntity
8
AM_8
62
256
6
ByLayer
370
-1
48
1.0
60
0
100
AcDbLine
10
-1067.76884754249
20
-222.237465900959
30
0.0
11
-1043.79388742477
21
-201.422476413719
31
0.0
39
0.0
210
0.0
220
0.0
230
1.0
0
LINE
5
DE
330
22
100
AcDbEntity
8
AM_8
62
256
6
ByLayer
370
-1
48
1.0
60
0
100
AcDbLine
10
-1092.33572178234
20
-243.56635347886
30
0.0
11
-1082.15382361317
21
-234.726459593289
31
0.0
39
0.0
210
0.0
220
0.0
230
1.0
0
LINE
5
DF
330
22
100
AcDbEntity
8
AM_8
62
256
6
ByLayer
370
-1
48
1.0
60
0
100
AcDbLine
10
-1040.26288365344
20
-215.175458358242
30
0.0
11
-1016.28792353572
21
-194.36046887103
31
0.0
39
0.0
210
0.0
220
0.0
230
1.0
0
LINE
5
E0
330
22
100
AcDbEntity
8
AM_8
62
256
6
ByLayer
370
-1
48
1.0
60
0
100
AcDbLine
10
-1078.62281984178
20
-248.479441537816
30
0.0
11
-1054.64785972412
21
-227.6644520506
31
0.0
39
0.0
210
0.0
220
0.0
230
1.0
0
LINE
5
E1
330
22
100
AcDbEntity
8
AM_8
62
256
6
ByLayer
370
-1
48
1.0
60
0
100
AcDbLine
10
-1012.75691976439
20
-208.113450815553
30
0.0
11
-994.424281459722
21
-192.197108443732
31
0.0
39
0.0
210
0.0
220
0.0
230
1.0
0
LINE
5
E2
330
22
100
AcDbEntity
8
AM_8
62
256
6
ByLayer
370
-1
48
1.0
60
0
100
AcDbLine
10
-1051.11685595273
20
-241.417433995127
30
0.0
11
-1027.14189583501
21
-220.602444507858
31
0.0
39
0.0
210
0.0
220
0.0
230
1.0
0
LINE
5
E3
330
22
100
AcDbEntity
8
AM_8
62
256
6
ByLayer
370
-1
48
1.0
60
0
100
AcDbLine
10
-1078.04984275203
20
-264.800573501236
30
0.0
11
-1065.50183202335
21
-253.906427687461
31
0.0
39
0.0
210
0.0
220
0.0
230
1.0
0
LINE
5
E4
330
22
100
AcDbEntity
8
AM_8
62
256
6
ByLayer
370
-1
48
1.0
60
0
100
AcDbLine
10
-985.250955875282
20
-201.051443272839
30
0.0
11
-976.346002830078
21
-193.320189368288
31
0.0
39
0.0
210
0.0
220
0.0
230
1.0
0
LINE
5
E5
330
22
100
AcDbEntity
8
AM_8
62
256
6
ByLayer
370
-1
48
1.0
60
0
100
AcDbLine
10
-1023.61089206368
20
-234.35542645241
30
0.0
11
-999.635931945902
21
-213.540436965173
31
0.0
39
0.0
210
0.0
220
0.0
230
1.0
0
LINE
5
E6
330
22
100
AcDbEntity
8
AM_8
62
256
6
ByLayer
370
-1
48
1.0
60
0
100
AcDbLine
10
-1061.97082825196
20
-267.659409631988
30
0.0
11
-1037.9958681343
21
-246.844420144772
31
0.0
39
0.0
210
0.0
220
0.0
230
1.0
0
LINE
5
E7
330
22
100
AcDbEntity
8
AM_8
62
256
6
ByLayer
370
-1
48
1.0
60
0
100
AcDbLine
10
-996.104928174632
20
-227.293418909721
30
0.0
11
-972.129968056912
21
-206.47842942248
31
0.0
39
0.0
210
0.0
220
0.0
230
1.0
0
LINE
5
E8
330
22
100
AcDbEntity
8
AM_8
62
256
6
ByLayer
370
-1
48
1.0
60
0
100
AcDbLine
10
-1034.46486436291
20
-260.597402089299
30
0.0
11
-1010.48990424519
21
-239.782412602059
31
0.0
39
0.0
210
0.0
220
0.0
230
1.0
0
LINE
5
E9
330
22
100
AcDbEntity
8
AM_8
62
256
6
ByLayer
370
-1
48
1.0
60
0
100
AcDbLine
10
-1052.60184711322
20
-276.34387688732
30
0.0
11
-1048.84984043359
21
-273.086395781629
31
0.0
39
0.0
210
0.0
220
0.0
230
1.0
0
LINE
5
EA
330
22
100
AcDbEntity
8
AM_8
62
256
6
ByLayer
370
-1
48
1.0
60
0
100
AcDbLine
10
-968.598964285466
20
-220.231411367012
30
0.0
11
-944.624004167806
21
-199.416421879796
31
0.0
39
0.0
210
0.0
220
0.0
230
1.0
0
LINE
5
EB
330
22
100
AcDbEntity
8
AM_8
62
256
6
ByLayer
370
-1
48
1.0
60
0
100
AcDbLine
10
-1006.95890047386
20
-253.535394546582
30
0.0
11
-982.983940356146
21
-232.72040505937
31
0.0
39
0.0
210
0.0
220
0.0
230
1.0
0
LINE
5
EC
330
22
100
AcDbEntity
8
AM_8
62
256
6
ByLayer
370
-1
48
1.0
60
0
100
AcDbLine
10
-1036.48893811591
20
-279.173285915669
30
0.0
11
-1021.34387654449
21
-266.024388238944
31
0.0
39
0.0
210
0.0
220
0.0
230
1.0
0
LINE
5
ED
330
22
100
AcDbEntity
8
AM_8
62
256
6
ByLayer
370
-1
48
1.0
60
0
100
AcDbLine
10
-979.452936584816
20
-246.473387003893
30
0.0
11
-955.477976467096
21
-225.658397516652
31
0.0
39
0.0
210
0.0
220
0.0
230
1.0
0
LINE
5
EE
330
22
100
AcDbEntity
8
AM_8
62
256
6
ByLayer
370
-1
48
1.0
60
0
100
AcDbLine
10
-1017.81287277316
20
-279.777370183467
30
0.0
11
-993.837912655375
21
-258.962380696202
31
0.0
39
0.0
210
0.0
220
0.0
230
1.0
0
LINE
5
EF
330
22
100
AcDbEntity
8
AM_8
62
256
6
ByLayer
370
-1
48
1.0
60
0
100
AcDbLine
10
-951.946972695708
20
-239.41137946118
30
0.0
11
-927.972012578045
21
-218.596389973935
31
0.0
39
0.0
210
0.0
220
0.0
230
1.0
0
LINE
5
F0
330
22
100
AcDbEntity
8
AM_8
62
256
6
ByLayer
370
-1
48
1.0
60
0
100
AcDbLine
10
-990.30690888405
20
-272.715362640783
30
0.0
11
-966.33194876633
21
-251.900373153542
31
0.0
39
0.0
210
0.0
220
0.0
230
1.0
0
LINE
5
F1
330
22
100
AcDbEntity
8
AM_8
62
256
6
ByLayer
370
-1
48
1.0
60
0
100
AcDbLine
10
-962.800944994998
20
-265.653355098036
30
0.0
11
-938.825984877279
21
-244.838365610825
31
0.0
39
0.0
210
0.0
220
0.0
230
1.0
0
LINE
5
F2
330
22
100
AcDbEntity
8
AM_8
62
256
6
ByLayer
370
-1
48
1.0
60
0
100
AcDbLine
10
-1055.00048351673
20
-275.687938166054
30
0.0
11
-1091.46331063115
21
-233.689606800953
31
0.0
39
0.0
210
0.0
220
0.0
230
1.0
0
LINE
5
F3
330
22
100
AcDbEntity
8
AM_8
62
256
6
ByLayer
370
-1
48
1.0
60
0
100
AcDbLine
10
-1035.03554531535
20
-279.31194178023
30
0.0
11
-1085.31647585516
21
-221.397749456884
31
0.0
39
0.0
210
0.0
220
0.0
230
1.0
0
LINE
5
F4
330
22
100
AcDbEntity
8
AM_8
62
256
6
ByLayer
370
-1
48
1.0
60
0
100
AcDbLine
10
-1017.80367808217
20
-279.787960741319
30
0.0
11
-1076.68008775878
21
-211.973390153244
31
0.0
39
0.0
210
0.0
220
0.0
230
1.0
0
LINE
5
F5
330
22
100
AcDbEntity
8
AM_8
62
256
6
ByLayer
370
-1
48
1.0
60
0
100
AcDbLine
10
-1001.74953600457
20
-278.907461427184
30
0.0
11
-1066.40811470138
21
-204.43291766277
31
0.0
39
0.0
210
0.0
220
0.0
230
1.0
0
LINE
5
F6
330
22
100
AcDbEntity
8
AM_8
62
256
6
ByLayer
370
-1
48
1.0
60
0
100
AcDbLine
10
-987.408437271721
20
-276.053857783904
30
0.0
11
-1054.49994341162
21
-198.77703835882
31
0.0
39
0.0
210
0.0
220
0.0
230
1.0
0
LINE
5
F7
330
22
100
AcDbEntity
8
AM_8
62
256
6
ByLayer
370
-1
48
1.0
60
0
100
AcDbLine
10
-974.422814868134
20
-271.638999884254
30
0.0
11
-1040.78504830407
21
-195.202165701621
31
0.0
39
0.0
210
0.0
220
0.0
230
1.0
0
LINE
5
F8
330
22
100
AcDbEntity
8
AM_8
62
256
6
ByLayer
370
-1
48
1.0
60
0
100
AcDbLine
10
-961.668654181309
20
-266.957541541132
30
0.0
11
-1025.6326556892
21
-193.283020299466
31
0.0
39
0.0
210
0.0
220
0.0
230
1.0
0
LINE
5
F9
330
22
100
AcDbEntity
8
AM_8
62
256
6
ByLayer
370
-1
48
1.0
60
0
100
AcDbLine
10
-948.18300045916
20
-263.118625845291
30
0.0
11
-1009.76307500111
21
-192.189940913891
31
0.0
39
0.0
210
0.0
220
0.0
230
1.0
0
LINE
5
FA
330
22
100
AcDbEntity
8
AM_8
62
256
6
ByLayer
370
-1
48
1.0
60
0
100
AcDbLine
10
-933.102363920171
20
-261.116830915053
30
0.0
11
-992.887781994509
21
-192.255253308551
31
0.0
39
0.0
210
0.0
220
0.0
230
1.0
0
LINE
5
FB
330
22
100
AcDbEntity
8
AM_8
62
256
6
ByLayer
370
-1
48
1.0
60
0
100
AcDbLine
10
-1681.97414307343
20
-556.462660206066
30
0.0
11
-1666.23778366098
21
-570.124920920188
31
0.0
39
0.0
210
0.0
220
-0.0
230
-1.0
0
LINE
5
FC
330
22
100
AcDbEntity
8
AM_8
62
256
6
ByLayer
370
-1
48
1.0
60
0
100
AcDbLine
10
-1676.17612378291
20
-511.040716475008
30
0.0
11
-1652.20116366525
21
-531.855705962224
31
0.0
39
0.0
210
0.0
220
-0.0
230
-1.0
0
LINE
5
FD
330
22
100
AcDbEntity
8
AM_8
62
256
6
ByLayer
370
-1
48
1.0
60
0
100
AcDbLine
10
-1656.44839899564
20
-507.689938179742
30
0.0
11
-1715.92786940227
21
-576.199121511141
31
0.0
39
0.0
210
0.0
220
-0.0
230
-1.0
0
LINE
5
FE
330
22
100
AcDbEntity
8
AM_8
62
256
6
ByLayer
370
-1
48
1.0
60
0
100
AcDbLine
10
-1636.68380587401
20
-504.296694485041
30
0.0
11
-1697.38833703851
21
-574.21691781852
31
0.0
39
0.0
210
0.0
220
-0.0
230
-1.0
0
LINE
5
FF
330
22
100
AcDbEntity
8
AM_8
62
256
6
ByLayer
370
-1
48
1.0
60
0
100
AcDbLine
10
-1616.25038443151
20
-500.133086129318
30
0.0
11
-1678.43818673945
21
-571.761759353269
31
0.0
39
0.0
210
0.0
220
-0.0
230
-1.0
0
LINE
5
100
330
22
100
AcDbEntity
8
AM_8
62
256
6
ByLayer
370
-1
48
1.0
60
0
100
AcDbLine
10
-1654.46817918439
20
-563.524667748755
30
0.0
11
-1649.27066494091
21
-568.037134247407
31
0.0
39
0.0
210
0.0
220
-0.0
230
-1.0
0
LINE
5
101
330
22
100
AcDbEntity
8
AM_8
62
256
6
ByLayer
370
-1
48
1.0
60
0
100
AcDbLine
10
-1665.32215148368
20
-537.282692111898
30
0.0
11
-1641.34719136596
21
-558.097681599139
31
0.0
39
0.0
210
0.0
220
-0.0
230
-1.0
0
LINE
5
102
330
22
100
AcDbEntity
8
AM_8
62
256
6
ByLayer
370
-1
48
1.0
60
0
100
AcDbLine
10
-1637.81618759463
20
-544.344699654587
30
0.0
11
-1613.84122747691
21
-565.159689141798
31
0.0
39
0.0
210
0.0
220
-0.0
230
-1.0
0
LINE
5
103
330
22
100
AcDbEntity
8
AM_8
62
256
6
ByLayer
370
-1
48
1.0
60
0
100
AcDbLine
10
-1610.31022370558
20
-551.406707197276
30
0.0
11
-1595.51001730331
21
-564.256202635801
31
0.0
39
0.0
210
0.0
220
-0.0
230
-1.0
0
LINE
5
104
330
22
100
AcDbEntity
8
AM_8
62
256
6
ByLayer
370
-1
48
1.0
60
0
100
AcDbLine
10
-1648.67015989386
20
-518.102724017697
30
0.0
11
-1624.69519977614
21
-538.917713504938
31
0.0
39
0.0
210
0.0
220
-0.0
230
-1.0
0
LINE
5
105
330
22
100
AcDbEntity
8
AM_8
62
256
6
ByLayer
370
-1
48
1.0
60
0
100
AcDbLine
10
-1582.80425981647
20
-558.468714739989
30
0.0
11
-1581.19269118316
21
-559.867873862436
31
0.0
39
0.0
210
0.0
220
-0.0
230
-1.0
0
LINE
5
106
330
22
100
AcDbEntity
8
AM_8
62
256
6
ByLayer
370
-1
48
1.0
60
0
100
AcDbLine
10
-1621.16419600481
20
-525.164731560415
30
0.0
11
-1597.18923588709
21
-545.979721047656
31
0.0
39
0.0
210
0.0
220
-0.0
230
-1.0
0
LINE
5
107
330
22
100
AcDbEntity
8
AM_8
62
256
6
ByLayer
370
-1
48
1.0
60
0
100
AcDbLine
10
-1643.77865079438
20
-505.530928776513
30
0.0
11
-1635.54917207549
21
-512.675737868085
31
0.0
39
0.0
210
0.0
220
-0.0
230
-1.0
0
LINE
5
108
330
22
100
AcDbEntity
8
AM_8
62
256
6
ByLayer
370
-1
48
1.0
60
0
100
AcDbLine
10
-1593.65823211576
20
-532.226739103103
30
0.0
11
-1571.27595915658
21
-551.658962308356
31
0.0
39
0.0
210
0.0
220
-0.0
230
-1.0
0
LINE
5
109
330
22
100
AcDbEntity
8
AM_8
62
256
6
ByLayer
370
-1
48
1.0
60
0
100
AcDbLine
10
-1627.76860479088
20
-502.612214400959
30
0.0
11
-1608.04320818638
21
-519.73774541077
31
0.0
39
0.0
210
0.0
220
-0.0
230
-1.0
0
LINE
5
10A
330
22
100
AcDbEntity
8
AM_8
62
256
6
ByLayer
370
-1
48
1.0
60
0
100
AcDbLine
10
-1566.15226822666
20
-539.288746645788
30
0.0
11
-1565.7251443372
21
-539.659574343842
31
0.0
39
0.0
210
0.0
220
-0.0
230
-1.0
0
LINE
5
10B
330
22
100
AcDbEntity
8
AM_8
62
256
6
ByLayer
370
-1
48
1.0
60
0
100
AcDbLine
10
-1604.51220441506
20
-505.984763466218
30
0.0
11
-1580.53724429734
21
-526.799752953458
31
0.0
39
0.0
210
0.0
220
-0.0
230
-1.0
0
LINE
5
10C
330
22
100
AcDbEntity
8
AM_8
62
256
6
ByLayer
370
-1
48
1.0
60
0
100
AcDbLine
10
-1577.00624052601
20
-513.046771008935
30
0.0
11
-1567.22841255322
21
-521.535852344693
31
0.0
39
0.0
210
0.0
220
-0.0
230
-1.0
0
LINE
5
10D
330
22
100
AcDbEntity
8
AM_8
62
256
6
ByLayer
370
-1
48
1.0
60
0
100
AcDbLine
10
-1595.65057084173
20
-496.859818554645
30
0.0
11
-1591.39121659657
21
-500.557777316598
31
0.0
39
0.0
210
0.0
220
-0.0
230
-1.0
0
LINE
5
10E
330
22
100
AcDbEntity
8
AM_8
62
256
6
ByLayer
370
-1
48
1.0
60
0
100
AcDbLine
10
-1596.63930155474
20
-496.916657416879
30
0.0
11
-1659.43540176394
21
-569.245975622215
31
0.0
39
0.0
210
0.0
220
-0.0
230
-1.0
0
LINE
5
10F
330
22
100
AcDbEntity
8
AM_8
62
256
6
ByLayer
370
-1
48
1.0
60
0
100
AcDbLine
10
-1581.45781403126
20
-498.802290946523
30
0.0
11
-1640.80281328941
21
-567.156588760301
31
0.0
39
0.0
210
0.0
220
-0.0
230
-1.0
0
LINE
5
110
330
22
100
AcDbEntity
8
AM_8
62
256
6
ByLayer
370
-1
48
1.0
60
0
100
AcDbLine
10
-1572.3663322915
20
-507.702467811553
30
0.0
11
-1622.79895594023
21
-565.791382117821
31
0.0
39
0.0
210
0.0
220
-0.0
230
-1.0
0
LINE
5
111
330
22
100
AcDbEntity
8
AM_8
62
256
6
ByLayer
370
-1
48
1.0
60
0
100
AcDbLine
10
-1567.2911658293
20
-521.228685859839
30
0.0
11
-1605.25695736728
21
-564.958150076869
31
0.0
39
0.0
210
0.0
220
-0.0
230
-1.0
0
LINE
5
112
330
22
100
AcDbEntity
8
AM_8
62
256
6
ByLayer
370
-1
48
1.0
60
0
100
AcDbLine
10
-1565.5928259317
20
-538.644374150764
30
0.0
11
-1585.92691753354
21
-562.065430187438
31
0.0
39
0.0
210
0.0
220
-0.0
230
-1.0
0
LINE
5
113
330
22
100
AcDbEntity
8
AM_8
62
256
6
ByLayer
370
-1
48
1.0
60
0
100
AcDbLine
10
-1824.48595020563
20
-550.464453470518
30
0.0
11
-1812.18099399089
21
-561.147580073928
31
0.0
39
0.0
210
0.0
220
-0.0
230
-1.0
0
LINE
5
114
330
22
100
AcDbEntity
8
AM_8
62
256
6
ByLayer
370
-1
48
1.0
60
0
100
AcDbLine
10
-1808.64999021951
20
-547.394598129401
30
0.0
11
-1784.67503010179
21
-568.209587616641
31
0.0
39
0.0
210
0.0
220
-0.0
230
-1.0
0
LINE
5
115
330
22
100
AcDbEntity
8
AM_8
62
256
6
ByLayer
370
-1
48
1.0
60
0
100
AcDbLine
10
-1833.21686445936
20
-526.0657105515
30
0.0
11
-1823.03496629018
21
-534.905604437071
31
0.0
39
0.0
210
0.0
220
-0.0
230
-1.0
0
LINE
5
116
330
22
100
AcDbEntity
8
AM_8
62
256
6
ByLayer
370
-1
48
1.0
60
0
100
AcDbLine
10
-1781.14402633046
20
-554.456605672118
30
0.0
11
-1757.16906621274
21
-575.27159515933
31
0.0
39
0.0
210
0.0
220
-0.0
230
-1.0
0
LINE
5
117
330
22
100
AcDbEntity
8
AM_8
62
256
6
ByLayer
370
-1
48
1.0
60
0
100
AcDbLine
10
-1819.5039625188
20
-521.152622492544
30
0.0
11
-1795.52900240114
21
-541.96761197976
31
0.0
39
0.0
210
0.0
220
-0.0
230
-1.0
0
LINE
5
118
330
22
100
AcDbEntity
8
AM_8
62
256
6
ByLayer
370
-1
48
1.0
60
0
100
AcDbLine
10
-1753.63806244141
20
-561.518613214807
30
0.0
11
-1735.30542413674
21
-577.434955586628
31
0.0
39
0.0
210
0.0
220
-0.0
230
-1.0
0
LINE
5
119
330
22
100
AcDbEntity
8
AM_8
62
256
6
ByLayer
370
-1
48
1.0
60
0
100
AcDbLine
10
-1791.99799862975
20
-528.214630035233
30
0.0
11
-1768.02303851203
21
-549.029619522502
31
0.0
39
0.0
210
0.0
220
-0.0
230
-1.0
0
LINE
5
11A
330
22
100
AcDbEntity
8
AM_8
62
256
6
ByLayer
370
-1
48
1.0
60
0
100
AcDbLine
10
-1818.93098542904
20
-504.831490529124
30
0.0
11
-1806.38297470037
21
-515.725636342899
31
0.0
39
0.0
210
0.0
220
-0.0
230
-1.0
0
LINE
5
11B
330
22
100
AcDbEntity
8
AM_8
62
256
6
ByLayer
370
-1
48
1.0
60
0
100
AcDbLine
10
-1726.1320985523
20
-568.580620757521
30
0.0
11
-1717.2271455071
21
-576.311874662072
31
0.0
39
0.0
210
0.0
220
-0.0
230
-1.0
0
LINE
5
11C
330
22
100
AcDbEntity
8
AM_8
62
256
6
ByLayer
370
-1
48
1.0
60
0
100
AcDbLine
10
-1764.4920347407
20
-535.27663757795
30
0.0
11
-1740.51707462292
21
-556.091627065187
31
0.0
39
0.0
210
0.0
220
-0.0
230
-1.0
0
LINE
5
11D
330
22
100
AcDbEntity
8
AM_8
62
256
6
ByLayer
370
-1
48
1.0
60
0
100
AcDbLine
10
-1802.85197092898
20
-501.972654398372
30
0.0
11
-1778.87701081132
21
-522.787643885588
31
0.0
39
0.0
210
0.0
220
-0.0
230
-1.0
0
LINE
5
11E
330
22
100
AcDbEntity
8
AM_8
62
256
6
ByLayer
370
-1
48
1.0
60
0
100
AcDbLine
10
-1736.98607085165
20
-542.338645120639
30
0.0
11
-1713.01111073393
21
-563.15363460788
31
0.0
39
0.0
210
0.0
220
-0.0
230
-1.0
0
LINE
5
11F
330
22
100
AcDbEntity
8
AM_8
62
256
6
ByLayer
370
-1
48
1.0
60
0
100
AcDbLine
10
-1775.34600703993
20
-509.034661941061
30
0.0
11
-1751.37104692221
21
-529.849651428301
31
0.0
39
0.0
210
0.0
220
-0.0
230
-1.0
0
LINE
5
120
330
22
100
AcDbEntity
8
AM_8
62
256
6
ByLayer
370
-1
48
1.0
60
0
100
AcDbLine
10
-1793.48298979024
20
-493.28818714304
30
0.0
11
-1789.73098311061
21
-496.545668248731
31
0.0
39
0.0
210
0.0
220
-0.0
230
-1.0
0
LINE
5
121
330
22
100
AcDbEntity
8
AM_8
62
256
6
ByLayer
370
-1
48
1.0
60
0
100
AcDbLine
10
-1709.48010696248
20
-549.400652663349
30
0.0
11
-1685.50514684482
21
-570.215642150564
31
0.0
39
0.0
210
0.0
220
-0.0
230
-1.0
0
LINE
5
122
330
22
100
AcDbEntity
8
AM_8
62
256
6
ByLayer
370
-1
48
1.0
60
0
100
AcDbLine
10
-1747.84004315088
20
-516.096669483778
30
0.0
11
-1723.86508303316
21
-536.91165897099
31
0.0
39
0.0
210
0.0
220
-0.0
230
-1.0
0
LINE
5
123
330
22
100
AcDbEntity
8
AM_8
62
256
6
ByLayer
370
-1
48
1.0
60
0
100
AcDbLine
10
-1777.37008079293
20
-490.458778114691
30
0.0
11
-1762.2250192215
21
-503.607675791416
31
0.0
39
0.0
210
0.0
220
-0.0
230
-1.0
0
LINE
5
124
330
22
100
AcDbEntity
8
AM_8
62
256
6
ByLayer
370
-1
48
1.0
60
0
100
AcDbLine
10
-1720.33407926183
20
-523.158677026467
30
0.0
11
-1696.35911914411
21
-543.973666513708
31
0.0
39
0.0
210
0.0
220
-0.0
230
-1.0
0
LINE
5
125
330
22
100
AcDbEntity
8
AM_8
62
256
6
ByLayer
370
-1
48
1.0
60
0
100
AcDbLine
10
-1758.69401545017
20
-489.854693846893
30
0.0
11
-1734.71905533239
21
-510.669683334158
31
0.0
39
0.0
210
0.0
220
-0.0
230
-1.0
0
LINE
5
126
330
22
100
AcDbEntity
8
AM_8
62
256
6
ByLayer
370
-1
48
1.0
60
0
100
AcDbLine
10
-1692.82811537273
20
-530.220684569181
30
0.0
11
-1668.85315525506
21
-551.035674056425
31
0.0
39
0.0
210
0.0
220
-0.0
230
-1.0
0
LINE
5
127
330
22
100
AcDbEntity
8
AM_8
62
256
6
ByLayer
370
-1
48
1.0
60
0
100
AcDbLine
10
-1731.18805156107
20
-496.916701389577
30
0.0
11
-1707.21309144335
21
-517.731690876818
31
0.0
39
0.0
210
0.0
220
-0.0
230
-1.0
0
LINE
5
128
330
22
100
AcDbEntity
8
AM_8
62
256
6
ByLayer
370
-1
48
1.0
60
0
100
AcDbLine
10
-1703.68208767202
20
-503.978708932324
30
0.0
11
-1679.7071275543
21
-524.793698419536
31
0.0
39
0.0
210
0.0
220
-0.0
230
-1.0
0
LINE
5
129
330
22
100
AcDbEntity
8
AM_8
62
256
6
ByLayer
370
-1
48
1.0
60
0
100
AcDbLine
10
-1795.88162619375
20
-493.944125864306
30
0.0
11
-1832.34445330817
21
-535.942457229407
31
0.0
39
0.0
210
0.0
220
-0.0
230
-1.0
0
LINE
5
12A
330
22
100
AcDbEntity
8
AM_8
62
256
6
ByLayer
370
-1
48
1.0
60
0
100
AcDbLine
10
-1775.91668799237
20
-490.320122250129
30
0.0
11
-1826.19761853218
21
-548.234314573476
31
0.0
39
0.0
210
0.0
220
-0.0
230
-1.0
0
LINE
5
12B
330
22
100
AcDbEntity
8
AM_8
62
256
6
ByLayer
370
-1
48
1.0
60
0
100
AcDbLine
10
-1758.68482075919
20
-489.844103289041
30
0.0
11
-1817.56123043579
21
-557.658673877116
31
0.0
39
0.0
210
0.0
220
-0.0
230
-1.0
0
LINE
5
12C
330
22
100
AcDbEntity
8
AM_8
62
256
6
ByLayer
370
-1
48
1.0
60
0
100
AcDbLine
10
-1742.63067868159
20
-490.724602603176
30
0.0
11
-1807.2892573784
21
-565.19914636759
31
0.0
39
0.0
210
0.0
220
-0.0
230
-1.0
0
LINE
5
12D
330
22
100
AcDbEntity
8
AM_8
62
256
6
ByLayer
370
-1
48
1.0
60
0
100
AcDbLine
10
-1728.28957994874
20
-493.578206246456
30
0.0
11
-1795.38108608864
21
-570.85502567154
31
0.0
39
0.0
210
0.0
220
-0.0
230
-1.0
0
LINE
5
12E
330
22
100
AcDbEntity
8
AM_8
62
256
6
ByLayer
370
-1
48
1.0
60
0
100
AcDbLine
10
-1715.30395754515
20
-497.993064146106
30
0.0
11
-1781.66619098109
21
-574.429898328739
31
0.0
39
0.0
210
0.0
220
-0.0
230
-1.0
0
LINE
5
12F
330
22
100
AcDbEntity
8
AM_8
62
256
6
ByLayer
370
-1
48
1.0
60
0
100
AcDbLine
10
-1702.54979685833
20
-502.674522489228
30
0.0
11
-1766.51379836622
21
-576.349043730894
31
0.0
39
0.0
210
0.0
220
-0.0
230
-1.0
0
LINE
5
130
330
22
100
AcDbEntity
8
AM_8
62
256
6
ByLayer
370
-1
48
1.0
60
0
100
AcDbLine
10
-1689.06414313618
20
-506.513438185069
30
0.0
11
-1750.64421767813
21
-577.442123116469
31
0.0
39
0.0
210
0.0
220
-0.0
230
-1.0
0
LINE
5
131
330
22
100
AcDbEntity
8
AM_8
62
256
6
ByLayer
370
-1
48
1.0
60
0
100
AcDbLine
10
-1673.98350659719
20
-508.515233115308
30
0.0
11
-1733.76892467153
21
-577.376810721809
31
0.0
39
0.0
210
0.0
220
-0.0
230
-1.0
0
LINE
5
132
330
22
100
AcDbEntity
8
\U+865A\U+7EBF\U+5C42
62
256
6
ByLayer
370
-1
48
0.5
60
0
100
AcDbLine
10
-994.99999999992
20
-763.000000000142
30
0.0
11
-994.99999999992
21
-63.0000000001146
31
0.0
39
0.0
210
0.0
220
0.0
230
1.0
0
LINE
5
133
330
22
100
AcDbEntity
8
\U+7C97\U+5B9E\U+7EBF\U+5C42
62
256
6
ByLayer
370
-1
48
1.0
60
0
100
AcDbLine
10
-744.999999999927
20
-63.0000000001273
30
0.0
11
-744.999999999927
21
-763.000000000142
31
0.0
39
0.0
210
0.0
220
0.0
230
1.0
0
LINE
5
134
330
22
100
AcDbEntity
8
\U+7C97\U+5B9E\U+7EBF\U+5C42
62
256
6
ByLayer
370
-1
48
1.0
60
0
100
AcDbLine
10
-744.999999999927
20
-763.000000000142
30
0.0
11
-949.999999999898
21
-763.000000000142
31
0.0
39
0.0
210
0.0
220
0.0
230
1.0
0
LINE
5
135
330
22
100
AcDbEntity
8
\U+865A\U+7EBF\U+5C42
62
256
6
ByLayer
370
-1
48
1.0
60
0
100
AcDbLine
10
-949.999999999898
20
-763.000000000142
30
0.0
11
-994.99999999992
21
-763.000000000142
31
0.0
39
0.0
210
0.0
220
0.0
230
1.0
0
LINE
5
136
330
22
100
AcDbEntity
8
\U+865A\U+7EBF\U+5C42
62
256
6
ByLayer
370
-1
48
1.0
60
0
100
AcDbLine
10
-994.99999999992
20
-63.0000000001146
30
0.0
11
-949.999999999898
21
-63.0000000001164
31
0.0
39
0.0
210
0.0
220
0.0
230
1.0
0
LINE
5
137
330
22
100
AcDbEntity
8
\U+7C97\U+5B9E\U+7EBF\U+5C42
62
256
6
ByLayer
370
-1
48
1.0
60
0
100
AcDbLine
10
-949.999999999898
20
-63.0000000001164
30
0.0
11
-744.999999999927
21
-63.0000000001273
31
0.0
39
0.0
210
0.0
220
0.0
230
1.0
0
LINE
5
138
330
22
100
AcDbEntity
8
\U+865A\U+7EBF\U+5C42
62
256
6
ByLayer
370
-1
48
0.5
60
0
100
AcDbLine
10
-1224.99999999992
20
-763.000000000142
30
0.0
11
-1224.99999999992
21
-63.0000000001146
31
0.0
39
0.0
210
0.0
220
0.0
230
1.0
0
LINE
5
139
330
22
100
AcDbEntity
8
\U+7C97\U+5B9E\U+7EBF\U+5C42
62
256
6
ByLayer
370
-1
48
1.0
60
0
100
AcDbLine
10
-974.999999999927
20
-63.0000000001273
30
0.0
11
-974.999999999927
21
-763.000000000142
31
0.0
39
0.0
210
0.0
220
0.0
230
1.0
0
LINE
5
13A
330
22
100
AcDbEntity
8
\U+7C97\U+5B9E\U+7EBF\U+5C42
62
256
6
ByLayer
370
-1
48
1.0
60
0
100
AcDbLine
10
-974.999999999927
20
-763.000000000142
30
0.0
11
-1179.9999999999
21
-763.000000000142
31
0.0
39
0.0
210
0.0
220
0.0
230
1.0
0
LINE
5
13B
330
22
100
AcDbEntity
8
\U+865A\U+7EBF\U+5C42
62
256
6
ByLayer
370
-1
48
1.0
60
0
100
AcDbLine
10
-1179.9999999999
20
-763.000000000142
30
0.0
11
-1224.99999999992
21
-763.000000000142
31
0.0
39
0.0
210
0.0
220
0.0
230
1.0
0
LINE
5
13C
330
22
100
AcDbEntity
8
\U+865A\U+7EBF\U+5C42
62
256
6
ByLayer
370
-1
48
1.0
60
0
100
AcDbLine
10
-1224.99999999992
20
-63.0000000001146
30
0.0
11
-1179.9999999999
21
-63.0000000001164
31
0.0
39
0.0
210
0.0
220
0.0
230
1.0
0
LINE
5
13D
330
22
100
AcDbEntity
8
\U+7C97\U+5B9E\U+7EBF\U+5C42
62
256
6
ByLayer
370
-1
48
1.0
60
0
100
AcDbLine
10
-1179.9999999999
20
-63.0000000001164
30
0.0
11
-974.999999999927
21
-63.0000000001273
31
0.0
39
0.0
210
0.0
220
0.0
230
1.0
0
LINE
5
13E
330
22
100
AcDbEntity
8
\U+865A\U+7EBF\U+5C42
62
256
6
ByLayer
370
-1
48
0.5
60
0
100
AcDbLine
10
-1454.99999999992
20
-763.000000000142
30
0.0
11
-1454.99999999992
21
-63.0000000001146
31
0.0
39
0.0
210
0.0
220
0.0
230
1.0
0
LINE
5
13F
330
22
100
AcDbEntity
8
\U+7C97\U+5B9E\U+7EBF\U+5C42
62
256
6
ByLayer
370
-1
48
1.0
60
0
100
AcDbLine
10
-1204.99999999993
20
-63.0000000001273
30
0.0
11
-1204.99999999993
21
-763.000000000142
31
0.0
39
0.0
210
0.0
220
0.0
230
1.0
0
LINE
5
140
330
22
100
AcDbEntity
8
\U+7C97\U+5B9E\U+7EBF\U+5C42
62
256
6
ByLayer
370
-1
48
1.0
60
0
100
AcDbLine
10
-1204.99999999993
20
-763.000000000142
30
0.0
11
-1409.9999999999
21
-763.000000000142
31
0.0
39
0.0
210
0.0
220
0.0
230
1.0
0
LINE
5
141
330
22
100
AcDbEntity
8
\U+865A\U+7EBF\U+5C42
62
256
6
ByLayer
370
-1
48
1.0
60
0
100
AcDbLine
10
-1409.9999999999
20
-763.000000000142
30
0.0
11
-1454.99999999992
21
-763.000000000142
31
0.0
39
0.0
210
0.0
220
0.0
230
1.0
0
LINE
5
142
330
22
100
AcDbEntity
8
\U+865A\U+7EBF\U+5C42
62
256
6
ByLayer
370
-1
48
1.0
60
0
100
AcDbLine
10
-1454.99999999992
20
-63.0000000001146
30
0.0
11
-1409.9999999999
21
-63.0000000001164
31
0.0
39
0.0
210
0.0
220
0.0
230
1.0
0
LINE
5
143
330
22
100
AcDbEntity
8
\U+7C97\U+5B9E\U+7EBF\U+5C42
62
256
6
ByLayer
370
-1
48
1.0
60
0
100
AcDbLine
10
-1409.9999999999
20
-63.0000000001164
30
0.0
11
-1204.99999999993
21
-63.0000000001273
31
0.0
39
0.0
210
0.0
220
0.0
230
1.0
0
LINE
5
144
330
22
100
AcDbEntity
8
\U+865A\U+7EBF\U+5C42
62
256
6
ByLayer
370
-1
48
0.5
60
0
100
AcDbLine
10
-1684.99999999992
20
-763.000000000142
30
0.0
11
-1684.99999999992
21
-63.0000000001146
31
0.0
39
0.0
210
0.0
220
0.0
230
1.0
0
LINE
5
145
330
22
100
AcDbEntity
8
\U+7C97\U+5B9E\U+7EBF\U+5C42
62
256
6
ByLayer
370
-1
48
1.0
60
0
100
AcDbLine
10
-1434.99999999993
20
-63.0000000001273
30
0.0
11
-1434.99999999993
21
-763.000000000142
31
0.0
39
0.0
210
0.0
220
0.0
230
1.0
0
LINE
5
146
330
22
100
AcDbEntity
8
\U+7C97\U+5B9E\U+7EBF\U+5C42
62
256
6
ByLayer
370
-1
48
1.0
60
0
100
AcDbLine
10
-1434.99999999993
20
-763.000000000142
30
0.0
11
-1639.9999999999
21
-763.000000000142
31
0.0
39
0.0
210
0.0
220
0.0
230
1.0
0
LINE
5
147
330
22
100
AcDbEntity
8
\U+865A\U+7EBF\U+5C42
62
256
6
ByLayer
370
-1
48
1.0
60
0
100
AcDbLine
10
-1639.9999999999
20
-763.000000000142
30
0.0
11
-1684.99999999992
21
-763.000000000142
31
0.0
39
0.0
210
0.0
220
0.0
230
1.0
0
LINE
5
148
330
22
100
AcDbEntity
8
\U+865A\U+7EBF\U+5C42
62
256
6
ByLayer
370
-1
48
1.0
60
0
100
AcDbLine
10
-1684.99999999992
20
-63.0000000001146
30
0.0
11
-1639.9999999999
21
-63.0000000001164
31
0.0
39
0.0
210
0.0
220
0.0
230
1.0
0
LINE
5
149
330
22
100
AcDbEntity
8
\U+7C97\U+5B9E\U+7EBF\U+5C42
62
256
6
ByLayer
370
-1
48
1.0
60
0
100
AcDbLine
10
-1639.9999999999
20
-63.0000000001164
30
0.0
11
-1434.99999999993
21
-63.0000000001273
31
0.0
39
0.0
210
0.0
220
0.0
230
1.0
0
LINE
5
14A
330
22
100
AcDbEntity
8
\U+865A\U+7EBF\U+5C42
62
256
6
ByLayer
370
-1
48
0.5
60
0
100
AcDbLine
10
-1914.99999999992
20
-763.000000000142
30
0.0
11
-1914.99999999992
21
-63.0000000001146
31
0.0
39
0.0
210
0.0
220
0.0
230
1.0
0
LINE
5
14B
330
22
100
AcDbEntity
8
\U+7C97\U+5B9E\U+7EBF\U+5C42
62
256
6
ByLayer
370
-1
48
1.0
60
0
100
AcDbLine
10
-1664.99999999993
20
-63.0000000001273
30
0.0
11
-1664.99999999993
21
-763.000000000142
31
0.0
39
0.0
210
0.0
220
0.0
230
1.0
0
LINE
5
14C
330
22
100
AcDbEntity
8
\U+7C97\U+5B9E\U+7EBF\U+5C42
62
256
6
ByLayer
370
-1
48
1.0
60
0
100
AcDbLine
10
-1664.99999999993
20
-763.000000000142
30
0.0
11
-1869.9999999999
21
-763.000000000142
31
0.0
39
0.0
210
0.0
220
0.0
230
1.0
0
LINE
5
14D
330
22
100
AcDbEntity
8
\U+865A\U+7EBF\U+5C42
62
256
6
ByLayer
370
-1
48
1.0
60
0
100
AcDbLine
10
-1869.9999999999
20
-763.000000000142
30
0.0
11
-1914.99999999992
21
-763.000000000142
31
0.0
39
0.0
210
0.0
220
0.0
230
1.0
0
LINE
5
14E
330
22
100
AcDbEntity
8
\U+865A\U+7EBF\U+5C42
62
256
6
ByLayer
370
-1
48
1.0
60
0
100
AcDbLine
10
-1914.99999999992
20
-63.0000000001146
30
0.0
11
-1869.9999999999
21
-63.0000000001164
31
0.0
39
0.0
210
0.0
220
0.0
230
1.0
0
LINE
5
14F
330
22
100
AcDbEntity
8
\U+7C97\U+5B9E\U+7EBF\U+5C42
62
256
6
ByLayer
370
-1
48
1.0
60
0
100
AcDbLine
10
-1869.9999999999
20
-63.0000000001164
30
0.0
11
-1664.99999999993
21
-63.0000000001273
31
0.0
39
0.0
210
0.0
220
0.0
230
1.0
0
LINE
5
150
330
22
100
AcDbEntity
8
\U+865A\U+7EBF\U+5C42
62
256
6
ByLayer
370
-1
48
0.5
60
0
100
AcDbLine
10
-2144.99999999992
20
-763.000000000142
30
0.0
11
-2144.99999999992
21
-63.0000000001146
31
0.0
39
0.0
210
0.0
220
0.0
230
1.0
0
LINE
5
151
330
22
100
AcDbEntity
8
\U+7C97\U+5B9E\U+7EBF\U+5C42
62
256
6
ByLayer
370
-1
48
1.0
60
0
100
AcDbLine
10
-1894.99999999993
20
-63.0000000001273
30
0.0
11
-1894.99999999993
21
-763.000000000142
31
0.0
39
0.0
210
0.0
220
0.0
230
1.0
0
LINE
5
152
330
22
100
AcDbEntity
8
\U+7C97\U+5B9E\U+7EBF\U+5C42
62
256
6
ByLayer
370
-1
48
1.0
60
0
100
AcDbLine
10
-1894.99999999993
20
-763.000000000142
30
0.0
11
-2099.9999999999
21
-763.000000000142
31
0.0
39
0.0
210
0.0
220
0.0
230
1.0
0
LINE
5
153
330
22
100
AcDbEntity
8
\U+865A\U+7EBF\U+5C42
62
256
6
ByLayer
370
-1
48
1.0
60
0
100
AcDbLine
10
-2099.9999999999
20
-763.000000000142
30
0.0
11
-2144.99999999992
21
-763.000000000142
31
0.0
39
0.0
210
0.0
220
0.0
230
1.0
0
LINE
5
154
330
22
100
AcDbEntity
8
\U+865A\U+7EBF\U+5C42
62
256
6
ByLayer
370
-1
48
1.0
60
0
100
AcDbLine
10
-2144.99999999992
20
-63.0000000001146
30
0.0
11
-2099.9999999999
21
-63.0000000001164
31
0.0
39
0.0
210
0.0
220
0.0
230
1.0
0
LINE
5
155
330
22
100
AcDbEntity
8
\U+7C97\U+5B9E\U+7EBF\U+5C42
62
256
6
ByLayer
370
-1
48
1.0
60
0
100
AcDbLine
10
-2099.9999999999
20
-63.0000000001164
30
0.0
11
-1894.99999999993
21
-63.0000000001273
31
0.0
39
0.0
210
0.0
220
0.0
230
1.0
0
LINE
5
156
330
22
100
AcDbEntity
8
\U+865A\U+7EBF\U+5C42
62
256
6
ByLayer
370
-1
48
0.5
60
0
100
AcDbLine
10
-2374.99999999992
20
-763.000000000142
30
0.0
11
-2374.99999999992
21
-63.0000000001146
31
0.0
39
0.0
210
0.0
220
0.0
230
1.0
0
LINE
5
157
330
22
100
AcDbEntity
8
\U+7C97\U+5B9E\U+7EBF\U+5C42
62
256
6
ByLayer
370
-1
48
1.0
60
0
100
AcDbLine
10
-2124.99999999993
20
-63.0000000001273
30
0.0
11
-2124.99999999993
21
-763.000000000142
31
0.0
39
0.0
210
0.0
220
0.0
230
1.0
0
LINE
5
158
330
22
100
AcDbEntity
8
\U+7C97\U+5B9E\U+7EBF\U+5C42
62
256
6
ByLayer
370
-1
48
1.0
60
0
100
AcDbLine
10
-2124.99999999993
20
-763.000000000142
30
0.0
11
-2329.9999999999
21
-763.000000000142
31
0.0
39
0.0
210
0.0
220
0.0
230
1.0
0
LINE
5
159
330
22
100
AcDbEntity
8
\U+865A\U+7EBF\U+5C42
62
256
6
ByLayer
370
-1
48
1.0
60
0
100
AcDbLine
10
-2329.9999999999
20
-763.000000000142
30
0.0
11
-2374.99999999992
21
-763.000000000142
31
0.0
39
0.0
210
0.0
220
0.0
230
1.0
0
LINE
5
15A
330
22
100
AcDbEntity
8
\U+865A\U+7EBF\U+5C42
62
256
6
ByLayer
370
-1
48
1.0
60
0
100
AcDbLine
10
-2374.99999999992
20
-63.0000000001146
30
0.0
11
-2329.9999999999
21
-63.0000000001164
31
0.0
39
0.0
210
0.0
220
0.0
230
1.0
0
LINE
5
15B
330
22
100
AcDbEntity
8
\U+7C97\U+5B9E\U+7EBF\U+5C42
62
256
6
ByLayer
370
-1
48
1.0
60
0
100
AcDbLine
10
-2329.9999999999
20
-63.0000000001164
30
0.0
11
-2124.99999999993
21
-63.0000000001273
31
0.0
39
0.0
210
0.0
220
0.0
230
1.0
0
LINE
5
15C
330
22
100
AcDbEntity
8
\U+865A\U+7EBF\U+5C42
62
256
6
ByLayer
370
-1
48
0.5
60
0
100
AcDbLine
10
-2604.99999999992
20
-763.000000000142
30
0.0
11
-2604.99999999992
21
-63.0000000001146
31
0.0
39
0.0
210
0.0
220
0.0
230
1.0
0
LINE
5
15D
330
22
100
AcDbEntity
8
\U+7C97\U+5B9E\U+7EBF\U+5C42
62
256
6
ByLayer
370
-1
48
1.0
60
0
100
AcDbLine
10
-2354.99999999993
20
-63.0000000001273
30
0.0
11
-2354.99999999993
21
-763.000000000142
31
0.0
39
0.0
210
0.0
220
0.0
230
1.0
0
LINE
5
15E
330
22
100
AcDbEntity
8
\U+7C97\U+5B9E\U+7EBF\U+5C42
62
256
6
ByLayer
370
-1
48
1.0
60
0
100
AcDbLine
10
-2354.99999999993
20
-763.000000000142
30
0.0
11
-2559.9999999999
21
-763.000000000142
31
0.0
39
0.0
210
0.0
220
0.0
230
1.0
0
LINE
5
15F
330
22
100
AcDbEntity
8
\U+865A\U+7EBF\U+5C42
62
256
6
ByLayer
370
-1
48
1.0
60
0
100
AcDbLine
10
-2559.9999999999
20
-763.000000000142
30
0.0
11
-2604.99999999992
21
-763.000000000142
31
0.0
39
0.0
210
0.0
220
0.0
230
1.0
0
LINE
5
160
330
22
100
AcDbEntity
8
\U+865A\U+7EBF\U+5C42
62
256
6
ByLayer
370
-1
48
1.0
60
0
100
AcDbLine
10
-2604.99999999992
20
-63.0000000001146
30
0.0
11
-2559.9999999999
21
-63.0000000001164
31
0.0
39
0.0
210
0.0
220
0.0
230
1.0
0
LINE
5
161
330
22
100
AcDbEntity
8
\U+7C97\U+5B9E\U+7EBF\U+5C42
62
256
6
ByLayer
370
-1
48
1.0
60
0
100
AcDbLine
10
-2559.9999999999
20
-63.0000000001164
30
0.0
11
-2354.99999999993
21
-63.0000000001273
31
0.0
39
0.0
210
0.0
220
0.0
230
1.0
0
LINE
5
162
330
22
100
AcDbEntity
8
\U+865A\U+7EBF\U+5C42
62
256
6
ByLayer
370
-1
48
0.5
60
0
100
AcDbLine
10
-534.99999999992
20
-763.000000000142
30
0.0
11
-534.99999999992
21
-63.0000000001146
31
0.0
39
0.0
210
0.0
220
0.0
230
1.0
0
LINE
5
163
330
22
100
AcDbEntity
8
\U+7C97\U+5B9E\U+7EBF\U+5C42
62
256
6
ByLayer
370
-1
48
1.0
60
0
100
AcDbLine
10
-284.999999999927
20
-63.0000000001273
30
0.0
11
-284.999999999927
21
-763.000000000142
31
0.0
39
0.0
210
0.0
220
0.0
230
1.0
0
LINE
5
164
330
22
100
AcDbEntity
8
\U+7C97\U+5B9E\U+7EBF\U+5C42
62
256
6
ByLayer
370
-1
48
1.0
60
0
100
AcDbLine
10
-284.999999999927
20
-763.000000000142
30
0.0
11
-489.999999999898
21
-763.000000000142
31
0.0
39
0.0
210
0.0
220
0.0
230
1.0
0
LINE
5
165
330
22
100
AcDbEntity
8
\U+865A\U+7EBF\U+5C42
62
256
6
ByLayer
370
-1
48
1.0
60
0
100
AcDbLine
10
-489.999999999898
20
-763.000000000142
30
0.0
11
-534.99999999992
21
-763.000000000142
31
0.0
39
0.0
210
0.0
220
0.0
230
1.0
0
LINE
5
166
330
22
100
AcDbEntity
8
\U+865A\U+7EBF\U+5C42
62
256
6
ByLayer
370
-1
48
1.0
60
0
100
AcDbLine
10
-534.99999999992
20
-63.0000000001146
30
0.0
11
-489.999999999898
21
-63.0000000001164
31
0.0
39
0.0
210
0.0
220
0.0
230
1.0
0
LINE
5
167
330
22
100
AcDbEntity
8
\U+7C97\U+5B9E\U+7EBF\U+5C42
62
256
6
ByLayer
370
-1
48
1.0
60
0
100
AcDbLine
10
-489.999999999898
20
-63.0000000001164
30
0.0
11
-284.999999999927
21
-63.0000000001273
31
0.0
39
0.0
210
0.0
220
0.0
230
1.0
0
LINE
5
168
330
22
100
AcDbEntity
8
\U+865A\U+7EBF\U+5C42
62
256
6
ByLayer
370
-1
48
0.5
60
0
100
AcDbLine
10
-304.99999999992
20
-763.000000000142
30
0.0
11
-304.99999999992
21
-63.0000000001146
31
0.0
39
0.0
210
0.0
220
0.0
230
1.0
0
LINE
5
169
330
22
100
AcDbEntity
8
\U+7C97\U+5B9E\U+7EBF\U+5C42
62
256
6
ByLayer
370
-1
48
1.0
60
0
100
AcDbLine
10
-54.9999999999272
20
-63.0000000001273
30
0.0
11
-54.9999999999272
21
-763.000000000142
31
0.0
39
0.0
210
0.0
220
0.0
230
1.0
0
LINE
5
16A
330
22
100
AcDbEntity
8
\U+7C97\U+5B9E\U+7EBF\U+5C42
62
256
6
ByLayer
370
-1
48
1.0
60
0
100
AcDbLine
10
-54.9999999999272
20
-763.000000000142
30
0.0
11
-259.999999999898
21
-763.000000000142
31
0.0
39
0.0
210
0.0
220
0.0
230
1.0
0
LINE
5
16B
330
22
100
AcDbEntity
8
\U+865A\U+7EBF\U+5C42
62
256
6
ByLayer
370
-1
48
1.0
60
0
100
AcDbLine
10
-259.999999999898
20
-763.000000000142
30
0.0
11
-304.99999999992
21
-763.000000000142
31
0.0
39
0.0
210
0.0
220
0.0
230
1.0
0
LINE
5
16C
330
22
100
AcDbEntity
8
\U+865A\U+7EBF\U+5C42
62
256
6
ByLayer
370
-1
48
1.0
60
0
100
AcDbLine
10
-304.99999999992
20
-63.0000000001146
30
0.0
11
-259.999999999898
21
-63.0000000001164
31
0.0
39
0.0
210
0.0
220
0.0
230
1.0
0
LINE
5
16D
330
22
100
AcDbEntity
8
\U+7C97\U+5B9E\U+7EBF\U+5C42
62
256
6
ByLayer
370
-1
48
1.0
60
0
100
AcDbLine
10
-259.999999999898
20
-63.0000000001164
30
0.0
11
-54.9999999999272
21
-63.0000000001273
31
0.0
39
0.0
210
0.0
220
0.0
230
1.0
0
ENDBLK
5
23
330
22
100
AcDbEntity
8
0
100
AcDbBlockEnd
0
BLOCK
5
170
330
16E
100
AcDbEntity
67
1
8
0
100
AcDbBlockBegin
2
*Paper_Space
70
0
10
0.0
20
0.0
30
0.0
3
*Paper_Space
4

0
ENDBLK
5
16F
330
16E
100
AcDbEntity
8
0
100
AcDbBlockEnd
0
ENDSEC
0
SECTION
2
ENTITIES
0
VIEWPORT
5
172
330
16E
100
AcDbEntity
67
1
8
0
62
256
6
ByLayer
370
-1
48
1.0
60
0
100
AcDbViewport
10
0.0
20
0.0
30
0.0
40
297.0
41
210.0
68
1
69
1
12
50.0
22
100.0
13
0.0
23
0.0
14
10.0
24
10.0
15
10.0
25
10.0
16
0.0
26
0.0
36
1.0
17
0.0
27
0.0
37
0.0
42
50.0
43
0.0
44
0.0
45
250.0
50
0.0
51
0.0
72
1000
90
819232
110
0.0
120
0.0
130
0.0
111
1.0
121
0.0
131
0.0
112
0.0
122
1.0
132
0.0
0
ENDSEC
0
SECTION
2
OBJECTS
0
DICTIONARY
5
177
330
0
100
AcDbDictionary
280
1
281
1
3
ACAD_GROUP
350
12
3
ACAD_LAYOUT
350
171
3
ACAD_DGNDEFINITIONS
350
F
3
ACAD_DWFDEFINITIONS
350
10
3
ACAD_PDFDEFINITIONS
350
11
3
ACAD_MLINESTYLE
350
B
3
ACAD_IMAGE_DICT
350
E
3
ACAD_IMAGE_VARS
350
21
0
DICTIONARY
5
12
330
177
100
AcDbDictionary
280
1
281
1
0
DICTIONARY
5
171
330
177
100
AcDbDictionary
280
1
281
1
3
Model
350
20
3
Layout1
350
173
0
DICTIONARY
5
F
330
177
100
AcDbDictionary
280
1
281
1
0
DICTIONARY
5
10
330
177
100
AcDbDictionary
280
1
281
1
0
DICTIONARY
5
11
330
177
100
AcDbDictionary
280
1
281
1
0
DICTIONARY
5
B
330
177
100
AcDbDictionary
280
1
281
1
3
Standard
350
1B
0
DICTIONARY
5
E
330
177
100
AcDbDictionary
280
1
281
1
0
DICTIONARY
5
6
330
5
100
AcDbDictionary
280
1
281
1
3
ACAD_LAYERSTATES
360
178
0
DICTIONARY
5
178
330
6
100
AcDbDictionary
280
1
281
1
0
LAYOUT
5
20
330
171
100
AcDbPlotSettings
1

2
none_device
4
ISO_A4_(210.00_x_297.00_MM)
6

40
7.5
41
20.0
42
7.5
43
20.0
44
210.0
45
297.0
46
0.0
47
0.0
48
0.0
49
0.0
140
0.0
141
0.0
142
1.0
143
1.0
70
11952
72
1
73
1
74
1
7

75
0
76
0
77
2
78
300
147
1.0
148
0.0
149
0.0
100
AcDbLayout
1
Model
71
0
10
-20.0
20
-7.5
11
277.0
21
202.5
12
0.0
22
0.0
32
0.0
14
25.7
24
19.5
34
0.0
15
231.3
25
175.5
35
0.0
146
0.0
13
0.0
23
0.0
33
0.0
16
1.0
26
0.0
36
0.0
17
0.0
27
1.0
37
0.0
76
0
330
1C
0
LAYOUT
5
173
330
171
100
AcDbPlotSettings
1

2
none_device
4
ISO_A4_(210.00_x_297.00_MM)
6

40
7.5
41
20.0
42
7.5
43
20.0
44
210.0
45
297.0
46
0.0
47
0.0
48
0.0
49
0.0
140
0.0
141
0.0
142
1.0
143
1.0
70
688
72
1
73
1
74
1
7

75
0
76
0
77
2
78
300
147
1.0
148
0.0
149
0.0
100
AcDbLayout
1
Layout1
71
1
10
-20.0
20
-7.5
11
277.0
21
202.5
12
0.0
22
0.0
32
0.0
14
25.7
24
19.5
34
0.0
15
231.3
25
175.5
35
0.0
146
0.0
13
0.0
23
0.0
33
0.0
16
1.0
26
0.0
36
0.0
17
0.0
27
1.0
37
0.0
76
0
330
16E
0
MLINESTYLE
5
1B
330
B
100
AcDbMlineStyle
2
Standard
70
0
3

62
256
51
90.0
52
90.0
71
2
49
0.5
62
256
6
ByLayer
49
-0.5
62
256
6
ByLayer
0
RASTERVARIABLES
5
21
330
E
100
AcDbRasterVariables
90
0
70
1
71
1
72
0
0
ENDSEC
0
EOF
