999
DXF file generated by netDxf https://github.com/haplokuon/netDxf, Copyright(C) 2009-2020 Daniel Carvajal, Licensed under LGPL
0
SECTION
2
HEADER
9
$ACADVER
1
AC1015
9
$DWGCODEPAGE
3
ANSI_1252
9
$HANDSEED
5
250
9
$ANGBASE
50
0.0
9
$ANGDIR
70
0
9
$ATTMODE
70
1
9
$AUNITS
70
0
9
$AUPREC
70
0
9
$CECOLOR
62
256
9
$CELTSCALE
40
1.0
9
$CELTYPE
6
ByLayer
9
$CELWEIGHT
370
-1
9
$CLAYER
8
0
9
$CMLJUST
70
0
9
$CMLSCALE
40
20.0
9
$CMLSTYLE
2
Standard
9
$DIMSTYLE
2
Standard
9
$TEXTSIZE
40
2.5
9
$TEXTSTYLE
7
Standard
9
$LUNITS
70
2
9
$LUPREC
70
4
9
$MIRRTEXT
70
0
9
$EXTNAMES
290
1
9
$INSBASE
10
0.0
20
0.0
30
0.0
9
$INSUNITS
70
0
9
$LTSCALE
40
1.0
9
$LWDISPLAY
290
0
9
$PDMODE
70
0
9
$PDSIZE
40
0.0
9
$PLINEGEN
70
0
9
$PSLTSCALE
70
1
9
$TDCREATE
40
2459821.45291935
9
$TDUCREATE
40
2459821.11958602
9
$TDUPDATE
40
2459821.45291935
9
$TDUUPDATE
40
2459821.11958602
9
$TDINDWG
40
0.0
9
$UCSORG
10
0.0
20
0.0
30
0.0
9
$UCSXDIR
10
1.0
20
0.0
30
0.0
9
$UCSYDIR
10
0.0
20
1.0
30
0.0
9
$DIMADEC
70
0
9
$DIMALT
70
0
9
$DIMALTD
70
2
9
$DIMALTF
40
25.4
9
$DIMALTRND
40
0.0
9
$DIMALTTD
70
2
9
$DIMALTTZ
70
0
9
$DIMALTU
70
2
9
$DIMALTZ
70
0
9
$DIMAPOST
1

9
$DIMATFIT
70
3
9
$DIMAUNIT
70
0
9
$DIMASZ
40
0.18
9
$DIMAZIN
70
0
9
$DIMSAH
70
0
9
$DIMBLK
1

9
$DIMLDRBLK
1

9
$DIMCEN
40
0.09
9
$DIMCLRD
70
0
9
$DIMCLRE
70
0
9
$DIMCLRT
70
0
9
$DIMDEC
70
4
9
$DIMDLE
40
0.0
9
$DIMDLI
40
0.38
9
$DIMDSEP
70
46
9
$DIMEXE
40
0.18
9
$DIMEXO
40
0.0625
9
$DIMFXLON
70
0
9
$DIMFXL
40
1.0
9
$DIMGAP
40
0.09
9
$DIMJUST
70
0
9
$DIMLFAC
40
1.0
9
$DIMLUNIT
70
2
9
$DIMLWD
70
-2
9
$DIMLWE
70
-2
9
$DIMPOST
1

9
$DIMRND
40
0.0
9
$DIMSCALE
40
1.0
9
$DIMSD1
70
0
9
$DIMSD2
70
0
9
$DIMSE1
70
0
9
$DIMSE2
70
0
9
$DIMSOXD
70
0
9
$DIMTAD
70
0
9
$DIMTDEC
70
4
9
$DIMTFAC
40
1.0
9
$DIMTIH
70
0
9
$DIMTIX
70
0
9
$DIMTM
40
0.0
9
$DIMTMOVE
70
0
9
$DIMTOFL
70
0
9
$DIMTOH
70
0
9
$DIMTOL
70
0
9
$DIMLIM
70
0
9
$DIMTOLJ
70
1
9
$DIMTP
40
0.0
9
$DIMTXT
40
0.18
9
$DIMTXTDIRECTION
70
0
9
$DIMTZIN
70
0
9
$DIMZIN
70
0
9
$DIMFRAC
70
0
9
$DIMLTYPE
6
ByBlock
9
$DIMLTEX1
6
ByBlock
9
$DIMLTEX2
6
ByBlock
0
ENDSEC
0
SECTION
2
CLASSES
0
CLASS
1
RASTERVARIABLES
2
AcDbRasterVariables
3
ISM
90
0
280
0
281
0
0
ENDSEC
0
SECTION
2
TABLES
0
TABLE
2
APPID
5
4
330
0
100
AcDbSymbolTable
70
5
0
APPID
5
19
330
4
100
AcDbSymbolTableRecord
100
AcDbRegAppTableRecord
2
ACAD
70
0
0
APPID
5
28
330
4
100
AcDbSymbolTableRecord
100
AcDbRegAppTableRecord
2
AcAecLayerStandard
70
0
0
APPID
5
24B
330
4
100
AcDbSymbolTableRecord
100
AcDbRegAppTableRecord
2
AcCmTransparency
70
0
0
APPID
5
24C
330
4
100
AcDbSymbolTableRecord
100
AcDbRegAppTableRecord
2
GradientColor1ACI
70
0
0
APPID
5
24D
330
4
100
AcDbSymbolTableRecord
100
AcDbRegAppTableRecord
2
GradientColor2ACI
70
0
0
ENDTAB
0
TABLE
2
VPORT
5
1
330
0
100
AcDbSymbolTable
70
1
0
VPORT
5
2
330
1
100
AcDbSymbolTableRecord
100
AcDbViewportTableRecord
2
*Active
70
0
10
0.0
20
0.0
11
1.0
21
1.0
12
0.0
22
0.0
13
0.0
23
0.0
14
0.5
24
0.5
15
10.0
25
10.0
16
0.0
26
0.0
36
1.0
17
0.0
27
0.0
37
0.0
40
10.0
41
1.0
75
0
76
1
0
ENDTAB
0
TABLE
2
LTYPE
5
7
330
0
100
AcDbSymbolTable
70
5
0
LTYPE
5
15
330
7
100
AcDbSymbolTableRecord
100
AcDbLinetypeTableRecord
2
Continuous
70
0
3
Solid line
72
65
73
0
40
0.0
0
LTYPE
5
16
330
7
100
AcDbSymbolTableRecord
100
AcDbLinetypeTableRecord
2
ByLayer
70
0
3

72
65
73
0
40
0.0
0
LTYPE
5
17
330
7
100
AcDbSymbolTableRecord
100
AcDbLinetypeTableRecord
2
ByBlock
70
0
3

72
65
73
0
40
0.0
0
LTYPE
5
27
330
7
100
AcDbSymbolTableRecord
100
AcDbLinetypeTableRecord
2
\U+70B9\U+753B\U+7EBF
70
0
3
\U+70B9\U+753B\U+7EBF: ____ . ____ . ____ . ____ . ____ . ____
72
65
73
4
40
18.0
49
12.0
74
0
49
-2.0
74
0
49
2.0
74
0
49
-2.0
74
0
0
LTYPE
5
4A
330
7
100
AcDbSymbolTableRecord
100
AcDbLinetypeTableRecord
2
\U+865A\U+7EBF
70
0
3
\U+865A\U+7EBF: __ __ __ __ __ __ __ __ __ __ __ __ __
72
65
73
2
40
2.0
49
1.0
74
0
49
-1.0
74
0
0
ENDTAB
0
TABLE
2
LAYER
5
5
102
{ACAD_XDICTIONARY
360
6
102
}
330
0
100
AcDbSymbolTable
70
5
0
LAYER
5
14
330
5
100
AcDbSymbolTableRecord
100
AcDbLayerTableRecord
2
0
70
0
62
7
6
Continuous
290
1
370
-3
390
0
0
LAYER
5
26
330
5
100
AcDbSymbolTableRecord
100
AcDbLayerTableRecord
2
\U+4E2D\U+5FC3\U+7EBF\U+5C42
70
0
62
1
6
\U+70B9\U+753B\U+7EBF
290
1
370
18
390
0
1001
AcAecLayerStandard
1000

1000
\U+4E2D\U+5FC3\U+7EBF\U+5C42
0
LAYER
5
32
330
5
100
AcDbSymbolTableRecord
100
AcDbLayerTableRecord
2
\U+7EC6\U+5B9E\U+7EBF\U+5C42
70
0
62
7
6
Continuous
290
1
370
18
390
0
1001
AcAecLayerStandard
1000

1000
\U+7EC6\U+5B9E\U+7EBF\U+5C42
0
LAYER
5
44
330
5
100
AcDbSymbolTableRecord
100
AcDbLayerTableRecord
2
\U+7C97\U+5B9E\U+7EBF\U+5C42
70
0
62
7
6
Continuous
290
1
370
35
390
0
1001
AcAecLayerStandard
1000

1000
\U+7C97\U+5B9E\U+7EBF\U+5C42
0
LAYER
5
49
330
5
100
AcDbSymbolTableRecord
100
AcDbLayerTableRecord
2
\U+865A\U+7EBF\U+5C42
70
0
62
6
6
\U+865A\U+7EBF
290
1
370
25
390
0
1001
AcAecLayerStandard
1000

1000
\U+865A\U+7EBF\U+5C42
0
ENDTAB
0
TABLE
2
STYLE
5
8
330
0
100
AcDbSymbolTable
70
1
0
STYLE
5
18
330
8
100
AcDbSymbolTableRecord
100
AcDbTextStyleTableRecord
2
Standard
3
simplex.shx
70
0
71
0
40
0.0
41
1.0
42
0.0
50
0.0
0
ENDTAB
0
TABLE
2
DIMSTYLE
5
A
330
0
100
AcDbSymbolTable
70
1
100
AcDbDimStyleTable
0
DIMSTYLE
105
1A
330
A
100
AcDbSymbolTableRecord
100
AcDbDimStyleTableRecord
2
Standard
3

4

40
1.0
41
0.18
42
0.0625
43
0.38
44
0.18
45
0.0
46
0.0
47
0.0
48
0.0
49
1.0
70
0
71
0
72
0
73
0
74
0
75
0
76
0
77
0
78
0
79
0
140
0.18
141
0.09
143
25.4
144
1.0
146
1.0
147
0.09
148
0.0
170
0
171
2
172
0
174
0
175
0
176
0
177
0
178
0
179
0
271
4
272
4
273
2
274
2
275
0
276
0
277
2
278
46
279
0
280
0
281
0
282
0
283
1
284
0
285
0
286
0
289
3
290
0
294
0
340
18
173
0
345
17
346
17
347
17
371
-2
372
-2
0
ENDTAB
0
TABLE
2
VIEW
5
3
330
0
100
AcDbSymbolTable
70
0
0
ENDTAB
0
TABLE
2
UCS
5
C
330
0
100
AcDbSymbolTable
70
0
0
ENDTAB
0
TABLE
2
BLOCK_RECORD
5
D
330
0
100
AcDbSymbolTable
70
3
0
BLOCK_RECORD
5
1C
330
D
100
AcDbSymbolTableRecord
100
AcDbBlockTableRecord
2
*Model_Space
340
20
0
BLOCK_RECORD
5
22
330
D
100
AcDbSymbolTableRecord
100
AcDbBlockTableRecord
2
C$94D8366BE90045EA93F1CEA069C9C6FD_2_1
340
0
70
0
280
1
281
0
1001
ACAD
1000
DesignCenter Data
1002
{
1070
1
1070
0
1002
}
0
BLOCK_RECORD
5
245
330
D
100
AcDbSymbolTableRecord
100
AcDbBlockTableRecord
2
*Paper_Space
340
24A
0
ENDTAB
0
ENDSEC
0
SECTION
2
BLOCKS
0
BLOCK
5
1E
330
1C
100
AcDbEntity
67
0
8
0
100
AcDbBlockBegin
2
*Model_Space
70
0
10
0.0
20
0.0
30
0.0
3
*Model_Space
4

0
ENDBLK
5
1D
330
1C
100
AcDbEntity
8
0
100
AcDbBlockEnd
0
BLOCK
5
24
330
22
100
AcDbEntity
8
0
100
AcDbBlockBegin
2
C$94D8366BE90045EA93F1CEA069C9C6FD_2_1
70
0
10
0.0
20
0.0
30
0.0
3
C$94D8366BE90045EA93F1CEA069C9C6FD_2_1
4

0
CIRCLE
5
25
330
22
100
AcDbEntity
8
\U+4E2D\U+5FC3\U+7EBF\U+5C42
62
256
6
ByLayer
370
-1
48
1.0
60
0
100
AcDbCircle
10
2690.05247207638
20
2690.05247212516
30
0.0
40
2400.0
39
0.0
210
0.0
220
0.0
230
1.0
0
LINE
5
29
330
22
100
AcDbEntity
8
\U+4E2D\U+5FC3\U+7EBF\U+5C42
62
256
6
ByLayer
370
-1
48
1.0
60
0
100
AcDbLine
10
561.591453208588
20
3803.44999522692
30
0.0
11
561.591471171938
21
1576.65507292747
31
0.0
39
0.0
210
0.0
220
0.0
230
1.0
0
LINE
5
2A
330
22
100
AcDbEntity
8
\U+4E2D\U+5FC3\U+7EBF\U+5C42
62
256
6
ByLayer
370
-1
48
1.0
60
0
100
AcDbLine
10
661.591466575861
20
1403.44998951687
30
0.0
11
2590.05244728737
21
290.052543923957
31
0.0
39
0.0
210
0.0
220
0.0
230
1.0
0
LINE
5
2B
330
22
100
AcDbEntity
8
\U+4E2D\U+5FC3\U+7EBF\U+5C42
62
256
6
ByLayer
370
-1
48
1.0
60
0
100
AcDbLine
10
2790.05244728737
20
290.052538616466
30
0.0
11
4718.51341003459
21
1403.450015323
31
0.0
39
0.0
210
0.0
220
0.0
230
1.0
0
LINE
5
2C
330
22
100
AcDbEntity
8
\U+4E2D\U+5FC3\U+7EBF\U+5C42
62
256
6
ByLayer
370
-1
48
1.0
60
0
100
AcDbLine
10
4818.5134146316
20
1576.65509342623
30
0.0
11
4818.51339666825
21
3803.45001572568
31
0.0
39
0.0
210
0.0
220
0.0
230
1.0
0
LINE
5
2D
330
22
100
AcDbEntity
8
\U+4E2D\U+5FC3\U+7EBF\U+5C42
62
256
6
ByLayer
370
-1
48
1.0
60
0
100
AcDbLine
10
4718.51340126432
20
3976.65509913629
30
0.0
11
2790.05242055282
21
5090.05254472932
31
0.0
39
0.0
210
0.0
220
0.0
230
1.0
0
LINE
5
2E
330
22
100
AcDbEntity
8
\U+4E2D\U+5FC3\U+7EBF\U+5C42
62
256
6
ByLayer
370
-1
48
1.0
60
0
100
AcDbLine
10
2590.05242055282
20
5090.05255003669
30
0.0
11
661.591457804665
21
3976.65507333016
31
0.0
39
0.0
210
0.0
220
0.0
230
1.0
0
LINE
5
2F
330
22
100
AcDbEntity
8
\U+4E2D\U+5FC3\U+7EBF\U+5C42
62
256
6
ByLayer
370
-1
48
1.0
60
0
100
AcDbLine
10
0.0
20
2690.05247212516
30
0.0
11
5380.10494417697
21
2690.05247212516
31
0.0
39
0.0
210
0.0
220
0.0
230
1.0
0
LINE
5
30
330
22
100
AcDbEntity
8
\U+4E2D\U+5FC3\U+7EBF\U+5C42
62
256
6
ByLayer
370
-1
48
1.0
60
0
100
AcDbLine
10
2690.05247207638
20
0.0000000001164153
30
0.0
11
2690.05247207638
21
5380.1049442013
31
0.0
39
0.0
210
0.0
220
0.0
230
1.0
0
LINE
5
31
330
22
100
AcDbEntity
8
\U+7EC6\U+5B9E\U+7EBF\U+5C42
62
256
6
ByLayer
370
-1
48
1.0
60
0
100
AcDbLine
10
474.988929467191
20
1526.65507522567
30
0.0
11
648.194012877831
21
1626.65507062935
31
0.0
39
0.0
210
0.0
220
0.0
230
1.0
0
LINE
5
33
330
22
100
AcDbEntity
8
\U+7EC6\U+5B9E\U+7EBF\U+5C42
62
256
6
ByLayer
370
-1
48
1.0
60
0
100
AcDbLine
10
574.988924870843
20
1353.44999181508
30
0.0
11
748.194008281484
21
1453.44998721876
31
0.0
39
0.0
210
0.0
220
0.0
230
1.0
0
LINE
5
34
330
22
100
AcDbEntity
8
\U+7EC6\U+5B9E\U+7EBF\U+5C42
62
256
6
ByLayer
370
-1
48
1.0
60
0
100
AcDbLine
10
584.911979237663
20
1576.26276746317
30
0.0
11
654.194012602051
21
1616.26276562472
31
0.0
39
0.0
210
0.0
220
0.0
230
1.0
0
LINE
5
35
330
22
100
AcDbEntity
8
\U+7EC6\U+5B9E\U+7EBF\U+5C42
62
256
6
ByLayer
370
-1
48
1.0
60
0
100
AcDbLine
10
672.91197519323
20
1423.84229406205
30
0.0
11
742.194008557265
21
1463.8422922234
31
0.0
39
0.0
210
0.0
220
0.0
230
1.0
0
LINE
5
36
330
22
100
AcDbEntity
8
\U+7EC6\U+5B9E\U+7EBF\U+5C42
62
256
6
ByLayer
370
-1
48
1.0
60
0
100
AcDbLine
10
474.988929467294
20
1526.65507522561
30
0.0
11
480.988929191368
21
1516.26277022123
31
0.0
39
0.0
210
0.0
220
0.0
230
1.0
0
LINE
5
37
330
22
100
AcDbEntity
8
\U+7EC6\U+5B9E\U+7EBF\U+5C42
62
256
6
ByLayer
370
-1
48
1.0
60
0
100
AcDbLine
10
568.98892514664
20
1363.84229681981
30
0.0
11
574.988924870889
21
1353.44999181512
31
0.0
39
0.0
210
0.0
220
0.0
230
1.0
0
LINE
5
38
330
22
100
AcDbEntity
8
\U+7EC6\U+5B9E\U+7EBF\U+5C42
62
256
6
ByLayer
370
-1
48
1.0
60
0
100
AcDbLine
10
648.194012877885
20
1626.65507062927
30
0.0
11
654.194012601959
21
1616.26276562488
31
0.0
39
0.0
210
0.0
220
0.0
230
1.0
0
LINE
5
39
330
22
100
AcDbEntity
8
\U+7EC6\U+5B9E\U+7EBF\U+5C42
62
256
6
ByLayer
370
-1
48
1.0
60
0
100
AcDbLine
10
742.19400855723
20
1463.84229222346
30
0.0
11
748.194008281479
21
1453.44998721878
31
0.0
39
0.0
210
0.0
220
0.0
230
1.0
0
LINE
5
3A
330
22
100
AcDbEntity
8
\U+7EC6\U+5B9E\U+7EBF\U+5C42
62
256
6
ByLayer
370
-1
48
1.0
60
0
100
AcDbLine
10
579.055572197109
20
1554.40636115838
30
0.0
11
651.055568887913
21
1429.69870110246
31
0.0
39
0.0
210
0.0
220
0.0
230
1.0
0
ARC
5
3B
330
22
100
AcDbEntity
8
\U+7EC6\U+5B9E\U+7EBF\U+5C42
62
256
6
ByLayer
370
-1
48
1.0
60
0
100
AcDbCircle
39
0.0
10
592.911978869112
20
1562.40636079069
30
0.0
40
15.9999999992751
210
0.0
220
0.0
230
1.0
100
AcDbArc
50
119.99999847954
51
209.99999847954
0
ARC
5
3C
330
22
100
AcDbEntity
8
\U+7EC6\U+5B9E\U+7EBF\U+5C42
62
256
6
ByLayer
370
-1
48
1.0
60
0
100
AcDbCircle
39
0.0
10
664.911975560834
20
1437.69870073493
30
0.0
40
16.0000000001564
210
0.0
220
0.0
230
1.0
100
AcDbArc
50
209.999998479978
51
299.999998481551
0
LINE
5
3D
330
22
100
AcDbEntity
8
\U+7EC6\U+5B9E\U+7EBF\U+5C42
62
256
6
ByLayer
370
-1
48
1.0
60
0
100
AcDbLine
10
638.270958510715
20
1403.84229498109
30
0.0
11
568.98892514668
21
1363.84229681975
31
0.0
39
0.0
210
0.0
220
0.0
230
1.0
0
ARC
5
3E
330
22
100
AcDbEntity
8
\U+7EC6\U+5B9E\U+7EBF\U+5C42
62
256
6
ByLayer
370
-1
48
1.0
60
0
100
AcDbCircle
39
0.0
10
630.270958878446
20
1417.69870165404
30
0.0
40
16.0000000001564
210
0.0
220
0.0
230
1.0
100
AcDbArc
50
299.999998479541
51
29.9999984795405
0
LINE
5
3F
330
22
100
AcDbEntity
8
\U+7EC6\U+5B9E\U+7EBF\U+5C42
62
256
6
ByLayer
370
-1
48
1.0
60
0
100
AcDbLine
10
550.270962555853
20
1556.26276838261
30
0.0
11
480.988929191466
21
1516.26277022107
31
0.0
39
0.0
210
0.0
220
0.0
230
1.0
0
ARC
5
40
330
22
100
AcDbEntity
8
\U+7EC6\U+5B9E\U+7EBF\U+5C42
62
256
6
ByLayer
370
-1
48
1.0
60
0
100
AcDbCircle
39
0.0
10
558.270962188249
20
1542.40636171068
30
0.0
40
15.9999999992751
210
0.0
220
0.0
230
1.0
100
AcDbArc
50
29.9999984760285
51
119.999998465492
0
LINE
5
41
330
22
100
AcDbEntity
8
\U+7EC6\U+5B9E\U+7EBF\U+5C42
62
256
6
ByLayer
370
-1
48
1.0
60
0
100
AcDbLine
10
572.127368860685
20
1550.40636134224
30
0.0
11
644.12736555149
21
1425.69870128631
31
0.0
39
0.0
210
0.0
220
0.0
230
1.0
0
LINE
5
42
330
22
100
AcDbEntity
8
\U+7EC6\U+5B9E\U+7EBF\U+5C42
62
256
6
ByLayer
370
-1
48
1.0
60
0
100
AcDbLine
10
572.127368860959
20
1550.40636134176
30
0.0
11
644.127365551488
21
1425.69870128631
31
0.0
39
0.0
210
0.0
220
0.0
230
1.0
0
LINE
5
43
330
22
100
AcDbEntity
8
\U+7C97\U+5B9E\U+7EBF\U+5C42
62
256
6
ByLayer
370
-1
48
1.0
60
0
100
AcDbLine
10
675.645920880457
20
1729.10697518466
30
0.0
11
850.645912836762
21
1425.99807921627
31
0.0
39
0.0
210
0.0
220
0.0
230
1.0
0
LINE
5
45
330
22
100
AcDbEntity
8
\U+7C97\U+5B9E\U+7EBF\U+5C42
62
256
6
ByLayer
370
-1
48
1.0
60
0
100
AcDbLine
10
372.5370249118
20
1554.10698322824
30
0.0
11
675.645920880585
21
1729.10697518478
31
0.0
39
0.0
210
0.0
220
0.0
230
1.0
0
LINE
5
46
330
22
100
AcDbEntity
8
\U+7C97\U+5B9E\U+7EBF\U+5C42
62
256
6
ByLayer
370
-1
48
1.0
60
0
100
AcDbLine
10
547.537016868192
20
1250.99808725971
30
0.0
11
850.645912837077
21
1425.9980792163
31
0.0
39
0.0
210
0.0
220
0.0
230
1.0
0
LINE
5
47
330
22
100
AcDbEntity
8
\U+7C97\U+5B9E\U+7EBF\U+5C42
62
256
6
ByLayer
370
-1
48
1.0
60
0
100
AcDbLine
10
372.537024911924
20
1554.10698322826
30
0.0
11
547.537016868316
21
1250.99808725973
31
0.0
39
0.0
210
0.0
220
0.0
230
1.0
0
CIRCLE
5
48
330
22
100
AcDbEntity
8
\U+865A\U+7EBF\U+5C42
62
256
6
ByLayer
370
-1
48
1.0
60
0
100
AcDbCircle
10
629.89274087612
20
1558.35380092575
30
0.0
40
11.0
39
0.0
210
0.0
220
0.0
230
1.0
0
CIRCLE
5
4B
330
22
100
AcDbEntity
8
\U+865A\U+7EBF\U+5C42
62
256
6
ByLayer
370
-1
48
1.0
60
0
100
AcDbCircle
10
679.892738577925
20
1471.7512592205
30
0.0
40
11.0
39
0.0
210
0.0
220
0.0
230
1.0
0
CIRCLE
5
4C
330
22
100
AcDbEntity
8
\U+865A\U+7EBF\U+5C42
62
256
6
ByLayer
370
-1
48
1.0
60
0
100
AcDbCircle
10
543.290199170825
20
1508.35380322393
30
0.0
40
11.0
39
0.0
210
0.0
220
0.0
230
1.0
0
CIRCLE
5
4D
330
22
100
AcDbEntity
8
\U+865A\U+7EBF\U+5C42
62
256
6
ByLayer
370
-1
48
1.0
60
0
100
AcDbCircle
10
593.29019687263
20
1421.75126151867
30
0.0
40
11.0
39
0.0
210
0.0
220
0.0
230
1.0
0
LINE
5
4E
330
22
100
AcDbEntity
8
\U+4E2D\U+5FC3\U+7EBF\U+5C42
62
256
6
ByLayer
370
-1
48
1.0
60
0
100
AcDbLine
10
525.286332007693
20
1497.95926630791
30
0.0
11
648.386711539048
21
1569.03129921206
31
0.0
39
0.0
210
0.0
220
0.0
230
1.0
0
LINE
5
4F
330
22
100
AcDbEntity
8
\U+4E2D\U+5FC3\U+7EBF\U+5C42
62
256
6
ByLayer
370
-1
48
1.0
60
0
100
AcDbLine
10
575.28632970952
20
1411.35672460262
30
0.0
11
698.386709240874
21
1482.42875750677
31
0.0
39
0.0
210
0.0
220
0.0
230
1.0
0
LINE
5
50
330
22
100
AcDbEntity
8
\U+4E2D\U+5FC3\U+7EBF\U+5C42
62
256
6
ByLayer
370
-1
48
1.0
60
0
100
AcDbLine
10
530.47091117631
20
1530.55746270803
30
0.0
11
605.63982818252
21
1400.36107132431
31
0.0
39
0.0
210
0.0
220
0.0
230
1.0
0
LINE
5
51
330
22
100
AcDbEntity
8
\U+4E2D\U+5FC3\U+7EBF\U+5C42
62
256
6
ByLayer
370
-1
48
1.0
60
0
100
AcDbLine
10
617.073452881605
20
1580.55746040986
30
0.0
11
692.242369887815
21
1450.36106902614
31
0.0
39
0.0
210
0.0
220
0.0
230
1.0
0
LINE
5
52
330
22
100
AcDbEntity
8
\U+4E2D\U+5FC3\U+7EBF\U+5C42
62
256
6
ByLayer
370
-1
48
1.0
60
0
100
AcDbLine
10
611.591468874365
20
1490.05253122223
30
0.0
11
718.677191471032
21
1304.57460755263
31
0.0
39
0.0
210
0.0
220
0.0
230
1.0
0
LINE
5
53
330
22
100
AcDbEntity
8
\U+4E2D\U+5FC3\U+7EBF\U+5C42
62
256
6
ByLayer
370
-1
48
1.0
60
0
100
AcDbLine
10
611.591468874364
20
1490.05253122223
30
0.0
11
504.505746277697
21
1675.53045489183
31
0.0
39
0.0
210
0.0
220
0.0
230
1.0
0
CIRCLE
5
54
330
22
100
AcDbEntity
8
\U+7C97\U+5B9E\U+7EBF\U+5C42
62
256
6
ByLayer
370
-1
48
1.0
60
0
100
AcDbCircle
10
659.174776078874
20
1667.63583245149
30
0.0
40
17.0
39
0.0
210
0.0
220
0.0
230
1.0
0
LINE
5
55
330
22
100
AcDbEntity
8
\U+4E2D\U+5FC3\U+7EBF\U+5C42
62
256
6
ByLayer
370
-1
48
1.0
60
0
100
AcDbLine
10
633.688569336186
20
1652.92136502975
30
0.0
11
684.660983824305
21
1682.35030045216
31
0.0
39
0.0
210
0.0
220
0.0
230
1.0
0
LINE
5
56
330
22
100
AcDbEntity
8
\U+4E2D\U+5FC3\U+7EBF\U+5C42
62
256
6
ByLayer
370
-1
48
1.0
60
0
100
AcDbLine
10
644.460306531039
20
1693.12204287668
30
0.0
11
673.889244702246
21
1642.14962362752
31
0.0
39
0.0
210
0.0
220
0.0
230
1.0
0
CIRCLE
5
57
330
22
100
AcDbEntity
8
\U+7C97\U+5B9E\U+7EBF\U+5C42
62
256
6
ByLayer
370
-1
48
1.0
60
0
100
AcDbCircle
10
789.174770103622
20
1442.46922401772
30
0.0
40
17.0
39
0.0
210
0.0
220
0.0
230
1.0
0
LINE
5
58
330
22
100
AcDbEntity
8
\U+4E2D\U+5FC3\U+7EBF\U+5C42
62
256
6
ByLayer
370
-1
48
1.0
60
0
100
AcDbLine
10
763.688563360934
20
1427.75475659598
30
0.0
11
814.660977849053
21
1457.1836920184
31
0.0
39
0.0
210
0.0
220
0.0
230
1.0
0
LINE
5
59
330
22
100
AcDbEntity
8
\U+4E2D\U+5FC3\U+7EBF\U+5C42
62
256
6
ByLayer
370
-1
48
1.0
60
0
100
AcDbLine
10
803.889239651458
20
1416.98301359253
30
0.0
11
774.46030148025
21
1467.95543284169
31
0.0
39
0.0
210
0.0
220
0.0
230
1.0
0
CIRCLE
5
5A
330
22
100
AcDbEntity
8
\U+7C97\U+5B9E\U+7EBF\U+5C42
62
256
6
ByLayer
370
-1
48
1.0
60
0
100
AcDbCircle
10
564.008161669855
20
1312.46922999297
30
0.0
40
17.0
39
0.0
210
0.0
220
0.0
230
1.0
0
LINE
5
5B
330
22
100
AcDbEntity
8
\U+4E2D\U+5FC3\U+7EBF\U+5C42
62
256
6
ByLayer
370
-1
48
1.0
60
0
100
AcDbLine
10
589.494368412544
20
1327.18369741472
30
0.0
11
538.521953924425
21
1297.7547619923
31
0.0
39
0.0
210
0.0
220
0.0
230
1.0
0
LINE
5
5C
330
22
100
AcDbEntity
8
\U+4E2D\U+5FC3\U+7EBF\U+5C42
62
256
6
ByLayer
370
-1
48
1.0
60
0
100
AcDbLine
10
578.722631217691
20
1286.98301956778
30
0.0
11
549.293693046483
21
1337.95543881694
31
0.0
39
0.0
210
0.0
220
0.0
230
1.0
0
CIRCLE
5
5D
330
22
100
AcDbEntity
8
\U+7C97\U+5B9E\U+7EBF\U+5C42
62
256
6
ByLayer
370
-1
48
1.0
60
0
100
AcDbCircle
10
434.008167645107
20
1537.63583842674
30
0.0
40
17.0
39
0.0
210
0.0
220
0.0
230
1.0
0
LINE
5
5E
330
22
100
AcDbEntity
8
\U+4E2D\U+5FC3\U+7EBF\U+5C42
62
256
6
ByLayer
370
-1
48
1.0
60
0
100
AcDbLine
10
459.494374387796
20
1552.35030584848
30
0.0
11
408.521959899677
21
1522.92137042606
31
0.0
39
0.0
210
0.0
220
0.0
230
1.0
0
LINE
5
5F
330
22
100
AcDbEntity
8
\U+4E2D\U+5FC3\U+7EBF\U+5C42
62
256
6
ByLayer
370
-1
48
1.0
60
0
100
AcDbLine
10
419.293698097271
20
1563.12204885193
30
0.0
11
448.722636268479
21
1512.14962960277
31
0.0
39
0.0
210
0.0
220
0.0
230
1.0
0
LINE
5
60
330
22
100
AcDbEntity
8
\U+4E2D\U+5FC3\U+7EBF\U+5C42
62
256
6
ByLayer
370
-1
48
1.0
60
0
100
AcDbLine
10
785.448760657952
20
1590.42907928268
30
0.0
11
440.212357244471
21
1391.10676105324
31
0.0
39
0.0
210
0.0
220
0.0
230
1.0
0
LINE
5
61
330
22
100
AcDbEntity
8
\U+7EC6\U+5B9E\U+7EBF\U+5C42
62
256
6
ByLayer
370
-1
48
1.0
60
0
100
AcDbLine
10
474.988929467191
20
1526.65507522567
30
0.0
11
648.194012877831
21
1626.65507062935
31
0.0
39
0.0
210
0.0
220
0.0
230
1.0
0
LINE
5
62
330
22
100
AcDbEntity
8
\U+7EC6\U+5B9E\U+7EBF\U+5C42
62
256
6
ByLayer
370
-1
48
1.0
60
0
100
AcDbLine
10
574.988924870843
20
1353.44999181508
30
0.0
11
748.194008281484
21
1453.44998721876
31
0.0
39
0.0
210
0.0
220
0.0
230
1.0
0
LINE
5
63
330
22
100
AcDbEntity
8
\U+7EC6\U+5B9E\U+7EBF\U+5C42
62
256
6
ByLayer
370
-1
48
1.0
60
0
100
AcDbLine
10
584.911979237663
20
1576.26276746317
30
0.0
11
654.19401260205
21
1616.26276562472
31
0.0
39
0.0
210
0.0
220
0.0
230
1.0
0
LINE
5
64
330
22
100
AcDbEntity
8
\U+7EC6\U+5B9E\U+7EBF\U+5C42
62
256
6
ByLayer
370
-1
48
1.0
60
0
100
AcDbLine
10
672.91197519323
20
1423.84229406205
30
0.0
11
742.194008557265
21
1463.8422922234
31
0.0
39
0.0
210
0.0
220
0.0
230
1.0
0
LINE
5
65
330
22
100
AcDbEntity
8
\U+7EC6\U+5B9E\U+7EBF\U+5C42
62
256
6
ByLayer
370
-1
48
1.0
60
0
100
AcDbLine
10
474.988929467294
20
1526.65507522561
30
0.0
11
480.988929191368
21
1516.26277022123
31
0.0
39
0.0
210
0.0
220
0.0
230
1.0
0
LINE
5
66
330
22
100
AcDbEntity
8
\U+7EC6\U+5B9E\U+7EBF\U+5C42
62
256
6
ByLayer
370
-1
48
1.0
60
0
100
AcDbLine
10
568.98892514664
20
1363.84229681981
30
0.0
11
574.988924870889
21
1353.44999181512
31
0.0
39
0.0
210
0.0
220
0.0
230
1.0
0
LINE
5
67
330
22
100
AcDbEntity
8
\U+7EC6\U+5B9E\U+7EBF\U+5C42
62
256
6
ByLayer
370
-1
48
1.0
60
0
100
AcDbLine
10
648.194012877885
20
1626.65507062927
30
0.0
11
654.194012601959
21
1616.26276562488
31
0.0
39
0.0
210
0.0
220
0.0
230
1.0
0
LINE
5
68
330
22
100
AcDbEntity
8
\U+7EC6\U+5B9E\U+7EBF\U+5C42
62
256
6
ByLayer
370
-1
48
1.0
60
0
100
AcDbLine
10
742.19400855723
20
1463.84229222346
30
0.0
11
748.194008281479
21
1453.44998721878
31
0.0
39
0.0
210
0.0
220
0.0
230
1.0
0
LINE
5
69
330
22
100
AcDbEntity
8
\U+7EC6\U+5B9E\U+7EBF\U+5C42
62
256
6
ByLayer
370
-1
48
1.0
60
0
100
AcDbLine
10
579.055572197109
20
1554.40636115838
30
0.0
11
651.055568887913
21
1429.69870110246
31
0.0
39
0.0
210
0.0
220
0.0
230
1.0
0
ARC
5
6A
330
22
100
AcDbEntity
8
\U+7EC6\U+5B9E\U+7EBF\U+5C42
62
256
6
ByLayer
370
-1
48
1.0
60
0
100
AcDbCircle
39
0.0
10
592.911978869112
20
1562.40636079069
30
0.0
40
15.9999999992751
210
0.0
220
0.0
230
1.0
100
AcDbArc
50
119.999998479541
51
209.99999847954
0
ARC
5
6B
330
22
100
AcDbEntity
8
\U+7EC6\U+5B9E\U+7EBF\U+5C42
62
256
6
ByLayer
370
-1
48
1.0
60
0
100
AcDbCircle
39
0.0
10
664.911975560834
20
1437.69870073493
30
0.0
40
16.0000000001564
210
0.0
220
0.0
230
1.0
100
AcDbArc
50
209.999998479978
51
299.999998481549
0
LINE
5
6C
330
22
100
AcDbEntity
8
\U+7EC6\U+5B9E\U+7EBF\U+5C42
62
256
6
ByLayer
370
-1
48
1.0
60
0
100
AcDbLine
10
638.270958510715
20
1403.84229498109
30
0.0
11
568.98892514668
21
1363.84229681975
31
0.0
39
0.0
210
0.0
220
0.0
230
1.0
0
ARC
5
6D
330
22
100
AcDbEntity
8
\U+7EC6\U+5B9E\U+7EBF\U+5C42
62
256
6
ByLayer
370
-1
48
1.0
60
0
100
AcDbCircle
39
0.0
10
630.270958878446
20
1417.69870165404
30
0.0
40
16.0000000001564
210
0.0
220
0.0
230
1.0
100
AcDbArc
50
299.999998479541
51
29.9999984795405
0
LINE
5
6E
330
22
100
AcDbEntity
8
\U+7EC6\U+5B9E\U+7EBF\U+5C42
62
256
6
ByLayer
370
-1
48
1.0
60
0
100
AcDbLine
10
550.270962555853
20
1556.26276838261
30
0.0
11
480.988929191466
21
1516.26277022107
31
0.0
39
0.0
210
0.0
220
0.0
230
1.0
0
ARC
5
6F
330
22
100
AcDbEntity
8
\U+7EC6\U+5B9E\U+7EBF\U+5C42
62
256
6
ByLayer
370
-1
48
1.0
60
0
100
AcDbCircle
39
0.0
10
558.270962188249
20
1542.40636171068
30
0.0
40
15.9999999992751
210
0.0
220
0.0
230
1.0
100
AcDbArc
50
29.9999984760283
51
119.99999846549
0
LINE
5
70
330
22
100
AcDbEntity
8
\U+7EC6\U+5B9E\U+7EBF\U+5C42
62
256
6
ByLayer
370
-1
48
1.0
60
0
100
AcDbLine
10
572.127368860685
20
1550.40636134224
30
0.0
11
644.12736555149
21
1425.69870128631
31
0.0
39
0.0
210
0.0
220
0.0
230
1.0
0
LINE
5
71
330
22
100
AcDbEntity
8
\U+7EC6\U+5B9E\U+7EBF\U+5C42
62
256
6
ByLayer
370
-1
48
1.0
60
0
100
AcDbLine
10
572.127368860959
20
1550.40636134176
30
0.0
11
644.127365551488
21
1425.69870128631
31
0.0
39
0.0
210
0.0
220
0.0
230
1.0
0
LINE
5
72
330
22
100
AcDbEntity
8
\U+7C97\U+5B9E\U+7EBF\U+5C42
62
256
6
ByLayer
370
-1
48
1.0
60
0
100
AcDbLine
10
675.645920880457
20
1729.10697518466
30
0.0
11
850.645912836762
21
1425.99807921627
31
0.0
39
0.0
210
0.0
220
0.0
230
1.0
0
LINE
5
73
330
22
100
AcDbEntity
8
\U+7C97\U+5B9E\U+7EBF\U+5C42
62
256
6
ByLayer
370
-1
48
1.0
60
0
100
AcDbLine
10
372.537024911799
20
1554.10698322824
30
0.0
11
675.645920880585
21
1729.10697518478
31
0.0
39
0.0
210
0.0
220
0.0
230
1.0
0
LINE
5
74
330
22
100
AcDbEntity
8
\U+7C97\U+5B9E\U+7EBF\U+5C42
62
256
6
ByLayer
370
-1
48
1.0
60
0
100
AcDbLine
10
547.537016868191
20
1250.99808725971
30
0.0
11
850.645912837077
21
1425.9980792163
31
0.0
39
0.0
210
0.0
220
0.0
230
1.0
0
LINE
5
75
330
22
100
AcDbEntity
8
\U+7C97\U+5B9E\U+7EBF\U+5C42
62
256
6
ByLayer
370
-1
48
1.0
60
0
100
AcDbLine
10
372.537024911924
20
1554.10698322826
30
0.0
11
547.537016868316
21
1250.99808725973
31
0.0
39
0.0
210
0.0
220
0.0
230
1.0
0
CIRCLE
5
76
330
22
100
AcDbEntity
8
\U+865A\U+7EBF\U+5C42
62
256
6
ByLayer
370
-1
48
1.0
60
0
100
AcDbCircle
10
629.89274087612
20
1558.35380092575
30
0.0
40
11.0
39
0.0
210
0.0
220
0.0
230
1.0
0
CIRCLE
5
77
330
22
100
AcDbEntity
8
\U+865A\U+7EBF\U+5C42
62
256
6
ByLayer
370
-1
48
1.0
60
0
100
AcDbCircle
10
679.892738577925
20
1471.7512592205
30
0.0
40
11.0
39
0.0
210
0.0
220
0.0
230
1.0
0
CIRCLE
5
78
330
22
100
AcDbEntity
8
\U+865A\U+7EBF\U+5C42
62
256
6
ByLayer
370
-1
48
1.0
60
0
100
AcDbCircle
10
543.290199170825
20
1508.35380322393
30
0.0
40
11.0
39
0.0
210
0.0
220
0.0
230
1.0
0
CIRCLE
5
79
330
22
100
AcDbEntity
8
\U+865A\U+7EBF\U+5C42
62
256
6
ByLayer
370
-1
48
1.0
60
0
100
AcDbCircle
10
593.29019687263
20
1421.75126151867
30
0.0
40
11.0
39
0.0
210
0.0
220
0.0
230
1.0
0
LINE
5
7A
330
22
100
AcDbEntity
8
\U+4E2D\U+5FC3\U+7EBF\U+5C42
62
256
6
ByLayer
370
-1
48
1.0
60
0
100
AcDbLine
10
525.286332007693
20
1497.95926630791
30
0.0
11
648.386711539048
21
1569.03129921206
31
0.0
39
0.0
210
0.0
220
0.0
230
1.0
0
LINE
5
7B
330
22
100
AcDbEntity
8
\U+4E2D\U+5FC3\U+7EBF\U+5C42
62
256
6
ByLayer
370
-1
48
1.0
60
0
100
AcDbLine
10
575.28632970952
20
1411.35672460262
30
0.0
11
698.386709240874
21
1482.42875750677
31
0.0
39
0.0
210
0.0
220
0.0
230
1.0
0
LINE
5
7C
330
22
100
AcDbEntity
8
\U+4E2D\U+5FC3\U+7EBF\U+5C42
62
256
6
ByLayer
370
-1
48
1.0
60
0
100
AcDbLine
10
530.47091117631
20
1530.55746270803
30
0.0
11
605.63982818252
21
1400.36107132431
31
0.0
39
0.0
210
0.0
220
0.0
230
1.0
0
LINE
5
7D
330
22
100
AcDbEntity
8
\U+4E2D\U+5FC3\U+7EBF\U+5C42
62
256
6
ByLayer
370
-1
48
1.0
60
0
100
AcDbLine
10
617.073452881605
20
1580.55746040986
30
0.0
11
692.242369887815
21
1450.36106902614
31
0.0
39
0.0
210
0.0
220
0.0
230
1.0
0
LINE
5
7E
330
22
100
AcDbEntity
8
\U+4E2D\U+5FC3\U+7EBF\U+5C42
62
256
6
ByLayer
370
-1
48
1.0
60
0
100
AcDbLine
10
611.591468874365
20
1490.05253122223
30
0.0
11
718.677191471032
21
1304.57460755263
31
0.0
39
0.0
210
0.0
220
0.0
230
1.0
0
LINE
5
7F
330
22
100
AcDbEntity
8
\U+4E2D\U+5FC3\U+7EBF\U+5C42
62
256
6
ByLayer
370
-1
48
1.0
60
0
100
AcDbLine
10
611.591468874364
20
1490.05253122223
30
0.0
11
504.505746277697
21
1675.53045489183
31
0.0
39
0.0
210
0.0
220
0.0
230
1.0
0
CIRCLE
5
80
330
22
100
AcDbEntity
8
\U+7C97\U+5B9E\U+7EBF\U+5C42
62
256
6
ByLayer
370
-1
48
1.0
60
0
100
AcDbCircle
10
659.174776078874
20
1667.63583245149
30
0.0
40
17.0
39
0.0
210
0.0
220
0.0
230
1.0
0
LINE
5
81
330
22
100
AcDbEntity
8
\U+4E2D\U+5FC3\U+7EBF\U+5C42
62
256
6
ByLayer
370
-1
48
1.0
60
0
100
AcDbLine
10
633.688569336186
20
1652.92136502975
30
0.0
11
684.660983824305
21
1682.35030045216
31
0.0
39
0.0
210
0.0
220
0.0
230
1.0
0
LINE
5
82
330
22
100
AcDbEntity
8
\U+4E2D\U+5FC3\U+7EBF\U+5C42
62
256
6
ByLayer
370
-1
48
1.0
60
0
100
AcDbLine
10
644.460306531039
20
1693.12204287668
30
0.0
11
673.889244702246
21
1642.14962362752
31
0.0
39
0.0
210
0.0
220
0.0
230
1.0
0
CIRCLE
5
83
330
22
100
AcDbEntity
8
\U+7C97\U+5B9E\U+7EBF\U+5C42
62
256
6
ByLayer
370
-1
48
1.0
60
0
100
AcDbCircle
10
789.174770103622
20
1442.46922401772
30
0.0
40
17.0
39
0.0
210
0.0
220
0.0
230
1.0
0
LINE
5
84
330
22
100
AcDbEntity
8
\U+4E2D\U+5FC3\U+7EBF\U+5C42
62
256
6
ByLayer
370
-1
48
1.0
60
0
100
AcDbLine
10
763.688563360934
20
1427.75475659598
30
0.0
11
814.660977849053
21
1457.1836920184
31
0.0
39
0.0
210
0.0
220
0.0
230
1.0
0
LINE
5
85
330
22
100
AcDbEntity
8
\U+4E2D\U+5FC3\U+7EBF\U+5C42
62
256
6
ByLayer
370
-1
48
1.0
60
0
100
AcDbLine
10
803.889239651458
20
1416.98301359253
30
0.0
11
774.460301480251
21
1467.95543284169
31
0.0
39
0.0
210
0.0
220
0.0
230
1.0
0
CIRCLE
5
86
330
22
100
AcDbEntity
8
\U+7C97\U+5B9E\U+7EBF\U+5C42
62
256
6
ByLayer
370
-1
48
1.0
60
0
100
AcDbCircle
10
564.008161669855
20
1312.46922999297
30
0.0
40
17.0
39
0.0
210
0.0
220
0.0
230
1.0
0
LINE
5
87
330
22
100
AcDbEntity
8
\U+4E2D\U+5FC3\U+7EBF\U+5C42
62
256
6
ByLayer
370
-1
48
1.0
60
0
100
AcDbLine
10
589.494368412544
20
1327.18369741472
30
0.0
11
538.521953924425
21
1297.7547619923
31
0.0
39
0.0
210
0.0
220
0.0
230
1.0
0
LINE
5
88
330
22
100
AcDbEntity
8
\U+4E2D\U+5FC3\U+7EBF\U+5C42
62
256
6
ByLayer
370
-1
48
1.0
60
0
100
AcDbLine
10
578.722631217691
20
1286.98301956778
30
0.0
11
549.293693046483
21
1337.95543881694
31
0.0
39
0.0
210
0.0
220
0.0
230
1.0
0
CIRCLE
5
89
330
22
100
AcDbEntity
8
\U+7C97\U+5B9E\U+7EBF\U+5C42
62
256
6
ByLayer
370
-1
48
1.0
60
0
100
AcDbCircle
10
434.008167645107
20
1537.63583842674
30
0.0
40
17.0
39
0.0
210
0.0
220
0.0
230
1.0
0
LINE
5
8A
330
22
100
AcDbEntity
8
\U+4E2D\U+5FC3\U+7EBF\U+5C42
62
256
6
ByLayer
370
-1
48
1.0
60
0
100
AcDbLine
10
459.494374387796
20
1552.35030584848
30
0.0
11
408.521959899677
21
1522.92137042606
31
0.0
39
0.0
210
0.0
220
0.0
230
1.0
0
LINE
5
8B
330
22
100
AcDbEntity
8
\U+4E2D\U+5FC3\U+7EBF\U+5C42
62
256
6
ByLayer
370
-1
48
1.0
60
0
100
AcDbLine
10
419.293698097271
20
1563.12204885193
30
0.0
11
448.722636268479
21
1512.14962960277
31
0.0
39
0.0
210
0.0
220
0.0
230
1.0
0
LINE
5
8C
330
22
100
AcDbEntity
8
\U+4E2D\U+5FC3\U+7EBF\U+5C42
62
256
6
ByLayer
370
-1
48
1.0
60
0
100
AcDbLine
10
785.448760657952
20
1590.42907928268
30
0.0
11
440.212357244471
21
1391.10676105324
31
0.0
39
0.0
210
0.0
220
0.0
230
1.0
0
LINE
5
8D
330
22
100
AcDbEntity
8
\U+7EC6\U+5B9E\U+7EBF\U+5C42
62
256
6
ByLayer
370
-1
48
1.0
60
0
100
AcDbLine
10
2590.05244463366
20
190.052543923912
30
0.0
11
2590.05244994107
21
390.05254392397
31
0.0
39
0.0
210
0.0
220
0.0
230
1.0
0
LINE
5
8E
330
22
100
AcDbEntity
8
\U+7EC6\U+5B9E\U+7EBF\U+5C42
62
256
6
ByLayer
370
-1
48
1.0
60
0
100
AcDbLine
10
2790.05244463366
20
190.052538616507
30
0.0
11
2790.05244994107
21
390.052538616565
31
0.0
39
0.0
210
0.0
220
0.0
230
1.0
0
LINE
5
8F
330
22
100
AcDbEntity
8
\U+7EC6\U+5B9E\U+7EBF\U+5C42
62
256
6
ByLayer
370
-1
48
1.0
60
0
100
AcDbLine
10
2602.05244781811
20
310.052543605351
30
0.0
11
2602.05244994107
21
390.052543605525
31
0.0
39
0.0
210
0.0
220
0.0
230
1.0
0
LINE
5
90
330
22
100
AcDbEntity
8
\U+7EC6\U+5B9E\U+7EBF\U+5C42
62
256
6
ByLayer
370
-1
48
1.0
60
0
100
AcDbLine
10
2778.05244781811
20
310.052538935241
30
0.0
11
2778.05244994107
21
390.052538935009
31
0.0
39
0.0
210
0.0
220
0.0
230
1.0
0
LINE
5
91
330
22
100
AcDbEntity
8
\U+7EC6\U+5B9E\U+7EBF\U+5C42
62
256
6
ByLayer
370
-1
48
1.0
60
0
100
AcDbLine
10
2590.05244463376
20
190.052543923972
30
0.0
11
2602.05244463347
21
190.052543605528
31
0.0
39
0.0
210
0.0
220
0.0
230
1.0
0
LINE
5
92
330
22
100
AcDbEntity
8
\U+7EC6\U+5B9E\U+7EBF\U+5C42
62
256
6
ByLayer
370
-1
48
1.0
60
0
100
AcDbLine
10
2778.05244463359
20
190.052538935012
30
0.0
11
2790.05244463365
21
190.052538616568
31
0.0
39
0.0
210
0.0
220
0.0
230
1.0
0
LINE
5
93
330
22
100
AcDbEntity
8
\U+7EC6\U+5B9E\U+7EBF\U+5C42
62
256
6
ByLayer
370
-1
48
1.0
60
0
100
AcDbLine
10
2590.05244994117
20
390.052543923973
30
0.0
11
2602.05244994088
21
390.052543605529
31
0.0
39
0.0
210
0.0
220
0.0
230
1.0
0
LINE
5
94
330
22
100
AcDbEntity
8
\U+7EC6\U+5B9E\U+7EBF\U+5C42
62
256
6
ByLayer
370
-1
48
1.0
60
0
100
AcDbLine
10
2778.05244994099
20
390.052538935012
30
0.0
11
2790.05244994105
21
390.052538616568
31
0.0
39
0.0
210
0.0
220
0.0
230
1.0
0
LINE
5
95
330
22
100
AcDbEntity
8
\U+7EC6\U+5B9E\U+7EBF\U+5C42
62
256
6
ByLayer
370
-1
48
1.0
60
0
100
AcDbLine
10
2618.05244739321
20
294.052543180937
30
0.0
11
2762.05244739356
21
294.052539359604
31
0.0
39
0.0
210
0.0
220
0.0
230
1.0
0
ARC
5
96
330
22
100
AcDbEntity
8
\U+7EC6\U+5B9E\U+7EBF\U+5C42
62
256
6
ByLayer
370
-1
48
1.0
60
0
100
AcDbCircle
39
0.0
10
2618.05244781737
20
310.052543180212
30
0.0
40
15.9999999992751
210
0.0
220
0.0
230
1.0
100
AcDbArc
50
179.99999847954
51
269.99999847954
0
ARC
5
97
330
22
100
AcDbEntity
8
\U+7EC6\U+5B9E\U+7EBF\U+5C42
62
256
6
ByLayer
370
-1
48
1.0
60
0
100
AcDbCircle
39
0.0
10
2762.05244781803
20
310.052539359761
30
0.0
40
16.0000000001564
210
0.0
220
0.0
230
1.0
100
AcDbArc
50
269.999998479978
51
359.999998481551
0
LINE
5
98
330
22
100
AcDbEntity
8
\U+7EC6\U+5B9E\U+7EBF\U+5C42
62
256
6
ByLayer
370
-1
48
1.0
60
0
100
AcDbLine
10
2778.05244675663
20
270.052538934784
30
0.0
11
2778.05244463366
21
190.052538935016
31
0.0
39
0.0
210
0.0
220
0.0
230
1.0
0
ARC
5
99
330
22
100
AcDbEntity
8
\U+7EC6\U+5B9E\U+7EBF\U+5C42
62
256
6
ByLayer
370
-1
48
1.0
60
0
100
AcDbCircle
39
0.0
10
2762.05244675655
20
270.052539359449
30
0.0
40
16.0000000001564
210
0.0
220
0.0
230
1.0
100
AcDbArc
50
359.999998479541
51
89.9999984795405
0
LINE
5
9A
330
22
100
AcDbEntity
8
\U+7EC6\U+5B9E\U+7EBF\U+5C42
62
256
6
ByLayer
370
-1
48
1.0
60
0
100
AcDbLine
10
2602.05244675663
20
270.052543605706
30
0.0
11
2602.05244463366
21
190.052543605532
31
0.0
39
0.0
210
0.0
220
0.0
230
1.0
0
ARC
5
9B
330
22
100
AcDbEntity
8
\U+7EC6\U+5B9E\U+7EBF\U+5C42
62
256
6
ByLayer
370
-1
48
1.0
60
0
100
AcDbCircle
39
0.0
10
2618.05244675588
20
270.052543181661
30
0.0
40
15.9999999992751
210
0.0
220
0.0
230
1.0
100
AcDbArc
50
89.9999984760285
51
179.999998465492
0
LINE
5
9C
330
22
100
AcDbEntity
8
\U+7EC6\U+5B9E\U+7EBF\U+5C42
62
256
6
ByLayer
370
-1
48
1.0
60
0
100
AcDbLine
10
2618.05244718091
20
286.052543180936
30
0.0
11
2762.05244718126
21
286.052539359605
31
0.0
39
0.0
210
0.0
220
0.0
230
1.0
0
LINE
5
9D
330
22
100
AcDbEntity
8
\U+7EC6\U+5B9E\U+7EBF\U+5C42
62
256
6
ByLayer
370
-1
48
1.0
60
0
100
AcDbLine
10
2618.05244718146
20
286.052543180937
30
0.0
11
2762.05244718126
21
286.052539359604
31
0.0
39
0.0
210
0.0
220
0.0
230
1.0
0
LINE
5
9E
330
22
100
AcDbEntity
8
\U+7C97\U+5B9E\U+7EBF\U+5C42
62
256
6
ByLayer
370
-1
48
1.0
60
0
100
AcDbLine
10
2515.05245193139
20
465.052545914249
30
0.0
11
2865.05245193121
21
465.052536626291
31
0.0
39
0.0
210
0.0
220
0.0
230
1.0
0
LINE
5
9F
330
22
100
AcDbEntity
8
\U+7C97\U+5B9E\U+7EBF\U+5C42
62
256
6
ByLayer
370
-1
48
1.0
60
0
100
AcDbLine
10
2515.05244264339
20
115.05254591413
30
0.0
11
2515.05245193134
21
465.052545914422
31
0.0
39
0.0
210
0.0
220
0.0
230
1.0
0
LINE
5
A0
330
22
100
AcDbEntity
8
\U+7C97\U+5B9E\U+7EBF\U+5C42
62
256
6
ByLayer
370
-1
48
1.0
60
0
100
AcDbLine
10
2865.05244264339
20
115.052536626172
30
0.0
11
2865.05245193134
21
465.052536626579
31
0.0
39
0.0
210
0.0
220
0.0
230
1.0
0
LINE
5
A1
330
22
100
AcDbEntity
8
\U+7C97\U+5B9E\U+7EBF\U+5C42
62
256
6
ByLayer
370
-1
48
1.0
60
0
100
AcDbLine
10
2515.05244264343
20
115.052545914249
30
0.0
11
2865.05244264343
21
115.052536626291
31
0.0
39
0.0
210
0.0
220
0.0
230
1.0
0
CIRCLE
5
A2
330
22
100
AcDbEntity
8
\U+865A\U+7EBF\U+5C42
62
256
6
ByLayer
370
-1
48
1.0
60
0
100
AcDbCircle
10
2640.05244861426
20
340.05254259712
30
0.0
40
11.0
39
0.0
210
0.0
220
0.0
230
1.0
0
CIRCLE
5
A3
330
22
100
AcDbEntity
8
\U+865A\U+7EBF\U+5C42
62
256
6
ByLayer
370
-1
48
1.0
60
0
100
AcDbCircle
10
2740.05244861422
20
340.052539943418
30
0.0
40
11.0
39
0.0
210
0.0
220
0.0
230
1.0
0
CIRCLE
5
A4
330
22
100
AcDbEntity
8
\U+865A\U+7EBF\U+5C42
62
256
6
ByLayer
370
-1
48
1.0
60
0
100
AcDbCircle
10
2640.05244596056
20
240.05254259712
30
0.0
40
11.0
39
0.0
210
0.0
220
0.0
230
1.0
0
CIRCLE
5
A5
330
22
100
AcDbEntity
8
\U+865A\U+7EBF\U+5C42
62
256
6
ByLayer
370
-1
48
1.0
60
0
100
AcDbCircle
10
2740.05244596051
20
240.052539943418
30
0.0
40
11.0
39
0.0
210
0.0
220
0.0
230
1.0
0
LINE
5
A6
330
22
100
AcDbEntity
8
\U+4E2D\U+5FC3\U+7EBF\U+5C42
62
256
6
ByLayer
370
-1
48
1.0
60
0
100
AcDbLine
10
2640.05244540883
20
219.263467809481
30
0.0
11
2640.05244918092
21
361.407540151215
31
0.0
39
0.0
210
0.0
220
0.0
230
1.0
0
LINE
5
A7
330
22
100
AcDbEntity
8
\U+4E2D\U+5FC3\U+7EBF\U+5C42
62
256
6
ByLayer
370
-1
48
1.0
60
0
100
AcDbLine
10
2740.05244540883
20
219.263465155779
30
0.0
11
2740.05244918092
21
361.407537497512
31
0.0
39
0.0
210
0.0
220
0.0
230
1.0
0
LINE
5
A8
330
22
100
AcDbEntity
8
\U+4E2D\U+5FC3\U+7EBF\U+5C42
62
256
6
ByLayer
370
-1
48
1.0
60
0
100
AcDbLine
10
2614.41386879309
20
240.052543277492
30
0.0
11
2764.75170971556
21
240.052539287974
31
0.0
39
0.0
210
0.0
220
0.0
230
1.0
0
LINE
5
A9
330
22
100
AcDbEntity
8
\U+4E2D\U+5FC3\U+7EBF\U+5C42
62
256
6
ByLayer
370
-1
48
1.0
60
0
100
AcDbLine
10
2614.41387144679
20
340.052543277492
30
0.0
11
2764.75171236926
21
340.052539287974
31
0.0
39
0.0
210
0.0
220
0.0
230
1.0
0
LINE
5
AA
330
22
100
AcDbEntity
8
\U+4E2D\U+5FC3\U+7EBF\U+5C42
62
256
6
ByLayer
370
-1
48
1.0
60
0
100
AcDbLine
10
2690.05244728737
20
290.05254127027
30
0.0
11
2904.22390232476
21
290.052535586797
31
0.0
39
0.0
210
0.0
220
0.0
230
1.0
0
LINE
5
AB
330
22
100
AcDbEntity
8
\U+4E2D\U+5FC3\U+7EBF\U+5C42
62
256
6
ByLayer
370
-1
48
1.0
60
0
100
AcDbLine
10
2690.05244728737
20
290.052541270269
30
0.0
11
2475.88099224997
21
290.052546953742
31
0.0
39
0.0
210
0.0
220
0.0
230
1.0
0
CIRCLE
5
AC
330
22
100
AcDbEntity
8
\U+7C97\U+5B9E\U+7EBF\U+5C42
62
256
6
ByLayer
370
-1
48
1.0
60
0
100
AcDbCircle
10
2560.05245073718
20
420.052544720083
30
0.0
40
17.0
39
0.0
210
0.0
220
0.0
230
1.0
0
LINE
5
AD
330
22
100
AcDbEntity
8
\U+4E2D\U+5FC3\U+7EBF\U+5C42
62
256
6
ByLayer
370
-1
48
1.0
60
0
100
AcDbLine
10
2560.05244995622
20
390.623608523941
30
0.0
11
2560.05245151814
21
449.481482074092
31
0.0
39
0.0
210
0.0
220
0.0
230
1.0
0
LINE
5
AE
330
22
100
AcDbEntity
8
\U+4E2D\U+5FC3\U+7EBF\U+5C42
62
256
6
ByLayer
370
-1
48
1.0
60
0
100
AcDbLine
10
2530.62351028885
20
420.05254550104
30
0.0
11
2589.48138933658
21
420.052543939127
31
0.0
39
0.0
210
0.0
220
0.0
230
1.0
0
CIRCLE
5
AF
330
22
100
AcDbEntity
8
\U+7C97\U+5B9E\U+7EBF\U+5C42
62
256
6
ByLayer
370
-1
48
1.0
60
0
100
AcDbCircle
10
2820.05245073718
20
420.052537820457
30
0.0
40
17.0
39
0.0
210
0.0
220
0.0
230
1.0
0
LINE
5
B0
330
22
100
AcDbEntity
8
\U+4E2D\U+5FC3\U+7EBF\U+5C42
62
256
6
ByLayer
370
-1
48
1.0
60
0
100
AcDbLine
10
2820.05244995622
20
390.623601624315
30
0.0
11
2820.05245151814
21
449.481475174465
31
0.0
39
0.0
210
0.0
220
0.0
230
1.0
0
LINE
5
B1
330
22
100
AcDbEntity
8
\U+4E2D\U+5FC3\U+7EBF\U+5C42
62
256
6
ByLayer
370
-1
48
1.0
60
0
100
AcDbLine
10
2849.48139118551
20
420.0525370395
30
0.0
11
2790.62351213778
21
420.052538601413
31
0.0
39
0.0
210
0.0
220
0.0
230
1.0
0
CIRCLE
5
B2
330
22
100
AcDbEntity
8
\U+7C97\U+5B9E\U+7EBF\U+5C42
62
256
6
ByLayer
370
-1
48
1.0
60
0
100
AcDbCircle
10
2820.05244383755
20
160.052537820457
30
0.0
40
17.0
39
0.0
210
0.0
220
0.0
230
1.0
0
LINE
5
B3
330
22
100
AcDbEntity
8
\U+4E2D\U+5FC3\U+7EBF\U+5C42
62
256
6
ByLayer
370
-1
48
1.0
60
0
100
AcDbLine
10
2820.05244461851
20
189.481474016599
30
0.0
11
2820.0524430566
21
130.623600466448
31
0.0
39
0.0
210
0.0
220
0.0
230
1.0
0
LINE
5
B4
330
22
100
AcDbEntity
8
\U+4E2D\U+5FC3\U+7EBF\U+5C42
62
256
6
ByLayer
370
-1
48
1.0
60
0
100
AcDbLine
10
2849.48138428588
20
160.0525370395
30
0.0
11
2790.62350523815
21
160.052538601413
31
0.0
39
0.0
210
0.0
220
0.0
230
1.0
0
CIRCLE
5
B5
330
22
100
AcDbEntity
8
\U+7C97\U+5B9E\U+7EBF\U+5C42
62
256
6
ByLayer
370
-1
48
1.0
60
0
100
AcDbCircle
10
2560.05244383755
20
160.052544720083
30
0.0
40
17.0
39
0.0
210
0.0
220
0.0
230
1.0
0
LINE
5
B6
330
22
100
AcDbEntity
8
\U+4E2D\U+5FC3\U+7EBF\U+5C42
62
256
6
ByLayer
370
-1
48
1.0
60
0
100
AcDbLine
10
2560.05244461851
20
189.481480916225
30
0.0
11
2560.0524430566
21
130.623607366075
31
0.0
39
0.0
210
0.0
220
0.0
230
1.0
0
LINE
5
B7
330
22
100
AcDbEntity
8
\U+4E2D\U+5FC3\U+7EBF\U+5C42
62
256
6
ByLayer
370
-1
48
1.0
60
0
100
AcDbLine
10
2530.62350338922
20
160.05254550104
30
0.0
11
2589.48138243695
21
160.052543939127
31
0.0
39
0.0
210
0.0
220
0.0
230
1.0
0
LINE
5
B8
330
22
100
AcDbEntity
8
\U+4E2D\U+5FC3\U+7EBF\U+5C42
62
256
6
ByLayer
370
-1
48
1.0
60
0
100
AcDbLine
10
2690.05245261462
20
490.805646618243
30
0.0
11
2690.05244203578
21
92.1609918362775
31
0.0
39
0.0
210
0.0
220
0.0
230
1.0
0
LINE
5
B9
330
22
100
AcDbEntity
8
\U+7EC6\U+5B9E\U+7EBF\U+5C42
62
256
6
ByLayer
370
-1
48
1.0
60
0
100
AcDbLine
10
2590.05244463366
20
190.052543923912
30
0.0
11
2590.05244994107
21
390.05254392397
31
0.0
39
0.0
210
0.0
220
0.0
230
1.0
0
LINE
5
BA
330
22
100
AcDbEntity
8
\U+7EC6\U+5B9E\U+7EBF\U+5C42
62
256
6
ByLayer
370
-1
48
1.0
60
0
100
AcDbLine
10
2790.05244463366
20
190.052538616507
30
0.0
11
2790.05244994107
21
390.052538616565
31
0.0
39
0.0
210
0.0
220
0.0
230
1.0
0
LINE
5
BB
330
22
100
AcDbEntity
8
\U+7EC6\U+5B9E\U+7EBF\U+5C42
62
256
6
ByLayer
370
-1
48
1.0
60
0
100
AcDbLine
10
2602.05244781811
20
310.052543605351
30
0.0
11
2602.05244994107
21
390.052543605525
31
0.0
39
0.0
210
0.0
220
0.0
230
1.0
0
LINE
5
BC
330
22
100
AcDbEntity
8
\U+7EC6\U+5B9E\U+7EBF\U+5C42
62
256
6
ByLayer
370
-1
48
1.0
60
0
100
AcDbLine
10
2778.05244781811
20
310.052538935241
30
0.0
11
2778.05244994107
21
390.052538935009
31
0.0
39
0.0
210
0.0
220
0.0
230
1.0
0
LINE
5
BD
330
22
100
AcDbEntity
8
\U+7EC6\U+5B9E\U+7EBF\U+5C42
62
256
6
ByLayer
370
-1
48
1.0
60
0
100
AcDbLine
10
2590.05244463376
20
190.052543923973
30
0.0
11
2602.05244463347
21
190.052543605528
31
0.0
39
0.0
210
0.0
220
0.0
230
1.0
0
LINE
5
BE
330
22
100
AcDbEntity
8
\U+7EC6\U+5B9E\U+7EBF\U+5C42
62
256
6
ByLayer
370
-1
48
1.0
60
0
100
AcDbLine
10
2778.05244463359
20
190.052538935012
30
0.0
11
2790.05244463365
21
190.052538616568
31
0.0
39
0.0
210
0.0
220
0.0
230
1.0
0
LINE
5
BF
330
22
100
AcDbEntity
8
\U+7EC6\U+5B9E\U+7EBF\U+5C42
62
256
6
ByLayer
370
-1
48
1.0
60
0
100
AcDbLine
10
2590.05244994117
20
390.052543923973
30
0.0
11
2602.05244994088
21
390.052543605529
31
0.0
39
0.0
210
0.0
220
0.0
230
1.0
0
LINE
5
C0
330
22
100
AcDbEntity
8
\U+7EC6\U+5B9E\U+7EBF\U+5C42
62
256
6
ByLayer
370
-1
48
1.0
60
0
100
AcDbLine
10
2778.05244994099
20
390.052538935012
30
0.0
11
2790.05244994105
21
390.052538616568
31
0.0
39
0.0
210
0.0
220
0.0
230
1.0
0
LINE
5
C1
330
22
100
AcDbEntity
8
\U+7EC6\U+5B9E\U+7EBF\U+5C42
62
256
6
ByLayer
370
-1
48
1.0
60
0
100
AcDbLine
10
2618.05244739321
20
294.052543180937
30
0.0
11
2762.05244739356
21
294.052539359604
31
0.0
39
0.0
210
0.0
220
0.0
230
1.0
0
ARC
5
C2
330
22
100
AcDbEntity
8
\U+7EC6\U+5B9E\U+7EBF\U+5C42
62
256
6
ByLayer
370
-1
48
1.0
60
0
100
AcDbCircle
39
0.0
10
2618.05244781737
20
310.052543180212
30
0.0
40
15.9999999992751
210
0.0
220
0.0
230
1.0
100
AcDbArc
50
179.99999847954
51
269.99999847954
0
ARC
5
C3
330
22
100
AcDbEntity
8
\U+7EC6\U+5B9E\U+7EBF\U+5C42
62
256
6
ByLayer
370
-1
48
1.0
60
0
100
AcDbCircle
39
0.0
10
2762.05244781803
20
310.052539359761
30
0.0
40
16.0000000001564
210
0.0
220
0.0
230
1.0
100
AcDbArc
50
269.999998479978
51
359.999998481549
0
LINE
5
C4
330
22
100
AcDbEntity
8
\U+7EC6\U+5B9E\U+7EBF\U+5C42
62
256
6
ByLayer
370
-1
48
1.0
60
0
100
AcDbLine
10
2778.05244675663
20
270.052538934784
30
0.0
11
2778.05244463366
21
190.052538935016
31
0.0
39
0.0
210
0.0
220
0.0
230
1.0
0
ARC
5
C5
330
22
100
AcDbEntity
8
\U+7EC6\U+5B9E\U+7EBF\U+5C42
62
256
6
ByLayer
370
-1
48
1.0
60
0
100
AcDbCircle
39
0.0
10
2762.05244675655
20
270.052539359449
30
0.0
40
16.0000000001564
210
0.0
220
0.0
230
1.0
100
AcDbArc
50
359.999998479541
51
89.9999984795405
0
LINE
5
C6
330
22
100
AcDbEntity
8
\U+7EC6\U+5B9E\U+7EBF\U+5C42
62
256
6
ByLayer
370
-1
48
1.0
60
0
100
AcDbLine
10
2602.05244675663
20
270.052543605706
30
0.0
11
2602.05244463366
21
190.052543605532
31
0.0
39
0.0
210
0.0
220
0.0
230
1.0
0
ARC
5
C7
330
22
100
AcDbEntity
8
\U+7EC6\U+5B9E\U+7EBF\U+5C42
62
256
6
ByLayer
370
-1
48
1.0
60
0
100
AcDbCircle
39
0.0
10
2618.05244675588
20
270.052543181661
30
0.0
40
15.9999999992751
210
0.0
220
0.0
230
1.0
100
AcDbArc
50
89.9999984760283
51
179.99999846549
0
LINE
5
C8
330
22
100
AcDbEntity
8
\U+7EC6\U+5B9E\U+7EBF\U+5C42
62
256
6
ByLayer
370
-1
48
1.0
60
0
100
AcDbLine
10
2618.05244718091
20
286.052543180936
30
0.0
11
2762.05244718126
21
286.052539359605
31
0.0
39
0.0
210
0.0
220
0.0
230
1.0
0
LINE
5
C9
330
22
100
AcDbEntity
8
\U+7EC6\U+5B9E\U+7EBF\U+5C42
62
256
6
ByLayer
370
-1
48
1.0
60
0
100
AcDbLine
10
2618.05244718146
20
286.052543180937
30
0.0
11
2762.05244718126
21
286.052539359604
31
0.0
39
0.0
210
0.0
220
0.0
230
1.0
0
LINE
5
CA
330
22
100
AcDbEntity
8
\U+7C97\U+5B9E\U+7EBF\U+5C42
62
256
6
ByLayer
370
-1
48
1.0
60
0
100
AcDbLine
10
2515.05245193139
20
465.052545914249
30
0.0
11
2865.05245193121
21
465.052536626291
31
0.0
39
0.0
210
0.0
220
0.0
230
1.0
0
LINE
5
CB
330
22
100
AcDbEntity
8
\U+7C97\U+5B9E\U+7EBF\U+5C42
62
256
6
ByLayer
370
-1
48
1.0
60
0
100
AcDbLine
10
2515.05244264339
20
115.05254591413
30
0.0
11
2515.05245193134
21
465.052545914422
31
0.0
39
0.0
210
0.0
220
0.0
230
1.0
0
LINE
5
CC
330
22
100
AcDbEntity
8
\U+7C97\U+5B9E\U+7EBF\U+5C42
62
256
6
ByLayer
370
-1
48
1.0
60
0
100
AcDbLine
10
2865.05244264339
20
115.052536626172
30
0.0
11
2865.05245193134
21
465.052536626579
31
0.0
39
0.0
210
0.0
220
0.0
230
1.0
0
LINE
5
CD
330
22
100
AcDbEntity
8
\U+7C97\U+5B9E\U+7EBF\U+5C42
62
256
6
ByLayer
370
-1
48
1.0
60
0
100
AcDbLine
10
2515.05244264343
20
115.052545914249
30
0.0
11
2865.05244264343
21
115.052536626291
31
0.0
39
0.0
210
0.0
220
0.0
230
1.0
0
CIRCLE
5
CE
330
22
100
AcDbEntity
8
\U+865A\U+7EBF\U+5C42
62
256
6
ByLayer
370
-1
48
1.0
60
0
100
AcDbCircle
10
2640.05244861426
20
340.05254259712
30
0.0
40
11.0
39
0.0
210
0.0
220
0.0
230
1.0
0
CIRCLE
5
CF
330
22
100
AcDbEntity
8
\U+865A\U+7EBF\U+5C42
62
256
6
ByLayer
370
-1
48
1.0
60
0
100
AcDbCircle
10
2740.05244861422
20
340.052539943418
30
0.0
40
11.0
39
0.0
210
0.0
220
0.0
230
1.0
0
CIRCLE
5
D0
330
22
100
AcDbEntity
8
\U+865A\U+7EBF\U+5C42
62
256
6
ByLayer
370
-1
48
1.0
60
0
100
AcDbCircle
10
2640.05244596056
20
240.05254259712
30
0.0
40
11.0
39
0.0
210
0.0
220
0.0
230
1.0
0
CIRCLE
5
D1
330
22
100
AcDbEntity
8
\U+865A\U+7EBF\U+5C42
62
256
6
ByLayer
370
-1
48
1.0
60
0
100
AcDbCircle
10
2740.05244596051
20
240.052539943418
30
0.0
40
11.0
39
0.0
210
0.0
220
0.0
230
1.0
0
LINE
5
D2
330
22
100
AcDbEntity
8
\U+4E2D\U+5FC3\U+7EBF\U+5C42
62
256
6
ByLayer
370
-1
48
1.0
60
0
100
AcDbLine
10
2640.05244540883
20
219.263467809481
30
0.0
11
2640.05244918092
21
361.407540151215
31
0.0
39
0.0
210
0.0
220
0.0
230
1.0
0
LINE
5
D3
330
22
100
AcDbEntity
8
\U+4E2D\U+5FC3\U+7EBF\U+5C42
62
256
6
ByLayer
370
-1
48
1.0
60
0
100
AcDbLine
10
2740.05244540883
20
219.263465155779
30
0.0
11
2740.05244918092
21
361.407537497512
31
0.0
39
0.0
210
0.0
220
0.0
230
1.0
0
LINE
5
D4
330
22
100
AcDbEntity
8
\U+4E2D\U+5FC3\U+7EBF\U+5C42
62
256
6
ByLayer
370
-1
48
1.0
60
0
100
AcDbLine
10
2614.41386879309
20
240.052543277492
30
0.0
11
2764.75170971556
21
240.052539287974
31
0.0
39
0.0
210
0.0
220
0.0
230
1.0
0
LINE
5
D5
330
22
100
AcDbEntity
8
\U+4E2D\U+5FC3\U+7EBF\U+5C42
62
256
6
ByLayer
370
-1
48
1.0
60
0
100
AcDbLine
10
2614.41387144679
20
340.052543277492
30
0.0
11
2764.75171236926
21
340.052539287974
31
0.0
39
0.0
210
0.0
220
0.0
230
1.0
0
LINE
5
D6
330
22
100
AcDbEntity
8
\U+4E2D\U+5FC3\U+7EBF\U+5C42
62
256
6
ByLayer
370
-1
48
1.0
60
0
100
AcDbLine
10
2690.05244728737
20
290.05254127027
30
0.0
11
2904.22390232476
21
290.052535586797
31
0.0
39
0.0
210
0.0
220
0.0
230
1.0
0
LINE
5
D7
330
22
100
AcDbEntity
8
\U+4E2D\U+5FC3\U+7EBF\U+5C42
62
256
6
ByLayer
370
-1
48
1.0
60
0
100
AcDbLine
10
2690.05244728737
20
290.052541270269
30
0.0
11
2475.88099224997
21
290.052546953742
31
0.0
39
0.0
210
0.0
220
0.0
230
1.0
0
CIRCLE
5
D8
330
22
100
AcDbEntity
8
\U+7C97\U+5B9E\U+7EBF\U+5C42
62
256
6
ByLayer
370
-1
48
1.0
60
0
100
AcDbCircle
10
2560.05245073718
20
420.052544720083
30
0.0
40
17.0
39
0.0
210
0.0
220
0.0
230
1.0
0
LINE
5
D9
330
22
100
AcDbEntity
8
\U+4E2D\U+5FC3\U+7EBF\U+5C42
62
256
6
ByLayer
370
-1
48
1.0
60
0
100
AcDbLine
10
2560.05244995622
20
390.623608523941
30
0.0
11
2560.05245151814
21
449.481482074092
31
0.0
39
0.0
210
0.0
220
0.0
230
1.0
0
LINE
5
DA
330
22
100
AcDbEntity
8
\U+4E2D\U+5FC3\U+7EBF\U+5C42
62
256
6
ByLayer
370
-1
48
1.0
60
0
100
AcDbLine
10
2530.62351028885
20
420.05254550104
30
0.0
11
2589.48138933658
21
420.052543939127
31
0.0
39
0.0
210
0.0
220
0.0
230
1.0
0
CIRCLE
5
DB
330
22
100
AcDbEntity
8
\U+7C97\U+5B9E\U+7EBF\U+5C42
62
256
6
ByLayer
370
-1
48
1.0
60
0
100
AcDbCircle
10
2820.05245073718
20
420.052537820457
30
0.0
40
17.0
39
0.0
210
0.0
220
0.0
230
1.0
0
LINE
5
DC
330
22
100
AcDbEntity
8
\U+4E2D\U+5FC3\U+7EBF\U+5C42
62
256
6
ByLayer
370
-1
48
1.0
60
0
100
AcDbLine
10
2820.05244995622
20
390.623601624315
30
0.0
11
2820.05245151814
21
449.481475174465
31
0.0
39
0.0
210
0.0
220
0.0
230
1.0
0
LINE
5
DD
330
22
100
AcDbEntity
8
\U+4E2D\U+5FC3\U+7EBF\U+5C42
62
256
6
ByLayer
370
-1
48
1.0
60
0
100
AcDbLine
10
2849.48139118551
20
420.0525370395
30
0.0
11
2790.62351213778
21
420.052538601413
31
0.0
39
0.0
210
0.0
220
0.0
230
1.0
0
CIRCLE
5
DE
330
22
100
AcDbEntity
8
\U+7C97\U+5B9E\U+7EBF\U+5C42
62
256
6
ByLayer
370
-1
48
1.0
60
0
100
AcDbCircle
10
2820.05244383755
20
160.052537820457
30
0.0
40
17.0
39
0.0
210
0.0
220
0.0
230
1.0
0
LINE
5
DF
330
22
100
AcDbEntity
8
\U+4E2D\U+5FC3\U+7EBF\U+5C42
62
256
6
ByLayer
370
-1
48
1.0
60
0
100
AcDbLine
10
2820.05244461851
20
189.481474016599
30
0.0
11
2820.0524430566
21
130.623600466448
31
0.0
39
0.0
210
0.0
220
0.0
230
1.0
0
LINE
5
E0
330
22
100
AcDbEntity
8
\U+4E2D\U+5FC3\U+7EBF\U+5C42
62
256
6
ByLayer
370
-1
48
1.0
60
0
100
AcDbLine
10
2849.48138428588
20
160.0525370395
30
0.0
11
2790.62350523815
21
160.052538601413
31
0.0
39
0.0
210
0.0
220
0.0
230
1.0
0
CIRCLE
5
E1
330
22
100
AcDbEntity
8
\U+7C97\U+5B9E\U+7EBF\U+5C42
62
256
6
ByLayer
370
-1
48
1.0
60
0
100
AcDbCircle
10
2560.05244383755
20
160.052544720083
30
0.0
40
17.0
39
0.0
210
0.0
220
0.0
230
1.0
0
LINE
5
E2
330
22
100
AcDbEntity
8
\U+4E2D\U+5FC3\U+7EBF\U+5C42
62
256
6
ByLayer
370
-1
48
1.0
60
0
100
AcDbLine
10
2560.05244461851
20
189.481480916225
30
0.0
11
2560.0524430566
21
130.623607366075
31
0.0
39
0.0
210
0.0
220
0.0
230
1.0
0
LINE
5
E3
330
22
100
AcDbEntity
8
\U+4E2D\U+5FC3\U+7EBF\U+5C42
62
256
6
ByLayer
370
-1
48
1.0
60
0
100
AcDbLine
10
2530.62350338922
20
160.05254550104
30
0.0
11
2589.48138243695
21
160.052543939127
31
0.0
39
0.0
210
0.0
220
0.0
230
1.0
0
LINE
5
E4
330
22
100
AcDbEntity
8
\U+4E2D\U+5FC3\U+7EBF\U+5C42
62
256
6
ByLayer
370
-1
48
1.0
60
0
100
AcDbLine
10
2690.05245261462
20
490.805646618243
30
0.0
11
2690.05244203578
21
92.1609918362775
31
0.0
39
0.0
210
0.0
220
0.0
230
1.0
0
LINE
5
E5
330
22
100
AcDbEntity
8
\U+7EC6\U+5B9E\U+7EBF\U+5C42
62
256
6
ByLayer
370
-1
48
1.0
60
0
100
AcDbLine
10
4805.11594908657
20
1353.45001302488
30
0.0
11
4631.91087098333
21
1453.45001762126
31
0.0
39
0.0
210
0.0
220
0.0
230
1.0
0
LINE
5
E6
330
22
100
AcDbEntity
8
\U+7EC6\U+5B9E\U+7EBF\U+5C42
62
256
6
ByLayer
370
-1
48
1.0
60
0
100
AcDbLine
10
4905.11595368291
20
1526.65509112807
30
0.0
11
4731.91087557968
21
1626.65509572444
31
0.0
39
0.0
210
0.0
220
0.0
230
1.0
0
LINE
5
E7
330
22
100
AcDbEntity
8
\U+7EC6\U+5B9E\U+7EBF\U+5C42
62
256
6
ByLayer
370
-1
48
1.0
60
0
100
AcDbLine
10
4707.19290250054
20
1423.84232046882
30
0.0
11
4637.91087125911
21
1463.84232230745
31
0.0
39
0.0
210
0.0
220
0.0
230
1.0
0
LINE
5
E8
330
22
100
AcDbEntity
8
\U+7EC6\U+5B9E\U+7EBF\U+5C42
62
256
6
ByLayer
370
-1
48
1.0
60
0
100
AcDbLine
10
4795.19290654497
20
1576.26278919983
30
0.0
11
4725.9108753039
21
1616.26279103825
31
0.0
39
0.0
210
0.0
220
0.0
230
1.0
0
LINE
5
E9
330
22
100
AcDbEntity
8
\U+7EC6\U+5B9E\U+7EBF\U+5C42
62
256
6
ByLayer
370
-1
48
1.0
60
0
100
AcDbLine
10
4805.11594908656
20
1353.450013025
30
0.0
11
4811.1159493622
21
1363.84231771094
31
0.0
39
0.0
210
0.0
220
0.0
230
1.0
0
LINE
5
EA
330
22
100
AcDbEntity
8
\U+7EC6\U+5B9E\U+7EBF\U+5C42
62
256
6
ByLayer
370
-1
48
1.0
60
0
100
AcDbLine
10
4899.11595340704
20
1516.26278644184
30
0.0
11
4905.11595368285
21
1526.65509112808
31
0.0
39
0.0
210
0.0
220
0.0
230
1.0
0
LINE
5
EB
330
22
100
AcDbEntity
8
\U+7EC6\U+5B9E\U+7EBF\U+5C42
62
256
6
ByLayer
370
-1
48
1.0
60
0
100
AcDbLine
10
4631.91087098338
20
1453.45001762135
30
0.0
11
4637.91087125901
21
1463.84232230728
31
0.0
39
0.0
210
0.0
220
0.0
230
1.0
0
LINE
5
EC
330
22
100
AcDbEntity
8
\U+7EC6\U+5B9E\U+7EBF\U+5C42
62
256
6
ByLayer
370
-1
48
1.0
60
0
100
AcDbLine
10
4725.91087530386
20
1616.26279103819
30
0.0
11
4731.91087557967
21
1626.65509572443
31
0.0
39
0.0
210
0.0
220
0.0
230
1.0
0
LINE
5
ED
330
22
100
AcDbEntity
8
\U+7EC6\U+5B9E\U+7EBF\U+5C42
62
256
6
ByLayer
370
-1
48
1.0
60
0
100
AcDbLine
10
4729.04930911619
20
1429.69872634919
30
0.0
11
4801.04931242574
21
1554.40638258379
31
0.0
39
0.0
210
0.0
220
0.0
230
1.0
0
ARC
5
EE
330
22
100
AcDbEntity
8
\U+7EC6\U+5B9E\U+7EBF\U+5C42
62
256
6
ByLayer
370
-1
48
1.0
60
0
100
AcDbCircle
39
0.0
10
4715.19290286835
20
1437.69872671616
30
0.0
40
15.9999999992751
210
0.0
220
0.0
230
1.0
100
AcDbArc
50
239.99999847954
51
329.999998479541
0
ARC
5
EF
330
22
100
AcDbEntity
8
\U+7EC6\U+5B9E\U+7EBF\U+5C42
62
256
6
ByLayer
370
-1
48
1.0
60
0
100
AcDbCircle
39
0.0
10
4787.19290617728
20
1562.40638295147
30
0.0
40
16.0000000001564
210
0.0
220
0.0
230
1.0
100
AcDbArc
50
329.999998479978
51
59.9999984815513
0
LINE
5
F0
330
22
100
AcDbEntity
8
\U+7EC6\U+5B9E\U+7EBF\U+5C42
62
256
6
ByLayer
370
-1
48
1.0
60
0
100
AcDbLine
10
4829.833922166
20
1556.26278828033
30
0.0
11
4899.11595340708
21
1516.26278644191
31
0.0
39
0.0
210
0.0
220
0.0
230
1.0
0
ARC
5
F1
330
22
100
AcDbEntity
8
\U+7EC6\U+5B9E\U+7EBF\U+5C42
62
256
6
ByLayer
370
-1
48
1.0
60
0
100
AcDbCircle
39
0.0
10
4821.83392179819
20
1542.40638203204
30
0.0
40
16.0000000001564
210
0.0
220
0.0
230
1.0
100
AcDbArc
50
59.9999984795406
51
149.999998479541
0
LINE
5
F2
330
22
100
AcDbEntity
8
\U+7EC6\U+5B9E\U+7EBF\U+5C42
62
256
6
ByLayer
370
-1
48
1.0
60
0
100
AcDbLine
10
4741.83391812086
20
1403.84231954973
30
0.0
11
4811.11594936229
21
1363.8423177111
31
0.0
39
0.0
210
0.0
220
0.0
230
1.0
0
ARC
5
F3
330
22
100
AcDbEntity
8
\U+7EC6\U+5B9E\U+7EBF\U+5C42
62
256
6
ByLayer
370
-1
48
1.0
60
0
100
AcDbCircle
39
0.0
10
4749.83391848773
20
1417.69872579762
30
0.0
40
15.9999999992751
210
0.0
220
0.0
230
1.0
100
AcDbArc
50
149.999998476029
51
239.999998465492
0
LINE
5
F4
330
22
100
AcDbEntity
8
\U+7EC6\U+5B9E\U+7EBF\U+5C42
62
256
6
ByLayer
370
-1
48
1.0
60
0
100
AcDbLine
10
4735.97751224032
20
1425.69872616534
30
0.0
11
4807.97751554986
21
1550.40638239993
31
0.0
39
0.0
210
0.0
220
0.0
230
1.0
0
LINE
5
F5
330
22
100
AcDbEntity
8
\U+7EC6\U+5B9E\U+7EBF\U+5C42
62
256
6
ByLayer
370
-1
48
1.0
60
0
100
AcDbLine
10
4735.97751224059
20
1425.69872616581
30
0.0
11
4807.97751554986
21
1550.40638239993
31
0.0
39
0.0
210
0.0
220
0.0
230
1.0
0
LINE
5
F6
330
22
100
AcDbEntity
8
\U+7C97\U+5B9E\U+7EBF\U+5C42
62
256
6
ByLayer
370
-1
48
1.0
60
0
100
AcDbLine
10
4529.45896497102
20
1425.99811505623
30
0.0
11
4704.45897301454
21
1729.10700173665
31
0.0
39
0.0
210
0.0
220
0.0
230
1.0
0
LINE
5
F7
330
22
100
AcDbEntity
8
\U+7C97\U+5B9E\U+7EBF\U+5C42
62
256
6
ByLayer
370
-1
48
1.0
60
0
100
AcDbLine
10
4832.56785165168
20
1250.99810701253
30
0.0
11
4529.45896497085
21
1425.99811505628
31
0.0
39
0.0
210
0.0
220
0.0
230
1.0
0
LINE
5
F8
330
22
100
AcDbEntity
8
\U+7C97\U+5B9E\U+7EBF\U+5C42
62
256
6
ByLayer
370
-1
48
1.0
60
0
100
AcDbLine
10
5007.56785969529
20
1554.1069936931
30
0.0
11
4704.45897301436
21
1729.10700173691
31
0.0
39
0.0
210
0.0
220
0.0
230
1.0
0
LINE
5
F9
330
22
100
AcDbEntity
8
\U+7C97\U+5B9E\U+7EBF\U+5C42
62
256
6
ByLayer
370
-1
48
1.0
60
0
100
AcDbLine
10
4832.5678516516
20
1250.99810701262
30
0.0
11
5007.56785969521
21
1554.1069936932
31
0.0
39
0.0
210
0.0
220
0.0
230
1.0
0
CIRCLE
5
FA
330
22
100
AcDbEntity
8
\U+865A\U+7EBF\U+5C42
62
256
6
ByLayer
370
-1
48
1.0
60
0
100
AcDbCircle
10
4700.21214165823
20
1471.751285998
30
0.0
40
11.0
39
0.0
210
0.0
220
0.0
230
1.0
0
CIRCLE
5
FB
330
22
100
AcDbEntity
8
\U+865A\U+7EBF\U+5C42
62
256
6
ByLayer
370
-1
48
1.0
60
0
100
AcDbCircle
10
4750.21214395638
20
1558.35382504956
30
0.0
40
11.0
39
0.0
210
0.0
220
0.0
230
1.0
0
CIRCLE
5
FC
330
22
100
AcDbEntity
8
\U+865A\U+7EBF\U+5C42
62
256
6
ByLayer
370
-1
48
1.0
60
0
100
AcDbCircle
10
4786.81468070983
20
1421.75128369983
30
0.0
40
11.0
39
0.0
210
0.0
220
0.0
230
1.0
0
CIRCLE
5
FD
330
22
100
AcDbEntity
8
\U+865A\U+7EBF\U+5C42
62
256
6
ByLayer
370
-1
48
1.0
60
0
100
AcDbCircle
10
4836.81468300798
20
1508.35382275139
30
0.0
40
11.0
39
0.0
210
0.0
220
0.0
230
1.0
0
LINE
5
FE
330
22
100
AcDbEntity
8
\U+4E2D\U+5FC3\U+7EBF\U+5C42
62
256
6
ByLayer
370
-1
48
1.0
60
0
100
AcDbLine
10
4804.81854732123
20
1411.3567458282
30
0.0
11
4681.71817156196
21
1482.42878526579
31
0.0
39
0.0
210
0.0
220
0.0
230
1.0
0
LINE
5
FF
330
22
100
AcDbEntity
8
\U+4E2D\U+5FC3\U+7EBF\U+5C42
62
256
6
ByLayer
370
-1
48
1.0
60
0
100
AcDbLine
10
4854.81854961941
20
1497.9592848798
30
0.0
11
4731.71817386013
21
1569.03132431738
31
0.0
39
0.0
210
0.0
220
0.0
230
1.0
0
LINE
5
100
330
22
100
AcDbEntity
8
\U+4E2D\U+5FC3\U+7EBF\U+5C42
62
256
6
ByLayer
370
-1
48
1.0
60
0
100
AcDbLine
10
4773.99539153687
20
1399.5476248961
30
0.0
11
4849.16431545313
21
1529.7440122903
31
0.0
39
0.0
210
0.0
220
0.0
230
1.0
0
LINE
5
101
330
22
100
AcDbEntity
8
\U+4E2D\U+5FC3\U+7EBF\U+5C42
62
256
6
ByLayer
370
-1
48
1.0
60
0
100
AcDbLine
10
4687.39285248528
20
1449.54762719427
30
0.0
11
4762.56177640154
21
1579.74401458848
31
0.0
39
0.0
210
0.0
220
0.0
230
1.0
0
LINE
5
102
330
22
100
AcDbEntity
8
\U+4E2D\U+5FC3\U+7EBF\U+5C42
62
256
6
ByLayer
370
-1
48
1.0
60
0
100
AcDbLine
10
4768.51341233309
20
1490.05255437468
30
0.0
11
4875.59914477382
21
1675.5304723608
31
0.0
39
0.0
210
0.0
220
0.0
230
1.0
0
LINE
5
103
330
22
100
AcDbEntity
8
\U+4E2D\U+5FC3\U+7EBF\U+5C42
62
256
6
ByLayer
370
-1
48
1.0
60
0
100
AcDbLine
10
4768.51341233309
20
1490.05255437468
30
0.0
11
4661.42767989236
21
1304.57463638855
31
0.0
39
0.0
210
0.0
220
0.0
230
1.0
0
CIRCLE
5
104
330
22
100
AcDbEntity
8
\U+7C97\U+5B9E\U+7EBF\U+5C42
62
256
6
ByLayer
370
-1
48
1.0
60
0
100
AcDbCircle
10
4590.9301085784
20
1442.46925659523
30
0.0
40
17.0
39
0.0
210
0.0
220
0.0
230
1.0
0
LINE
5
105
330
22
100
AcDbEntity
8
\U+4E2D\U+5FC3\U+7EBF\U+5C42
62
256
6
ByLayer
370
-1
48
1.0
60
0
100
AcDbLine
10
4616.41631454013
20
1427.75478782083
30
0.0
11
4565.44390161392
21
1457.18372594856
31
0.0
39
0.0
210
0.0
220
0.0
230
1.0
0
LINE
5
106
330
22
100
AcDbEntity
8
\U+4E2D\U+5FC3\U+7EBF\U+5C42
62
256
6
ByLayer
370
-1
48
1.0
60
0
100
AcDbLine
10
4576.21563767791
20
1416.983046951
30
0.0
11
4605.64457855443
21
1467.95546463825
31
0.0
39
0.0
210
0.0
220
0.0
230
1.0
0
CIRCLE
5
107
330
22
100
AcDbEntity
8
\U+7C97\U+5B9E\U+7EBF\U+5C42
62
256
6
ByLayer
370
-1
48
1.0
60
0
100
AcDbCircle
10
4720.93011455365
20
1667.63585812937
30
0.0
40
17.0
39
0.0
210
0.0
220
0.0
230
1.0
0
LINE
5
108
330
22
100
AcDbEntity
8
\U+4E2D\U+5FC3\U+7EBF\U+5C42
62
256
6
ByLayer
370
-1
48
1.0
60
0
100
AcDbLine
10
4746.41632051538
20
1652.92138935497
30
0.0
11
4695.44390758917
21
1682.3503274827
31
0.0
39
0.0
210
0.0
220
0.0
230
1.0
0
LINE
5
109
330
22
100
AcDbEntity
8
\U+4E2D\U+5FC3\U+7EBF\U+5C42
62
256
6
ByLayer
370
-1
48
1.0
60
0
100
AcDbLine
10
4735.64458545414
20
1693.12206777361
30
0.0
11
4706.21564457762
21
1642.14965008636
31
0.0
39
0.0
210
0.0
220
0.0
230
1.0
0
CIRCLE
5
10A
330
22
100
AcDbEntity
8
\U+7C97\U+5B9E\U+7EBF\U+5C42
62
256
6
ByLayer
370
-1
48
1.0
60
0
100
AcDbCircle
10
4946.09671608779
20
1537.63585215412
30
0.0
40
17.0
39
0.0
210
0.0
220
0.0
230
1.0
0
LINE
5
10B
330
22
100
AcDbEntity
8
\U+4E2D\U+5FC3\U+7EBF\U+5C42
62
256
6
ByLayer
370
-1
48
1.0
60
0
100
AcDbLine
10
4920.61051012606
20
1552.35032092852
30
0.0
11
4971.58292305226
21
1522.92138280079
31
0.0
39
0.0
210
0.0
220
0.0
230
1.0
0
LINE
5
10C
330
22
100
AcDbEntity
8
\U+4E2D\U+5FC3\U+7EBF\U+5C42
62
256
6
ByLayer
370
-1
48
1.0
60
0
100
AcDbLine
10
4960.81118698828
20
1563.12206179835
30
0.0
11
4931.38224611176
21
1512.14964411111
31
0.0
39
0.0
210
0.0
220
0.0
230
1.0
0
CIRCLE
5
10D
330
22
100
AcDbEntity
8
\U+7C97\U+5B9E\U+7EBF\U+5C42
62
256
6
ByLayer
370
-1
48
1.0
60
0
100
AcDbCircle
10
4816.09671011254
20
1312.46925061998
30
0.0
40
17.0
39
0.0
210
0.0
220
0.0
230
1.0
0
LINE
5
10E
330
22
100
AcDbEntity
8
\U+4E2D\U+5FC3\U+7EBF\U+5C42
62
256
6
ByLayer
370
-1
48
1.0
60
0
100
AcDbLine
10
4790.61050415081
20
1327.18371939438
30
0.0
11
4841.58291707701
21
1297.75478126665
31
0.0
39
0.0
210
0.0
220
0.0
230
1.0
0
LINE
5
10F
330
22
100
AcDbEntity
8
\U+4E2D\U+5FC3\U+7EBF\U+5C42
62
256
6
ByLayer
370
-1
48
1.0
60
0
100
AcDbLine
10
4801.38223921205
20
1286.98304097575
30
0.0
11
4830.81118008857
21
1337.955458663
31
0.0
39
0.0
210
0.0
220
0.0
230
1.0
0
LINE
5
110
330
22
100
AcDbEntity
8
\U+4E2D\U+5FC3\U+7EBF\U+5C42
62
256
6
ByLayer
370
-1
48
1.0
60
0
100
AcDbLine
10
4594.65612587676
20
1590.4291116622
30
0.0
11
4939.8925187114
21
1391.10677510967
31
0.0
39
0.0
210
0.0
220
0.0
230
1.0
0
LINE
5
111
330
22
100
AcDbEntity
8
\U+7EC6\U+5B9E\U+7EBF\U+5C42
62
256
6
ByLayer
370
-1
48
1.0
60
0
100
AcDbLine
10
4805.11594908656
20
1353.45001302488
30
0.0
11
4631.91087098333
21
1453.45001762126
31
0.0
39
0.0
210
0.0
220
0.0
230
1.0
0
LINE
5
112
330
22
100
AcDbEntity
8
\U+7EC6\U+5B9E\U+7EBF\U+5C42
62
256
6
ByLayer
370
-1
48
1.0
60
0
100
AcDbLine
10
4905.11595368291
20
1526.65509112807
30
0.0
11
4731.91087557968
21
1626.65509572444
31
0.0
39
0.0
210
0.0
220
0.0
230
1.0
0
LINE
5
113
330
22
100
AcDbEntity
8
\U+7EC6\U+5B9E\U+7EBF\U+5C42
62
256
6
ByLayer
370
-1
48
1.0
60
0
100
AcDbLine
10
4707.19290250054
20
1423.84232046882
30
0.0
11
4637.91087125911
21
1463.84232230745
31
0.0
39
0.0
210
0.0
220
0.0
230
1.0
0
LINE
5
114
330
22
100
AcDbEntity
8
\U+7EC6\U+5B9E\U+7EBF\U+5C42
62
256
6
ByLayer
370
-1
48
1.0
60
0
100
AcDbLine
10
4795.19290654497
20
1576.26278919983
30
0.0
11
4725.9108753039
21
1616.26279103825
31
0.0
39
0.0
210
0.0
220
0.0
230
1.0
0
LINE
5
115
330
22
100
AcDbEntity
8
\U+7EC6\U+5B9E\U+7EBF\U+5C42
62
256
6
ByLayer
370
-1
48
1.0
60
0
100
AcDbLine
10
4805.11594908656
20
1353.450013025
30
0.0
11
4811.1159493622
21
1363.84231771094
31
0.0
39
0.0
210
0.0
220
0.0
230
1.0
0
LINE
5
116
330
22
100
AcDbEntity
8
\U+7EC6\U+5B9E\U+7EBF\U+5C42
62
256
6
ByLayer
370
-1
48
1.0
60
0
100
AcDbLine
10
4899.11595340704
20
1516.26278644184
30
0.0
11
4905.11595368285
21
1526.65509112808
31
0.0
39
0.0
210
0.0
220
0.0
230
1.0
0
LINE
5
117
330
22
100
AcDbEntity
8
\U+7EC6\U+5B9E\U+7EBF\U+5C42
62
256
6
ByLayer
370
-1
48
1.0
60
0
100
AcDbLine
10
4631.91087098338
20
1453.45001762135
30
0.0
11
4637.91087125901
21
1463.84232230728
31
0.0
39
0.0
210
0.0
220
0.0
230
1.0
0
LINE
5
118
330
22
100
AcDbEntity
8
\U+7EC6\U+5B9E\U+7EBF\U+5C42
62
256
6
ByLayer
370
-1
48
1.0
60
0
100
AcDbLine
10
4725.91087530386
20
1616.26279103819
30
0.0
11
4731.91087557967
21
1626.65509572443
31
0.0
39
0.0
210
0.0
220
0.0
230
1.0
0
LINE
5
119
330
22
100
AcDbEntity
8
\U+7EC6\U+5B9E\U+7EBF\U+5C42
62
256
6
ByLayer
370
-1
48
1.0
60
0
100
AcDbLine
10
4729.04930911619
20
1429.69872634919
30
0.0
11
4801.04931242574
21
1554.40638258379
31
0.0
39
0.0
210
0.0
220
0.0
230
1.0
0
ARC
5
11A
330
22
100
AcDbEntity
8
\U+7EC6\U+5B9E\U+7EBF\U+5C42
62
256
6
ByLayer
370
-1
48
1.0
60
0
100
AcDbCircle
39
0.0
10
4715.19290286835
20
1437.69872671616
30
0.0
40
15.9999999992751
210
0.0
220
0.0
230
1.0
100
AcDbArc
50
239.999998479541
51
329.999998479541
0
ARC
5
11B
330
22
100
AcDbEntity
8
\U+7EC6\U+5B9E\U+7EBF\U+5C42
62
256
6
ByLayer
370
-1
48
1.0
60
0
100
AcDbCircle
39
0.0
10
4787.19290617728
20
1562.40638295147
30
0.0
40
16.0000000001564
210
0.0
220
0.0
230
1.0
100
AcDbArc
50
329.999998479978
51
59.9999984815486
0
LINE
5
11C
330
22
100
AcDbEntity
8
\U+7EC6\U+5B9E\U+7EBF\U+5C42
62
256
6
ByLayer
370
-1
48
1.0
60
0
100
AcDbLine
10
4829.833922166
20
1556.26278828033
30
0.0
11
4899.11595340708
21
1516.26278644191
31
0.0
39
0.0
210
0.0
220
0.0
230
1.0
0
ARC
5
11D
330
22
100
AcDbEntity
8
\U+7EC6\U+5B9E\U+7EBF\U+5C42
62
256
6
ByLayer
370
-1
48
1.0
60
0
100
AcDbCircle
39
0.0
10
4821.83392179819
20
1542.40638203204
30
0.0
40
16.0000000001564
210
0.0
220
0.0
230
1.0
100
AcDbArc
50
59.9999984795406
51
149.999998479541
0
LINE
5
11E
330
22
100
AcDbEntity
8
\U+7EC6\U+5B9E\U+7EBF\U+5C42
62
256
6
ByLayer
370
-1
48
1.0
60
0
100
AcDbLine
10
4741.83391812086
20
1403.84231954973
30
0.0
11
4811.11594936229
21
1363.8423177111
31
0.0
39
0.0
210
0.0
220
0.0
230
1.0
0
ARC
5
11F
330
22
100
AcDbEntity
8
\U+7EC6\U+5B9E\U+7EBF\U+5C42
62
256
6
ByLayer
370
-1
48
1.0
60
0
100
AcDbCircle
39
0.0
10
4749.83391848773
20
1417.69872579762
30
0.0
40
15.9999999992751
210
0.0
220
0.0
230
1.0
100
AcDbArc
50
149.999998476028
51
239.99999846549
0
LINE
5
120
330
22
100
AcDbEntity
8
\U+7EC6\U+5B9E\U+7EBF\U+5C42
62
256
6
ByLayer
370
-1
48
1.0
60
0
100
AcDbLine
10
4735.97751224032
20
1425.69872616534
30
0.0
11
4807.97751554986
21
1550.40638239993
31
0.0
39
0.0
210
0.0
220
0.0
230
1.0
0
LINE
5
121
330
22
100
AcDbEntity
8
\U+7EC6\U+5B9E\U+7EBF\U+5C42
62
256
6
ByLayer
370
-1
48
1.0
60
0
100
AcDbLine
10
4735.97751224059
20
1425.69872616581
30
0.0
11
4807.97751554986
21
1550.40638239993
31
0.0
39
0.0
210
0.0
220
0.0
230
1.0
0
LINE
5
122
330
22
100
AcDbEntity
8
\U+7C97\U+5B9E\U+7EBF\U+5C42
62
256
6
ByLayer
370
-1
48
1.0
60
0
100
AcDbLine
10
4529.45896497102
20
1425.99811505623
30
0.0
11
4704.45897301454
21
1729.10700173665
31
0.0
39
0.0
210
0.0
220
0.0
230
1.0
0
LINE
5
123
330
22
100
AcDbEntity
8
\U+7C97\U+5B9E\U+7EBF\U+5C42
62
256
6
ByLayer
370
-1
48
1.0
60
0
100
AcDbLine
10
4832.56785165168
20
1250.99810701253
30
0.0
11
4529.45896497085
21
1425.99811505628
31
0.0
39
0.0
210
0.0
220
0.0
230
1.0
0
LINE
5
124
330
22
100
AcDbEntity
8
\U+7C97\U+5B9E\U+7EBF\U+5C42
62
256
6
ByLayer
370
-1
48
1.0
60
0
100
AcDbLine
10
5007.56785969529
20
1554.1069936931
30
0.0
11
4704.45897301436
21
1729.10700173691
31
0.0
39
0.0
210
0.0
220
0.0
230
1.0
0
LINE
5
125
330
22
100
AcDbEntity
8
\U+7C97\U+5B9E\U+7EBF\U+5C42
62
256
6
ByLayer
370
-1
48
1.0
60
0
100
AcDbLine
10
4832.5678516516
20
1250.99810701262
30
0.0
11
5007.56785969521
21
1554.1069936932
31
0.0
39
0.0
210
0.0
220
0.0
230
1.0
0
CIRCLE
5
126
330
22
100
AcDbEntity
8
\U+865A\U+7EBF\U+5C42
62
256
6
ByLayer
370
-1
48
1.0
60
0
100
AcDbCircle
10
4700.21214165823
20
1471.751285998
30
0.0
40
11.0
39
0.0
210
0.0
220
0.0
230
1.0
0
CIRCLE
5
127
330
22
100
AcDbEntity
8
\U+865A\U+7EBF\U+5C42
62
256
6
ByLayer
370
-1
48
1.0
60
0
100
AcDbCircle
10
4750.21214395638
20
1558.35382504956
30
0.0
40
11.0
39
0.0
210
0.0
220
0.0
230
1.0
0
CIRCLE
5
128
330
22
100
AcDbEntity
8
\U+865A\U+7EBF\U+5C42
62
256
6
ByLayer
370
-1
48
1.0
60
0
100
AcDbCircle
10
4786.81468070982
20
1421.75128369983
30
0.0
40
11.0
39
0.0
210
0.0
220
0.0
230
1.0
0
CIRCLE
5
129
330
22
100
AcDbEntity
8
\U+865A\U+7EBF\U+5C42
62
256
6
ByLayer
370
-1
48
1.0
60
0
100
AcDbCircle
10
4836.81468300798
20
1508.35382275139
30
0.0
40
11.0
39
0.0
210
0.0
220
0.0
230
1.0
0
LINE
5
12A
330
22
100
AcDbEntity
8
\U+4E2D\U+5FC3\U+7EBF\U+5C42
62
256
6
ByLayer
370
-1
48
1.0
60
0
100
AcDbLine
10
4804.81854732123
20
1411.3567458282
30
0.0
11
4681.71817156196
21
1482.42878526579
31
0.0
39
0.0
210
0.0
220
0.0
230
1.0
0
LINE
5
12B
330
22
100
AcDbEntity
8
\U+4E2D\U+5FC3\U+7EBF\U+5C42
62
256
6
ByLayer
370
-1
48
1.0
60
0
100
AcDbLine
10
4854.81854961941
20
1497.9592848798
30
0.0
11
4731.71817386013
21
1569.03132431738
31
0.0
39
0.0
210
0.0
220
0.0
230
1.0
0
LINE
5
12C
330
22
100
AcDbEntity
8
\U+4E2D\U+5FC3\U+7EBF\U+5C42
62
256
6
ByLayer
370
-1
48
1.0
60
0
100
AcDbLine
10
4773.99539153687
20
1399.5476248961
30
0.0
11
4849.16431545313
21
1529.7440122903
31
0.0
39
0.0
210
0.0
220
0.0
230
1.0
0
LINE
5
12D
330
22
100
AcDbEntity
8
\U+4E2D\U+5FC3\U+7EBF\U+5C42
62
256
6
ByLayer
370
-1
48
1.0
60
0
100
AcDbLine
10
4687.39285248528
20
1449.54762719427
30
0.0
11
4762.56177640154
21
1579.74401458848
31
0.0
39
0.0
210
0.0
220
0.0
230
1.0
0
LINE
5
12E
330
22
100
AcDbEntity
8
\U+4E2D\U+5FC3\U+7EBF\U+5C42
62
256
6
ByLayer
370
-1
48
1.0
60
0
100
AcDbLine
10
4768.51341233309
20
1490.05255437468
30
0.0
11
4875.59914477382
21
1675.5304723608
31
0.0
39
0.0
210
0.0
220
0.0
230
1.0
0
LINE
5
12F
330
22
100
AcDbEntity
8
\U+4E2D\U+5FC3\U+7EBF\U+5C42
62
256
6
ByLayer
370
-1
48
1.0
60
0
100
AcDbLine
10
4768.51341233309
20
1490.05255437468
30
0.0
11
4661.42767989236
21
1304.57463638855
31
0.0
39
0.0
210
0.0
220
0.0
230
1.0
0
CIRCLE
5
130
330
22
100
AcDbEntity
8
\U+7C97\U+5B9E\U+7EBF\U+5C42
62
256
6
ByLayer
370
-1
48
1.0
60
0
100
AcDbCircle
10
4590.9301085784
20
1442.46925659523
30
0.0
40
17.0
39
0.0
210
0.0
220
0.0
230
1.0
0
LINE
5
131
330
22
100
AcDbEntity
8
\U+4E2D\U+5FC3\U+7EBF\U+5C42
62
256
6
ByLayer
370
-1
48
1.0
60
0
100
AcDbLine
10
4616.41631454013
20
1427.75478782083
30
0.0
11
4565.44390161392
21
1457.18372594856
31
0.0
39
0.0
210
0.0
220
0.0
230
1.0
0
LINE
5
132
330
22
100
AcDbEntity
8
\U+4E2D\U+5FC3\U+7EBF\U+5C42
62
256
6
ByLayer
370
-1
48
1.0
60
0
100
AcDbLine
10
4576.2156376779
20
1416.983046951
30
0.0
11
4605.64457855443
21
1467.95546463825
31
0.0
39
0.0
210
0.0
220
0.0
230
1.0
0
CIRCLE
5
133
330
22
100
AcDbEntity
8
\U+7C97\U+5B9E\U+7EBF\U+5C42
62
256
6
ByLayer
370
-1
48
1.0
60
0
100
AcDbCircle
10
4720.93011455365
20
1667.63585812937
30
0.0
40
17.0
39
0.0
210
0.0
220
0.0
230
1.0
0
LINE
5
134
330
22
100
AcDbEntity
8
\U+4E2D\U+5FC3\U+7EBF\U+5C42
62
256
6
ByLayer
370
-1
48
1.0
60
0
100
AcDbLine
10
4746.41632051538
20
1652.92138935497
30
0.0
11
4695.44390758917
21
1682.3503274827
31
0.0
39
0.0
210
0.0
220
0.0
230
1.0
0
LINE
5
135
330
22
100
AcDbEntity
8
\U+4E2D\U+5FC3\U+7EBF\U+5C42
62
256
6
ByLayer
370
-1
48
1.0
60
0
100
AcDbLine
10
4735.64458545414
20
1693.12206777361
30
0.0
11
4706.21564457762
21
1642.14965008636
31
0.0
39
0.0
210
0.0
220
0.0
230
1.0
0
CIRCLE
5
136
330
22
100
AcDbEntity
8
\U+7C97\U+5B9E\U+7EBF\U+5C42
62
256
6
ByLayer
370
-1
48
1.0
60
0
100
AcDbCircle
10
4946.09671608779
20
1537.63585215412
30
0.0
40
17.0
39
0.0
210
0.0
220
0.0
230
1.0
0
LINE
5
137
330
22
100
AcDbEntity
8
\U+4E2D\U+5FC3\U+7EBF\U+5C42
62
256
6
ByLayer
370
-1
48
1.0
60
0
100
AcDbLine
10
4920.61051012606
20
1552.35032092852
30
0.0
11
4971.58292305226
21
1522.92138280079
31
0.0
39
0.0
210
0.0
220
0.0
230
1.0
0
LINE
5
138
330
22
100
AcDbEntity
8
\U+4E2D\U+5FC3\U+7EBF\U+5C42
62
256
6
ByLayer
370
-1
48
1.0
60
0
100
AcDbLine
10
4960.81118698828
20
1563.12206179835
30
0.0
11
4931.38224611176
21
1512.14964411111
31
0.0
39
0.0
210
0.0
220
0.0
230
1.0
0
CIRCLE
5
139
330
22
100
AcDbEntity
8
\U+7C97\U+5B9E\U+7EBF\U+5C42
62
256
6
ByLayer
370
-1
48
1.0
60
0
100
AcDbCircle
10
4816.09671011254
20
1312.46925061998
30
0.0
40
17.0
39
0.0
210
0.0
220
0.0
230
1.0
0
LINE
5
13A
330
22
100
AcDbEntity
8
\U+4E2D\U+5FC3\U+7EBF\U+5C42
62
256
6
ByLayer
370
-1
48
1.0
60
0
100
AcDbLine
10
4790.61050415081
20
1327.18371939438
30
0.0
11
4841.58291707701
21
1297.75478126665
31
0.0
39
0.0
210
0.0
220
0.0
230
1.0
0
LINE
5
13B
330
22
100
AcDbEntity
8
\U+4E2D\U+5FC3\U+7EBF\U+5C42
62
256
6
ByLayer
370
-1
48
1.0
60
0
100
AcDbLine
10
4801.38223921205
20
1286.98304097575
30
0.0
11
4830.81118008857
21
1337.955458663
31
0.0
39
0.0
210
0.0
220
0.0
230
1.0
0
LINE
5
13C
330
22
100
AcDbEntity
8
\U+4E2D\U+5FC3\U+7EBF\U+5C42
62
256
6
ByLayer
370
-1
48
1.0
60
0
100
AcDbLine
10
4594.65612587676
20
1590.4291116622
30
0.0
11
4939.8925187114
21
1391.10677510967
31
0.0
39
0.0
210
0.0
220
0.0
230
1.0
0
LINE
5
13D
330
22
100
AcDbEntity
8
\U+7EC6\U+5B9E\U+7EBF\U+5C42
62
256
6
ByLayer
370
-1
48
1.0
60
0
100
AcDbLine
10
4905.11593837299
20
3853.45001342761
30
0.0
11
4731.91085496235
21
3753.45001802393
31
0.0
39
0.0
210
0.0
220
0.0
230
1.0
0
LINE
5
13E
330
22
100
AcDbEntity
8
\U+7EC6\U+5B9E\U+7EBF\U+5C42
62
256
6
ByLayer
370
-1
48
1.0
60
0
100
AcDbLine
10
4805.11594296934
20
4026.6550968382
30
0.0
11
4631.9108595587
21
3926.65510143452
31
0.0
39
0.0
210
0.0
220
0.0
230
1.0
0
LINE
5
13F
330
22
100
AcDbEntity
8
\U+7EC6\U+5B9E\U+7EBF\U+5C42
62
256
6
ByLayer
370
-1
48
1.0
60
0
100
AcDbLine
10
4795.19288860252
20
3803.84232119011
30
0.0
11
4725.91085523813
21
3763.84232302856
31
0.0
39
0.0
210
0.0
220
0.0
230
1.0
0
LINE
5
140
330
22
100
AcDbEntity
8
\U+7EC6\U+5B9E\U+7EBF\U+5C42
62
256
6
ByLayer
370
-1
48
1.0
60
0
100
AcDbLine
10
4707.19289264696
20
3956.26279459122
30
0.0
11
4637.91085928292
21
3916.26279642988
31
0.0
39
0.0
210
0.0
220
0.0
230
1.0
0
LINE
5
141
330
22
100
AcDbEntity
8
\U+7EC6\U+5B9E\U+7EBF\U+5C42
62
256
6
ByLayer
370
-1
48
1.0
60
0
100
AcDbLine
10
4905.11593837289
20
3853.45001342766
30
0.0
11
4899.11593864882
21
3863.84231843205
31
0.0
39
0.0
210
0.0
220
0.0
230
1.0
0
LINE
5
142
330
22
100
AcDbEntity
8
\U+7EC6\U+5B9E\U+7EBF\U+5C42
62
256
6
ByLayer
370
-1
48
1.0
60
0
100
AcDbLine
10
4811.11594269354
20
4016.26279183347
30
0.0
11
4805.1159429693
21
4026.65509683815
31
0.0
39
0.0
210
0.0
220
0.0
230
1.0
0
LINE
5
143
330
22
100
AcDbEntity
8
\U+7EC6\U+5B9E\U+7EBF\U+5C42
62
256
6
ByLayer
370
-1
48
1.0
60
0
100
AcDbLine
10
4731.9108549623
20
3753.45001802401
30
0.0
11
4725.91085523823
21
3763.84232302839
31
0.0
39
0.0
210
0.0
220
0.0
230
1.0
0
LINE
5
144
330
22
100
AcDbEntity
8
\U+7EC6\U+5B9E\U+7EBF\U+5C42
62
256
6
ByLayer
370
-1
48
1.0
60
0
100
AcDbLine
10
4637.91085928295
20
3916.26279642981
30
0.0
11
4631.91085955871
21
3926.6551014345
31
0.0
39
0.0
210
0.0
220
0.0
230
1.0
0
LINE
5
145
330
22
100
AcDbEntity
8
\U+7EC6\U+5B9E\U+7EBF\U+5C42
62
256
6
ByLayer
370
-1
48
1.0
60
0
100
AcDbLine
10
4801.04929564308
20
3825.69872749489
30
0.0
11
4729.04929895227
21
3950.40638755082
31
0.0
39
0.0
210
0.0
220
0.0
230
1.0
0
ARC
5
146
330
22
100
AcDbEntity
8
\U+7EC6\U+5B9E\U+7EBF\U+5C42
62
256
6
ByLayer
370
-1
48
1.0
60
0
100
AcDbCircle
39
0.0
10
4787.19288897107
20
3817.69872786259
30
0.0
40
15.9999999992751
210
0.0
220
0.0
230
1.0
100
AcDbArc
50
299.99999847954
51
29.9999984795405
0
ARC
5
147
330
22
100
AcDbEntity
8
\U+7EC6\U+5B9E\U+7EBF\U+5C42
62
256
6
ByLayer
370
-1
48
1.0
60
0
100
AcDbCircle
39
0.0
10
4715.19289227935
20
3942.40638791834
30
0.0
40
16.0000000001564
210
0.0
220
0.0
230
1.0
100
AcDbArc
50
29.9999984799783
51
119.999998481551
0
LINE
5
148
330
22
100
AcDbEntity
8
\U+7EC6\U+5B9E\U+7EBF\U+5C42
62
256
6
ByLayer
370
-1
48
1.0
60
0
100
AcDbLine
10
4741.83390932947
20
3976.26279367218
30
0.0
11
4811.1159426935
21
4016.26279183353
31
0.0
39
0.0
210
0.0
220
0.0
230
1.0
0
ARC
5
149
330
22
100
AcDbEntity
8
\U+7EC6\U+5B9E\U+7EBF\U+5C42
62
256
6
ByLayer
370
-1
48
1.0
60
0
100
AcDbCircle
39
0.0
10
4749.83390896174
20
3962.40638699923
30
0.0
40
16.0000000001564
210
0.0
220
0.0
230
1.0
100
AcDbArc
50
119.999998479541
51
209.99999847954
0
LINE
5
14A
330
22
100
AcDbEntity
8
\U+7EC6\U+5B9E\U+7EBF\U+5C42
62
256
6
ByLayer
370
-1
48
1.0
60
0
100
AcDbLine
10
4829.83390528433
20
3823.84232027066
30
0.0
11
4899.11593864872
21
3863.84231843221
31
0.0
39
0.0
210
0.0
220
0.0
230
1.0
0
ARC
5
14B
330
22
100
AcDbEntity
8
\U+7EC6\U+5B9E\U+7EBF\U+5C42
62
256
6
ByLayer
370
-1
48
1.0
60
0
100
AcDbCircle
39
0.0
10
4821.83390565194
20
3837.69872694259
30
0.0
40
15.9999999992751
210
0.0
220
0.0
230
1.0
100
AcDbArc
50
209.999998476028
51
299.999998465492
0
LINE
5
14C
330
22
100
AcDbEntity
8
\U+7EC6\U+5B9E\U+7EBF\U+5C42
62
256
6
ByLayer
370
-1
48
1.0
60
0
100
AcDbLine
10
4807.9774989795
20
3829.69872731104
30
0.0
11
4735.9775022887
21
3954.40638736697
31
0.0
39
0.0
210
0.0
220
0.0
230
1.0
0
LINE
5
14D
330
22
100
AcDbEntity
8
\U+7EC6\U+5B9E\U+7EBF\U+5C42
62
256
6
ByLayer
370
-1
48
1.0
60
0
100
AcDbLine
10
4807.97749897922
20
3829.69872731151
30
0.0
11
4735.9775022887
21
3954.40638736697
31
0.0
39
0.0
210
0.0
220
0.0
230
1.0
0
LINE
5
14E
330
22
100
AcDbEntity
8
\U+7C97\U+5B9E\U+7EBF\U+5C42
62
256
6
ByLayer
370
-1
48
1.0
60
0
100
AcDbLine
10
4704.45894695973
20
3650.99811346862
30
0.0
11
4529.45895500342
21
3954.107009437
31
0.0
39
0.0
210
0.0
220
0.0
230
1.0
0
LINE
5
14F
330
22
100
AcDbEntity
8
\U+7C97\U+5B9E\U+7EBF\U+5C42
62
256
6
ByLayer
370
-1
48
1.0
60
0
100
AcDbLine
10
5007.56784292839
20
3825.99810542503
30
0.0
11
4704.4589469596
21
3650.9981134685
31
0.0
39
0.0
210
0.0
220
0.0
230
1.0
0
LINE
5
150
330
22
100
AcDbEntity
8
\U+7C97\U+5B9E\U+7EBF\U+5C42
62
256
6
ByLayer
370
-1
48
1.0
60
0
100
AcDbLine
10
4832.56785097199
20
4129.10700139357
30
0.0
11
4529.45895500311
21
3954.10700943697
31
0.0
39
0.0
210
0.0
220
0.0
230
1.0
0
LINE
5
151
330
22
100
AcDbEntity
8
\U+7C97\U+5B9E\U+7EBF\U+5C42
62
256
6
ByLayer
370
-1
48
1.0
60
0
100
AcDbLine
10
5007.56784292826
20
3825.99810542501
30
0.0
11
4832.56785097187
21
4129.10700139354
31
0.0
39
0.0
210
0.0
220
0.0
230
1.0
0
CIRCLE
5
152
330
22
100
AcDbEntity
8
\U+865A\U+7EBF\U+5C42
62
256
6
ByLayer
370
-1
48
1.0
60
0
100
AcDbCircle
10
4750.21212696406
20
3821.75128772752
30
0.0
40
11.0
39
0.0
210
0.0
220
0.0
230
1.0
0
CIRCLE
5
153
330
22
100
AcDbEntity
8
\U+865A\U+7EBF\U+5C42
62
256
6
ByLayer
370
-1
48
1.0
60
0
100
AcDbCircle
10
4700.21212926226
20
3908.35382943278
30
0.0
40
11.0
39
0.0
210
0.0
220
0.0
230
1.0
0
CIRCLE
5
154
330
22
100
AcDbEntity
8
\U+865A\U+7EBF\U+5C42
62
256
6
ByLayer
370
-1
48
1.0
60
0
100
AcDbCircle
10
4836.81466866936
20
3871.75128542935
30
0.0
40
11.0
39
0.0
210
0.0
220
0.0
230
1.0
0
CIRCLE
5
155
330
22
100
AcDbEntity
8
\U+865A\U+7EBF\U+5C42
62
256
6
ByLayer
370
-1
48
1.0
60
0
100
AcDbCircle
10
4786.81467096755
20
3958.35382713461
30
0.0
40
11.0
39
0.0
210
0.0
220
0.0
230
1.0
0
LINE
5
156
330
22
100
AcDbEntity
8
\U+4E2D\U+5FC3\U+7EBF\U+5C42
62
256
6
ByLayer
370
-1
48
1.0
60
0
100
AcDbLine
10
4854.81853583249
20
3882.14582234536
30
0.0
11
4731.71815630114
21
3811.07378944121
31
0.0
39
0.0
210
0.0
220
0.0
230
1.0
0
LINE
5
157
330
22
100
AcDbEntity
8
\U+4E2D\U+5FC3\U+7EBF\U+5C42
62
256
6
ByLayer
370
-1
48
1.0
60
0
100
AcDbLine
10
4804.81853813066
20
3968.74836405066
30
0.0
11
4681.71815859931
21
3897.67633114651
31
0.0
39
0.0
210
0.0
220
0.0
230
1.0
0
LINE
5
158
330
22
100
AcDbEntity
8
\U+4E2D\U+5FC3\U+7EBF\U+5C42
62
256
6
ByLayer
370
-1
48
1.0
60
0
100
AcDbLine
10
4849.63395666388
20
3849.54762594525
30
0.0
11
4774.46503965767
21
3979.74401732897
31
0.0
39
0.0
210
0.0
220
0.0
230
1.0
0
LINE
5
159
330
22
100
AcDbEntity
8
\U+4E2D\U+5FC3\U+7EBF\U+5C42
62
256
6
ByLayer
370
-1
48
1.0
60
0
100
AcDbLine
10
4763.03141495858
20
3799.54762824342
30
0.0
11
4687.86249795237
21
3929.74401962714
31
0.0
39
0.0
210
0.0
220
0.0
230
1.0
0
LINE
5
15A
330
22
100
AcDbEntity
8
\U+4E2D\U+5FC3\U+7EBF\U+5C42
62
256
6
ByLayer
370
-1
48
1.0
60
0
100
AcDbLine
10
4768.51339896582
20
3890.05255743104
30
0.0
11
4661.42767636915
21
4075.53048110064
31
0.0
39
0.0
210
0.0
220
0.0
230
1.0
0
LINE
5
15B
330
22
100
AcDbEntity
8
\U+4E2D\U+5FC3\U+7EBF\U+5C42
62
256
6
ByLayer
370
-1
48
1.0
60
0
100
AcDbLine
10
4768.51339896582
20
3890.05255743104
30
0.0
11
4875.59912156249
21
3704.57463376145
31
0.0
39
0.0
210
0.0
220
0.0
230
1.0
0
CIRCLE
5
15C
330
22
100
AcDbEntity
8
\U+7C97\U+5B9E\U+7EBF\U+5C42
62
256
6
ByLayer
370
-1
48
1.0
60
0
100
AcDbCircle
10
4720.93009176131
20
3712.46925620179
30
0.0
40
17.0
39
0.0
210
0.0
220
0.0
230
1.0
0
LINE
5
15D
330
22
100
AcDbEntity
8
\U+4E2D\U+5FC3\U+7EBF\U+5C42
62
256
6
ByLayer
370
-1
48
1.0
60
0
100
AcDbLine
10
4746.416298504
20
3727.18372362353
30
0.0
11
4695.44388401588
21
3697.75478820111
31
0.0
39
0.0
210
0.0
220
0.0
230
1.0
0
LINE
5
15E
330
22
100
AcDbEntity
8
\U+4E2D\U+5FC3\U+7EBF\U+5C42
62
256
6
ByLayer
370
-1
48
1.0
60
0
100
AcDbLine
10
4735.64456130915
20
3686.9830457766
30
0.0
11
4706.21562313794
21
3737.95546502576
31
0.0
39
0.0
210
0.0
220
0.0
230
1.0
0
CIRCLE
5
15F
330
22
100
AcDbEntity
8
\U+7C97\U+5B9E\U+7EBF\U+5C42
62
256
6
ByLayer
370
-1
48
1.0
60
0
100
AcDbCircle
10
4590.93009773656
20
3937.63586463555
30
0.0
40
17.0
39
0.0
210
0.0
220
0.0
230
1.0
0
LINE
5
160
330
22
100
AcDbEntity
8
\U+4E2D\U+5FC3\U+7EBF\U+5C42
62
256
6
ByLayer
370
-1
48
1.0
60
0
100
AcDbLine
10
4616.41630447925
20
3952.3503320573
30
0.0
11
4565.44388999113
21
3922.92139663488
31
0.0
39
0.0
210
0.0
220
0.0
230
1.0
0
LINE
5
161
330
22
100
AcDbEntity
8
\U+4E2D\U+5FC3\U+7EBF\U+5C42
62
256
6
ByLayer
370
-1
48
1.0
60
0
100
AcDbLine
10
4576.21562818873
20
3963.12207506074
30
0.0
11
4605.64456635993
21
3912.14965581158
31
0.0
39
0.0
210
0.0
220
0.0
230
1.0
0
CIRCLE
5
162
330
22
100
AcDbEntity
8
\U+7C97\U+5B9E\U+7EBF\U+5C42
62
256
6
ByLayer
370
-1
48
1.0
60
0
100
AcDbCircle
10
4816.09670617033
20
4067.6358586603
30
0.0
40
17.0
39
0.0
210
0.0
220
0.0
230
1.0
0
LINE
5
163
330
22
100
AcDbEntity
8
\U+4E2D\U+5FC3\U+7EBF\U+5C42
62
256
6
ByLayer
370
-1
48
1.0
60
0
100
AcDbLine
10
4790.61049942764
20
4052.92139123856
30
0.0
11
4841.58291391576
21
4082.35032666098
31
0.0
39
0.0
210
0.0
220
0.0
230
1.0
0
LINE
5
164
330
22
100
AcDbEntity
8
\U+4E2D\U+5FC3\U+7EBF\U+5C42
62
256
6
ByLayer
370
-1
48
1.0
60
0
100
AcDbLine
10
4801.38223662249
20
4093.12206908549
30
0.0
11
4830.8111747937
21
4042.14964983633
31
0.0
39
0.0
210
0.0
220
0.0
230
1.0
0
CIRCLE
5
165
330
22
100
AcDbEntity
8
\U+7C97\U+5B9E\U+7EBF\U+5C42
62
256
6
ByLayer
370
-1
48
1.0
60
0
100
AcDbCircle
10
4946.09670019508
20
3842.46925022654
30
0.0
40
17.0
39
0.0
210
0.0
220
0.0
230
1.0
0
LINE
5
166
330
22
100
AcDbEntity
8
\U+4E2D\U+5FC3\U+7EBF\U+5C42
62
256
6
ByLayer
370
-1
48
1.0
60
0
100
AcDbLine
10
4920.61049345239
20
3827.75478280479
30
0.0
11
4971.58290794051
21
3857.18371822721
31
0.0
39
0.0
210
0.0
220
0.0
230
1.0
0
LINE
5
167
330
22
100
AcDbEntity
8
\U+4E2D\U+5FC3\U+7EBF\U+5C42
62
256
6
ByLayer
370
-1
48
1.0
60
0
100
AcDbLine
10
4960.81116974291
20
3816.98303980135
30
0.0
11
4931.38223157171
21
3867.95545905051
31
0.0
39
0.0
210
0.0
220
0.0
230
1.0
0
LINE
5
168
330
22
100
AcDbEntity
8
\U+4E2D\U+5FC3\U+7EBF\U+5C42
62
256
6
ByLayer
370
-1
48
1.0
60
0
100
AcDbLine
10
4594.65610718223
20
3789.6760093706
30
0.0
11
4939.89251059571
21
3988.99832760004
31
0.0
39
0.0
210
0.0
220
0.0
230
1.0
0
LINE
5
169
330
22
100
AcDbEntity
8
\U+7EC6\U+5B9E\U+7EBF\U+5C42
62
256
6
ByLayer
370
-1
48
1.0
60
0
100
AcDbLine
10
4905.11593837299
20
3853.45001342761
30
0.0
11
4731.91085496235
21
3753.45001802393
31
0.0
39
0.0
210
0.0
220
0.0
230
1.0
0
LINE
5
16A
330
22
100
AcDbEntity
8
\U+7EC6\U+5B9E\U+7EBF\U+5C42
62
256
6
ByLayer
370
-1
48
1.0
60
0
100
AcDbLine
10
4805.11594296934
20
4026.6550968382
30
0.0
11
4631.9108595587
21
3926.65510143452
31
0.0
39
0.0
210
0.0
220
0.0
230
1.0
0
LINE
5
16B
330
22
100
AcDbEntity
8
\U+7EC6\U+5B9E\U+7EBF\U+5C42
62
256
6
ByLayer
370
-1
48
1.0
60
0
100
AcDbLine
10
4795.19288860252
20
3803.84232119011
30
0.0
11
4725.91085523813
21
3763.84232302856
31
0.0
39
0.0
210
0.0
220
0.0
230
1.0
0
LINE
5
16C
330
22
100
AcDbEntity
8
\U+7EC6\U+5B9E\U+7EBF\U+5C42
62
256
6
ByLayer
370
-1
48
1.0
60
0
100
AcDbLine
10
4707.19289264696
20
3956.26279459122
30
0.0
11
4637.91085928292
21
3916.26279642988
31
0.0
39
0.0
210
0.0
220
0.0
230
1.0
0
LINE
5
16D
330
22
100
AcDbEntity
8
\U+7EC6\U+5B9E\U+7EBF\U+5C42
62
256
6
ByLayer
370
-1
48
1.0
60
0
100
AcDbLine
10
4905.11593837289
20
3853.45001342766
30
0.0
11
4899.11593864882
21
3863.84231843205
31
0.0
39
0.0
210
0.0
220
0.0
230
1.0
0
LINE
5
16E
330
22
100
AcDbEntity
8
\U+7EC6\U+5B9E\U+7EBF\U+5C42
62
256
6
ByLayer
370
-1
48
1.0
60
0
100
AcDbLine
10
4811.11594269354
20
4016.26279183347
30
0.0
11
4805.1159429693
21
4026.65509683815
31
0.0
39
0.0
210
0.0
220
0.0
230
1.0
0
LINE
5
16F
330
22
100
AcDbEntity
8
\U+7EC6\U+5B9E\U+7EBF\U+5C42
62
256
6
ByLayer
370
-1
48
1.0
60
0
100
AcDbLine
10
4731.9108549623
20
3753.45001802401
30
0.0
11
4725.91085523823
21
3763.84232302839
31
0.0
39
0.0
210
0.0
220
0.0
230
1.0
0
LINE
5
170
330
22
100
AcDbEntity
8
\U+7EC6\U+5B9E\U+7EBF\U+5C42
62
256
6
ByLayer
370
-1
48
1.0
60
0
100
AcDbLine
10
4637.91085928295
20
3916.26279642981
30
0.0
11
4631.91085955871
21
3926.6551014345
31
0.0
39
0.0
210
0.0
220
0.0
230
1.0
0
LINE
5
171
330
22
100
AcDbEntity
8
\U+7EC6\U+5B9E\U+7EBF\U+5C42
62
256
6
ByLayer
370
-1
48
1.0
60
0
100
AcDbLine
10
4801.04929564308
20
3825.69872749489
30
0.0
11
4729.04929895227
21
3950.40638755082
31
0.0
39
0.0
210
0.0
220
0.0
230
1.0
0
ARC
5
172
330
22
100
AcDbEntity
8
\U+7EC6\U+5B9E\U+7EBF\U+5C42
62
256
6
ByLayer
370
-1
48
1.0
60
0
100
AcDbCircle
39
0.0
10
4787.19288897107
20
3817.69872786259
30
0.0
40
15.9999999992751
210
0.0
220
0.0
230
1.0
100
AcDbArc
50
299.99999847954
51
29.9999984795405
0
ARC
5
173
330
22
100
AcDbEntity
8
\U+7EC6\U+5B9E\U+7EBF\U+5C42
62
256
6
ByLayer
370
-1
48
1.0
60
0
100
AcDbCircle
39
0.0
10
4715.19289227935
20
3942.40638791834
30
0.0
40
16.0000000001564
210
0.0
220
0.0
230
1.0
100
AcDbArc
50
29.9999984799777
51
119.999998481548
0
LINE
5
174
330
22
100
AcDbEntity
8
\U+7EC6\U+5B9E\U+7EBF\U+5C42
62
256
6
ByLayer
370
-1
48
1.0
60
0
100
AcDbLine
10
4741.83390932947
20
3976.26279367218
30
0.0
11
4811.1159426935
21
4016.26279183353
31
0.0
39
0.0
210
0.0
220
0.0
230
1.0
0
ARC
5
175
330
22
100
AcDbEntity
8
\U+7EC6\U+5B9E\U+7EBF\U+5C42
62
256
6
ByLayer
370
-1
48
1.0
60
0
100
AcDbCircle
39
0.0
10
4749.83390896174
20
3962.40638699923
30
0.0
40
16.0000000001564
210
0.0
220
0.0
230
1.0
100
AcDbArc
50
119.999998479541
51
209.99999847954
0
LINE
5
176
330
22
100
AcDbEntity
8
\U+7EC6\U+5B9E\U+7EBF\U+5C42
62
256
6
ByLayer
370
-1
48
1.0
60
0
100
AcDbLine
10
4829.83390528433
20
3823.84232027066
30
0.0
11
4899.11593864872
21
3863.84231843221
31
0.0
39
0.0
210
0.0
220
0.0
230
1.0
0
ARC
5
177
330
22
100
AcDbEntity
8
\U+7EC6\U+5B9E\U+7EBF\U+5C42
62
256
6
ByLayer
370
-1
48
1.0
60
0
100
AcDbCircle
39
0.0
10
4821.83390565194
20
3837.69872694259
30
0.0
40
15.9999999992751
210
0.0
220
0.0
230
1.0
100
AcDbArc
50
209.999998476028
51
299.99999846549
0
LINE
5
178
330
22
100
AcDbEntity
8
\U+7EC6\U+5B9E\U+7EBF\U+5C42
62
256
6
ByLayer
370
-1
48
1.0
60
0
100
AcDbLine
10
4807.9774989795
20
3829.69872731104
30
0.0
11
4735.9775022887
21
3954.40638736697
31
0.0
39
0.0
210
0.0
220
0.0
230
1.0
0
LINE
5
179
330
22
100
AcDbEntity
8
\U+7EC6\U+5B9E\U+7EBF\U+5C42
62
256
6
ByLayer
370
-1
48
1.0
60
0
100
AcDbLine
10
4807.97749897923
20
3829.69872731151
30
0.0
11
4735.9775022887
21
3954.40638736697
31
0.0
39
0.0
210
0.0
220
0.0
230
1.0
0
LINE
5
17A
330
22
100
AcDbEntity
8
\U+7C97\U+5B9E\U+7EBF\U+5C42
62
256
6
ByLayer
370
-1
48
1.0
60
0
100
AcDbLine
10
4704.45894695973
20
3650.99811346862
30
0.0
11
4529.45895500342
21
3954.107009437
31
0.0
39
0.0
210
0.0
220
0.0
230
1.0
0
LINE
5
17B
330
22
100
AcDbEntity
8
\U+7C97\U+5B9E\U+7EBF\U+5C42
62
256
6
ByLayer
370
-1
48
1.0
60
0
100
AcDbLine
10
5007.56784292839
20
3825.99810542503
30
0.0
11
4704.4589469596
21
3650.9981134685
31
0.0
39
0.0
210
0.0
220
0.0
230
1.0
0
LINE
5
17C
330
22
100
AcDbEntity
8
\U+7C97\U+5B9E\U+7EBF\U+5C42
62
256
6
ByLayer
370
-1
48
1.0
60
0
100
AcDbLine
10
4832.56785097199
20
4129.10700139357
30
0.0
11
4529.45895500311
21
3954.10700943697
31
0.0
39
0.0
210
0.0
220
0.0
230
1.0
0
LINE
5
17D
330
22
100
AcDbEntity
8
\U+7C97\U+5B9E\U+7EBF\U+5C42
62
256
6
ByLayer
370
-1
48
1.0
60
0
100
AcDbLine
10
5007.56784292826
20
3825.99810542501
30
0.0
11
4832.56785097187
21
4129.10700139354
31
0.0
39
0.0
210
0.0
220
0.0
230
1.0
0
CIRCLE
5
17E
330
22
100
AcDbEntity
8
\U+865A\U+7EBF\U+5C42
62
256
6
ByLayer
370
-1
48
1.0
60
0
100
AcDbCircle
10
4750.21212696406
20
3821.75128772752
30
0.0
40
11.0
39
0.0
210
0.0
220
0.0
230
1.0
0
CIRCLE
5
17F
330
22
100
AcDbEntity
8
\U+865A\U+7EBF\U+5C42
62
256
6
ByLayer
370
-1
48
1.0
60
0
100
AcDbCircle
10
4700.21212926226
20
3908.35382943278
30
0.0
40
11.0
39
0.0
210
0.0
220
0.0
230
1.0
0
CIRCLE
5
180
330
22
100
AcDbEntity
8
\U+865A\U+7EBF\U+5C42
62
256
6
ByLayer
370
-1
48
1.0
60
0
100
AcDbCircle
10
4836.81466866936
20
3871.75128542935
30
0.0
40
11.0
39
0.0
210
0.0
220
0.0
230
1.0
0
CIRCLE
5
181
330
22
100
AcDbEntity
8
\U+865A\U+7EBF\U+5C42
62
256
6
ByLayer
370
-1
48
1.0
60
0
100
AcDbCircle
10
4786.81467096755
20
3958.35382713461
30
0.0
40
11.0
39
0.0
210
0.0
220
0.0
230
1.0
0
LINE
5
182
330
22
100
AcDbEntity
8
\U+4E2D\U+5FC3\U+7EBF\U+5C42
62
256
6
ByLayer
370
-1
48
1.0
60
0
100
AcDbLine
10
4854.81853583249
20
3882.14582234536
30
0.0
11
4731.71815630114
21
3811.07378944121
31
0.0
39
0.0
210
0.0
220
0.0
230
1.0
0
LINE
5
183
330
22
100
AcDbEntity
8
\U+4E2D\U+5FC3\U+7EBF\U+5C42
62
256
6
ByLayer
370
-1
48
1.0
60
0
100
AcDbLine
10
4804.81853813067
20
3968.74836405066
30
0.0
11
4681.71815859931
21
3897.67633114651
31
0.0
39
0.0
210
0.0
220
0.0
230
1.0
0
LINE
5
184
330
22
100
AcDbEntity
8
\U+4E2D\U+5FC3\U+7EBF\U+5C42
62
256
6
ByLayer
370
-1
48
1.0
60
0
100
AcDbLine
10
4849.63395666388
20
3849.54762594525
30
0.0
11
4774.46503965767
21
3979.74401732897
31
0.0
39
0.0
210
0.0
220
0.0
230
1.0
0
LINE
5
185
330
22
100
AcDbEntity
8
\U+4E2D\U+5FC3\U+7EBF\U+5C42
62
256
6
ByLayer
370
-1
48
1.0
60
0
100
AcDbLine
10
4763.03141495858
20
3799.54762824342
30
0.0
11
4687.86249795237
21
3929.74401962714
31
0.0
39
0.0
210
0.0
220
0.0
230
1.0
0
LINE
5
186
330
22
100
AcDbEntity
8
\U+4E2D\U+5FC3\U+7EBF\U+5C42
62
256
6
ByLayer
370
-1
48
1.0
60
0
100
AcDbLine
10
4768.51339896582
20
3890.05255743104
30
0.0
11
4661.42767636915
21
4075.53048110064
31
0.0
39
0.0
210
0.0
220
0.0
230
1.0
0
LINE
5
187
330
22
100
AcDbEntity
8
\U+4E2D\U+5FC3\U+7EBF\U+5C42
62
256
6
ByLayer
370
-1
48
1.0
60
0
100
AcDbLine
10
4768.51339896582
20
3890.05255743104
30
0.0
11
4875.59912156249
21
3704.57463376145
31
0.0
39
0.0
210
0.0
220
0.0
230
1.0
0
CIRCLE
5
188
330
22
100
AcDbEntity
8
\U+7C97\U+5B9E\U+7EBF\U+5C42
62
256
6
ByLayer
370
-1
48
1.0
60
0
100
AcDbCircle
10
4720.93009176131
20
3712.46925620179
30
0.0
40
17.0
39
0.0
210
0.0
220
0.0
230
1.0
0
LINE
5
189
330
22
100
AcDbEntity
8
\U+4E2D\U+5FC3\U+7EBF\U+5C42
62
256
6
ByLayer
370
-1
48
1.0
60
0
100
AcDbLine
10
4746.416298504
20
3727.18372362353
30
0.0
11
4695.44388401588
21
3697.75478820111
31
0.0
39
0.0
210
0.0
220
0.0
230
1.0
0
LINE
5
18A
330
22
100
AcDbEntity
8
\U+4E2D\U+5FC3\U+7EBF\U+5C42
62
256
6
ByLayer
370
-1
48
1.0
60
0
100
AcDbLine
10
4735.64456130915
20
3686.9830457766
30
0.0
11
4706.21562313794
21
3737.95546502576
31
0.0
39
0.0
210
0.0
220
0.0
230
1.0
0
CIRCLE
5
18B
330
22
100
AcDbEntity
8
\U+7C97\U+5B9E\U+7EBF\U+5C42
62
256
6
ByLayer
370
-1
48
1.0
60
0
100
AcDbCircle
10
4590.93009773656
20
3937.63586463555
30
0.0
40
17.0
39
0.0
210
0.0
220
0.0
230
1.0
0
LINE
5
18C
330
22
100
AcDbEntity
8
\U+4E2D\U+5FC3\U+7EBF\U+5C42
62
256
6
ByLayer
370
-1
48
1.0
60
0
100
AcDbLine
10
4616.41630447925
20
3952.3503320573
30
0.0
11
4565.44388999113
21
3922.92139663488
31
0.0
39
0.0
210
0.0
220
0.0
230
1.0
0
LINE
5
18D
330
22
100
AcDbEntity
8
\U+4E2D\U+5FC3\U+7EBF\U+5C42
62
256
6
ByLayer
370
-1
48
1.0
60
0
100
AcDbLine
10
4576.21562818873
20
3963.12207506074
30
0.0
11
4605.64456635993
21
3912.14965581158
31
0.0
39
0.0
210
0.0
220
0.0
230
1.0
0
CIRCLE
5
18E
330
22
100
AcDbEntity
8
\U+7C97\U+5B9E\U+7EBF\U+5C42
62
256
6
ByLayer
370
-1
48
1.0
60
0
100
AcDbCircle
10
4816.09670617033
20
4067.6358586603
30
0.0
40
17.0
39
0.0
210
0.0
220
0.0
230
1.0
0
LINE
5
18F
330
22
100
AcDbEntity
8
\U+4E2D\U+5FC3\U+7EBF\U+5C42
62
256
6
ByLayer
370
-1
48
1.0
60
0
100
AcDbLine
10
4790.61049942764
20
4052.92139123856
30
0.0
11
4841.58291391576
21
4082.35032666098
31
0.0
39
0.0
210
0.0
220
0.0
230
1.0
0
LINE
5
190
330
22
100
AcDbEntity
8
\U+4E2D\U+5FC3\U+7EBF\U+5C42
62
256
6
ByLayer
370
-1
48
1.0
60
0
100
AcDbLine
10
4801.38223662249
20
4093.12206908549
30
0.0
11
4830.8111747937
21
4042.14964983633
31
0.0
39
0.0
210
0.0
220
0.0
230
1.0
0
CIRCLE
5
191
330
22
100
AcDbEntity
8
\U+7C97\U+5B9E\U+7EBF\U+5C42
62
256
6
ByLayer
370
-1
48
1.0
60
0
100
AcDbCircle
10
4946.09670019508
20
3842.46925022654
30
0.0
40
17.0
39
0.0
210
0.0
220
0.0
230
1.0
0
LINE
5
192
330
22
100
AcDbEntity
8
\U+4E2D\U+5FC3\U+7EBF\U+5C42
62
256
6
ByLayer
370
-1
48
1.0
60
0
100
AcDbLine
10
4920.61049345239
20
3827.75478280479
30
0.0
11
4971.58290794051
21
3857.18371822721
31
0.0
39
0.0
210
0.0
220
0.0
230
1.0
0
LINE
5
193
330
22
100
AcDbEntity
8
\U+4E2D\U+5FC3\U+7EBF\U+5C42
62
256
6
ByLayer
370
-1
48
1.0
60
0
100
AcDbLine
10
4960.81116974291
20
3816.98303980135
30
0.0
11
4931.38223157171
21
3867.95545905051
31
0.0
39
0.0
210
0.0
220
0.0
230
1.0
0
LINE
5
194
330
22
100
AcDbEntity
8
\U+4E2D\U+5FC3\U+7EBF\U+5C42
62
256
6
ByLayer
370
-1
48
1.0
60
0
100
AcDbLine
10
4594.65610718223
20
3789.6760093706
30
0.0
11
4939.89251059571
21
3988.99832760004
31
0.0
39
0.0
210
0.0
220
0.0
230
1.0
0
LINE
5
195
330
22
100
AcDbEntity
8
\U+7EC6\U+5B9E\U+7EBF\U+5C42
62
256
6
ByLayer
370
-1
48
1.0
60
0
100
AcDbLine
10
2790.05242320652
20
5190.05254472925
30
0.0
11
2790.05241789912
21
4990.05254472919
31
0.0
39
0.0
210
0.0
220
0.0
230
1.0
0
LINE
5
196
330
22
100
AcDbEntity
8
\U+7EC6\U+5B9E\U+7EBF\U+5C42
62
256
6
ByLayer
370
-1
48
1.0
60
0
100
AcDbLine
10
2590.05242320652
20
5190.05255003665
30
0.0
11
2590.05241789912
21
4990.05255003659
31
0.0
39
0.0
210
0.0
220
0.0
230
1.0
0
LINE
5
197
330
22
100
AcDbEntity
8
\U+7EC6\U+5B9E\U+7EBF\U+5C42
62
256
6
ByLayer
370
-1
48
1.0
60
0
100
AcDbLine
10
2778.05242002208
20
5070.05254504781
30
0.0
11
2778.05241789912
21
4990.05254504763
31
0.0
39
0.0
210
0.0
220
0.0
230
1.0
0
LINE
5
198
330
22
100
AcDbEntity
8
\U+7EC6\U+5B9E\U+7EBF\U+5C42
62
256
6
ByLayer
370
-1
48
1.0
60
0
100
AcDbLine
10
2602.05242002208
20
5070.05254971792
30
0.0
11
2602.05241789912
21
4990.05254971815
31
0.0
39
0.0
210
0.0
220
0.0
230
1.0
0
LINE
5
199
330
22
100
AcDbEntity
8
\U+7EC6\U+5B9E\U+7EBF\U+5C42
62
256
6
ByLayer
370
-1
48
1.0
60
0
100
AcDbLine
10
2790.05242320642
20
5190.05254472919
30
0.0
11
2778.05242320671
21
5190.05254504763
31
0.0
39
0.0
210
0.0
220
0.0
230
1.0
0
LINE
5
19A
330
22
100
AcDbEntity
8
\U+7EC6\U+5B9E\U+7EBF\U+5C42
62
256
6
ByLayer
370
-1
48
1.0
60
0
100
AcDbLine
10
2602.0524232066
20
5190.05254971815
30
0.0
11
2590.05242320654
21
5190.05255003659
31
0.0
39
0.0
210
0.0
220
0.0
230
1.0
0
LINE
5
19B
330
22
100
AcDbEntity
8
\U+7EC6\U+5B9E\U+7EBF\U+5C42
62
256
6
ByLayer
370
-1
48
1.0
60
0
100
AcDbLine
10
2790.05241789902
20
4990.05254472919
30
0.0
11
2778.05241789931
21
4990.05254504763
31
0.0
39
0.0
210
0.0
220
0.0
230
1.0
0
LINE
5
19C
330
22
100
AcDbEntity
8
\U+7EC6\U+5B9E\U+7EBF\U+5C42
62
256
6
ByLayer
370
-1
48
1.0
60
0
100
AcDbLine
10
2602.05241789919
20
4990.05254971815
30
0.0
11
2590.05241789913
21
4990.05255003659
31
0.0
39
0.0
210
0.0
220
0.0
230
1.0
0
LINE
5
19D
330
22
100
AcDbEntity
8
\U+7EC6\U+5B9E\U+7EBF\U+5C42
62
256
6
ByLayer
370
-1
48
1.0
60
0
100
AcDbLine
10
2762.05242044698
20
5086.05254547222
30
0.0
11
2618.05242044663
21
5086.05254929355
31
0.0
39
0.0
210
0.0
220
0.0
230
1.0
0
ARC
5
19E
330
22
100
AcDbEntity
8
\U+7EC6\U+5B9E\U+7EBF\U+5C42
62
256
6
ByLayer
370
-1
48
1.0
60
0
100
AcDbCircle
39
0.0
10
2762.05242002282
20
5070.05254547295
30
0.0
40
15.9999999992751
210
0.0
220
0.0
230
1.0
100
AcDbArc
50
359.999998479541
51
89.9999984795408
0
ARC
5
19F
330
22
100
AcDbEntity
8
\U+7EC6\U+5B9E\U+7EBF\U+5C42
62
256
6
ByLayer
370
-1
48
1.0
60
0
100
AcDbCircle
39
0.0
10
2618.05242002216
20
5070.0525492934
30
0.0
40
16.0000000001564
210
0.0
220
0.0
230
1.0
100
AcDbArc
50
89.9999984799786
51
179.999998481552
0
LINE
5
1A0
330
22
100
AcDbEntity
8
\U+7EC6\U+5B9E\U+7EBF\U+5C42
62
256
6
ByLayer
370
-1
48
1.0
60
0
100
AcDbLine
10
2602.05242108356
20
5110.05254971838
30
0.0
11
2602.05242320652
21
5190.05254971814
31
0.0
39
0.0
210
0.0
220
0.0
230
1.0
0
ARC
5
1A1
330
22
100
AcDbEntity
8
\U+7EC6\U+5B9E\U+7EBF\U+5C42
62
256
6
ByLayer
370
-1
48
1.0
60
0
100
AcDbCircle
39
0.0
10
2618.05242108364
20
5110.05254929371
30
0.0
40
16.0000000001564
210
0.0
220
0.0
230
1.0
100
AcDbArc
50
179.999998479541
51
269.999998479541
0
LINE
5
1A2
330
22
100
AcDbEntity
8
\U+7EC6\U+5B9E\U+7EBF\U+5C42
62
256
6
ByLayer
370
-1
48
1.0
60
0
100
AcDbLine
10
2778.05242108356
20
5110.05254504745
30
0.0
11
2778.05242320652
21
5190.05254504763
31
0.0
39
0.0
210
0.0
220
0.0
230
1.0
0
ARC
5
1A3
330
22
100
AcDbEntity
8
\U+7EC6\U+5B9E\U+7EBF\U+5C42
62
256
6
ByLayer
370
-1
48
1.0
60
0
100
AcDbCircle
39
0.0
10
2762.0524210843
20
5110.0525454715
30
0.0
40
15.9999999992751
210
0.0
220
0.0
230
1.0
100
AcDbArc
50
269.999998476029
51
359.999998465492
0
LINE
5
1A4
330
22
100
AcDbEntity
8
\U+7EC6\U+5B9E\U+7EBF\U+5C42
62
256
6
ByLayer
370
-1
48
1.0
60
0
100
AcDbLine
10
2762.05242065927
20
5094.05254547222
30
0.0
11
2618.05242065893
21
5094.05254929355
31
0.0
39
0.0
210
0.0
220
0.0
230
1.0
0
LINE
5
1A5
330
22
100
AcDbEntity
8
\U+7EC6\U+5B9E\U+7EBF\U+5C42
62
256
6
ByLayer
370
-1
48
1.0
60
0
100
AcDbLine
10
2762.05242065873
20
5094.05254547222
30
0.0
11
2618.05242065893
21
5094.05254929355
31
0.0
39
0.0
210
0.0
220
0.0
230
1.0
0
LINE
5
1A6
330
22
100
AcDbEntity
8
\U+7C97\U+5B9E\U+7EBF\U+5C42
62
256
6
ByLayer
370
-1
48
1.0
60
0
100
AcDbLine
10
2865.0524159088
20
4915.05254273891
30
0.0
11
2515.05241590897
21
4915.05255202687
31
0.0
39
0.0
210
0.0
220
0.0
230
1.0
0
LINE
5
1A7
330
22
100
AcDbEntity
8
\U+7C97\U+5B9E\U+7EBF\U+5C42
62
256
6
ByLayer
370
-1
48
1.0
60
0
100
AcDbLine
10
2865.0524251968
20
5265.05254273903
30
0.0
11
2865.05241590884
21
4915.05254273874
31
0.0
39
0.0
210
0.0
220
0.0
230
1.0
0
LINE
5
1A8
330
22
100
AcDbEntity
8
\U+7C97\U+5B9E\U+7EBF\U+5C42
62
256
6
ByLayer
370
-1
48
1.0
60
0
100
AcDbLine
10
2515.0524251968
20
5265.05255202699
30
0.0
11
2515.05241590884
21
4915.05255202658
31
0.0
39
0.0
210
0.0
220
0.0
230
1.0
0
LINE
5
1A9
330
22
100
AcDbEntity
8
\U+7C97\U+5B9E\U+7EBF\U+5C42
62
256
6
ByLayer
370
-1
48
1.0
60
0
100
AcDbLine
10
2865.05242519676
20
5265.05254273891
30
0.0
11
2515.05242519676
21
5265.05255202687
31
0.0
39
0.0
210
0.0
220
0.0
230
1.0
0
CIRCLE
5
1AA
330
22
100
AcDbEntity
8
\U+865A\U+7EBF\U+5C42
62
256
6
ByLayer
370
-1
48
1.0
60
0
100
AcDbCircle
10
2740.05241922593
20
5040.05254605604
30
0.0
40
11.0
39
0.0
210
0.0
220
0.0
230
1.0
0
CIRCLE
5
1AB
330
22
100
AcDbEntity
8
\U+865A\U+7EBF\U+5C42
62
256
6
ByLayer
370
-1
48
1.0
60
0
100
AcDbCircle
10
2640.05241922597
20
5040.05254870974
30
0.0
40
11.0
39
0.0
210
0.0
220
0.0
230
1.0
0
CIRCLE
5
1AC
330
22
100
AcDbEntity
8
\U+865A\U+7EBF\U+5C42
62
256
6
ByLayer
370
-1
48
1.0
60
0
100
AcDbCircle
10
2740.05242187963
20
5140.05254605604
30
0.0
40
11.0
39
0.0
210
0.0
220
0.0
230
1.0
0
CIRCLE
5
1AD
330
22
100
AcDbEntity
8
\U+865A\U+7EBF\U+5C42
62
256
6
ByLayer
370
-1
48
1.0
60
0
100
AcDbCircle
10
2640.05242187967
20
5140.05254870974
30
0.0
40
11.0
39
0.0
210
0.0
220
0.0
230
1.0
0
LINE
5
1AE
330
22
100
AcDbEntity
8
\U+4E2D\U+5FC3\U+7EBF\U+5C42
62
256
6
ByLayer
370
-1
48
1.0
60
0
100
AcDbLine
10
2740.05242243135
20
5160.84162084368
30
0.0
11
2740.05241865927
21
5018.69754850194
31
0.0
39
0.0
210
0.0
220
0.0
230
1.0
0
LINE
5
1AF
330
22
100
AcDbEntity
8
\U+4E2D\U+5FC3\U+7EBF\U+5C42
62
256
6
ByLayer
370
-1
48
1.0
60
0
100
AcDbLine
10
2640.05242243135
20
5160.84162349738
30
0.0
11
2640.05241865927
21
5018.69755115565
31
0.0
39
0.0
210
0.0
220
0.0
230
1.0
0
LINE
5
1B0
330
22
100
AcDbEntity
8
\U+4E2D\U+5FC3\U+7EBF\U+5C42
62
256
6
ByLayer
370
-1
48
1.0
60
0
100
AcDbLine
10
2765.6909990471
20
5140.05254537567
30
0.0
11
2615.35315812463
21
5140.05254936518
31
0.0
39
0.0
210
0.0
220
0.0
230
1.0
0
LINE
5
1B1
330
22
100
AcDbEntity
8
\U+4E2D\U+5FC3\U+7EBF\U+5C42
62
256
6
ByLayer
370
-1
48
1.0
60
0
100
AcDbLine
10
2765.69099639339
20
5040.05254537567
30
0.0
11
2615.35315547093
21
5040.05254936518
31
0.0
39
0.0
210
0.0
220
0.0
230
1.0
0
LINE
5
1B2
330
22
100
AcDbEntity
8
\U+4E2D\U+5FC3\U+7EBF\U+5C42
62
256
6
ByLayer
370
-1
48
1.0
60
0
100
AcDbLine
10
2690.05242055282
20
5090.05254738289
30
0.0
11
2475.88096551542
21
5090.05255306636
31
0.0
39
0.0
210
0.0
220
0.0
230
1.0
0
LINE
5
1B3
330
22
100
AcDbEntity
8
\U+4E2D\U+5FC3\U+7EBF\U+5C42
62
256
6
ByLayer
370
-1
48
1.0
60
0
100
AcDbLine
10
2690.05242055282
20
5090.05254738289
30
0.0
11
2904.22387559022
21
5090.05254169942
31
0.0
39
0.0
210
0.0
220
0.0
230
1.0
0
CIRCLE
5
1B4
330
22
100
AcDbEntity
8
\U+7C97\U+5B9E\U+7EBF\U+5C42
62
256
6
ByLayer
370
-1
48
1.0
60
0
100
AcDbCircle
10
2820.05241710301
20
4960.05254393308
30
0.0
40
17.0
39
0.0
210
0.0
220
0.0
230
1.0
0
LINE
5
1B5
330
22
100
AcDbEntity
8
\U+4E2D\U+5FC3\U+7EBF\U+5C42
62
256
6
ByLayer
370
-1
48
1.0
60
0
100
AcDbLine
10
2820.05241788396
20
4989.48148012922
30
0.0
11
2820.05241632205
21
4930.62360657907
31
0.0
39
0.0
210
0.0
220
0.0
230
1.0
0
LINE
5
1B6
330
22
100
AcDbEntity
8
\U+4E2D\U+5FC3\U+7EBF\U+5C42
62
256
6
ByLayer
370
-1
48
1.0
60
0
100
AcDbLine
10
2849.48135755134
20
4960.05254315212
30
0.0
11
2790.62347850361
21
4960.05254471403
31
0.0
39
0.0
210
0.0
220
0.0
230
1.0
0
CIRCLE
5
1B7
330
22
100
AcDbEntity
8
\U+7C97\U+5B9E\U+7EBF\U+5C42
62
256
6
ByLayer
370
-1
48
1.0
60
0
100
AcDbCircle
10
2560.05241710301
20
4960.0525508327
30
0.0
40
17.0
39
0.0
210
0.0
220
0.0
230
1.0
0
LINE
5
1B8
330
22
100
AcDbEntity
8
\U+4E2D\U+5FC3\U+7EBF\U+5C42
62
256
6
ByLayer
370
-1
48
1.0
60
0
100
AcDbLine
10
2560.05241788396
20
4989.48148702884
30
0.0
11
2560.05241632205
21
4930.62361347869
31
0.0
39
0.0
210
0.0
220
0.0
230
1.0
0
LINE
5
1B9
330
22
100
AcDbEntity
8
\U+4E2D\U+5FC3\U+7EBF\U+5C42
62
256
6
ByLayer
370
-1
48
1.0
60
0
100
AcDbLine
10
2530.62347665468
20
4960.05255161366
30
0.0
11
2589.48135570241
21
4960.05255005175
31
0.0
39
0.0
210
0.0
220
0.0
230
1.0
0
CIRCLE
5
1BA
330
22
100
AcDbEntity
8
\U+7C97\U+5B9E\U+7EBF\U+5C42
62
256
6
ByLayer
370
-1
48
1.0
60
0
100
AcDbCircle
10
2560.05242400263
20
5220.0525508327
30
0.0
40
17.0
39
0.0
210
0.0
220
0.0
230
1.0
0
LINE
5
1BB
330
22
100
AcDbEntity
8
\U+4E2D\U+5FC3\U+7EBF\U+5C42
62
256
6
ByLayer
370
-1
48
1.0
60
0
100
AcDbLine
10
2560.05242322168
20
5190.62361463656
30
0.0
11
2560.05242478359
21
5249.48148818671
31
0.0
39
0.0
210
0.0
220
0.0
230
1.0
0
LINE
5
1BC
330
22
100
AcDbEntity
8
\U+4E2D\U+5FC3\U+7EBF\U+5C42
62
256
6
ByLayer
370
-1
48
1.0
60
0
100
AcDbLine
10
2530.62348355431
20
5220.05255161366
30
0.0
11
2589.48136260203
21
5220.05255005175
31
0.0
39
0.0
210
0.0
220
0.0
230
1.0
0
CIRCLE
5
1BD
330
22
100
AcDbEntity
8
\U+7C97\U+5B9E\U+7EBF\U+5C42
62
256
6
ByLayer
370
-1
48
1.0
60
0
100
AcDbCircle
10
2820.05242400263
20
5220.05254393308
30
0.0
40
17.0
39
0.0
210
0.0
220
0.0
230
1.0
0
LINE
5
1BE
330
22
100
AcDbEntity
8
\U+4E2D\U+5FC3\U+7EBF\U+5C42
62
256
6
ByLayer
370
-1
48
1.0
60
0
100
AcDbLine
10
2820.05242322168
20
5190.62360773693
30
0.0
11
2820.05242478359
21
5249.48148128709
31
0.0
39
0.0
210
0.0
220
0.0
230
1.0
0
LINE
5
1BF
330
22
100
AcDbEntity
8
\U+4E2D\U+5FC3\U+7EBF\U+5C42
62
256
6
ByLayer
370
-1
48
1.0
60
0
100
AcDbLine
10
2849.48136445096
20
5220.05254315212
30
0.0
11
2790.62348540323
21
5220.05254471403
31
0.0
39
0.0
210
0.0
220
0.0
230
1.0
0
LINE
5
1C0
330
22
100
AcDbEntity
8
\U+4E2D\U+5FC3\U+7EBF\U+5C42
62
256
6
ByLayer
370
-1
48
1.0
60
0
100
AcDbLine
10
2690.05241522556
20
4889.29944203492
30
0.0
11
2690.0524258044
21
5287.94409681688
31
0.0
39
0.0
210
0.0
220
0.0
230
1.0
0
LINE
5
1C1
330
22
100
AcDbEntity
8
\U+7EC6\U+5B9E\U+7EBF\U+5C42
62
256
6
ByLayer
370
-1
48
1.0
60
0
100
AcDbLine
10
2790.05242320652
20
5190.05254472925
30
0.0
11
2790.05241789912
21
4990.05254472919
31
0.0
39
0.0
210
0.0
220
0.0
230
1.0
0
LINE
5
1C2
330
22
100
AcDbEntity
8
\U+7EC6\U+5B9E\U+7EBF\U+5C42
62
256
6
ByLayer
370
-1
48
1.0
60
0
100
AcDbLine
10
2590.05242320652
20
5190.05255003665
30
0.0
11
2590.05241789912
21
4990.05255003659
31
0.0
39
0.0
210
0.0
220
0.0
230
1.0
0
LINE
5
1C3
330
22
100
AcDbEntity
8
\U+7EC6\U+5B9E\U+7EBF\U+5C42
62
256
6
ByLayer
370
-1
48
1.0
60
0
100
AcDbLine
10
2778.05242002208
20
5070.05254504781
30
0.0
11
2778.05241789912
21
4990.05254504763
31
0.0
39
0.0
210
0.0
220
0.0
230
1.0
0
LINE
5
1C4
330
22
100
AcDbEntity
8
\U+7EC6\U+5B9E\U+7EBF\U+5C42
62
256
6
ByLayer
370
-1
48
1.0
60
0
100
AcDbLine
10
2602.05242002208
20
5070.05254971792
30
0.0
11
2602.05241789912
21
4990.05254971815
31
0.0
39
0.0
210
0.0
220
0.0
230
1.0
0
LINE
5
1C5
330
22
100
AcDbEntity
8
\U+7EC6\U+5B9E\U+7EBF\U+5C42
62
256
6
ByLayer
370
-1
48
1.0
60
0
100
AcDbLine
10
2790.05242320642
20
5190.05254472919
30
0.0
11
2778.05242320671
21
5190.05254504763
31
0.0
39
0.0
210
0.0
220
0.0
230
1.0
0
LINE
5
1C6
330
22
100
AcDbEntity
8
\U+7EC6\U+5B9E\U+7EBF\U+5C42
62
256
6
ByLayer
370
-1
48
1.0
60
0
100
AcDbLine
10
2602.0524232066
20
5190.05254971815
30
0.0
11
2590.05242320654
21
5190.05255003659
31
0.0
39
0.0
210
0.0
220
0.0
230
1.0
0
LINE
5
1C7
330
22
100
AcDbEntity
8
\U+7EC6\U+5B9E\U+7EBF\U+5C42
62
256
6
ByLayer
370
-1
48
1.0
60
0
100
AcDbLine
10
2790.05241789902
20
4990.05254472919
30
0.0
11
2778.05241789931
21
4990.05254504763
31
0.0
39
0.0
210
0.0
220
0.0
230
1.0
0
LINE
5
1C8
330
22
100
AcDbEntity
8
\U+7EC6\U+5B9E\U+7EBF\U+5C42
62
256
6
ByLayer
370
-1
48
1.0
60
0
100
AcDbLine
10
2602.05241789919
20
4990.05254971815
30
0.0
11
2590.05241789913
21
4990.05255003659
31
0.0
39
0.0
210
0.0
220
0.0
230
1.0
0
LINE
5
1C9
330
22
100
AcDbEntity
8
\U+7EC6\U+5B9E\U+7EBF\U+5C42
62
256
6
ByLayer
370
-1
48
1.0
60
0
100
AcDbLine
10
2762.05242044698
20
5086.05254547222
30
0.0
11
2618.05242044663
21
5086.05254929355
31
0.0
39
0.0
210
0.0
220
0.0
230
1.0
0
ARC
5
1CA
330
22
100
AcDbEntity
8
\U+7EC6\U+5B9E\U+7EBF\U+5C42
62
256
6
ByLayer
370
-1
48
1.0
60
0
100
AcDbCircle
39
0.0
10
2762.05242002282
20
5070.05254547295
30
0.0
40
15.9999999992751
210
0.0
220
0.0
230
1.0
100
AcDbArc
50
359.999998479541
51
89.9999984795408
0
ARC
5
1CB
330
22
100
AcDbEntity
8
\U+7EC6\U+5B9E\U+7EBF\U+5C42
62
256
6
ByLayer
370
-1
48
1.0
60
0
100
AcDbCircle
39
0.0
10
2618.05242002216
20
5070.0525492934
30
0.0
40
16.0000000001564
210
0.0
220
0.0
230
1.0
100
AcDbArc
50
89.999998479978
51
179.999998481549
0
LINE
5
1CC
330
22
100
AcDbEntity
8
\U+7EC6\U+5B9E\U+7EBF\U+5C42
62
256
6
ByLayer
370
-1
48
1.0
60
0
100
AcDbLine
10
2602.05242108356
20
5110.05254971838
30
0.0
11
2602.05242320652
21
5190.05254971814
31
0.0
39
0.0
210
0.0
220
0.0
230
1.0
0
ARC
5
1CD
330
22
100
AcDbEntity
8
\U+7EC6\U+5B9E\U+7EBF\U+5C42
62
256
6
ByLayer
370
-1
48
1.0
60
0
100
AcDbCircle
39
0.0
10
2618.05242108364
20
5110.05254929371
30
0.0
40
16.0000000001564
210
0.0
220
0.0
230
1.0
100
AcDbArc
50
179.999998479541
51
269.999998479541
0
LINE
5
1CE
330
22
100
AcDbEntity
8
\U+7EC6\U+5B9E\U+7EBF\U+5C42
62
256
6
ByLayer
370
-1
48
1.0
60
0
100
AcDbLine
10
2778.05242108356
20
5110.05254504745
30
0.0
11
2778.05242320652
21
5190.05254504763
31
0.0
39
0.0
210
0.0
220
0.0
230
1.0
0
ARC
5
1CF
330
22
100
AcDbEntity
8
\U+7EC6\U+5B9E\U+7EBF\U+5C42
62
256
6
ByLayer
370
-1
48
1.0
60
0
100
AcDbCircle
39
0.0
10
2762.0524210843
20
5110.0525454715
30
0.0
40
15.9999999992751
210
0.0
220
0.0
230
1.0
100
AcDbArc
50
269.999998476029
51
359.99999846549
0
LINE
5
1D0
330
22
100
AcDbEntity
8
\U+7EC6\U+5B9E\U+7EBF\U+5C42
62
256
6
ByLayer
370
-1
48
1.0
60
0
100
AcDbLine
10
2762.05242065927
20
5094.05254547222
30
0.0
11
2618.05242065893
21
5094.05254929355
31
0.0
39
0.0
210
0.0
220
0.0
230
1.0
0
LINE
5
1D1
330
22
100
AcDbEntity
8
\U+7EC6\U+5B9E\U+7EBF\U+5C42
62
256
6
ByLayer
370
-1
48
1.0
60
0
100
AcDbLine
10
2762.05242065873
20
5094.05254547222
30
0.0
11
2618.05242065893
21
5094.05254929355
31
0.0
39
0.0
210
0.0
220
0.0
230
1.0
0
LINE
5
1D2
330
22
100
AcDbEntity
8
\U+7C97\U+5B9E\U+7EBF\U+5C42
62
256
6
ByLayer
370
-1
48
1.0
60
0
100
AcDbLine
10
2865.0524159088
20
4915.05254273891
30
0.0
11
2515.05241590897
21
4915.05255202687
31
0.0
39
0.0
210
0.0
220
0.0
230
1.0
0
LINE
5
1D3
330
22
100
AcDbEntity
8
\U+7C97\U+5B9E\U+7EBF\U+5C42
62
256
6
ByLayer
370
-1
48
1.0
60
0
100
AcDbLine
10
2865.0524251968
20
5265.05254273903
30
0.0
11
2865.05241590884
21
4915.05254273874
31
0.0
39
0.0
210
0.0
220
0.0
230
1.0
0
LINE
5
1D4
330
22
100
AcDbEntity
8
\U+7C97\U+5B9E\U+7EBF\U+5C42
62
256
6
ByLayer
370
-1
48
1.0
60
0
100
AcDbLine
10
2515.0524251968
20
5265.05255202699
30
0.0
11
2515.05241590884
21
4915.05255202658
31
0.0
39
0.0
210
0.0
220
0.0
230
1.0
0
LINE
5
1D5
330
22
100
AcDbEntity
8
\U+7C97\U+5B9E\U+7EBF\U+5C42
62
256
6
ByLayer
370
-1
48
1.0
60
0
100
AcDbLine
10
2865.05242519676
20
5265.05254273891
30
0.0
11
2515.05242519676
21
5265.05255202687
31
0.0
39
0.0
210
0.0
220
0.0
230
1.0
0
CIRCLE
5
1D6
330
22
100
AcDbEntity
8
\U+865A\U+7EBF\U+5C42
62
256
6
ByLayer
370
-1
48
1.0
60
0
100
AcDbCircle
10
2740.05241922593
20
5040.05254605604
30
0.0
40
11.0
39
0.0
210
0.0
220
0.0
230
1.0
0
CIRCLE
5
1D7
330
22
100
AcDbEntity
8
\U+865A\U+7EBF\U+5C42
62
256
6
ByLayer
370
-1
48
1.0
60
0
100
AcDbCircle
10
2640.05241922597
20
5040.05254870974
30
0.0
40
11.0
39
0.0
210
0.0
220
0.0
230
1.0
0
CIRCLE
5
1D8
330
22
100
AcDbEntity
8
\U+865A\U+7EBF\U+5C42
62
256
6
ByLayer
370
-1
48
1.0
60
0
100
AcDbCircle
10
2740.05242187963
20
5140.05254605604
30
0.0
40
11.0
39
0.0
210
0.0
220
0.0
230
1.0
0
CIRCLE
5
1D9
330
22
100
AcDbEntity
8
\U+865A\U+7EBF\U+5C42
62
256
6
ByLayer
370
-1
48
1.0
60
0
100
AcDbCircle
10
2640.05242187967
20
5140.05254870974
30
0.0
40
11.0
39
0.0
210
0.0
220
0.0
230
1.0
0
LINE
5
1DA
330
22
100
AcDbEntity
8
\U+4E2D\U+5FC3\U+7EBF\U+5C42
62
256
6
ByLayer
370
-1
48
1.0
60
0
100
AcDbLine
10
2740.05242243135
20
5160.84162084368
30
0.0
11
2740.05241865927
21
5018.69754850194
31
0.0
39
0.0
210
0.0
220
0.0
230
1.0
0
LINE
5
1DB
330
22
100
AcDbEntity
8
\U+4E2D\U+5FC3\U+7EBF\U+5C42
62
256
6
ByLayer
370
-1
48
1.0
60
0
100
AcDbLine
10
2640.05242243135
20
5160.84162349738
30
0.0
11
2640.05241865927
21
5018.69755115565
31
0.0
39
0.0
210
0.0
220
0.0
230
1.0
0
LINE
5
1DC
330
22
100
AcDbEntity
8
\U+4E2D\U+5FC3\U+7EBF\U+5C42
62
256
6
ByLayer
370
-1
48
1.0
60
0
100
AcDbLine
10
2765.6909990471
20
5140.05254537567
30
0.0
11
2615.35315812463
21
5140.05254936518
31
0.0
39
0.0
210
0.0
220
0.0
230
1.0
0
LINE
5
1DD
330
22
100
AcDbEntity
8
\U+4E2D\U+5FC3\U+7EBF\U+5C42
62
256
6
ByLayer
370
-1
48
1.0
60
0
100
AcDbLine
10
2765.69099639339
20
5040.05254537567
30
0.0
11
2615.35315547093
21
5040.05254936518
31
0.0
39
0.0
210
0.0
220
0.0
230
1.0
0
LINE
5
1DE
330
22
100
AcDbEntity
8
\U+4E2D\U+5FC3\U+7EBF\U+5C42
62
256
6
ByLayer
370
-1
48
1.0
60
0
100
AcDbLine
10
2690.05242055282
20
5090.05254738289
30
0.0
11
2475.88096551542
21
5090.05255306636
31
0.0
39
0.0
210
0.0
220
0.0
230
1.0
0
LINE
5
1DF
330
22
100
AcDbEntity
8
\U+4E2D\U+5FC3\U+7EBF\U+5C42
62
256
6
ByLayer
370
-1
48
1.0
60
0
100
AcDbLine
10
2690.05242055282
20
5090.05254738289
30
0.0
11
2904.22387559022
21
5090.05254169942
31
0.0
39
0.0
210
0.0
220
0.0
230
1.0
0
CIRCLE
5
1E0
330
22
100
AcDbEntity
8
\U+7C97\U+5B9E\U+7EBF\U+5C42
62
256
6
ByLayer
370
-1
48
1.0
60
0
100
AcDbCircle
10
2820.05241710301
20
4960.05254393308
30
0.0
40
17.0
39
0.0
210
0.0
220
0.0
230
1.0
0
LINE
5
1E1
330
22
100
AcDbEntity
8
\U+4E2D\U+5FC3\U+7EBF\U+5C42
62
256
6
ByLayer
370
-1
48
1.0
60
0
100
AcDbLine
10
2820.05241788396
20
4989.48148012922
30
0.0
11
2820.05241632205
21
4930.62360657907
31
0.0
39
0.0
210
0.0
220
0.0
230
1.0
0
LINE
5
1E2
330
22
100
AcDbEntity
8
\U+4E2D\U+5FC3\U+7EBF\U+5C42
62
256
6
ByLayer
370
-1
48
1.0
60
0
100
AcDbLine
10
2849.48135755134
20
4960.05254315212
30
0.0
11
2790.62347850361
21
4960.05254471403
31
0.0
39
0.0
210
0.0
220
0.0
230
1.0
0
CIRCLE
5
1E3
330
22
100
AcDbEntity
8
\U+7C97\U+5B9E\U+7EBF\U+5C42
62
256
6
ByLayer
370
-1
48
1.0
60
0
100
AcDbCircle
10
2560.05241710301
20
4960.0525508327
30
0.0
40
17.0
39
0.0
210
0.0
220
0.0
230
1.0
0
LINE
5
1E4
330
22
100
AcDbEntity
8
\U+4E2D\U+5FC3\U+7EBF\U+5C42
62
256
6
ByLayer
370
-1
48
1.0
60
0
100
AcDbLine
10
2560.05241788396
20
4989.48148702884
30
0.0
11
2560.05241632205
21
4930.62361347869
31
0.0
39
0.0
210
0.0
220
0.0
230
1.0
0
LINE
5
1E5
330
22
100
AcDbEntity
8
\U+4E2D\U+5FC3\U+7EBF\U+5C42
62
256
6
ByLayer
370
-1
48
1.0
60
0
100
AcDbLine
10
2530.62347665468
20
4960.05255161366
30
0.0
11
2589.48135570241
21
4960.05255005175
31
0.0
39
0.0
210
0.0
220
0.0
230
1.0
0
CIRCLE
5
1E6
330
22
100
AcDbEntity
8
\U+7C97\U+5B9E\U+7EBF\U+5C42
62
256
6
ByLayer
370
-1
48
1.0
60
0
100
AcDbCircle
10
2560.05242400263
20
5220.0525508327
30
0.0
40
17.0
39
0.0
210
0.0
220
0.0
230
1.0
0
LINE
5
1E7
330
22
100
AcDbEntity
8
\U+4E2D\U+5FC3\U+7EBF\U+5C42
62
256
6
ByLayer
370
-1
48
1.0
60
0
100
AcDbLine
10
2560.05242322168
20
5190.62361463656
30
0.0
11
2560.05242478359
21
5249.48148818671
31
0.0
39
0.0
210
0.0
220
0.0
230
1.0
0
LINE
5
1E8
330
22
100
AcDbEntity
8
\U+4E2D\U+5FC3\U+7EBF\U+5C42
62
256
6
ByLayer
370
-1
48
1.0
60
0
100
AcDbLine
10
2530.62348355431
20
5220.05255161366
30
0.0
11
2589.48136260203
21
5220.05255005175
31
0.0
39
0.0
210
0.0
220
0.0
230
1.0
0
CIRCLE
5
1E9
330
22
100
AcDbEntity
8
\U+7C97\U+5B9E\U+7EBF\U+5C42
62
256
6
ByLayer
370
-1
48
1.0
60
0
100
AcDbCircle
10
2820.05242400263
20
5220.05254393308
30
0.0
40
17.0
39
0.0
210
0.0
220
0.0
230
1.0
0
LINE
5
1EA
330
22
100
AcDbEntity
8
\U+4E2D\U+5FC3\U+7EBF\U+5C42
62
256
6
ByLayer
370
-1
48
1.0
60
0
100
AcDbLine
10
2820.05242322168
20
5190.62360773693
30
0.0
11
2820.05242478359
21
5249.48148128709
31
0.0
39
0.0
210
0.0
220
0.0
230
1.0
0
LINE
5
1EB
330
22
100
AcDbEntity
8
\U+4E2D\U+5FC3\U+7EBF\U+5C42
62
256
6
ByLayer
370
-1
48
1.0
60
0
100
AcDbLine
10
2849.48136445096
20
5220.05254315212
30
0.0
11
2790.62348540323
21
5220.05254471403
31
0.0
39
0.0
210
0.0
220
0.0
230
1.0
0
LINE
5
1EC
330
22
100
AcDbEntity
8
\U+4E2D\U+5FC3\U+7EBF\U+5C42
62
256
6
ByLayer
370
-1
48
1.0
60
0
100
AcDbLine
10
2690.05241522556
20
4889.29944203492
30
0.0
11
2690.0524258044
21
5287.94409681688
31
0.0
39
0.0
210
0.0
220
0.0
230
1.0
0
LINE
5
1ED
330
22
100
AcDbEntity
8
\U+7EC6\U+5B9E\U+7EBF\U+5C42
62
256
6
ByLayer
370
-1
48
1.0
60
0
100
AcDbLine
10
574.98891875362
20
4026.65507562828
30
0.0
11
748.193996856856
21
3926.6550710319
31
0.0
39
0.0
210
0.0
220
0.0
230
1.0
0
LINE
5
1EE
330
22
100
AcDbEntity
8
\U+7EC6\U+5B9E\U+7EBF\U+5C42
62
256
6
ByLayer
370
-1
48
1.0
60
0
100
AcDbLine
10
474.988914157273
20
3853.44999752509
30
0.0
11
648.193992260509
21
3753.44999292872
31
0.0
39
0.0
210
0.0
220
0.0
230
1.0
0
LINE
5
1EF
330
22
100
AcDbEntity
8
\U+7EC6\U+5B9E\U+7EBF\U+5C42
62
256
6
ByLayer
370
-1
48
1.0
60
0
100
AcDbLine
10
672.91196533965
20
3956.26276818434
30
0.0
11
742.193996581075
21
3916.26276634571
31
0.0
39
0.0
210
0.0
220
0.0
230
1.0
0
LINE
5
1F0
330
22
100
AcDbEntity
8
\U+7EC6\U+5B9E\U+7EBF\U+5C42
62
256
6
ByLayer
370
-1
48
1.0
60
0
100
AcDbLine
10
584.911961295217
20
3803.84229945333
30
0.0
11
654.19399253629
21
3763.84229761491
31
0.0
39
0.0
210
0.0
220
0.0
230
1.0
0
LINE
5
1F1
330
22
100
AcDbEntity
8
\U+7EC6\U+5B9E\U+7EBF\U+5C42
62
256
6
ByLayer
370
-1
48
1.0
60
0
100
AcDbLine
10
574.988918753622
20
4026.65507562816
30
0.0
11
568.988918477987
21
4016.26277094222
31
0.0
39
0.0
210
0.0
220
0.0
230
1.0
0
LINE
5
1F2
330
22
100
AcDbEntity
8
\U+7EC6\U+5B9E\U+7EBF\U+5C42
62
256
6
ByLayer
370
-1
48
1.0
60
0
100
AcDbLine
10
480.988914433144
20
3863.84230221132
30
0.0
11
474.988914157333
21
3853.44999752508
31
0.0
39
0.0
210
0.0
220
0.0
230
1.0
0
LINE
5
1F3
330
22
100
AcDbEntity
8
\U+7EC6\U+5B9E\U+7EBF\U+5C42
62
256
6
ByLayer
370
-1
48
1.0
60
0
100
AcDbLine
10
748.193996856809
20
3926.65507103181
30
0.0
11
742.193996581173
21
3916.26276634588
31
0.0
39
0.0
210
0.0
220
0.0
230
1.0
0
LINE
5
1F4
330
22
100
AcDbEntity
8
\U+7EC6\U+5B9E\U+7EBF\U+5C42
62
256
6
ByLayer
370
-1
48
1.0
60
0
100
AcDbLine
10
654.193992536329
20
3763.84229761497
30
0.0
11
648.193992260519
21
3753.44999292873
31
0.0
39
0.0
210
0.0
220
0.0
230
1.0
0
LINE
5
1F5
330
22
100
AcDbEntity
8
\U+7EC6\U+5B9E\U+7EBF\U+5C42
62
256
6
ByLayer
370
-1
48
1.0
60
0
100
AcDbLine
10
651.055558723995
20
3950.40636230397
30
0.0
11
579.05555541445
21
3825.69870606937
31
0.0
39
0.0
210
0.0
220
0.0
230
1.0
0
ARC
5
1F6
330
22
100
AcDbEntity
8
\U+7EC6\U+5B9E\U+7EBF\U+5C42
62
256
6
ByLayer
370
-1
48
1.0
60
0
100
AcDbCircle
39
0.0
10
664.911964971839
20
3942.406361937
30
0.0
40
15.9999999992751
210
0.0
220
0.0
230
1.0
100
AcDbArc
50
59.9999984795407
51
149.999998479541
0
ARC
5
1F7
330
22
100
AcDbEntity
8
\U+7EC6\U+5B9E\U+7EBF\U+5C42
62
256
6
ByLayer
370
-1
48
1.0
60
0
100
AcDbCircle
39
0.0
10
592.911961662901
20
3817.69870570169
30
0.0
40
16.0000000001564
210
0.0
220
0.0
230
1.0
100
AcDbArc
50
149.999998479979
51
239.999998481551
0
LINE
5
1F8
330
22
100
AcDbEntity
8
\U+7EC6\U+5B9E\U+7EBF\U+5C42
62
256
6
ByLayer
370
-1
48
1.0
60
0
100
AcDbLine
10
550.270945674183
20
3823.84230037283
30
0.0
11
480.98891443311
21
3863.84230221125
31
0.0
39
0.0
210
0.0
220
0.0
230
1.0
0
ARC
5
1F9
330
22
100
AcDbEntity
8
\U+7EC6\U+5B9E\U+7EBF\U+5C42
62
256
6
ByLayer
370
-1
48
1.0
60
0
100
AcDbCircle
39
0.0
10
558.270946041994
20
3837.69870662112
30
0.0
40
16.0000000001564
210
0.0
220
0.0
230
1.0
100
AcDbArc
50
239.999998479541
51
329.999998479541
0
LINE
5
1FA
330
22
100
AcDbEntity
8
\U+7EC6\U+5B9E\U+7EBF\U+5C42
62
256
6
ByLayer
370
-1
48
1.0
60
0
100
AcDbLine
10
638.27094971932
20
3976.26276910343
30
0.0
11
568.988918477895
21
4016.26277094206
31
0.0
39
0.0
210
0.0
220
0.0
230
1.0
0
ARC
5
1FB
330
22
100
AcDbEntity
8
\U+7EC6\U+5B9E\U+7EBF\U+5C42
62
256
6
ByLayer
370
-1
48
1.0
60
0
100
AcDbCircle
39
0.0
10
630.270949352456
20
3962.40636285554
30
0.0
40
15.9999999992751
210
0.0
220
0.0
230
1.0
100
AcDbArc
50
329.999998476029
51
59.9999984654918
0
LINE
5
1FC
330
22
100
AcDbEntity
8
\U+7EC6\U+5B9E\U+7EBF\U+5C42
62
256
6
ByLayer
370
-1
48
1.0
60
0
100
AcDbLine
10
644.127355599866
20
3954.40636248782
30
0.0
11
572.127352290323
21
3829.69870625323
31
0.0
39
0.0
210
0.0
220
0.0
230
1.0
0
LINE
5
1FD
330
22
100
AcDbEntity
8
\U+7EC6\U+5B9E\U+7EBF\U+5C42
62
256
6
ByLayer
370
-1
48
1.0
60
0
100
AcDbLine
10
644.127355599594
20
3954.40636248735
30
0.0
11
572.127352290323
21
3829.69870625323
31
0.0
39
0.0
210
0.0
220
0.0
230
1.0
0
LINE
5
1FE
330
22
100
AcDbEntity
8
\U+7C97\U+5B9E\U+7EBF\U+5C42
62
256
6
ByLayer
370
-1
48
1.0
60
0
100
AcDbLine
10
850.645902869161
20
3954.10697359693
30
0.0
11
675.645894825642
21
3650.99808691651
31
0.0
39
0.0
210
0.0
220
0.0
230
1.0
0
LINE
5
1FF
330
22
100
AcDbEntity
8
\U+7C97\U+5B9E\U+7EBF\U+5C42
62
256
6
ByLayer
370
-1
48
1.0
60
0
100
AcDbLine
10
547.537016188505
20
4129.10698164063
30
0.0
11
850.645902869333
21
3954.10697359688
31
0.0
39
0.0
210
0.0
220
0.0
230
1.0
0
LINE
5
200
330
22
100
AcDbEntity
8
\U+7C97\U+5B9E\U+7EBF\U+5C42
62
256
6
ByLayer
370
-1
48
1.0
60
0
100
AcDbLine
10
372.537008144898
20
3825.99809496006
30
0.0
11
675.645894825826
21
3650.99808691625
31
0.0
39
0.0
210
0.0
220
0.0
230
1.0
0
LINE
5
201
330
22
100
AcDbEntity
8
\U+7C97\U+5B9E\U+7EBF\U+5C42
62
256
6
ByLayer
370
-1
48
1.0
60
0
100
AcDbLine
10
547.537016188586
20
4129.10698164054
30
0.0
11
372.53700814498
21
3825.99809495996
31
0.0
39
0.0
210
0.0
220
0.0
230
1.0
0
CIRCLE
5
202
330
22
100
AcDbEntity
8
\U+865A\U+7EBF\U+5C42
62
256
6
ByLayer
370
-1
48
1.0
60
0
100
AcDbCircle
10
679.892726181953
20
3908.35380265516
30
0.0
40
11.0
39
0.0
210
0.0
220
0.0
230
1.0
0
CIRCLE
5
203
330
22
100
AcDbEntity
8
\U+865A\U+7EBF\U+5C42
62
256
6
ByLayer
370
-1
48
1.0
60
0
100
AcDbCircle
10
629.892723883801
20
3821.7512636036
30
0.0
40
11.0
39
0.0
210
0.0
220
0.0
230
1.0
0
CIRCLE
5
204
330
22
100
AcDbEntity
8
\U+865A\U+7EBF\U+5C42
62
256
6
ByLayer
370
-1
48
1.0
60
0
100
AcDbCircle
10
593.29018713036
20
3958.35380495333
30
0.0
40
11.0
39
0.0
210
0.0
220
0.0
230
1.0
0
CIRCLE
5
205
330
22
100
AcDbEntity
8
\U+865A\U+7EBF\U+5C42
62
256
6
ByLayer
370
-1
48
1.0
60
0
100
AcDbCircle
10
543.290184832208
20
3871.75126590177
30
0.0
40
11.0
39
0.0
210
0.0
220
0.0
230
1.0
0
LINE
5
206
330
22
100
AcDbEntity
8
\U+4E2D\U+5FC3\U+7EBF\U+5C42
62
256
6
ByLayer
370
-1
48
1.0
60
0
100
AcDbLine
10
575.286320518952
20
3968.74834282496
30
0.0
11
698.386696278226
21
3897.67630338737
31
0.0
39
0.0
210
0.0
220
0.0
230
1.0
0
LINE
5
207
330
22
100
AcDbEntity
8
\U+4E2D\U+5FC3\U+7EBF\U+5C42
62
256
6
ByLayer
370
-1
48
1.0
60
0
100
AcDbLine
10
525.286318220778
20
3882.14580377336
30
0.0
11
648.386693980053
21
3811.07376433578
31
0.0
39
0.0
210
0.0
220
0.0
230
1.0
0
LINE
5
208
330
22
100
AcDbEntity
8
\U+4E2D\U+5FC3\U+7EBF\U+5C42
62
256
6
ByLayer
370
-1
48
1.0
60
0
100
AcDbLine
10
606.109476303313
20
3980.55746375706
30
0.0
11
530.940552387056
21
3850.36107636286
31
0.0
39
0.0
210
0.0
220
0.0
230
1.0
0
LINE
5
209
330
22
100
AcDbEntity
8
\U+4E2D\U+5FC3\U+7EBF\U+5C42
62
256
6
ByLayer
370
-1
48
1.0
60
0
100
AcDbLine
10
692.712015354906
20
3930.55746145889
30
0.0
11
617.543091438649
21
3800.36107406468
31
0.0
39
0.0
210
0.0
220
0.0
230
1.0
0
LINE
5
20A
330
22
100
AcDbEntity
8
\U+4E2D\U+5FC3\U+7EBF\U+5C42
62
256
6
ByLayer
370
-1
48
1.0
60
0
100
AcDbLine
10
611.591455507092
20
3890.05253427848
30
0.0
11
504.505723066362
21
3704.57461629236
31
0.0
39
0.0
210
0.0
220
0.0
230
1.0
0
LINE
5
20B
330
22
100
AcDbEntity
8
\U+4E2D\U+5FC3\U+7EBF\U+5C42
62
256
6
ByLayer
370
-1
48
1.0
60
0
100
AcDbLine
10
611.591455507091
20
3890.05253427848
30
0.0
11
718.677187947821
21
4075.53045226461
31
0.0
39
0.0
210
0.0
220
0.0
230
1.0
0
CIRCLE
5
20C
330
22
100
AcDbEntity
8
\U+7C97\U+5B9E\U+7EBF\U+5C42
62
256
6
ByLayer
370
-1
48
1.0
60
0
100
AcDbCircle
10
789.174759261788
20
3937.63583205793
30
0.0
40
17.0
39
0.0
210
0.0
220
0.0
230
1.0
0
LINE
5
20D
330
22
100
AcDbEntity
8
\U+4E2D\U+5FC3\U+7EBF\U+5C42
62
256
6
ByLayer
370
-1
48
1.0
60
0
100
AcDbLine
10
763.688553300056
20
3952.35030083233
30
0.0
11
814.660966226262
21
3922.9213627046
31
0.0
39
0.0
210
0.0
220
0.0
230
1.0
0
LINE
5
20E
330
22
100
AcDbEntity
8
\U+4E2D\U+5FC3\U+7EBF\U+5C42
62
256
6
ByLayer
370
-1
48
1.0
60
0
100
AcDbLine
10
803.88923016228
20
3963.12204170216
30
0.0
11
774.46028928576
21
3912.14962401491
31
0.0
39
0.0
210
0.0
220
0.0
230
1.0
0
CIRCLE
5
20F
330
22
100
AcDbEntity
8
\U+7C97\U+5B9E\U+7EBF\U+5C42
62
256
6
ByLayer
370
-1
48
1.0
60
0
100
AcDbCircle
10
659.174753286538
20
3712.46923052379
30
0.0
40
17.0
39
0.0
210
0.0
220
0.0
230
1.0
0
LINE
5
210
330
22
100
AcDbEntity
8
\U+4E2D\U+5FC3\U+7EBF\U+5C42
62
256
6
ByLayer
370
-1
48
1.0
60
0
100
AcDbLine
10
633.688547324806
20
3727.18369929819
30
0.0
11
684.660960251012
21
3697.75476117046
31
0.0
39
0.0
210
0.0
220
0.0
230
1.0
0
LINE
5
211
330
22
100
AcDbEntity
8
\U+4E2D\U+5FC3\U+7EBF\U+5C42
62
256
6
ByLayer
370
-1
48
1.0
60
0
100
AcDbLine
10
644.460282386046
20
3686.98302087955
30
0.0
11
673.889223262566
21
3737.9554385668
31
0.0
39
0.0
210
0.0
220
0.0
230
1.0
0
CIRCLE
5
212
330
22
100
AcDbEntity
8
\U+7C97\U+5B9E\U+7EBF\U+5C42
62
256
6
ByLayer
370
-1
48
1.0
60
0
100
AcDbCircle
10
434.008151752396
20
3842.46923649904
30
0.0
40
17.0
39
0.0
210
0.0
220
0.0
230
1.0
0
LINE
5
213
330
22
100
AcDbEntity
8
\U+4E2D\U+5FC3\U+7EBF\U+5C42
62
256
6
ByLayer
370
-1
48
1.0
60
0
100
AcDbLine
10
459.494357714128
20
3827.75476772464
30
0.0
11
408.521944787922
21
3857.18370585237
31
0.0
39
0.0
210
0.0
220
0.0
230
1.0
0
LINE
5
214
330
22
100
AcDbEntity
8
\U+4E2D\U+5FC3\U+7EBF\U+5C42
62
256
6
ByLayer
370
-1
48
1.0
60
0
100
AcDbLine
10
419.293680851904
20
3816.9830268548
30
0.0
11
448.722621728424
21
3867.95544454205
31
0.0
39
0.0
210
0.0
220
0.0
230
1.0
0
CIRCLE
5
215
330
22
100
AcDbEntity
8
\U+7C97\U+5B9E\U+7EBF\U+5C42
62
256
6
ByLayer
370
-1
48
1.0
60
0
100
AcDbCircle
10
564.008157727647
20
4067.63583803318
30
0.0
40
17.0
39
0.0
210
0.0
220
0.0
230
1.0
0
LINE
5
216
330
22
100
AcDbEntity
8
\U+4E2D\U+5FC3\U+7EBF\U+5C42
62
256
6
ByLayer
370
-1
48
1.0
60
0
100
AcDbLine
10
589.494363689379
20
4052.92136925878
30
0.0
11
538.521950763172
21
4082.35030738651
31
0.0
39
0.0
210
0.0
220
0.0
230
1.0
0
LINE
5
217
330
22
100
AcDbEntity
8
\U+4E2D\U+5FC3\U+7EBF\U+5C42
62
256
6
ByLayer
370
-1
48
1.0
60
0
100
AcDbLine
10
578.722628628139
20
4093.12204767741
30
0.0
11
549.293687751618
21
4042.14962999016
31
0.0
39
0.0
210
0.0
220
0.0
230
1.0
0
LINE
5
218
330
22
100
AcDbEntity
8
\U+4E2D\U+5FC3\U+7EBF\U+5C42
62
256
6
ByLayer
370
-1
48
1.0
60
0
100
AcDbLine
10
785.448741963422
20
3789.67597699096
30
0.0
11
440.212349128783
21
3988.99831354348
31
0.0
39
0.0
210
0.0
220
0.0
230
1.0
0
LINE
5
219
330
22
100
AcDbEntity
8
\U+7EC6\U+5B9E\U+7EBF\U+5C42
62
256
6
ByLayer
370
-1
48
1.0
60
0
100
AcDbLine
10
574.98891875362
20
4026.65507562828
30
0.0
11
748.193996856856
21
3926.6550710319
31
0.0
39
0.0
210
0.0
220
0.0
230
1.0
0
LINE
5
21A
330
22
100
AcDbEntity
8
\U+7EC6\U+5B9E\U+7EBF\U+5C42
62
256
6
ByLayer
370
-1
48
1.0
60
0
100
AcDbLine
10
474.988914157273
20
3853.44999752509
30
0.0
11
648.193992260509
21
3753.44999292872
31
0.0
39
0.0
210
0.0
220
0.0
230
1.0
0
LINE
5
21B
330
22
100
AcDbEntity
8
\U+7EC6\U+5B9E\U+7EBF\U+5C42
62
256
6
ByLayer
370
-1
48
1.0
60
0
100
AcDbLine
10
672.91196533965
20
3956.26276818434
30
0.0
11
742.193996581075
21
3916.26276634571
31
0.0
39
0.0
210
0.0
220
0.0
230
1.0
0
LINE
5
21C
330
22
100
AcDbEntity
8
\U+7EC6\U+5B9E\U+7EBF\U+5C42
62
256
6
ByLayer
370
-1
48
1.0
60
0
100
AcDbLine
10
584.911961295217
20
3803.84229945333
30
0.0
11
654.19399253629
21
3763.84229761491
31
0.0
39
0.0
210
0.0
220
0.0
230
1.0
0
LINE
5
21D
330
22
100
AcDbEntity
8
\U+7EC6\U+5B9E\U+7EBF\U+5C42
62
256
6
ByLayer
370
-1
48
1.0
60
0
100
AcDbLine
10
574.988918753622
20
4026.65507562816
30
0.0
11
568.988918477987
21
4016.26277094222
31
0.0
39
0.0
210
0.0
220
0.0
230
1.0
0
LINE
5
21E
330
22
100
AcDbEntity
8
\U+7EC6\U+5B9E\U+7EBF\U+5C42
62
256
6
ByLayer
370
-1
48
1.0
60
0
100
AcDbLine
10
480.988914433144
20
3863.84230221132
30
0.0
11
474.988914157333
21
3853.44999752508
31
0.0
39
0.0
210
0.0
220
0.0
230
1.0
0
LINE
5
21F
330
22
100
AcDbEntity
8
\U+7EC6\U+5B9E\U+7EBF\U+5C42
62
256
6
ByLayer
370
-1
48
1.0
60
0
100
AcDbLine
10
748.193996856809
20
3926.65507103181
30
0.0
11
742.193996581173
21
3916.26276634588
31
0.0
39
0.0
210
0.0
220
0.0
230
1.0
0
LINE
5
220
330
22
100
AcDbEntity
8
\U+7EC6\U+5B9E\U+7EBF\U+5C42
62
256
6
ByLayer
370
-1
48
1.0
60
0
100
AcDbLine
10
654.193992536329
20
3763.84229761497
30
0.0
11
648.193992260519
21
3753.44999292873
31
0.0
39
0.0
210
0.0
220
0.0
230
1.0
0
LINE
5
221
330
22
100
AcDbEntity
8
\U+7EC6\U+5B9E\U+7EBF\U+5C42
62
256
6
ByLayer
370
-1
48
1.0
60
0
100
AcDbLine
10
651.055558723995
20
3950.40636230397
30
0.0
11
579.05555541445
21
3825.69870606937
31
0.0
39
0.0
210
0.0
220
0.0
230
1.0
0
ARC
5
222
330
22
100
AcDbEntity
8
\U+7EC6\U+5B9E\U+7EBF\U+5C42
62
256
6
ByLayer
370
-1
48
1.0
60
0
100
AcDbCircle
39
0.0
10
664.911964971839
20
3942.406361937
30
0.0
40
15.9999999992751
210
0.0
220
0.0
230
1.0
100
AcDbArc
50
59.9999984795408
51
149.999998479541
0
ARC
5
223
330
22
100
AcDbEntity
8
\U+7EC6\U+5B9E\U+7EBF\U+5C42
62
256
6
ByLayer
370
-1
48
1.0
60
0
100
AcDbCircle
39
0.0
10
592.911961662901
20
3817.69870570169
30
0.0
40
16.0000000001564
210
0.0
220
0.0
230
1.0
100
AcDbArc
50
149.999998479978
51
239.999998481549
0
LINE
5
224
330
22
100
AcDbEntity
8
\U+7EC6\U+5B9E\U+7EBF\U+5C42
62
256
6
ByLayer
370
-1
48
1.0
60
0
100
AcDbLine
10
550.270945674183
20
3823.84230037283
30
0.0
11
480.98891443311
21
3863.84230221125
31
0.0
39
0.0
210
0.0
220
0.0
230
1.0
0
ARC
5
225
330
22
100
AcDbEntity
8
\U+7EC6\U+5B9E\U+7EBF\U+5C42
62
256
6
ByLayer
370
-1
48
1.0
60
0
100
AcDbCircle
39
0.0
10
558.270946041994
20
3837.69870662112
30
0.0
40
16.0000000001564
210
0.0
220
0.0
230
1.0
100
AcDbArc
50
239.999998479541
51
329.999998479541
0
LINE
5
226
330
22
100
AcDbEntity
8
\U+7EC6\U+5B9E\U+7EBF\U+5C42
62
256
6
ByLayer
370
-1
48
1.0
60
0
100
AcDbLine
10
638.27094971932
20
3976.26276910343
30
0.0
11
568.988918477895
21
4016.26277094206
31
0.0
39
0.0
210
0.0
220
0.0
230
1.0
0
ARC
5
227
330
22
100
AcDbEntity
8
\U+7EC6\U+5B9E\U+7EBF\U+5C42
62
256
6
ByLayer
370
-1
48
1.0
60
0
100
AcDbCircle
39
0.0
10
630.270949352456
20
3962.40636285554
30
0.0
40
15.9999999992751
210
0.0
220
0.0
230
1.0
100
AcDbArc
50
329.999998476029
51
59.9999984654904
0
LINE
5
228
330
22
100
AcDbEntity
8
\U+7EC6\U+5B9E\U+7EBF\U+5C42
62
256
6
ByLayer
370
-1
48
1.0
60
0
100
AcDbLine
10
644.127355599866
20
3954.40636248782
30
0.0
11
572.127352290323
21
3829.69870625323
31
0.0
39
0.0
210
0.0
220
0.0
230
1.0
0
LINE
5
229
330
22
100
AcDbEntity
8
\U+7EC6\U+5B9E\U+7EBF\U+5C42
62
256
6
ByLayer
370
-1
48
1.0
60
0
100
AcDbLine
10
644.127355599594
20
3954.40636248735
30
0.0
11
572.127352290323
21
3829.69870625323
31
0.0
39
0.0
210
0.0
220
0.0
230
1.0
0
LINE
5
22A
330
22
100
AcDbEntity
8
\U+7C97\U+5B9E\U+7EBF\U+5C42
62
256
6
ByLayer
370
-1
48
1.0
60
0
100
AcDbLine
10
850.645902869161
20
3954.10697359693
30
0.0
11
675.645894825642
21
3650.99808691651
31
0.0
39
0.0
210
0.0
220
0.0
230
1.0
0
LINE
5
22B
330
22
100
AcDbEntity
8
\U+7C97\U+5B9E\U+7EBF\U+5C42
62
256
6
ByLayer
370
-1
48
1.0
60
0
100
AcDbLine
10
547.537016188505
20
4129.10698164063
30
0.0
11
850.645902869333
21
3954.10697359688
31
0.0
39
0.0
210
0.0
220
0.0
230
1.0
0
LINE
5
22C
330
22
100
AcDbEntity
8
\U+7C97\U+5B9E\U+7EBF\U+5C42
62
256
6
ByLayer
370
-1
48
1.0
60
0
100
AcDbLine
10
372.537008144898
20
3825.99809496006
30
0.0
11
675.645894825826
21
3650.99808691625
31
0.0
39
0.0
210
0.0
220
0.0
230
1.0
0
LINE
5
22D
330
22
100
AcDbEntity
8
\U+7C97\U+5B9E\U+7EBF\U+5C42
62
256
6
ByLayer
370
-1
48
1.0
60
0
100
AcDbLine
10
547.537016188586
20
4129.10698164054
30
0.0
11
372.53700814498
21
3825.99809495996
31
0.0
39
0.0
210
0.0
220
0.0
230
1.0
0
CIRCLE
5
22E
330
22
100
AcDbEntity
8
\U+865A\U+7EBF\U+5C42
62
256
6
ByLayer
370
-1
48
1.0
60
0
100
AcDbCircle
10
679.892726181953
20
3908.35380265516
30
0.0
40
11.0
39
0.0
210
0.0
220
0.0
230
1.0
0
CIRCLE
5
22F
330
22
100
AcDbEntity
8
\U+865A\U+7EBF\U+5C42
62
256
6
ByLayer
370
-1
48
1.0
60
0
100
AcDbCircle
10
629.892723883801
20
3821.7512636036
30
0.0
40
11.0
39
0.0
210
0.0
220
0.0
230
1.0
0
CIRCLE
5
230
330
22
100
AcDbEntity
8
\U+865A\U+7EBF\U+5C42
62
256
6
ByLayer
370
-1
48
1.0
60
0
100
AcDbCircle
10
593.29018713036
20
3958.35380495333
30
0.0
40
11.0
39
0.0
210
0.0
220
0.0
230
1.0
0
CIRCLE
5
231
330
22
100
AcDbEntity
8
\U+865A\U+7EBF\U+5C42
62
256
6
ByLayer
370
-1
48
1.0
60
0
100
AcDbCircle
10
543.290184832208
20
3871.75126590177
30
0.0
40
11.0
39
0.0
210
0.0
220
0.0
230
1.0
0
LINE
5
232
330
22
100
AcDbEntity
8
\U+4E2D\U+5FC3\U+7EBF\U+5C42
62
256
6
ByLayer
370
-1
48
1.0
60
0
100
AcDbLine
10
575.286320518951
20
3968.74834282495
30
0.0
11
698.386696278226
21
3897.67630338737
31
0.0
39
0.0
210
0.0
220
0.0
230
1.0
0
LINE
5
233
330
22
100
AcDbEntity
8
\U+4E2D\U+5FC3\U+7EBF\U+5C42
62
256
6
ByLayer
370
-1
48
1.0
60
0
100
AcDbLine
10
525.286318220778
20
3882.14580377336
30
0.0
11
648.386693980053
21
3811.07376433578
31
0.0
39
0.0
210
0.0
220
0.0
230
1.0
0
LINE
5
234
330
22
100
AcDbEntity
8
\U+4E2D\U+5FC3\U+7EBF\U+5C42
62
256
6
ByLayer
370
-1
48
1.0
60
0
100
AcDbLine
10
606.109476303313
20
3980.55746375706
30
0.0
11
530.940552387056
21
3850.36107636286
31
0.0
39
0.0
210
0.0
220
0.0
230
1.0
0
LINE
5
235
330
22
100
AcDbEntity
8
\U+4E2D\U+5FC3\U+7EBF\U+5C42
62
256
6
ByLayer
370
-1
48
1.0
60
0
100
AcDbLine
10
692.712015354906
20
3930.55746145889
30
0.0
11
617.543091438649
21
3800.36107406468
31
0.0
39
0.0
210
0.0
220
0.0
230
1.0
0
LINE
5
236
330
22
100
AcDbEntity
8
\U+4E2D\U+5FC3\U+7EBF\U+5C42
62
256
6
ByLayer
370
-1
48
1.0
60
0
100
AcDbLine
10
611.591455507092
20
3890.05253427848
30
0.0
11
504.505723066362
21
3704.57461629236
31
0.0
39
0.0
210
0.0
220
0.0
230
1.0
0
LINE
5
237
330
22
100
AcDbEntity
8
\U+4E2D\U+5FC3\U+7EBF\U+5C42
62
256
6
ByLayer
370
-1
48
1.0
60
0
100
AcDbLine
10
611.591455507092
20
3890.05253427848
30
0.0
11
718.677187947821
21
4075.53045226461
31
0.0
39
0.0
210
0.0
220
0.0
230
1.0
0
CIRCLE
5
238
330
22
100
AcDbEntity
8
\U+7C97\U+5B9E\U+7EBF\U+5C42
62
256
6
ByLayer
370
-1
48
1.0
60
0
100
AcDbCircle
10
789.174759261788
20
3937.63583205793
30
0.0
40
17.0
39
0.0
210
0.0
220
0.0
230
1.0
0
LINE
5
239
330
22
100
AcDbEntity
8
\U+4E2D\U+5FC3\U+7EBF\U+5C42
62
256
6
ByLayer
370
-1
48
1.0
60
0
100
AcDbLine
10
763.688553300056
20
3952.35030083233
30
0.0
11
814.660966226262
21
3922.9213627046
31
0.0
39
0.0
210
0.0
220
0.0
230
1.0
0
LINE
5
23A
330
22
100
AcDbEntity
8
\U+4E2D\U+5FC3\U+7EBF\U+5C42
62
256
6
ByLayer
370
-1
48
1.0
60
0
100
AcDbLine
10
803.88923016228
20
3963.12204170216
30
0.0
11
774.46028928576
21
3912.14962401491
31
0.0
39
0.0
210
0.0
220
0.0
230
1.0
0
CIRCLE
5
23B
330
22
100
AcDbEntity
8
\U+7C97\U+5B9E\U+7EBF\U+5C42
62
256
6
ByLayer
370
-1
48
1.0
60
0
100
AcDbCircle
10
659.174753286538
20
3712.46923052379
30
0.0
40
17.0
39
0.0
210
0.0
220
0.0
230
1.0
0
LINE
5
23C
330
22
100
AcDbEntity
8
\U+4E2D\U+5FC3\U+7EBF\U+5C42
62
256
6
ByLayer
370
-1
48
1.0
60
0
100
AcDbLine
10
633.688547324806
20
3727.18369929819
30
0.0
11
684.660960251012
21
3697.75476117045
31
0.0
39
0.0
210
0.0
220
0.0
230
1.0
0
LINE
5
23D
330
22
100
AcDbEntity
8
\U+4E2D\U+5FC3\U+7EBF\U+5C42
62
256
6
ByLayer
370
-1
48
1.0
60
0
100
AcDbLine
10
644.460282386046
20
3686.98302087955
30
0.0
11
673.889223262566
21
3737.9554385668
31
0.0
39
0.0
210
0.0
220
0.0
230
1.0
0
CIRCLE
5
23E
330
22
100
AcDbEntity
8
\U+7C97\U+5B9E\U+7EBF\U+5C42
62
256
6
ByLayer
370
-1
48
1.0
60
0
100
AcDbCircle
10
434.008151752396
20
3842.46923649904
30
0.0
40
17.0
39
0.0
210
0.0
220
0.0
230
1.0
0
LINE
5
23F
330
22
100
AcDbEntity
8
\U+4E2D\U+5FC3\U+7EBF\U+5C42
62
256
6
ByLayer
370
-1
48
1.0
60
0
100
AcDbLine
10
459.494357714128
20
3827.75476772464
30
0.0
11
408.521944787922
21
3857.18370585237
31
0.0
39
0.0
210
0.0
220
0.0
230
1.0
0
LINE
5
240
330
22
100
AcDbEntity
8
\U+4E2D\U+5FC3\U+7EBF\U+5C42
62
256
6
ByLayer
370
-1
48
1.0
60
0
100
AcDbLine
10
419.293680851904
20
3816.9830268548
30
0.0
11
448.722621728424
21
3867.95544454205
31
0.0
39
0.0
210
0.0
220
0.0
230
1.0
0
CIRCLE
5
241
330
22
100
AcDbEntity
8
\U+7C97\U+5B9E\U+7EBF\U+5C42
62
256
6
ByLayer
370
-1
48
1.0
60
0
100
AcDbCircle
10
564.008157727647
20
4067.63583803318
30
0.0
40
17.0
39
0.0
210
0.0
220
0.0
230
1.0
0
LINE
5
242
330
22
100
AcDbEntity
8
\U+4E2D\U+5FC3\U+7EBF\U+5C42
62
256
6
ByLayer
370
-1
48
1.0
60
0
100
AcDbLine
10
589.494363689379
20
4052.92136925878
30
0.0
11
538.521950763172
21
4082.35030738651
31
0.0
39
0.0
210
0.0
220
0.0
230
1.0
0
LINE
5
243
330
22
100
AcDbEntity
8
\U+4E2D\U+5FC3\U+7EBF\U+5C42
62
256
6
ByLayer
370
-1
48
1.0
60
0
100
AcDbLine
10
578.722628628139
20
4093.12204767741
30
0.0
11
549.293687751618
21
4042.14962999016
31
0.0
39
0.0
210
0.0
220
0.0
230
1.0
0
LINE
5
244
330
22
100
AcDbEntity
8
\U+4E2D\U+5FC3\U+7EBF\U+5C42
62
256
6
ByLayer
370
-1
48
1.0
60
0
100
AcDbLine
10
785.448741963422
20
3789.67597699096
30
0.0
11
440.212349128783
21
3988.99831354348
31
0.0
39
0.0
210
0.0
220
0.0
230
1.0
0
ENDBLK
5
23
330
22
100
AcDbEntity
8
0
100
AcDbBlockEnd
0
BLOCK
5
247
330
245
100
AcDbEntity
67
1
8
0
100
AcDbBlockBegin
2
*Paper_Space
70
0
10
0.0
20
0.0
30
0.0
3
*Paper_Space
4

0
ENDBLK
5
246
330
245
100
AcDbEntity
8
0
100
AcDbBlockEnd
0
ENDSEC
0
SECTION
2
ENTITIES
0
VIEWPORT
5
249
330
245
100
AcDbEntity
67
1
8
0
62
256
6
ByLayer
370
-1
48
1.0
60
0
100
AcDbViewport
10
0.0
20
0.0
30
0.0
40
297.0
41
210.0
68
1
69
1
12
50.0
22
100.0
13
0.0
23
0.0
14
10.0
24
10.0
15
10.0
25
10.0
16
0.0
26
0.0
36
1.0
17
0.0
27
0.0
37
0.0
42
50.0
43
0.0
44
0.0
45
250.0
50
0.0
51
0.0
72
1000
90
819232
110
0.0
120
0.0
130
0.0
111
1.0
121
0.0
131
0.0
112
0.0
122
1.0
132
0.0
0
ENDSEC
0
SECTION
2
OBJECTS
0
DICTIONARY
5
24E
330
0
100
AcDbDictionary
280
1
281
1
3
ACAD_GROUP
350
12
3
ACAD_LAYOUT
350
248
3
ACAD_DGNDEFINITIONS
350
F
3
ACAD_DWFDEFINITIONS
350
10
3
ACAD_PDFDEFINITIONS
350
11
3
ACAD_MLINESTYLE
350
B
3
ACAD_IMAGE_DICT
350
E
3
ACAD_IMAGE_VARS
350
21
0
DICTIONARY
5
12
330
24E
100
AcDbDictionary
280
1
281
1
0
DICTIONARY
5
248
330
24E
100
AcDbDictionary
280
1
281
1
3
Model
350
20
3
Layout1
350
24A
0
DICTIONARY
5
F
330
24E
100
AcDbDictionary
280
1
281
1
0
DICTIONARY
5
10
330
24E
100
AcDbDictionary
280
1
281
1
0
DICTIONARY
5
11
330
24E
100
AcDbDictionary
280
1
281
1
0
DICTIONARY
5
B
330
24E
100
AcDbDictionary
280
1
281
1
3
Standard
350
1B
0
DICTIONARY
5
E
330
24E
100
AcDbDictionary
280
1
281
1
0
DICTIONARY
5
6
330
5
100
AcDbDictionary
280
1
281
1
3
ACAD_LAYERSTATES
360
24F
0
DICTIONARY
5
24F
330
6
100
AcDbDictionary
280
1
281
1
0
LAYOUT
5
20
330
248
100
AcDbPlotSettings
1

2
none_device
4
ISO_A4_(210.00_x_297.00_MM)
6

40
7.5
41
20.0
42
7.5
43
20.0
44
210.0
45
297.0
46
0.0
47
0.0
48
0.0
49
0.0
140
0.0
141
0.0
142
1.0
143
1.0
70
11952
72
1
73
1
74
1
7

75
0
76
0
77
2
78
300
147
1.0
148
0.0
149
0.0
100
AcDbLayout
1
Model
71
0
10
-20.0
20
-7.5
11
277.0
21
202.5
12
0.0
22
0.0
32
0.0
14
25.7
24
19.5
34
0.0
15
231.3
25
175.5
35
0.0
146
0.0
13
0.0
23
0.0
33
0.0
16
1.0
26
0.0
36
0.0
17
0.0
27
1.0
37
0.0
76
0
330
1C
0
LAYOUT
5
24A
330
248
100
AcDbPlotSettings
1

2
none_device
4
ISO_A4_(210.00_x_297.00_MM)
6

40
7.5
41
20.0
42
7.5
43
20.0
44
210.0
45
297.0
46
0.0
47
0.0
48
0.0
49
0.0
140
0.0
141
0.0
142
1.0
143
1.0
70
688
72
1
73
1
74
1
7

75
0
76
0
77
2
78
300
147
1.0
148
0.0
149
0.0
100
AcDbLayout
1
Layout1
71
1
10
-20.0
20
-7.5
11
277.0
21
202.5
12
0.0
22
0.0
32
0.0
14
25.7
24
19.5
34
0.0
15
231.3
25
175.5
35
0.0
146
0.0
13
0.0
23
0.0
33
0.0
16
1.0
26
0.0
36
0.0
17
0.0
27
1.0
37
0.0
76
0
330
245
0
MLINESTYLE
5
1B
330
B
100
AcDbMlineStyle
2
Standard
70
0
3

62
256
51
90.0
52
90.0
71
2
49
0.5
62
256
6
ByLayer
49
-0.5
62
256
6
ByLayer
0
RASTERVARIABLES
5
21
330
E
100
AcDbRasterVariables
90
0
70
1
71
1
72
0
0
ENDSEC
0
EOF
