999
DXF file generated by netDxf https://github.com/haplokuon/netDxf, Copyright(C) 2009-2020 Daniel Carvajal, Licensed under LGPL
0
SECTION
2
HEADER
9
$ACADVER
1
AC1015
9
$DWGCODEPAGE
3
ANSI_1252
9
$HANDSEED
5
69
9
$ANGBASE
50
0.0
9
$ANGDIR
70
0
9
$ATTMODE
70
1
9
$AUNITS
70
0
9
$AUPREC
70
0
9
$CECOLOR
62
256
9
$CELTSCALE
40
1.0
9
$CELTYPE
6
ByLayer
9
$CELWEIGHT
370
-1
9
$CLAYER
8
0
9
$CMLJUST
70
0
9
$CMLSCALE
40
20.0
9
$CMLSTYLE
2
Standard
9
$DIMSTYLE
2
Standard
9
$TEXTSIZE
40
2.5
9
$TEXTSTYLE
7
Standard
9
$LUNITS
70
2
9
$LUPREC
70
4
9
$MIRRTEXT
70
0
9
$EXTNAMES
290
1
9
$INSBASE
10
0.0
20
0.0
30
0.0
9
$INSUNITS
70
0
9
$LTSCALE
40
1.0
9
$LWDISPLAY
290
0
9
$PDMODE
70
0
9
$PDSIZE
40
0.0
9
$PLINEGEN
70
0
9
$PSLTSCALE
70
1
9
$TDCREATE
40
2459821.45291188
9
$TDUCREATE
40
2459821.11957854
9
$TDUPDATE
40
2459821.45291188
9
$TDUUPDATE
40
2459821.11957854
9
$TDINDWG
40
0.0
9
$UCSORG
10
0.0
20
0.0
30
0.0
9
$UCSXDIR
10
1.0
20
0.0
30
0.0
9
$UCSYDIR
10
0.0
20
1.0
30
0.0
9
$DIMADEC
70
0
9
$DIMALT
70
0
9
$DIMALTD
70
2
9
$DIMALTF
40
25.4
9
$DIMALTRND
40
0.0
9
$DIMALTTD
70
2
9
$DIMALTTZ
70
0
9
$DIMALTU
70
2
9
$DIMALTZ
70
0
9
$DIMAPOST
1

9
$DIMATFIT
70
3
9
$DIMAUNIT
70
0
9
$DIMASZ
40
0.18
9
$DIMAZIN
70
0
9
$DIMSAH
70
0
9
$DIMBLK
1

9
$DIMLDRBLK
1

9
$DIMCEN
40
0.09
9
$DIMCLRD
70
0
9
$DIMCLRE
70
0
9
$DIMCLRT
70
0
9
$DIMDEC
70
4
9
$DIMDLE
40
0.0
9
$DIMDLI
40
0.38
9
$DIMDSEP
70
46
9
$DIMEXE
40
0.18
9
$DIMEXO
40
0.0625
9
$DIMFXLON
70
0
9
$DIMFXL
40
1.0
9
$DIMGAP
40
0.09
9
$DIMJUST
70
0
9
$DIMLFAC
40
1.0
9
$DIMLUNIT
70
2
9
$DIMLWD
70
-2
9
$DIMLWE
70
-2
9
$DIMPOST
1

9
$DIMRND
40
0.0
9
$DIMSCALE
40
1.0
9
$DIMSD1
70
0
9
$DIMSD2
70
0
9
$DIMSE1
70
0
9
$DIMSE2
70
0
9
$DIMSOXD
70
0
9
$DIMTAD
70
0
9
$DIMTDEC
70
4
9
$DIMTFAC
40
1.0
9
$DIMTIH
70
0
9
$DIMTIX
70
0
9
$DIMTM
40
0.0
9
$DIMTMOVE
70
0
9
$DIMTOFL
70
0
9
$DIMTOH
70
0
9
$DIMTOL
70
0
9
$DIMLIM
70
0
9
$DIMTOLJ
70
1
9
$DIMTP
40
0.0
9
$DIMTXT
40
0.18
9
$DIMTXTDIRECTION
70
0
9
$DIMTZIN
70
0
9
$DIMZIN
70
0
9
$DIMFRAC
70
0
9
$DIMLTYPE
6
ByBlock
9
$DIMLTEX1
6
ByBlock
9
$DIMLTEX2
6
ByBlock
0
ENDSEC
0
SECTION
2
CLASSES
0
CLASS
1
RASTERVARIABLES
2
AcDbRasterVariables
3
ISM
90
0
280
0
281
0
0
ENDSEC
0
SECTION
2
TABLES
0
TABLE
2
APPID
5
4
330
0
100
AcDbSymbolTable
70
5
0
APPID
5
19
330
4
100
AcDbSymbolTableRecord
100
AcDbRegAppTableRecord
2
ACAD
70
0
0
APPID
5
28
330
4
100
AcDbSymbolTableRecord
100
AcDbRegAppTableRecord
2
AcDbBlockRepETag
70
0
0
APPID
5
64
330
4
100
AcDbSymbolTableRecord
100
AcDbRegAppTableRecord
2
AcCmTransparency
70
0
0
APPID
5
65
330
4
100
AcDbSymbolTableRecord
100
AcDbRegAppTableRecord
2
GradientColor1ACI
70
0
0
APPID
5
66
330
4
100
AcDbSymbolTableRecord
100
AcDbRegAppTableRecord
2
GradientColor2ACI
70
0
0
ENDTAB
0
TABLE
2
VPORT
5
1
330
0
100
AcDbSymbolTable
70
1
0
VPORT
5
2
330
1
100
AcDbSymbolTableRecord
100
AcDbViewportTableRecord
2
*Active
70
0
10
0.0
20
0.0
11
1.0
21
1.0
12
0.0
22
0.0
13
0.0
23
0.0
14
0.5
24
0.5
15
10.0
25
10.0
16
0.0
26
0.0
36
1.0
17
0.0
27
0.0
37
0.0
40
10.0
41
1.0
75
0
76
1
0
ENDTAB
0
TABLE
2
LTYPE
5
7
330
0
100
AcDbSymbolTable
70
5
0
LTYPE
5
15
330
7
100
AcDbSymbolTableRecord
100
AcDbLinetypeTableRecord
2
Continuous
70
0
3
Solid line
72
65
73
0
40
0.0
0
LTYPE
5
16
330
7
100
AcDbSymbolTableRecord
100
AcDbLinetypeTableRecord
2
ByLayer
70
0
3

72
65
73
0
40
0.0
0
LTYPE
5
17
330
7
100
AcDbSymbolTableRecord
100
AcDbLinetypeTableRecord
2
ByBlock
70
0
3

72
65
73
0
40
0.0
0
LTYPE
5
27
330
7
100
AcDbSymbolTableRecord
100
AcDbLinetypeTableRecord
2
CENTER2
70
0
3
Center (.5x) ___ _ ___ _ ___ _ ___ _ ___ _ ___
72
65
73
4
40
1.125
49
0.75
74
0
49
-0.125
74
0
49
0.125
74
0
49
-0.125
74
0
0
LTYPE
5
35
330
7
100
AcDbSymbolTableRecord
100
AcDbLinetypeTableRecord
2
DASHED
70
0
3
Dashed __ __ __ __ __ __ __ __ __ __ __ __ __ _
72
65
73
2
40
0.75
49
0.5
74
0
49
-0.25
74
0
0
ENDTAB
0
TABLE
2
LAYER
5
5
102
{ACAD_XDICTIONARY
360
6
102
}
330
0
100
AcDbSymbolTable
70
2
0
LAYER
5
14
330
5
100
AcDbSymbolTableRecord
100
AcDbLayerTableRecord
2
0
70
0
62
7
6
Continuous
290
1
370
-3
390
0
0
LAYER
5
26
330
5
100
AcDbSymbolTableRecord
100
AcDbLayerTableRecord
2
\U+70B9\U+5212\U+7EBF01
70
0
62
10
6
CENTER2
290
1
370
15
390
0
0
ENDTAB
0
TABLE
2
STYLE
5
8
330
0
100
AcDbSymbolTable
70
1
0
STYLE
5
18
330
8
100
AcDbSymbolTableRecord
100
AcDbTextStyleTableRecord
2
Standard
3
simplex.shx
70
0
71
0
40
0.0
41
1.0
42
0.0
50
0.0
0
ENDTAB
0
TABLE
2
DIMSTYLE
5
A
330
0
100
AcDbSymbolTable
70
1
100
AcDbDimStyleTable
0
DIMSTYLE
105
1A
330
A
100
AcDbSymbolTableRecord
100
AcDbDimStyleTableRecord
2
Standard
3

4

40
1.0
41
0.18
42
0.0625
43
0.38
44
0.18
45
0.0
46
0.0
47
0.0
48
0.0
49
1.0
70
0
71
0
72
0
73
0
74
0
75
0
76
0
77
0
78
0
79
0
140
0.18
141
0.09
143
25.4
144
1.0
146
1.0
147
0.09
148
0.0
170
0
171
2
172
0
174
0
175
0
176
0
177
0
178
0
179
0
271
4
272
4
273
2
274
2
275
0
276
0
277
2
278
46
279
0
280
0
281
0
282
0
283
1
284
0
285
0
286
0
289
3
290
0
294
0
340
18
173
0
345
17
346
17
347
17
371
-2
372
-2
0
ENDTAB
0
TABLE
2
VIEW
5
3
330
0
100
AcDbSymbolTable
70
0
0
ENDTAB
0
TABLE
2
UCS
5
C
330
0
100
AcDbSymbolTable
70
0
0
ENDTAB
0
TABLE
2
BLOCK_RECORD
5
D
330
0
100
AcDbSymbolTable
70
3
0
BLOCK_RECORD
5
1C
330
D
100
AcDbSymbolTableRecord
100
AcDbBlockTableRecord
2
*Model_Space
340
20
0
BLOCK_RECORD
5
22
330
D
100
AcDbSymbolTableRecord
100
AcDbBlockTableRecord
2
A$C237D6437
340
0
70
0
280
1
281
0
1001
ACAD
1000
DesignCenter Data
1002
{
1070
1
1070
0
1002
}
0
BLOCK_RECORD
5
5E
330
D
100
AcDbSymbolTableRecord
100
AcDbBlockTableRecord
2
*Paper_Space
340
63
0
ENDTAB
0
ENDSEC
0
SECTION
2
BLOCKS
0
BLOCK
5
1E
330
1C
100
AcDbEntity
67
0
8
0
100
AcDbBlockBegin
2
*Model_Space
70
0
10
0.0
20
0.0
30
0.0
3
*Model_Space
4

0
ENDBLK
5
1D
330
1C
100
AcDbEntity
8
0
100
AcDbBlockEnd
0
BLOCK
5
24
330
22
100
AcDbEntity
8
0
100
AcDbBlockBegin
2
A$C237D6437
70
0
10
0.0
20
0.0
30
0.0
3
A$C237D6437
4

0
LINE
5
25
330
22
100
AcDbEntity
8
\U+70B9\U+5212\U+7EBF01
62
256
6
ByLayer
370
-1
48
1.0
60
0
100
AcDbLine
10
783.112363179547
20
575.999935168707
30
0.0
11
372.922159443726
21
575.999935168707
31
0.0
39
0.0
210
0.0
220
0.0
230
1.0
1001
AcDbBlockRepETag
1070
1
1071
0
1005
7B99
0
LINE
5
29
330
22
100
AcDbEntity
8
0
62
256
6
ByLayer
370
-1
48
1.0
60
0
100
AcDbLine
10
390.96744991378
20
209.668935168709
30
0.0
11
390.96744991378
21
942.330935168713
31
0.0
39
0.0
210
0.0
220
0.0
230
1.0
1001
AcDbBlockRepETag
1070
1
1071
1
1005
7B9A
0
LINE
5
2A
330
22
100
AcDbEntity
8
0
62
5
6
ByLayer
370
-1
48
1.0
60
0
100
AcDbLine
10
51.1174499137814
20
1151.99993516873
30
0.0
11
51.1174499137814
21
1099.51928565476
31
0.0
39
0.0
210
0.0
220
0.0
230
1.0
1001
AcDbBlockRepETag
1070
1
1071
2
1005
7B9B
0
LINE
5
2B
330
22
100
AcDbEntity
8
0
62
1
6
CENTER2
370
-1
48
2.0
60
0
100
AcDbLine
10
474.65143275246
20
575.999935168711
30
0.0
11
0.0000413155321439
21
575.999935168726
31
0.0
39
0.0
210
0.0
220
0.0
230
1.0
1001
AcDbBlockRepETag
1070
1
1071
3
1005
7B9C
0
LINE
5
2C
330
22
100
AcDbEntity
8
0
62
1
6
CENTER2
370
-1
48
2.0
60
0
100
AcDbLine
10
111.311507950039
20
1098.69993516872
30
0.0
11
0.0000413155321439
21
1098.69993516872
31
0.0
39
0.0
210
0.0
220
0.0
230
1.0
1001
AcDbBlockRepETag
1070
1
1071
4
1005
7B9D
0
LINE
5
2D
330
22
100
AcDbEntity
8
0
62
1
6
CENTER2
370
-1
48
2.0
60
0
100
AcDbLine
10
121.374446474565
20
53.2999351687286
30
0.0
11
0.0000413155321439
21
53.2999351687286
31
0.0
39
0.0
210
0.0
220
0.0
230
1.0
1001
AcDbBlockRepETag
1070
1
1071
5
1005
7B9E
0
LINE
5
2E
330
22
100
AcDbEntity
8
0
62
1
6
CENTER2
370
-1
48
2.0
60
0
100
AcDbLine
10
109.29956985611
20
1135.99993516871
30
0.0
11
0.0000413155321439
21
1135.99993516872
31
0.0
39
0.0
210
0.0
220
0.0
230
1.0
1001
AcDbBlockRepETag
1070
1
1071
6
1005
7B9F
0
LINE
5
2F
330
22
100
AcDbEntity
8
0
62
1
6
CENTER2
370
-1
48
2.0
60
0
100
AcDbLine
10
117.357936411598
20
15.9999351687256
30
0.0
11
0.0000413155321439
21
15.9999351687256
31
0.0
39
0.0
210
0.0
220
0.0
230
1.0
1001
AcDbBlockRepETag
1070
1
1071
7
1005
7BA0
0
LINE
5
30
330
22
100
AcDbEntity
8
0
62
5
6
ByLayer
370
-1
48
1.0
60
0
100
AcDbLine
10
51.1174499137814
20
-0.0000648313034617
30
0.0
11
51.1174499137814
21
53.0729451035841
31
0.0
39
0.0
210
0.0
220
0.0
230
1.0
1001
AcDbBlockRepETag
1070
1
1071
8
1005
7BA1
0
LINE
5
31
330
22
100
AcDbEntity
8
0
62
5
6
ByLayer
370
-1
48
1.0
60
0
100
AcDbLine
10
413.829449913781
20
931.062435168726
30
0.0
11
413.829449913781
21
220.999935168711
31
0.0
39
0.0
210
0.0
220
0.0
230
1.0
1001
AcDbBlockRepETag
1070
1
1071
9
1005
7BA2
0
LINE
5
32
330
22
100
AcDbEntity
8
0
62
5
6
ByLayer
370
-1
48
1.0
60
0
100
AcDbLine
10
51.1174499137814
20
53.0729451035841
30
0.0
11
51.1174499137814
21
1098.69993516872
31
0.0
39
0.0
210
0.0
220
0.0
230
1.0
1001
AcDbBlockRepETag
1070
1
1071
10
1005
7BA3
0
LINE
5
33
330
22
100
AcDbEntity
8
0
62
5
6
ByLayer
370
-1
48
1.0
60
0
100
AcDbLine
10
53.8674499137814
20
1151.99993516873
30
0.0
11
53.8674499137814
21
1098.92692523384
31
0.0
39
0.0
210
0.0
220
0.0
230
1.0
1001
AcDbBlockRepETag
1070
1
1071
11
1005
7BA4
0
LINE
5
34
330
22
100
AcDbEntity
8
0
62
4
6
DASHED
370
-1
48
5.0
60
0
100
AcDbLine
10
53.8674499137814
20
53.0729451035841
30
0.0
11
53.8674499137814
21
1098.69993516872
31
0.0
39
0.0
210
0.0
220
0.0
230
1.0
1001
AcDbBlockRepETag
1070
1
1071
12
1005
7BA5
0
LINE
5
36
330
22
100
AcDbEntity
8
0
62
5
6
ByLayer
370
-1
48
1.0
60
0
100
AcDbLine
10
53.8674499137814
20
-0.0000648313034617
30
0.0
11
53.8674499137814
21
53.0729451035841
31
0.0
39
0.0
210
0.0
220
0.0
230
1.0
1001
AcDbBlockRepETag
1070
1
1071
13
1005
7BA6
0
LINE
5
37
330
22
100
AcDbEntity
8
0
62
5
6
ByLayer
370
-1
48
1.0
60
0
100
AcDbLine
10
53.8674499137814
20
-0.0000648313034617
30
0.0
11
51.1174499137814
21
-0.0000648313034617
31
0.0
39
0.0
210
0.0
220
0.0
230
1.0
1001
AcDbBlockRepETag
1070
1
1071
14
1005
7BA7
0
LINE
5
38
330
22
100
AcDbEntity
8
0
62
5
6
ByLayer
370
-1
48
1.0
60
0
100
AcDbLine
10
53.8674499137814
20
1151.99993516873
30
0.0
11
51.1174499137814
21
1151.99993516873
31
0.0
39
0.0
210
0.0
220
0.0
230
1.0
1001
AcDbBlockRepETag
1070
1
1071
15
1005
7BA8
0
LINE
5
39
330
22
100
AcDbEntity
8
0
62
5
6
ByLayer
370
-1
48
1.0
60
0
100
AcDbLine
10
289.008080309515
20
911.705262547181
30
0.0
11
93.1798499135439
21
1026.6650717663
31
0.0
39
0.0
210
0.0
220
0.0
230
1.0
1001
AcDbBlockRepETag
1070
1
1071
16
1005
7BA9
0
LINE
5
3A
330
22
100
AcDbEntity
8
0
62
5
6
ByLayer
370
-1
48
1.0
60
0
100
AcDbLine
10
290.383080309515
20
914.086832407582
30
0.0
11
94.5548499135439
21
1029.0466416267
31
0.0
39
0.0
210
0.0
220
0.0
230
1.0
1001
AcDbBlockRepETag
1070
1
1071
17
1005
7BAA
0
ARC
5
3B
330
22
100
AcDbEntity
8
0
62
5
6
ByLayer
370
-1
48
1.0
60
0
100
AcDbCircle
39
0.0
10
339.414380309605
20
999.011535168753
30
0.0
40
100.8126
210
0.0
220
0.0
230
1.0
100
AcDbArc
50
239.99999999999
51
317.57427119238
1001
AcDbBlockRepETag
1070
1
1071
18
1005
7BAB
0
ARC
5
3C
330
22
100
AcDbEntity
8
0
62
5
6
ByLayer
370
-1
48
1.0
60
0
100
AcDbCircle
39
0.0
10
339.414380309605
20
999.011535168753
30
0.0
40
98.0626
210
0.0
220
0.0
230
1.0
100
AcDbArc
50
239.99999999999
51
317.57427119238
1001
AcDbBlockRepETag
1070
1
1071
19
1005
7BAC
0
ARC
5
3D
330
22
100
AcDbEntity
8
0
62
5
6
ByLayer
370
-1
48
1.0
60
0
100
AcDbCircle
39
0.0
10
135.242249913772
20
1099.51928565473
30
0.0
40
84.1248
210
0.0
220
0.0
230
1.0
100
AcDbArc
50
180.0
51
239.99999999999
1001
AcDbBlockRepETag
1070
1
1071
20
1005
7BAD
0
ARC
5
3E
330
22
100
AcDbEntity
8
0
62
5
6
ByLayer
370
-1
48
1.0
60
0
100
AcDbCircle
39
0.0
10
135.242249913772
20
1099.51928565473
30
0.0
40
81.3748
210
0.0
220
0.0
230
1.0
100
AcDbArc
50
180.0
51
239.99999999999
1001
AcDbBlockRepETag
1070
1
1071
21
1005
7BAE
0
LINE
5
3F
330
22
100
AcDbEntity
8
0
62
5
6
ByLayer
370
-1
48
1.0
60
0
100
AcDbLine
10
411.799530623797
20
932.855178461727
30
0.0
11
413.829449913781
21
930.999935168726
31
0.0
39
0.0
210
0.0
220
0.0
230
1.0
1001
AcDbBlockRepETag
1070
1
1071
22
1005
7BAF
0
LINE
5
40
330
22
100
AcDbEntity
8
0
62
5
6
ByLayer
370
-1
48
1.0
60
0
100
AcDbLine
10
289.008080309515
20
240.294607790242
30
0.0
11
93.1798499135439
21
125.334798571126
31
0.0
39
0.0
210
0.0
220
0.0
230
1.0
1001
AcDbBlockRepETag
1070
1
1071
23
1005
7BB0
0
LINE
5
41
330
22
100
AcDbEntity
8
0
62
5
6
ByLayer
370
-1
48
1.0
60
0
100
AcDbLine
10
290.383080309515
20
237.91303792984
30
0.0
11
94.5548499135439
21
122.953228710725
31
0.0
39
0.0
210
0.0
220
0.0
230
1.0
1001
AcDbBlockRepETag
1070
1
1071
24
1005
7BB1
0
ARC
5
42
330
22
100
AcDbEntity
8
0
62
5
6
ByLayer
370
-1
48
1.0
60
0
100
AcDbCircle
39
0.0
10
339.414380309605
20
152.988335168669
30
0.0
40
100.8126
210
0.0
220
0.0
230
1.0
100
AcDbArc
50
42.4257288076202
51
120.00000000001
1001
AcDbBlockRepETag
1070
1
1071
25
1005
7BB2
0
ARC
5
43
330
22
100
AcDbEntity
8
0
62
5
6
ByLayer
370
-1
48
1.0
60
0
100
AcDbCircle
39
0.0
10
339.414380309605
20
152.988335168669
30
0.0
40
98.0626
210
0.0
220
0.0
230
1.0
100
AcDbArc
50
42.4257288076202
51
120.00000000001
1001
AcDbBlockRepETag
1070
1
1071
26
1005
7BB3
0
ARC
5
44
330
22
100
AcDbEntity
8
0
62
5
6
ByLayer
370
-1
48
1.0
60
0
100
AcDbCircle
39
0.0
10
135.242249913772
20
52.4805846826894
30
0.0
40
84.1248
210
0.0
220
0.0
230
1.0
100
AcDbArc
50
120.00000000001
51
180.0
1001
AcDbBlockRepETag
1070
1
1071
27
1005
7BB4
0
ARC
5
45
330
22
100
AcDbEntity
8
0
62
5
6
ByLayer
370
-1
48
1.0
60
0
100
AcDbCircle
39
0.0
10
135.242249913772
20
52.4805846826894
30
0.0
40
81.3748
210
0.0
220
0.0
230
1.0
100
AcDbArc
50
120.00000000001
51
180.0
1001
AcDbBlockRepETag
1070
1
1071
28
1005
7BB5
0
LINE
5
46
330
22
100
AcDbEntity
8
0
62
5
6
ByLayer
370
-1
48
1.0
60
0
100
AcDbLine
10
411.799530623797
20
219.144691875696
30
0.0
11
413.829449913781
21
220.999935168697
31
0.0
39
0.0
210
0.0
220
0.0
230
1.0
1001
AcDbBlockRepETag
1070
1
1071
29
1005
7BB6
0
LINE
5
47
330
22
100
AcDbEntity
8
0
62
256
6
ByLayer
370
-1
48
1.0
60
0
100
AcDbLine
10
512.887449913786
20
64.8249351687155
30
0.0
11
512.887449913786
21
1087.17493516871
31
0.0
39
0.0
210
0.0
220
0.0
230
1.0
1001
AcDbBlockRepETag
1070
1
1071
30
1005
7BB7
0
LINE
5
48
330
22
100
AcDbEntity
8
\U+70B9\U+5212\U+7EBF01
62
256
6
ByLayer
370
-1
48
1.0
60
0
100
AcDbLine
10
780.730363179549
20
575.999935168711
30
0.0
11
372.066159443726
21
575.999935168711
31
0.0
39
0.0
210
0.0
220
0.0
230
1.0
1001
AcDbBlockRepETag
1070
1
1071
31
1005
7BB8
0
LINE
5
49
330
22
100
AcDbEntity
8
0
62
256
6
ByLayer
370
-1
48
1.0
60
0
100
AcDbLine
10
390.96744991378
20
208.668935168713
30
0.0
11
390.967449913784
21
943.330935168717
31
0.0
39
0.0
210
0.0
220
0.0
230
1.0
1001
AcDbBlockRepETag
1070
1
1071
32
1005
7BB9
0
ARC
5
4A
330
22
100
AcDbEntity
8
0
62
256
6
ByLayer
370
-1
48
1.0
60
0
100
AcDbCircle
39
0.0
10
417.129449913784
20
954.078935168716
30
0.0
40
15.748
210
0.0
220
0.0
230
1.0
100
AcDbArc
50
270.0
51
315.036259871778
1001
AcDbBlockRepETag
1070
1
1071
33
1005
7BBA
0
ARC
5
4B
330
22
100
AcDbEntity
8
0
62
256
6
ByLayer
370
-1
48
1.0
60
0
100
AcDbCircle
39
0.0
10
417.129449913784
20
954.078935168716
30
0.0
40
10.748
210
0.0
220
0.0
230
1.0
100
AcDbArc
50
270.0
51
315.036259871778
1001
AcDbBlockRepETag
1070
1
1071
34
1005
7BBB
0
LINE
5
4C
330
22
100
AcDbEntity
8
0
62
256
6
ByLayer
370
-1
48
1.0
60
0
100
AcDbLine
10
390.96744991378
20
938.330935168717
30
0.0
11
417.129449913784
21
938.330935168717
31
0.0
39
0.0
210
0.0
220
0.0
230
1.0
1001
AcDbBlockRepETag
1070
1
1071
35
1005
7BBC
0
LINE
5
4D
330
22
100
AcDbEntity
8
0
62
256
6
ByLayer
370
-1
48
1.0
60
0
100
AcDbLine
10
390.96744991378
20
943.330935168717
30
0.0
11
417.129449913784
21
943.330935168717
31
0.0
39
0.0
210
0.0
220
0.0
230
1.0
1001
AcDbBlockRepETag
1070
1
1071
36
1005
7BBD
0
SPLINE
5
4E
330
22
100
AcDbEntity
8
0
62
256
6
ByLayer
370
-1
48
1.0
60
0
100
AcDbSpline
70
1060
71
3
42
0.0000001
43
0.0000001
44
0.0000000001
11
512.887449913786
21
1087.17493516871
31
0.0
11
506.029449913785
21
1070.41093516871
31
0.0
11
499.679449913787
21
1056.51713516871
31
0.0
11
493.329449913788
21
1042.62333516871
31
0.0
11
486.725449913782
21
1028.72953516871
31
0.0
11
479.613449913788
21
1014.83573516871
31
0.0
11
471.739449913792
21
1000.94193516871
31
0.0
11
463.611449913788
21
987.048135168709
31
0.0
11
454.975449913782
21
973.154335168711
31
0.0
11
444.561449913784
21
959.260535168705
31
0.0
11
428.272012427002
21
942.950466961494
31
0.0
1001
AcDbBlockRepETag
1070
1
1071
37
1005
7BBE
0
SPLINE
5
4F
330
22
100
AcDbEntity
8
0
62
256
6
ByLayer
370
-1
48
1.0
60
0
100
AcDbSpline
70
4
71
3
42
0.0000001
43
0.0000001
44
0.0000000001
40
0.0
40
0.0
40
0.0
40
0.0
40
8.55871128219248
40
8.55871128219248
40
15.9314075005907
40
15.9314075005907
40
20.8888467906774
40
20.8888467906774
40
25.8462860807641
40
25.8462860807641
40
31.6781741302075
40
31.6781741302075
40
36.4656934061791
40
36.4656934061791
40
41.2532126821506
40
41.2532126821506
40
48.9029445700638
40
48.9029445700638
40
56.5526764579769
40
56.5526764579769
40
65.1925014891069
40
65.1925014891069
40
73.8323265202369
40
73.8323265202369
40
79.695614514112
40
79.695614514112
40
94.4353114538791
40
94.4353114538791
40
100.964566212425
40
100.964566212425
40
107.493820970972
40
107.493820970972
40
116.270009544757
40
116.270009544757
40
125.046198118542
40
125.046198118542
40
142.598575266112
40
142.598575266112
40
147.737139237774
40
147.737139237774
40
152.875703209435
40
152.875703209435
40
163.152831152758
40
163.152831152758
40
168.496877359405
40
168.496877359405
40
168.496877359405
40
168.496877359405
41
1.0
10
508.23757874385
20
1089.01305869639
30
0.0
41
1.0
10
507.188450009475
20
1086.35909481308
30
0.0
41
1.0
10
506.144139584587
20
1083.71746301202
30
0.0
41
1.0
10
504.1710134167
20
1078.83981927119
30
0.0
41
1.0
10
503.246258036572
20
1076.59832665736
30
0.0
41
1.0
10
501.658870594321
20
1072.88528781131
30
0.0
41
1.0
10
501.009080686566
20
1071.40453987926
30
0.0
41
1.0
10
499.67676086659
20
1068.43430670368
30
0.0
41
1.0
10
498.99667640038
20
1066.94751567691
30
0.0
41
1.0
10
497.499775518438
20
1063.70216549888
30
0.0
41
1.0
10
496.679994482372
20
1061.94193370852
30
0.0
41
1.0
10
495.186766327391
20
1058.71744757575
30
0.0
41
1.0
10
494.514540301388
20
1057.2556321548
30
0.0
41
1.0
10
493.18267727366
20
1054.341223359
30
0.0
41
1.0
10
492.520918798433
20
1052.88593976277
30
0.0
41
1.0
10
490.804803689876
20
1049.11383209608
30
0.0
41
1.0
10
489.752440586224
20
1046.8025399
30
0.0
41
1.0
10
487.628744779617
20
1042.20568050712
30
0.0
41
1.0
10
486.554755044046
20
1039.91345047806
30
0.0
41
1.0
10
484.240321293124
20
1035.0464534524
30
0.0
41
1.0
10
482.995798856642
20
1032.47201424954
30
0.0
41
1.0
10
480.474106053811
20
1027.34808625904
30
0.0
41
1.0
10
479.197552376267
20
1024.80271320502
30
0.0
41
1.0
10
477.0088590714
20
1020.56967842472
30
0.0
41
1.0
10
476.111513790172
20
1018.86936836562
30
0.0
41
1.0
10
472.90117176943
20
1012.93973114855
30
0.0
41
1.0
10
470.4720681463
20
1008.72399644739
30
0.0
41
1.0
10
466.921692225224
20
1002.60054905096
30
0.0
41
1.0
10
465.829047300456
20
1000.7177256147
30
0.0
41
1.0
10
463.644169959061
20
996.964020980904
30
0.0
41
1.0
10
462.550251447479
20
995.090959622092
30
0.0
41
1.0
10
459.976189738743
20
990.712860183437
30
0.0
41
1.0
10
458.493463391653
20
988.208774502255
30
0.0
41
1.0
10
455.501346720146
20
983.258929297659
30
0.0
41
1.0
10
453.988533135416
20
980.811852525923
30
0.0
41
1.0
10
449.334087688469
20
973.592762090793
30
0.0
41
1.0
10
446.070297998958
20
968.933920153944
30
0.0
41
1.0
10
441.486852775659
20
963.340066279965
30
0.0
41
1.0
10
440.426769929592
20
962.106123557187
30
0.0
41
1.0
10
438.235458793257
20
959.671347374151
30
0.0
41
1.0
10
437.107180078146
20
958.471238451919
30
0.0
41
1.0
10
433.642591360061
20
954.906059114368
30
0.0
41
1.0
10
431.226308379839
20
952.576345829588
30
0.0
41
1.0
10
427.470423432231
20
949.036909116508
30
0.0
41
1.0
10
426.170798426487
20
947.826316337527
30
0.0
41
1.0
10
424.734241756967
20
946.483762687338
30
0.0
1001
AcDbBlockRepETag
1070
1
1071
38
1005
7BBF
0
LINE
5
50
330
22
100
AcDbEntity
8
0
62
256
6
ByLayer
370
-1
48
1.0
60
0
100
AcDbLine
10
512.887449913786
20
1087.17493516871
30
0.0
11
508.23757874385
21
1089.01305869639
31
0.0
39
0.0
210
0.0
220
0.0
230
1.0
1001
AcDbBlockRepETag
1070
1
1071
39
1005
7BC0
0
LINE
5
51
330
22
100
AcDbEntity
8
0
62
256
6
ByLayer
370
-1
48
1.0
60
0
100
AcDbLine
10
750.265689913786
20
64.8249351687155
30
0.0
11
750.265689913786
21
1087.17493516871
31
0.0
39
0.0
210
0.0
220
0.0
230
1.0
1001
AcDbBlockRepETag
1070
1
1071
40
1005
7BC1
0
LINE
5
52
330
22
100
AcDbEntity
8
0
62
256
6
ByLayer
370
-1
48
1.0
60
0
100
AcDbLine
10
758.265689913786
20
64.8249351687155
30
0.0
11
758.265689913786
21
1087.17493516871
31
0.0
39
0.0
210
0.0
220
0.0
230
1.0
1001
AcDbBlockRepETag
1070
1
1071
41
1005
7BC2
0
LINE
5
53
330
22
100
AcDbEntity
8
0
62
256
6
ByLayer
370
-1
48
1.0
60
0
100
AcDbLine
10
512.887449913786
20
64.8249351687155
30
0.0
11
758.265689913786
21
64.8249351687155
31
0.0
39
0.0
210
0.0
220
0.0
230
1.0
1001
AcDbBlockRepETag
1070
1
1071
42
1005
7BC3
0
LINE
5
54
330
22
100
AcDbEntity
8
0
62
256
6
ByLayer
370
-1
48
1.0
60
0
100
AcDbLine
10
512.887449913786
20
1087.17493516871
30
0.0
11
758.265689913786
21
1087.17493516871
31
0.0
39
0.0
210
0.0
220
0.0
230
1.0
1001
AcDbBlockRepETag
1070
1
1071
43
1005
7BC4
0
ARC
5
55
330
22
100
AcDbEntity
8
0
62
256
6
ByLayer
370
-1
48
1.0
60
0
100
AcDbCircle
39
0.0
10
417.129449913784
20
197.920935168713
30
0.0
40
15.748
210
0.0
220
0.0
230
1.0
100
AcDbArc
50
44.9637401280005
51
90.0
1001
AcDbBlockRepETag
1070
1
1071
44
1005
7BC5
0
ARC
5
56
330
22
100
AcDbEntity
8
0
62
256
6
ByLayer
370
-1
48
1.0
60
0
100
AcDbCircle
39
0.0
10
417.129449913784
20
197.920935168713
30
0.0
40
10.748
210
0.0
220
0.0
230
1.0
100
AcDbArc
50
44.9637401280005
51
90.0
1001
AcDbBlockRepETag
1070
1
1071
45
1005
7BC6
0
LINE
5
57
330
22
100
AcDbEntity
8
0
62
256
6
ByLayer
370
-1
48
1.0
60
0
100
AcDbLine
10
390.96744991378
20
213.668935168713
30
0.0
11
417.129449913784
21
213.668935168713
31
0.0
39
0.0
210
0.0
220
0.0
230
1.0
1001
AcDbBlockRepETag
1070
1
1071
46
1005
7BC7
0
LINE
5
58
330
22
100
AcDbEntity
8
0
62
256
6
ByLayer
370
-1
48
1.0
60
0
100
AcDbLine
10
390.96744991378
20
208.668935168713
30
0.0
11
417.129449913784
21
208.668935168713
31
0.0
39
0.0
210
0.0
220
0.0
230
1.0
1001
AcDbBlockRepETag
1070
1
1071
47
1005
7BC8
0
SPLINE
5
59
330
22
100
AcDbEntity
8
0
62
256
6
ByLayer
370
-1
48
1.0
60
0
100
AcDbSpline
70
1060
71
3
42
0.0000001
43
0.0000001
44
0.0000000001
11
512.887449913786
21
64.8249351687155
31
0.0
11
506.029449913785
21
81.588935168711
31
0.0
11
499.679449913787
21
95.4827351687163
31
0.0
11
493.329449913788
21
109.376535168714
31
0.0
11
486.725449913782
21
123.27033516872
31
0.0
11
479.613449913788
21
137.164135168718
31
0.0
11
471.739449913792
21
151.057935168716
31
0.0
11
463.611449913788
21
164.951735168721
31
0.0
11
454.975449913782
21
178.845535168719
31
0.0
11
444.561449913784
21
192.739335168717
31
0.0
11
428.272012427002
21
209.049403375935
31
0.0
1001
AcDbBlockRepETag
1070
1
1071
48
1005
7BC9
0
SPLINE
5
5A
330
22
100
AcDbEntity
8
0
62
256
6
ByLayer
370
-1
48
1.0
60
0
100
AcDbSpline
70
4
71
3
42
0.0000001
43
0.0000001
44
0.0000000001
40
0.0
40
0.0
40
0.0
40
0.0
40
8.55871128219248
40
8.55871128219248
40
15.9314075005907
40
15.9314075005907
40
20.8888467906774
40
20.8888467906774
40
25.8462860807641
40
25.8462860807641
40
31.6781741302075
40
31.6781741302075
40
36.4656934061791
40
36.4656934061791
40
41.2532126821506
40
41.2532126821506
40
48.9029445700638
40
48.9029445700638
40
56.5526764579769
40
56.5526764579769
40
65.1925014891069
40
65.1925014891069
40
73.8323265202369
40
73.8323265202369
40
79.695614514112
40
79.695614514112
40
94.4353114538791
40
94.4353114538791
40
100.964566212425
40
100.964566212425
40
107.493820970972
40
107.493820970972
40
116.270009544757
40
116.270009544757
40
125.046198118542
40
125.046198118542
40
142.598575266112
40
142.598575266112
40
147.737139237774
40
147.737139237774
40
152.875703209435
40
152.875703209435
40
163.152831152758
40
163.152831152758
40
168.496877359405
40
168.496877359405
40
168.496877359405
40
168.496877359405
41
1.0
10
508.23757874385
20
62.9868116410398
30
0.0
41
1.0
10
507.188450009475
20
65.6407755243526
30
0.0
41
1.0
10
506.144139584587
20
68.2824073254051
30
0.0
41
1.0
10
504.1710134167
20
73.1600510662356
30
0.0
41
1.0
10
503.246258036572
20
75.4015436800728
30
0.0
41
1.0
10
501.658870594321
20
79.1145825261228
30
0.0
41
1.0
10
501.009080686566
20
80.5953304581672
30
0.0
41
1.0
10
499.67676086659
20
83.5655636337506
30
0.0
41
1.0
10
498.99667640038
20
85.0523546605145
30
0.0
41
1.0
10
497.499775518438
20
88.2977048385546
30
0.0
41
1.0
10
496.679994482372
20
90.0579366288985
30
0.0
41
1.0
10
495.186766327391
20
93.2824227616766
30
0.0
41
1.0
10
494.514540301388
20
94.7442381826222
30
0.0
41
1.0
10
493.18267727366
20
97.6586469784197
30
0.0
41
1.0
10
492.520918798433
20
99.113930574651
30
0.0
41
1.0
10
490.804803689876
20
102.886038241337
30
0.0
41
1.0
10
489.752440586224
20
105.197330437422
30
0.0
41
1.0
10
487.628744779617
20
109.794189830307
30
0.0
41
1.0
10
486.554755044046
20
112.086419859366
30
0.0
41
1.0
10
484.240321293124
20
116.953416885033
30
0.0
41
1.0
10
482.995798856642
20
119.527856087883
30
0.0
41
1.0
10
480.474106053811
20
124.651784078382
30
0.0
41
1.0
10
479.197552376267
20
127.197157132399
30
0.0
41
1.0
10
477.0088590714
20
131.430191912707
30
0.0
41
1.0
10
476.111513790172
20
133.130501971802
30
0.0
41
1.0
10
472.90117176943
20
139.060139188867
30
0.0
41
1.0
10
470.4720681463
20
143.275873890034
30
0.0
41
1.0
10
466.921692225224
20
149.39932128647
30
0.0
41
1.0
10
465.829047300456
20
151.282144722729
30
0.0
41
1.0
10
463.644169959061
20
155.035849356525
30
0.0
41
1.0
10
462.550251447479
20
156.908910715338
30
0.0
41
1.0
10
459.976189738743
20
161.287010153992
30
0.0
41
1.0
10
458.493463391653
20
163.791095835175
30
0.0
41
1.0
10
455.501346720146
20
168.74094103977
30
0.0
41
1.0
10
453.988533135416
20
171.188017811499
30
0.0
41
1.0
10
449.334087688469
20
178.407108246629
30
0.0
41
1.0
10
446.070297998958
20
183.065950183485
30
0.0
41
1.0
10
441.486852775659
20
188.659804057457
30
0.0
41
1.0
10
440.426769929592
20
189.893746780243
30
0.0
41
1.0
10
438.235458793257
20
192.328522963278
30
0.0
41
1.0
10
437.107180078146
20
193.52863188551
30
0.0
41
1.0
10
433.642591360061
20
197.093811223054
30
0.0
41
1.0
10
431.226308379839
20
199.423524507834
30
0.0
41
1.0
10
427.470423432231
20
202.962961220914
30
0.0
41
1.0
10
426.170798426487
20
204.173553999903
30
0.0
41
1.0
10
424.734241756971
20
205.516107650084
30
0.0
1001
AcDbBlockRepETag
1070
1
1071
49
1005
7BCA
0
LINE
5
5B
330
22
100
AcDbEntity
8
0
62
256
6
ByLayer
370
-1
48
1.0
60
0
100
AcDbLine
10
512.887449913786
20
64.8249351687155
30
0.0
11
508.23757874385
21
62.9868116410398
31
0.0
39
0.0
210
0.0
220
0.0
230
1.0
1001
AcDbBlockRepETag
1070
1
1071
50
1005
7BCB
0
LINE
5
5C
330
22
100
AcDbEntity
8
0
62
256
6
ByLayer
370
-1
48
1.0
60
0
100
AcDbLine
10
750.265689913786
20
64.8249351687155
30
0.0
11
750.265689913786
21
1087.17493516871
31
0.0
39
0.0
210
0.0
220
0.0
230
1.0
1001
AcDbBlockRepETag
1070
1
1071
51
1005
7BCC
0
LINE
5
5D
330
22
100
AcDbEntity
8
0
62
256
6
ByLayer
370
-1
48
1.0
60
0
100
AcDbLine
10
750.265689913786
20
64.8249351687155
30
0.0
11
750.265689913786
21
1087.17493516871
31
0.0
39
0.0
210
0.0
220
0.0
230
1.0
1001
AcDbBlockRepETag
1070
1
1071
52
1005
7BCD
0
ENDBLK
5
23
330
22
100
AcDbEntity
8
0
100
AcDbBlockEnd
0
BLOCK
5
60
330
5E
100
AcDbEntity
67
1
8
0
100
AcDbBlockBegin
2
*Paper_Space
70
0
10
0.0
20
0.0
30
0.0
3
*Paper_Space
4

0
ENDBLK
5
5F
330
5E
100
AcDbEntity
8
0
100
AcDbBlockEnd
0
ENDSEC
0
SECTION
2
ENTITIES
0
VIEWPORT
5
62
330
5E
100
AcDbEntity
67
1
8
0
62
256
6
ByLayer
370
-1
48
1.0
60
0
100
AcDbViewport
10
0.0
20
0.0
30
0.0
40
297.0
41
210.0
68
1
69
1
12
50.0
22
100.0
13
0.0
23
0.0
14
10.0
24
10.0
15
10.0
25
10.0
16
0.0
26
0.0
36
1.0
17
0.0
27
0.0
37
0.0
42
50.0
43
0.0
44
0.0
45
250.0
50
0.0
51
0.0
72
1000
90
819232
110
0.0
120
0.0
130
0.0
111
1.0
121
0.0
131
0.0
112
0.0
122
1.0
132
0.0
0
ENDSEC
0
SECTION
2
OBJECTS
0
DICTIONARY
5
67
330
0
100
AcDbDictionary
280
1
281
1
3
ACAD_GROUP
350
12
3
ACAD_LAYOUT
350
61
3
ACAD_DGNDEFINITIONS
350
F
3
ACAD_DWFDEFINITIONS
350
10
3
ACAD_PDFDEFINITIONS
350
11
3
ACAD_MLINESTYLE
350
B
3
ACAD_IMAGE_DICT
350
E
3
ACAD_IMAGE_VARS
350
21
0
DICTIONARY
5
12
330
67
100
AcDbDictionary
280
1
281
1
0
DICTIONARY
5
61
330
67
100
AcDbDictionary
280
1
281
1
3
Model
350
20
3
Layout1
350
63
0
DICTIONARY
5
F
330
67
100
AcDbDictionary
280
1
281
1
0
DICTIONARY
5
10
330
67
100
AcDbDictionary
280
1
281
1
0
DICTIONARY
5
11
330
67
100
AcDbDictionary
280
1
281
1
0
DICTIONARY
5
B
330
67
100
AcDbDictionary
280
1
281
1
3
Standard
350
1B
0
DICTIONARY
5
E
330
67
100
AcDbDictionary
280
1
281
1
0
DICTIONARY
5
6
330
5
100
AcDbDictionary
280
1
281
1
3
ACAD_LAYERSTATES
360
68
0
DICTIONARY
5
68
330
6
100
AcDbDictionary
280
1
281
1
0
LAYOUT
5
20
330
61
100
AcDbPlotSettings
1

2
none_device
4
ISO_A4_(210.00_x_297.00_MM)
6

40
7.5
41
20.0
42
7.5
43
20.0
44
210.0
45
297.0
46
0.0
47
0.0
48
0.0
49
0.0
140
0.0
141
0.0
142
1.0
143
1.0
70
11952
72
1
73
1
74
1
7

75
0
76
0
77
2
78
300
147
1.0
148
0.0
149
0.0
100
AcDbLayout
1
Model
71
0
10
-20.0
20
-7.5
11
277.0
21
202.5
12
0.0
22
0.0
32
0.0
14
25.7
24
19.5
34
0.0
15
231.3
25
175.5
35
0.0
146
0.0
13
0.0
23
0.0
33
0.0
16
1.0
26
0.0
36
0.0
17
0.0
27
1.0
37
0.0
76
0
330
1C
0
LAYOUT
5
63
330
61
100
AcDbPlotSettings
1

2
none_device
4
ISO_A4_(210.00_x_297.00_MM)
6

40
7.5
41
20.0
42
7.5
43
20.0
44
210.0
45
297.0
46
0.0
47
0.0
48
0.0
49
0.0
140
0.0
141
0.0
142
1.0
143
1.0
70
688
72
1
73
1
74
1
7

75
0
76
0
77
2
78
300
147
1.0
148
0.0
149
0.0
100
AcDbLayout
1
Layout1
71
1
10
-20.0
20
-7.5
11
277.0
21
202.5
12
0.0
22
0.0
32
0.0
14
25.7
24
19.5
34
0.0
15
231.3
25
175.5
35
0.0
146
0.0
13
0.0
23
0.0
33
0.0
16
1.0
26
0.0
36
0.0
17
0.0
27
1.0
37
0.0
76
0
330
5E
0
MLINESTYLE
5
1B
330
B
100
AcDbMlineStyle
2
Standard
70
0
3

62
256
51
90.0
52
90.0
71
2
49
0.5
62
256
6
ByLayer
49
-0.5
62
256
6
ByLayer
0
RASTERVARIABLES
5
21
330
E
100
AcDbRasterVariables
90
0
70
1
71
1
72
0
0
ENDSEC
0
EOF
