999
DXF file generated by netDxf https://github.com/haplokuon/netDxf, Copyright(C) 2009-2020 Daniel Carvajal, Licensed under LGPL
0
SECTION
2
HEADER
9
$ACADVER
1
AC1015
9
$DWGCODEPAGE
3
ANSI_1252
9
$HANDSEED
5
69
9
$ANGBASE
50
0.0
9
$ANGDIR
70
0
9
$ATTMODE
70
1
9
$AUNITS
70
0
9
$AUPREC
70
0
9
$CECOLOR
62
256
9
$CELTSCALE
40
1.0
9
$CELTYPE
6
ByLayer
9
$CELWEIGHT
370
-1
9
$CLAYER
8
0
9
$CMLJUST
70
0
9
$CMLSCALE
40
20.0
9
$CMLSTYLE
2
Standard
9
$DIMSTYLE
2
Standard
9
$TEXTSIZE
40
2.5
9
$TEXTSTYLE
7
Standard
9
$LUNITS
70
2
9
$LUPREC
70
4
9
$MIRRTEXT
70
0
9
$EXTNAMES
290
1
9
$INSBASE
10
0.0
20
0.0
30
0.0
9
$INSUNITS
70
0
9
$LTSCALE
40
1.0
9
$LWDISPLAY
290
0
9
$PDMODE
70
0
9
$PDSIZE
40
0.0
9
$PLINEGEN
70
0
9
$PSLTSCALE
70
1
9
$TDCREATE
40
2459821.45292194
9
$TDUCREATE
40
2459821.11958861
9
$TDUPDATE
40
2459821.45292194
9
$TDUUPDATE
40
2459821.11958861
9
$TDINDWG
40
0.0
9
$UCSORG
10
0.0
20
0.0
30
0.0
9
$UCSXDIR
10
1.0
20
0.0
30
0.0
9
$UCSYDIR
10
0.0
20
1.0
30
0.0
9
$DIMADEC
70
0
9
$DIMALT
70
0
9
$DIMALTD
70
2
9
$DIMALTF
40
25.4
9
$DIMALTRND
40
0.0
9
$DIMALTTD
70
2
9
$DIMALTTZ
70
0
9
$DIMALTU
70
2
9
$DIMALTZ
70
0
9
$DIMAPOST
1

9
$DIMATFIT
70
3
9
$DIMAUNIT
70
0
9
$DIMASZ
40
0.18
9
$DIMAZIN
70
0
9
$DIMSAH
70
0
9
$DIMBLK
1

9
$DIMLDRBLK
1

9
$DIMCEN
40
0.09
9
$DIMCLRD
70
0
9
$DIMCLRE
70
0
9
$DIMCLRT
70
0
9
$DIMDEC
70
4
9
$DIMDLE
40
0.0
9
$DIMDLI
40
0.38
9
$DIMDSEP
70
46
9
$DIMEXE
40
0.18
9
$DIMEXO
40
0.0625
9
$DIMFXLON
70
0
9
$DIMFXL
40
1.0
9
$DIMGAP
40
0.09
9
$DIMJUST
70
0
9
$DIMLFAC
40
1.0
9
$DIMLUNIT
70
2
9
$DIMLWD
70
-2
9
$DIMLWE
70
-2
9
$DIMPOST
1

9
$DIMRND
40
0.0
9
$DIMSCALE
40
1.0
9
$DIMSD1
70
0
9
$DIMSD2
70
0
9
$DIMSE1
70
0
9
$DIMSE2
70
0
9
$DIMSOXD
70
0
9
$DIMTAD
70
0
9
$DIMTDEC
70
4
9
$DIMTFAC
40
1.0
9
$DIMTIH
70
0
9
$DIMTIX
70
0
9
$DIMTM
40
0.0
9
$DIMTMOVE
70
0
9
$DIMTOFL
70
0
9
$DIMTOH
70
0
9
$DIMTOL
70
0
9
$DIMLIM
70
0
9
$DIMTOLJ
70
1
9
$DIMTP
40
0.0
9
$DIMTXT
40
0.18
9
$DIMTXTDIRECTION
70
0
9
$DIMTZIN
70
0
9
$DIMZIN
70
0
9
$DIMFRAC
70
0
9
$DIMLTYPE
6
ByBlock
9
$DIMLTEX1
6
ByBlock
9
$DIMLTEX2
6
ByBlock
0
ENDSEC
0
SECTION
2
CLASSES
0
CLASS
1
RASTERVARIABLES
2
AcDbRasterVariables
3
ISM
90
0
280
0
281
0
0
ENDSEC
0
SECTION
2
TABLES
0
TABLE
2
APPID
5
4
330
0
100
AcDbSymbolTable
70
5
0
APPID
5
19
330
4
100
AcDbSymbolTableRecord
100
AcDbRegAppTableRecord
2
ACAD
70
0
0
APPID
5
27
330
4
100
AcDbSymbolTableRecord
100
AcDbRegAppTableRecord
2
AcAecLayerStandard
70
0
0
APPID
5
64
330
4
100
AcDbSymbolTableRecord
100
AcDbRegAppTableRecord
2
AcCmTransparency
70
0
0
APPID
5
65
330
4
100
AcDbSymbolTableRecord
100
AcDbRegAppTableRecord
2
GradientColor1ACI
70
0
0
APPID
5
66
330
4
100
AcDbSymbolTableRecord
100
AcDbRegAppTableRecord
2
GradientColor2ACI
70
0
0
ENDTAB
0
TABLE
2
VPORT
5
1
330
0
100
AcDbSymbolTable
70
1
0
VPORT
5
2
330
1
100
AcDbSymbolTableRecord
100
AcDbViewportTableRecord
2
*Active
70
0
10
0.0
20
0.0
11
1.0
21
1.0
12
0.0
22
0.0
13
0.0
23
0.0
14
0.5
24
0.5
15
10.0
25
10.0
16
0.0
26
0.0
36
1.0
17
0.0
27
0.0
37
0.0
40
10.0
41
1.0
75
0
76
1
0
ENDTAB
0
TABLE
2
LTYPE
5
7
330
0
100
AcDbSymbolTable
70
3
0
LTYPE
5
15
330
7
100
AcDbSymbolTableRecord
100
AcDbLinetypeTableRecord
2
Continuous
70
0
3
Solid line
72
65
73
0
40
0.0
0
LTYPE
5
16
330
7
100
AcDbSymbolTableRecord
100
AcDbLinetypeTableRecord
2
ByLayer
70
0
3

72
65
73
0
40
0.0
0
LTYPE
5
17
330
7
100
AcDbSymbolTableRecord
100
AcDbLinetypeTableRecord
2
ByBlock
70
0
3

72
65
73
0
40
0.0
0
ENDTAB
0
TABLE
2
LAYER
5
5
102
{ACAD_XDICTIONARY
360
6
102
}
330
0
100
AcDbSymbolTable
70
2
0
LAYER
5
14
330
5
100
AcDbSymbolTableRecord
100
AcDbLayerTableRecord
2
0
70
0
62
7
6
Continuous
290
1
370
-3
390
0
0
LAYER
5
26
330
5
100
AcDbSymbolTableRecord
100
AcDbLayerTableRecord
2
AM_8
70
0
62
1
6
Continuous
290
1
370
25
390
0
1001
AcAecLayerStandard
1000

1000

0
ENDTAB
0
TABLE
2
STYLE
5
8
330
0
100
AcDbSymbolTable
70
1
0
STYLE
5
18
330
8
100
AcDbSymbolTableRecord
100
AcDbTextStyleTableRecord
2
Standard
3
simplex.shx
70
0
71
0
40
0.0
41
1.0
42
0.0
50
0.0
0
ENDTAB
0
TABLE
2
DIMSTYLE
5
A
330
0
100
AcDbSymbolTable
70
1
100
AcDbDimStyleTable
0
DIMSTYLE
105
1A
330
A
100
AcDbSymbolTableRecord
100
AcDbDimStyleTableRecord
2
Standard
3

4

40
1.0
41
0.18
42
0.0625
43
0.38
44
0.18
45
0.0
46
0.0
47
0.0
48
0.0
49
1.0
70
0
71
0
72
0
73
0
74
0
75
0
76
0
77
0
78
0
79
0
140
0.18
141
0.09
143
25.4
144
1.0
146
1.0
147
0.09
148
0.0
170
0
171
2
172
0
174
0
175
0
176
0
177
0
178
0
179
0
271
4
272
4
273
2
274
2
275
0
276
0
277
2
278
46
279
0
280
0
281
0
282
0
283
1
284
0
285
0
286
0
289
3
290
0
294
0
340
18
173
0
345
17
346
17
347
17
371
-2
372
-2
0
ENDTAB
0
TABLE
2
VIEW
5
3
330
0
100
AcDbSymbolTable
70
0
0
ENDTAB
0
TABLE
2
UCS
5
C
330
0
100
AcDbSymbolTable
70
0
0
ENDTAB
0
TABLE
2
BLOCK_RECORD
5
D
330
0
100
AcDbSymbolTable
70
3
0
BLOCK_RECORD
5
1C
330
D
100
AcDbSymbolTableRecord
100
AcDbBlockTableRecord
2
*Model_Space
340
20
0
BLOCK_RECORD
5
22
330
D
100
AcDbSymbolTableRecord
100
AcDbBlockTableRecord
2
FOOT_2_2_1
340
0
70
0
280
1
281
0
1001
ACAD
1000
DesignCenter Data
1002
{
1070
1
1070
0
1002
}
0
BLOCK_RECORD
5
5E
330
D
100
AcDbSymbolTableRecord
100
AcDbBlockTableRecord
2
*Paper_Space
340
63
0
ENDTAB
0
ENDSEC
0
SECTION
2
BLOCKS
0
BLOCK
5
1E
330
1C
100
AcDbEntity
67
0
8
0
100
AcDbBlockBegin
2
*Model_Space
70
0
10
0.0
20
0.0
30
0.0
3
*Model_Space
4

0
ENDBLK
5
1D
330
1C
100
AcDbEntity
8
0
100
AcDbBlockEnd
0
BLOCK
5
24
330
22
100
AcDbEntity
8
0
100
AcDbBlockBegin
2
FOOT_2_2_1
70
0
10
0.0
20
0.0
30
0.0
3
FOOT_2_2_1
4

0
LINE
5
25
330
22
100
AcDbEntity
8
AM_8
62
256
6
ByLayer
370
-1
48
1.0
60
0
100
AcDbLine
10
-23.4071651190752
20
20.4207461258629
30
0.0
11
-38.1430121489684
21
35.1565931558143
31
0.0
39
0.0
210
0.0
220
0.0
230
1.0
0
LINE
5
28
330
22
100
AcDbEntity
8
AM_8
62
256
6
ByLayer
370
-1
48
1.0
60
0
100
AcDbLine
10
-32.387421240157
20
-24.4805344794877
30
0.0
11
-54.8380615427741
21
-2.02989417684148
31
0.0
39
0.0
210
0.0
220
0.0
230
1.0
0
LINE
5
29
330
22
100
AcDbEntity
8
AM_8
62
256
6
ByLayer
370
-1
48
1.0
60
0
100
AcDbLine
10
-52.3020461236592
20
-26.4346471209428
30
0.0
11
11.8513466182048
21
37.7187456209504
31
0.0
39
0.0
210
0.0
220
0.0
230
1.0
0
LINE
5
2A
330
22
100
AcDbEntity
8
AM_8
62
256
6
ByLayer
370
-1
48
1.0
60
0
100
AcDbLine
10
-72.2564364710706
20
-28.4285252261616
30
0.0
11
-6.78171717072837
21
37.0461940740934
31
0.0
39
0.0
210
0.0
220
0.0
230
1.0
0
LINE
5
2B
330
22
100
AcDbEntity
8
AM_8
62
256
6
ByLayer
370
-1
48
1.0
60
0
100
AcDbLine
10
-92.9322119561257
20
-31.1437884691113
30
0.0
11
-25.8576654287172
21
35.9307580582972
31
0.0
39
0.0
210
0.0
220
0.0
230
1.0
0
LINE
5
2C
330
22
100
AcDbEntity
8
AM_8
62
256
6
ByLayer
370
-1
48
1.0
60
0
100
AcDbLine
10
-50.3479334822623
20
29.4010022469156
30
0.0
11
-55.2149915368063
21
34.2680603014596
31
0.0
39
0.0
210
0.0
220
0.0
230
1.0
0
LINE
5
2D
330
22
100
AcDbEntity
8
AM_8
62
256
6
ByLayer
370
-1
48
1.0
60
0
100
AcDbLine
10
-41.3676773611805
20
2.46023388372851
30
0.0
11
-63.8183176638559
21
24.9108741864038
31
0.0
39
0.0
210
0.0
220
0.0
230
1.0
0
LINE
5
2E
330
22
100
AcDbEntity
8
AM_8
62
256
6
ByLayer
370
-1
48
1.0
60
0
100
AcDbLine
10
-68.3084457243676
20
11.4404900047812
30
0.0
11
-90.7590860270429
21
33.8911303074274
31
0.0
39
0.0
210
0.0
220
0.0
230
1.0
0
LINE
5
2F
330
22
100
AcDbEntity
8
AM_8
62
256
6
ByLayer
370
-1
48
1.0
60
0
100
AcDbLine
10
-95.2492140875547
20
20.4207461258338
30
0.0
11
-109.108428397449
21
34.2799604356987
31
0.0
39
0.0
210
0.0
220
0.0
230
1.0
0
LINE
5
30
330
22
100
AcDbEntity
8
AM_8
62
256
6
ByLayer
370
-1
48
1.0
60
0
100
AcDbLine
10
-59.3281896033441
20
-15.500278358435
30
0.0
11
-81.7788299060194
21
6.95036194424029
31
0.0
39
0.0
210
0.0
220
0.0
230
1.0
0
LINE
5
31
330
22
100
AcDbEntity
8
AM_8
62
256
6
ByLayer
370
-1
48
1.0
60
0
100
AcDbLine
10
-122.1899824508
20
29.4010022469156
30
0.0
11
-123.69908809819
21
30.9101078942476
31
0.0
39
0.0
210
0.0
220
0.0
230
1.0
0
LINE
5
32
330
22
100
AcDbEntity
8
AM_8
62
256
6
ByLayer
370
-1
48
1.0
60
0
100
AcDbLine
10
-86.2689579665312
20
-6.52002223735326
30
0.0
11
-108.719598269206
21
15.9306180653221
31
0.0
39
0.0
210
0.0
220
0.0
230
1.0
0
LINE
5
33
330
22
100
AcDbEntity
8
AM_8
62
256
6
ByLayer
370
-1
48
1.0
60
0
100
AcDbLine
10
-65.0923225256847
20
-27.6966576781415
30
0.0
11
-72.7985737848794
21
-19.9904064189468
31
0.0
39
0.0
210
0.0
220
0.0
230
1.0
0
LINE
5
34
330
22
100
AcDbEntity
8
AM_8
62
256
6
ByLayer
370
-1
48
1.0
60
0
100
AcDbLine
10
-113.209726329718
20
2.4602338836994
30
0.0
11
-134.168941982032
21
23.4194495359552
31
0.0
39
0.0
210
0.0
220
0.0
230
1.0
0
LINE
5
35
330
22
100
AcDbEntity
8
AM_8
62
256
6
ByLayer
370
-1
48
1.0
60
0
100
AcDbLine
10
-81.2680795549531
20
-29.4814128910948
30
0.0
11
-99.7393421481247
21
-11.0101502978941
31
0.0
39
0.0
210
0.0
220
0.0
230
1.0
0
LINE
5
36
330
22
100
AcDbEntity
8
AM_8
62
256
6
ByLayer
370
-1
48
1.0
60
0
100
AcDbLine
10
-140.150494692963
20
11.4404900047521
30
0.0
11
-140.550462190702
21
11.840457502607
31
0.0
39
0.0
210
0.0
220
0.0
230
1.0
0
LINE
5
37
330
22
100
AcDbEntity
8
AM_8
62
256
6
ByLayer
370
-1
48
1.0
60
0
100
AcDbLine
10
-104.229470208636
20
-24.4805344795168
30
0.0
11
-126.680110511312
21
-2.02989417684148
31
0.0
39
0.0
210
0.0
220
0.0
230
1.0
0
LINE
5
38
330
22
100
AcDbEntity
8
AM_8
62
256
6
ByLayer
370
-1
48
1.0
60
0
100
AcDbLine
10
-131.170238571823
20
-15.500278358435
30
0.0
11
-140.326395565644
21
-6.3441213646438
31
0.0
39
0.0
210
0.0
220
0.0
230
1.0
0
LINE
5
39
330
22
100
AcDbEntity
8
AM_8
62
256
6
ByLayer
370
-1
48
1.0
60
0
100
AcDbLine
10
-113.711308440252
20
-32.959208490036
30
0.0
11
-117.699854390288
21
-28.9706625400286
31
0.0
39
0.0
210
0.0
220
0.0
230
1.0
0
LINE
5
3A
330
22
100
AcDbEntity
8
AM_8
62
256
6
ByLayer
370
-1
48
1.0
60
0
100
AcDbLine
10
-112.721029157692
20
-32.9720934285433
30
0.0
11
-44.9903844186338
21
34.7585513104859
31
0.0
39
0.0
210
0.0
220
0.0
230
1.0
0
LINE
5
3B
330
22
100
AcDbEntity
8
AM_8
62
256
6
ByLayer
370
-1
48
1.0
60
0
100
AcDbLine
10
-127.732171500276
20
-30.0227235290222
30
0.0
11
-63.7238167074975
21
33.9856312638149
31
0.0
39
0.0
210
0.0
220
0.0
230
1.0
0
LINE
5
3C
330
22
100
AcDbEntity
8
AM_8
62
256
6
ByLayer
370
-1
48
1.0
60
0
100
AcDbLine
10
-136.17475278856
20
-20.5047925750841
30
0.0
11
-81.779111909098
21
33.8908483043779
31
0.0
39
0.0
210
0.0
220
0.0
230
1.0
0
LINE
5
3D
330
22
100
AcDbEntity
8
AM_8
62
256
6
ByLayer
370
-1
48
1.0
60
0
100
AcDbLine
10
-140.285415019491
20
-6.65494256390957
30
0.0
11
-99.3362552734325
21
34.2942171821196
31
0.0
39
0.0
210
0.0
220
0.0
230
1.0
0
LINE
5
3E
330
22
100
AcDbEntity
8
AM_8
62
256
6
ByLayer
370
-1
48
1.0
60
0
100
AcDbLine
10
-140.75389820378
20
10.8370864939352
30
0.0
11
-118.821944948926
21
32.7690397487604
31
0.0
39
0.0
210
0.0
220
0.0
230
1.0
0
LINE
5
3F
330
22
100
AcDbEntity
8
AM_8
62
256
6
ByLayer
370
-1
48
1.0
60
0
100
AcDbLine
10
118.329159917601
20
4.4080067842151
30
0.0
11
106.806548636465
21
15.9306180652929
31
0.0
39
0.0
210
0.0
220
0.0
230
1.0
0
LINE
5
40
330
22
100
AcDbEntity
8
AM_8
62
256
6
ByLayer
370
-1
48
1.0
60
0
100
AcDbLine
10
102.316420575895
20
2.4602338836994
30
0.0
11
79.8657802732196
21
24.9108741863747
31
0.0
39
0.0
210
0.0
220
0.0
230
1.0
0
LINE
5
41
330
22
100
AcDbEntity
8
AM_8
62
256
6
ByLayer
370
-1
48
1.0
60
0
100
AcDbLine
10
125.321341302013
20
-20.5446868423605
30
0.0
11
115.786804757547
21
-11.0101502978941
31
0.0
39
0.0
210
0.0
220
0.0
230
1.0
0
LINE
5
42
330
22
100
AcDbEntity
8
AM_8
62
256
6
ByLayer
370
-1
48
1.0
60
0
100
AcDbLine
10
75.3756522127078
20
11.4404900047812
30
0.0
11
52.9250119100325
21
33.8911303074274
31
0.0
39
0.0
210
0.0
220
0.0
230
1.0
0
LINE
5
43
330
22
100
AcDbEntity
8
AM_8
62
256
6
ByLayer
370
-1
48
1.0
60
0
100
AcDbLine
10
111.296676696977
20
-24.4805344794877
30
0.0
11
88.8460363943595
21
-2.02989417684148
31
0.0
39
0.0
210
0.0
220
0.0
230
1.0
0
LINE
5
44
330
22
100
AcDbEntity
8
AM_8
62
256
6
ByLayer
370
-1
48
1.0
60
0
100
AcDbLine
10
48.4348838495207
20
20.4207461258338
30
0.0
11
31.2678284568829
21
37.5878015184426
31
0.0
39
0.0
210
0.0
220
0.0
230
1.0
0
LINE
5
45
330
22
100
AcDbEntity
8
AM_8
62
256
6
ByLayer
370
-1
48
1.0
60
0
100
AcDbLine
10
84.3559083337896
20
-15.500278358435
30
0.0
11
61.9052680311142
21
6.95036194426939
31
0.0
39
0.0
210
0.0
220
0.0
230
1.0
0
LINE
5
46
330
22
100
AcDbEntity
8
AM_8
62
256
6
ByLayer
370
-1
48
1.0
60
0
100
AcDbLine
10
109.576504987082
20
-40.7208750116697
30
0.0
11
97.8262925153831
21
-28.9706625400286
31
0.0
39
0.0
210
0.0
220
0.0
230
1.0
0
LINE
5
47
330
22
100
AcDbEntity
8
AM_8
62
256
6
ByLayer
370
-1
48
1.0
60
0
100
AcDbLine
10
21.4941154862754
20
29.4010022469156
30
0.0
11
13.1553363288404
21
37.7397814044089
31
0.0
39
0.0
210
0.0
220
0.0
230
1.0
0
LINE
5
48
330
22
100
AcDbEntity
8
AM_8
62
256
6
ByLayer
370
-1
48
1.0
60
0
100
AcDbLine
10
57.4151399706025
20
-6.52002223735326
30
0.0
11
34.9644996678689
21
15.9306180653221
31
0.0
39
0.0
210
0.0
220
0.0
230
1.0
0
LINE
5
49
330
22
100
AcDbEntity
8
AM_8
62
256
6
ByLayer
370
-1
48
1.0
60
0
100
AcDbLine
10
93.3361644548131
20
-42.4410467216221
30
0.0
11
70.885524152196
21
-19.9904064189759
31
0.0
39
0.0
210
0.0
220
0.0
230
1.0
0
LINE
5
4A
330
22
100
AcDbEntity
8
AM_8
62
256
6
ByLayer
370
-1
48
1.0
60
0
100
AcDbLine
10
30.4743716074154
20
2.4602338836994
30
0.0
11
8.02373130474007
21
24.9108741863747
31
0.0
39
0.0
210
0.0
220
0.0
230
1.0
0
LINE
5
4B
330
22
100
AcDbEntity
8
AM_8
62
256
6
ByLayer
370
-1
48
1.0
60
0
100
AcDbLine
10
66.395396091626
20
-33.4607906005695
30
0.0
11
43.9447557889507
21
-11.0101502978941
31
0.0
39
0.0
210
0.0
220
0.0
230
1.0
0
LINE
5
4C
330
22
100
AcDbEntity
8
AM_8
62
256
6
ByLayer
370
-1
48
1.0
60
0
100
AcDbLine
10
83.3792356435442
20
-50.4446301524586
30
0.0
11
79.8657802732778
21
-46.931174782163
31
0.0
39
0.0
210
0.0
220
0.0
230
1.0
0
LINE
5
4D
330
22
100
AcDbEntity
8
AM_8
62
256
6
ByLayer
370
-1
48
1.0
60
0
100
AcDbLine
10
3.53360324411187
20
11.4404900047812
30
0.0
11
-18.9170370585052
21
33.8911303074274
31
0.0
39
0.0
210
0.0
220
0.0
230
1.0
0
LINE
5
4E
330
22
100
AcDbEntity
8
AM_8
62
256
6
ByLayer
370
-1
48
1.0
60
0
100
AcDbLine
10
39.4546277284389
20
-24.4805344794877
30
0.0
11
17.0039874257636
21
-2.02989417684148
31
0.0
39
0.0
210
0.0
220
0.0
230
1.0
0
LINE
5
4F
330
22
100
AcDbEntity
8
AM_8
62
256
6
ByLayer
370
-1
48
1.0
60
0
100
AcDbLine
10
67.1071556146489
20
-52.1330623656686
30
0.0
11
52.9250119100325
21
-37.9509186611103
31
0.0
39
0.0
210
0.0
220
0.0
230
1.0
0
LINE
5
50
330
22
100
AcDbEntity
8
AM_8
62
256
6
ByLayer
370
-1
48
1.0
60
0
100
AcDbLine
10
12.5138593652518
20
-15.500278358435
30
0.0
11
-9.93678093742346
21
6.95036194424029
31
0.0
39
0.0
210
0.0
220
0.0
230
1.0
0
LINE
5
51
330
22
100
AcDbEntity
8
AM_8
62
256
6
ByLayer
370
-1
48
1.0
60
0
100
AcDbLine
10
48.4348838495207
20
-51.4213028427039
30
0.0
11
25.9842435467872
21
-28.9706625399995
31
0.0
39
0.0
210
0.0
220
0.0
230
1.0
0
LINE
5
52
330
22
100
AcDbEntity
8
AM_8
62
256
6
ByLayer
370
-1
48
1.0
60
0
100
AcDbLine
10
-14.4269089979935
20
-6.52002223735326
30
0.0
11
-36.8775493006106
21
15.9306180653221
31
0.0
39
0.0
210
0.0
220
0.0
230
1.0
0
LINE
5
53
330
22
100
AcDbEntity
8
AM_8
62
256
6
ByLayer
370
-1
48
1.0
60
0
100
AcDbLine
10
21.4941154862754
20
-42.4410467216512
30
0.0
11
-0.956524816399906
21
-19.9904064189759
31
0.0
39
0.0
210
0.0
220
0.0
230
1.0
0
LINE
5
54
330
22
100
AcDbEntity
8
AM_8
62
256
6
ByLayer
370
-1
48
1.0
60
0
100
AcDbLine
10
-5.44665287691168
20
-33.4607906005403
30
0.0
11
-27.897293179587
21
-11.0101502978941
31
0.0
39
0.0
210
0.0
220
0.0
230
1.0
0
LINE
5
55
330
22
100
AcDbEntity
8
AM_8
62
256
6
ByLayer
370
-1
48
1.0
60
0
100
AcDbLine
10
85.8180870360229
20
-49.9591241404414
30
0.0
11
125.146178768482
21
-10.6310324080405
31
0.0
39
0.0
210
0.0
220
0.0
230
1.0
0
LINE
5
56
330
22
100
AcDbEntity
8
AM_8
62
256
6
ByLayer
370
-1
48
1.0
60
0
100
AcDbLine
10
65.6476084064343
20
-52.1690905278956
30
0.0
11
119.879636067315
21
2.06293713292689
31
0.0
39
0.0
210
0.0
220
0.0
230
1.0
0
LINE
5
57
330
22
100
AcDbEntity
8
AM_8
62
256
6
ByLayer
370
-1
48
1.0
60
0
100
AcDbLine
10
48.4249666357646
20
-51.4312200564891
30
0.0
11
111.927909876394
21
12.0717231841991
31
0.0
39
0.0
210
0.0
220
0.0
230
1.0
0
LINE
5
58
330
22
100
AcDbEntity
8
AM_8
62
256
6
ByLayer
370
-1
48
1.0
60
0
100
AcDbLine
10
32.472596169333
20
-49.423078280699
30
0.0
11
102.212073755625
21
20.316399305535
31
0.0
39
0.0
210
0.0
220
0.0
230
1.0
0
LINE
5
59
330
22
100
AcDbEntity
8
AM_8
62
256
6
ByLayer
370
-1
48
1.0
60
0
100
AcDbLine
10
18.367880729551
20
-45.5672814783466
30
0.0
11
90.7314662425197
21
26.7963040345639
31
0.0
39
0.0
210
0.0
220
0.0
230
1.0
0
LINE
5
5A
330
22
100
AcDbEntity
8
AM_8
62
256
6
ByLayer
370
-1
48
1.0
60
0
100
AcDbLine
10
5.72515553125413
20
-40.2494944345672
30
0.0
11
77.3021617779159
21
31.3275118120946
31
0.0
39
0.0
210
0.0
220
0.0
230
1.0
0
LINE
5
5B
330
22
100
AcDbEntity
8
AM_8
62
256
6
ByLayer
370
-1
48
1.0
60
0
100
AcDbLine
10
-6.66791958914837
20
-34.6820573128934
30
0.0
11
62.3224006343517
21
34.3082629106648
31
0.0
39
0.0
210
0.0
220
0.0
230
1.0
0
LINE
5
5C
330
22
100
AcDbEntity
8
AM_8
62
256
6
ByLayer
370
-1
48
1.0
60
0
100
AcDbLine
10
-19.8499687818112
20
-29.9035942633636
30
0.0
11
46.5690944707021
21
36.5154689892079
31
0.0
39
0.0
210
0.0
220
0.0
230
1.0
0
LINE
5
5D
330
22
100
AcDbEntity
8
AM_8
62
256
6
ByLayer
370
-1
48
1.0
60
0
100
AcDbLine
10
-34.7523352262215
20
-26.8454484656104
30
0.0
11
29.7310466825147
21
37.6379334431549
31
0.0
39
0.0
210
0.0
220
0.0
230
1.0
0
ENDBLK
5
23
330
22
100
AcDbEntity
8
0
100
AcDbBlockEnd
0
BLOCK
5
60
330
5E
100
AcDbEntity
67
1
8
0
100
AcDbBlockBegin
2
*Paper_Space
70
0
10
0.0
20
0.0
30
0.0
3
*Paper_Space
4

0
ENDBLK
5
5F
330
5E
100
AcDbEntity
8
0
100
AcDbBlockEnd
0
ENDSEC
0
SECTION
2
ENTITIES
0
VIEWPORT
5
62
330
5E
100
AcDbEntity
67
1
8
0
62
256
6
ByLayer
370
-1
48
1.0
60
0
100
AcDbViewport
10
0.0
20
0.0
30
0.0
40
297.0
41
210.0
68
1
69
1
12
50.0
22
100.0
13
0.0
23
0.0
14
10.0
24
10.0
15
10.0
25
10.0
16
0.0
26
0.0
36
1.0
17
0.0
27
0.0
37
0.0
42
50.0
43
0.0
44
0.0
45
250.0
50
0.0
51
0.0
72
1000
90
819232
110
0.0
120
0.0
130
0.0
111
1.0
121
0.0
131
0.0
112
0.0
122
1.0
132
0.0
0
ENDSEC
0
SECTION
2
OBJECTS
0
DICTIONARY
5
67
330
0
100
AcDbDictionary
280
1
281
1
3
ACAD_GROUP
350
12
3
ACAD_LAYOUT
350
61
3
ACAD_DGNDEFINITIONS
350
F
3
ACAD_DWFDEFINITIONS
350
10
3
ACAD_PDFDEFINITIONS
350
11
3
ACAD_MLINESTYLE
350
B
3
ACAD_IMAGE_DICT
350
E
3
ACAD_IMAGE_VARS
350
21
0
DICTIONARY
5
12
330
67
100
AcDbDictionary
280
1
281
1
0
DICTIONARY
5
61
330
67
100
AcDbDictionary
280
1
281
1
3
Model
350
20
3
Layout1
350
63
0
DICTIONARY
5
F
330
67
100
AcDbDictionary
280
1
281
1
0
DICTIONARY
5
10
330
67
100
AcDbDictionary
280
1
281
1
0
DICTIONARY
5
11
330
67
100
AcDbDictionary
280
1
281
1
0
DICTIONARY
5
B
330
67
100
AcDbDictionary
280
1
281
1
3
Standard
350
1B
0
DICTIONARY
5
E
330
67
100
AcDbDictionary
280
1
281
1
0
DICTIONARY
5
6
330
5
100
AcDbDictionary
280
1
281
1
3
ACAD_LAYERSTATES
360
68
0
DICTIONARY
5
68
330
6
100
AcDbDictionary
280
1
281
1
0
LAYOUT
5
20
330
61
100
AcDbPlotSettings
1

2
none_device
4
ISO_A4_(210.00_x_297.00_MM)
6

40
7.5
41
20.0
42
7.5
43
20.0
44
210.0
45
297.0
46
0.0
47
0.0
48
0.0
49
0.0
140
0.0
141
0.0
142
1.0
143
1.0
70
11952
72
1
73
1
74
1
7

75
0
76
0
77
2
78
300
147
1.0
148
0.0
149
0.0
100
AcDbLayout
1
Model
71
0
10
-20.0
20
-7.5
11
277.0
21
202.5
12
0.0
22
0.0
32
0.0
14
25.7
24
19.5
34
0.0
15
231.3
25
175.5
35
0.0
146
0.0
13
0.0
23
0.0
33
0.0
16
1.0
26
0.0
36
0.0
17
0.0
27
1.0
37
0.0
76
0
330
1C
0
LAYOUT
5
63
330
61
100
AcDbPlotSettings
1

2
none_device
4
ISO_A4_(210.00_x_297.00_MM)
6

40
7.5
41
20.0
42
7.5
43
20.0
44
210.0
45
297.0
46
0.0
47
0.0
48
0.0
49
0.0
140
0.0
141
0.0
142
1.0
143
1.0
70
688
72
1
73
1
74
1
7

75
0
76
0
77
2
78
300
147
1.0
148
0.0
149
0.0
100
AcDbLayout
1
Layout1
71
1
10
-20.0
20
-7.5
11
277.0
21
202.5
12
0.0
22
0.0
32
0.0
14
25.7
24
19.5
34
0.0
15
231.3
25
175.5
35
0.0
146
0.0
13
0.0
23
0.0
33
0.0
16
1.0
26
0.0
36
0.0
17
0.0
27
1.0
37
0.0
76
0
330
5E
0
MLINESTYLE
5
1B
330
B
100
AcDbMlineStyle
2
Standard
70
0
3

62
256
51
90.0
52
90.0
71
2
49
0.5
62
256
6
ByLayer
49
-0.5
62
256
6
ByLayer
0
RASTERVARIABLES
5
21
330
E
100
AcDbRasterVariables
90
0
70
1
71
1
72
0
0
ENDSEC
0
EOF
