999
DXF file generated by netDxf https://github.com/haplokuon/netDxf, Copyright(C) 2009-2020 Daniel Carvajal, Licensed under LGPL
0
SECTION
2
HEADER
9
$ACADVER
1
AC1015
9
$DWGCODEPAGE
3
ANSI_1252
9
$HANDSEED
5
F9
9
$ANGBASE
50
0.0
9
$ANGDIR
70
0
9
$ATTMODE
70
1
9
$AUNITS
70
0
9
$AUPREC
70
0
9
$CECOLOR
62
256
9
$CELTSCALE
40
1.0
9
$CELTYPE
6
ByLayer
9
$CELWEIGHT
370
-1
9
$CLAYER
8
0
9
$CMLJUST
70
0
9
$CMLSCALE
40
20.0
9
$CMLSTYLE
2
Standard
9
$DIMSTYLE
2
Standard
9
$TEXTSIZE
40
2.5
9
$TEXTSTYLE
7
Standard
9
$LUNITS
70
2
9
$LUPREC
70
4
9
$MIRRTEXT
70
0
9
$EXTNAMES
290
1
9
$INSBASE
10
0.0
20
0.0
30
0.0
9
$INSUNITS
70
0
9
$LTSCALE
40
1.0
9
$LWDISPLAY
290
0
9
$PDMODE
70
0
9
$PDSIZE
40
0.0
9
$PLINEGEN
70
0
9
$PSLTSCALE
70
1
9
$TDCREATE
40
2459821.4529091
9
$TDUCREATE
40
2459821.11957576
9
$TDUPDATE
40
2459821.4529091
9
$TDUUPDATE
40
2459821.11957576
9
$TDINDWG
40
0.0
9
$UCSORG
10
0.0
20
0.0
30
0.0
9
$UCSXDIR
10
1.0
20
0.0
30
0.0
9
$UCSYDIR
10
0.0
20
1.0
30
0.0
9
$DIMADEC
70
0
9
$DIMALT
70
0
9
$DIMALTD
70
2
9
$DIMALTF
40
25.4
9
$DIMALTRND
40
0.0
9
$DIMALTTD
70
2
9
$DIMALTTZ
70
0
9
$DIMALTU
70
2
9
$DIMALTZ
70
0
9
$DIMAPOST
1

9
$DIMATFIT
70
3
9
$DIMAUNIT
70
0
9
$DIMASZ
40
0.18
9
$DIMAZIN
70
0
9
$DIMSAH
70
0
9
$DIMBLK
1

9
$DIMLDRBLK
1

9
$DIMCEN
40
0.09
9
$DIMCLRD
70
0
9
$DIMCLRE
70
0
9
$DIMCLRT
70
0
9
$DIMDEC
70
4
9
$DIMDLE
40
0.0
9
$DIMDLI
40
0.38
9
$DIMDSEP
70
46
9
$DIMEXE
40
0.18
9
$DIMEXO
40
0.0625
9
$DIMFXLON
70
0
9
$DIMFXL
40
1.0
9
$DIMGAP
40
0.09
9
$DIMJUST
70
0
9
$DIMLFAC
40
1.0
9
$DIMLUNIT
70
2
9
$DIMLWD
70
-2
9
$DIMLWE
70
-2
9
$DIMPOST
1

9
$DIMRND
40
0.0
9
$DIMSCALE
40
1.0
9
$DIMSD1
70
0
9
$DIMSD2
70
0
9
$DIMSE1
70
0
9
$DIMSE2
70
0
9
$DIMSOXD
70
0
9
$DIMTAD
70
0
9
$DIMTDEC
70
4
9
$DIMTFAC
40
1.0
9
$DIMTIH
70
0
9
$DIMTIX
70
0
9
$DIMTM
40
0.0
9
$DIMTMOVE
70
0
9
$DIMTOFL
70
0
9
$DIMTOH
70
0
9
$DIMTOL
70
0
9
$DIMLIM
70
0
9
$DIMTOLJ
70
1
9
$DIMTP
40
0.0
9
$DIMTXT
40
0.18
9
$DIMTXTDIRECTION
70
0
9
$DIMTZIN
70
0
9
$DIMZIN
70
0
9
$DIMFRAC
70
0
9
$DIMLTYPE
6
ByBlock
9
$DIMLTEX1
6
ByBlock
9
$DIMLTEX2
6
ByBlock
0
ENDSEC
0
SECTION
2
CLASSES
0
CLASS
1
RASTERVARIABLES
2
AcDbRasterVariables
3
ISM
90
0
280
0
281
0
0
ENDSEC
0
SECTION
2
TABLES
0
TABLE
2
APPID
5
4
330
0
100
AcDbSymbolTable
70
4
0
APPID
5
19
330
4
100
AcDbSymbolTableRecord
100
AcDbRegAppTableRecord
2
ACAD
70
0
0
APPID
5
F4
330
4
100
AcDbSymbolTableRecord
100
AcDbRegAppTableRecord
2
AcCmTransparency
70
0
0
APPID
5
F5
330
4
100
AcDbSymbolTableRecord
100
AcDbRegAppTableRecord
2
GradientColor1ACI
70
0
0
APPID
5
F6
330
4
100
AcDbSymbolTableRecord
100
AcDbRegAppTableRecord
2
GradientColor2ACI
70
0
0
ENDTAB
0
TABLE
2
VPORT
5
1
330
0
100
AcDbSymbolTable
70
1
0
VPORT
5
2
330
1
100
AcDbSymbolTableRecord
100
AcDbViewportTableRecord
2
*Active
70
0
10
0.0
20
0.0
11
1.0
21
1.0
12
0.0
22
0.0
13
0.0
23
0.0
14
0.5
24
0.5
15
10.0
25
10.0
16
0.0
26
0.0
36
1.0
17
0.0
27
0.0
37
0.0
40
10.0
41
1.0
75
0
76
1
0
ENDTAB
0
TABLE
2
LTYPE
5
7
330
0
100
AcDbSymbolTable
70
5
0
LTYPE
5
15
330
7
100
AcDbSymbolTableRecord
100
AcDbLinetypeTableRecord
2
Continuous
70
0
3
Solid line
72
65
73
0
40
0.0
0
LTYPE
5
16
330
7
100
AcDbSymbolTableRecord
100
AcDbLinetypeTableRecord
2
ByLayer
70
0
3

72
65
73
0
40
0.0
0
LTYPE
5
17
330
7
100
AcDbSymbolTableRecord
100
AcDbLinetypeTableRecord
2
ByBlock
70
0
3

72
65
73
0
40
0.0
0
LTYPE
5
28
330
7
100
AcDbSymbolTableRecord
100
AcDbLinetypeTableRecord
2
CENTER
70
0
3
Center ____ _ ____ _ ____ _ ____ _ ____ _ ____
72
65
73
4
40
2.0
49
1.25
74
0
49
-0.25
74
0
49
0.25
74
0
49
-0.25
74
0
0
LTYPE
5
34
330
7
100
AcDbSymbolTableRecord
100
AcDbLinetypeTableRecord
2
CENTER2
70
0
3
Center (.5x) ___ _ ___ _ ___ _ ___ _ ___ _ ___
72
65
73
4
40
1.125
49
0.75
74
0
49
-0.125
74
0
49
0.125
74
0
49
-0.125
74
0
0
ENDTAB
0
TABLE
2
LAYER
5
5
102
{ACAD_XDICTIONARY
360
6
102
}
330
0
100
AcDbSymbolTable
70
1
0
LAYER
5
14
330
5
100
AcDbSymbolTableRecord
100
AcDbLayerTableRecord
2
0
70
0
62
7
6
Continuous
290
1
370
-3
390
0
0
ENDTAB
0
TABLE
2
STYLE
5
8
330
0
100
AcDbSymbolTable
70
1
0
STYLE
5
18
330
8
100
AcDbSymbolTableRecord
100
AcDbTextStyleTableRecord
2
Standard
3
simplex.shx
70
0
71
0
40
0.0
41
1.0
42
0.0
50
0.0
0
ENDTAB
0
TABLE
2
DIMSTYLE
5
A
330
0
100
AcDbSymbolTable
70
1
100
AcDbDimStyleTable
0
DIMSTYLE
105
1A
330
A
100
AcDbSymbolTableRecord
100
AcDbDimStyleTableRecord
2
Standard
3

4

40
1.0
41
0.18
42
0.0625
43
0.38
44
0.18
45
0.0
46
0.0
47
0.0
48
0.0
49
1.0
70
0
71
0
72
0
73
0
74
0
75
0
76
0
77
0
78
0
79
0
140
0.18
141
0.09
143
25.4
144
1.0
146
1.0
147
0.09
148
0.0
170
0
171
2
172
0
174
0
175
0
176
0
177
0
178
0
179
0
271
4
272
4
273
2
274
2
275
0
276
0
277
2
278
46
279
0
280
0
281
0
282
0
283
1
284
0
285
0
286
0
289
3
290
0
294
0
340
18
173
0
345
17
346
17
347
17
371
-2
372
-2
0
ENDTAB
0
TABLE
2
VIEW
5
3
330
0
100
AcDbSymbolTable
70
0
0
ENDTAB
0
TABLE
2
UCS
5
C
330
0
100
AcDbSymbolTable
70
0
0
ENDTAB
0
TABLE
2
BLOCK_RECORD
5
D
330
0
100
AcDbSymbolTable
70
3
0
BLOCK_RECORD
5
1C
330
D
100
AcDbSymbolTableRecord
100
AcDbBlockTableRecord
2
*Model_Space
340
20
0
BLOCK_RECORD
5
22
330
D
100
AcDbSymbolTableRecord
100
AcDbBlockTableRecord
2
A$C1D9D33D3
340
0
70
0
280
1
281
0
1001
ACAD
1000
DesignCenter Data
1002
{
1070
1
1070
0
1002
}
0
BLOCK_RECORD
5
EE
330
D
100
AcDbSymbolTableRecord
100
AcDbBlockTableRecord
2
*Paper_Space
340
F3
0
ENDTAB
0
ENDSEC
0
SECTION
2
BLOCKS
0
BLOCK
5
1E
330
1C
100
AcDbEntity
67
0
8
0
100
AcDbBlockBegin
2
*Model_Space
70
0
10
0.0
20
0.0
30
0.0
3
*Model_Space
4

0
ENDBLK
5
1D
330
1C
100
AcDbEntity
8
0
100
AcDbBlockEnd
0
BLOCK
5
24
330
22
100
AcDbEntity
8
0
100
AcDbBlockBegin
2
A$C1D9D33D3
70
0
10
0.0
20
0.0
30
0.0
3
A$C1D9D33D3
4

0
LINE
5
25
330
22
100
AcDbEntity
8
0
62
3
6
ByLayer
370
-1
48
1.0
60
0
100
AcDbLine
10
-754.941417737533
20
-191.655694694844
30
0.0
11
-999.285775221895
21
-191.655694694844
31
0.0
39
0.0
210
0.0
220
0.0
230
1.0
0
LINE
5
26
330
22
100
AcDbEntity
8
0
62
3
6
ByLayer
370
-1
48
1.0
60
0
100
AcDbLine
10
-754.941417737533
20
428.861323831456
30
0.0
11
-999.285775221895
21
428.861323831456
31
0.0
39
0.0
210
0.0
220
0.0
230
1.0
0
LINE
5
27
330
22
100
AcDbEntity
8
0
62
2
6
CENTER
370
-1
48
1.0
60
0
100
AcDbLine
10
333.902226222308
20
118.602814568307
30
0.0
11
-1078.26506926671
21
118.602814568307
31
0.0
39
0.0
210
0.0
220
0.0
230
1.0
0
LINE
5
29
330
22
100
AcDbEntity
8
0
62
3
6
ByLayer
370
-1
48
1.0
60
0
100
AcDbLine
10
-28.7840455531259
20
-157.022185431695
30
0.0
11
-28.7840455531259
21
-73.9224601972801
31
0.0
39
0.0
210
0.0
220
0.0
230
1.0
0
LINE
5
2A
330
22
100
AcDbEntity
8
0
62
3
6
ByLayer
370
-1
48
1.0
60
0
100
AcDbLine
10
-685.159045553126
20
-157.022185431693
30
0.0
11
-685.549766116634
21
-73.4063721755847
31
0.0
39
0.0
210
0.0
220
0.0
230
1.0
0
LINE
5
2B
330
22
100
AcDbEntity
8
0
62
3
6
ByLayer
370
-1
48
1.0
60
0
100
AcDbLine
10
-751.003917737533
20
428.861323831456
30
0.0
11
-751.003917737533
21
-187.718194694844
31
0.0
39
0.0
210
0.0
220
0.0
230
1.0
0
LINE
5
2C
330
22
100
AcDbEntity
8
0
62
3
6
ByLayer
370
-1
48
1.0
60
0
100
AcDbLine
10
-751.003917737533
20
-191.655694694844
30
0.0
11
-751.003917737533
21
424.923823831455
31
0.0
39
0.0
210
0.0
220
0.0
230
1.0
0
LINE
5
2D
330
22
100
AcDbEntity
8
0
62
3
6
ByLayer
370
-1
48
1.0
60
0
100
AcDbLine
10
101.515029909791
20
78.6028145683067
30
0.0
11
101.515029909791
21
-113.413538699739
31
0.0
39
0.0
210
0.0
220
0.0
230
1.0
0
LINE
5
2E
330
22
100
AcDbEntity
8
0
62
3
6
ByLayer
370
-1
48
1.0
60
0
100
AcDbLine
10
41.6865545785295
20
-142.228110012971
30
0.0
11
41.6865545785295
21
-50.3578592577069
31
0.0
39
0.0
210
0.0
220
0.0
230
1.0
0
LINE
5
2F
330
22
100
AcDbEntity
8
0
62
3
6
ByLayer
370
-1
48
1.0
60
0
100
AcDbLine
10
32.1520482948363
20
-55.0076061658456
30
0.0
11
32.1520482948363
21
-149.053788605846
31
0.0
39
0.0
210
0.0
220
0.0
230
1.0
0
LINE
5
30
330
22
100
AcDbEntity
8
0
62
3
6
ByLayer
370
-1
48
1.0
60
0
100
AcDbLine
10
37.7490545785295
20
-145.046935514762
30
0.0
11
37.7490545785295
21
432.963922142371
31
0.0
39
0.0
210
0.0
220
0.0
230
1.0
0
LINE
5
31
330
22
100
AcDbEntity
8
0
62
3
6
ByLayer
370
-1
48
1.0
60
0
100
AcDbLine
10
-329.409045553126
20
-145.209685431693
30
0.0
11
-329.409045553126
21
-66.8201061658456
31
0.0
39
0.0
210
0.0
220
0.0
230
1.0
0
LINE
5
32
330
22
100
AcDbEntity
8
0
62
3
6
ByLayer
370
-1
48
1.0
60
0
100
AcDbLine
10
-384.534045553126
20
-145.209685431693
30
0.0
11
-384.534045553126
21
-66.8201061658456
31
0.0
39
0.0
210
0.0
220
0.0
230
1.0
0
LINE
5
33
330
22
100
AcDbEntity
8
0
62
2
6
CENTER2
370
-1
48
1.0
60
0
100
AcDbLine
10
-356.971545553126
20
-237.283964719032
30
0.0
11
-356.971545553126
21
503.419569306945
31
0.0
39
0.0
210
0.0
220
0.0
230
1.0
0
LINE
5
35
330
22
100
AcDbEntity
8
0
62
3
6
ByLayer
370
-1
48
1.0
60
0
100
AcDbLine
10
91.6422089156476
20
-132.62338507057
30
0.0
11
41.6865545785295
21
-142.228110012971
31
0.0
39
0.0
210
0.0
220
0.0
230
1.0
0
ARC
5
36
330
22
100
AcDbEntity
8
0
62
3
6
ByLayer
370
-1
48
1.0
60
0
100
AcDbCircle
39
0.0
10
77.8900299097914
20
-113.413538699739
30
0.0
40
23.625
210
0.0
220
0.0
230
1.0
100
AcDbArc
50
305.59857976819
51
0.0
0
LINE
5
37
330
22
100
AcDbEntity
8
0
62
3
6
ByLayer
370
-1
48
1.0
60
0
100
AcDbLine
10
-396.346545553126
20
-157.022185431693
30
0.0
11
-28.7840455531259
21
-157.022185431695
31
0.0
39
0.0
210
0.0
220
0.0
230
1.0
0
LINE
5
38
330
22
100
AcDbEntity
8
0
62
3
6
ByLayer
370
-1
48
1.0
60
0
100
AcDbLine
10
-696.971545553126
20
-196.397185431693
30
0.0
11
-16.9715455531259
21
-196.397185431695
31
0.0
39
0.0
210
0.0
220
0.0
230
1.0
0
LINE
5
39
330
22
100
AcDbEntity
8
0
62
3
6
ByLayer
370
-1
48
1.0
60
0
100
AcDbLine
10
37.7490545785295
20
-145.046935514762
30
0.0
11
-16.9715455531259
21
-189.817391683266
31
0.0
39
0.0
210
0.0
220
0.0
230
1.0
0
LINE
5
3A
330
22
100
AcDbEntity
8
0
62
3
6
ByLayer
370
-1
48
1.0
60
0
100
AcDbLine
10
-16.9715455531259
20
-168.834685431695
30
0.0
11
-16.9715455531259
21
-196.397185431695
31
0.0
39
0.0
210
0.0
220
0.0
230
1.0
0
LINE
5
3B
330
22
100
AcDbEntity
8
0
62
3
6
ByLayer
370
-1
48
1.0
60
0
100
AcDbLine
10
12.3859186527334
20
-144.122910763776
30
0.0
11
-4.079002077935
21
-161.50642479037
31
0.0
39
0.0
210
0.0
220
0.0
230
1.0
0
LINE
5
3C
330
22
100
AcDbEntity
8
0
62
3
6
ByLayer
370
-1
48
1.0
60
0
100
AcDbLine
10
14.3060193200836
20
-146.367497609633
30
0.0
11
-6.05996239990782
21
-166.543750734831
31
0.0
39
0.0
210
0.0
220
0.0
230
1.0
0
LINE
5
3D
330
22
100
AcDbEntity
8
0
62
3
6
ByLayer
370
-1
48
1.0
60
0
100
AcDbLine
10
18.013337870776
20
-144.37964973483
30
0.0
11
-9.53357076332395
21
-161.242278451571
31
0.0
39
0.0
210
0.0
220
0.0
230
1.0
0
LINE
5
3E
330
22
100
AcDbEntity
8
0
62
3
6
ByLayer
370
-1
48
1.0
60
0
100
AcDbLine
10
41.6865545785295
20
-142.228110012971
30
0.0
11
37.7490545785295
21
-145.046935514762
31
0.0
39
0.0
210
0.0
220
0.0
230
1.0
0
ARC
5
3F
330
22
100
AcDbEntity
8
0
62
3
6
ByLayer
370
-1
48
1.0
60
0
100
AcDbCircle
39
0.0
10
-28.7840455531259
20
-168.834685431695
30
0.0
40
11.8125
210
0.0
220
0.0
230
1.0
100
AcDbArc
50
0.0
51
90.0
0
LINE
5
40
330
22
100
AcDbEntity
8
0
62
2
6
ByLayer
370
-1
48
1.0
60
0
100
AcDbLine
10
-102.974045553125
20
-135.572730330545
30
0.0
11
-102.974045553125
21
-218.821615764713
31
0.0
39
0.0
210
0.0
220
0.0
230
1.0
0
ARC
5
41
330
22
100
AcDbEntity
8
0
62
3
6
ByLayer
370
-1
48
1.0
60
0
100
AcDbCircle
39
0.0
10
-317.596545553126
20
-145.209685431693
30
0.0
40
11.8125
210
0.0
220
0.0
230
1.0
100
AcDbArc
50
180.0
51
270.0
0
LINE
5
42
330
22
100
AcDbEntity
8
0
62
3
6
ByLayer
370
-1
48
1.0
60
0
100
AcDbLine
10
-396.346545553126
20
-157.022185431693
30
0.0
11
-685.159045553126
21
-157.022185431693
31
0.0
39
0.0
210
0.0
220
0.0
230
1.0
0
ARC
5
43
330
22
100
AcDbEntity
8
0
62
3
6
ByLayer
370
-1
48
1.0
60
0
100
AcDbCircle
39
0.0
10
-396.346545553126
20
-145.209685431693
30
0.0
40
11.8125
210
0.0
220
0.0
230
1.0
100
AcDbArc
50
270.0
51
0.0
0
LINE
5
44
330
22
100
AcDbEntity
8
0
62
3
6
ByLayer
370
-1
48
1.0
60
0
100
AcDbLine
10
-696.971545553126
20
-168.834685431693
30
0.0
11
-696.971545553126
21
-196.397185431693
31
0.0
39
0.0
210
0.0
220
0.0
230
1.0
0
LINE
5
45
330
22
100
AcDbEntity
8
0
62
3
6
ByLayer
370
-1
48
1.0
60
0
100
AcDbLine
10
-696.971545553126
20
-175.257113919999
30
0.0
11
-751.003917737533
21
-157.856919856113
31
0.0
39
0.0
210
0.0
220
0.0
230
1.0
0
LINE
5
46
330
22
100
AcDbEntity
8
0
62
2
6
ByLayer
370
-1
48
1.0
60
0
100
AcDbLine
10
-610.969045553127
20
-135.572730330545
30
0.0
11
-610.969045553127
21
-218.821615764713
31
0.0
39
0.0
210
0.0
220
0.0
230
1.0
0
ARC
5
47
330
22
100
AcDbEntity
8
0
62
3
6
ByLayer
370
-1
48
1.0
60
0
100
AcDbCircle
39
0.0
10
-754.941417737533
20
-187.718194694844
30
0.0
40
3.9375
210
0.0
220
0.0
230
1.0
100
AcDbArc
50
270.0
51
0.0
0
LINE
5
48
330
22
100
AcDbEntity
8
0
62
3
6
ByLayer
370
-1
48
1.0
60
0
100
AcDbLine
10
-691.884186108582
20
-159.123473315827
30
0.0
11
-751.003917737533
21
-138.075222809077
31
0.0
39
0.0
210
0.0
220
0.0
230
1.0
0
ARC
5
49
330
22
100
AcDbEntity
8
0
62
3
6
ByLayer
370
-1
48
1.0
60
0
100
AcDbCircle
39
0.0
10
-685.159045553126
20
-168.834685431693
30
0.0
40
11.8125
210
0.0
220
0.0
230
1.0
100
AcDbArc
50
90.0
51
180.0
0
LINE
5
4A
330
22
100
AcDbEntity
8
0
62
2
6
ByLayer
370
-1
48
1.0
60
0
100
AcDbLine
10
-271.865099554445
20
490.97709627861
30
0.0
11
-438.727690640542
21
490.97709627861
31
0.0
39
9.54545454545454
210
0.0
220
0.0
230
1.0
0
LINE
5
4B
330
22
100
AcDbEntity
8
0
62
2
6
ByLayer
370
-1
48
1.0
60
0
100
AcDbLine
10
-356.971545553126
20
503.419569306945
30
0.0
11
-356.971545553126
21
601.857130892089
31
0.0
39
9.54545454545454
210
0.0
220
0.0
230
1.0
0
LINE
5
4C
330
22
100
AcDbEntity
8
0
62
2
6
ByLayer
370
-1
48
1.0
60
0
100
AcDbLine
10
27.2376041651842
20
417.27868206441
30
0.0
11
76.337953923532
21
417.27868206441
31
0.0
39
0.0
210
0.0
220
0.0
230
1.0
0
LINE
5
4D
330
22
100
AcDbEntity
8
0
62
3
6
ByLayer
370
-1
48
1.0
60
0
100
AcDbLine
10
37.7490545785295
20
395.191063678847
30
0.0
11
81.8275299097914
21
395.191063678847
31
0.0
39
0.0
210
0.0
220
0.0
230
1.0
0
LINE
5
4E
330
22
100
AcDbEntity
8
0
62
2
6
ByLayer
370
-1
48
1.0
60
0
100
AcDbLine
10
27.2376041651842
20
-30.7351191797461
30
0.0
11
76.337953923532
21
-30.7351191797461
31
0.0
39
0.0
210
0.0
220
0.0
230
1.0
0
LINE
5
4F
330
22
100
AcDbEntity
8
0
62
3
6
ByLayer
370
-1
48
1.0
60
0
100
AcDbLine
10
-321.152084103654
20
-30.7351191797461
30
0.0
11
76.932302586265
21
-30.7351191797461
31
0.0
39
0.0
210
0.0
220
0.0
230
1.0
0
LINE
5
50
330
22
100
AcDbEntity
8
0
62
3
6
ByLayer
370
-1
48
1.0
60
0
100
AcDbLine
10
101.515029909791
20
375.503563678847
30
0.0
11
101.515029909791
21
78.6028145683067
31
0.0
39
0.0
210
0.0
220
0.0
230
1.0
0
LINE
5
51
330
22
100
AcDbEntity
8
0
62
3
6
ByLayer
370
-1
48
1.0
60
0
100
AcDbLine
10
281.054818083237
20
158.602814568307
30
0.0
11
281.054818083237
21
78.6028145683067
31
0.0
39
0.0
210
0.0
220
0.0
230
1.0
0
LINE
5
52
330
22
100
AcDbEntity
8
0
62
3
6
ByLayer
370
-1
48
1.0
60
0
100
AcDbLine
10
113.023568083238
20
158.602814568307
30
0.0
11
113.023568083238
21
78.6028145683067
31
0.0
39
0.0
210
0.0
220
0.0
230
1.0
0
LINE
5
53
330
22
100
AcDbEntity
8
0
62
3
6
ByLayer
370
-1
48
1.0
60
0
100
AcDbLine
10
281.054818083237
20
78.6028145683067
30
0.0
11
113.023568083238
21
78.6028145683067
31
0.0
39
0.0
210
0.0
220
0.0
230
1.0
0
LINE
5
54
330
22
100
AcDbEntity
8
0
62
3
6
ByLayer
370
-1
48
1.0
60
0
100
AcDbLine
10
283.023568083237
20
80.5715645683067
30
0.0
11
281.054818083237
21
78.6028145683067
31
0.0
39
0.0
210
0.0
220
0.0
230
1.0
0
LINE
5
55
330
22
100
AcDbEntity
8
0
62
3
6
ByLayer
370
-1
48
1.0
60
0
100
AcDbLine
10
113.023568083238
20
78.6028145683067
30
0.0
11
101.515029909791
21
67.0942763948606
31
0.0
39
0.0
210
0.0
220
0.0
230
1.0
0
LINE
5
56
330
22
100
AcDbEntity
8
0
62
3
6
ByLayer
370
-1
48
1.0
60
0
100
AcDbLine
10
281.054818083237
20
158.602814568307
30
0.0
11
113.023568083238
21
158.602814568307
31
0.0
39
0.0
210
0.0
220
0.0
230
1.0
0
LINE
5
57
330
22
100
AcDbEntity
8
0
62
3
6
ByLayer
370
-1
48
1.0
60
0
100
AcDbLine
10
124.888046557324
20
164.909496386488
30
0.0
11
283.023568083237
21
164.909496386488
31
0.0
39
0.0
210
0.0
220
0.0
230
1.0
0
LINE
5
58
330
22
100
AcDbEntity
8
0
62
3
6
ByLayer
370
-1
48
1.0
60
0
100
AcDbLine
10
281.054818083237
20
158.602814568307
30
0.0
11
283.023568083237
21
156.634064568307
31
0.0
39
0.0
210
0.0
220
0.0
230
1.0
0
LINE
5
59
330
22
100
AcDbEntity
8
0
62
3
6
ByLayer
370
-1
48
1.0
60
0
100
AcDbLine
10
113.023568083238
20
158.602814568307
30
0.0
11
101.515029909791
21
170.111352741751
31
0.0
39
0.0
210
0.0
220
0.0
230
1.0
0
LINE
5
5A
330
22
100
AcDbEntity
8
0
62
3
6
ByLayer
370
-1
48
1.0
60
0
100
AcDbLine
10
124.888046557324
20
164.909496386488
30
0.0
11
124.888046557324
21
158.602814568307
31
0.0
39
0.0
210
0.0
220
0.0
230
1.0
0
ARC
5
5B
330
22
100
AcDbEntity
8
0
62
3
6
ByLayer
370
-1
48
1.0
60
0
100
AcDbCircle
39
0.0
10
81.8275299097914
20
375.503563678847
30
0.0
40
19.6875
210
0.0
220
0.0
230
1.0
100
AcDbArc
50
0.0
51
90.0
0
LWPOLYLINE
5
5C
330
22
100
AcDbEntity
8
0
62
3
6
ByLayer
370
-1
48
1.0
60
0
100
AcDbPolyline
90
3
70
0
38
0.0
39
0.0
10
-494.784045553126
20
262.805516398374
40
0.0
41
0.0
42
0.0
10
-704.598633624519
20
262.805516398374
40
0.0
41
0.0
42
0.0
10
-743.869338704488
20
229.534486036728
40
0.0
41
0.0
42
0.0
210
0.0
220
0.0
230
1.0
0
LWPOLYLINE
5
5D
330
22
100
AcDbEntity
8
0
62
3
6
ByLayer
370
-1
48
1.0
60
0
100
AcDbPolyline
90
4
70
0
38
0.0
39
0.0
10
17.9279316320681
20
257.199422656016
40
0.0
41
0.0
42
0.0
10
0.0
20
287.058038994093
40
0.0
41
0.0
42
0.0
10
-704.598633624519
20
287.058038994093
40
0.0
41
0.0
42
0.0
10
-743.869338704488
20
253.787008632447
40
0.0
41
0.0
42
0.0
210
0.0
220
0.0
230
1.0
0
LWPOLYLINE
5
5E
330
22
100
AcDbEntity
8
0
62
3
6
ByLayer
370
-1
48
1.0
60
0
100
AcDbPolyline
90
3
70
0
38
0.0
39
0.0
10
17.9279316320681
20
232.946900060297
40
0.0
41
0.0
42
0.0
10
0.0
20
262.805516398374
40
0.0
41
0.0
42
0.0
10
-219.159045553126
20
262.805516398374
40
0.0
41
0.0
42
0.0
210
0.0
220
0.0
230
1.0
0
LINE
5
5F
330
22
100
AcDbEntity
8
0
62
3
6
ByLayer
370
-1
48
1.0
60
0
100
AcDbLine
10
41.6865545785295
20
-11.1123791017872
30
0.0
11
41.6865545785295
21
395.191063678847
31
0.0
39
0.0
210
0.0
220
0.0
230
1.0
0
LINE
5
60
330
22
100
AcDbEntity
8
0
62
3
6
ByLayer
370
-1
48
1.0
60
0
100
AcDbLine
10
32.1520482948363
20
431.585430819135
30
0.0
11
32.1520482948363
21
-6.46263219364846
31
0.0
39
0.0
210
0.0
220
0.0
230
1.0
0
LINE
5
61
330
22
100
AcDbEntity
8
0
62
2
6
ByLayer
370
-1
48
1.0
60
0
100
AcDbLine
10
-482.068583283613
20
274.273533888725
30
0.0
11
-482.068583283613
21
254.520612215216
31
0.0
39
0.0
210
0.0
220
0.0
230
1.0
0
LINE
5
62
330
22
100
AcDbEntity
8
0
62
3
6
ByLayer
370
-1
48
1.0
60
0
100
AcDbLine
10
-494.784045553126
20
-11.2843988187233
30
0.0
11
-494.784045553126
21
267.530781849071
31
0.0
39
0.0
210
0.0
220
0.0
230
1.0
0
ARC
5
63
330
22
100
AcDbEntity
8
0
62
3
6
ByLayer
370
-1
48
1.0
60
0
100
AcDbCircle
39
0.0
10
-450.698756317655
20
262.249411560168
30
0.0
40
7.875
210
0.0
220
0.0
230
1.0
100
AcDbArc
50
90.0
51
180.0
0
ARC
5
64
330
22
100
AcDbEntity
8
0
62
3
6
ByLayer
370
-1
48
1.0
60
0
100
AcDbCircle
39
0.0
10
-263.244334788597
20
262.249411560168
30
0.0
40
7.875
210
0.0
220
0.0
230
1.0
100
AcDbArc
50
0.0
51
90.0
0
LINE
5
65
330
22
100
AcDbEntity
8
0
62
2
6
ByLayer
370
-1
48
1.0
60
0
100
AcDbLine
10
-231.874507822638
20
274.273533888725
30
0.0
11
-231.874507822638
21
254.520612215216
31
0.0
39
0.0
210
0.0
220
0.0
230
1.0
0
LINE
5
66
330
22
100
AcDbEntity
8
0
62
3
6
ByLayer
370
-1
48
1.0
60
0
100
AcDbLine
10
-219.159045553126
20
-11.2843988187233
30
0.0
11
-219.159045553126
21
267.530781849071
31
0.0
39
0.0
210
0.0
220
0.0
230
1.0
0
LINE
5
67
330
22
100
AcDbEntity
8
0
62
3
6
ByLayer
370
-1
48
1.0
60
0
100
AcDbLine
10
37.7490545785295
20
-55.0076061658456
30
0.0
11
-751.003917737533
21
-55.0076061658456
31
0.0
39
0.0
210
0.0
220
0.0
230
1.0
0
LINE
5
68
330
22
100
AcDbEntity
8
0
62
3
6
ByLayer
370
-1
48
1.0
60
0
100
AcDbLine
10
-356.952607244257
20
-31.4521448900559
30
0.0
11
-402.15133919831
21
-31.4521448900559
31
0.0
39
0.0
210
0.0
220
0.0
230
1.0
0
LINE
5
69
330
22
100
AcDbEntity
8
0
62
3
6
ByLayer
370
-1
48
1.0
60
0
100
AcDbLine
10
-356.952607244257
20
-37.3583948900559
30
0.0
11
-402.15133919831
21
-37.3583948900559
31
0.0
39
0.0
210
0.0
220
0.0
230
1.0
0
LINE
5
6A
330
22
100
AcDbEntity
8
0
62
3
6
ByLayer
370
-1
48
1.0
60
0
100
AcDbLine
10
-272.27848702134
20
-10.4921355279967
30
0.0
11
-441.664604084912
21
-10.4921355279967
31
0.0
39
0.0
210
0.0
220
0.0
230
1.0
0
LINE
5
6B
330
22
100
AcDbEntity
8
0
62
3
6
ByLayer
370
-1
48
1.0
60
0
100
AcDbLine
10
-255.369334788596
20
10.9313435707318
30
0.0
11
-458.573756317655
21
10.9313435707318
31
0.0
39
0.0
210
0.0
220
0.0
230
1.0
0
LINE
5
6C
330
22
100
AcDbEntity
8
0
62
3
6
ByLayer
370
-1
48
1.0
60
0
100
AcDbLine
10
-230.971545553126
20
-23.0968988187233
30
0.0
11
-482.971545553126
21
-23.0968988187233
31
0.0
39
0.0
210
0.0
220
0.0
230
1.0
0
LWPOLYLINE
5
6D
330
22
100
AcDbEntity
8
0
62
3
6
ByLayer
370
-1
48
1.0
60
0
100
AcDbPolyline
90
3
70
0
38
0.0
39
0.0
10
17.9279316320681
20
103.963542423126
40
0.0
41
0.0
42
0.0
10
0.0
20
74.1049260850486
40
0.0
41
0.0
42
0.0
10
-219.159045553126
20
74.1049260850486
40
0.0
41
0.0
42
0.0
210
0.0
220
0.0
230
1.0
0
LINE
5
6E
330
22
100
AcDbEntity
8
0
62
3
6
ByLayer
370
-1
48
1.0
60
0
100
AcDbLine
10
-255.369334788596
20
262.249411560168
30
0.0
11
-255.369334788596
21
10.9313435707318
31
0.0
39
0.0
210
0.0
220
0.0
230
1.0
0
LINE
5
6F
330
22
100
AcDbEntity
8
0
62
3
6
ByLayer
370
-1
48
1.0
60
0
100
AcDbLine
10
-28.3933249896181
20
-73.4063721755865
30
0.0
11
-329.409045553126
21
-73.4063721755847
31
0.0
39
0.0
210
0.0
220
0.0
230
1.0
0
LWPOLYLINE
5
70
330
22
100
AcDbEntity
8
0
62
3
6
ByLayer
370
-1
48
1.0
60
0
100
AcDbPolyline
90
3
70
0
38
0.0
39
0.0
10
17.9279316320681
20
29.8586163380769
40
0.0
41
0.0
42
0.0
10
0.0
20
0.0
40
0.0
41
0.0
42
0.0
10
-219.159045553126
20
0.0
40
0.0
41
0.0
42
0.0
210
0.0
220
0.0
230
1.0
0
LWPOLYLINE
5
71
330
22
100
AcDbEntity
8
0
62
3
6
ByLayer
370
-1
48
1.0
60
0
100
AcDbPolyline
90
3
70
0
38
0.0
39
0.0
10
17.9279316320681
20
78.3636583454409
40
0.0
41
0.0
42
0.0
10
0.0
20
48.5050420073639
40
0.0
41
0.0
42
0.0
10
-219.159045553126
20
48.5050420073639
40
0.0
41
0.0
42
0.0
210
0.0
220
0.0
230
1.0
0
LWPOLYLINE
5
72
330
22
100
AcDbEntity
8
0
62
3
6
ByLayer
370
-1
48
1.0
60
0
100
AcDbPolyline
90
3
70
0
38
0.0
39
0.0
10
17.9279316320681
20
63.542672491616
40
0.0
41
0.0
42
0.0
10
0.0
20
33.6840561535391
40
0.0
41
0.0
42
0.0
10
-219.159045553126
20
33.6840561535391
40
0.0
41
0.0
42
0.0
210
0.0
220
0.0
230
1.0
0
LWPOLYLINE
5
73
330
22
100
AcDbEntity
8
0
62
3
6
ByLayer
370
-1
48
1.0
60
0
100
AcDbPolyline
90
3
70
0
38
0.0
39
0.0
10
17.9279316320681
20
51.4164127857948
40
0.0
41
0.0
42
0.0
10
0.0
20
21.5577964477179
40
0.0
41
0.0
42
0.0
10
-219.159045553126
20
21.5577964477179
40
0.0
41
0.0
42
0.0
210
0.0
220
0.0
230
1.0
0
LWPOLYLINE
5
74
330
22
100
AcDbEntity
8
0
62
3
6
ByLayer
370
-1
48
1.0
60
0
100
AcDbPolyline
90
3
70
0
38
0.0
39
0.0
10
17.9279316320681
20
37.9427884139314
40
0.0
41
0.0
42
0.0
10
0.0
20
8.08417207585444
40
0.0
41
0.0
42
0.0
10
-219.159045553126
20
8.08417207585444
40
0.0
41
0.0
42
0.0
210
0.0
220
0.0
230
1.0
0
LINE
5
75
330
22
100
AcDbEntity
8
0
62
3
6
ByLayer
370
-1
48
1.0
60
0
100
AcDbLine
10
37.7490545785295
20
-6.46263219364846
30
0.0
11
-219.159045553126
21
-6.46263219364846
31
0.0
39
0.0
210
0.0
220
0.0
230
1.0
0
LINE
5
76
330
22
100
AcDbEntity
8
0
62
3
6
ByLayer
370
-1
48
1.0
60
0
100
AcDbLine
10
55.7137761850645
20
-39.4640380005785
30
0.0
11
39.0893369204386
21
-39.4640380005785
31
0.0
39
0.0
210
0.0
220
0.0
230
1.0
0
LINE
5
77
330
22
100
AcDbEntity
8
0
62
3
6
ByLayer
370
-1
48
1.0
60
0
100
AcDbLine
10
55.5878097366222
20
-22.0062003589155
30
0.0
11
39.1151788211209
21
-22.0062003589155
31
0.0
39
0.0
210
0.0
220
0.0
230
1.0
0
ARC
5
78
330
22
100
AcDbEntity
8
0
62
3
6
ByLayer
370
-1
48
1.0
60
0
100
AcDbCircle
39
0.0
10
41.7604410031963
20
-15.0498791017872
30
0.0
40
3.9375
210
0.0
220
0.0
230
1.0
100
AcDbArc
50
90.0
51
172.425004762767
0
ARC
5
79
330
22
100
AcDbEntity
8
0
62
3
6
ByLayer
370
-1
48
1.0
60
0
100
AcDbCircle
39
0.0
10
41.8176963374899
20
-46.4203592577069
30
0.0
40
3.9375
210
0.0
220
0.0
230
1.0
100
AcDbArc
50
191.987166746699
51
270.0
0
LINE
5
7A
330
22
100
AcDbEntity
8
0
62
3
6
ByLayer
370
-1
48
1.0
60
0
100
AcDbLine
10
52.6502632711672
20
-11.1123791017872
30
0.0
11
41.7604410031963
21
-11.1123791017872
31
0.0
39
0.0
210
0.0
220
0.0
230
1.0
0
LINE
5
7B
330
22
100
AcDbEntity
8
0
62
3
6
ByLayer
370
-1
48
1.0
60
0
100
AcDbLine
10
52.6502632711672
20
-50.3578592577069
30
0.0
11
41.8176963374899
21
-50.3578592577069
31
0.0
39
0.0
210
0.0
220
0.0
230
1.0
0
ARC
5
7C
330
22
100
AcDbEntity
8
0
62
3
6
ByLayer
370
-1
48
1.0
60
0
100
AcDbCircle
39
0.0
10
15.4573756909813
20
-31.0251334488785
30
0.0
40
41.1314100265576
210
0.0
220
0.0
230
1.0
100
AcDbArc
50
348.160587340145
51
12.7147578623754
0
LINE
5
7D
330
22
100
AcDbEntity
8
0
62
3
6
ByLayer
370
-1
48
1.0
60
0
100
AcDbLine
10
56.5877632711709
20
-46.4203592577069
30
0.0
11
56.5877632711709
21
-30.7351191797461
31
0.0
39
0.0
210
0.0
220
0.0
230
1.0
0
LINE
5
7E
330
22
100
AcDbEntity
8
0
62
3
6
ByLayer
370
-1
48
1.0
60
0
100
AcDbLine
10
63.9942625615549
20
-40.9572208941081
30
0.0
11
63.9942625615549
21
-20.5130174653841
31
0.0
39
0.0
210
0.0
220
0.0
230
1.0
0
LINE
5
7F
330
22
100
AcDbEntity
8
0
62
3
6
ByLayer
370
-1
48
1.0
60
0
100
AcDbLine
10
65.9630125615549
20
-22.4817674653841
30
0.0
11
65.9630125615549
21
-38.9884708941081
31
0.0
39
0.0
210
0.0
220
0.0
230
1.0
0
LINE
5
80
330
22
100
AcDbEntity
8
0
62
3
6
ByLayer
370
-1
48
1.0
60
0
100
AcDbLine
10
56.5877632711709
20
-40.9572208941081
30
0.0
11
63.9942625615549
21
-40.9572208941081
31
0.0
39
0.0
210
0.0
220
0.0
230
1.0
0
LINE
5
81
330
22
100
AcDbEntity
8
0
62
3
6
ByLayer
370
-1
48
1.0
60
0
100
AcDbLine
10
65.9630125615549
20
-38.9884708941081
30
0.0
11
63.9942625615549
21
-40.9572208941081
31
0.0
39
0.0
210
0.0
220
0.0
230
1.0
0
ARC
5
82
330
22
100
AcDbEntity
8
0
62
3
6
ByLayer
370
-1
48
1.0
60
0
100
AcDbCircle
39
0.0
10
44.5016209418245
20
-44.4057891142565
30
0.0
40
12.2528906494789
210
0.0
220
0.0
230
1.0
100
AcDbArc
50
9.46330507472761
51
23.7854594104281
0
ARC
5
83
330
22
100
AcDbEntity
8
0
62
3
6
ByLayer
370
-1
48
1.0
60
0
100
AcDbCircle
39
0.0
10
52.6502632711672
20
-46.4203592577069
30
0.0
40
3.9375
210
0.0
220
0.0
230
1.0
100
AcDbArc
50
270.0
51
0.0
0
ARC
5
84
330
22
100
AcDbEntity
8
0
62
3
6
ByLayer
370
-1
48
1.0
60
0
100
AcDbCircle
39
0.0
10
52.6502632711672
20
-15.0498791017872
30
0.0
40
3.9375
210
0.0
220
0.0
230
1.0
100
AcDbArc
50
0.0
51
90.0
0
LINE
5
85
330
22
100
AcDbEntity
8
0
62
3
6
ByLayer
370
-1
48
1.0
60
0
100
AcDbLine
10
56.5877632711709
20
-20.5130174653841
30
0.0
11
63.9942625615549
21
-20.5130174653841
31
0.0
39
0.0
210
0.0
220
0.0
230
1.0
0
LINE
5
86
330
22
100
AcDbEntity
8
0
62
3
6
ByLayer
370
-1
48
1.0
60
0
100
AcDbLine
10
63.9942625615549
20
-20.5130174653841
30
0.0
11
65.9630125615549
21
-22.4817674653841
31
0.0
39
0.0
210
0.0
220
0.0
230
1.0
0
ARC
5
87
330
22
100
AcDbEntity
8
0
62
3
6
ByLayer
370
-1
48
1.0
60
0
100
AcDbCircle
39
0.0
10
45.1565348849945
20
-16.9204639048712
30
0.0
40
11.5832668070099
210
0.0
220
0.0
230
1.0
100
AcDbArc
50
334.143109570013
51
350.706592998846
0
LINE
5
88
330
22
100
AcDbEntity
8
0
62
3
6
ByLayer
370
-1
48
1.0
60
0
100
AcDbLine
10
56.5877632711709
20
-15.0498791017872
30
0.0
11
56.5877632711709
21
-30.7351191797461
31
0.0
39
0.0
210
0.0
220
0.0
230
1.0
0
ARC
5
89
330
22
100
AcDbEntity
8
0
62
3
6
ByLayer
370
-1
48
1.0
60
0
100
AcDbCircle
39
0.0
10
50.40441113216
20
-16.1993916628544
30
0.0
40
12.6575687335872
210
0.0
220
0.0
230
1.0
100
AcDbArc
50
172.425004762767
51
207.049503193353
0
ARC
5
8A
330
22
100
AcDbEntity
8
0
62
3
6
ByLayer
370
-1
48
1.0
60
0
100
AcDbCircle
39
0.0
10
66.5789245354826
20
-30.7757914156518
30
0.0
40
28.829898646468
210
0.0
220
0.0
230
1.0
100
AcDbArc
50
162.185227226281
51
197.814772773719
0
ARC
5
8B
330
22
100
AcDbEntity
8
0
62
3
6
ByLayer
370
-1
48
1.0
60
0
100
AcDbCircle
39
0.0
10
48.6836418289131
20
-44.9625647473404
30
0.0
40
10.9565008067881
210
0.0
220
0.0
230
1.0
100
AcDbArc
50
150.672338705814
51
191.987166746699
0
LINE
5
8C
330
22
100
AcDbEntity
8
0
62
3
6
ByLayer
370
-1
48
1.0
60
0
100
AcDbLine
10
-28.7840455531259
20
-73.9224601972801
30
0.0
11
-23.6170972963955
21
-67.097633574187
31
0.0
39
0.0
210
0.0
220
0.0
230
1.0
0
LINE
5
8D
330
22
100
AcDbEntity
8
0
62
3
6
ByLayer
370
-1
48
1.0
60
0
100
AcDbLine
10
-255.369334788596
20
10.9313435707318
30
0.0
11
-272.27848702134
21
-10.4921355279967
31
0.0
39
0.0
210
0.0
220
0.0
230
1.0
0
LINE
5
8E
330
22
100
AcDbEntity
8
0
62
2
6
ByLayer
370
-1
48
1.0
60
0
100
AcDbLine
10
-231.874507822638
20
1.41761038209551
30
0.0
11
-231.874507822638
21
-18.3353112914137
31
0.0
39
0.0
210
0.0
220
0.0
230
1.0
0
ARC
5
8F
330
22
100
AcDbEntity
8
0
62
3
6
ByLayer
370
-1
48
1.0
60
0
100
AcDbCircle
39
0.0
10
-230.971545553126
20
-11.2843988187233
30
0.0
40
11.8125
210
0.0
220
0.0
230
1.0
100
AcDbArc
50
270.0
51
0.0
0
LINE
5
90
330
22
100
AcDbEntity
8
0
62
2
6
ByLayer
370
-1
48
1.0
60
0
100
AcDbLine
10
-239.477197264587
20
-7.69912169272538
30
0.0
11
-223.511549988252
21
-7.69912169272538
31
0.0
39
0.0
210
0.0
220
0.0
230
1.0
0
LINE
5
91
330
22
100
AcDbEntity
8
0
62
3
6
ByLayer
370
-1
48
1.0
60
0
100
AcDbLine
10
-329.68796581943
20
-31.4521448900559
30
0.0
11
-329.68796581943
21
-36.9654253220469
31
0.0
39
0.0
210
0.0
220
0.0
230
1.0
0
LINE
5
92
330
22
100
AcDbEntity
8
0
62
3
6
ByLayer
370
-1
48
1.0
60
0
100
AcDbLine
10
-321.152084103654
20
-23.5771448900559
30
0.0
11
-321.152084103654
21
-31.4521448900559
31
0.0
39
0.0
210
0.0
220
0.0
230
1.0
0
LINE
5
93
330
22
100
AcDbEntity
8
0
62
3
6
ByLayer
370
-1
48
1.0
60
0
100
AcDbLine
10
-311.7538752902
20
-37.3583948900559
30
0.0
11
-311.7538752902
21
-31.4521448900559
31
0.0
39
0.0
210
0.0
220
0.0
230
1.0
0
ARC
5
94
330
22
100
AcDbEntity
8
0
62
3
6
ByLayer
370
-1
48
1.0
60
0
100
AcDbCircle
39
0.0
10
-317.596545553126
20
-66.8201061658456
30
0.0
40
11.8125
210
0.0
220
0.0
230
1.0
100
AcDbArc
50
90.0
51
180.0
0
LINE
5
95
330
22
100
AcDbEntity
8
0
62
3
6
ByLayer
370
-1
48
1.0
60
0
100
AcDbLine
10
-356.952607244257
20
-37.3583948900559
30
0.0
11
-311.7538752902
21
-37.3583948900559
31
0.0
39
0.0
210
0.0
220
0.0
230
1.0
0
LINE
5
96
330
22
100
AcDbEntity
8
0
62
3
6
ByLayer
370
-1
48
1.0
60
0
100
AcDbLine
10
-356.952607244257
20
-31.4521448900559
30
0.0
11
-311.7538752902
21
-31.4521448900559
31
0.0
39
0.0
210
0.0
220
0.0
230
1.0
0
LWPOLYLINE
5
97
330
22
100
AcDbEntity
8
0
62
3
6
ByLayer
370
-1
48
1.0
60
0
100
AcDbPolyline
90
3
70
0
38
0.0
39
0.0
10
17.9279316320681
20
210.041738946538
40
0.0
41
0.0
42
0.0
10
0.0
20
239.900355284615
40
0.0
41
0.0
42
0.0
10
-219.159045553126
20
239.900355284615
40
0.0
41
0.0
42
0.0
210
0.0
220
0.0
230
1.0
0
LWPOLYLINE
5
98
330
22
100
AcDbEntity
8
0
62
3
6
ByLayer
370
-1
48
1.0
60
0
100
AcDbPolyline
90
3
70
0
38
0.0
39
0.0
10
17.9279316320681
20
169.620869015029
40
0.0
41
0.0
42
0.0
10
0.0
20
199.479485353106
40
0.0
41
0.0
42
0.0
10
-219.159045553126
20
199.479485353106
40
0.0
41
0.0
42
0.0
210
0.0
220
0.0
230
1.0
0
LWPOLYLINE
5
99
330
22
100
AcDbEntity
8
0
62
3
6
ByLayer
370
-1
48
1.0
60
0
100
AcDbPolyline
90
3
70
0
38
0.0
39
0.0
10
17.9279316320681
20
191.178668646824
40
0.0
41
0.0
42
0.0
10
0.0
20
221.037284984901
40
0.0
41
0.0
42
0.0
10
-219.159045553126
20
221.037284984901
40
0.0
41
0.0
42
0.0
210
0.0
220
0.0
230
1.0
0
LWPOLYLINE
5
9A
330
22
100
AcDbEntity
8
0
62
3
6
ByLayer
370
-1
48
1.0
60
0
100
AcDbPolyline
90
3
70
0
38
0.0
39
0.0
10
17.9279316320681
20
139.978897307379
40
0.0
41
0.0
42
0.0
10
0.0
20
169.837513645456
40
0.0
41
0.0
42
0.0
10
-219.159045553126
20
169.837513645456
40
0.0
41
0.0
42
0.0
210
0.0
220
0.0
230
1.0
0
LWPOLYLINE
5
9B
330
22
100
AcDbEntity
8
0
62
3
6
ByLayer
370
-1
48
1.0
60
0
100
AcDbPolyline
90
3
70
0
38
0.0
39
0.0
10
17.9279316320681
20
110.336928783807
40
0.0
41
0.0
42
0.0
10
0.0
20
140.195545121884
40
0.0
41
0.0
42
0.0
10
-219.159045553126
20
140.195545121884
40
0.0
41
0.0
42
0.0
210
0.0
220
0.0
230
1.0
0
LWPOLYLINE
5
9C
330
22
100
AcDbEntity
8
0
62
3
6
ByLayer
370
-1
48
1.0
60
0
100
AcDbPolyline
90
3
70
0
38
0.0
39
0.0
10
17.9279316320681
20
125.521342054921
40
0.0
41
0.0
42
0.0
10
0.0
20
95.662725716842
40
0.0
41
0.0
42
0.0
10
-219.159045553126
20
95.662725716842
40
0.0
41
0.0
42
0.0
210
0.0
220
0.0
230
1.0
0
LWPOLYLINE
5
9D
330
22
100
AcDbEntity
8
0
62
3
6
ByLayer
370
-1
48
1.0
60
0
100
AcDbPolyline
90
3
70
0
38
0.0
39
0.0
10
-494.784045553126
20
74.1049260850486
40
0.0
41
0.0
42
0.0
10
-704.598633624519
20
74.1049260850486
40
0.0
41
0.0
42
0.0
10
-743.869338704488
20
107.375956446695
40
0.0
41
0.0
42
0.0
210
0.0
220
0.0
230
1.0
0
LINE
5
9E
330
22
100
AcDbEntity
8
0
62
3
6
ByLayer
370
-1
48
1.0
60
0
100
AcDbLine
10
-458.573756317655
20
262.249411560168
30
0.0
11
-458.573756317655
21
10.9313435707318
31
0.0
39
0.0
210
0.0
220
0.0
230
1.0
0
LINE
5
9F
330
22
100
AcDbEntity
8
0
62
3
6
ByLayer
370
-1
48
1.0
60
0
100
AcDbLine
10
-384.534045553126
20
-73.4063721755847
30
0.0
11
-685.54976611663
21
-73.4063721755847
31
0.0
39
0.0
210
0.0
220
0.0
230
1.0
0
LWPOLYLINE
5
A0
330
22
100
AcDbEntity
8
0
62
3
6
ByLayer
370
-1
48
1.0
60
0
100
AcDbPolyline
90
3
70
0
38
0.0
39
0.0
10
-494.784045553126
20
0.0
40
0.0
41
0.0
42
0.0
10
-704.598633624519
20
0.0
40
0.0
41
0.0
42
0.0
10
-743.869338704488
20
33.2710303616459
40
0.0
41
0.0
42
0.0
210
0.0
220
0.0
230
1.0
0
LWPOLYLINE
5
A1
330
22
100
AcDbEntity
8
0
62
3
6
ByLayer
370
-1
48
1.0
60
0
100
AcDbPolyline
90
3
70
0
38
0.0
39
0.0
10
-494.784045553126
20
48.5050420073639
40
0.0
41
0.0
42
0.0
10
-704.598633624519
20
48.5050420073639
40
0.0
41
0.0
42
0.0
10
-743.869338704488
20
81.7760723690099
40
0.0
41
0.0
42
0.0
210
0.0
220
0.0
230
1.0
0
LWPOLYLINE
5
A2
330
22
100
AcDbEntity
8
0
62
3
6
ByLayer
370
-1
48
1.0
60
0
100
AcDbPolyline
90
3
70
0
38
0.0
39
0.0
10
-494.784045553126
20
33.6840561535391
40
0.0
41
0.0
42
0.0
10
-704.598633624519
20
33.6840561535391
40
0.0
41
0.0
42
0.0
10
-743.869338704488
20
66.955086515185
40
0.0
41
0.0
42
0.0
210
0.0
220
0.0
230
1.0
0
LWPOLYLINE
5
A3
330
22
100
AcDbEntity
8
0
62
3
6
ByLayer
370
-1
48
1.0
60
0
100
AcDbPolyline
90
3
70
0
38
0.0
39
0.0
10
-494.784045553126
20
21.5577964477179
40
0.0
41
0.0
42
0.0
10
-704.598633624519
20
21.5577964477179
40
0.0
41
0.0
42
0.0
10
-743.869338704488
20
54.8288268093638
40
0.0
41
0.0
42
0.0
210
0.0
220
0.0
230
1.0
0
LWPOLYLINE
5
A4
330
22
100
AcDbEntity
8
0
62
3
6
ByLayer
370
-1
48
1.0
60
0
100
AcDbPolyline
90
3
70
0
38
0.0
39
0.0
10
-494.784045553126
20
8.08417207585444
40
0.0
41
0.0
42
0.0
10
-704.598633624519
20
8.08417207585444
40
0.0
41
0.0
42
0.0
10
-743.869338704488
20
41.3552024375003
40
0.0
41
0.0
42
0.0
210
0.0
220
0.0
230
1.0
0
LINE
5
A5
330
22
100
AcDbEntity
8
0
62
3
6
ByLayer
370
-1
48
1.0
60
0
100
AcDbLine
10
-751.003917737533
20
-30.7351191797461
30
0.0
11
-392.753130384856
21
-30.7351191797461
31
0.0
39
0.0
210
0.0
220
0.0
230
1.0
0
LINE
5
A6
330
22
100
AcDbEntity
8
0
62
3
6
ByLayer
370
-1
48
1.0
60
0
100
AcDbLine
10
-494.784045553126
20
-6.46263219364846
30
0.0
11
-751.003917737533
21
-6.46263219364846
31
0.0
39
0.0
210
0.0
220
0.0
230
1.0
0
LINE
5
A7
330
22
100
AcDbEntity
8
0
62
2
6
ByLayer
370
-1
48
1.0
60
0
100
AcDbLine
10
-482.068583283613
20
1.41761038209551
30
0.0
11
-482.068583283613
21
-18.3353112914137
31
0.0
39
0.0
210
0.0
220
0.0
230
1.0
0
LINE
5
A8
330
22
100
AcDbEntity
8
0
62
3
6
ByLayer
370
-1
48
1.0
60
0
100
AcDbLine
10
-458.573756317655
20
10.9313435707318
30
0.0
11
-441.664604084912
21
-10.4921355279967
31
0.0
39
0.0
210
0.0
220
0.0
230
1.0
0
ARC
5
A9
330
22
100
AcDbEntity
8
0
62
3
6
ByLayer
370
-1
48
1.0
60
0
100
AcDbCircle
39
0.0
10
-396.346545553126
20
-66.8201061658456
30
0.0
40
11.8125
210
0.0
220
0.0
230
1.0
100
AcDbArc
50
0.0
51
90.0
0
LINE
5
AA
330
22
100
AcDbEntity
8
0
62
3
6
ByLayer
370
-1
48
1.0
60
0
100
AcDbLine
10
-392.753130384856
20
-23.5771448900559
30
0.0
11
-392.753130384856
21
-31.4521448900559
31
0.0
39
0.0
210
0.0
220
0.0
230
1.0
0
LINE
5
AB
330
22
100
AcDbEntity
8
0
62
3
6
ByLayer
370
-1
48
1.0
60
0
100
AcDbLine
10
-402.15133919831
20
-37.3583948900559
30
0.0
11
-402.15133919831
21
-31.4521448900559
31
0.0
39
0.0
210
0.0
220
0.0
230
1.0
0
LINE
5
AC
330
22
100
AcDbEntity
8
0
62
3
6
ByLayer
370
-1
48
1.0
60
0
100
AcDbLine
10
-384.217248669083
20
-31.4521448900559
30
0.0
11
-384.217248669083
21
-36.9654253220469
31
0.0
39
0.0
210
0.0
220
0.0
230
1.0
0
ARC
5
AD
330
22
100
AcDbEntity
8
0
62
3
6
ByLayer
370
-1
48
1.0
60
0
100
AcDbCircle
39
0.0
10
-482.971545553126
20
-11.2843988187233
30
0.0
40
11.8125
210
0.0
220
0.0
230
1.0
100
AcDbArc
50
180.0
51
270.0
0
LINE
5
AE
330
22
100
AcDbEntity
8
0
62
2
6
ByLayer
370
-1
48
1.0
60
0
100
AcDbLine
10
-474.465893841665
20
-7.69912169272538
30
0.0
11
-490.431541118
21
-7.69912169272538
31
0.0
39
0.0
210
0.0
220
0.0
230
1.0
0
LINE
5
AF
330
22
100
AcDbEntity
8
0
62
3
6
ByLayer
370
-1
48
1.0
60
0
100
AcDbLine
10
-685.159045553126
20
-73.9224601972783
30
0.0
11
-690.325993809853
21
-67.0976335741852
31
0.0
39
0.0
210
0.0
220
0.0
230
1.0
0
LWPOLYLINE
5
B0
330
22
100
AcDbEntity
8
0
62
3
6
ByLayer
370
-1
48
1.0
60
0
100
AcDbPolyline
90
3
70
0
38
0.0
39
0.0
10
-494.784045553126
20
239.900355284615
40
0.0
41
0.0
42
0.0
10
-704.598633624519
20
239.900355284615
40
0.0
41
0.0
42
0.0
10
-743.869338704488
20
206.629324922969
40
0.0
41
0.0
42
0.0
210
0.0
220
0.0
230
1.0
0
LWPOLYLINE
5
B1
330
22
100
AcDbEntity
8
0
62
3
6
ByLayer
370
-1
48
1.0
60
0
100
AcDbPolyline
90
3
70
0
38
0.0
39
0.0
10
-494.784045553126
20
199.479485353106
40
0.0
41
0.0
42
0.0
10
-704.598633624519
20
199.479485353106
40
0.0
41
0.0
42
0.0
10
-743.869338704488
20
166.20845499146
40
0.0
41
0.0
42
0.0
210
0.0
220
0.0
230
1.0
0
LWPOLYLINE
5
B2
330
22
100
AcDbEntity
8
0
62
3
6
ByLayer
370
-1
48
1.0
60
0
100
AcDbPolyline
90
3
70
0
38
0.0
39
0.0
10
-494.784045553126
20
221.037284984901
40
0.0
41
0.0
42
0.0
10
-704.598633624519
20
221.037284984901
40
0.0
41
0.0
42
0.0
10
-743.869338704488
20
187.766254623255
40
0.0
41
0.0
42
0.0
210
0.0
220
0.0
230
1.0
0
LWPOLYLINE
5
B3
330
22
100
AcDbEntity
8
0
62
3
6
ByLayer
370
-1
48
1.0
60
0
100
AcDbPolyline
90
3
70
0
38
0.0
39
0.0
10
-494.784045553126
20
169.837513645456
40
0.0
41
0.0
42
0.0
10
-704.598633624519
20
169.837513645456
40
0.0
41
0.0
42
0.0
10
-743.869338704488
20
136.56648328381
40
0.0
41
0.0
42
0.0
210
0.0
220
0.0
230
1.0
0
LWPOLYLINE
5
B4
330
22
100
AcDbEntity
8
0
62
3
6
ByLayer
370
-1
48
1.0
60
0
100
AcDbPolyline
90
3
70
0
38
0.0
39
0.0
10
-494.784045553126
20
140.195545121884
40
0.0
41
0.0
42
0.0
10
-704.598633624519
20
140.195545121884
40
0.0
41
0.0
42
0.0
10
-743.869338704488
20
106.924514760238
40
0.0
41
0.0
42
0.0
210
0.0
220
0.0
230
1.0
0
LWPOLYLINE
5
B5
330
22
100
AcDbEntity
8
0
62
3
6
ByLayer
370
-1
48
1.0
60
0
100
AcDbPolyline
90
3
70
0
38
0.0
39
0.0
10
-494.784045553126
20
95.662725716842
40
0.0
41
0.0
42
0.0
10
-704.598633624519
20
95.662725716842
40
0.0
41
0.0
42
0.0
10
-743.869338704488
20
128.933756078488
40
0.0
41
0.0
42
0.0
210
0.0
220
0.0
230
1.0
0
ARC
5
B6
330
22
100
AcDbEntity
8
0
62
3
6
ByLayer
370
-1
48
1.0
60
0
100
AcDbCircle
39
0.0
10
-356.971545553126
20
490.97709627861
30
0.0
40
64.4005816459409
210
0.0
220
0.0
230
1.0
100
AcDbArc
50
297.013825624941
51
242.986174375059
0
CIRCLE
5
B7
330
22
100
AcDbEntity
8
0
62
3
6
ByLayer
370
-1
48
1.0
60
0
100
AcDbCircle
10
-356.971545553126
20
490.97709627861
30
0.0
40
45.3096725550318
39
0.0
210
0.0
220
0.0
230
1.0
0
LWPOLYLINE
5
B8
330
22
100
AcDbEntity
8
0
62
3
6
ByLayer
370
-1
48
1.0
60
0
100
AcDbPolyline
90
4
70
0
38
0.0
39
0.0
10
17.9279316320681
20
278.757219103734
40
0.0
41
0.0
42
0.0
10
0.0
20
308.615835441811
40
0.0
41
0.0
42
0.0
10
-704.598633624519
20
308.615835441811
40
0.0
41
0.0
42
0.0
10
-743.869338704488
20
275.344805080165
40
0.0
41
0.0
42
0.0
210
0.0
220
0.0
230
1.0
0
LWPOLYLINE
5
B9
330
22
100
AcDbEntity
8
0
62
3
6
ByLayer
370
-1
48
1.0
60
0
100
AcDbPolyline
90
4
70
0
38
0.0
39
0.0
10
17.9279316320681
20
303.009741699456
40
0.0
41
0.0
42
0.0
10
0.0
20
332.868358037533
40
0.0
41
0.0
42
0.0
10
-704.598633624519
20
332.868358037533
40
0.0
41
0.0
42
0.0
10
-743.869338704488
20
299.597327675887
40
0.0
41
0.0
42
0.0
210
0.0
220
0.0
230
1.0
0
LWPOLYLINE
5
BA
330
22
100
AcDbEntity
8
0
62
3
6
ByLayer
370
-1
48
1.0
60
0
100
AcDbPolyline
90
4
70
0
38
0.0
39
0.0
10
17.9279316320681
20
328.609625777139
40
0.0
41
0.0
42
0.0
10
0.0
20
358.468242115216
40
0.0
41
0.0
42
0.0
10
-704.598633624519
20
358.468242115216
40
0.0
41
0.0
42
0.0
10
-743.869338704488
20
325.19721175357
40
0.0
41
0.0
42
0.0
210
0.0
220
0.0
230
1.0
0
LWPOLYLINE
5
BB
330
22
100
AcDbEntity
8
0
62
3
6
ByLayer
370
-1
48
1.0
60
0
100
AcDbPolyline
90
4
70
0
38
0.0
39
0.0
10
17.9279316320681
20
352.86214837286
40
0.0
41
0.0
42
0.0
10
0.0
20
382.720764710937
40
0.0
41
0.0
42
0.0
10
-704.598633624519
20
382.720764710937
40
0.0
41
0.0
42
0.0
10
-743.869338704488
20
349.449734349291
40
0.0
41
0.0
42
0.0
210
0.0
220
0.0
230
1.0
0
LWPOLYLINE
5
BC
330
22
100
AcDbEntity
8
0
62
3
6
ByLayer
370
-1
48
1.0
60
0
100
AcDbPolyline
90
4
70
0
38
0.0
39
0.0
10
17.9279316320681
20
370.377857190611
40
0.0
41
0.0
42
0.0
10
0.0
20
400.236473528688
40
0.0
41
0.0
42
0.0
10
-704.598633624519
20
400.236473528688
40
0.0
41
0.0
42
0.0
10
-743.869338704488
20
366.965443167042
40
0.0
41
0.0
42
0.0
210
0.0
220
0.0
230
1.0
0
LWPOLYLINE
5
BD
330
22
100
AcDbEntity
8
0
62
3
6
ByLayer
370
-1
48
1.0
60
0
100
AcDbPolyline
90
4
70
0
38
0.0
39
0.0
10
17.9279316320681
20
385.198843044436
40
0.0
41
0.0
42
0.0
10
0.0
20
415.057459382513
40
0.0
41
0.0
42
0.0
10
-704.598633624519
20
415.057459382513
40
0.0
41
0.0
42
0.0
10
-743.869338704488
20
381.786429020867
40
0.0
41
0.0
42
0.0
210
0.0
220
0.0
230
1.0
0
LWPOLYLINE
5
BE
330
22
100
AcDbEntity
8
0
62
3
6
ByLayer
370
-1
48
1.0
60
0
100
AcDbPolyline
90
4
70
0
38
0.0
39
0.0
10
17.9279316320681
20
397.325102750257
40
0.0
41
0.0
42
0.0
10
0.0
20
427.183719088334
40
0.0
41
0.0
42
0.0
10
-704.598633624519
20
427.183719088334
40
0.0
41
0.0
42
0.0
10
-743.869338704488
20
393.912688726688
40
0.0
41
0.0
42
0.0
210
0.0
220
0.0
230
1.0
0
LINE
5
BF
330
22
100
AcDbEntity
8
0
62
3
6
ByLayer
370
-1
48
1.0
60
0
100
AcDbLine
10
-705.132045553128
20
433.602814568307
30
0.0
11
32.1520482948363
21
433.602814568307
31
0.0
39
0.0
210
0.0
220
0.0
230
1.0
0
LINE
5
C0
330
22
100
AcDbEntity
8
0
62
3
6
ByLayer
370
-1
48
1.0
60
0
100
AcDbLine
10
-450.698756317655
20
270.124411560168
30
0.0
11
-263.244334788597
21
270.124411560168
31
0.0
39
0.0
210
0.0
220
0.0
230
1.0
0
LINE
5
C1
330
22
100
AcDbEntity
8
0
62
3
6
ByLayer
370
-1
48
1.0
60
0
100
AcDbLine
10
-482.971545553126
20
279.343281849071
30
0.0
11
-230.971545553126
21
279.343281849071
31
0.0
39
0.0
210
0.0
220
0.0
230
1.0
0
ARC
5
C2
330
22
100
AcDbEntity
8
0
62
3
6
ByLayer
370
-1
48
1.0
60
0
100
AcDbCircle
39
0.0
10
41.6865545785295
20
432.963922142371
30
0.0
40
3.9375
210
0.0
220
0.0
230
1.0
100
AcDbArc
50
90.0
51
180.0
0
ARC
5
C3
330
22
100
AcDbEntity
8
0
62
3
6
ByLayer
370
-1
48
1.0
60
0
100
AcDbCircle
39
0.0
10
52.6502632711672
20
432.963922142371
30
0.0
40
3.9375
210
0.0
220
0.0
230
1.0
100
AcDbArc
50
0.0
51
90.0
0
LINE
5
C4
330
22
100
AcDbEntity
8
0
62
3
6
ByLayer
370
-1
48
1.0
60
0
100
AcDbLine
10
55.7137761850645
20
408.54976324358
30
0.0
11
37.7490545785295
21
408.54976324358
31
0.0
39
0.0
210
0.0
220
0.0
230
1.0
0
LINE
5
C5
330
22
100
AcDbEntity
8
0
62
3
6
ByLayer
370
-1
48
1.0
60
0
100
AcDbLine
10
55.5878097366222
20
426.007600885243
30
0.0
11
37.7490545785295
21
426.007600885243
31
0.0
39
0.0
210
0.0
220
0.0
230
1.0
0
ARC
5
C6
330
22
100
AcDbEntity
8
0
62
3
6
ByLayer
370
-1
48
1.0
60
0
100
AcDbCircle
39
0.0
10
41.6865545785295
20
401.593441986452
30
0.0
40
3.9375
210
0.0
220
0.0
230
1.0
100
AcDbArc
50
180.0
51
270.0
0
LINE
5
C7
330
22
100
AcDbEntity
8
0
62
3
6
ByLayer
370
-1
48
1.0
60
0
100
AcDbLine
10
65.9630125615549
20
425.532033778772
30
0.0
11
65.9630125615549
21
409.025330350048
31
0.0
39
0.0
210
0.0
220
0.0
230
1.0
0
LINE
5
C8
330
22
100
AcDbEntity
8
0
62
3
6
ByLayer
370
-1
48
1.0
60
0
100
AcDbLine
10
56.5877632711709
20
432.963922142371
30
0.0
11
56.5877632711709
21
417.27868206441
31
0.0
39
0.0
210
0.0
220
0.0
230
1.0
0
LINE
5
C9
330
22
100
AcDbEntity
8
0
62
3
6
ByLayer
370
-1
48
1.0
60
0
100
AcDbLine
10
56.5877632711709
20
401.593441986452
30
0.0
11
56.5877632711709
21
417.27868206441
31
0.0
39
0.0
210
0.0
220
0.0
230
1.0
0
LINE
5
CA
330
22
100
AcDbEntity
8
0
62
3
6
ByLayer
370
-1
48
1.0
60
0
100
AcDbLine
10
52.6502632711672
20
436.901422142371
30
0.0
11
41.6865545785295
21
436.901422142371
31
0.0
39
0.0
210
0.0
220
0.0
230
1.0
0
LINE
5
CB
330
22
100
AcDbEntity
8
0
62
3
6
ByLayer
370
-1
48
1.0
60
0
100
AcDbLine
10
52.6502632711672
20
397.655941986452
30
0.0
11
41.6865545785295
21
397.655941986452
31
0.0
39
0.0
210
0.0
220
0.0
230
1.0
0
LINE
5
CC
330
22
100
AcDbEntity
8
0
62
3
6
ByLayer
370
-1
48
1.0
60
0
100
AcDbLine
10
63.9942625615549
20
427.500783778772
30
0.0
11
65.9630125615549
21
425.532033778772
31
0.0
39
0.0
210
0.0
220
0.0
230
1.0
0
LINE
5
CD
330
22
100
AcDbEntity
8
0
62
3
6
ByLayer
370
-1
48
1.0
60
0
100
AcDbLine
10
65.9630125615549
20
409.025330350048
30
0.0
11
63.9942625615549
21
407.056580350048
31
0.0
39
0.0
210
0.0
220
0.0
230
1.0
0
LINE
5
CE
330
22
100
AcDbEntity
8
0
62
3
6
ByLayer
370
-1
48
1.0
60
0
100
AcDbLine
10
63.9942625615549
20
407.056580350048
30
0.0
11
63.9942625615549
21
427.500783778772
31
0.0
39
0.0
210
0.0
220
0.0
230
1.0
0
LINE
5
CF
330
22
100
AcDbEntity
8
0
62
3
6
ByLayer
370
-1
48
1.0
60
0
100
AcDbLine
10
56.5877632711709
20
427.500783778772
30
0.0
11
63.9942625615549
21
427.500783778772
31
0.0
39
0.0
210
0.0
220
0.0
230
1.0
0
LINE
5
D0
330
22
100
AcDbEntity
8
0
62
3
6
ByLayer
370
-1
48
1.0
60
0
100
AcDbLine
10
56.5877632711709
20
407.056580350048
30
0.0
11
63.9942625615549
21
407.056580350048
31
0.0
39
0.0
210
0.0
220
0.0
230
1.0
0
ARC
5
D1
330
22
100
AcDbEntity
8
0
62
3
6
ByLayer
370
-1
48
1.0
60
0
100
AcDbCircle
39
0.0
10
52.6502632711672
20
401.593441986452
30
0.0
40
3.9375
210
0.0
220
0.0
230
1.0
100
AcDbArc
50
270.0
51
0.0
0
ARC
5
D2
330
22
100
AcDbEntity
8
0
62
3
6
ByLayer
370
-1
48
1.0
60
0
100
AcDbCircle
39
0.0
10
44.5016209418245
20
403.608012129902
30
0.0
40
12.2528906494789
210
0.0
220
0.0
230
1.0
100
AcDbArc
50
9.46330507472761
51
23.7854594104281
0
ARC
5
D3
330
22
100
AcDbEntity
8
0
62
3
6
ByLayer
370
-1
48
1.0
60
0
100
AcDbCircle
39
0.0
10
15.4573756909813
20
416.98866779528
30
0.0
40
41.1314100265576
210
0.0
220
0.0
230
1.0
100
AcDbArc
50
348.160587340145
51
12.7147578623754
0
ARC
5
D4
330
22
100
AcDbEntity
8
0
62
3
6
ByLayer
370
-1
48
1.0
60
0
100
AcDbCircle
39
0.0
10
45.1565348849945
20
431.093337339287
30
0.0
40
11.5832668070099
210
0.0
220
0.0
230
1.0
100
AcDbArc
50
334.143109570013
51
350.706592998846
0
LINE
5
D5
330
22
100
AcDbEntity
8
0
62
3
6
ByLayer
370
-1
48
1.0
60
0
100
AcDbLine
10
37.7490545785295
20
431.585430819135
30
0.0
11
32.1520482948363
21
431.585430819135
31
0.0
39
0.0
210
0.0
220
0.0
230
1.0
0
LINE
5
D6
330
22
100
AcDbEntity
8
0
62
3
6
ByLayer
370
-1
48
1.0
60
0
100
AcDbLine
10
32.1520482948363
20
431.585430819135
30
0.0
11
32.1520482948363
21
433.602814568307
31
0.0
39
0.0
210
0.0
220
0.0
230
1.0
0
ARC
5
D7
330
22
100
AcDbEntity
8
0
62
3
6
ByLayer
370
-1
48
1.0
60
0
100
AcDbCircle
39
0.0
10
-230.971545553126
20
267.530781849071
30
0.0
40
11.8125
210
0.0
220
0.0
230
1.0
100
AcDbArc
50
0.0
51
90.0
0
LINE
5
D8
330
22
100
AcDbEntity
8
0
62
2
6
ByLayer
370
-1
48
1.0
60
0
100
AcDbLine
10
-239.477197264587
20
265.156801813904
30
0.0
11
-223.511549988252
21
265.156801813904
31
0.0
39
0.0
210
0.0
220
0.0
230
1.0
0
ARC
5
D9
330
22
100
AcDbEntity
8
0
62
3
6
ByLayer
370
-1
48
1.0
60
0
100
AcDbCircle
39
0.0
10
-482.971545553126
20
267.530781849071
30
0.0
40
11.8125
210
0.0
220
0.0
230
1.0
100
AcDbArc
50
90.0
51
180.0
0
LINE
5
DA
330
22
100
AcDbEntity
8
0
62
2
6
ByLayer
370
-1
48
1.0
60
0
100
AcDbLine
10
-474.465893841665
20
265.156801813904
30
0.0
11
-490.431541118
21
265.156801813904
31
0.0
39
0.0
210
0.0
220
0.0
230
1.0
0
LINE
5
DB
330
22
100
AcDbEntity
8
0
62
3
6
ByLayer
370
-1
48
1.0
60
0
100
AcDbLine
10
-705.132045553128
20
433.602814568307
30
0.0
11
-751.003917737533
21
402.170117647271
31
0.0
39
0.0
210
0.0
220
0.0
230
1.0
0
ARC
5
DC
330
22
100
AcDbEntity
8
0
62
3
6
ByLayer
370
-1
48
1.0
60
0
100
AcDbCircle
39
0.0
10
-754.941417737533
20
424.923823831455
30
0.0
40
3.9375
210
0.0
220
0.0
230
1.0
100
AcDbArc
50
0.0
51
90.0
0
LINE
5
DD
330
22
100
AcDbEntity
8
0
62
3
6
ByLayer
370
-1
48
1.0
60
0
100
AcDbLine
10
-1046.97643191676
20
118.602814568307
30
0.0
11
-1046.97643191676
21
-126.930890551337
31
0.0
39
0.0
210
0.0
220
0.0
230
1.0
0
ARC
5
DE
330
22
100
AcDbEntity
8
0
62
3
6
ByLayer
370
-1
48
1.0
60
0
100
AcDbCircle
39
0.0
10
-999.285775221895
20
-168.030694694844
30
0.0
40
23.625
210
0.0
220
0.0
230
1.0
100
AcDbArc
50
180.0
51
270.0
0
ARC
5
DF
330
22
100
AcDbEntity
8
0
62
3
6
ByLayer
370
-1
48
1.0
60
0
100
AcDbCircle
39
0.0
10
-1035.16393191676
20
-126.930890551337
30
0.0
40
11.8125
210
0.0
220
0.0
230
1.0
100
AcDbArc
50
180.0
51
270.0
0
ARC
5
E0
330
22
100
AcDbEntity
8
0
62
3
6
ByLayer
370
-1
48
1.0
60
0
100
AcDbCircle
39
0.0
10
-1034.72327522189
20
-150.555890551337
30
0.0
40
11.8125
210
0.0
220
0.0
230
1.0
100
AcDbArc
50
0.0
51
90.0
0
LINE
5
E1
330
22
100
AcDbEntity
8
0
62
3
6
ByLayer
370
-1
48
1.0
60
0
100
AcDbLine
10
-1035.16393191676
20
-138.743390551337
30
0.0
11
-1034.72327522189
21
-138.743390551337
31
0.0
39
0.0
210
0.0
220
0.0
230
1.0
0
LINE
5
E2
330
22
100
AcDbEntity
8
0
62
3
6
ByLayer
370
-1
48
1.0
60
0
100
AcDbLine
10
-1022.9107752219
20
-168.030694694844
30
0.0
11
-1022.9107752219
21
-150.555890551337
31
0.0
39
0.0
210
0.0
220
0.0
230
1.0
0
LINE
5
E3
330
22
100
AcDbEntity
8
0
62
3
6
ByLayer
370
-1
48
1.0
60
0
100
AcDbLine
10
-1046.97643191676
20
118.602814568307
30
0.0
11
-1046.97643191676
21
364.136519687951
31
0.0
39
0.0
210
0.0
220
0.0
230
1.0
0
ARC
5
E4
330
22
100
AcDbEntity
8
0
62
3
6
ByLayer
370
-1
48
1.0
60
0
100
AcDbCircle
39
0.0
10
-1035.16393191676
20
364.136519687951
30
0.0
40
11.8125
210
0.0
220
0.0
230
1.0
100
AcDbArc
50
90.0
51
180.0
0
LINE
5
E5
330
22
100
AcDbEntity
8
0
62
3
6
ByLayer
370
-1
48
1.0
60
0
100
AcDbLine
10
-1022.9107752219
20
405.236323831456
30
0.0
11
-1022.9107752219
21
387.761519687951
31
0.0
39
0.0
210
0.0
220
0.0
230
1.0
0
ARC
5
E6
330
22
100
AcDbEntity
8
0
62
3
6
ByLayer
370
-1
48
1.0
60
0
100
AcDbCircle
39
0.0
10
-1034.72327522189
20
387.761519687951
30
0.0
40
11.8125
210
0.0
220
0.0
230
1.0
100
AcDbArc
50
270.0
51
0.0
0
LINE
5
E7
330
22
100
AcDbEntity
8
0
62
3
6
ByLayer
370
-1
48
1.0
60
0
100
AcDbLine
10
-1035.16393191676
20
375.949019687951
30
0.0
11
-1034.72327522189
21
375.949019687951
31
0.0
39
0.0
210
0.0
220
0.0
230
1.0
0
ARC
5
E8
330
22
100
AcDbEntity
8
0
62
3
6
ByLayer
370
-1
48
1.0
60
0
100
AcDbCircle
39
0.0
10
-999.285775221895
20
405.236323831456
30
0.0
40
23.625
210
0.0
220
0.0
230
1.0
100
AcDbArc
50
90.0
51
180.0
0
LINE
5
E9
330
22
100
AcDbEntity
8
0
62
3
6
ByLayer
370
-1
48
1.0
60
0
100
AcDbLine
10
-84.0740455531268
20
-157.022185431693
30
0.0
11
-84.0740455531268
21
-196.397185431693
31
0.0
39
0.0
210
0.0
220
0.0
230
1.0
0
LINE
5
EA
330
22
100
AcDbEntity
8
0
62
3
6
ByLayer
370
-1
48
1.0
60
0
100
AcDbLine
10
-121.874045553126
20
-157.022185431693
30
0.0
11
-121.874045553126
21
-196.397185431693
31
0.0
39
0.0
210
0.0
220
0.0
230
1.0
0
LINE
5
EB
330
22
100
AcDbEntity
8
0
62
3
6
ByLayer
370
-1
48
1.0
60
0
100
AcDbLine
10
-592.069045553126
20
-157.022185431693
30
0.0
11
-592.069045553126
21
-196.397185431693
31
0.0
39
0.0
210
0.0
220
0.0
230
1.0
0
LINE
5
EC
330
22
100
AcDbEntity
8
0
62
3
6
ByLayer
370
-1
48
1.0
60
0
100
AcDbLine
10
-629.869045553125
20
-157.022185431693
30
0.0
11
-629.869045553125
21
-196.397185431693
31
0.0
39
0.0
210
0.0
220
0.0
230
1.0
0
LINE
5
ED
330
22
100
AcDbEntity
8
0
62
3
6
ByLayer
370
-1
48
1.0
60
0
100
AcDbLine
10
283.023568083237
20
164.909496386488
30
0.0
11
283.023568083237
21
80.5715645683067
31
0.0
39
0.0
210
0.0
220
0.0
230
1.0
0
ENDBLK
5
23
330
22
100
AcDbEntity
8
0
100
AcDbBlockEnd
0
BLOCK
5
F0
330
EE
100
AcDbEntity
67
1
8
0
100
AcDbBlockBegin
2
*Paper_Space
70
0
10
0.0
20
0.0
30
0.0
3
*Paper_Space
4

0
ENDBLK
5
EF
330
EE
100
AcDbEntity
8
0
100
AcDbBlockEnd
0
ENDSEC
0
SECTION
2
ENTITIES
0
VIEWPORT
5
F2
330
EE
100
AcDbEntity
67
1
8
0
62
256
6
ByLayer
370
-1
48
1.0
60
0
100
AcDbViewport
10
0.0
20
0.0
30
0.0
40
297.0
41
210.0
68
1
69
1
12
50.0
22
100.0
13
0.0
23
0.0
14
10.0
24
10.0
15
10.0
25
10.0
16
0.0
26
0.0
36
1.0
17
0.0
27
0.0
37
0.0
42
50.0
43
0.0
44
0.0
45
250.0
50
0.0
51
0.0
72
1000
90
819232
110
0.0
120
0.0
130
0.0
111
1.0
121
0.0
131
0.0
112
0.0
122
1.0
132
0.0
0
ENDSEC
0
SECTION
2
OBJECTS
0
DICTIONARY
5
F7
330
0
100
AcDbDictionary
280
1
281
1
3
ACAD_GROUP
350
12
3
ACAD_LAYOUT
350
F1
3
ACAD_DGNDEFINITIONS
350
F
3
ACAD_DWFDEFINITIONS
350
10
3
ACAD_PDFDEFINITIONS
350
11
3
ACAD_MLINESTYLE
350
B
3
ACAD_IMAGE_DICT
350
E
3
ACAD_IMAGE_VARS
350
21
0
DICTIONARY
5
12
330
F7
100
AcDbDictionary
280
1
281
1
0
DICTIONARY
5
F1
330
F7
100
AcDbDictionary
280
1
281
1
3
Model
350
20
3
Layout1
350
F3
0
DICTIONARY
5
F
330
F7
100
AcDbDictionary
280
1
281
1
0
DICTIONARY
5
10
330
F7
100
AcDbDictionary
280
1
281
1
0
DICTIONARY
5
11
330
F7
100
AcDbDictionary
280
1
281
1
0
DICTIONARY
5
B
330
F7
100
AcDbDictionary
280
1
281
1
3
Standard
350
1B
0
DICTIONARY
5
E
330
F7
100
AcDbDictionary
280
1
281
1
0
DICTIONARY
5
6
330
5
100
AcDbDictionary
280
1
281
1
3
ACAD_LAYERSTATES
360
F8
0
DICTIONARY
5
F8
330
6
100
AcDbDictionary
280
1
281
1
0
LAYOUT
5
20
330
F1
100
AcDbPlotSettings
1

2
none_device
4
ISO_A4_(210.00_x_297.00_MM)
6

40
7.5
41
20.0
42
7.5
43
20.0
44
210.0
45
297.0
46
0.0
47
0.0
48
0.0
49
0.0
140
0.0
141
0.0
142
1.0
143
1.0
70
11952
72
1
73
1
74
1
7

75
0
76
0
77
2
78
300
147
1.0
148
0.0
149
0.0
100
AcDbLayout
1
Model
71
0
10
-20.0
20
-7.5
11
277.0
21
202.5
12
0.0
22
0.0
32
0.0
14
25.7
24
19.5
34
0.0
15
231.3
25
175.5
35
0.0
146
0.0
13
0.0
23
0.0
33
0.0
16
1.0
26
0.0
36
0.0
17
0.0
27
1.0
37
0.0
76
0
330
1C
0
LAYOUT
5
F3
330
F1
100
AcDbPlotSettings
1

2
none_device
4
ISO_A4_(210.00_x_297.00_MM)
6

40
7.5
41
20.0
42
7.5
43
20.0
44
210.0
45
297.0
46
0.0
47
0.0
48
0.0
49
0.0
140
0.0
141
0.0
142
1.0
143
1.0
70
688
72
1
73
1
74
1
7

75
0
76
0
77
2
78
300
147
1.0
148
0.0
149
0.0
100
AcDbLayout
1
Layout1
71
1
10
-20.0
20
-7.5
11
277.0
21
202.5
12
0.0
22
0.0
32
0.0
14
25.7
24
19.5
34
0.0
15
231.3
25
175.5
35
0.0
146
0.0
13
0.0
23
0.0
33
0.0
16
1.0
26
0.0
36
0.0
17
0.0
27
1.0
37
0.0
76
0
330
EE
0
MLINESTYLE
5
1B
330
B
100
AcDbMlineStyle
2
Standard
70
0
3

62
256
51
90.0
52
90.0
71
2
49
0.5
62
256
6
ByLayer
49
-0.5
62
256
6
ByLayer
0
RASTERVARIABLES
5
21
330
E
100
AcDbRasterVariables
90
0
70
1
71
1
72
0
0
ENDSEC
0
EOF
