999
DXF file generated by netDxf https://github.com/haplokuon/netDxf, Copyright(C) 2009-2020 Daniel Carvajal, Licensed under LGPL
0
SECTION
2
HEADER
9
$ACADVER
1
AC1015
9
$DWGCODEPAGE
3
ANSI_1252
9
$HANDSEED
5
70
9
$ANGBASE
50
0.0
9
$ANGDIR
70
0
9
$ATTMODE
70
1
9
$AUNITS
70
0
9
$AUPREC
70
0
9
$CECOLOR
62
256
9
$CELTSCALE
40
1.0
9
$CELTYPE
6
ByLayer
9
$CELWEIGHT
370
-1
9
$CLAYER
8
0
9
$CMLJUST
70
0
9
$CMLSCALE
40
20.0
9
$CMLSTYLE
2
Standard
9
$DIMSTYLE
2
Standard
9
$TEXTSIZE
40
2.5
9
$TEXTSTYLE
7
Standard
9
$LUNITS
70
2
9
$LUPREC
70
4
9
$MIRRTEXT
70
0
9
$EXTNAMES
290
1
9
$INSBASE
10
0.0
20
0.0
30
0.0
9
$INSUNITS
70
0
9
$LTSCALE
40
1.0
9
$LWDISPLAY
290
0
9
$PDMODE
70
0
9
$PDSIZE
40
0.0
9
$PLINEGEN
70
0
9
$PSLTSCALE
70
1
9
$TDCREATE
40
2459821.45292057
9
$TDUCREATE
40
2459821.11958723
9
$TDUPDATE
40
2459821.45292057
9
$TDUUPDATE
40
2459821.11958723
9
$TDINDWG
40
0.0
9
$UCSORG
10
0.0
20
0.0
30
0.0
9
$UCSXDIR
10
1.0
20
0.0
30
0.0
9
$UCSYDIR
10
0.0
20
1.0
30
0.0
9
$DIMADEC
70
0
9
$DIMALT
70
0
9
$DIMALTD
70
2
9
$DIMALTF
40
25.4
9
$DIMALTRND
40
0.0
9
$DIMALTTD
70
2
9
$DIMALTTZ
70
0
9
$DIMALTU
70
2
9
$DIMALTZ
70
0
9
$DIMAPOST
1

9
$DIMATFIT
70
3
9
$DIMAUNIT
70
0
9
$DIMASZ
40
0.18
9
$DIMAZIN
70
0
9
$DIMSAH
70
0
9
$DIMBLK
1

9
$DIMLDRBLK
1

9
$DIMCEN
40
0.09
9
$DIMCLRD
70
0
9
$DIMCLRE
70
0
9
$DIMCLRT
70
0
9
$DIMDEC
70
4
9
$DIMDLE
40
0.0
9
$DIMDLI
40
0.38
9
$DIMDSEP
70
46
9
$DIMEXE
40
0.18
9
$DIMEXO
40
0.0625
9
$DIMFXLON
70
0
9
$DIMFXL
40
1.0
9
$DIMGAP
40
0.09
9
$DIMJUST
70
0
9
$DIMLFAC
40
1.0
9
$DIMLUNIT
70
2
9
$DIMLWD
70
-2
9
$DIMLWE
70
-2
9
$DIMPOST
1

9
$DIMRND
40
0.0
9
$DIMSCALE
40
1.0
9
$DIMSD1
70
0
9
$DIMSD2
70
0
9
$DIMSE1
70
0
9
$DIMSE2
70
0
9
$DIMSOXD
70
0
9
$DIMTAD
70
0
9
$DIMTDEC
70
4
9
$DIMTFAC
40
1.0
9
$DIMTIH
70
0
9
$DIMTIX
70
0
9
$DIMTM
40
0.0
9
$DIMTMOVE
70
0
9
$DIMTOFL
70
0
9
$DIMTOH
70
0
9
$DIMTOL
70
0
9
$DIMLIM
70
0
9
$DIMTOLJ
70
1
9
$DIMTP
40
0.0
9
$DIMTXT
40
0.18
9
$DIMTXTDIRECTION
70
0
9
$DIMTZIN
70
0
9
$DIMZIN
70
0
9
$DIMFRAC
70
0
9
$DIMLTYPE
6
ByBlock
9
$DIMLTEX1
6
ByBlock
9
$DIMLTEX2
6
ByBlock
0
ENDSEC
0
SECTION
2
CLASSES
0
CLASS
1
RASTERVARIABLES
2
AcDbRasterVariables
3
ISM
90
0
280
0
281
0
0
ENDSEC
0
SECTION
2
TABLES
0
TABLE
2
APPID
5
4
330
0
100
AcDbSymbolTable
70
6
0
APPID
5
19
330
4
100
AcDbSymbolTableRecord
100
AcDbRegAppTableRecord
2
ACAD
70
0
0
APPID
5
27
330
4
100
AcDbSymbolTableRecord
100
AcDbRegAppTableRecord
2
AcAecLayerStandard
70
0
0
APPID
5
2B
330
4
100
AcDbSymbolTableRecord
100
AcDbRegAppTableRecord
2
RAK
70
0
0
APPID
5
6B
330
4
100
AcDbSymbolTableRecord
100
AcDbRegAppTableRecord
2
AcCmTransparency
70
0
0
APPID
5
6C
330
4
100
AcDbSymbolTableRecord
100
AcDbRegAppTableRecord
2
GradientColor1ACI
70
0
0
APPID
5
6D
330
4
100
AcDbSymbolTableRecord
100
AcDbRegAppTableRecord
2
GradientColor2ACI
70
0
0
ENDTAB
0
TABLE
2
VPORT
5
1
330
0
100
AcDbSymbolTable
70
1
0
VPORT
5
2
330
1
100
AcDbSymbolTableRecord
100
AcDbViewportTableRecord
2
*Active
70
0
10
0.0
20
0.0
11
1.0
21
1.0
12
0.0
22
0.0
13
0.0
23
0.0
14
0.5
24
0.5
15
10.0
25
10.0
16
0.0
26
0.0
36
1.0
17
0.0
27
0.0
37
0.0
40
10.0
41
1.0
75
0
76
1
0
ENDTAB
0
TABLE
2
LTYPE
5
7
330
0
100
AcDbSymbolTable
70
7
0
LTYPE
5
15
330
7
100
AcDbSymbolTableRecord
100
AcDbLinetypeTableRecord
2
Continuous
70
0
3
Solid line
72
65
73
0
40
0.0
0
LTYPE
5
16
330
7
100
AcDbSymbolTableRecord
100
AcDbLinetypeTableRecord
2
ByLayer
70
0
3

72
65
73
0
40
0.0
0
LTYPE
5
17
330
7
100
AcDbSymbolTableRecord
100
AcDbLinetypeTableRecord
2
ByBlock
70
0
3

72
65
73
0
40
0.0
0
LTYPE
5
2A
330
7
100
AcDbSymbolTableRecord
100
AcDbLinetypeTableRecord
2
AM_DIN_G_W050
70
0
3
____ . ____ . ____ . ____ . ____ . ____ . ____
72
65
73
4
40
13.75
49
9.75
74
0
49
-1.5
74
0
49
1.0
74
0
49
-1.5
74
0
0
LTYPE
5
2C
330
7
100
AcDbSymbolTableRecord
100
AcDbLinetypeTableRecord
2
AM_ISO08W050x2
70
0
3
Unkown
72
65
73
4
40
16.0
49
13.0
74
0
49
-1.0
74
0
49
1.0
74
0
49
-1.0
74
0
0
LTYPE
5
59
330
7
100
AcDbSymbolTableRecord
100
AcDbLinetypeTableRecord
2
\U+865A\U+7EBF
70
0
3
\U+865A\U+7EBF: __ __ __ __ __ __ __ __ __ __ __ __ __
72
65
73
2
40
2.0
49
1.0
74
0
49
-1.0
74
0
0
LTYPE
5
5A
330
7
100
AcDbSymbolTableRecord
100
AcDbLinetypeTableRecord
2
AM_ISO02W050x2
70
0
3
Unkown
72
65
73
2
40
2.0
49
1.0
74
0
49
-1.0
74
0
0
ENDTAB
0
TABLE
2
LAYER
5
5
102
{ACAD_XDICTIONARY
360
6
102
}
330
0
100
AcDbSymbolTable
70
6
0
LAYER
5
14
330
5
100
AcDbSymbolTableRecord
100
AcDbLayerTableRecord
2
0
70
0
62
7
6
Continuous
290
1
370
-3
390
0
0
LAYER
5
26
330
5
100
AcDbSymbolTableRecord
100
AcDbLayerTableRecord
2
\U+7C97\U+5B9E\U+7EBF\U+5C42
70
0
62
7
6
Continuous
290
1
370
35
390
0
1001
AcAecLayerStandard
1000

1000
\U+7C97\U+5B9E\U+7EBF\U+5C42
0
LAYER
5
29
330
5
100
AcDbSymbolTableRecord
100
AcDbLayerTableRecord
2
AM_7
70
0
62
4
6
AM_DIN_G_W050
290
1
370
25
390
0
1001
RAK
1000
{ACET-LAYISO
1070
0
1070
4
1000
AM_DIN_G_W050
1071
25
1071
1
1005
1D4F
1000
ACET-LAYISO}
0
LAYER
5
3E
330
5
100
AcDbSymbolTableRecord
100
AcDbLayerTableRecord
2
AM_0N
70
0
62
7
6
Continuous
290
1
370
50
390
0
1001
AcAecLayerStandard
1000

1000

0
LAYER
5
48
330
5
100
AcDbSymbolTableRecord
100
AcDbLayerTableRecord
2
AUDIT_I_160331172250-1
70
0
62
7
6
Continuous
290
1
370
18
390
0
1001
AcAecLayerStandard
1000

1000

0
LAYER
5
58
330
5
100
AcDbSymbolTableRecord
100
AcDbLayerTableRecord
2
\U+865A\U+7EBF\U+5C42
70
0
62
6
6
\U+865A\U+7EBF
290
1
370
25
390
0
1001
AcAecLayerStandard
1000

1000
\U+865A\U+7EBF\U+5C42
0
ENDTAB
0
TABLE
2
STYLE
5
8
330
0
100
AcDbSymbolTable
70
1
0
STYLE
5
18
330
8
100
AcDbSymbolTableRecord
100
AcDbTextStyleTableRecord
2
Standard
3
simplex.shx
70
0
71
0
40
0.0
41
1.0
42
0.0
50
0.0
0
ENDTAB
0
TABLE
2
DIMSTYLE
5
A
330
0
100
AcDbSymbolTable
70
1
100
AcDbDimStyleTable
0
DIMSTYLE
105
1A
330
A
100
AcDbSymbolTableRecord
100
AcDbDimStyleTableRecord
2
Standard
3

4

40
1.0
41
0.18
42
0.0625
43
0.38
44
0.18
45
0.0
46
0.0
47
0.0
48
0.0
49
1.0
70
0
71
0
72
0
73
0
74
0
75
0
76
0
77
0
78
0
79
0
140
0.18
141
0.09
143
25.4
144
1.0
146
1.0
147
0.09
148
0.0
170
0
171
2
172
0
174
0
175
0
176
0
177
0
178
0
179
0
271
4
272
4
273
2
274
2
275
0
276
0
277
2
278
46
279
0
280
0
281
0
282
0
283
1
284
0
285
0
286
0
289
3
290
0
294
0
340
18
173
0
345
17
346
17
347
17
371
-2
372
-2
0
ENDTAB
0
TABLE
2
VIEW
5
3
330
0
100
AcDbSymbolTable
70
0
0
ENDTAB
0
TABLE
2
UCS
5
C
330
0
100
AcDbSymbolTable
70
0
0
ENDTAB
0
TABLE
2
BLOCK_RECORD
5
D
330
0
100
AcDbSymbolTable
70
3
0
BLOCK_RECORD
5
1C
330
D
100
AcDbSymbolTableRecord
100
AcDbBlockTableRecord
2
*Model_Space
340
20
0
BLOCK_RECORD
5
22
330
D
100
AcDbSymbolTableRecord
100
AcDbBlockTableRecord
2
BLOCK1910071993
340
0
70
0
280
1
281
0
1001
ACAD
1000
DesignCenter Data
1002
{
1070
1
1070
0
1002
}
0
BLOCK_RECORD
5
65
330
D
100
AcDbSymbolTableRecord
100
AcDbBlockTableRecord
2
*Paper_Space
340
6A
0
ENDTAB
0
ENDSEC
0
SECTION
2
BLOCKS
0
BLOCK
5
1E
330
1C
100
AcDbEntity
67
0
8
0
100
AcDbBlockBegin
2
*Model_Space
70
0
10
0.0
20
0.0
30
0.0
3
*Model_Space
4

0
ENDBLK
5
1D
330
1C
100
AcDbEntity
8
0
100
AcDbBlockEnd
0
BLOCK
5
24
330
22
100
AcDbEntity
8
0
100
AcDbBlockBegin
2
BLOCK1910071993
70
0
10
0.0
20
0.0
30
0.0
3
BLOCK1910071993
4

0
LINE
5
25
330
22
100
AcDbEntity
8
\U+7C97\U+5B9E\U+7EBF\U+5C42
62
256
6
ByLayer
370
-1
48
1.0
60
0
100
AcDbLine
10
-442.075343564487
20
-3544.72173787891
30
0.0
11
-736.421885372174
21
-2694.2159393532
31
0.0
39
0.0
210
0.0
220
0.0
230
1.0
0
LINE
5
28
330
22
100
AcDbEntity
8
AM_7
62
1
6
AM_ISO08W050x2
370
-1
48
1.0
60
0
100
AcDbLine
10
480.000000234262
20
-2571.0000000339
30
0.0
11
480.000000234257
21
-2609.00000003392
31
0.0
39
0.0
210
0.0
220
0.0
230
1.0
0
LINE
5
2D
330
22
100
AcDbEntity
8
\U+7C97\U+5B9E\U+7EBF\U+5C42
62
256
6
ByLayer
370
-1
48
1.0
60
0
100
AcDbLine
10
-264.126656188589
20
-3536.04621707578
30
0.0
11
-591.17836930826
21
-2591.03977426944
31
0.0
39
0.0
210
0.0
220
0.0
230
1.0
0
LINE
5
2E
330
22
100
AcDbEntity
8
\U+7C97\U+5B9E\U+7EBF\U+5C42
62
256
6
ByLayer
370
-1
48
1.0
60
0
100
AcDbLine
10
500.000000234261
20
-2581.0000000339
30
0.0
11
-499.999999765738
21
-2581.00000003389
31
0.0
39
0.0
210
0.0
220
0.0
230
1.0
0
LINE
5
2F
330
22
100
AcDbEntity
8
\U+7C97\U+5B9E\U+7EBF\U+5C42
62
256
6
ByLayer
370
-1
48
1.0
60
0
100
AcDbLine
10
500.000000234259
20
-2590.0000000339
30
0.0
11
-499.99999976574
21
-2590.00000003389
31
0.0
39
0.0
210
0.0
220
0.0
230
1.0
0
LINE
5
30
330
22
100
AcDbEntity
8
AM_7
62
1
6
AM_ISO08W050x2
370
-1
48
1.0
60
0
100
AcDbLine
10
-479.999999765765
20
-2571.00000003387
30
0.0
11
-479.99999976577
21
-2609.0000000339
31
0.0
39
0.0
210
0.0
220
0.0
230
1.0
0
LINE
5
31
330
22
100
AcDbEntity
8
AM_7
62
1
6
AM_ISO08W050x2
370
-1
48
1.0
60
0
100
AcDbLine
10
-792.026068367772
20
-2925.09843223584
30
0.0
11
-671.011542748243
21
-2883.21722791444
31
0.0
39
0.0
210
0.0
220
0.0
230
1.0
0
LINE
5
32
330
22
100
AcDbEntity
8
\U+7C97\U+5B9E\U+7EBF\U+5C42
62
256
6
ByLayer
370
-1
48
1.0
60
0
100
AcDbLine
10
-762.241669897712
20
-2925.37246365447
30
0.0
11
-667.741025617048
21
-2892.6672923425
31
0.0
39
0.0
210
0.0
220
0.0
230
1.0
0
LINE
5
33
330
22
100
AcDbEntity
8
\U+7C97\U+5B9E\U+7EBF\U+5C42
62
256
6
ByLayer
370
-1
48
1.0
60
0
100
AcDbLine
10
-768.782704160076
20
-2906.47233479833
30
0.0
11
-674.282059879439
21
-2873.76716348638
31
0.0
39
0.0
210
0.0
220
0.0
230
1.0
0
ARC
5
34
330
22
100
AcDbEntity
8
\U+7C97\U+5B9E\U+7EBF\U+5C42
62
256
6
ByLayer
370
-1
48
1.0
60
0
100
AcDbCircle
39
0.0
10
-765.512187028908
20
-2915.92239922641
30
0.0
40
10.0000000000002
210
0.0
220
0.0
230
1.0
100
AcDbArc
50
109.089923837824
51
289.089923837816
0
LINE
5
35
330
22
100
AcDbEntity
8
AM_7
62
1
6
ByLayer
370
-1
48
1.0
60
0
100
AcDbLine
10
-774.255769889531
20
-2890.65807005438
30
0.0
11
-756.768604168223
21
-2941.18672839844
31
0.0
39
0.0
210
0.0
220
0.0
230
1.0
0
ARC
5
36
330
22
100
AcDbEntity
8
\U+7C97\U+5B9E\U+7EBF\U+5C42
62
256
6
ByLayer
370
-1
48
1.0
60
0
100
AcDbCircle
39
0.0
10
-765.512187028908
20
-2915.92239922641
30
0.0
40
9.99999999999989
210
0.0
220
0.0
230
1.0
100
AcDbArc
50
289.089923837818
51
109.089923837825
0
LINE
5
37
330
22
100
AcDbEntity
8
AM_7
62
1
6
AM_ISO08W050x2
370
-1
48
1.0
60
0
100
AcDbLine
10
-628.500211807845
20
-3397.60165363901
30
0.0
11
-507.485686188316
21
-3355.72044931761
31
0.0
39
0.0
210
0.0
220
0.0
230
1.0
0
LINE
5
38
330
22
100
AcDbEntity
8
\U+7C97\U+5B9E\U+7EBF\U+5C42
62
256
6
ByLayer
370
-1
48
1.0
60
0
100
AcDbLine
10
-605.256847600149
20
-3378.9755562015
30
0.0
11
-510.756203319512
21
-3346.27038488954
31
0.0
39
0.0
210
0.0
220
0.0
230
1.0
0
LINE
5
39
330
22
100
AcDbEntity
8
\U+7C97\U+5B9E\U+7EBF\U+5C42
62
256
6
ByLayer
370
-1
48
1.0
60
0
100
AcDbLine
10
-598.715813337758
20
-3397.87568505763
30
0.0
11
-504.215169057121
21
-3365.17051374567
31
0.0
39
0.0
210
0.0
220
0.0
230
1.0
0
ARC
5
3A
330
22
100
AcDbEntity
8
\U+7C97\U+5B9E\U+7EBF\U+5C42
62
256
6
ByLayer
370
-1
48
1.0
60
0
100
AcDbCircle
39
0.0
10
-601.986330468953
20
-3388.42562062956
30
0.0
40
10.0000000000001
210
0.0
220
0.0
230
1.0
100
AcDbArc
50
109.089923837821
51
289.08992383782
0
LINE
5
3B
330
22
100
AcDbEntity
8
AM_7
62
1
6
ByLayer
370
-1
48
1.0
60
0
100
AcDbLine
10
-593.242747608296
20
-3413.68994980161
30
0.0
11
-610.729913329604
21
-3363.16129145755
31
0.0
39
0.0
210
0.0
220
0.0
230
1.0
0
ARC
5
3C
330
22
100
AcDbEntity
8
\U+7C97\U+5B9E\U+7EBF\U+5C42
62
256
6
ByLayer
370
-1
48
1.0
60
0
100
AcDbCircle
39
0.0
10
-601.986330468953
20
-3388.42562062956
30
0.0
40
10.0000000000001
210
0.0
220
0.0
230
1.0
100
AcDbArc
50
289.089923837824
51
109.089923837818
0
LINE
5
3D
330
22
100
AcDbEntity
8
AM_0N
62
256
6
ByLayer
370
-1
48
1.0
60
0
100
AcDbLine
10
-538.943292543601
20
-2543.0782188993
30
0.0
11
-529.011601824766
21
-2536.1239741908
31
0.0
39
0.0
210
0.0
220
0.0
230
1.0
0
LINE
5
3F
330
22
100
AcDbEntity
8
AM_0N
62
256
6
ByLayer
370
-1
48
1.0
60
0
100
AcDbLine
10
-549.93169048471
20
-2537.95424478854
30
0.0
11
-538.943292543601
21
-2543.0782188993
31
0.0
39
0.0
210
0.0
220
0.0
230
1.0
0
LINE
5
40
330
22
100
AcDbEntity
8
AM_0N
62
256
6
ByLayer
370
-1
48
1.0
60
0
100
AcDbLine
10
-550.988397706985
20
-2525.87602596926
30
0.0
11
-549.93169048471
21
-2537.95424478854
31
0.0
39
0.0
210
0.0
220
0.0
230
1.0
0
LINE
5
41
330
22
100
AcDbEntity
8
AM_0N
62
256
6
ByLayer
370
-1
48
1.0
60
0
100
AcDbLine
10
-541.05670698818
20
-2518.92178126076
30
0.0
11
-550.988397706985
21
-2525.87602596926
31
0.0
39
0.0
210
0.0
220
0.0
230
1.0
0
LINE
5
42
330
22
100
AcDbEntity
8
AM_0N
62
256
6
ByLayer
370
-1
48
1.0
60
0
100
AcDbLine
10
-530.06830904707
20
-2524.04575537152
30
0.0
11
-541.05670698818
21
-2518.92178126076
31
0.0
39
0.0
210
0.0
220
0.0
230
1.0
0
LINE
5
43
330
22
100
AcDbEntity
8
AM_0N
62
256
6
ByLayer
370
-1
48
1.0
60
0
100
AcDbLine
10
-529.011601824766
20
-2536.1239741908
30
0.0
11
-530.06830904707
21
-2524.04575537152
31
0.0
39
0.0
210
0.0
220
0.0
230
1.0
0
CIRCLE
5
44
330
22
100
AcDbEntity
8
AM_0N
62
256
6
ByLayer
370
-1
48
1.0
60
0
100
AcDbCircle
10
-539.999999765876
20
-2531.00000008002
30
0.0
40
10.5
39
0.0
210
0.0
220
0.0
230
1.0
0
LWPOLYLINE
5
45
330
22
100
AcDbEntity
8
\U+7C97\U+5B9E\U+7EBF\U+5C42
62
256
6
ByLayer
370
-1
48
1.0
60
0
100
AcDbPolyline
90
10
70
1
38
0.0
39
0.0
10
-492.388190660027
20
-2546.26812483936
40
0.0
41
0.0
42
0.0
10
-594.448886483067
20
-2581.58970985641
40
0.0
41
0.0
42
0.0
10
-578.096300827034
20
-2628.84003199671
40
0.0
41
0.0
42
0.0
10
-584.275848123901
20
-2641.56061355597
40
0.0
41
0.0
42
0.0
10
-669.326427976437
20
-2670.99526773684
40
0.0
41
0.0
42
0.0
10
-670.689984255345
20
-2551.71954734224
40
0.0
41
0.0
42
-0.322822806055428
10
-663.96115477205
20
-2542.15517069863
40
0.0
41
0.0
42
0.0
10
-512.011293447282
20
-2489.56773827101
40
0.0
41
0.0
42
-0.414213562373095
10
-499.290711887996
20
-2495.74728556787
40
0.0
41
0.0
42
0.0
10
-486.208643363187
20
-2533.54754328011
40
0.0
41
0.0
42
-0.414213562373095
210
0.0
220
0.0
230
1.0
0
LWPOLYLINE
5
46
330
22
100
AcDbEntity
8
\U+7C97\U+5B9E\U+7EBF\U+5C42
62
256
6
ByLayer
370
-1
48
1.0
60
0
100
AcDbPolyline
90
7
70
1
38
0.0
39
0.0
10
-559.999999765825
20
-2581.00000008007
40
0.0
41
0.0
42
-0.414213562373095
10
-569.999999765823
20
-2571.00000008007
40
0.0
41
0.0
42
0.0
10
-569.999999765928
20
-2491.00000008007
40
0.0
41
0.0
42
-0.414213562373095
10
-559.999999765926
20
-2481.00000008007
40
0.0
41
0.0
42
0.0
10
-449.999999765926
20
-2481.00000007994
40
0.0
41
0.0
42
0.0
10
-449.999999765823
20
-2571.00000007994
40
0.0
41
0.0
42
0.0
10
-459.999999765825
20
-2581.00000007994
40
0.0
41
0.0
42
0.0
210
0.0
220
0.0
230
1.0
0
LINE
5
47
330
22
100
AcDbEntity
8
AUDIT_I_160331172250-1
62
7
6
ByLayer
370
-1
48
1.0
60
0
100
AcDbLine
10
-531.999999765849
20
-2551.00000008002
30
0.0
11
-531.999999765902
21
-2511.00000008002
31
0.0
39
0.0
210
0.0
220
0.0
230
1.0
0
LINE
5
49
330
22
100
AcDbEntity
8
AUDIT_I_160331172250-1
62
7
6
ByLayer
370
-1
48
1.0
60
0
100
AcDbLine
10
-547.999999765849
20
-2551.00000008004
30
0.0
11
-547.999999765902
21
-2511.00000008004
31
0.0
39
0.0
210
0.0
220
0.0
230
1.0
0
ARC
5
4A
330
22
100
AcDbEntity
8
AUDIT_I_160331172250-1
62
256
6
ByLayer
370
-1
48
1.0
60
0
100
AcDbCircle
39
0.0
10
-539.999999765849
20
-2551.00000008002
30
0.0
40
8.0
210
0.0
220
0.0
230
1.0
100
AcDbArc
50
180.000000000003
51
359.99999999999
0
ARC
5
4B
330
22
100
AcDbEntity
8
AUDIT_I_160331172250-1
62
256
6
ByLayer
370
-1
48
1.0
60
0
100
AcDbCircle
39
0.0
10
-539.999999765902
20
-2511.00000008002
30
0.0
40
8.0
210
0.0
220
0.0
230
1.0
100
AcDbArc
50
0.0000000000032569
51
179.99999999999
0
LINE
5
4C
330
22
100
AcDbEntity
8
AUDIT_I_160331172250-1
62
7
6
ByLayer
370
-1
48
1.0
60
0
100
AcDbLine
10
-524.999999765874
20
-2523.00000008002
30
0.0
11
-554.999999765874
21
-2523.00000008004
31
0.0
39
0.0
210
0.0
220
0.0
230
1.0
0
LINE
5
4D
330
22
100
AcDbEntity
8
AUDIT_I_160331172250-1
62
7
6
ByLayer
370
-1
48
1.0
60
0
100
AcDbLine
10
-524.999999765877
20
-2539.00000008002
30
0.0
11
-554.999999765877
21
-2539.00000008004
31
0.0
39
0.0
210
0.0
220
0.0
230
1.0
0
ARC
5
4E
330
22
100
AcDbEntity
8
AUDIT_I_160331172250-1
62
256
6
ByLayer
370
-1
48
1.0
60
0
100
AcDbCircle
39
0.0
10
-554.999999765876
20
-2531.00000008004
30
0.0
40
8.0
210
0.0
220
0.0
230
1.0
100
AcDbArc
50
90.0
51
270.0
0
ARC
5
4F
330
22
100
AcDbEntity
8
AUDIT_I_160331172250-1
62
256
6
ByLayer
370
-1
48
1.0
60
0
100
AcDbCircle
39
0.0
10
-524.999999765876
20
-2531.00000008002
30
0.0
40
8.0
210
0.0
220
0.0
230
1.0
100
AcDbArc
50
269.999999999993
51
89.9999999999927
0
LINE
5
50
330
22
100
AcDbEntity
8
AM_7
62
1
6
AM_ISO08W050x2
370
-1
48
1.0
60
0
100
AcDbLine
10
-554.999999765849
20
-2548.00000008004
30
0.0
11
-554.999999765902
21
-2514.00000008004
31
0.0
39
0.0
210
0.0
220
0.0
230
1.0
0
LINE
5
51
330
22
100
AcDbEntity
8
AM_7
62
1
6
AM_ISO08W050x2
370
-1
48
1.0
60
0
100
AcDbLine
10
-524.999999765849
20
-2548.00000008002
30
0.0
11
-524.999999765902
21
-2511.00336323761
31
0.0
39
0.0
210
0.0
220
0.0
230
1.0
0
LINE
5
52
330
22
100
AcDbEntity
8
AM_7
62
1
6
AM_ISO08W050x2
370
-1
48
1.0
60
0
100
AcDbLine
10
-507.999999765876
20
-2531.00000007999
30
0.0
11
-571.999999765876
21
-2531.00000008007
31
0.0
39
0.0
210
0.0
220
0.0
230
1.0
0
LINE
5
53
330
22
100
AcDbEntity
8
AM_7
62
1
6
ByLayer
370
-1
48
1.0
60
0
100
AcDbLine
10
-539.999999765929
20
-2497.00000008002
30
0.0
11
-539.999999765851
21
-2565.00000008002
31
0.0
39
0.0
210
0.0
220
0.0
230
1.0
0
LINE
5
54
330
22
100
AcDbEntity
8
AM_7
62
1
6
AM_ISO08W050x2
370
-1
48
1.0
60
0
100
AcDbLine
10
-525.999999765849
20
-2551.00000008002
30
0.0
11
-553.999999765849
21
-2551.00000008004
31
0.0
39
0.0
210
0.0
220
0.0
230
1.0
0
LINE
5
55
330
22
100
AcDbEntity
8
AM_7
62
1
6
AM_ISO08W050x2
370
-1
48
1.0
60
0
100
AcDbLine
10
-525.999999765902
20
-2511.00000008002
30
0.0
11
-553.999999765902
21
-2511.00000008004
31
0.0
39
0.0
210
0.0
220
0.0
230
1.0
0
ARC
5
56
330
22
100
AcDbEntity
8
\U+7C97\U+5B9E\U+7EBF\U+5C42
62
256
6
ByLayer
370
-1
48
1.0
60
0
100
AcDbCircle
39
0.0
10
0.0
20
0.0
30
0.0
40
2400.0
210
0.0
220
0.0
230
1.0
100
AcDbArc
50
259.193077122323
51
280.806922865581
0
LINE
5
57
330
22
100
AcDbEntity
8
\U+865A\U+7EBF\U+5C42
62
256
6
AM_ISO02W050x2
370
-1
48
1.0
60
0
100
AcDbLine
10
-249.99999960342
20
-2386.94365249564
30
0.0
11
-249.999999765769
21
-2590.0000000339
31
0.0
39
0.0
210
0.0
220
0.0
230
1.0
0
LINE
5
5B
330
22
100
AcDbEntity
8
\U+865A\U+7EBF\U+5C42
62
256
6
AM_ISO02W050x2
370
-1
48
1.0
60
0
100
AcDbLine
10
250.000000578919
20
-2386.94365238894
30
0.0
11
250.000000234259
21
-2590.00000003392
31
0.0
39
0.0
210
0.0
220
0.0
230
1.0
0
LINE
5
5C
330
22
100
AcDbEntity
8
\U+7C97\U+5B9E\U+7EBF\U+5C42
62
256
6
ByLayer
370
-1
48
1.0
60
0
100
AcDbLine
10
449.99999961817
20
-2357.43504689797
30
0.0
11
449.999999952006
21
-2581.0000000339
31
0.0
39
0.0
210
0.0
220
0.0
230
1.0
0
LINE
5
5D
330
22
100
AcDbEntity
8
\U+7C97\U+5B9E\U+7EBF\U+5C42
62
256
6
ByLayer
370
-1
48
1.0
60
0
100
AcDbLine
10
-280.479241928093
20
-3488.79589469413
30
0.0
11
-442.075343564487
21
-3544.72173787891
31
0.0
39
0.0
210
0.0
220
0.0
230
1.0
0
LINE
5
5E
330
22
100
AcDbEntity
8
\U+7C97\U+5B9E\U+7EBF\U+5C42
62
256
6
ByLayer
370
-1
48
1.0
60
0
100
AcDbLine
10
-450.000000115882
20
-2357.43504681357
30
0.0
11
-449.999999926144
21
-2581.00000003389
31
0.0
39
0.0
210
0.0
220
0.0
230
1.0
0
LINE
5
5F
330
22
100
AcDbEntity
8
\U+7C97\U+5B9E\U+7EBF\U+5C42
62
256
6
ByLayer
370
-1
48
1.0
60
0
100
AcDbLine
10
-574.82578369974
20
-2638.29009627261
30
0.0
11
-736.421885372163
21
-2694.21593935323
31
0.0
39
0.0
210
0.0
220
0.0
230
1.0
0
LINE
5
60
330
22
100
AcDbEntity
8
\U+7C97\U+5B9E\U+7EBF\U+5C42
62
256
6
ByLayer
370
-1
48
1.0
60
0
100
AcDbLine
10
-499.999999765738
20
-2581.00000003386
30
0.0
11
-499.999999765739
21
-2590.00000003389
31
0.0
39
0.0
210
0.0
220
0.0
230
1.0
0
LINE
5
61
330
22
100
AcDbEntity
8
\U+7C97\U+5B9E\U+7EBF\U+5C42
62
256
6
ByLayer
370
-1
48
1.0
60
0
100
AcDbLine
10
-582.673311323029
20
-2588.09630885137
30
0.0
11
-591.17836930826
21
-2591.03977426944
31
0.0
39
0.0
210
0.0
220
0.0
230
1.0
0
LINE
5
62
330
22
100
AcDbEntity
8
\U+7C97\U+5B9E\U+7EBF\U+5C42
62
256
6
ByLayer
370
-1
48
1.0
60
0
100
AcDbLine
10
500.000000234261
20
-2581.0000000339
30
0.0
11
500.000000234259
21
-2589.99999995863
31
0.0
39
0.0
210
0.0
220
0.0
230
1.0
0
LINE
5
63
330
22
100
AcDbEntity
8
\U+7C97\U+5B9E\U+7EBF\U+5C42
62
256
6
ByLayer
370
-1
48
1.0
60
0
100
AcDbLine
10
-255.621598132204
20
-3533.10275163309
30
0.0
11
-264.126656188589
21
-3536.04621707578
31
0.0
39
0.0
210
0.0
220
0.0
230
1.0
0
LINE
5
64
330
22
100
AcDbEntity
8
\U+7C97\U+5B9E\U+7EBF\U+5C42
62
256
6
ByLayer
370
-1
48
1.0
60
0
100
AcDbLine
10
-255.621598203359
20
-3533.10275165771
30
0.0
11
-582.673311323029
21
-2588.09630885137
31
0.0
39
0.0
210
0.0
220
0.0
230
1.0
0
ENDBLK
5
23
330
22
100
AcDbEntity
8
0
100
AcDbBlockEnd
0
BLOCK
5
67
330
65
100
AcDbEntity
67
1
8
0
100
AcDbBlockBegin
2
*Paper_Space
70
0
10
0.0
20
0.0
30
0.0
3
*Paper_Space
4

0
ENDBLK
5
66
330
65
100
AcDbEntity
8
0
100
AcDbBlockEnd
0
ENDSEC
0
SECTION
2
ENTITIES
0
VIEWPORT
5
69
330
65
100
AcDbEntity
67
1
8
0
62
256
6
ByLayer
370
-1
48
1.0
60
0
100
AcDbViewport
10
0.0
20
0.0
30
0.0
40
297.0
41
210.0
68
1
69
1
12
50.0
22
100.0
13
0.0
23
0.0
14
10.0
24
10.0
15
10.0
25
10.0
16
0.0
26
0.0
36
1.0
17
0.0
27
0.0
37
0.0
42
50.0
43
0.0
44
0.0
45
250.0
50
0.0
51
0.0
72
1000
90
819232
110
0.0
120
0.0
130
0.0
111
1.0
121
0.0
131
0.0
112
0.0
122
1.0
132
0.0
0
ENDSEC
0
SECTION
2
OBJECTS
0
DICTIONARY
5
6E
330
0
100
AcDbDictionary
280
1
281
1
3
ACAD_GROUP
350
12
3
ACAD_LAYOUT
350
68
3
ACAD_DGNDEFINITIONS
350
F
3
ACAD_DWFDEFINITIONS
350
10
3
ACAD_PDFDEFINITIONS
350
11
3
ACAD_MLINESTYLE
350
B
3
ACAD_IMAGE_DICT
350
E
3
ACAD_IMAGE_VARS
350
21
0
DICTIONARY
5
12
330
6E
100
AcDbDictionary
280
1
281
1
0
DICTIONARY
5
68
330
6E
100
AcDbDictionary
280
1
281
1
3
Model
350
20
3
Layout1
350
6A
0
DICTIONARY
5
F
330
6E
100
AcDbDictionary
280
1
281
1
0
DICTIONARY
5
10
330
6E
100
AcDbDictionary
280
1
281
1
0
DICTIONARY
5
11
330
6E
100
AcDbDictionary
280
1
281
1
0
DICTIONARY
5
B
330
6E
100
AcDbDictionary
280
1
281
1
3
Standard
350
1B
0
DICTIONARY
5
E
330
6E
100
AcDbDictionary
280
1
281
1
0
DICTIONARY
5
6
330
5
100
AcDbDictionary
280
1
281
1
3
ACAD_LAYERSTATES
360
6F
0
DICTIONARY
5
6F
330
6
100
AcDbDictionary
280
1
281
1
0
LAYOUT
5
20
330
68
100
AcDbPlotSettings
1

2
none_device
4
ISO_A4_(210.00_x_297.00_MM)
6

40
7.5
41
20.0
42
7.5
43
20.0
44
210.0
45
297.0
46
0.0
47
0.0
48
0.0
49
0.0
140
0.0
141
0.0
142
1.0
143
1.0
70
11952
72
1
73
1
74
1
7

75
0
76
0
77
2
78
300
147
1.0
148
0.0
149
0.0
100
AcDbLayout
1
Model
71
0
10
-20.0
20
-7.5
11
277.0
21
202.5
12
0.0
22
0.0
32
0.0
14
25.7
24
19.5
34
0.0
15
231.3
25
175.5
35
0.0
146
0.0
13
0.0
23
0.0
33
0.0
16
1.0
26
0.0
36
0.0
17
0.0
27
1.0
37
0.0
76
0
330
1C
0
LAYOUT
5
6A
330
68
100
AcDbPlotSettings
1

2
none_device
4
ISO_A4_(210.00_x_297.00_MM)
6

40
7.5
41
20.0
42
7.5
43
20.0
44
210.0
45
297.0
46
0.0
47
0.0
48
0.0
49
0.0
140
0.0
141
0.0
142
1.0
143
1.0
70
688
72
1
73
1
74
1
7

75
0
76
0
77
2
78
300
147
1.0
148
0.0
149
0.0
100
AcDbLayout
1
Layout1
71
1
10
-20.0
20
-7.5
11
277.0
21
202.5
12
0.0
22
0.0
32
0.0
14
25.7
24
19.5
34
0.0
15
231.3
25
175.5
35
0.0
146
0.0
13
0.0
23
0.0
33
0.0
16
1.0
26
0.0
36
0.0
17
0.0
27
1.0
37
0.0
76
0
330
65
0
MLINESTYLE
5
1B
330
B
100
AcDbMlineStyle
2
Standard
70
0
3

62
256
51
90.0
52
90.0
71
2
49
0.5
62
256
6
ByLayer
49
-0.5
62
256
6
ByLayer
0
RASTERVARIABLES
5
21
330
E
100
AcDbRasterVariables
90
0
70
1
71
1
72
0
0
ENDSEC
0
EOF
