999
DXF file generated by netDxf https://github.com/haplokuon/netDxf, Copyright(C) 2009-2020 Daniel Carvajal, Licensed under LGPL
0
SECTION
2
HEADER
9
$ACADVER
1
AC1015
9
$DWGCODEPAGE
3
ANSI_1252
9
$HANDSEED
5
E0
9
$ANGBASE
50
0.0
9
$ANGDIR
70
0
9
$ATTMODE
70
1
9
$AUNITS
70
0
9
$AUPREC
70
0
9
$CECOLOR
62
256
9
$CELTSCALE
40
1.0
9
$CELTYPE
6
ByLayer
9
$CELWEIGHT
370
-1
9
$CLAYER
8
0
9
$CMLJUST
70
0
9
$CMLSCALE
40
20.0
9
$CMLSTYLE
2
Standard
9
$DIMSTYLE
2
Standard
9
$TEXTSIZE
40
2.5
9
$TEXTSTYLE
7
Standard
9
$LUNITS
70
2
9
$LUPREC
70
4
9
$MIRRTEXT
70
0
9
$EXTNAMES
290
1
9
$INSBASE
10
0.0
20
0.0
30
0.0
9
$INSUNITS
70
0
9
$LTSCALE
40
1.0
9
$LWDISPLAY
290
0
9
$PDMODE
70
0
9
$PDSIZE
40
0.0
9
$PLINEGEN
70
0
9
$PSLTSCALE
70
1
9
$TDCREATE
40
2459821.45292031
9
$TDUCREATE
40
2459821.11958698
9
$TDUPDATE
40
2459821.45292031
9
$TDUUPDATE
40
2459821.11958698
9
$TDINDWG
40
0.0
9
$UCSORG
10
0.0
20
0.0
30
0.0
9
$UCSXDIR
10
1.0
20
0.0
30
0.0
9
$UCSYDIR
10
0.0
20
1.0
30
0.0
9
$DIMADEC
70
0
9
$DIMALT
70
0
9
$DIMALTD
70
2
9
$DIMALTF
40
25.4
9
$DIMALTRND
40
0.0
9
$DIMALTTD
70
2
9
$DIMALTTZ
70
0
9
$DIMALTU
70
2
9
$DIMALTZ
70
0
9
$DIMAPOST
1

9
$DIMATFIT
70
3
9
$DIMAUNIT
70
0
9
$DIMASZ
40
0.18
9
$DIMAZIN
70
0
9
$DIMSAH
70
0
9
$DIMBLK
1

9
$DIMLDRBLK
1

9
$DIMCEN
40
0.09
9
$DIMCLRD
70
0
9
$DIMCLRE
70
0
9
$DIMCLRT
70
0
9
$DIMDEC
70
4
9
$DIMDLE
40
0.0
9
$DIMDLI
40
0.38
9
$DIMDSEP
70
46
9
$DIMEXE
40
0.18
9
$DIMEXO
40
0.0625
9
$DIMFXLON
70
0
9
$DIMFXL
40
1.0
9
$DIMGAP
40
0.09
9
$DIMJUST
70
0
9
$DIMLFAC
40
1.0
9
$DIMLUNIT
70
2
9
$DIMLWD
70
-2
9
$DIMLWE
70
-2
9
$DIMPOST
1

9
$DIMRND
40
0.0
9
$DIMSCALE
40
1.0
9
$DIMSD1
70
0
9
$DIMSD2
70
0
9
$DIMSE1
70
0
9
$DIMSE2
70
0
9
$DIMSOXD
70
0
9
$DIMTAD
70
0
9
$DIMTDEC
70
4
9
$DIMTFAC
40
1.0
9
$DIMTIH
70
0
9
$DIMTIX
70
0
9
$DIMTM
40
0.0
9
$DIMTMOVE
70
0
9
$DIMTOFL
70
0
9
$DIMTOH
70
0
9
$DIMTOL
70
0
9
$DIMLIM
70
0
9
$DIMTOLJ
70
1
9
$DIMTP
40
0.0
9
$DIMTXT
40
0.18
9
$DIMTXTDIRECTION
70
0
9
$DIMTZIN
70
0
9
$DIMZIN
70
0
9
$DIMFRAC
70
0
9
$DIMLTYPE
6
ByBlock
9
$DIMLTEX1
6
ByBlock
9
$DIMLTEX2
6
ByBlock
0
ENDSEC
0
SECTION
2
CLASSES
0
CLASS
1
RASTERVARIABLES
2
AcDbRasterVariables
3
ISM
90
0
280
0
281
0
0
ENDSEC
0
SECTION
2
TABLES
0
TABLE
2
APPID
5
4
330
0
100
AcDbSymbolTable
70
5
0
APPID
5
19
330
4
100
AcDbSymbolTableRecord
100
AcDbRegAppTableRecord
2
ACAD
70
0
0
APPID
5
72
330
4
100
AcDbSymbolTableRecord
100
AcDbRegAppTableRecord
2
AcAecLayerStandard
70
0
0
APPID
5
DB
330
4
100
AcDbSymbolTableRecord
100
AcDbRegAppTableRecord
2
AcCmTransparency
70
0
0
APPID
5
DC
330
4
100
AcDbSymbolTableRecord
100
AcDbRegAppTableRecord
2
GradientColor1ACI
70
0
0
APPID
5
DD
330
4
100
AcDbSymbolTableRecord
100
AcDbRegAppTableRecord
2
GradientColor2ACI
70
0
0
ENDTAB
0
TABLE
2
VPORT
5
1
330
0
100
AcDbSymbolTable
70
1
0
VPORT
5
2
330
1
100
AcDbSymbolTableRecord
100
AcDbViewportTableRecord
2
*Active
70
0
10
0.0
20
0.0
11
1.0
21
1.0
12
0.0
22
0.0
13
0.0
23
0.0
14
0.5
24
0.5
15
10.0
25
10.0
16
0.0
26
0.0
36
1.0
17
0.0
27
0.0
37
0.0
40
10.0
41
1.0
75
0
76
1
0
ENDTAB
0
TABLE
2
LTYPE
5
7
330
0
100
AcDbSymbolTable
70
6
0
LTYPE
5
15
330
7
100
AcDbSymbolTableRecord
100
AcDbLinetypeTableRecord
2
Continuous
70
0
3
Solid line
72
65
73
0
40
0.0
0
LTYPE
5
16
330
7
100
AcDbSymbolTableRecord
100
AcDbLinetypeTableRecord
2
ByLayer
70
0
3

72
65
73
0
40
0.0
0
LTYPE
5
17
330
7
100
AcDbSymbolTableRecord
100
AcDbLinetypeTableRecord
2
ByBlock
70
0
3

72
65
73
0
40
0.0
0
LTYPE
5
27
330
7
100
AcDbSymbolTableRecord
100
AcDbLinetypeTableRecord
2
DASHED
70
0
3
Dashed __ __ __ __ __ __ __ __ __ __ __ __ __ _
72
65
73
2
40
0.75
49
0.5
74
0
49
-0.25
74
0
0
LTYPE
5
71
330
7
100
AcDbSymbolTableRecord
100
AcDbLinetypeTableRecord
2
\U+865A\U+7EBF
70
0
3
\U+865A\U+7EBF: __ __ __ __ __ __ __ __ __ __ __ __ __
72
65
73
2
40
2.0
49
1.0
74
0
49
-1.0
74
0
0
LTYPE
5
C7
330
7
100
AcDbSymbolTableRecord
100
AcDbLinetypeTableRecord
2
\U+70B9\U+753B\U+7EBF
70
0
3
\U+70B9\U+753B\U+7EBF: ____ . ____ . ____ . ____ . ____ . ____
72
65
73
4
40
18.0
49
12.0
74
0
49
-2.0
74
0
49
2.0
74
0
49
-2.0
74
0
0
ENDTAB
0
TABLE
2
LAYER
5
5
102
{ACAD_XDICTIONARY
360
6
102
}
330
0
100
AcDbSymbolTable
70
3
0
LAYER
5
14
330
5
100
AcDbSymbolTableRecord
100
AcDbLayerTableRecord
2
0
70
0
62
7
6
Continuous
290
1
370
-3
390
0
0
LAYER
5
70
330
5
100
AcDbSymbolTableRecord
100
AcDbLayerTableRecord
2
\U+865A\U+7EBF\U+5C42
70
0
62
6
6
\U+865A\U+7EBF
290
1
370
25
390
0
1001
AcAecLayerStandard
1000

1000
\U+865A\U+7EBF\U+5C42
0
LAYER
5
C6
330
5
100
AcDbSymbolTableRecord
100
AcDbLayerTableRecord
2
\U+4E2D\U+5FC3\U+7EBF\U+5C42
70
0
62
1
6
\U+70B9\U+753B\U+7EBF
290
1
370
18
390
0
1001
AcAecLayerStandard
1000

1000
\U+4E2D\U+5FC3\U+7EBF\U+5C42
0
ENDTAB
0
TABLE
2
STYLE
5
8
330
0
100
AcDbSymbolTable
70
1
0
STYLE
5
18
330
8
100
AcDbSymbolTableRecord
100
AcDbTextStyleTableRecord
2
Standard
3
simplex.shx
70
0
71
0
40
0.0
41
1.0
42
0.0
50
0.0
0
ENDTAB
0
TABLE
2
DIMSTYLE
5
A
330
0
100
AcDbSymbolTable
70
1
100
AcDbDimStyleTable
0
DIMSTYLE
105
1A
330
A
100
AcDbSymbolTableRecord
100
AcDbDimStyleTableRecord
2
Standard
3

4

40
1.0
41
0.18
42
0.0625
43
0.38
44
0.18
45
0.0
46
0.0
47
0.0
48
0.0
49
1.0
70
0
71
0
72
0
73
0
74
0
75
0
76
0
77
0
78
0
79
0
140
0.18
141
0.09
143
25.4
144
1.0
146
1.0
147
0.09
148
0.0
170
0
171
2
172
0
174
0
175
0
176
0
177
0
178
0
179
0
271
4
272
4
273
2
274
2
275
0
276
0
277
2
278
46
279
0
280
0
281
0
282
0
283
1
284
0
285
0
286
0
289
3
290
0
294
0
340
18
173
0
345
17
346
17
347
17
371
-2
372
-2
0
ENDTAB
0
TABLE
2
VIEW
5
3
330
0
100
AcDbSymbolTable
70
0
0
ENDTAB
0
TABLE
2
UCS
5
C
330
0
100
AcDbSymbolTable
70
0
0
ENDTAB
0
TABLE
2
BLOCK_RECORD
5
D
330
0
100
AcDbSymbolTable
70
3
0
BLOCK_RECORD
5
1C
330
D
100
AcDbSymbolTableRecord
100
AcDbBlockTableRecord
2
*Model_Space
340
20
0
BLOCK_RECORD
5
22
330
D
100
AcDbSymbolTableRecord
100
AcDbBlockTableRecord
2
jizuo
340
0
70
0
280
1
281
0
1001
ACAD
1000
DesignCenter Data
1002
{
1070
1
1070
0
1002
}
0
BLOCK_RECORD
5
D5
330
D
100
AcDbSymbolTableRecord
100
AcDbBlockTableRecord
2
*Paper_Space
340
DA
0
ENDTAB
0
ENDSEC
0
SECTION
2
BLOCKS
0
BLOCK
5
1E
330
1C
100
AcDbEntity
67
0
8
0
100
AcDbBlockBegin
2
*Model_Space
70
0
10
0.0
20
0.0
30
0.0
3
*Model_Space
4

0
ENDBLK
5
1D
330
1C
100
AcDbEntity
8
0
100
AcDbBlockEnd
0
BLOCK
5
24
330
22
100
AcDbEntity
8
0
100
AcDbBlockBegin
2
jizuo
70
0
10
0.0
20
0.0
30
0.0
3
jizuo
4

0
LINE
5
25
330
22
100
AcDbEntity
8
0
62
256
6
ByLayer
370
-1
48
1.0
60
0
100
AcDbLine
10
-34.28955078125
20
9.1881103515625
30
0.0
11
-34.5483704213257
21
8.22209453141839
31
0.0
39
0.0
210
0.0
220
0.0
230
1.0
0
LINE
5
26
330
22
100
AcDbEntity
8
0
62
7
6
DASHED
370
13
48
0.0750035643577576
60
0
100
AcDbLine
10
-23.66455078125
20
6.3411865234375
30
0.0
11
-23.9233636138451
21
5.37511472378239
31
0.0
39
0.0
210
0.0
220
0.0
230
1.0
0
LINE
5
28
330
22
100
AcDbEntity
8
0
62
256
6
ByLayer
370
-1
48
1.0
60
0
100
AcDbLine
10
34.8081644306771
20
-7.25625843015712
30
0.0
11
34.0317972431771
21
-10.1539635082821
31
0.0
39
0.0
210
0.0
220
0.0
230
1.0
0
LINE
5
29
330
22
100
AcDbEntity
8
0
62
7
6
DASHED
370
13
48
0.0750035643577576
60
0
100
AcDbLine
10
23.66552734375
20
-6.3409423828125
30
0.0
11
23.4067128466415
21
-7.30702039560435
31
0.0
39
0.0
210
0.0
220
0.0
230
1.0
0
LINE
5
2A
330
22
100
AcDbEntity
8
0
62
256
6
ByLayer
370
-1
48
1.0
60
0
100
AcDbLine
10
-34.28955078125
20
9.1881103515625
30
0.0
11
-34.5483704213257
21
8.22209453141839
31
0.0
39
0.0
210
0.0
220
0.0
230
1.0
0
LINE
5
2B
330
22
100
AcDbEntity
8
0
62
7
6
DASHED
370
13
48
0.0750035643577576
60
0
100
AcDbLine
10
-23.66455078125
20
6.3411865234375
30
0.0
11
-23.9233636138451
21
5.37511472378239
31
0.0
39
0.0
210
0.0
220
0.0
230
1.0
0
LINE
5
2C
330
22
100
AcDbEntity
8
0
62
256
6
ByLayer
370
-1
48
1.0
60
0
100
AcDbLine
10
34.8081644306771
20
-7.25625843015712
30
0.0
11
34.0317972431771
21
-10.1539635082821
31
0.0
39
0.0
210
0.0
220
0.0
230
1.0
0
LINE
5
2D
330
22
100
AcDbEntity
8
0
62
7
6
DASHED
370
13
48
0.0750035643577576
60
0
100
AcDbLine
10
23.66552734375
20
-6.3409423828125
30
0.0
11
23.4067128466415
21
-7.30702039560435
31
0.0
39
0.0
210
0.0
220
0.0
230
1.0
0
LINE
5
2E
330
22
100
AcDbEntity
8
0
62
256
6
ByLayer
370
-1
48
1.0
60
0
100
AcDbLine
10
-34.28955078125
20
9.1881103515625
30
0.0
11
-34.5483704213257
21
8.22209453141839
31
0.0
39
0.0
210
0.0
220
0.0
230
1.0
0
LINE
5
2F
330
22
100
AcDbEntity
8
0
62
7
6
DASHED
370
13
48
0.0750035643577576
60
0
100
AcDbLine
10
-23.66455078125
20
6.3411865234375
30
0.0
11
-23.9233636138451
21
5.37511472378239
31
0.0
39
0.0
210
0.0
220
0.0
230
1.0
0
LINE
5
30
330
22
100
AcDbEntity
8
0
62
256
6
ByLayer
370
-1
48
1.0
60
0
100
AcDbLine
10
34.8081644306771
20
-7.25625843015712
30
0.0
11
34.0317972431771
21
-10.1539635082821
31
0.0
39
0.0
210
0.0
220
0.0
230
1.0
0
LINE
5
31
330
22
100
AcDbEntity
8
0
62
7
6
DASHED
370
13
48
0.0750035643577576
60
0
100
AcDbLine
10
23.66552734375
20
-6.3409423828125
30
0.0
11
23.4067128466415
21
-7.30702039560435
31
0.0
39
0.0
210
0.0
220
0.0
230
1.0
0
LINE
5
32
330
22
100
AcDbEntity
8
0
62
256
6
ByLayer
370
-1
48
1.0
60
0
100
AcDbLine
10
-34.28955078125
20
9.1881103515625
30
0.0
11
-34.5483704213257
21
8.22209453141839
31
0.0
39
0.0
210
0.0
220
0.0
230
1.0
0
LINE
5
33
330
22
100
AcDbEntity
8
0
62
7
6
DASHED
370
13
48
0.0750035643577576
60
0
100
AcDbLine
10
-23.66455078125
20
6.3411865234375
30
0.0
11
-23.9233636138451
21
5.37511472378239
31
0.0
39
0.0
210
0.0
220
0.0
230
1.0
0
LINE
5
34
330
22
100
AcDbEntity
8
0
62
256
6
ByLayer
370
-1
48
1.0
60
0
100
AcDbLine
10
34.8081644306771
20
-7.25625843015712
30
0.0
11
34.0317972431771
21
-10.1539635082821
31
0.0
39
0.0
210
0.0
220
0.0
230
1.0
0
LINE
5
35
330
22
100
AcDbEntity
8
0
62
7
6
DASHED
370
13
48
0.0750035643577576
60
0
100
AcDbLine
10
23.66552734375
20
-6.3409423828125
30
0.0
11
23.4067128466415
21
-7.30702039560435
31
0.0
39
0.0
210
0.0
220
0.0
230
1.0
0
LINE
5
36
330
22
100
AcDbEntity
8
0
62
256
6
ByLayer
370
-1
48
1.0
60
0
100
AcDbLine
10
-34.28955078125
20
9.1881103515625
30
0.0
11
-34.5483704213257
21
8.22209453141839
31
0.0
39
0.0
210
0.0
220
0.0
230
1.0
0
LINE
5
37
330
22
100
AcDbEntity
8
0
62
7
6
DASHED
370
13
48
0.0750035643577576
60
0
100
AcDbLine
10
-23.66455078125
20
6.3411865234375
30
0.0
11
-23.9233636138451
21
5.37511472378239
31
0.0
39
0.0
210
0.0
220
0.0
230
1.0
0
LINE
5
38
330
22
100
AcDbEntity
8
0
62
256
6
ByLayer
370
-1
48
1.0
60
0
100
AcDbLine
10
34.8081644306771
20
-7.25625843015712
30
0.0
11
34.0317972431771
21
-10.1539635082821
31
0.0
39
0.0
210
0.0
220
0.0
230
1.0
0
LINE
5
39
330
22
100
AcDbEntity
8
0
62
7
6
DASHED
370
13
48
0.0750035643577576
60
0
100
AcDbLine
10
23.66552734375
20
-6.3409423828125
30
0.0
11
23.4067128466415
21
-7.30702039560435
31
0.0
39
0.0
210
0.0
220
0.0
230
1.0
0
LINE
5
3A
330
22
100
AcDbEntity
8
0
62
256
6
ByLayer
370
-1
48
1.0
60
0
100
AcDbLine
10
-34.28955078125
20
9.1881103515625
30
0.0
11
-34.5483704213257
21
8.22209453141839
31
0.0
39
0.0
210
0.0
220
0.0
230
1.0
0
LINE
5
3B
330
22
100
AcDbEntity
8
0
62
7
6
DASHED
370
13
48
0.0750035643577576
60
0
100
AcDbLine
10
-23.66455078125
20
6.3411865234375
30
0.0
11
-23.9233636138451
21
5.37511472378239
31
0.0
39
0.0
210
0.0
220
0.0
230
1.0
0
LINE
5
3C
330
22
100
AcDbEntity
8
0
62
256
6
ByLayer
370
-1
48
1.0
60
0
100
AcDbLine
10
34.8081644306771
20
-7.25625843015712
30
0.0
11
34.0317972431771
21
-10.1539635082821
31
0.0
39
0.0
210
0.0
220
0.0
230
1.0
0
LINE
5
3D
330
22
100
AcDbEntity
8
0
62
7
6
DASHED
370
13
48
0.0750035643577576
60
0
100
AcDbLine
10
23.66552734375
20
-6.3409423828125
30
0.0
11
23.4067128466415
21
-7.30702039560435
31
0.0
39
0.0
210
0.0
220
0.0
230
1.0
0
LINE
5
3E
330
22
100
AcDbEntity
8
0
62
256
6
ByLayer
370
-1
48
1.0
60
0
100
AcDbLine
10
43.5044534931771
20
-30.8263267895321
30
0.0
11
48.8140238056771
21
-11.0091881176571
31
0.0
39
0.0
210
0.0
220
0.0
230
1.0
0
LINE
5
3F
330
22
100
AcDbEntity
8
0
62
256
6
ByLayer
370
-1
48
1.0
60
0
100
AcDbLine
10
38.4614847431771
20
-49.6461510082821
30
0.0
11
43.5044534931771
21
-30.8263267895321
31
0.0
39
0.0
210
0.0
220
0.0
230
1.0
0
LINE
5
40
330
22
100
AcDbEntity
8
0
62
256
6
ByLayer
370
-1
48
1.0
60
0
100
AcDbLine
10
38.4614847431771
20
-49.6461510082821
30
0.0
11
35.5640238056771
21
-48.8697838207821
31
0.0
39
0.0
210
0.0
220
0.0
230
1.0
0
LINE
5
41
330
22
100
AcDbEntity
8
0
62
256
6
ByLayer
370
-1
48
1.0
60
0
100
AcDbLine
10
35.5640238056771
20
-48.8697838207821
30
0.0
11
40.6216409931771
21
-29.9918541332821
31
0.0
39
0.0
210
0.0
220
0.0
230
1.0
0
LINE
5
42
330
22
100
AcDbEntity
8
0
62
256
6
ByLayer
370
-1
48
1.0
60
0
100
AcDbLine
10
40.6216409931771
20
-29.9918541332821
30
0.0
11
45.1401956806771
21
-13.1305260082821
31
0.0
39
0.0
210
0.0
220
0.0
230
1.0
0
LINE
5
43
330
22
100
AcDbEntity
8
0
62
256
6
ByLayer
370
-1
48
1.0
60
0
100
AcDbLine
10
-50.1752340068229
20
-5.66275257078212
30
0.0
11
-45.6566793193229
21
11.1985755542179
31
0.0
39
0.0
210
0.0
220
0.0
230
1.0
0
LINE
5
44
330
22
100
AcDbEntity
8
0
62
256
6
ByLayer
370
-1
48
1.0
60
0
100
AcDbLine
10
-55.2328511943229
20
-24.5406822582821
30
0.0
11
-50.1752340068229
21
-5.66275257078212
31
0.0
39
0.0
210
0.0
220
0.0
230
1.0
0
LINE
5
45
330
22
100
AcDbEntity
8
0
62
7
6
ByLayer
370
35
48
0.0750153586268425
60
0
100
AcDbLine
10
-58.1312886943229
20
-23.7643150707821
30
0.0
11
-55.2328511943229
21
-24.5406822582821
31
0.0
39
0.0
210
0.0
220
0.0
230
1.0
0
LINE
5
46
330
22
100
AcDbEntity
8
0
62
256
6
ByLayer
370
-1
48
1.0
60
0
100
AcDbLine
10
-58.1312886943229
20
-23.7643150707821
30
0.0
11
-53.0883199443229
21
-4.94449085203212
31
0.0
39
0.0
210
0.0
220
0.0
230
1.0
0
LINE
5
47
330
22
100
AcDbEntity
8
0
62
256
6
ByLayer
370
-1
48
1.0
60
0
100
AcDbLine
10
-53.0883199443229
20
-4.94449085203212
30
0.0
11
-47.7787496318229
21
14.8728919604679
31
0.0
39
0.0
210
0.0
220
0.0
230
1.0
0
LINE
5
48
330
22
100
AcDbEntity
8
0
62
256
6
ByLayer
370
-1
48
1.0
60
0
100
AcDbLine
10
0.518125368177073
20
1.93197399171788
30
0.0
11
-47.7787496318229
21
14.8728919604679
31
0.0
39
0.0
210
0.0
220
0.0
230
1.0
0
LINE
5
49
330
22
100
AcDbEntity
8
0
62
256
6
ByLayer
370
-1
48
1.0
60
0
100
AcDbLine
10
0.518125368177073
20
1.93197399171788
30
0.0
11
48.8140238056771
21
-11.0091881176571
31
0.0
39
0.0
210
0.0
220
0.0
230
1.0
0
LINE
5
4A
330
22
100
AcDbEntity
8
0
62
256
6
ByLayer
370
-1
48
1.0
60
0
100
AcDbLine
10
45.1401956806771
20
-13.1305260082821
30
0.0
11
-0.258241819322927
21
-0.965975227032121
31
0.0
39
0.0
210
0.0
220
0.0
230
1.0
0
LINE
5
4B
330
22
100
AcDbEntity
8
0
62
256
6
ByLayer
370
-1
48
1.0
60
0
100
AcDbLine
10
-45.6566793193229
20
11.1985755542179
30
0.0
11
-0.258241819322927
21
-0.965975227032121
31
0.0
39
0.0
210
0.0
220
0.0
230
1.0
0
LINE
5
4C
330
22
100
AcDbEntity
8
0
62
256
6
ByLayer
370
-1
48
1.0
60
0
100
AcDbLine
10
-34.28955078125
20
9.1881103515625
30
0.0
11
-34.5483704213257
21
8.22209453141839
31
0.0
39
0.0
210
0.0
220
0.0
230
1.0
0
LINE
5
4D
330
22
100
AcDbEntity
8
0
62
7
6
DASHED
370
13
48
0.0750035643577576
60
0
100
AcDbLine
10
-23.66455078125
20
6.3411865234375
30
0.0
11
-23.9233636138451
21
5.37511472378239
31
0.0
39
0.0
210
0.0
220
0.0
230
1.0
0
LINE
5
4E
330
22
100
AcDbEntity
8
0
62
256
6
ByLayer
370
-1
48
1.0
60
0
100
AcDbLine
10
34.8081644306771
20
-7.25625843015712
30
0.0
11
34.0317972431771
21
-10.1539635082821
31
0.0
39
0.0
210
0.0
220
0.0
230
1.0
0
LINE
5
4F
330
22
100
AcDbEntity
8
0
62
7
6
DASHED
370
13
48
0.0750035643577576
60
0
100
AcDbLine
10
23.66552734375
20
-6.3409423828125
30
0.0
11
23.4067128466415
21
-7.30702039560435
31
0.0
39
0.0
210
0.0
220
0.0
230
1.0
0
LINE
5
50
330
22
100
AcDbEntity
8
0
62
256
6
ByLayer
370
-1
48
1.0
60
0
100
AcDbLine
10
-34.28955078125
20
9.1881103515625
30
0.0
11
-34.5483704213257
21
8.22209453141839
31
0.0
39
0.0
210
0.0
220
0.0
230
1.0
0
LINE
5
51
330
22
100
AcDbEntity
8
0
62
7
6
DASHED
370
13
48
0.0750035643577576
60
0
100
AcDbLine
10
-23.66455078125
20
6.3411865234375
30
0.0
11
-23.9233636138451
21
5.37511472378239
31
0.0
39
0.0
210
0.0
220
0.0
230
1.0
0
LINE
5
52
330
22
100
AcDbEntity
8
0
62
256
6
ByLayer
370
-1
48
1.0
60
0
100
AcDbLine
10
34.8081644306771
20
-7.25625843015712
30
0.0
11
34.0317972431771
21
-10.1539635082821
31
0.0
39
0.0
210
0.0
220
0.0
230
1.0
0
LINE
5
53
330
22
100
AcDbEntity
8
0
62
7
6
DASHED
370
13
48
0.0750035643577576
60
0
100
AcDbLine
10
23.66552734375
20
-6.3409423828125
30
0.0
11
23.4067128466415
21
-7.30702039560435
31
0.0
39
0.0
210
0.0
220
0.0
230
1.0
0
LINE
5
54
330
22
100
AcDbEntity
8
0
62
7
6
DASHED
370
13
48
0.0750153586268425
60
0
100
AcDbLine
10
28.07763671875
20
110.582397460938
30
0.0
11
30.97607421875
21
109.806030273438
31
0.0
39
0.0
210
0.0
220
0.0
230
1.0
0
LINE
5
55
330
22
100
AcDbEntity
8
0
62
256
6
ByLayer
370
-1
48
1.0
60
0
100
AcDbLine
10
-33.51318359375
20
12.0858154296875
30
0.0
11
-34.28955078125
21
9.1881103515625
31
0.0
39
0.0
210
0.0
220
0.0
230
1.0
0
LINE
5
56
330
22
100
AcDbEntity
8
0
62
7
6
DASHED
370
13
48
0.0749976709485054
60
0
100
AcDbLine
10
-22.88818359375
20
9.2388916015625
30
0.0
11
-23.66455078125
21
6.3411865234375
31
0.0
39
0.0
210
0.0
220
0.0
230
1.0
0
LINE
5
57
330
22
100
AcDbEntity
8
0
62
7
6
DASHED
370
13
48
0.0749976709485054
60
0
100
AcDbLine
10
24.44189453125
20
-3.4432373046875
30
0.0
11
23.66552734375
21
-6.3409423828125
31
0.0
39
0.0
210
0.0
220
0.0
230
1.0
0
LINE
5
58
330
22
100
AcDbEntity
8
0
62
256
6
ByLayer
370
-1
48
1.0
60
0
100
AcDbLine
10
35.5845316181771
20
-4.35855335203212
30
0.0
11
34.8081644306771
21
-7.25625843015712
31
0.0
39
0.0
210
0.0
220
0.0
230
1.0
0
LINE
5
59
330
22
100
AcDbEntity
8
0
62
256
6
ByLayer
370
-1
48
1.0
60
0
100
AcDbLine
10
-33.51318359375
20
12.0858154296875
30
0.0
11
-34.28955078125
21
9.1881103515625
31
0.0
39
0.0
210
0.0
220
0.0
230
1.0
0
LINE
5
5A
330
22
100
AcDbEntity
8
0
62
7
6
DASHED
370
13
48
0.0749976709485054
60
0
100
AcDbLine
10
-22.88818359375
20
9.2388916015625
30
0.0
11
-23.66455078125
21
6.3411865234375
31
0.0
39
0.0
210
0.0
220
0.0
230
1.0
0
LINE
5
5B
330
22
100
AcDbEntity
8
0
62
256
6
ByLayer
370
-1
48
1.0
60
0
100
AcDbLine
10
35.5845316181771
20
-4.35855335203212
30
0.0
11
34.8081644306771
21
-7.25625843015712
31
0.0
39
0.0
210
0.0
220
0.0
230
1.0
0
LINE
5
5C
330
22
100
AcDbEntity
8
0
62
7
6
DASHED
370
13
48
0.0749976709485054
60
0
100
AcDbLine
10
24.44189453125
20
-3.4432373046875
30
0.0
11
23.66552734375
21
-6.3409423828125
31
0.0
39
0.0
210
0.0
220
0.0
230
1.0
0
LINE
5
5D
330
22
100
AcDbEntity
8
0
62
7
6
DASHED
370
13
48
0.0750153586268425
60
0
100
AcDbLine
10
28.07763671875
20
110.582397460938
30
0.0
11
30.97607421875
21
109.806030273438
31
0.0
39
0.0
210
0.0
220
0.0
230
1.0
0
LINE
5
5E
330
22
100
AcDbEntity
8
0
62
7
6
DASHED
370
13
48
0.0749976709485054
60
0
100
AcDbLine
10
-22.88818359375
20
9.2388916015625
30
0.0
11
-23.66455078125
21
6.3411865234375
31
0.0
39
0.0
210
0.0
220
0.0
230
1.0
0
LINE
5
5F
330
22
100
AcDbEntity
8
0
62
256
6
ByLayer
370
-1
48
1.0
60
0
100
AcDbLine
10
-33.51318359375
20
12.0858154296875
30
0.0
11
-34.28955078125
21
9.1881103515625
31
0.0
39
0.0
210
0.0
220
0.0
230
1.0
0
LINE
5
60
330
22
100
AcDbEntity
8
0
62
256
6
ByLayer
370
-1
48
1.0
60
0
100
AcDbLine
10
35.5845316181771
20
-4.35855335203212
30
0.0
11
34.8081644306771
21
-7.25625843015712
31
0.0
39
0.0
210
0.0
220
0.0
230
1.0
0
LINE
5
61
330
22
100
AcDbEntity
8
0
62
7
6
DASHED
370
13
48
0.0749976709485054
60
0
100
AcDbLine
10
24.44189453125
20
-3.4432373046875
30
0.0
11
23.66552734375
21
-6.3409423828125
31
0.0
39
0.0
210
0.0
220
0.0
230
1.0
0
LINE
5
62
330
22
100
AcDbEntity
8
0
62
7
6
DASHED
370
13
48
0.0749976709485054
60
0
100
AcDbLine
10
-22.88818359375
20
9.2388916015625
30
0.0
11
-23.66455078125
21
6.3411865234375
31
0.0
39
0.0
210
0.0
220
0.0
230
1.0
0
LINE
5
63
330
22
100
AcDbEntity
8
0
62
256
6
ByLayer
370
-1
48
1.0
60
0
100
AcDbLine
10
-33.51318359375
20
12.0858154296875
30
0.0
11
-34.28955078125
21
9.1881103515625
31
0.0
39
0.0
210
0.0
220
0.0
230
1.0
0
LINE
5
64
330
22
100
AcDbEntity
8
0
62
7
6
DASHED
370
13
48
0.0749976709485054
60
0
100
AcDbLine
10
24.44189453125
20
-3.4432373046875
30
0.0
11
23.66552734375
21
-6.3409423828125
31
0.0
39
0.0
210
0.0
220
0.0
230
1.0
0
LINE
5
65
330
22
100
AcDbEntity
8
0
62
256
6
ByLayer
370
-1
48
1.0
60
0
100
AcDbLine
10
35.5845316181771
20
-4.35855335203212
30
0.0
11
34.8081644306771
21
-7.25625843015712
31
0.0
39
0.0
210
0.0
220
0.0
230
1.0
0
LINE
5
66
330
22
100
AcDbEntity
8
0
62
7
6
DASHED
370
13
48
0.0750153586268425
60
0
100
AcDbLine
10
28.07763671875
20
110.582397460938
30
0.0
11
30.97607421875
21
109.806030273438
31
0.0
39
0.0
210
0.0
220
0.0
230
1.0
0
LINE
5
67
330
22
100
AcDbEntity
8
0
62
256
6
ByLayer
370
-1
48
1.0
60
0
100
AcDbLine
10
-33.51318359375
20
12.0858154296875
30
0.0
11
-34.28955078125
21
9.1881103515625
31
0.0
39
0.0
210
0.0
220
0.0
230
1.0
0
LINE
5
68
330
22
100
AcDbEntity
8
0
62
7
6
DASHED
370
13
48
0.0749976709485054
60
0
100
AcDbLine
10
-22.88818359375
20
9.2388916015625
30
0.0
11
-23.66455078125
21
6.3411865234375
31
0.0
39
0.0
210
0.0
220
0.0
230
1.0
0
LINE
5
69
330
22
100
AcDbEntity
8
0
62
7
6
DASHED
370
13
48
0.0749976709485054
60
0
100
AcDbLine
10
24.44189453125
20
-3.4432373046875
30
0.0
11
23.66552734375
21
-6.3409423828125
31
0.0
39
0.0
210
0.0
220
0.0
230
1.0
0
LINE
5
6A
330
22
100
AcDbEntity
8
0
62
256
6
ByLayer
370
-1
48
1.0
60
0
100
AcDbLine
10
35.5845316181771
20
-4.35855335203212
30
0.0
11
34.8081644306771
21
-7.25625843015712
31
0.0
39
0.0
210
0.0
220
0.0
230
1.0
0
LINE
5
6B
330
22
100
AcDbEntity
8
0
62
256
6
ByLayer
370
-1
48
1.0
60
0
100
AcDbLine
10
-33.51318359375
20
12.0858154296875
30
0.0
11
-34.28955078125
21
9.1881103515625
31
0.0
39
0.0
210
0.0
220
0.0
230
1.0
0
LINE
5
6C
330
22
100
AcDbEntity
8
0
62
7
6
DASHED
370
13
48
0.0749976709485054
60
0
100
AcDbLine
10
-22.88818359375
20
9.2388916015625
30
0.0
11
-23.66455078125
21
6.3411865234375
31
0.0
39
0.0
210
0.0
220
0.0
230
1.0
0
LINE
5
6D
330
22
100
AcDbEntity
8
0
62
256
6
ByLayer
370
-1
48
1.0
60
0
100
AcDbLine
10
35.5845316181771
20
-4.35855335203212
30
0.0
11
34.8081644306771
21
-7.25625843015712
31
0.0
39
0.0
210
0.0
220
0.0
230
1.0
0
LINE
5
6E
330
22
100
AcDbEntity
8
0
62
7
6
DASHED
370
13
48
0.0749976709485054
60
0
100
AcDbLine
10
24.44189453125
20
-3.4432373046875
30
0.0
11
23.66552734375
21
-6.3409423828125
31
0.0
39
0.0
210
0.0
220
0.0
230
1.0
0
LINE
5
6F
330
22
100
AcDbEntity
8
\U+865A\U+7EBF\U+5C42
62
256
6
ByLayer
370
-1
48
1.0
60
0
100
AcDbLine
10
102.48095703125
20
189.279418945312
30
0.0
11
99.58349609375
21
190.055786132812
31
0.0
39
0.0
210
0.0
220
0.0
230
1.0
0
LINE
5
73
330
22
100
AcDbEntity
8
\U+865A\U+7EBF\U+5C42
62
256
6
ByLayer
370
-1
48
1.0
60
0
100
AcDbLine
10
62.73583984375
20
210.950805664062
30
0.0
11
102.48095703125
21
189.279418945312
31
0.0
39
0.0
210
0.0
220
0.0
230
1.0
0
LINE
5
74
330
22
100
AcDbEntity
8
\U+865A\U+7EBF\U+5C42
62
256
6
ByLayer
370
-1
48
1.0
60
0
100
AcDbLine
10
62.73583984375
20
210.950805664062
30
0.0
11
51.14501953125
21
214.056518554688
31
0.0
39
0.0
210
0.0
220
0.0
230
1.0
0
LINE
5
75
330
22
100
AcDbEntity
8
\U+865A\U+7EBF\U+5C42
62
256
6
ByLayer
370
-1
48
1.0
60
0
100
AcDbLine
10
51.14501953125
20
214.056518554688
30
0.0
11
5.88916015625
21
215.161254882812
31
0.0
39
0.0
210
0.0
220
0.0
230
1.0
0
LINE
5
76
330
22
100
AcDbEntity
8
0
62
256
6
ByLayer
370
-1
48
1.0
60
0
100
AcDbLine
10
46.6929300556771
20
-7.33487171140712
30
0.0
11
49.5903909931771
21
-8.11123889890712
31
0.0
39
0.0
210
0.0
220
0.0
230
1.0
0
LINE
5
77
330
22
100
AcDbEntity
8
0
62
256
6
ByLayer
370
-1
48
1.0
60
0
100
AcDbLine
10
48.29638671875
20
-12.9410400390625
30
0.0
11
102.48095703125
21
189.279418945312
31
0.0
39
0.0
210
0.0
220
0.0
230
1.0
0
LINE
5
78
330
22
100
AcDbEntity
8
0
62
7
6
DASHED
370
13
48
0.0750035643577576
60
0
100
AcDbLine
10
1.96722455181286
20
1.5434342633215
30
0.0
11
1.96728587098816
21
1.5436631496771
31
0.0
39
0.0
210
0.0
220
0.0
230
1.0
0
LINE
5
79
330
22
100
AcDbEntity
8
0
62
256
6
ByLayer
370
-1
48
1.0
60
0
100
AcDbLine
10
-47.7787496318229
20
14.8728919604679
30
0.0
11
5.51617224317707
21
213.771817741718
31
0.0
39
0.0
210
0.0
220
0.0
230
1.0
0
LINE
5
7A
330
22
100
AcDbEntity
8
0
62
7
6
ByLayer
370
35
48
0.085965745151043
60
0
100
AcDbLine
10
4.99853515625
20
211.839965820312
30
0.0
11
5.88916015625
21
215.161254882812
31
0.0
39
0.0
210
0.0
220
0.0
230
1.0
0
LINE
5
7B
330
22
100
AcDbEntity
8
0
62
256
6
ByLayer
370
-1
48
1.0
60
0
100
AcDbLine
10
-47.51904296875
20
15.8387451171875
30
0.0
11
-44.62158203125
21
15.0623779296875
31
0.0
39
0.0
210
0.0
220
0.0
230
1.0
0
LINE
5
7C
330
22
100
AcDbEntity
8
\U+865A\U+7EBF\U+5C42
62
256
6
ByLayer
370
-1
48
1.0
60
0
100
AcDbLine
10
8.78662109375
20
214.384887695312
30
0.0
11
5.88916015625
21
215.161254882812
31
0.0
39
0.0
210
0.0
220
0.0
230
1.0
0
LINE
5
7D
330
22
100
AcDbEntity
8
0
62
7
6
DASHED
370
13
48
0.0750153586268425
60
0
100
AcDbLine
10
28.07763671875
20
110.582397460938
30
0.0
11
30.97607421875
21
109.806030273438
31
0.0
39
0.0
210
0.0
220
0.0
230
1.0
0
LINE
5
7E
330
22
100
AcDbEntity
8
0
62
7
6
DASHED
370
13
48
1.0
60
0
100
AcDbLine
10
-0.154725551148836
20
5.21786249125503
30
0.0
11
50.31494140625
21
193.573364257812
31
0.0
39
0.0
210
0.0
220
0.0
230
1.0
0
LINE
5
7F
330
22
100
AcDbEntity
8
0
62
7
6
DASHED
370
13
48
1.0
60
0
100
AcDbLine
10
2.74371194885116
20
4.44149530375503
30
0.0
11
53.21337890625
21
192.796997070312
31
0.0
39
0.0
210
0.0
220
0.0
230
1.0
0
LINE
5
80
330
22
100
AcDbEntity
8
0
62
7
6
DASHED
370
13
48
0.0750153586268425
60
0
100
AcDbLine
10
53.21337890625
20
192.796997070312
30
0.0
11
50.31494140625
21
193.573364257812
31
0.0
39
0.0
210
0.0
220
0.0
230
1.0
0
LINE
5
81
330
22
100
AcDbEntity
8
0
62
256
6
ByLayer
370
-1
48
1.0
60
0
100
AcDbLine
10
48.8140238056771
20
-11.0091881176571
30
0.0
11
-47.7787496318229
21
14.8728919604679
31
0.0
39
0.0
210
0.0
220
0.0
230
1.0
0
LINE
5
82
330
22
100
AcDbEntity
8
0
62
256
6
ByLayer
370
-1
48
1.0
60
0
100
AcDbLine
10
46.6929300556771
20
-7.33487171140712
30
0.0
11
2.74371130567707
21
4.44149547609288
31
0.0
39
0.0
210
0.0
220
0.0
230
1.0
0
LINE
5
83
330
22
100
AcDbEntity
8
0
62
256
6
ByLayer
370
-1
48
1.0
60
0
100
AcDbLine
10
2.74371130567707
20
4.44149547609288
30
0.0
11
-44.1039449443229
21
16.9942298510929
31
0.0
39
0.0
210
0.0
220
0.0
230
1.0
0
LINE
5
84
330
22
100
AcDbEntity
8
0
62
7
6
DASHED
370
13
48
0.0749976709485054
60
0
100
AcDbLine
10
-22.88818359375
20
9.2388916015625
30
0.0
11
-23.66455078125
21
6.3411865234375
31
0.0
39
0.0
210
0.0
220
0.0
230
1.0
0
LINE
5
85
330
22
100
AcDbEntity
8
0
62
256
6
ByLayer
370
-1
48
1.0
60
0
100
AcDbLine
10
-33.51318359375
20
12.0858154296875
30
0.0
11
-34.28955078125
21
9.1881103515625
31
0.0
39
0.0
210
0.0
220
0.0
230
1.0
0
LINE
5
86
330
22
100
AcDbEntity
8
0
62
256
6
ByLayer
370
-1
48
1.0
60
0
100
AcDbLine
10
35.5845316181771
20
-4.35855335203212
30
0.0
11
34.8081644306771
21
-7.25625843015712
31
0.0
39
0.0
210
0.0
220
0.0
230
1.0
0
LINE
5
87
330
22
100
AcDbEntity
8
0
62
7
6
DASHED
370
13
48
0.0749976709485054
60
0
100
AcDbLine
10
24.44189453125
20
-3.4432373046875
30
0.0
11
23.66552734375
21
-6.3409423828125
31
0.0
39
0.0
210
0.0
220
0.0
230
1.0
0
LINE
5
88
330
22
100
AcDbEntity
8
0
62
7
6
DASHED
370
13
48
0.0749976709485054
60
0
100
AcDbLine
10
-22.3705351963613
20
11.1709572709355
30
0.0
11
-23.66455078125
21
6.3411865234375
31
0.0
39
0.0
210
0.0
220
0.0
230
1.0
0
LINE
5
89
330
22
100
AcDbEntity
8
0
62
256
6
ByLayer
370
-1
48
1.0
60
0
100
AcDbLine
10
-32.9955134503577
20
14.0179622636257
30
0.0
11
-34.28955078125
21
9.1881103515625
31
0.0
39
0.0
210
0.0
220
0.0
230
1.0
0
LINE
5
8A
330
22
100
AcDbEntity
8
0
62
256
6
ByLayer
370
-1
48
1.0
60
0
100
AcDbLine
10
24.9595046977937
20
-1.51131432773549
30
0.0
11
23.66552734375
21
-6.3409423828125
31
0.0
39
0.0
210
0.0
220
0.0
230
1.0
0
LINE
5
8B
330
22
100
AcDbEntity
8
0
62
256
6
ByLayer
370
-1
48
1.0
60
0
100
AcDbLine
10
35.5845316181771
20
-4.35855335203212
30
0.0
11
34.8081644306771
21
-7.25625843015712
31
0.0
39
0.0
210
0.0
220
0.0
230
1.0
0
ARC
5
8C
330
22
100
AcDbEntity
8
\U+865A\U+7EBF\U+5C42
62
256
6
ByLayer
370
-1
48
1.0
60
0
100
AcDbCircle
39
0.0
10
76.23388671875
20
172.458374023438
30
0.0
40
6.00000000000081
210
0.0
220
0.0
230
1.0
100
AcDbArc
50
164.999994346262
51
344.999999582587
0
LINE
5
8D
330
22
100
AcDbEntity
8
\U+865A\U+7EBF\U+5C42
62
256
6
ByLayer
370
-1
48
1.0
60
0
100
AcDbLine
10
82.02880859375
20
170.905395507812
30
0.0
11
85.65283203125
21
184.428344726562
31
0.0
39
0.0
210
0.0
220
0.0
230
1.0
0
ARC
5
8E
330
22
100
AcDbEntity
8
\U+865A\U+7EBF\U+5C42
62
256
6
ByLayer
370
-1
48
1.0
60
0
100
AcDbCircle
39
0.0
10
79.85693359375
20
185.981323242188
30
0.0
40
5.99999999999943
210
0.0
220
0.0
230
1.0
100
AcDbArc
50
344.999999582585
51
164.999994346261
0
LINE
5
8F
330
22
100
AcDbEntity
8
\U+865A\U+7EBF\U+5C42
62
256
6
ByLayer
370
-1
48
1.0
60
0
100
AcDbLine
10
74.06103515625
20
187.534301757812
30
0.0
11
70.43798828125
21
174.011108398438
31
0.0
39
0.0
210
0.0
220
0.0
230
1.0
0
ARC
5
90
330
22
100
AcDbEntity
8
\U+865A\U+7EBF\U+5C42
62
256
6
ByLayer
370
-1
48
1.0
60
0
100
AcDbCircle
39
0.0
10
65.88037109375
20
133.821166992188
30
0.0
40
6.00000000000081
210
0.0
220
0.0
230
1.0
100
AcDbArc
50
164.999994346262
51
344.999999582587
0
LINE
5
91
330
22
100
AcDbEntity
8
\U+865A\U+7EBF\U+5C42
62
256
6
ByLayer
370
-1
48
1.0
60
0
100
AcDbLine
10
71.67626953125
20
132.268432617188
30
0.0
11
75.29931640625
21
145.791381835938
31
0.0
39
0.0
210
0.0
220
0.0
230
1.0
0
ARC
5
92
330
22
100
AcDbEntity
8
\U+865A\U+7EBF\U+5C42
62
256
6
ByLayer
370
-1
48
1.0
60
0
100
AcDbCircle
39
0.0
10
69.50439453125
20
147.344360351562
30
0.0
40
5.99999999999943
210
0.0
220
0.0
230
1.0
100
AcDbArc
50
344.999999582585
51
164.999994346261
0
LINE
5
93
330
22
100
AcDbEntity
8
\U+865A\U+7EBF\U+5C42
62
256
6
ByLayer
370
-1
48
1.0
60
0
100
AcDbLine
10
63.70849609375
20
148.897094726562
30
0.0
11
60.08544921875
21
135.374145507812
31
0.0
39
0.0
210
0.0
220
0.0
230
1.0
0
ARC
5
94
330
22
100
AcDbEntity
8
\U+865A\U+7EBF\U+5C42
62
256
6
ByLayer
370
-1
48
1.0
60
0
100
AcDbCircle
39
0.0
10
55.52783203125
20
95.1842041015625
30
0.0
40
6.00000000000081
210
0.0
220
0.0
230
1.0
100
AcDbArc
50
164.999994346262
51
344.999999582586
0
LINE
5
95
330
22
100
AcDbEntity
8
\U+865A\U+7EBF\U+5C42
62
256
6
ByLayer
370
-1
48
1.0
60
0
100
AcDbLine
10
61.32373046875
20
93.6312255859375
30
0.0
11
64.94677734375
21
107.154174804688
31
0.0
39
0.0
210
0.0
220
0.0
230
1.0
0
ARC
5
96
330
22
100
AcDbEntity
8
\U+865A\U+7EBF\U+5C42
62
256
6
ByLayer
370
-1
48
1.0
60
0
100
AcDbCircle
39
0.0
10
59.15185546875
20
108.707153320312
30
0.0
40
5.99999999999942
210
0.0
220
0.0
230
1.0
100
AcDbArc
50
344.999999582585
51
164.999994346261
0
LINE
5
97
330
22
100
AcDbEntity
8
\U+865A\U+7EBF\U+5C42
62
256
6
ByLayer
370
-1
48
1.0
60
0
100
AcDbLine
10
53.35595703125
20
110.260131835938
30
0.0
11
49.73291015625
21
96.7371826171875
31
0.0
39
0.0
210
0.0
220
0.0
230
1.0
0
LINE
5
98
330
22
100
AcDbEntity
8
\U+865A\U+7EBF\U+5C42
62
256
6
ByLayer
370
-1
48
1.0
60
0
100
AcDbLine
10
14.41455078125
20
189.022827148438
30
0.0
11
18.03759765625
21
202.545776367188
31
0.0
39
0.0
210
0.0
220
0.0
230
1.0
0
ARC
5
99
330
22
100
AcDbEntity
8
\U+865A\U+7EBF\U+5C42
62
256
6
ByLayer
370
-1
48
1.0
60
0
100
AcDbCircle
39
0.0
10
20.20947265625
20
187.469848632812
30
0.0
40
6.00000000000081
210
0.0
220
0.0
230
1.0
100
AcDbArc
50
164.999994346263
51
344.999999582586
0
LINE
5
9A
330
22
100
AcDbEntity
8
\U+865A\U+7EBF\U+5C42
62
256
6
ByLayer
370
-1
48
1.0
60
0
100
AcDbLine
10
29.62841796875
20
199.439819335938
30
0.0
11
26.00537109375
21
185.916870117188
31
0.0
39
0.0
210
0.0
220
0.0
230
1.0
0
ARC
5
9B
330
22
100
AcDbEntity
8
\U+865A\U+7EBF\U+5C42
62
256
6
ByLayer
370
-1
48
1.0
60
0
100
AcDbCircle
39
0.0
10
23.83349609375
20
200.992797851562
30
0.0
40
5.99999999999943
210
0.0
220
0.0
230
1.0
100
AcDbArc
50
344.999999582584
51
164.999994346262
0
LINE
5
9C
330
22
100
AcDbEntity
8
\U+865A\U+7EBF\U+5C42
62
256
6
ByLayer
370
-1
48
1.0
60
0
100
AcDbLine
10
4.06103515625
20
150.385620117188
30
0.0
11
7.68505859375
21
163.908569335938
31
0.0
39
0.0
210
0.0
220
0.0
230
1.0
0
ARC
5
9D
330
22
100
AcDbEntity
8
\U+865A\U+7EBF\U+5C42
62
256
6
ByLayer
370
-1
48
1.0
60
0
100
AcDbCircle
39
0.0
10
9.85693359375
20
148.832885742188
30
0.0
40
6.00000000000081
210
0.0
220
0.0
230
1.0
100
AcDbArc
50
164.999994346263
51
344.999999582587
0
LINE
5
9E
330
22
100
AcDbEntity
8
\U+865A\U+7EBF\U+5C42
62
256
6
ByLayer
370
-1
48
1.0
60
0
100
AcDbLine
10
19.27587890625
20
160.802856445312
30
0.0
11
15.65283203125
21
147.279907226562
31
0.0
39
0.0
210
0.0
220
0.0
230
1.0
0
ARC
5
9F
330
22
100
AcDbEntity
8
\U+865A\U+7EBF\U+5C42
62
256
6
ByLayer
370
-1
48
1.0
60
0
100
AcDbCircle
39
0.0
10
13.48095703125
20
162.355834960938
30
0.0
40
5.99999999999943
210
0.0
220
0.0
230
1.0
100
AcDbArc
50
344.999999582585
51
164.999994346261
0
LINE
5
A0
330
22
100
AcDbEntity
8
\U+865A\U+7EBF\U+5C42
62
256
6
ByLayer
370
-1
48
1.0
60
0
100
AcDbLine
10
-6.29150390625
20
111.748657226562
30
0.0
11
-2.66748046875
21
125.271606445312
31
0.0
39
0.0
210
0.0
220
0.0
230
1.0
0
ARC
5
A1
330
22
100
AcDbEntity
8
\U+865A\U+7EBF\U+5C42
62
256
6
ByLayer
370
-1
48
1.0
60
0
100
AcDbCircle
39
0.0
10
-0.49560546875
20
110.195678710938
30
0.0
40
6.00000000000081
210
0.0
220
0.0
230
1.0
100
AcDbArc
50
164.999994346262
51
344.999999582586
0
LINE
5
A2
330
22
100
AcDbEntity
8
\U+865A\U+7EBF\U+5C42
62
256
6
ByLayer
370
-1
48
1.0
60
0
100
AcDbLine
10
8.92333984375
20
122.165893554688
30
0.0
11
5.29931640625
21
108.642944335938
31
0.0
39
0.0
210
0.0
220
0.0
230
1.0
0
ARC
5
A3
330
22
100
AcDbEntity
8
\U+865A\U+7EBF\U+5C42
62
256
6
ByLayer
370
-1
48
1.0
60
0
100
AcDbCircle
39
0.0
10
3.12744140625
20
123.718627929688
30
0.0
40
5.99999999999943
210
0.0
220
0.0
230
1.0
100
AcDbArc
50
344.999999582585
51
164.999994346261
0
LINE
5
A4
330
22
100
AcDbEntity
8
0
62
256
6
ByLayer
370
-1
48
1.0
60
0
100
AcDbLine
10
67.8111690328124
20
253.072631835938
30
0.0
11
30.9166377828124
21
253.072631835938
31
0.0
39
0.0
210
0.0
220
0.0
230
1.0
0
LINE
5
A5
330
22
100
AcDbEntity
8
0
62
256
6
ByLayer
370
-1
48
1.0
60
0
100
AcDbLine
10
30.9166377828124
20
253.072631835938
30
0.0
11
26.3365596578124
21
235.977661132812
31
0.0
39
0.0
210
0.0
220
0.0
230
1.0
0
LINE
5
A6
330
22
100
AcDbEntity
8
0
62
256
6
ByLayer
370
-1
48
1.0
60
0
100
AcDbLine
10
9.6198473533831
20
229.087400895631
30
0.0
11
26.3365596578125
21
235.977661132812
31
0.0
39
0.0
210
0.0
220
0.0
230
1.0
0
LINE
5
A7
330
22
100
AcDbEntity
8
0
62
7
6
ByLayer
370
35
48
0.20611335337162
60
0
100
AcDbLine
10
4.99853515625
20
211.839965820312
30
0.0
11
9.6198473533831
21
229.087400895631
31
0.0
39
0.0
210
0.0
220
0.0
230
1.0
0
LINE
5
A8
330
22
100
AcDbEntity
8
0
62
7
6
DASHED
370
13
48
1.0
60
0
100
AcDbLine
10
-24.82958984375
20
100.517456054688
30
0.0
11
4.99853515625
21
211.839965820312
31
0.0
39
0.0
210
0.0
220
0.0
230
1.0
0
LINE
5
A9
330
22
100
AcDbEntity
8
0
62
256
6
ByLayer
370
-1
48
1.0
60
0
100
AcDbLine
10
71.76220703125
20
74.6353759765625
30
0.0
11
-24.82958984375
21
100.517456054688
31
0.0
39
0.0
210
0.0
220
0.0
230
1.0
0
LINE
5
AA
330
22
100
AcDbEntity
8
0
62
256
6
ByLayer
370
-1
48
1.0
60
0
100
AcDbLine
10
-6.05224609375
20
126.862426757812
30
0.0
11
12.41357421875
21
121.914672851562
31
0.0
39
0.0
210
0.0
220
0.0
230
1.0
0
ARC
5
AB
330
22
100
AcDbEntity
8
0
62
256
6
ByLayer
370
-1
48
1.0
60
0
100
AcDbCircle
39
0.0
10
10.86083984375
20
116.119018554688
30
0.0
40
6.00000000000008
210
0.0
220
0.0
230
1.0
100
AcDbArc
50
255.000000493203
51
74.9999986719746
0
LINE
5
AC
330
22
100
AcDbEntity
8
0
62
256
6
ByLayer
370
-1
48
1.0
60
0
100
AcDbLine
10
9.30810546875
20
110.323364257812
30
0.0
11
-9.15771484375
21
115.271362304688
31
0.0
39
0.0
210
0.0
220
0.0
230
1.0
0
ARC
5
AD
330
22
100
AcDbEntity
8
0
62
256
6
ByLayer
370
-1
48
1.0
60
0
100
AcDbCircle
39
0.0
10
-7.60498046875
20
121.066772460938
30
0.0
40
6.00000000000042
210
0.0
220
0.0
230
1.0
100
AcDbArc
50
74.9999986719759
51
255.000000493204
0
LINE
5
AE
330
22
100
AcDbEntity
8
0
62
256
6
ByLayer
370
-1
48
1.0
60
0
100
AcDbLine
10
19.48974609375
20
148.321655273438
30
0.0
11
1.02392578125
21
153.269409179688
31
0.0
39
0.0
210
0.0
220
0.0
230
1.0
0
ARC
5
AF
330
22
100
AcDbEntity
8
0
62
256
6
ByLayer
370
-1
48
1.0
60
0
100
AcDbCircle
39
0.0
10
2.57666015625
20
159.065063476562
30
0.0
40
6.00000000000041
210
0.0
220
0.0
230
1.0
100
AcDbArc
50
74.9999986719759
51
255.000000493204
0
LINE
5
B0
330
22
100
AcDbEntity
8
0
62
256
6
ByLayer
370
-1
48
1.0
60
0
100
AcDbLine
10
4.12939453125
20
164.860473632812
30
0.0
11
22.59521484375
21
159.912719726562
31
0.0
39
0.0
210
0.0
220
0.0
230
1.0
0
ARC
5
B1
330
22
100
AcDbEntity
8
0
62
256
6
ByLayer
370
-1
48
1.0
60
0
100
AcDbCircle
39
0.0
10
21.04248046875
20
154.117065429688
30
0.0
40
6.00000000000006
210
0.0
220
0.0
230
1.0
100
AcDbArc
50
255.000000493203
51
74.9999986719746
0
LINE
5
B2
330
22
100
AcDbEntity
8
0
62
256
6
ByLayer
370
-1
48
1.0
60
0
100
AcDbLine
10
29.67138671875
20
186.319702148438
30
0.0
11
11.20556640625
21
191.267456054688
31
0.0
39
0.0
210
0.0
220
0.0
230
1.0
0
ARC
5
B3
330
22
100
AcDbEntity
8
0
62
256
6
ByLayer
370
-1
48
1.0
60
0
100
AcDbCircle
39
0.0
10
12.75830078125
20
197.063110351562
30
0.0
40
6.00000000000041
210
0.0
220
0.0
230
1.0
100
AcDbArc
50
74.9999986719758
51
152.437309368124
0
ARC
5
B4
330
22
100
AcDbEntity
8
0
62
7
6
ByLayer
370
35
48
1.0
60
0
100
AcDbCircle
39
0.0
10
12.75830078125
20
197.063110351562
30
0.0
40
6.00000000000026
210
0.0
220
0.0
230
1.0
100
AcDbArc
50
152.437309368123
51
245.650967330883
0
ARC
5
B5
330
22
100
AcDbEntity
8
0
62
7
6
DASHED
370
13
48
1.0
60
0
100
AcDbCircle
39
0.0
10
12.75830078125
20
197.063110351562
30
0.0
40
6.00000000000062
210
0.0
220
0.0
230
1.0
100
AcDbArc
50
245.650967330883
51
255.000000493204
0
LINE
5
B6
330
22
100
AcDbEntity
8
0
62
256
6
ByLayer
370
-1
48
1.0
60
0
100
AcDbLine
10
14.31103515625
20
202.858764648438
30
0.0
11
32.77685546875
21
197.910766601562
31
0.0
39
0.0
210
0.0
220
0.0
230
1.0
0
ARC
5
B7
330
22
100
AcDbEntity
8
0
62
256
6
ByLayer
370
-1
48
1.0
60
0
100
AcDbCircle
39
0.0
10
31.22412109375
20
192.115356445312
30
0.0
40
6.00000000000006
210
0.0
220
0.0
230
1.0
100
AcDbArc
50
255.000000493203
51
74.9999986719745
0
LINE
5
B8
330
22
100
AcDbEntity
8
0
62
256
6
ByLayer
370
-1
48
1.0
60
0
100
AcDbLine
10
65.56689453125
20
95.2489013671875
30
0.0
11
47.10205078125
21
100.196655273438
31
0.0
39
0.0
210
0.0
220
0.0
230
1.0
0
ARC
5
B9
330
22
100
AcDbEntity
8
0
62
256
6
ByLayer
370
-1
48
1.0
60
0
100
AcDbCircle
39
0.0
10
48.65478515625
20
105.992309570312
30
0.0
40
5.99999999999999
210
0.0
220
0.0
230
1.0
100
AcDbArc
50
74.9999986719747
51
255.000000493203
0
LINE
5
BA
330
22
100
AcDbEntity
8
0
62
256
6
ByLayer
370
-1
48
1.0
60
0
100
AcDbLine
10
50.20751953125
20
111.787719726562
30
0.0
11
68.67333984375
21
106.839965820312
31
0.0
39
0.0
210
0.0
220
0.0
230
1.0
0
ARC
5
BB
330
22
100
AcDbEntity
8
0
62
256
6
ByLayer
370
-1
48
1.0
60
0
100
AcDbCircle
39
0.0
10
67.11962890625
20
101.044311523438
30
0.0
40
6.00000000000051
210
0.0
220
0.0
230
1.0
100
AcDbArc
50
255.000000493204
51
74.999998671976
0
LINE
5
BC
330
22
100
AcDbEntity
8
0
62
256
6
ByLayer
370
-1
48
1.0
60
0
100
AcDbLine
10
75.74853515625
20
133.246948242188
30
0.0
11
57.28369140625
21
138.194702148438
31
0.0
39
0.0
210
0.0
220
0.0
230
1.0
0
ARC
5
BD
330
22
100
AcDbEntity
8
0
62
256
6
ByLayer
370
-1
48
1.0
60
0
100
AcDbCircle
39
0.0
10
58.83642578125
20
143.990356445312
30
0.0
40
5.99999999999998
210
0.0
220
0.0
230
1.0
100
AcDbArc
50
74.9999986719746
51
255.000000493203
0
LINE
5
BE
330
22
100
AcDbEntity
8
0
62
256
6
ByLayer
370
-1
48
1.0
60
0
100
AcDbLine
10
60.38916015625
20
149.785766601562
30
0.0
11
78.85498046875
21
144.838012695312
31
0.0
39
0.0
210
0.0
220
0.0
230
1.0
0
ARC
5
BF
330
22
100
AcDbEntity
8
0
62
256
6
ByLayer
370
-1
48
1.0
60
0
100
AcDbCircle
39
0.0
10
77.30126953125
20
139.042602539062
30
0.0
40
6.00000000000051
210
0.0
220
0.0
230
1.0
100
AcDbArc
50
255.000000493204
51
74.999998671976
0
LINE
5
C0
330
22
100
AcDbEntity
8
0
62
256
6
ByLayer
370
-1
48
1.0
60
0
100
AcDbLine
10
85.93017578125
20
171.244995117188
30
0.0
11
67.46533203125
21
176.192993164062
31
0.0
39
0.0
210
0.0
220
0.0
230
1.0
0
ARC
5
C1
330
22
100
AcDbEntity
8
0
62
256
6
ByLayer
370
-1
48
1.0
60
0
100
AcDbCircle
39
0.0
10
69.01806640625
20
181.988403320312
30
0.0
40
5.99999999999997
210
0.0
220
0.0
230
1.0
100
AcDbArc
50
74.9999986719747
51
255.000000493203
0
LINE
5
C2
330
22
100
AcDbEntity
8
0
62
256
6
ByLayer
370
-1
48
1.0
60
0
100
AcDbLine
10
70.57080078125
20
187.784057617188
30
0.0
11
89.03564453125
21
182.836303710938
31
0.0
39
0.0
210
0.0
220
0.0
230
1.0
0
ARC
5
C3
330
22
100
AcDbEntity
8
0
62
256
6
ByLayer
370
-1
48
1.0
60
0
100
AcDbCircle
39
0.0
10
87.48291015625
20
177.040649414062
30
0.0
40
6.00000000000051
210
0.0
220
0.0
230
1.0
100
AcDbArc
50
255.000000493204
51
74.9999986719758
0
LINE
5
C4
330
22
100
AcDbEntity
8
0
62
256
6
ByLayer
370
-1
48
1.0
60
0
100
AcDbLine
10
28.6151143953763
20
256.072631835938
30
0.0
11
68.61474609375
21
256.072631835938
31
0.0
39
0.0
210
0.0
220
0.0
230
1.0
0
LINE
5
C5
330
22
100
AcDbEntity
8
\U+4E2D\U+5FC3\U+7EBF\U+5C42
62
256
6
ByLayer
370
-1
48
1.0
60
0
100
AcDbLine
10
0.0003988735982109
20
0.0000495248360464
30
0.0
11
52.5406167514018
21
196.082958287664
31
0.0
39
0.0
210
0.0
220
0.0
230
1.0
0
LINE
5
C8
330
22
100
AcDbEntity
8
0
62
256
6
ByLayer
370
-1
48
1.0
60
0
100
AcDbLine
10
-44.62158203125
20
15.0623779296875
30
0.0
11
-21.9320439035292
21
99.7410493775046
31
0.0
39
0.0
210
0.0
220
0.0
230
1.0
0
LINE
5
C9
330
22
100
AcDbEntity
8
\U+865A\U+7EBF\U+5C42
62
256
6
ByLayer
370
-1
48
1.0
60
0
100
AcDbLine
10
-21.9320439035292
20
99.7410493775046
30
0.0
11
8.78662109375
21
214.384887695312
31
0.0
39
0.0
210
0.0
220
0.0
230
1.0
0
LINE
5
CA
330
22
100
AcDbEntity
8
0
62
256
6
ByLayer
370
-1
48
1.0
60
0
100
AcDbLine
10
46.17529296875
20
-9.2667236328125
30
0.0
11
68.8647784179278
21
75.4117512156287
31
0.0
39
0.0
210
0.0
220
0.0
230
1.0
0
LINE
5
CB
330
22
100
AcDbEntity
8
\U+865A\U+7EBF\U+5C42
62
256
6
ByLayer
370
-1
48
1.0
60
0
100
AcDbLine
10
68.8647784179278
20
75.4117512156287
30
0.0
11
99.58349609375
21
190.055786132812
31
0.0
39
0.0
210
0.0
220
0.0
230
1.0
0
LINE
5
CC
330
22
100
AcDbEntity
8
0
62
256
6
ByLayer
370
-1
48
1.0
60
0
100
AcDbLine
10
26.3365596578124
20
235.977661132812
30
0.0
11
23.4385478821577
21
236.754212810947
31
0.0
39
0.0
210
0.0
220
0.0
230
1.0
0
LINE
5
CD
330
22
100
AcDbEntity
8
0
62
256
6
ByLayer
370
-1
48
1.0
60
0
100
AcDbLine
10
23.4385478821577
20
236.754212810947
30
0.0
11
28.6151143953763
21
256.072631835938
31
0.0
39
0.0
210
0.0
220
0.0
230
1.0
0
LINE
5
CE
330
22
100
AcDbEntity
8
0
62
256
6
ByLayer
370
-1
48
1.0
60
0
100
AcDbLine
10
67.8106693969574
20
253.072765712501
30
0.0
11
99.7623024172556
21
234.625554988562
31
0.0
39
0.0
210
0.0
220
0.0
230
1.0
0
LINE
5
CF
330
22
100
AcDbEntity
8
0
62
256
6
ByLayer
370
-1
48
1.0
60
0
100
AcDbLine
10
103.255477651317
20
236.072875508369
30
0.0
11
68.61474609375
21
256.072631835938
31
0.0
39
0.0
210
0.0
220
0.0
230
1.0
0
LINE
5
D0
330
22
100
AcDbEntity
8
0
62
256
6
ByLayer
370
-1
48
1.0
60
0
100
AcDbLine
10
99.7623024172556
20
234.625554988562
30
0.0
11
95.1813104463705
21
217.530829148862
31
0.0
39
0.0
210
0.0
220
0.0
230
1.0
0
LINE
5
D1
330
22
100
AcDbEntity
8
0
62
256
6
ByLayer
370
-1
48
1.0
60
0
100
AcDbLine
10
106.213302466027
20
203.205351548329
30
0.0
11
95.1813104463705
21
217.530829148862
31
0.0
39
0.0
210
0.0
220
0.0
230
1.0
0
LINE
5
D2
330
22
100
AcDbEntity
8
0
62
256
6
ByLayer
370
-1
48
1.0
60
0
100
AcDbLine
10
95.1813104463705
20
217.530829148862
30
0.0
11
98.0793394378299
21
216.754341721206
31
0.0
39
0.0
210
0.0
220
0.0
230
1.0
0
LINE
5
D3
330
22
100
AcDbEntity
8
0
62
256
6
ByLayer
370
-1
48
1.0
60
0
100
AcDbLine
10
98.0793394378299
20
216.754341721206
30
0.0
11
103.255477651317
21
236.072875508369
31
0.0
39
0.0
210
0.0
220
0.0
230
1.0
0
LINE
5
D4
330
22
100
AcDbEntity
8
0
62
7
6
ByLayer
370
35
48
0.20611335337162
60
0
100
AcDbLine
10
101.591788325314
20
185.957970583444
30
0.0
11
106.213302466027
21
203.205351548329
31
0.0
39
0.0
210
0.0
220
0.0
230
1.0
0
ENDBLK
5
23
330
22
100
AcDbEntity
8
0
100
AcDbBlockEnd
0
BLOCK
5
D7
330
D5
100
AcDbEntity
67
1
8
0
100
AcDbBlockBegin
2
*Paper_Space
70
0
10
0.0
20
0.0
30
0.0
3
*Paper_Space
4

0
ENDBLK
5
D6
330
D5
100
AcDbEntity
8
0
100
AcDbBlockEnd
0
ENDSEC
0
SECTION
2
ENTITIES
0
VIEWPORT
5
D9
330
D5
100
AcDbEntity
67
1
8
0
62
256
6
ByLayer
370
-1
48
1.0
60
0
100
AcDbViewport
10
0.0
20
0.0
30
0.0
40
297.0
41
210.0
68
1
69
1
12
50.0
22
100.0
13
0.0
23
0.0
14
10.0
24
10.0
15
10.0
25
10.0
16
0.0
26
0.0
36
1.0
17
0.0
27
0.0
37
0.0
42
50.0
43
0.0
44
0.0
45
250.0
50
0.0
51
0.0
72
1000
90
819232
110
0.0
120
0.0
130
0.0
111
1.0
121
0.0
131
0.0
112
0.0
122
1.0
132
0.0
0
ENDSEC
0
SECTION
2
OBJECTS
0
DICTIONARY
5
DE
330
0
100
AcDbDictionary
280
1
281
1
3
ACAD_GROUP
350
12
3
ACAD_LAYOUT
350
D8
3
ACAD_DGNDEFINITIONS
350
F
3
ACAD_DWFDEFINITIONS
350
10
3
ACAD_PDFDEFINITIONS
350
11
3
ACAD_MLINESTYLE
350
B
3
ACAD_IMAGE_DICT
350
E
3
ACAD_IMAGE_VARS
350
21
0
DICTIONARY
5
12
330
DE
100
AcDbDictionary
280
1
281
1
0
DICTIONARY
5
D8
330
DE
100
AcDbDictionary
280
1
281
1
3
Model
350
20
3
Layout1
350
DA
0
DICTIONARY
5
F
330
DE
100
AcDbDictionary
280
1
281
1
0
DICTIONARY
5
10
330
DE
100
AcDbDictionary
280
1
281
1
0
DICTIONARY
5
11
330
DE
100
AcDbDictionary
280
1
281
1
0
DICTIONARY
5
B
330
DE
100
AcDbDictionary
280
1
281
1
3
Standard
350
1B
0
DICTIONARY
5
E
330
DE
100
AcDbDictionary
280
1
281
1
0
DICTIONARY
5
6
330
5
100
AcDbDictionary
280
1
281
1
3
ACAD_LAYERSTATES
360
DF
0
DICTIONARY
5
DF
330
6
100
AcDbDictionary
280
1
281
1
0
LAYOUT
5
20
330
D8
100
AcDbPlotSettings
1

2
none_device
4
ISO_A4_(210.00_x_297.00_MM)
6

40
7.5
41
20.0
42
7.5
43
20.0
44
210.0
45
297.0
46
0.0
47
0.0
48
0.0
49
0.0
140
0.0
141
0.0
142
1.0
143
1.0
70
11952
72
1
73
1
74
1
7

75
0
76
0
77
2
78
300
147
1.0
148
0.0
149
0.0
100
AcDbLayout
1
Model
71
0
10
-20.0
20
-7.5
11
277.0
21
202.5
12
0.0
22
0.0
32
0.0
14
25.7
24
19.5
34
0.0
15
231.3
25
175.5
35
0.0
146
0.0
13
0.0
23
0.0
33
0.0
16
1.0
26
0.0
36
0.0
17
0.0
27
1.0
37
0.0
76
0
330
1C
0
LAYOUT
5
DA
330
D8
100
AcDbPlotSettings
1

2
none_device
4
ISO_A4_(210.00_x_297.00_MM)
6

40
7.5
41
20.0
42
7.5
43
20.0
44
210.0
45
297.0
46
0.0
47
0.0
48
0.0
49
0.0
140
0.0
141
0.0
142
1.0
143
1.0
70
688
72
1
73
1
74
1
7

75
0
76
0
77
2
78
300
147
1.0
148
0.0
149
0.0
100
AcDbLayout
1
Layout1
71
1
10
-20.0
20
-7.5
11
277.0
21
202.5
12
0.0
22
0.0
32
0.0
14
25.7
24
19.5
34
0.0
15
231.3
25
175.5
35
0.0
146
0.0
13
0.0
23
0.0
33
0.0
16
1.0
26
0.0
36
0.0
17
0.0
27
1.0
37
0.0
76
0
330
D5
0
MLINESTYLE
5
1B
330
B
100
AcDbMlineStyle
2
Standard
70
0
3

62
256
51
90.0
52
90.0
71
2
49
0.5
62
256
6
ByLayer
49
-0.5
62
256
6
ByLayer
0
RASTERVARIABLES
5
21
330
E
100
AcDbRasterVariables
90
0
70
1
71
1
72
0
0
ENDSEC
0
EOF
