999
DXF file generated by netDxf https://github.com/haplokuon/netDxf, Copyright(C) 2009-2020 Daniel Carvajal, Licensed under LGPL
0
SECTION
2
HEADER
9
$ACADVER
1
AC1015
9
$DWGCODEPAGE
3
ANSI_1252
9
$HANDSEED
5
29A
9
$ANGBASE
50
0.0
9
$ANGDIR
70
0
9
$ATTMODE
70
1
9
$AUNITS
70
0
9
$AUPREC
70
0
9
$CECOLOR
62
256
9
$CELTSCALE
40
1.0
9
$CELTYPE
6
ByLayer
9
$CELWEIGHT
370
-1
9
$CLAYER
8
0
9
$CMLJUST
70
0
9
$CMLSCALE
40
20.0
9
$CMLSTYLE
2
Standard
9
$DIMSTYLE
2
Standard
9
$TEXTSIZE
40
2.5
9
$TEXTSTYLE
7
Standard
9
$LUNITS
70
2
9
$LUPREC
70
4
9
$MIRRTEXT
70
0
9
$EXTNAMES
290
1
9
$INSBASE
10
0.0
20
0.0
30
0.0
9
$INSUNITS
70
0
9
$LTSCALE
40
1.0
9
$LWDISPLAY
290
0
9
$PDMODE
70
0
9
$PDSIZE
40
0.0
9
$PLINEGEN
70
0
9
$PSLTSCALE
70
1
9
$TDCREATE
40
2459821.45292207
9
$TDUCREATE
40
2459821.11958874
9
$TDUPDATE
40
2459821.45292207
9
$TDUUPDATE
40
2459821.11958874
9
$TDINDWG
40
0.0
9
$UCSORG
10
0.0
20
0.0
30
0.0
9
$UCSXDIR
10
1.0
20
0.0
30
0.0
9
$UCSYDIR
10
0.0
20
1.0
30
0.0
9
$DIMADEC
70
0
9
$DIMALT
70
0
9
$DIMALTD
70
2
9
$DIMALTF
40
25.4
9
$DIMALTRND
40
0.0
9
$DIMALTTD
70
2
9
$DIMALTTZ
70
0
9
$DIMALTU
70
2
9
$DIMALTZ
70
0
9
$DIMAPOST
1

9
$DIMATFIT
70
3
9
$DIMAUNIT
70
0
9
$DIMASZ
40
0.18
9
$DIMAZIN
70
0
9
$DIMSAH
70
0
9
$DIMBLK
1

9
$DIMLDRBLK
1

9
$DIMCEN
40
0.09
9
$DIMCLRD
70
0
9
$DIMCLRE
70
0
9
$DIMCLRT
70
0
9
$DIMDEC
70
4
9
$DIMDLE
40
0.0
9
$DIMDLI
40
0.38
9
$DIMDSEP
70
46
9
$DIMEXE
40
0.18
9
$DIMEXO
40
0.0625
9
$DIMFXLON
70
0
9
$DIMFXL
40
1.0
9
$DIMGAP
40
0.09
9
$DIMJUST
70
0
9
$DIMLFAC
40
1.0
9
$DIMLUNIT
70
2
9
$DIMLWD
70
-2
9
$DIMLWE
70
-2
9
$DIMPOST
1

9
$DIMRND
40
0.0
9
$DIMSCALE
40
1.0
9
$DIMSD1
70
0
9
$DIMSD2
70
0
9
$DIMSE1
70
0
9
$DIMSE2
70
0
9
$DIMSOXD
70
0
9
$DIMTAD
70
0
9
$DIMTDEC
70
4
9
$DIMTFAC
40
1.0
9
$DIMTIH
70
0
9
$DIMTIX
70
0
9
$DIMTM
40
0.0
9
$DIMTMOVE
70
0
9
$DIMTOFL
70
0
9
$DIMTOH
70
0
9
$DIMTOL
70
0
9
$DIMLIM
70
0
9
$DIMTOLJ
70
1
9
$DIMTP
40
0.0
9
$DIMTXT
40
0.18
9
$DIMTXTDIRECTION
70
0
9
$DIMTZIN
70
0
9
$DIMZIN
70
0
9
$DIMFRAC
70
0
9
$DIMLTYPE
6
ByBlock
9
$DIMLTEX1
6
ByBlock
9
$DIMLTEX2
6
ByBlock
0
ENDSEC
0
SECTION
2
CLASSES
0
CLASS
1
RASTERVARIABLES
2
AcDbRasterVariables
3
ISM
90
0
280
0
281
0
0
ENDSEC
0
SECTION
2
TABLES
0
TABLE
2
APPID
5
4
330
0
100
AcDbSymbolTable
70
6
0
APPID
5
19
330
4
100
AcDbSymbolTableRecord
100
AcDbRegAppTableRecord
2
ACAD
70
0
0
APPID
5
27
330
4
100
AcDbSymbolTableRecord
100
AcDbRegAppTableRecord
2
AcAecLayerStandard
70
0
0
APPID
5
250
330
4
100
AcDbSymbolTableRecord
100
AcDbRegAppTableRecord
2
RAK
70
0
0
APPID
5
295
330
4
100
AcDbSymbolTableRecord
100
AcDbRegAppTableRecord
2
AcCmTransparency
70
0
0
APPID
5
296
330
4
100
AcDbSymbolTableRecord
100
AcDbRegAppTableRecord
2
GradientColor1ACI
70
0
0
APPID
5
297
330
4
100
AcDbSymbolTableRecord
100
AcDbRegAppTableRecord
2
GradientColor2ACI
70
0
0
ENDTAB
0
TABLE
2
VPORT
5
1
330
0
100
AcDbSymbolTable
70
1
0
VPORT
5
2
330
1
100
AcDbSymbolTableRecord
100
AcDbViewportTableRecord
2
*Active
70
0
10
0.0
20
0.0
11
1.0
21
1.0
12
0.0
22
0.0
13
0.0
23
0.0
14
0.5
24
0.5
15
10.0
25
10.0
16
0.0
26
0.0
36
1.0
17
0.0
27
0.0
37
0.0
40
10.0
41
1.0
75
0
76
1
0
ENDTAB
0
TABLE
2
LTYPE
5
7
330
0
100
AcDbSymbolTable
70
7
0
LTYPE
5
15
330
7
100
AcDbSymbolTableRecord
100
AcDbLinetypeTableRecord
2
Continuous
70
0
3
Solid line
72
65
73
0
40
0.0
0
LTYPE
5
16
330
7
100
AcDbSymbolTableRecord
100
AcDbLinetypeTableRecord
2
ByLayer
70
0
3

72
65
73
0
40
0.0
0
LTYPE
5
17
330
7
100
AcDbSymbolTableRecord
100
AcDbLinetypeTableRecord
2
ByBlock
70
0
3

72
65
73
0
40
0.0
0
LTYPE
5
2F
330
7
100
AcDbSymbolTableRecord
100
AcDbLinetypeTableRecord
2
\U+865A\U+7EBF
70
0
3
\U+865A\U+7EBF: __ __ __ __ __ __ __ __ __ __ __ __ __
72
65
73
2
40
2.0
49
1.0
74
0
49
-1.0
74
0
0
LTYPE
5
3F
330
7
100
AcDbSymbolTableRecord
100
AcDbLinetypeTableRecord
2
\U+70B9\U+753B\U+7EBF
70
0
3
\U+70B9\U+753B\U+7EBF: ____ . ____ . ____ . ____ . ____ . ____
72
65
73
4
40
18.0
49
12.0
74
0
49
-2.0
74
0
49
2.0
74
0
49
-2.0
74
0
0
LTYPE
5
24C
330
7
100
AcDbSymbolTableRecord
100
AcDbLinetypeTableRecord
2
AM_ISO02W050
70
0
3
__ __ __ __ __ __ __ __ __ __ __ __ __ __ __
72
65
73
2
40
7.5
49
6.0
74
0
49
-1.5
74
0
0
LTYPE
5
24D
330
7
100
AcDbSymbolTableRecord
100
AcDbLinetypeTableRecord
2
AM_ISO02W050x2
70
0
3
Unkown
72
65
73
2
40
2.0
49
1.0
74
0
49
-1.0
74
0
0
ENDTAB
0
TABLE
2
LAYER
5
5
102
{ACAD_XDICTIONARY
360
6
102
}
330
0
100
AcDbSymbolTable
70
7
0
LAYER
5
14
330
5
100
AcDbSymbolTableRecord
100
AcDbLayerTableRecord
2
0
70
0
62
7
6
Continuous
290
1
370
-3
390
0
0
LAYER
5
26
330
5
100
AcDbSymbolTableRecord
100
AcDbLayerTableRecord
2
\U+7C97\U+5B9E\U+7EBF\U+5C42
70
0
62
7
6
Continuous
290
1
370
35
390
0
1001
AcAecLayerStandard
1000

1000
\U+7C97\U+5B9E\U+7EBF\U+5C42
0
LAYER
5
2E
330
5
100
AcDbSymbolTableRecord
100
AcDbLayerTableRecord
2
\U+865A\U+7EBF\U+5C42
70
0
62
6
6
\U+865A\U+7EBF
290
1
370
25
390
0
1001
AcAecLayerStandard
1000

1000
\U+865A\U+7EBF\U+5C42
0
LAYER
5
3E
330
5
100
AcDbSymbolTableRecord
100
AcDbLayerTableRecord
2
\U+4E2D\U+5FC3\U+7EBF\U+5C42
70
0
62
1
6
\U+70B9\U+753B\U+7EBF
290
1
370
18
390
0
1001
AcAecLayerStandard
1000

1000
\U+4E2D\U+5FC3\U+7EBF\U+5C42
0
LAYER
5
5B
330
5
100
AcDbSymbolTableRecord
100
AcDbLayerTableRecord
2
AM_8
70
0
62
1
6
Continuous
290
1
370
25
390
0
1001
AcAecLayerStandard
1000

1000

0
LAYER
5
24B
330
5
100
AcDbSymbolTableRecord
100
AcDbLayerTableRecord
2
AM_3
70
0
62
6
6
AM_ISO02W050
290
1
370
13
390
0
1001
AcAecLayerStandard
1000

1000

0
LAYER
5
24F
330
5
100
AcDbSymbolTableRecord
100
AcDbLayerTableRecord
2
AM_0
70
0
62
7
6
Continuous
290
1
370
50
390
0
1001
RAK
1000
{ACET-LAYISO
1070
0
1070
7
1000
CONTINUOUS
1071
50
1071
1
1005
1D4F
1000
ACET-LAYISO}
0
ENDTAB
0
TABLE
2
STYLE
5
8
330
0
100
AcDbSymbolTable
70
1
0
STYLE
5
18
330
8
100
AcDbSymbolTableRecord
100
AcDbTextStyleTableRecord
2
Standard
3
simplex.shx
70
0
71
0
40
0.0
41
1.0
42
0.0
50
0.0
0
ENDTAB
0
TABLE
2
DIMSTYLE
5
A
330
0
100
AcDbSymbolTable
70
1
100
AcDbDimStyleTable
0
DIMSTYLE
105
1A
330
A
100
AcDbSymbolTableRecord
100
AcDbDimStyleTableRecord
2
Standard
3

4

40
1.0
41
0.18
42
0.0625
43
0.38
44
0.18
45
0.0
46
0.0
47
0.0
48
0.0
49
1.0
70
0
71
0
72
0
73
0
74
0
75
0
76
0
77
0
78
0
79
0
140
0.18
141
0.09
143
25.4
144
1.0
146
1.0
147
0.09
148
0.0
170
0
171
2
172
0
174
0
175
0
176
0
177
0
178
0
179
0
271
4
272
4
273
2
274
2
275
0
276
0
277
2
278
46
279
0
280
0
281
0
282
0
283
1
284
0
285
0
286
0
289
3
290
0
294
0
340
18
173
0
345
17
346
17
347
17
371
-2
372
-2
0
ENDTAB
0
TABLE
2
VIEW
5
3
330
0
100
AcDbSymbolTable
70
0
0
ENDTAB
0
TABLE
2
UCS
5
C
330
0
100
AcDbSymbolTable
70
0
0
ENDTAB
0
TABLE
2
BLOCK_RECORD
5
D
330
0
100
AcDbSymbolTable
70
3
0
BLOCK_RECORD
5
1C
330
D
100
AcDbSymbolTableRecord
100
AcDbBlockTableRecord
2
*Model_Space
340
20
0
BLOCK_RECORD
5
22
330
D
100
AcDbSymbolTableRecord
100
AcDbBlockTableRecord
2
C$EB4CA26413EF4389B25D9C46D9AB482F_2_1
340
0
70
0
280
1
281
0
1001
ACAD
1000
DesignCenter Data
1002
{
1070
1
1070
0
1002
}
0
BLOCK_RECORD
5
28F
330
D
100
AcDbSymbolTableRecord
100
AcDbBlockTableRecord
2
*Paper_Space
340
294
0
ENDTAB
0
ENDSEC
0
SECTION
2
BLOCKS
0
BLOCK
5
1E
330
1C
100
AcDbEntity
67
0
8
0
100
AcDbBlockBegin
2
*Model_Space
70
0
10
0.0
20
0.0
30
0.0
3
*Model_Space
4

0
ENDBLK
5
1D
330
1C
100
AcDbEntity
8
0
100
AcDbBlockEnd
0
BLOCK
5
24
330
22
100
AcDbEntity
8
0
100
AcDbBlockBegin
2
C$EB4CA26413EF4389B25D9C46D9AB482F_2_1
70
0
10
0.0
20
0.0
30
0.0
3
C$EB4CA26413EF4389B25D9C46D9AB482F_2_1
4

0
LINE
5
25
330
22
100
AcDbEntity
8
\U+7C97\U+5B9E\U+7EBF\U+5C42
62
256
6
ByLayer
370
-1
48
1.0
60
0
100
AcDbLine
10
3285.99999999453
20
70.0000000000855
30
0.0
11
3285.99999999453
21
890.000000000153
31
0.0
39
0.0
210
0.0
220
0.0
230
1.0
0
LINE
5
28
330
22
100
AcDbEntity
8
\U+7C97\U+5B9E\U+7EBF\U+5C42
62
256
6
ByLayer
370
-1
48
1.0
60
0
100
AcDbLine
10
3279.99999999504
20
70.0000000000855
30
0.0
11
3279.99999999504
21
890.000000000153
31
0.0
39
0.0
210
0.0
220
0.0
230
1.0
0
LINE
5
29
330
22
100
AcDbEntity
8
\U+7C97\U+5B9E\U+7EBF\U+5C42
62
256
6
ByLayer
370
-1
48
1.0
60
0
100
AcDbLine
10
3285.99999999453
20
70.0000000000855
30
0.0
11
-835.974858438809
21
70.0000000000833
31
0.0
39
0.0
210
0.0
220
0.0
230
1.0
0
LINE
5
2A
330
22
100
AcDbEntity
8
\U+7C97\U+5B9E\U+7EBF\U+5C42
62
256
6
ByLayer
370
-1
48
1.0
60
0
100
AcDbLine
10
3285.99999999453
20
890.000000000153
30
0.0
11
-835.974858438809
21
890.00000000007
31
0.0
39
0.0
210
0.0
220
0.0
230
1.0
0
LINE
5
2B
330
22
100
AcDbEntity
8
\U+7C97\U+5B9E\U+7EBF\U+5C42
62
256
6
ByLayer
370
-1
48
1.0
60
0
100
AcDbLine
10
3064.89981732363
20
830.000000000085
30
0.0
11
-835.974858438809
21
830.000000000083
31
0.0
39
0.0
210
0.0
220
0.0
230
1.0
0
LINE
5
2C
330
22
100
AcDbEntity
8
\U+7C97\U+5B9E\U+7EBF\U+5C42
62
256
6
ByLayer
370
-1
48
1.0
60
0
100
AcDbLine
10
3285.99999999453
20
130.000000000086
30
0.0
11
-835.974858438809
21
130.000000000083
31
0.0
39
0.0
210
0.0
220
0.0
230
1.0
0
LINE
5
2D
330
22
100
AcDbEntity
8
\U+865A\U+7EBF\U+5C42
62
256
6
ByLayer
370
-1
48
1.0
60
0
100
AcDbLine
10
3285.99999999453
20
122.000000000086
30
0.0
11
-835.974858438809
21
122.000000000083
31
0.0
39
0.0
210
0.0
220
0.0
230
1.0
0
LINE
5
30
330
22
100
AcDbEntity
8
\U+865A\U+7EBF\U+5C42
62
256
6
ByLayer
370
-1
48
1.0
60
0
100
AcDbLine
10
3285.99999999453
20
838.000000000086
30
0.0
11
-835.974858438809
21
838.000000000083
31
0.0
39
0.0
210
0.0
220
0.0
230
1.0
0
LINE
5
31
330
22
100
AcDbEntity
8
\U+7C97\U+5B9E\U+7EBF\U+5C42
62
256
6
ByLayer
370
-1
48
1.0
60
0
100
AcDbLine
10
-835.974858438809
20
890.000000000085
30
0.0
11
-835.974858438809
21
830.000000000213
31
0.0
39
0.0
210
0.0
220
0.0
230
1.0
0
LINE
5
32
330
22
100
AcDbEntity
8
\U+7C97\U+5B9E\U+7EBF\U+5C42
62
256
6
ByLayer
370
-1
48
1.0
60
0
100
AcDbLine
10
-835.974858438809
20
130.000000000156
30
0.0
11
-835.974858438809
21
70.0000000000837
31
0.0
39
0.0
210
0.0
220
0.0
230
1.0
0
LINE
5
33
330
22
100
AcDbEntity
8
\U+7C97\U+5B9E\U+7EBF\U+5C42
62
256
6
ByLayer
370
-1
48
1.0
60
0
100
AcDbLine
10
-640.974858438948
20
959.999999999982
30
0.0
11
-640.974858438948
21
760.00000000004
31
0.0
39
0.0
210
0.0
220
0.0
230
1.0
0
LINE
5
34
330
22
100
AcDbEntity
8
\U+7C97\U+5B9E\U+7EBF\U+5C42
62
256
6
ByLayer
370
-1
48
1.0
60
0
100
AcDbLine
10
-890.974858438773
20
960.000000000156
30
0.0
11
-890.974858438773
21
760.000000000273
31
0.0
39
0.0
210
0.0
220
0.0
230
1.0
0
LINE
5
35
330
22
100
AcDbEntity
8
\U+7C97\U+5B9E\U+7EBF\U+5C42
62
256
6
ByLayer
370
-1
48
1.0
60
0
100
AcDbLine
10
-640.974858438715
20
760.000000000084
30
0.0
11
-890.974858438831
21
760.000000000084
31
0.0
39
0.0
210
0.0
220
0.0
230
1.0
0
LINE
5
36
330
22
100
AcDbEntity
8
\U+7C97\U+5B9E\U+7EBF\U+5C42
62
256
6
ByLayer
370
-1
48
1.0
60
0
100
AcDbLine
10
-640.974858438715
20
960.000000000084
30
0.0
11
-890.974858438831
21
960.000000000084
31
0.0
39
0.0
210
0.0
220
0.0
230
1.0
0
LINE
5
37
330
22
100
AcDbEntity
8
\U+7C97\U+5B9E\U+7EBF\U+5C42
62
256
6
ByLayer
370
-1
48
1.0
60
0
100
AcDbLine
10
-890.974858438773
20
0.0
30
0.0
11
-890.974858438773
21
199.999999999884
31
0.0
39
0.0
210
0.0
220
0.0
230
1.0
0
LINE
5
38
330
22
100
AcDbEntity
8
\U+7C97\U+5B9E\U+7EBF\U+5C42
62
256
6
ByLayer
370
-1
48
1.0
60
0
100
AcDbLine
10
-640.974858438715
20
0.0000000000709406
30
0.0
11
-890.974858438831
21
0.0000000000709406
31
0.0
39
0.0
210
0.0
220
0.0
230
1.0
0
LINE
5
39
330
22
100
AcDbEntity
8
\U+7C97\U+5B9E\U+7EBF\U+5C42
62
256
6
ByLayer
370
-1
48
1.0
60
0
100
AcDbLine
10
-640.974858438948
20
0.000000000174623
30
0.0
11
-640.974858438948
21
200.000000000116
31
0.0
39
0.0
210
0.0
220
0.0
230
1.0
0
LINE
5
3A
330
22
100
AcDbEntity
8
\U+7C97\U+5B9E\U+7EBF\U+5C42
62
256
6
ByLayer
370
-1
48
1.0
60
0
100
AcDbLine
10
-640.974858438715
20
200.000000000073
30
0.0
11
-890.974858438831
21
200.000000000071
31
0.0
39
0.0
210
0.0
220
0.0
230
1.0
0
CIRCLE
5
3B
330
22
100
AcDbEntity
8
\U+7C97\U+5B9E\U+7EBF\U+5C42
62
256
6
ByLayer
370
-1
48
1.0
60
0
100
AcDbCircle
10
-765.974858438773
20
920.000000000084
30
0.0
40
12.5
39
0.0
210
0.0
220
0.0
230
1.0
0
CIRCLE
5
3C
330
22
100
AcDbEntity
8
\U+7C97\U+5B9E\U+7EBF\U+5C42
62
256
6
ByLayer
370
-1
48
1.0
60
0
100
AcDbCircle
10
-765.974858438773
20
40.0000000000709
30
0.0
40
12.5
39
0.0
210
0.0
220
0.0
230
1.0
0
LINE
5
3D
330
22
100
AcDbEntity
8
\U+4E2D\U+5FC3\U+7EBF\U+5C42
62
256
6
ByLayer
370
-1
48
1.0
60
0
100
AcDbLine
10
-765.974858438495
20
920.000000000084
30
0.0
11
-765.974858438495
21
40.0000000000709
31
0.0
39
0.0
210
0.0
220
0.0
230
1.0
0
LINE
5
40
330
22
100
AcDbEntity
8
\U+865A\U+7EBF\U+5C42
62
256
6
ByLayer
370
-1
48
1.0
60
0
100
AcDbLine
10
-835.974858438506
20
830.00000000003
30
0.0
11
-695.974858438506
21
830.000000000031
31
0.0
39
0.0
210
0.0
220
0.0
230
1.0
0
LINE
5
41
330
22
100
AcDbEntity
8
\U+865A\U+7EBF\U+5C42
62
256
6
ByLayer
370
-1
48
1.0
60
0
100
AcDbLine
10
-695.974858438506
20
830.000000000031
30
0.0
11
-695.974858438506
21
890.000000000031
31
0.0
39
0.0
210
0.0
220
0.0
230
1.0
0
LINE
5
42
330
22
100
AcDbEntity
8
\U+865A\U+7EBF\U+5C42
62
256
6
ByLayer
370
-1
48
1.0
60
0
100
AcDbLine
10
-835.974858438506
20
830.00000000003
30
0.0
11
-835.974858438506
21
890.00000000003
31
0.0
39
0.0
210
0.0
220
0.0
230
1.0
0
LINE
5
43
330
22
100
AcDbEntity
8
\U+865A\U+7EBF\U+5C42
62
256
6
ByLayer
370
-1
48
1.0
60
0
100
AcDbLine
10
-834.323786298756
20
890.00000000003
30
0.0
11
-835.974858438506
21
890.00000000003
31
0.0
39
0.0
210
0.0
220
0.0
230
1.0
0
ARC
5
44
330
22
100
AcDbEntity
8
\U+865A\U+7EBF\U+5C42
62
256
6
ByLayer
370
-1
48
1.0
60
0
100
AcDbCircle
39
0.0
10
-834.323786298756
20
884.20000000003
30
0.0
40
5.8
210
0.0
220
0.0
230
1.0
100
AcDbArc
50
5.71059313749992
51
90.0
0
LINE
5
45
330
22
100
AcDbEntity
8
\U+865A\U+7EBF\U+5C42
62
256
6
ByLayer
370
-1
48
1.0
60
0
100
AcDbLine
10
-828.552570595538
20
884.777121570352
30
0.0
11
-824.730329905436
21
846.554714669331
31
0.0
39
0.0
210
0.0
220
0.0
230
1.0
0
LINE
5
46
330
22
100
AcDbEntity
8
\U+865A\U+7EBF\U+5C42
62
256
6
ByLayer
370
-1
48
1.0
60
0
100
AcDbLine
10
-815.277476598441
20
838.00000000003
30
0.0
11
-716.672240278571
21
838.000000000031
31
0.0
39
0.0
210
0.0
220
0.0
230
1.0
0
LINE
5
47
330
22
100
AcDbEntity
8
\U+865A\U+7EBF\U+5C42
62
256
6
ByLayer
370
-1
48
1.0
60
0
100
AcDbLine
10
-697.625930578256
20
890.000000000031
30
0.0
11
-695.974858438506
21
890.000000000031
31
0.0
39
0.0
210
0.0
220
0.0
230
1.0
0
ARC
5
48
330
22
100
AcDbEntity
8
\U+865A\U+7EBF\U+5C42
62
256
6
ByLayer
370
-1
48
1.0
60
0
100
AcDbCircle
39
0.0
10
-697.625930578256
20
884.200000000031
30
0.0
40
5.8
210
0.0
220
0.0
230
1.0
100
AcDbArc
50
90.0
51
174.289406862501
0
LINE
5
49
330
22
100
AcDbEntity
8
\U+865A\U+7EBF\U+5C42
62
256
6
ByLayer
370
-1
48
1.0
60
0
100
AcDbLine
10
-707.219386971576
20
846.554714669331
30
0.0
11
-703.397146281474
21
884.777121570352
31
0.0
39
0.0
210
0.0
220
0.0
230
1.0
0
ARC
5
4A
330
22
100
AcDbEntity
8
\U+865A\U+7EBF\U+5C42
62
256
6
ByLayer
370
-1
48
1.0
60
0
100
AcDbCircle
39
0.0
10
-815.277476598441
20
847.50000000003
30
0.0
40
9.49999999999999
210
0.0
220
0.0
230
1.0
100
AcDbArc
50
185.7105931375
51
270.0
0
ARC
5
4B
330
22
100
AcDbEntity
8
\U+865A\U+7EBF\U+5C42
62
256
6
ByLayer
370
-1
48
1.0
60
0
100
AcDbCircle
39
0.0
10
-716.672240278571
20
847.500000000031
30
0.0
40
9.5
210
0.0
220
0.0
230
1.0
100
AcDbArc
50
270.0
51
354.289406862501
0
LINE
5
4C
330
22
100
AcDbEntity
8
\U+4E2D\U+5FC3\U+7EBF\U+5C42
62
256
6
\U+70B9\U+753B\U+7EBF
370
18
48
1.0
60
0
100
AcDbLine
10
-765.974858438506
20
893.00000000003
30
0.0
11
-765.974858438506
21
827.00000000003
31
0.0
39
0.0
210
0.0
220
0.0
230
1.0
0
LINE
5
4D
330
22
100
AcDbEntity
8
\U+865A\U+7EBF\U+5C42
62
256
6
ByLayer
370
-1
48
1.0
60
0
100
AcDbLine
10
-835.974858438506
20
130.000000000085
30
0.0
11
-695.974858438506
21
130.000000000138
31
0.0
39
0.0
210
0.0
220
0.0
230
1.0
0
LINE
5
4E
330
22
100
AcDbEntity
8
\U+865A\U+7EBF\U+5C42
62
256
6
ByLayer
370
-1
48
1.0
60
0
100
AcDbLine
10
-695.974858438506
20
130.000000000138
30
0.0
11
-695.974858438483
21
70.0000000001382
31
0.0
39
0.0
210
0.0
220
0.0
230
1.0
0
LINE
5
4F
330
22
100
AcDbEntity
8
\U+865A\U+7EBF\U+5C42
62
256
6
ByLayer
370
-1
48
1.0
60
0
100
AcDbLine
10
-835.974858438506
20
130.000000000085
30
0.0
11
-835.974858438483
21
70.0000000000847
31
0.0
39
0.0
210
0.0
220
0.0
230
1.0
0
LINE
5
50
330
22
100
AcDbEntity
8
\U+865A\U+7EBF\U+5C42
62
256
6
ByLayer
370
-1
48
1.0
60
0
100
AcDbLine
10
-834.323786298733
20
70.0000000000853
30
0.0
11
-835.974858438483
21
70.0000000000847
31
0.0
39
0.0
210
0.0
220
0.0
230
1.0
0
ELLIPSE
5
51
330
22
100
AcDbEntity
8
\U+865A\U+7EBF\U+5C42
62
256
6
ByLayer
370
-1
48
1.0
60
0
100
AcDbEllipse
10
-834.323786298735
20
75.8000000000855
30
0.0
11
4.09772559622688
21
4.10471009188426
31
0.0
210
0.0
220
0.0
230
1.0
40
0.999999999995721
41
-2.35704600481729
42
-0.885918330517792
0
LINE
5
52
330
22
100
AcDbEntity
8
\U+865A\U+7EBF\U+5C42
62
256
6
ByLayer
370
-1
48
1.0
60
0
100
AcDbLine
10
-828.552570595517
20
75.2228784297656
30
0.0
11
-824.730329905429
21
113.445285330788
31
0.0
39
0.0
210
0.0
220
0.0
230
1.0
0
LINE
5
53
330
22
100
AcDbEntity
8
\U+865A\U+7EBF\U+5C42
62
256
6
ByLayer
370
-1
48
1.0
60
0
100
AcDbLine
10
-815.277476598438
20
122.000000000093
30
0.0
11
-716.672240278568
21
122.00000000013
31
0.0
39
0.0
210
0.0
220
0.0
230
1.0
0
LINE
5
54
330
22
100
AcDbEntity
8
\U+865A\U+7EBF\U+5C42
62
256
6
ByLayer
370
-1
48
1.0
60
0
100
AcDbLine
10
-697.625930578233
20
70.0000000001376
30
0.0
11
-695.974858438483
21
70.0000000001382
31
0.0
39
0.0
210
0.0
220
0.0
230
1.0
0
ELLIPSE
5
55
330
22
100
AcDbEntity
8
\U+865A\U+7EBF\U+5C42
62
256
6
ByLayer
370
-1
48
1.0
60
0
100
AcDbEllipse
10
-697.625930578235
20
75.8000000001378
30
0.0
11
4.09422061217693
21
4.10820612664784
31
0.0
210
0.0
220
0.0
230
1.0
40
0.999999999997863
41
2.4541580983876
42
-2.35789953448613
0
LINE
5
56
330
22
100
AcDbEntity
8
\U+865A\U+7EBF\U+5C42
62
256
6
ByLayer
370
-1
48
1.0
60
0
100
AcDbLine
10
-707.219386971569
20
113.445285330834
30
0.0
11
-703.397146281452
21
75.2228784298139
31
0.0
39
0.0
210
0.0
220
0.0
230
1.0
0
ELLIPSE
5
57
330
22
100
AcDbEntity
8
\U+865A\U+7EBF\U+5C42
62
256
6
ByLayer
370
-1
48
1.0
60
0
100
AcDbEllipse
10
-815.277476598434
20
112.500000000093
30
0.0
11
6.72451892315792
21
6.71050260802175
31
0.0
210
0.0
220
0.0
230
1.0
40
0.999999999999283
41
0.786441430059024
42
2.25756910436205
0
ELLIPSE
5
58
330
22
100
AcDbEntity
8
\U+865A\U+7EBF\U+5C42
62
256
6
ByLayer
370
-1
48
1.0
60
0
100
AcDbEllipse
10
-716.672240278564
20
112.50000000013
30
0.0
11
6.71751442127337
21
-6.71751442127337
31
0.0
210
0.0
220
0.0
230
1.0
40
0.999999999998329
41
0.885066815889812
42
2.3561944901919
0
LINE
5
59
330
22
100
AcDbEntity
8
\U+4E2D\U+5FC3\U+7EBF\U+5C42
62
256
6
\U+70B9\U+753B\U+7EBF
370
18
48
1.0
60
0
100
AcDbLine
10
-765.974858438482
20
67.0000000001117
30
0.0
11
-765.974858438507
21
133.000000000112
31
0.0
39
0.0
210
0.0
220
0.0
230
1.0
0
LINE
5
5A
330
22
100
AcDbEntity
8
AM_8
62
256
6
ByLayer
370
-1
48
1.0
60
0
100
AcDbLine
10
769.974143261752
20
623.462660206161
30
0.0
11
754.237783849298
21
637.124920920283
31
0.0
39
0.0
210
0.0
220
0.0
230
-1.0
0
LINE
5
5C
330
22
100
AcDbEntity
8
AM_8
62
256
6
ByLayer
370
-1
48
1.0
60
0
100
AcDbLine
10
764.176123971228
20
578.040716475103
30
0.0
11
740.201163853567
21
598.855705962319
31
0.0
39
0.0
210
0.0
220
0.0
230
-1.0
0
LINE
5
5D
330
22
100
AcDbEntity
8
AM_8
62
256
6
ByLayer
370
-1
48
1.0
60
0
100
AcDbLine
10
744.448399183963
20
574.689938179837
30
0.0
11
803.927869590584
21
643.199121511236
31
0.0
39
0.0
210
0.0
220
0.0
230
-1.0
0
LINE
5
5E
330
22
100
AcDbEntity
8
AM_8
62
256
6
ByLayer
370
-1
48
1.0
60
0
100
AcDbLine
10
724.683806062329
20
571.296694485135
30
0.0
11
785.388337226832
21
641.216917818615
31
0.0
39
0.0
210
0.0
220
0.0
230
-1.0
0
LINE
5
5F
330
22
100
AcDbEntity
8
AM_8
62
256
6
ByLayer
370
-1
48
1.0
60
0
100
AcDbLine
10
704.250384619823
20
567.133086129413
30
0.0
11
766.438186927763
21
638.761759353363
31
0.0
39
0.0
210
0.0
220
0.0
230
-1.0
0
LINE
5
60
330
22
100
AcDbEntity
8
AM_8
62
256
6
ByLayer
370
-1
48
1.0
60
0
100
AcDbLine
10
742.468179372704
20
630.524667748849
30
0.0
11
737.270665129227
21
635.037134247502
31
0.0
39
0.0
210
0.0
220
0.0
230
-1.0
0
LINE
5
61
330
22
100
AcDbEntity
8
AM_8
62
256
6
ByLayer
370
-1
48
1.0
60
0
100
AcDbLine
10
753.322151671994
20
604.282692111993
30
0.0
11
729.347191554273
21
625.097681599234
31
0.0
39
0.0
210
0.0
220
0.0
230
-1.0
0
LINE
5
62
330
22
100
AcDbEntity
8
AM_8
62
256
6
ByLayer
370
-1
48
1.0
60
0
100
AcDbLine
10
725.816187782946
20
611.344699654681
30
0.0
11
701.841227665227
21
632.159689141893
31
0.0
39
0.0
210
0.0
220
0.0
230
-1.0
0
LINE
5
63
330
22
100
AcDbEntity
8
AM_8
62
256
6
ByLayer
370
-1
48
1.0
60
0
100
AcDbLine
10
698.310223893898
20
618.40670719737
30
0.0
11
683.510017491633
21
631.256202635896
31
0.0
39
0.0
210
0.0
220
0.0
230
-1.0
0
LINE
5
64
330
22
100
AcDbEntity
8
AM_8
62
256
6
ByLayer
370
-1
48
1.0
60
0
100
AcDbLine
10
736.67016008218
20
585.102724017792
30
0.0
11
712.695199964459
21
605.917713505032
31
0.0
39
0.0
210
0.0
220
0.0
230
-1.0
0
LINE
5
65
330
22
100
AcDbEntity
8
AM_8
62
256
6
ByLayer
370
-1
48
1.0
60
0
100
AcDbLine
10
670.804260004789
20
625.468714740084
30
0.0
11
669.19269137148
21
626.86787386253
31
0.0
39
0.0
210
0.0
220
0.0
230
-1.0
0
LINE
5
66
330
22
100
AcDbEntity
8
AM_8
62
256
6
ByLayer
370
-1
48
1.0
60
0
100
AcDbLine
10
709.164196193129
20
592.164731560509
30
0.0
11
685.189236075409
21
612.97972104775
31
0.0
39
0.0
210
0.0
220
0.0
230
-1.0
0
LINE
5
67
330
22
100
AcDbEntity
8
AM_8
62
256
6
ByLayer
370
-1
48
1.0
60
0
100
AcDbLine
10
731.778650982697
20
572.530928776608
30
0.0
11
723.549172263807
21
579.67573786818
31
0.0
39
0.0
210
0.0
220
0.0
230
-1.0
0
LINE
5
68
330
22
100
AcDbEntity
8
AM_8
62
256
6
ByLayer
370
-1
48
1.0
60
0
100
AcDbLine
10
681.658232304081
20
599.226739103198
30
0.0
11
659.275959344902
21
618.65896230845
31
0.0
39
0.0
210
0.0
220
0.0
230
-1.0
0
LINE
5
69
330
22
100
AcDbEntity
8
AM_8
62
256
6
ByLayer
370
-1
48
1.0
60
0
100
AcDbLine
10
715.768604979203
20
569.612214401053
30
0.0
11
696.043208374701
21
586.737745410864
31
0.0
39
0.0
210
0.0
220
0.0
230
-1.0
0
LINE
5
6A
330
22
100
AcDbEntity
8
AM_8
62
256
6
ByLayer
370
-1
48
1.0
60
0
100
AcDbLine
10
654.152268414975
20
606.288746645883
30
0.0
11
653.72514452552
21
606.659574343936
31
0.0
39
0.0
210
0.0
220
0.0
230
-1.0
0
LINE
5
6B
330
22
100
AcDbEntity
8
AM_8
62
256
6
ByLayer
370
-1
48
1.0
60
0
100
AcDbLine
10
692.512204603373
20
572.984763466312
30
0.0
11
668.537244485653
21
593.799752953553
31
0.0
39
0.0
210
0.0
220
0.0
230
-1.0
0
LINE
5
6C
330
22
100
AcDbEntity
8
AM_8
62
256
6
ByLayer
370
-1
48
1.0
60
0
100
AcDbLine
10
665.006240714323
20
580.04677100903
30
0.0
11
655.228412741541
21
588.535852344787
31
0.0
39
0.0
210
0.0
220
0.0
230
-1.0
0
LINE
5
6D
330
22
100
AcDbEntity
8
AM_8
62
256
6
ByLayer
370
-1
48
1.0
60
0
100
AcDbLine
10
683.650571030046
20
563.859818554739
30
0.0
11
679.391216784885
21
567.557777316692
31
0.0
39
0.0
210
0.0
220
0.0
230
-1.0
0
LINE
5
6E
330
22
100
AcDbEntity
8
AM_8
62
256
6
ByLayer
370
-1
48
1.0
60
0
100
AcDbLine
10
684.639301743055
20
563.916657416973
30
0.0
11
747.435401952258
21
636.24597562231
31
0.0
39
0.0
210
0.0
220
0.0
230
-1.0
0
LINE
5
6F
330
22
100
AcDbEntity
8
AM_8
62
256
6
ByLayer
370
-1
48
1.0
60
0
100
AcDbLine
10
669.45781421958
20
565.802290946618
30
0.0
11
728.802813477726
21
634.156588760395
31
0.0
39
0.0
210
0.0
220
0.0
230
-1.0
0
LINE
5
70
330
22
100
AcDbEntity
8
AM_8
62
256
6
ByLayer
370
-1
48
1.0
60
0
100
AcDbLine
10
660.36633247982
20
574.702467811648
30
0.0
11
710.798956128545
21
632.791382117915
31
0.0
39
0.0
210
0.0
220
0.0
230
-1.0
0
LINE
5
71
330
22
100
AcDbEntity
8
AM_8
62
256
6
ByLayer
370
-1
48
1.0
60
0
100
AcDbLine
10
655.291166017617
20
588.228685859933
30
0.0
11
693.256957555599
21
631.958150076963
31
0.0
39
0.0
210
0.0
220
0.0
230
-1.0
0
LINE
5
72
330
22
100
AcDbEntity
8
AM_8
62
256
6
ByLayer
370
-1
48
1.0
60
0
100
AcDbLine
10
653.592826120017
20
605.644374150858
30
0.0
11
673.926917721854
21
629.065430187533
31
0.0
39
0.0
210
0.0
220
0.0
230
-1.0
0
LINE
5
73
330
22
100
AcDbEntity
8
AM_8
62
256
6
ByLayer
370
-1
48
1.0
60
0
100
AcDbLine
10
912.485950393945
20
617.464453470612
30
0.0
11
900.180994179212
21
628.147580074023
31
0.0
39
0.0
210
0.0
220
0.0
230
-1.0
0
LINE
5
74
330
22
100
AcDbEntity
8
AM_8
62
256
6
ByLayer
370
-1
48
1.0
60
0
100
AcDbLine
10
896.649990407824
20
614.394598129495
30
0.0
11
872.675030290104
21
635.209587616736
31
0.0
39
0.0
210
0.0
220
0.0
230
-1.0
0
LINE
5
75
330
22
100
AcDbEntity
8
AM_8
62
256
6
ByLayer
370
-1
48
1.0
60
0
100
AcDbLine
10
921.216864647673
20
593.065710551595
30
0.0
11
911.034966478502
21
601.905604437166
31
0.0
39
0.0
210
0.0
220
0.0
230
-1.0
0
LINE
5
76
330
22
100
AcDbEntity
8
AM_8
62
256
6
ByLayer
370
-1
48
1.0
60
0
100
AcDbLine
10
869.144026518774
20
621.456605672213
30
0.0
11
845.169066401056
21
642.271595159425
31
0.0
39
0.0
210
0.0
220
0.0
230
-1.0
0
LINE
5
77
330
22
100
AcDbEntity
8
AM_8
62
256
6
ByLayer
370
-1
48
1.0
60
0
100
AcDbLine
10
907.503962707114
20
588.152622492639
30
0.0
11
883.529002589454
21
608.967611979855
31
0.0
39
0.0
210
0.0
220
0.0
230
-1.0
0
LINE
5
78
330
22
100
AcDbEntity
8
AM_8
62
256
6
ByLayer
370
-1
48
1.0
60
0
100
AcDbLine
10
841.638062629726
20
628.518613214902
30
0.0
11
823.305424325058
21
644.434955586723
31
0.0
39
0.0
210
0.0
220
0.0
230
-1.0
0
LINE
5
79
330
22
100
AcDbEntity
8
AM_8
62
256
6
ByLayer
370
-1
48
1.0
60
0
100
AcDbLine
10
879.997998818066
20
595.214630035327
30
0.0
11
856.023038700344
21
616.029619522597
31
0.0
39
0.0
210
0.0
220
0.0
230
-1.0
0
LINE
5
7A
330
22
100
AcDbEntity
8
AM_8
62
256
6
ByLayer
370
-1
48
1.0
60
0
100
AcDbLine
10
906.930985617363
20
571.831490529219
30
0.0
11
894.382974888686
21
582.725636342994
31
0.0
39
0.0
210
0.0
220
0.0
230
-1.0
0
LINE
5
7B
330
22
100
AcDbEntity
8
AM_8
62
256
6
ByLayer
370
-1
48
1.0
60
0
100
AcDbLine
10
814.132098740618
20
635.580620757615
30
0.0
11
805.227145695415
21
643.311874662167
31
0.0
39
0.0
210
0.0
220
0.0
230
-1.0
0
LINE
5
7C
330
22
100
AcDbEntity
8
AM_8
62
256
6
ByLayer
370
-1
48
1.0
60
0
100
AcDbLine
10
852.492034929016
20
602.276637578045
30
0.0
11
828.517074811238
21
623.091627065282
31
0.0
39
0.0
210
0.0
220
0.0
230
-1.0
0
LINE
5
7D
330
22
100
AcDbEntity
8
AM_8
62
256
6
ByLayer
370
-1
48
1.0
60
0
100
AcDbLine
10
890.851971117298
20
568.972654398467
30
0.0
11
866.877010999638
21
589.787643885683
31
0.0
39
0.0
210
0.0
220
0.0
230
-1.0
0
LINE
5
7E
330
22
100
AcDbEntity
8
AM_8
62
256
6
ByLayer
370
-1
48
1.0
60
0
100
AcDbLine
10
824.986071039968
20
609.338645120734
30
0.0
11
801.011110922248
21
630.153634607974
31
0.0
39
0.0
210
0.0
220
0.0
230
-1.0
0
LINE
5
7F
330
22
100
AcDbEntity
8
AM_8
62
256
6
ByLayer
370
-1
48
1.0
60
0
100
AcDbLine
10
863.34600722825
20
576.034661941155
30
0.0
11
839.37104711053
21
596.849651428396
31
0.0
39
0.0
210
0.0
220
0.0
230
-1.0
0
LINE
5
80
330
22
100
AcDbEntity
8
AM_8
62
256
6
ByLayer
370
-1
48
1.0
60
0
100
AcDbLine
10
881.482989978556
20
560.288187143135
30
0.0
11
877.730983298928
21
563.545668248826
31
0.0
39
0.0
210
0.0
220
0.0
230
-1.0
0
LINE
5
81
330
22
100
AcDbEntity
8
AM_8
62
256
6
ByLayer
370
-1
48
1.0
60
0
100
AcDbLine
10
797.480107150802
20
616.400652663443
30
0.0
11
773.505147033142
21
637.215642150659
31
0.0
39
0.0
210
0.0
220
0.0
230
-1.0
0
LINE
5
82
330
22
100
AcDbEntity
8
AM_8
62
256
6
ByLayer
370
-1
48
1.0
60
0
100
AcDbLine
10
835.8400433392
20
583.096669483873
30
0.0
11
811.865083221482
21
603.911658971085
31
0.0
39
0.0
210
0.0
220
0.0
230
-1.0
0
LINE
5
83
330
22
100
AcDbEntity
8
AM_8
62
256
6
ByLayer
370
-1
48
1.0
60
0
100
AcDbLine
10
865.370080981244
20
557.458778114786
30
0.0
11
850.225019409822
21
570.60767579151
31
0.0
39
0.0
210
0.0
220
0.0
230
-1.0
0
LINE
5
84
330
22
100
AcDbEntity
8
AM_8
62
256
6
ByLayer
370
-1
48
1.0
60
0
100
AcDbLine
10
808.334079450152
20
590.158677026562
30
0.0
11
784.359119332432
21
610.973666513802
31
0.0
39
0.0
210
0.0
220
0.0
230
-1.0
0
LINE
5
85
330
22
100
AcDbEntity
8
AM_8
62
256
6
ByLayer
370
-1
48
1.0
60
0
100
AcDbLine
10
846.694015638492
20
556.854693846987
30
0.0
11
822.719055520712
21
577.669683334253
31
0.0
39
0.0
210
0.0
220
0.0
230
-1.0
0
LINE
5
86
330
22
100
AcDbEntity
8
AM_8
62
256
6
ByLayer
370
-1
48
1.0
60
0
100
AcDbLine
10
780.828115561044
20
597.220684569275
30
0.0
11
756.853155443382
21
618.03567405652
31
0.0
39
0.0
210
0.0
220
0.0
230
-1.0
0
LINE
5
87
330
22
100
AcDbEntity
8
AM_8
62
256
6
ByLayer
370
-1
48
1.0
60
0
100
AcDbLine
10
819.188051749386
20
563.916701389672
30
0.0
11
795.213091631666
21
584.731690876913
31
0.0
39
0.0
210
0.0
220
0.0
230
-1.0
0
LINE
5
88
330
22
100
AcDbEntity
8
AM_8
62
256
6
ByLayer
370
-1
48
1.0
60
0
100
AcDbLine
10
791.682087860334
20
570.978708932419
30
0.0
11
767.707127742616
21
591.79369841963
31
0.0
39
0.0
210
0.0
220
0.0
230
-1.0
0
LINE
5
89
330
22
100
AcDbEntity
8
AM_8
62
256
6
ByLayer
370
-1
48
1.0
60
0
100
AcDbLine
10
883.881626382066
20
560.944125864401
30
0.0
11
920.344453496486
21
602.942457229502
31
0.0
39
0.0
210
0.0
220
0.0
230
-1.0
0
LINE
5
8A
330
22
100
AcDbEntity
8
AM_8
62
256
6
ByLayer
370
-1
48
1.0
60
0
100
AcDbLine
10
863.916688180689
20
557.320122250224
30
0.0
11
914.197618720499
21
615.234314573571
31
0.0
39
0.0
210
0.0
220
0.0
230
-1.0
0
LINE
5
8B
330
22
100
AcDbEntity
8
AM_8
62
256
6
ByLayer
370
-1
48
1.0
60
0
100
AcDbLine
10
846.684820947506
20
556.844103289136
30
0.0
11
905.561230624113
21
624.658673877211
31
0.0
39
0.0
210
0.0
220
0.0
230
-1.0
0
LINE
5
8C
330
22
100
AcDbEntity
8
AM_8
62
256
6
ByLayer
370
-1
48
1.0
60
0
100
AcDbLine
10
830.630678869906
20
557.724602603271
30
0.0
11
895.289257566721
21
632.199146367685
31
0.0
39
0.0
210
0.0
220
0.0
230
-1.0
0
LINE
5
8D
330
22
100
AcDbEntity
8
AM_8
62
256
6
ByLayer
370
-1
48
1.0
60
0
100
AcDbLine
10
816.289580137057
20
560.578206246551
30
0.0
11
883.381086276955
21
637.855025671635
31
0.0
39
0.0
210
0.0
220
0.0
230
-1.0
0
LINE
5
8E
330
22
100
AcDbEntity
8
AM_8
62
256
6
ByLayer
370
-1
48
1.0
60
0
100
AcDbLine
10
803.30395773347
20
564.993064146201
30
0.0
11
869.666191169409
21
641.429898328834
31
0.0
39
0.0
210
0.0
220
0.0
230
-1.0
0
LINE
5
8F
330
22
100
AcDbEntity
8
AM_8
62
256
6
ByLayer
370
-1
48
1.0
60
0
100
AcDbLine
10
790.549797046645
20
569.674522489322
30
0.0
11
854.513798554536
21
643.349043730989
31
0.0
39
0.0
210
0.0
220
0.0
230
-1.0
0
LINE
5
90
330
22
100
AcDbEntity
8
AM_8
62
256
6
ByLayer
370
-1
48
1.0
60
0
100
AcDbLine
10
777.064143324496
20
573.513438185164
30
0.0
11
838.64421786645
21
644.442123116564
31
0.0
39
0.0
210
0.0
220
0.0
230
-1.0
0
LINE
5
91
330
22
100
AcDbEntity
8
AM_8
62
256
6
ByLayer
370
-1
48
1.0
60
0
100
AcDbLine
10
761.983506785507
20
575.515233115402
30
0.0
11
821.768924859845
21
644.376810721904
31
0.0
39
0.0
210
0.0
220
0.0
230
-1.0
0
LINE
5
92
330
22
100
AcDbEntity
8
AM_8
62
256
6
ByLayer
370
-1
48
1.0
60
0
100
AcDbLine
10
517.093000584747
20
280.169403824389
30
0.0
11
501.356641172294
21
266.507143110267
31
0.0
39
0.0
210
0.0
220
0.0
230
1.0
0
LINE
5
93
330
22
100
AcDbEntity
8
AM_8
62
256
6
ByLayer
370
-1
48
1.0
60
0
100
AcDbLine
10
511.294981294223
20
325.591347555446
30
0.0
11
487.320021176563
21
304.776358068231
31
0.0
39
0.0
210
0.0
220
0.0
230
1.0
0
LINE
5
94
330
22
100
AcDbEntity
8
AM_8
62
256
6
ByLayer
370
-1
48
1.0
60
0
100
AcDbLine
10
491.567256506958
20
328.942125850713
30
0.0
11
551.046726913579
21
260.432942519313
31
0.0
39
0.0
210
0.0
220
0.0
230
1.0
0
LINE
5
95
330
22
100
AcDbEntity
8
AM_8
62
256
6
ByLayer
370
-1
48
1.0
60
0
100
AcDbLine
10
471.802663385325
20
332.335369545414
30
0.0
11
532.507194549828
21
262.415146211934
31
0.0
39
0.0
210
0.0
220
0.0
230
1.0
0
LINE
5
96
330
22
100
AcDbEntity
8
AM_8
62
256
6
ByLayer
370
-1
48
1.0
60
0
100
AcDbLine
10
451.369241942819
20
336.498977901137
30
0.0
11
513.557044250759
21
264.870304677186
31
0.0
39
0.0
210
0.0
220
0.0
230
1.0
0
LINE
5
97
330
22
100
AcDbEntity
8
AM_8
62
256
6
ByLayer
370
-1
48
1.0
60
0
100
AcDbLine
10
489.587036695699
20
273.1073962817
30
0.0
11
484.389522452223
21
268.594929783047
31
0.0
39
0.0
210
0.0
220
0.0
230
1.0
0
LINE
5
98
330
22
100
AcDbEntity
8
AM_8
62
256
6
ByLayer
370
-1
48
1.0
60
0
100
AcDbLine
10
500.441008994989
20
299.349371918557
30
0.0
11
476.466048877269
21
278.534382431316
31
0.0
39
0.0
210
0.0
220
0.0
230
1.0
0
LINE
5
99
330
22
100
AcDbEntity
8
AM_8
62
256
6
ByLayer
370
-1
48
1.0
60
0
100
AcDbLine
10
472.935045105941
20
292.287364375868
30
0.0
11
448.960084988223
21
271.472374888656
31
0.0
39
0.0
210
0.0
220
0.0
230
1.0
0
LINE
5
9A
330
22
100
AcDbEntity
8
AM_8
62
256
6
ByLayer
370
-1
48
1.0
60
0
100
AcDbLine
10
445.429081216893
20
285.225356833179
30
0.0
11
430.628874814628
21
272.375861394654
31
0.0
39
0.0
210
0.0
220
0.0
230
1.0
0
LINE
5
9B
330
22
100
AcDbEntity
8
AM_8
62
256
6
ByLayer
370
-1
48
1.0
60
0
100
AcDbLine
10
483.789017405175
20
318.529340012758
30
0.0
11
459.814057287455
21
297.714350525517
31
0.0
39
0.0
210
0.0
220
0.0
230
1.0
0
LINE
5
9C
330
22
100
AcDbEntity
8
AM_8
62
256
6
ByLayer
370
-1
48
1.0
60
0
100
AcDbLine
10
417.923117327785
20
278.163349290466
30
0.0
11
416.311548694475
21
276.764190168019
31
0.0
39
0.0
210
0.0
220
0.0
230
1.0
0
LINE
5
9D
330
22
100
AcDbEntity
8
AM_8
62
256
6
ByLayer
370
-1
48
1.0
60
0
100
AcDbLine
10
456.283053516125
20
311.46733247004
30
0.0
11
432.308093398405
21
290.652342982799
31
0.0
39
0.0
210
0.0
220
0.0
230
1.0
0
LINE
5
9E
330
22
100
AcDbEntity
8
AM_8
62
256
6
ByLayer
370
-1
48
1.0
60
0
100
AcDbLine
10
478.897508305693
20
331.101135253942
30
0.0
11
470.668029586803
21
323.95632616237
31
0.0
39
0.0
210
0.0
220
0.0
230
1.0
0
LINE
5
9F
330
22
100
AcDbEntity
8
AM_8
62
256
6
ByLayer
370
-1
48
1.0
60
0
100
AcDbLine
10
428.777089627077
20
304.405324927352
30
0.0
11
406.394816667898
21
284.973101722099
31
0.0
39
0.0
210
0.0
220
0.0
230
1.0
0
LINE
5
A0
330
22
100
AcDbEntity
8
AM_8
62
256
6
ByLayer
370
-1
48
1.0
60
0
100
AcDbLine
10
462.887462302198
20
334.019849629496
30
0.0
11
443.162065697697
21
316.894318619685
31
0.0
39
0.0
210
0.0
220
0.0
230
1.0
0
LINE
5
A1
330
22
100
AcDbEntity
8
AM_8
62
256
6
ByLayer
370
-1
48
1.0
60
0
100
AcDbLine
10
401.271125737971
20
297.343317384667
30
0.0
11
400.844001848515
21
296.972489686613
31
0.0
39
0.0
210
0.0
220
0.0
230
1.0
0
LINE
5
A2
330
22
100
AcDbEntity
8
AM_8
62
256
6
ByLayer
370
-1
48
1.0
60
0
100
AcDbLine
10
439.631061926369
20
330.647300564237
30
0.0
11
415.656101808649
21
309.832311076997
31
0.0
39
0.0
210
0.0
220
0.0
230
1.0
0
LINE
5
A3
330
22
100
AcDbEntity
8
AM_8
62
256
6
ByLayer
370
-1
48
1.0
60
0
100
AcDbLine
10
412.125098037319
20
323.585293021519
30
0.0
11
402.347270064536
21
315.096211685762
31
0.0
39
0.0
210
0.0
220
0.0
230
1.0
0
LINE
5
A4
330
22
100
AcDbEntity
8
AM_8
62
256
6
ByLayer
370
-1
48
1.0
60
0
100
AcDbLine
10
430.769428353041
20
339.77224547581
30
0.0
11
426.510074107881
21
336.074286713857
31
0.0
39
0.0
210
0.0
220
0.0
230
1.0
0
LINE
5
A5
330
22
100
AcDbEntity
8
AM_8
62
256
6
ByLayer
370
-1
48
1.0
60
0
100
AcDbLine
10
431.75815906605
20
339.715406613576
30
0.0
11
494.554259275253
21
267.38608840824
31
0.0
39
0.0
210
0.0
220
0.0
230
1.0
0
LINE
5
A6
330
22
100
AcDbEntity
8
AM_8
62
256
6
ByLayer
370
-1
48
1.0
60
0
100
AcDbLine
10
416.576671542576
20
337.829773083932
30
0.0
11
475.921670800722
21
269.475475270154
31
0.0
39
0.0
210
0.0
220
0.0
230
1.0
0
LINE
5
A7
330
22
100
AcDbEntity
8
AM_8
62
256
6
ByLayer
370
-1
48
1.0
60
0
100
AcDbLine
10
407.485189802816
20
328.929596218902
30
0.0
11
457.917813451541
21
270.840681912634
31
0.0
39
0.0
210
0.0
220
0.0
230
1.0
0
LINE
5
A8
330
22
100
AcDbEntity
8
AM_8
62
256
6
ByLayer
370
-1
48
1.0
60
0
100
AcDbLine
10
402.410023340612
20
315.403378170616
30
0.0
11
440.375814878594
21
271.673913953586
31
0.0
39
0.0
210
0.0
220
0.0
230
1.0
0
LINE
5
A9
330
22
100
AcDbEntity
8
AM_8
62
256
6
ByLayer
370
-1
48
1.0
60
0
100
AcDbLine
10
400.711683443012
20
297.987689879691
30
0.0
11
421.045775044849
21
274.566633843017
31
0.0
39
0.0
210
0.0
220
0.0
230
1.0
0
LINE
5
AA
330
22
100
AcDbEntity
8
AM_8
62
256
6
ByLayer
370
-1
48
1.0
60
0
100
AcDbLine
10
659.604807716941
20
286.167610559937
30
0.0
11
647.299851502208
21
275.484483956527
31
0.0
39
0.0
210
0.0
220
0.0
230
1.0
0
LINE
5
AB
330
22
100
AcDbEntity
8
AM_8
62
256
6
ByLayer
370
-1
48
1.0
60
0
100
AcDbLine
10
643.76884773082
20
289.237465901054
30
0.0
11
619.7938876131
21
268.422476413813
31
0.0
39
0.0
210
0.0
220
0.0
230
1.0
0
LINE
5
AC
330
22
100
AcDbEntity
8
AM_8
62
256
6
ByLayer
370
-1
48
1.0
60
0
100
AcDbLine
10
668.335721970669
20
310.566353478955
30
0.0
11
658.153823801498
21
301.726459593383
31
0.0
39
0.0
210
0.0
220
0.0
230
1.0
0
LINE
5
AD
330
22
100
AcDbEntity
8
AM_8
62
256
6
ByLayer
370
-1
48
1.0
60
0
100
AcDbLine
10
616.26288384177
20
282.175458358336
30
0.0
11
592.287923724051
21
261.360468871125
31
0.0
39
0.0
210
0.0
220
0.0
230
1.0
0
LINE
5
AE
330
22
100
AcDbEntity
8
AM_8
62
256
6
ByLayer
370
-1
48
1.0
60
0
100
AcDbLine
10
654.62282003011
20
315.47944153791
30
0.0
11
630.64785991245
21
294.664452050695
31
0.0
39
0.0
210
0.0
220
0.0
230
1.0
0
LINE
5
AF
330
22
100
AcDbEntity
8
AM_8
62
256
6
ByLayer
370
-1
48
1.0
60
0
100
AcDbLine
10
588.756919952722
20
275.113450815648
30
0.0
11
570.424281648054
21
259.197108443827
31
0.0
39
0.0
210
0.0
220
0.0
230
1.0
0
LINE
5
B0
330
22
100
AcDbEntity
8
AM_8
62
256
6
ByLayer
370
-1
48
1.0
60
0
100
AcDbLine
10
627.116856141062
20
308.417433995222
30
0.0
11
603.141896023339
21
287.602444507952
31
0.0
39
0.0
210
0.0
220
0.0
230
1.0
0
LINE
5
B1
330
22
100
AcDbEntity
8
AM_8
62
256
6
ByLayer
370
-1
48
1.0
60
0
100
AcDbLine
10
654.049842940359
20
331.80057350133
30
0.0
11
641.501832211682
21
320.906427687555
31
0.0
39
0.0
210
0.0
220
0.0
230
1.0
0
LINE
5
B2
330
22
100
AcDbEntity
8
AM_8
62
256
6
ByLayer
370
-1
48
1.0
60
0
100
AcDbLine
10
561.250956063614
20
268.051443272934
30
0.0
11
552.34600301841
21
260.320189368383
31
0.0
39
0.0
210
0.0
220
0.0
230
1.0
0
LINE
5
B3
330
22
100
AcDbEntity
8
AM_8
62
256
6
ByLayer
370
-1
48
1.0
60
0
100
AcDbLine
10
599.610892252012
20
301.355426452504
30
0.0
11
575.635932134233
21
280.540436965268
31
0.0
39
0.0
210
0.0
220
0.0
230
1.0
0
LINE
5
B4
330
22
100
AcDbEntity
8
AM_8
62
256
6
ByLayer
370
-1
48
1.0
60
0
100
AcDbLine
10
637.970828440294
20
334.659409632082
30
0.0
11
613.995868322633
21
313.844420144867
31
0.0
39
0.0
210
0.0
220
0.0
230
1.0
0
LINE
5
B5
330
22
100
AcDbEntity
8
AM_8
62
256
6
ByLayer
370
-1
48
1.0
60
0
100
AcDbLine
10
572.104928362964
20
294.293418909816
30
0.0
11
548.129968245243
21
273.478429422575
31
0.0
39
0.0
210
0.0
220
0.0
230
1.0
0
LINE
5
B6
330
22
100
AcDbEntity
8
AM_8
62
256
6
ByLayer
370
-1
48
1.0
60
0
100
AcDbLine
10
610.464864551246
20
327.597402089394
30
0.0
11
586.489904433525
21
306.782412602153
31
0.0
39
0.0
210
0.0
220
0.0
230
1.0
0
LINE
5
B7
330
22
100
AcDbEntity
8
AM_8
62
256
6
ByLayer
370
-1
48
1.0
60
0
100
AcDbLine
10
628.601847301552
20
343.343876887415
30
0.0
11
624.849840621923
21
340.086395781723
31
0.0
39
0.0
210
0.0
220
0.0
230
1.0
0
LINE
5
B8
330
22
100
AcDbEntity
8
AM_8
62
256
6
ByLayer
370
-1
48
1.0
60
0
100
AcDbLine
10
544.598964473797
20
287.231411367106
30
0.0
11
520.624004356137
21
266.41642187989
31
0.0
39
0.0
210
0.0
220
0.0
230
1.0
0
LINE
5
B9
330
22
100
AcDbEntity
8
AM_8
62
256
6
ByLayer
370
-1
48
1.0
60
0
100
AcDbLine
10
582.958900662196
20
320.535394546676
30
0.0
11
558.983940544477
21
299.720405059465
31
0.0
39
0.0
210
0.0
220
0.0
230
1.0
0
LINE
5
BA
330
22
100
AcDbEntity
8
AM_8
62
256
6
ByLayer
370
-1
48
1.0
60
0
100
AcDbLine
10
612.488938304239
20
346.173285915763
30
0.0
11
597.343876732817
21
333.024388239039
31
0.0
39
0.0
210
0.0
220
0.0
230
1.0
0
LINE
5
BB
330
22
100
AcDbEntity
8
AM_8
62
256
6
ByLayer
370
-1
48
1.0
60
0
100
AcDbLine
10
555.452936773147
20
313.473387003988
30
0.0
11
531.477976655427
21
292.658397516747
31
0.0
39
0.0
210
0.0
220
0.0
230
1.0
0
LINE
5
BC
330
22
100
AcDbEntity
8
AM_8
62
256
6
ByLayer
370
-1
48
1.0
60
0
100
AcDbLine
10
593.812872961488
20
346.777370183562
30
0.0
11
569.837912843707
21
325.962380696296
31
0.0
39
0.0
210
0.0
220
0.0
230
1.0
0
LINE
5
BD
330
22
100
AcDbEntity
8
AM_8
62
256
6
ByLayer
370
-1
48
1.0
60
0
100
AcDbLine
10
527.946972884039
20
306.411379461274
30
0.0
11
503.972012766377
21
285.596389974029
31
0.0
39
0.0
210
0.0
220
0.0
230
1.0
0
LINE
5
BE
330
22
100
AcDbEntity
8
AM_8
62
256
6
ByLayer
370
-1
48
1.0
60
0
100
AcDbLine
10
566.306909072381
20
339.715362640877
30
0.0
11
542.331948954661
21
318.900373153637
31
0.0
39
0.0
210
0.0
220
0.0
230
1.0
0
LINE
5
BF
330
22
100
AcDbEntity
8
AM_8
62
256
6
ByLayer
370
-1
48
1.0
60
0
100
AcDbLine
10
538.800945183329
20
332.653355098131
30
0.0
11
514.825985065611
21
311.838365610919
31
0.0
39
0.0
210
0.0
220
0.0
230
1.0
0
LINE
5
C0
330
22
100
AcDbEntity
8
AM_8
62
256
6
ByLayer
370
-1
48
1.0
60
0
100
AcDbLine
10
631.000483705062
20
342.687938166148
30
0.0
11
667.463310819481
21
300.689606801047
31
0.0
39
0.0
210
0.0
220
0.0
230
1.0
0
LINE
5
C1
330
22
100
AcDbEntity
8
AM_8
62
256
6
ByLayer
370
-1
48
1.0
60
0
100
AcDbLine
10
611.035545503685
20
346.311941780325
30
0.0
11
661.316476043495
21
288.397749456978
31
0.0
39
0.0
210
0.0
220
0.0
230
1.0
0
LINE
5
C2
330
22
100
AcDbEntity
8
AM_8
62
256
6
ByLayer
370
-1
48
1.0
60
0
100
AcDbLine
10
593.803678270501
20
346.787960741414
30
0.0
11
652.680087947108
21
278.973390153338
31
0.0
39
0.0
210
0.0
220
0.0
230
1.0
0
LINE
5
C3
330
22
100
AcDbEntity
8
AM_8
62
256
6
ByLayer
370
-1
48
1.0
60
0
100
AcDbLine
10
577.749536192901
20
345.907461427278
30
0.0
11
642.408114889716
21
271.432917662865
31
0.0
39
0.0
210
0.0
220
0.0
230
1.0
0
LINE
5
C4
330
22
100
AcDbEntity
8
AM_8
62
256
6
ByLayer
370
-1
48
1.0
60
0
100
AcDbLine
10
563.408437460053
20
343.053857783999
30
0.0
11
630.49994359995
21
265.777038358914
31
0.0
39
0.0
210
0.0
220
0.0
230
1.0
0
LINE
5
C5
330
22
100
AcDbEntity
8
AM_8
62
256
6
ByLayer
370
-1
48
1.0
60
0
100
AcDbLine
10
550.422815056466
20
338.638999884348
30
0.0
11
616.785048492404
21
262.202165701715
31
0.0
39
0.0
210
0.0
220
0.0
230
1.0
0
LINE
5
C6
330
22
100
AcDbEntity
8
AM_8
62
256
6
ByLayer
370
-1
48
1.0
60
0
100
AcDbLine
10
537.668654369641
20
333.957541541227
30
0.0
11
601.632655877531
21
260.28302029956
31
0.0
39
0.0
210
0.0
220
0.0
230
1.0
0
LINE
5
C7
330
22
100
AcDbEntity
8
AM_8
62
256
6
ByLayer
370
-1
48
1.0
60
0
100
AcDbLine
10
524.183000647491
20
330.118625845386
30
0.0
11
585.763075189445
21
259.189940913986
31
0.0
39
0.0
210
0.0
220
0.0
230
1.0
0
LINE
5
C8
330
22
100
AcDbEntity
8
AM_8
62
256
6
ByLayer
370
-1
48
1.0
60
0
100
AcDbLine
10
509.102364108503
20
328.116830915147
30
0.0
11
568.887782182841
21
259.255253308646
31
0.0
39
0.0
210
0.0
220
0.0
230
1.0
0
LINE
5
C9
330
22
100
AcDbEntity
8
AM_8
62
256
6
ByLayer
370
-1
48
1.0
60
0
100
AcDbLine
10
1257.97414326177
20
623.462660206143
30
0.0
11
1242.23778384931
21
637.124920920264
31
0.0
39
0.0
210
0.0
220
0.0
230
-1.0
0
LINE
5
CA
330
22
100
AcDbEntity
8
AM_8
62
256
6
ByLayer
370
-1
48
1.0
60
0
100
AcDbLine
10
1252.17612397124
20
578.040716475085
30
0.0
11
1228.20116385358
21
598.855705962301
31
0.0
39
0.0
210
0.0
220
0.0
230
-1.0
0
LINE
5
CB
330
22
100
AcDbEntity
8
AM_8
62
256
6
ByLayer
370
-1
48
1.0
60
0
100
AcDbLine
10
1232.44839918398
20
574.689938179818
30
0.0
11
1291.9278695906
21
643.199121511218
31
0.0
39
0.0
210
0.0
220
0.0
230
-1.0
0
LINE
5
CC
330
22
100
AcDbEntity
8
AM_8
62
256
6
ByLayer
370
-1
48
1.0
60
0
100
AcDbLine
10
1212.68380606234
20
571.296694485117
30
0.0
11
1273.38833722685
21
641.216917818597
31
0.0
39
0.0
210
0.0
220
0.0
230
-1.0
0
LINE
5
CD
330
22
100
AcDbEntity
8
AM_8
62
256
6
ByLayer
370
-1
48
1.0
60
0
100
AcDbLine
10
1192.25038461984
20
567.133086129394
30
0.0
11
1254.43818692778
21
638.761759353345
31
0.0
39
0.0
210
0.0
220
0.0
230
-1.0
0
LINE
5
CE
330
22
100
AcDbEntity
8
AM_8
62
256
6
ByLayer
370
-1
48
1.0
60
0
100
AcDbLine
10
1230.46817937272
20
630.524667748831
30
0.0
11
1225.27066512924
21
635.037134247484
31
0.0
39
0.0
210
0.0
220
0.0
230
-1.0
0
LINE
5
CF
330
22
100
AcDbEntity
8
AM_8
62
256
6
ByLayer
370
-1
48
1.0
60
0
100
AcDbLine
10
1241.32215167201
20
604.282692111975
30
0.0
11
1217.34719155429
21
625.097681599215
31
0.0
39
0.0
210
0.0
220
0.0
230
-1.0
0
LINE
5
D0
330
22
100
AcDbEntity
8
AM_8
62
256
6
ByLayer
370
-1
48
1.0
60
0
100
AcDbLine
10
1213.81618778296
20
611.344699654663
30
0.0
11
1189.84122766524
21
632.159689141875
31
0.0
39
0.0
210
0.0
220
0.0
230
-1.0
0
LINE
5
D1
330
22
100
AcDbEntity
8
AM_8
62
256
6
ByLayer
370
-1
48
1.0
60
0
100
AcDbLine
10
1186.31022389391
20
618.406707197352
30
0.0
11
1171.51001749165
21
631.256202635877
31
0.0
39
0.0
210
0.0
220
0.0
230
-1.0
0
LINE
5
D2
330
22
100
AcDbEntity
8
AM_8
62
256
6
ByLayer
370
-1
48
1.0
60
0
100
AcDbLine
10
1224.67016008219
20
585.102724017773
30
0.0
11
1200.69519996447
21
605.917713505014
31
0.0
39
0.0
210
0.0
220
0.0
230
-1.0
0
LINE
5
D3
330
22
100
AcDbEntity
8
AM_8
62
256
6
ByLayer
370
-1
48
1.0
60
0
100
AcDbLine
10
1158.8042600048
20
625.468714740065
30
0.0
11
1157.19269137149
21
626.867873862512
31
0.0
39
0.0
210
0.0
220
0.0
230
-1.0
0
LINE
5
D4
330
22
100
AcDbEntity
8
AM_8
62
256
6
ByLayer
370
-1
48
1.0
60
0
100
AcDbLine
10
1197.16419619314
20
592.164731560491
30
0.0
11
1173.18923607542
21
612.979721047732
31
0.0
39
0.0
210
0.0
220
0.0
230
-1.0
0
LINE
5
D5
330
22
100
AcDbEntity
8
AM_8
62
256
6
ByLayer
370
-1
48
1.0
60
0
100
AcDbLine
10
1219.77865098271
20
572.530928776589
30
0.0
11
1211.54917226382
21
579.675737868162
31
0.0
39
0.0
210
0.0
220
0.0
230
-1.0
0
LINE
5
D6
330
22
100
AcDbEntity
8
AM_8
62
256
6
ByLayer
370
-1
48
1.0
60
0
100
AcDbLine
10
1169.6582323041
20
599.22673910318
30
0.0
11
1147.27595934492
21
618.658962308432
31
0.0
39
0.0
210
0.0
220
0.0
230
-1.0
0
LINE
5
D7
330
22
100
AcDbEntity
8
AM_8
62
256
6
ByLayer
370
-1
48
1.0
60
0
100
AcDbLine
10
1203.76860497922
20
569.612214401035
30
0.0
11
1184.04320837472
21
586.737745410846
31
0.0
39
0.0
210
0.0
220
0.0
230
-1.0
0
LINE
5
D8
330
22
100
AcDbEntity
8
AM_8
62
256
6
ByLayer
370
-1
48
1.0
60
0
100
AcDbLine
10
1142.15226841499
20
606.288746645864
30
0.0
11
1141.72514452553
21
606.659574343918
31
0.0
39
0.0
210
0.0
220
0.0
230
-1.0
0
LINE
5
D9
330
22
100
AcDbEntity
8
AM_8
62
256
6
ByLayer
370
-1
48
1.0
60
0
100
AcDbLine
10
1180.51220460339
20
572.984763466294
30
0.0
11
1156.53724448567
21
593.799752953535
31
0.0
39
0.0
210
0.0
220
0.0
230
-1.0
0
LINE
5
DA
330
22
100
AcDbEntity
8
AM_8
62
256
6
ByLayer
370
-1
48
1.0
60
0
100
AcDbLine
10
1153.00624071434
20
580.046771009012
30
0.0
11
1143.22841274155
21
588.535852344769
31
0.0
39
0.0
210
0.0
220
0.0
230
-1.0
0
LINE
5
DB
330
22
100
AcDbEntity
8
AM_8
62
256
6
ByLayer
370
-1
48
1.0
60
0
100
AcDbLine
10
1171.65057103006
20
563.859818554721
30
0.0
11
1167.3912167849
21
567.557777316674
31
0.0
39
0.0
210
0.0
220
0.0
230
-1.0
0
LINE
5
DC
330
22
100
AcDbEntity
8
AM_8
62
256
6
ByLayer
370
-1
48
1.0
60
0
100
AcDbLine
10
1172.63930174307
20
563.916657416955
30
0.0
11
1235.43540195227
21
636.245975622291
31
0.0
39
0.0
210
0.0
220
0.0
230
-1.0
0
LINE
5
DD
330
22
100
AcDbEntity
8
AM_8
62
256
6
ByLayer
370
-1
48
1.0
60
0
100
AcDbLine
10
1157.45781421959
20
565.802290946599
30
0.0
11
1216.80281347774
21
634.156588760377
31
0.0
39
0.0
210
0.0
220
0.0
230
-1.0
0
LINE
5
DE
330
22
100
AcDbEntity
8
AM_8
62
256
6
ByLayer
370
-1
48
1.0
60
0
100
AcDbLine
10
1148.36633247983
20
574.70246781163
30
0.0
11
1198.79895612856
21
632.791382117897
31
0.0
39
0.0
210
0.0
220
0.0
230
-1.0
0
LINE
5
DF
330
22
100
AcDbEntity
8
AM_8
62
256
6
ByLayer
370
-1
48
1.0
60
0
100
AcDbLine
10
1143.29116601763
20
588.228685859915
30
0.0
11
1181.25695755561
21
631.958150076945
31
0.0
39
0.0
210
0.0
220
0.0
230
-1.0
0
LINE
5
E0
330
22
100
AcDbEntity
8
AM_8
62
256
6
ByLayer
370
-1
48
1.0
60
0
100
AcDbLine
10
1141.59282612003
20
605.64437415084
30
0.0
11
1161.92691772187
21
629.065430187515
31
0.0
39
0.0
210
0.0
220
0.0
230
-1.0
0
LINE
5
E1
330
22
100
AcDbEntity
8
AM_8
62
256
6
ByLayer
370
-1
48
1.0
60
0
100
AcDbLine
10
1400.48595039396
20
617.464453470594
30
0.0
11
1388.18099417923
21
628.147580074004
31
0.0
39
0.0
210
0.0
220
0.0
230
-1.0
0
LINE
5
E2
330
22
100
AcDbEntity
8
AM_8
62
256
6
ByLayer
370
-1
48
1.0
60
0
100
AcDbLine
10
1384.64999040784
20
614.394598129477
30
0.0
11
1360.67503029012
21
635.209587616718
31
0.0
39
0.0
210
0.0
220
0.0
230
-1.0
0
LINE
5
E3
330
22
100
AcDbEntity
8
AM_8
62
256
6
ByLayer
370
-1
48
1.0
60
0
100
AcDbLine
10
1409.21686464769
20
593.065710551576
30
0.0
11
1399.03496647852
21
601.905604437148
31
0.0
39
0.0
210
0.0
220
0.0
230
-1.0
0
LINE
5
E4
330
22
100
AcDbEntity
8
AM_8
62
256
6
ByLayer
370
-1
48
1.0
60
0
100
AcDbLine
10
1357.14402651879
20
621.456605672195
30
0.0
11
1333.16906640107
21
642.271595159406
31
0.0
39
0.0
210
0.0
220
0.0
230
-1.0
0
LINE
5
E5
330
22
100
AcDbEntity
8
AM_8
62
256
6
ByLayer
370
-1
48
1.0
60
0
100
AcDbLine
10
1395.50396270713
20
588.152622492621
30
0.0
11
1371.52900258947
21
608.967611979836
31
0.0
39
0.0
210
0.0
220
0.0
230
-1.0
0
LINE
5
E6
330
22
100
AcDbEntity
8
AM_8
62
256
6
ByLayer
370
-1
48
1.0
60
0
100
AcDbLine
10
1329.63806262974
20
628.518613214883
30
0.0
11
1311.30542432507
21
644.434955586704
31
0.0
39
0.0
210
0.0
220
0.0
230
-1.0
0
LINE
5
E7
330
22
100
AcDbEntity
8
AM_8
62
256
6
ByLayer
370
-1
48
1.0
60
0
100
AcDbLine
10
1367.99799881808
20
595.214630035309
30
0.0
11
1344.02303870036
21
616.029619522579
31
0.0
39
0.0
210
0.0
220
0.0
230
-1.0
0
LINE
5
E8
330
22
100
AcDbEntity
8
AM_8
62
256
6
ByLayer
370
-1
48
1.0
60
0
100
AcDbLine
10
1394.93098561738
20
571.8314905292
30
0.0
11
1382.3829748887
21
582.725636342976
31
0.0
39
0.0
210
0.0
220
0.0
230
-1.0
0
LINE
5
E9
330
22
100
AcDbEntity
8
AM_8
62
256
6
ByLayer
370
-1
48
1.0
60
0
100
AcDbLine
10
1302.13209874063
20
635.580620757597
30
0.0
11
1293.22714569543
21
643.311874662148
31
0.0
39
0.0
210
0.0
220
0.0
230
-1.0
0
LINE
5
EA
330
22
100
AcDbEntity
8
AM_8
62
256
6
ByLayer
370
-1
48
1.0
60
0
100
AcDbLine
10
1340.49203492903
20
602.276637578027
30
0.0
11
1316.51707481125
21
623.091627065263
31
0.0
39
0.0
210
0.0
220
0.0
230
-1.0
0
LINE
5
EB
330
22
100
AcDbEntity
8
AM_8
62
256
6
ByLayer
370
-1
48
1.0
60
0
100
AcDbLine
10
1378.85197111731
20
568.972654398449
30
0.0
11
1354.87701099965
21
589.787643885664
31
0.0
39
0.0
210
0.0
220
0.0
230
-1.0
0
LINE
5
EC
330
22
100
AcDbEntity
8
AM_8
62
256
6
ByLayer
370
-1
48
1.0
60
0
100
AcDbLine
10
1312.98607103998
20
609.338645120715
30
0.0
11
1289.01111092226
21
630.153634607956
31
0.0
39
0.0
210
0.0
220
0.0
230
-1.0
0
LINE
5
ED
330
22
100
AcDbEntity
8
AM_8
62
256
6
ByLayer
370
-1
48
1.0
60
0
100
AcDbLine
10
1351.34600722826
20
576.034661941137
30
0.0
11
1327.37104711054
21
596.849651428378
31
0.0
39
0.0
210
0.0
220
0.0
230
-1.0
0
LINE
5
EE
330
22
100
AcDbEntity
8
AM_8
62
256
6
ByLayer
370
-1
48
1.0
60
0
100
AcDbLine
10
1369.48298997857
20
560.288187143116
30
0.0
11
1365.73098329894
21
563.545668248808
31
0.0
39
0.0
210
0.0
220
0.0
230
-1.0
0
LINE
5
EF
330
22
100
AcDbEntity
8
AM_8
62
256
6
ByLayer
370
-1
48
1.0
60
0
100
AcDbLine
10
1285.48010715082
20
616.400652663425
30
0.0
11
1261.50514703316
21
637.215642150641
31
0.0
39
0.0
210
0.0
220
0.0
230
-1.0
0
LINE
5
F0
330
22
100
AcDbEntity
8
AM_8
62
256
6
ByLayer
370
-1
48
1.0
60
0
100
AcDbLine
10
1323.84004333921
20
583.096669483855
30
0.0
11
1299.8650832215
21
603.911658971066
31
0.0
39
0.0
210
0.0
220
0.0
230
-1.0
0
LINE
5
F1
330
22
100
AcDbEntity
8
AM_8
62
256
6
ByLayer
370
-1
48
1.0
60
0
100
AcDbLine
10
1353.37008098126
20
557.458778114768
30
0.0
11
1338.22501940984
21
570.607675791492
31
0.0
39
0.0
210
0.0
220
0.0
230
-1.0
0
LINE
5
F2
330
22
100
AcDbEntity
8
AM_8
62
256
6
ByLayer
370
-1
48
1.0
60
0
100
AcDbLine
10
1296.33407945017
20
590.158677026543
30
0.0
11
1272.35911933245
21
610.973666513784
31
0.0
39
0.0
210
0.0
220
0.0
230
-1.0
0
LINE
5
F3
330
22
100
AcDbEntity
8
AM_8
62
256
6
ByLayer
370
-1
48
1.0
60
0
100
AcDbLine
10
1334.69401563851
20
556.854693846969
30
0.0
11
1310.71905552073
21
577.669683334235
31
0.0
39
0.0
210
0.0
220
0.0
230
-1.0
0
LINE
5
F4
330
22
100
AcDbEntity
8
AM_8
62
256
6
ByLayer
370
-1
48
1.0
60
0
100
AcDbLine
10
1268.82811556106
20
597.220684569257
30
0.0
11
1244.8531554434
21
618.035674056502
31
0.0
39
0.0
210
0.0
220
0.0
230
-1.0
0
LINE
5
F5
330
22
100
AcDbEntity
8
AM_8
62
256
6
ByLayer
370
-1
48
1.0
60
0
100
AcDbLine
10
1307.1880517494
20
563.916701389654
30
0.0
11
1283.21309163168
21
584.731690876894
31
0.0
39
0.0
210
0.0
220
0.0
230
-1.0
0
LINE
5
F6
330
22
100
AcDbEntity
8
AM_8
62
256
6
ByLayer
370
-1
48
1.0
60
0
100
AcDbLine
10
1279.68208786035
20
570.9787089324
30
0.0
11
1255.70712774263
21
591.793698419612
31
0.0
39
0.0
210
0.0
220
0.0
230
-1.0
0
LINE
5
F7
330
22
100
AcDbEntity
8
AM_8
62
256
6
ByLayer
370
-1
48
1.0
60
0
100
AcDbLine
10
1371.88162638208
20
560.944125864382
30
0.0
11
1408.3444534965
21
602.942457229484
31
0.0
39
0.0
210
0.0
220
0.0
230
-1.0
0
LINE
5
F8
330
22
100
AcDbEntity
8
AM_8
62
256
6
ByLayer
370
-1
48
1.0
60
0
100
AcDbLine
10
1351.9166881807
20
557.320122250206
30
0.0
11
1402.19761872051
21
615.234314573553
31
0.0
39
0.0
210
0.0
220
0.0
230
-1.0
0
LINE
5
F9
330
22
100
AcDbEntity
8
AM_8
62
256
6
ByLayer
370
-1
48
1.0
60
0
100
AcDbLine
10
1334.68482094752
20
556.844103289117
30
0.0
11
1393.56123062413
21
624.658673877193
31
0.0
39
0.0
210
0.0
220
0.0
230
-1.0
0
LINE
5
FA
330
22
100
AcDbEntity
8
AM_8
62
256
6
ByLayer
370
-1
48
1.0
60
0
100
AcDbLine
10
1318.63067886992
20
557.724602603253
30
0.0
11
1383.28925756673
21
632.199146367666
31
0.0
39
0.0
210
0.0
220
0.0
230
-1.0
0
LINE
5
FB
330
22
100
AcDbEntity
8
AM_8
62
256
6
ByLayer
370
-1
48
1.0
60
0
100
AcDbLine
10
1304.28958013707
20
560.578206246532
30
0.0
11
1371.38108627697
21
637.855025671617
31
0.0
39
0.0
210
0.0
220
0.0
230
-1.0
0
LINE
5
FC
330
22
100
AcDbEntity
8
AM_8
62
256
6
ByLayer
370
-1
48
1.0
60
0
100
AcDbLine
10
1291.30395773348
20
564.993064146183
30
0.0
11
1357.66619116942
21
641.429898328816
31
0.0
39
0.0
210
0.0
220
0.0
230
-1.0
0
LINE
5
FD
330
22
100
AcDbEntity
8
AM_8
62
256
6
ByLayer
370
-1
48
1.0
60
0
100
AcDbLine
10
1278.54979704666
20
569.674522489304
30
0.0
11
1342.51379855455
21
643.349043730971
31
0.0
39
0.0
210
0.0
220
0.0
230
-1.0
0
LINE
5
FE
330
22
100
AcDbEntity
8
AM_8
62
256
6
ByLayer
370
-1
48
1.0
60
0
100
AcDbLine
10
1265.06414332451
20
573.513438185145
30
0.0
11
1326.64421786646
21
644.442123116546
31
0.0
39
0.0
210
0.0
220
0.0
230
-1.0
0
LINE
5
FF
330
22
100
AcDbEntity
8
AM_8
62
256
6
ByLayer
370
-1
48
1.0
60
0
100
AcDbLine
10
1249.98350678552
20
575.515233115384
30
0.0
11
1309.76892485986
21
644.376810721885
31
0.0
39
0.0
210
0.0
220
0.0
230
-1.0
0
LINE
5
100
330
22
100
AcDbEntity
8
AM_8
62
256
6
ByLayer
370
-1
48
1.0
60
0
100
AcDbLine
10
1005.09300058476
20
280.169403824374
30
0.0
11
989.356641172309
21
266.507143110252
31
0.0
39
0.0
210
0.0
220
0.0
230
1.0
0
LINE
5
101
330
22
100
AcDbEntity
8
AM_8
62
256
6
ByLayer
370
-1
48
1.0
60
0
100
AcDbLine
10
999.294981294238
20
325.591347555432
30
0.0
11
975.320021176578
21
304.776358068216
31
0.0
39
0.0
210
0.0
220
0.0
230
1.0
0
LINE
5
102
330
22
100
AcDbEntity
8
AM_8
62
256
6
ByLayer
370
-1
48
1.0
60
0
100
AcDbLine
10
979.567256506973
20
328.942125850698
30
0.0
11
1039.04672691359
21
260.432942519299
31
0.0
39
0.0
210
0.0
220
0.0
230
1.0
0
LINE
5
103
330
22
100
AcDbEntity
8
AM_8
62
256
6
ByLayer
370
-1
48
1.0
60
0
100
AcDbLine
10
959.80266338534
20
332.3353695454
30
0.0
11
1020.50719454984
21
262.41514621192
31
0.0
39
0.0
210
0.0
220
0.0
230
1.0
0
LINE
5
104
330
22
100
AcDbEntity
8
AM_8
62
256
6
ByLayer
370
-1
48
1.0
60
0
100
AcDbLine
10
939.369241942834
20
336.498977901122
30
0.0
11
1001.55704425077
21
264.870304677171
31
0.0
39
0.0
210
0.0
220
0.0
230
1.0
0
LINE
5
105
330
22
100
AcDbEntity
8
AM_8
62
256
6
ByLayer
370
-1
48
1.0
60
0
100
AcDbLine
10
977.587036695714
20
273.107396281685
30
0.0
11
972.389522452237
21
268.594929783033
31
0.0
39
0.0
210
0.0
220
0.0
230
1.0
0
LINE
5
106
330
22
100
AcDbEntity
8
AM_8
62
256
6
ByLayer
370
-1
48
1.0
60
0
100
AcDbLine
10
988.441008995004
20
299.349371918542
30
0.0
11
964.466048877284
21
278.534382431301
31
0.0
39
0.0
210
0.0
220
0.0
230
1.0
0
LINE
5
107
330
22
100
AcDbEntity
8
AM_8
62
256
6
ByLayer
370
-1
48
1.0
60
0
100
AcDbLine
10
960.935045105956
20
292.287364375853
30
0.0
11
936.960084988238
21
271.472374888642
31
0.0
39
0.0
210
0.0
220
0.0
230
1.0
0
LINE
5
108
330
22
100
AcDbEntity
8
AM_8
62
256
6
ByLayer
370
-1
48
1.0
60
0
100
AcDbLine
10
933.429081216908
20
285.225356833165
30
0.0
11
918.628874814643
21
272.375861394639
31
0.0
39
0.0
210
0.0
220
0.0
230
1.0
0
LINE
5
109
330
22
100
AcDbEntity
8
AM_8
62
256
6
ByLayer
370
-1
48
1.0
60
0
100
AcDbLine
10
971.78901740519
20
318.529340012743
30
0.0
11
947.814057287469
21
297.714350525503
31
0.0
39
0.0
210
0.0
220
0.0
230
1.0
0
LINE
5
10A
330
22
100
AcDbEntity
8
AM_8
62
256
6
ByLayer
370
-1
48
1.0
60
0
100
AcDbLine
10
905.9231173278
20
278.163349290451
30
0.0
11
904.31154869449
21
276.764190168005
31
0.0
39
0.0
210
0.0
220
0.0
230
1.0
0
LINE
5
10B
330
22
100
AcDbEntity
8
AM_8
62
256
6
ByLayer
370
-1
48
1.0
60
0
100
AcDbLine
10
944.28305351614
20
311.467332470025
30
0.0
11
920.308093398419
21
290.652342982785
31
0.0
39
0.0
210
0.0
220
0.0
230
1.0
0
LINE
5
10C
330
22
100
AcDbEntity
8
AM_8
62
256
6
ByLayer
370
-1
48
1.0
60
0
100
AcDbLine
10
966.897508305708
20
331.101135253927
30
0.0
11
958.668029586818
21
323.956326162355
31
0.0
39
0.0
210
0.0
220
0.0
230
1.0
0
LINE
5
10D
330
22
100
AcDbEntity
8
AM_8
62
256
6
ByLayer
370
-1
48
1.0
60
0
100
AcDbLine
10
916.777089627092
20
304.405324927337
30
0.0
11
894.394816667912
21
284.973101722085
31
0.0
39
0.0
210
0.0
220
0.0
230
1.0
0
LINE
5
10E
330
22
100
AcDbEntity
8
AM_8
62
256
6
ByLayer
370
-1
48
1.0
60
0
100
AcDbLine
10
950.887462302213
20
334.019849629481
30
0.0
11
931.162065697711
21
316.894318619671
31
0.0
39
0.0
210
0.0
220
0.0
230
1.0
0
LINE
5
10F
330
22
100
AcDbEntity
8
AM_8
62
256
6
ByLayer
370
-1
48
1.0
60
0
100
AcDbLine
10
889.271125737986
20
297.343317384652
30
0.0
11
888.84400184853
21
296.972489686599
31
0.0
39
0.0
210
0.0
220
0.0
230
1.0
0
LINE
5
110
330
22
100
AcDbEntity
8
AM_8
62
256
6
ByLayer
370
-1
48
1.0
60
0
100
AcDbLine
10
927.631061926384
20
330.647300564223
30
0.0
11
903.656101808663
21
309.832311076982
31
0.0
39
0.0
210
0.0
220
0.0
230
1.0
0
LINE
5
111
330
22
100
AcDbEntity
8
AM_8
62
256
6
ByLayer
370
-1
48
1.0
60
0
100
AcDbLine
10
900.125098037334
20
323.585293021505
30
0.0
11
890.347270064551
21
315.096211685748
31
0.0
39
0.0
210
0.0
220
0.0
230
1.0
0
LINE
5
112
330
22
100
AcDbEntity
8
AM_8
62
256
6
ByLayer
370
-1
48
1.0
60
0
100
AcDbLine
10
918.769428353056
20
339.772245475796
30
0.0
11
914.510074107895
21
336.074286713843
31
0.0
39
0.0
210
0.0
220
0.0
230
1.0
0
LINE
5
113
330
22
100
AcDbEntity
8
AM_8
62
256
6
ByLayer
370
-1
48
1.0
60
0
100
AcDbLine
10
919.758159066065
20
339.715406613562
30
0.0
11
982.554259275268
21
267.386088408225
31
0.0
39
0.0
210
0.0
220
0.0
230
1.0
0
LINE
5
114
330
22
100
AcDbEntity
8
AM_8
62
256
6
ByLayer
370
-1
48
1.0
60
0
100
AcDbLine
10
904.576671542591
20
337.829773083917
30
0.0
11
963.921670800736
21
269.47547527014
31
0.0
39
0.0
210
0.0
220
0.0
230
1.0
0
LINE
5
115
330
22
100
AcDbEntity
8
AM_8
62
256
6
ByLayer
370
-1
48
1.0
60
0
100
AcDbLine
10
895.48518980283
20
328.929596218887
30
0.0
11
945.917813451555
21
270.84068191262
31
0.0
39
0.0
210
0.0
220
0.0
230
1.0
0
LINE
5
116
330
22
100
AcDbEntity
8
AM_8
62
256
6
ByLayer
370
-1
48
1.0
60
0
100
AcDbLine
10
890.410023340627
20
315.403378170602
30
0.0
11
928.375814878609
21
271.673913953572
31
0.0
39
0.0
210
0.0
220
0.0
230
1.0
0
LINE
5
117
330
22
100
AcDbEntity
8
AM_8
62
256
6
ByLayer
370
-1
48
1.0
60
0
100
AcDbLine
10
888.711683443027
20
297.987689879677
30
0.0
11
909.045775044864
21
274.566633843002
31
0.0
39
0.0
210
0.0
220
0.0
230
1.0
0
LINE
5
118
330
22
100
AcDbEntity
8
AM_8
62
256
6
ByLayer
370
-1
48
1.0
60
0
100
AcDbLine
10
1147.60480771696
20
286.167610559922
30
0.0
11
1135.29985150222
21
275.484483956512
31
0.0
39
0.0
210
0.0
220
0.0
230
1.0
0
LINE
5
119
330
22
100
AcDbEntity
8
AM_8
62
256
6
ByLayer
370
-1
48
1.0
60
0
100
AcDbLine
10
1131.76884773083
20
289.237465901039
30
0.0
11
1107.79388761311
21
268.422476413799
31
0.0
39
0.0
210
0.0
220
0.0
230
1.0
0
LINE
5
11A
330
22
100
AcDbEntity
8
AM_8
62
256
6
ByLayer
370
-1
48
1.0
60
0
100
AcDbLine
10
1156.33572197068
20
310.56635347894
30
0.0
11
1146.15382380151
21
301.726459593369
31
0.0
39
0.0
210
0.0
220
0.0
230
1.0
0
LINE
5
11B
330
22
100
AcDbEntity
8
AM_8
62
256
6
ByLayer
370
-1
48
1.0
60
0
100
AcDbLine
10
1104.26288384178
20
282.175458358322
30
0.0
11
1080.28792372407
21
261.36046887111
31
0.0
39
0.0
210
0.0
220
0.0
230
1.0
0
LINE
5
11C
330
22
100
AcDbEntity
8
AM_8
62
256
6
ByLayer
370
-1
48
1.0
60
0
100
AcDbLine
10
1142.62282003012
20
315.479441537896
30
0.0
11
1118.64785991246
21
294.66445205068
31
0.0
39
0.0
210
0.0
220
0.0
230
1.0
0
LINE
5
11D
330
22
100
AcDbEntity
8
AM_8
62
256
6
ByLayer
370
-1
48
1.0
60
0
100
AcDbLine
10
1076.75691995274
20
275.113450815633
30
0.0
11
1058.42428164807
21
259.197108443812
31
0.0
39
0.0
210
0.0
220
0.0
230
1.0
0
LINE
5
11E
330
22
100
AcDbEntity
8
AM_8
62
256
6
ByLayer
370
-1
48
1.0
60
0
100
AcDbLine
10
1115.11685614108
20
308.417433995207
30
0.0
11
1091.14189602335
21
287.602444507938
31
0.0
39
0.0
210
0.0
220
0.0
230
1.0
0
LINE
5
11F
330
22
100
AcDbEntity
8
AM_8
62
256
6
ByLayer
370
-1
48
1.0
60
0
100
AcDbLine
10
1142.04984294037
20
331.800573501316
30
0.0
11
1129.5018322117
21
320.906427687541
31
0.0
39
0.0
210
0.0
220
0.0
230
1.0
0
LINE
5
120
330
22
100
AcDbEntity
8
AM_8
62
256
6
ByLayer
370
-1
48
1.0
60
0
100
AcDbLine
10
1049.25095606363
20
268.05144327292
30
0.0
11
1040.34600301842
21
260.320189368368
31
0.0
39
0.0
210
0.0
220
0.0
230
1.0
0
LINE
5
121
330
22
100
AcDbEntity
8
AM_8
62
256
6
ByLayer
370
-1
48
1.0
60
0
100
AcDbLine
10
1087.61089225203
20
301.35542645249
30
0.0
11
1063.63593213425
21
280.540436965253
31
0.0
39
0.0
210
0.0
220
0.0
230
1.0
0
LINE
5
122
330
22
100
AcDbEntity
8
AM_8
62
256
6
ByLayer
370
-1
48
1.0
60
0
100
AcDbLine
10
1125.97082844031
20
334.659409632068
30
0.0
11
1101.99586832265
21
313.844420144852
31
0.0
39
0.0
210
0.0
220
0.0
230
1.0
0
LINE
5
123
330
22
100
AcDbEntity
8
AM_8
62
256
6
ByLayer
370
-1
48
1.0
60
0
100
AcDbLine
10
1060.10492836298
20
294.293418909801
30
0.0
11
1036.12996824526
21
273.47842942256
31
0.0
39
0.0
210
0.0
220
0.0
230
1.0
0
LINE
5
124
330
22
100
AcDbEntity
8
AM_8
62
256
6
ByLayer
370
-1
48
1.0
60
0
100
AcDbLine
10
1098.46486455126
20
327.597402089379
30
0.0
11
1074.48990443354
21
306.782412602139
31
0.0
39
0.0
210
0.0
220
0.0
230
1.0
0
LINE
5
125
330
22
100
AcDbEntity
8
AM_8
62
256
6
ByLayer
370
-1
48
1.0
60
0
100
AcDbLine
10
1116.60184730157
20
343.3438768874
30
0.0
11
1112.84984062194
21
340.086395781709
31
0.0
39
0.0
210
0.0
220
0.0
230
1.0
0
LINE
5
126
330
22
100
AcDbEntity
8
AM_8
62
256
6
ByLayer
370
-1
48
1.0
60
0
100
AcDbLine
10
1032.59896447381
20
287.231411367092
30
0.0
11
1008.62400435615
21
266.416421879876
31
0.0
39
0.0
210
0.0
220
0.0
230
1.0
0
LINE
5
127
330
22
100
AcDbEntity
8
AM_8
62
256
6
ByLayer
370
-1
48
1.0
60
0
100
AcDbLine
10
1070.95890066221
20
320.535394546662
30
0.0
11
1046.98394054449
21
299.72040505945
31
0.0
39
0.0
210
0.0
220
0.0
230
1.0
0
LINE
5
128
330
22
100
AcDbEntity
8
AM_8
62
256
6
ByLayer
370
-1
48
1.0
60
0
100
AcDbLine
10
1100.48893830425
20
346.173285915749
30
0.0
11
1085.34387673283
21
333.024388239024
31
0.0
39
0.0
210
0.0
220
0.0
230
1.0
0
LINE
5
129
330
22
100
AcDbEntity
8
AM_8
62
256
6
ByLayer
370
-1
48
1.0
60
0
100
AcDbLine
10
1043.45293677316
20
313.473387003973
30
0.0
11
1019.47797665544
21
292.658397516733
31
0.0
39
0.0
210
0.0
220
0.0
230
1.0
0
LINE
5
12A
330
22
100
AcDbEntity
8
AM_8
62
256
6
ByLayer
370
-1
48
1.0
60
0
100
AcDbLine
10
1081.8128729615
20
346.777370183547
30
0.0
11
1057.83791284372
21
325.962380696282
31
0.0
39
0.0
210
0.0
220
0.0
230
1.0
0
LINE
5
12B
330
22
100
AcDbEntity
8
AM_8
62
256
6
ByLayer
370
-1
48
1.0
60
0
100
AcDbLine
10
1015.94697288405
20
306.41137946126
30
0.0
11
991.972012766392
21
285.596389974015
31
0.0
39
0.0
210
0.0
220
0.0
230
1.0
0
LINE
5
12C
330
22
100
AcDbEntity
8
AM_8
62
256
6
ByLayer
370
-1
48
1.0
60
0
100
AcDbLine
10
1054.3069090724
20
339.715362640863
30
0.0
11
1030.33194895468
21
318.900373153622
31
0.0
39
0.0
210
0.0
220
0.0
230
1.0
0
LINE
5
12D
330
22
100
AcDbEntity
8
AM_8
62
256
6
ByLayer
370
-1
48
1.0
60
0
100
AcDbLine
10
1026.80094518334
20
332.653355098116
30
0.0
11
1002.82598506563
21
311.838365610905
31
0.0
39
0.0
210
0.0
220
0.0
230
1.0
0
LINE
5
12E
330
22
100
AcDbEntity
8
AM_8
62
256
6
ByLayer
370
-1
48
1.0
60
0
100
AcDbLine
10
1119.00048370508
20
342.687938166134
30
0.0
11
1155.4633108195
21
300.689606801033
31
0.0
39
0.0
210
0.0
220
0.0
230
1.0
0
LINE
5
12F
330
22
100
AcDbEntity
8
AM_8
62
256
6
ByLayer
370
-1
48
1.0
60
0
100
AcDbLine
10
1099.0355455037
20
346.31194178031
30
0.0
11
1149.31647604351
21
288.397749456964
31
0.0
39
0.0
210
0.0
220
0.0
230
1.0
0
LINE
5
130
330
22
100
AcDbEntity
8
AM_8
62
256
6
ByLayer
370
-1
48
1.0
60
0
100
AcDbLine
10
1081.80367827052
20
346.787960741399
30
0.0
11
1140.68008794712
21
278.973390153324
31
0.0
39
0.0
210
0.0
220
0.0
230
1.0
0
LINE
5
131
330
22
100
AcDbEntity
8
AM_8
62
256
6
ByLayer
370
-1
48
1.0
60
0
100
AcDbLine
10
1065.74953619292
20
345.907461427264
30
0.0
11
1130.40811488973
21
271.43291766285
31
0.0
39
0.0
210
0.0
220
0.0
230
1.0
0
LINE
5
132
330
22
100
AcDbEntity
8
AM_8
62
256
6
ByLayer
370
-1
48
1.0
60
0
100
AcDbLine
10
1051.40843746007
20
343.053857783984
30
0.0
11
1118.49994359996
21
265.7770383589
31
0.0
39
0.0
210
0.0
220
0.0
230
1.0
0
LINE
5
133
330
22
100
AcDbEntity
8
AM_8
62
256
6
ByLayer
370
-1
48
1.0
60
0
100
AcDbLine
10
1038.42281505648
20
338.638999884334
30
0.0
11
1104.78504849242
21
262.202165701701
31
0.0
39
0.0
210
0.0
220
0.0
230
1.0
0
LINE
5
134
330
22
100
AcDbEntity
8
AM_8
62
256
6
ByLayer
370
-1
48
1.0
60
0
100
AcDbLine
10
1025.66865436966
20
333.957541541212
30
0.0
11
1089.63265587755
21
260.283020299546
31
0.0
39
0.0
210
0.0
220
0.0
230
1.0
0
LINE
5
135
330
22
100
AcDbEntity
8
AM_8
62
256
6
ByLayer
370
-1
48
1.0
60
0
100
AcDbLine
10
1012.18300064751
20
330.118625845371
30
0.0
11
1073.76307518946
21
259.189940913971
31
0.0
39
0.0
210
0.0
220
0.0
230
1.0
0
LINE
5
136
330
22
100
AcDbEntity
8
AM_8
62
256
6
ByLayer
370
-1
48
1.0
60
0
100
AcDbLine
10
997.102364108518
20
328.116830915133
30
0.0
11
1056.88778218286
21
259.255253308631
31
0.0
39
0.0
210
0.0
220
0.0
230
1.0
0
LINE
5
137
330
22
100
AcDbEntity
8
AM_8
62
256
6
ByLayer
370
-1
48
1.0
60
0
100
AcDbLine
10
1745.97414326178
20
623.462660206132
30
0.0
11
1730.23778384933
21
637.124920920253
31
0.0
39
0.0
210
0.0
220
0.0
230
-1.0
0
LINE
5
138
330
22
100
AcDbEntity
8
AM_8
62
256
6
ByLayer
370
-1
48
1.0
60
0
100
AcDbLine
10
1740.17612397126
20
578.040716475074
30
0.0
11
1716.2011638536
21
598.85570596229
31
0.0
39
0.0
210
0.0
220
0.0
230
-1.0
0
LINE
5
139
330
22
100
AcDbEntity
8
AM_8
62
256
6
ByLayer
370
-1
48
1.0
60
0
100
AcDbLine
10
1720.44839918399
20
574.689938179808
30
0.0
11
1779.92786959062
21
643.199121511207
31
0.0
39
0.0
210
0.0
220
0.0
230
-1.0
0
LINE
5
13A
330
22
100
AcDbEntity
8
AM_8
62
256
6
ByLayer
370
-1
48
1.0
60
0
100
AcDbLine
10
1700.68380606236
20
571.296694485106
30
0.0
11
1761.38833722686
21
641.216917818586
31
0.0
39
0.0
210
0.0
220
0.0
230
-1.0
0
LINE
5
13B
330
22
100
AcDbEntity
8
AM_8
62
256
6
ByLayer
370
-1
48
1.0
60
0
100
AcDbLine
10
1680.25038461986
20
567.133086129383
30
0.0
11
1742.4381869278
21
638.761759353334
31
0.0
39
0.0
210
0.0
220
0.0
230
-1.0
0
LINE
5
13C
330
22
100
AcDbEntity
8
AM_8
62
256
6
ByLayer
370
-1
48
1.0
60
0
100
AcDbLine
10
1718.46817937274
20
630.52466774882
30
0.0
11
1713.27066512926
21
635.037134247473
31
0.0
39
0.0
210
0.0
220
0.0
230
-1.0
0
LINE
5
13D
330
22
100
AcDbEntity
8
AM_8
62
256
6
ByLayer
370
-1
48
1.0
60
0
100
AcDbLine
10
1729.32215167203
20
604.282692111964
30
0.0
11
1705.34719155431
21
625.097681599204
31
0.0
39
0.0
210
0.0
220
0.0
230
-1.0
0
LINE
5
13E
330
22
100
AcDbEntity
8
AM_8
62
256
6
ByLayer
370
-1
48
1.0
60
0
100
AcDbLine
10
1701.81618778298
20
611.344699654652
30
0.0
11
1677.84122766526
21
632.159689141864
31
0.0
39
0.0
210
0.0
220
0.0
230
-1.0
0
LINE
5
13F
330
22
100
AcDbEntity
8
AM_8
62
256
6
ByLayer
370
-1
48
1.0
60
0
100
AcDbLine
10
1674.31022389393
20
618.406707197341
30
0.0
11
1659.51001749166
21
631.256202635867
31
0.0
39
0.0
210
0.0
220
0.0
230
-1.0
0
LINE
5
140
330
22
100
AcDbEntity
8
AM_8
62
256
6
ByLayer
370
-1
48
1.0
60
0
100
AcDbLine
10
1712.67016008221
20
585.102724017763
30
0.0
11
1688.69519996449
21
605.917713505003
31
0.0
39
0.0
210
0.0
220
0.0
230
-1.0
0
LINE
5
141
330
22
100
AcDbEntity
8
AM_8
62
256
6
ByLayer
370
-1
48
1.0
60
0
100
AcDbLine
10
1646.80426000482
20
625.468714740055
30
0.0
11
1645.19269137151
21
626.867873862501
31
0.0
39
0.0
210
0.0
220
0.0
230
-1.0
0
LINE
5
142
330
22
100
AcDbEntity
8
AM_8
62
256
6
ByLayer
370
-1
48
1.0
60
0
100
AcDbLine
10
1685.16419619316
20
592.16473156048
30
0.0
11
1661.18923607544
21
612.979721047721
31
0.0
39
0.0
210
0.0
220
0.0
230
-1.0
0
LINE
5
143
330
22
100
AcDbEntity
8
AM_8
62
256
6
ByLayer
370
-1
48
1.0
60
0
100
AcDbLine
10
1707.77865098273
20
572.530928776579
30
0.0
11
1699.54917226384
21
579.675737868151
31
0.0
39
0.0
210
0.0
220
0.0
230
-1.0
0
LINE
5
144
330
22
100
AcDbEntity
8
AM_8
62
256
6
ByLayer
370
-1
48
1.0
60
0
100
AcDbLine
10
1657.65823230411
20
599.226739103169
30
0.0
11
1635.27595934493
21
618.658962308421
31
0.0
39
0.0
210
0.0
220
0.0
230
-1.0
0
LINE
5
145
330
22
100
AcDbEntity
8
AM_8
62
256
6
ByLayer
370
-1
48
1.0
60
0
100
AcDbLine
10
1691.76860497923
20
569.612214401024
30
0.0
11
1672.04320837473
21
586.737745410835
31
0.0
39
0.0
210
0.0
220
0.0
230
-1.0
0
LINE
5
146
330
22
100
AcDbEntity
8
AM_8
62
256
6
ByLayer
370
-1
48
1.0
60
0
100
AcDbLine
10
1630.15226841501
20
606.288746645854
30
0.0
11
1629.72514452555
21
606.659574343907
31
0.0
39
0.0
210
0.0
220
0.0
230
-1.0
0
LINE
5
147
330
22
100
AcDbEntity
8
AM_8
62
256
6
ByLayer
370
-1
48
1.0
60
0
100
AcDbLine
10
1668.51220460341
20
572.984763466283
30
0.0
11
1644.53724448569
21
593.799752953524
31
0.0
39
0.0
210
0.0
220
0.0
230
-1.0
0
LINE
5
148
330
22
100
AcDbEntity
8
AM_8
62
256
6
ByLayer
370
-1
48
1.0
60
0
100
AcDbLine
10
1641.00624071436
20
580.046771009001
30
0.0
11
1631.22841274157
21
588.535852344758
31
0.0
39
0.0
210
0.0
220
0.0
230
-1.0
0
LINE
5
149
330
22
100
AcDbEntity
8
AM_8
62
256
6
ByLayer
370
-1
48
1.0
60
0
100
AcDbLine
10
1659.65057103008
20
563.85981855471
30
0.0
11
1655.39121678492
21
567.557777316663
31
0.0
39
0.0
210
0.0
220
0.0
230
-1.0
0
LINE
5
14A
330
22
100
AcDbEntity
8
AM_8
62
256
6
ByLayer
370
-1
48
1.0
60
0
100
AcDbLine
10
1660.63930174309
20
563.916657416944
30
0.0
11
1723.43540195229
21
636.245975622281
31
0.0
39
0.0
210
0.0
220
0.0
230
-1.0
0
LINE
5
14B
330
22
100
AcDbEntity
8
AM_8
62
256
6
ByLayer
370
-1
48
1.0
60
0
100
AcDbLine
10
1645.45781421961
20
565.802290946589
30
0.0
11
1704.80281347776
21
634.156588760366
31
0.0
39
0.0
210
0.0
220
0.0
230
-1.0
0
LINE
5
14C
330
22
100
AcDbEntity
8
AM_8
62
256
6
ByLayer
370
-1
48
1.0
60
0
100
AcDbLine
10
1636.36633247985
20
574.702467811619
30
0.0
11
1686.79895612858
21
632.791382117886
31
0.0
39
0.0
210
0.0
220
0.0
230
-1.0
0
LINE
5
14D
330
22
100
AcDbEntity
8
AM_8
62
256
6
ByLayer
370
-1
48
1.0
60
0
100
AcDbLine
10
1631.29116601765
20
588.228685859904
30
0.0
11
1669.25695755563
21
631.958150076934
31
0.0
39
0.0
210
0.0
220
0.0
230
-1.0
0
LINE
5
14E
330
22
100
AcDbEntity
8
AM_8
62
256
6
ByLayer
370
-1
48
1.0
60
0
100
AcDbLine
10
1629.59282612005
20
605.644374150829
30
0.0
11
1649.92691772189
21
629.065430187504
31
0.0
39
0.0
210
0.0
220
0.0
230
-1.0
0
LINE
5
14F
330
22
100
AcDbEntity
8
AM_8
62
256
6
ByLayer
370
-1
48
1.0
60
0
100
AcDbLine
10
1888.48595039398
20
617.464453470583
30
0.0
11
1876.18099417924
21
628.147580073993
31
0.0
39
0.0
210
0.0
220
0.0
230
-1.0
0
LINE
5
150
330
22
100
AcDbEntity
8
AM_8
62
256
6
ByLayer
370
-1
48
1.0
60
0
100
AcDbLine
10
1872.64999040786
20
614.394598129466
30
0.0
11
1848.67503029014
21
635.209587616707
31
0.0
39
0.0
210
0.0
220
0.0
230
-1.0
0
LINE
5
151
330
22
100
AcDbEntity
8
AM_8
62
256
6
ByLayer
370
-1
48
1.0
60
0
100
AcDbLine
10
1897.21686464771
20
593.065710551566
30
0.0
11
1887.03496647853
21
601.905604437137
31
0.0
39
0.0
210
0.0
220
0.0
230
-1.0
0
LINE
5
152
330
22
100
AcDbEntity
8
AM_8
62
256
6
ByLayer
370
-1
48
1.0
60
0
100
AcDbLine
10
1845.14402651881
20
621.456605672184
30
0.0
11
1821.16906640109
21
642.271595159396
31
0.0
39
0.0
210
0.0
220
0.0
230
-1.0
0
LINE
5
153
330
22
100
AcDbEntity
8
AM_8
62
256
6
ByLayer
370
-1
48
1.0
60
0
100
AcDbLine
10
1883.50396270715
20
588.15262249261
30
0.0
11
1859.52900258949
21
608.967611979826
31
0.0
39
0.0
210
0.0
220
0.0
230
-1.0
0
LINE
5
154
330
22
100
AcDbEntity
8
AM_8
62
256
6
ByLayer
370
-1
48
1.0
60
0
100
AcDbLine
10
1817.63806262976
20
628.518613214873
30
0.0
11
1799.30542432509
21
644.434955586694
31
0.0
39
0.0
210
0.0
220
0.0
230
-1.0
0
LINE
5
155
330
22
100
AcDbEntity
8
AM_8
62
256
6
ByLayer
370
-1
48
1.0
60
0
100
AcDbLine
10
1855.9979988181
20
595.214630035298
30
0.0
11
1832.02303870038
21
616.029619522568
31
0.0
39
0.0
210
0.0
220
0.0
230
-1.0
0
LINE
5
156
330
22
100
AcDbEntity
8
AM_8
62
256
6
ByLayer
370
-1
48
1.0
60
0
100
AcDbLine
10
1882.9309856174
20
571.83149052919
30
0.0
11
1870.38297488872
21
582.725636342965
31
0.0
39
0.0
210
0.0
220
0.0
230
-1.0
0
LINE
5
157
330
22
100
AcDbEntity
8
AM_8
62
256
6
ByLayer
370
-1
48
1.0
60
0
100
AcDbLine
10
1790.13209874065
20
635.580620757586
30
0.0
11
1781.22714569545
21
643.311874662137
31
0.0
39
0.0
210
0.0
220
0.0
230
-1.0
0
LINE
5
158
330
22
100
AcDbEntity
8
AM_8
62
256
6
ByLayer
370
-1
48
1.0
60
0
100
AcDbLine
10
1828.49203492905
20
602.276637578016
30
0.0
11
1804.51707481127
21
623.091627065253
31
0.0
39
0.0
210
0.0
220
0.0
230
-1.0
0
LINE
5
159
330
22
100
AcDbEntity
8
AM_8
62
256
6
ByLayer
370
-1
48
1.0
60
0
100
AcDbLine
10
1866.85197111733
20
568.972654398438
30
0.0
11
1842.87701099967
21
589.787643885653
31
0.0
39
0.0
210
0.0
220
0.0
230
-1.0
0
LINE
5
15A
330
22
100
AcDbEntity
8
AM_8
62
256
6
ByLayer
370
-1
48
1.0
60
0
100
AcDbLine
10
1800.98607104
20
609.338645120705
30
0.0
11
1777.01111092228
21
630.153634607945
31
0.0
39
0.0
210
0.0
220
0.0
230
-1.0
0
LINE
5
15B
330
22
100
AcDbEntity
8
AM_8
62
256
6
ByLayer
370
-1
48
1.0
60
0
100
AcDbLine
10
1839.34600722828
20
576.034661941126
30
0.0
11
1815.37104711056
21
596.849651428367
31
0.0
39
0.0
210
0.0
220
0.0
230
-1.0
0
LINE
5
15C
330
22
100
AcDbEntity
8
AM_8
62
256
6
ByLayer
370
-1
48
1.0
60
0
100
AcDbLine
10
1857.48298997859
20
560.288187143105
30
0.0
11
1853.73098329896
21
563.545668248797
31
0.0
39
0.0
210
0.0
220
0.0
230
-1.0
0
LINE
5
15D
330
22
100
AcDbEntity
8
AM_8
62
256
6
ByLayer
370
-1
48
1.0
60
0
100
AcDbLine
10
1773.48010715083
20
616.400652663414
30
0.0
11
1749.50514703317
21
637.21564215063
31
0.0
39
0.0
210
0.0
220
0.0
230
-1.0
0
LINE
5
15E
330
22
100
AcDbEntity
8
AM_8
62
256
6
ByLayer
370
-1
48
1.0
60
0
100
AcDbLine
10
1811.84004333923
20
583.096669483844
30
0.0
11
1787.86508322151
21
603.911658971056
31
0.0
39
0.0
210
0.0
220
0.0
230
-1.0
0
LINE
5
15F
330
22
100
AcDbEntity
8
AM_8
62
256
6
ByLayer
370
-1
48
1.0
60
0
100
AcDbLine
10
1841.37008098128
20
557.458778114757
30
0.0
11
1826.22501940985
21
570.607675791481
31
0.0
39
0.0
210
0.0
220
0.0
230
-1.0
0
LINE
5
160
330
22
100
AcDbEntity
8
AM_8
62
256
6
ByLayer
370
-1
48
1.0
60
0
100
AcDbLine
10
1784.33407945018
20
590.158677026533
30
0.0
11
1760.35911933246
21
610.973666513773
31
0.0
39
0.0
210
0.0
220
0.0
230
-1.0
0
LINE
5
161
330
22
100
AcDbEntity
8
AM_8
62
256
6
ByLayer
370
-1
48
1.0
60
0
100
AcDbLine
10
1822.69401563852
20
556.854693846958
30
0.0
11
1798.71905552074
21
577.669683334224
31
0.0
39
0.0
210
0.0
220
0.0
230
-1.0
0
LINE
5
162
330
22
100
AcDbEntity
8
AM_8
62
256
6
ByLayer
370
-1
48
1.0
60
0
100
AcDbLine
10
1756.82811556108
20
597.220684569246
30
0.0
11
1732.85315544341
21
618.035674056491
31
0.0
39
0.0
210
0.0
220
0.0
230
-1.0
0
LINE
5
163
330
22
100
AcDbEntity
8
AM_8
62
256
6
ByLayer
370
-1
48
1.0
60
0
100
AcDbLine
10
1795.18805174942
20
563.916701389643
30
0.0
11
1771.2130916317
21
584.731690876883
31
0.0
39
0.0
210
0.0
220
0.0
230
-1.0
0
LINE
5
164
330
22
100
AcDbEntity
8
AM_8
62
256
6
ByLayer
370
-1
48
1.0
60
0
100
AcDbLine
10
1767.68208786037
20
570.97870893239
30
0.0
11
1743.70712774265
21
591.793698419601
31
0.0
39
0.0
210
0.0
220
0.0
230
-1.0
0
LINE
5
165
330
22
100
AcDbEntity
8
AM_8
62
256
6
ByLayer
370
-1
48
1.0
60
0
100
AcDbLine
10
1859.8816263821
20
560.944125864372
30
0.0
11
1896.34445349652
21
602.942457229473
31
0.0
39
0.0
210
0.0
220
0.0
230
-1.0
0
LINE
5
166
330
22
100
AcDbEntity
8
AM_8
62
256
6
ByLayer
370
-1
48
1.0
60
0
100
AcDbLine
10
1839.91668818072
20
557.320122250195
30
0.0
11
1890.19761872053
21
615.234314573542
31
0.0
39
0.0
210
0.0
220
0.0
230
-1.0
0
LINE
5
167
330
22
100
AcDbEntity
8
AM_8
62
256
6
ByLayer
370
-1
48
1.0
60
0
100
AcDbLine
10
1822.68482094754
20
556.844103289107
30
0.0
11
1881.56123062415
21
624.658673877182
31
0.0
39
0.0
210
0.0
220
0.0
230
-1.0
0
LINE
5
168
330
22
100
AcDbEntity
8
AM_8
62
256
6
ByLayer
370
-1
48
1.0
60
0
100
AcDbLine
10
1806.63067886994
20
557.724602603242
30
0.0
11
1871.28925756675
21
632.199146367655
31
0.0
39
0.0
210
0.0
220
0.0
230
-1.0
0
LINE
5
169
330
22
100
AcDbEntity
8
AM_8
62
256
6
ByLayer
370
-1
48
1.0
60
0
100
AcDbLine
10
1792.28958013709
20
560.578206246521
30
0.0
11
1859.38108627699
21
637.855025671606
31
0.0
39
0.0
210
0.0
220
0.0
230
-1.0
0
LINE
5
16A
330
22
100
AcDbEntity
8
AM_8
62
256
6
ByLayer
370
-1
48
1.0
60
0
100
AcDbLine
10
1779.3039577335
20
564.993064146172
30
0.0
11
1845.66619116944
21
641.429898328805
31
0.0
39
0.0
210
0.0
220
0.0
230
-1.0
0
LINE
5
16B
330
22
100
AcDbEntity
8
AM_8
62
256
6
ByLayer
370
-1
48
1.0
60
0
100
AcDbLine
10
1766.54979704668
20
569.674522489293
30
0.0
11
1830.51379855457
21
643.34904373096
31
0.0
39
0.0
210
0.0
220
0.0
230
-1.0
0
LINE
5
16C
330
22
100
AcDbEntity
8
AM_8
62
256
6
ByLayer
370
-1
48
1.0
60
0
100
AcDbLine
10
1753.06414332453
20
573.513438185135
30
0.0
11
1814.64421786648
21
644.442123116535
31
0.0
39
0.0
210
0.0
220
0.0
230
-1.0
0
LINE
5
16D
330
22
100
AcDbEntity
8
AM_8
62
256
6
ByLayer
370
-1
48
1.0
60
0
100
AcDbLine
10
1737.98350678554
20
575.515233115373
30
0.0
11
1797.76892485988
21
644.376810721875
31
0.0
39
0.0
210
0.0
220
0.0
230
-1.0
0
LINE
5
16E
330
22
100
AcDbEntity
8
AM_8
62
256
6
ByLayer
370
-1
48
1.0
60
0
100
AcDbLine
10
1493.09300058478
20
280.169403824359
30
0.0
11
1477.35664117232
21
266.507143110238
31
0.0
39
0.0
210
0.0
220
0.0
230
1.0
0
LINE
5
16F
330
22
100
AcDbEntity
8
AM_8
62
256
6
ByLayer
370
-1
48
1.0
60
0
100
AcDbLine
10
1487.29498129425
20
325.591347555417
30
0.0
11
1463.32002117659
21
304.776358068201
31
0.0
39
0.0
210
0.0
220
0.0
230
1.0
0
LINE
5
170
330
22
100
AcDbEntity
8
AM_8
62
256
6
ByLayer
370
-1
48
1.0
60
0
100
AcDbLine
10
1467.56725650699
20
328.942125850684
30
0.0
11
1527.04672691361
21
260.432942519284
31
0.0
39
0.0
210
0.0
220
0.0
230
1.0
0
LINE
5
171
330
22
100
AcDbEntity
8
AM_8
62
256
6
ByLayer
370
-1
48
1.0
60
0
100
AcDbLine
10
1447.80266338535
20
332.335369545385
30
0.0
11
1508.50719454986
21
262.415146211905
31
0.0
39
0.0
210
0.0
220
0.0
230
1.0
0
LINE
5
172
330
22
100
AcDbEntity
8
AM_8
62
256
6
ByLayer
370
-1
48
1.0
60
0
100
AcDbLine
10
1427.36924194285
20
336.498977901108
30
0.0
11
1489.55704425079
21
264.870304677157
31
0.0
39
0.0
210
0.0
220
0.0
230
1.0
0
LINE
5
173
330
22
100
AcDbEntity
8
AM_8
62
256
6
ByLayer
370
-1
48
1.0
60
0
100
AcDbLine
10
1465.58703669573
20
273.107396281671
30
0.0
11
1460.38952245225
21
268.594929783018
31
0.0
39
0.0
210
0.0
220
0.0
230
1.0
0
LINE
5
174
330
22
100
AcDbEntity
8
AM_8
62
256
6
ByLayer
370
-1
48
1.0
60
0
100
AcDbLine
10
1476.44100899502
20
299.349371918527
30
0.0
11
1452.4660488773
21
278.534382431287
31
0.0
39
0.0
210
0.0
220
0.0
230
1.0
0
LINE
5
175
330
22
100
AcDbEntity
8
AM_8
62
256
6
ByLayer
370
-1
48
1.0
60
0
100
AcDbLine
10
1448.93504510597
20
292.287364375839
30
0.0
11
1424.96008498825
21
271.472374888627
31
0.0
39
0.0
210
0.0
220
0.0
230
1.0
0
LINE
5
176
330
22
100
AcDbEntity
8
AM_8
62
256
6
ByLayer
370
-1
48
1.0
60
0
100
AcDbLine
10
1421.42908121692
20
285.22535683315
30
0.0
11
1406.62887481466
21
272.375861394625
31
0.0
39
0.0
210
0.0
220
0.0
230
1.0
0
LINE
5
177
330
22
100
AcDbEntity
8
AM_8
62
256
6
ByLayer
370
-1
48
1.0
60
0
100
AcDbLine
10
1459.7890174052
20
318.529340012729
30
0.0
11
1435.81405728748
21
297.714350525488
31
0.0
39
0.0
210
0.0
220
0.0
230
1.0
0
LINE
5
178
330
22
100
AcDbEntity
8
AM_8
62
256
6
ByLayer
370
-1
48
1.0
60
0
100
AcDbLine
10
1393.92311732781
20
278.163349290437
30
0.0
11
1392.3115486945
21
276.76419016799
31
0.0
39
0.0
210
0.0
220
0.0
230
1.0
0
LINE
5
179
330
22
100
AcDbEntity
8
AM_8
62
256
6
ByLayer
370
-1
48
1.0
60
0
100
AcDbLine
10
1432.28305351615
20
311.467332470011
30
0.0
11
1408.30809339843
21
290.65234298277
31
0.0
39
0.0
210
0.0
220
0.0
230
1.0
0
LINE
5
17A
330
22
100
AcDbEntity
8
AM_8
62
256
6
ByLayer
370
-1
48
1.0
60
0
100
AcDbLine
10
1454.89750830572
20
331.101135253913
30
0.0
11
1446.66802958683
21
323.95632616234
31
0.0
39
0.0
210
0.0
220
0.0
230
1.0
0
LINE
5
17B
330
22
100
AcDbEntity
8
AM_8
62
256
6
ByLayer
370
-1
48
1.0
60
0
100
AcDbLine
10
1404.77708962711
20
304.405324927322
30
0.0
11
1382.39481666793
21
284.97310172207
31
0.0
39
0.0
210
0.0
220
0.0
230
1.0
0
LINE
5
17C
330
22
100
AcDbEntity
8
AM_8
62
256
6
ByLayer
370
-1
48
1.0
60
0
100
AcDbLine
10
1438.88746230223
20
334.019849629467
30
0.0
11
1419.16206569773
21
316.894318619656
31
0.0
39
0.0
210
0.0
220
0.0
230
1.0
0
LINE
5
17D
330
22
100
AcDbEntity
8
AM_8
62
256
6
ByLayer
370
-1
48
1.0
60
0
100
AcDbLine
10
1377.271125738
20
297.343317384638
30
0.0
11
1376.84400184854
21
296.972489686584
31
0.0
39
0.0
210
0.0
220
0.0
230
1.0
0
LINE
5
17E
330
22
100
AcDbEntity
8
AM_8
62
256
6
ByLayer
370
-1
48
1.0
60
0
100
AcDbLine
10
1415.6310619264
20
330.647300564208
30
0.0
11
1391.65610180868
21
309.832311076967
31
0.0
39
0.0
210
0.0
220
0.0
230
1.0
0
LINE
5
17F
330
22
100
AcDbEntity
8
AM_8
62
256
6
ByLayer
370
-1
48
1.0
60
0
100
AcDbLine
10
1388.12509803735
20
323.58529302149
30
0.0
11
1378.34727006457
21
315.096211685733
31
0.0
39
0.0
210
0.0
220
0.0
230
1.0
0
LINE
5
180
330
22
100
AcDbEntity
8
AM_8
62
256
6
ByLayer
370
-1
48
1.0
60
0
100
AcDbLine
10
1406.76942835307
20
339.772245475781
30
0.0
11
1402.51007410791
21
336.074286713828
31
0.0
39
0.0
210
0.0
220
0.0
230
1.0
0
LINE
5
181
330
22
100
AcDbEntity
8
AM_8
62
256
6
ByLayer
370
-1
48
1.0
60
0
100
AcDbLine
10
1407.75815906608
20
339.715406613547
30
0.0
11
1470.55425927528
21
267.386088408211
31
0.0
39
0.0
210
0.0
220
0.0
230
1.0
0
LINE
5
182
330
22
100
AcDbEntity
8
AM_8
62
256
6
ByLayer
370
-1
48
1.0
60
0
100
AcDbLine
10
1392.5766715426
20
337.829773083903
30
0.0
11
1451.92167080075
21
269.475475270125
31
0.0
39
0.0
210
0.0
220
0.0
230
1.0
0
LINE
5
183
330
22
100
AcDbEntity
8
AM_8
62
256
6
ByLayer
370
-1
48
1.0
60
0
100
AcDbLine
10
1383.48518980284
20
328.929596218873
30
0.0
11
1433.91781345157
21
270.840681912605
31
0.0
39
0.0
210
0.0
220
0.0
230
1.0
0
LINE
5
184
330
22
100
AcDbEntity
8
AM_8
62
256
6
ByLayer
370
-1
48
1.0
60
0
100
AcDbLine
10
1378.41002334064
20
315.403378170587
30
0.0
11
1416.37581487862
21
271.673913953557
31
0.0
39
0.0
210
0.0
220
0.0
230
1.0
0
LINE
5
185
330
22
100
AcDbEntity
8
AM_8
62
256
6
ByLayer
370
-1
48
1.0
60
0
100
AcDbLine
10
1376.71168344304
20
297.987689879662
30
0.0
11
1397.04577504488
21
274.566633842987
31
0.0
39
0.0
210
0.0
220
0.0
230
1.0
0
LINE
5
186
330
22
100
AcDbEntity
8
AM_8
62
256
6
ByLayer
370
-1
48
1.0
60
0
100
AcDbLine
10
1635.60480771697
20
286.167610559908
30
0.0
11
1623.29985150224
21
275.484483956498
31
0.0
39
0.0
210
0.0
220
0.0
230
1.0
0
LINE
5
187
330
22
100
AcDbEntity
8
AM_8
62
256
6
ByLayer
370
-1
48
1.0
60
0
100
AcDbLine
10
1619.76884773085
20
289.237465901025
30
0.0
11
1595.79388761313
21
268.422476413784
31
0.0
39
0.0
210
0.0
220
0.0
230
1.0
0
LINE
5
188
330
22
100
AcDbEntity
8
AM_8
62
256
6
ByLayer
370
-1
48
1.0
60
0
100
AcDbLine
10
1644.3357219707
20
310.566353478925
30
0.0
11
1634.15382380153
21
301.726459593354
31
0.0
39
0.0
210
0.0
220
0.0
230
1.0
0
LINE
5
189
330
22
100
AcDbEntity
8
AM_8
62
256
6
ByLayer
370
-1
48
1.0
60
0
100
AcDbLine
10
1592.2628838418
20
282.175458358307
30
0.0
11
1568.28792372408
21
261.360468871095
31
0.0
39
0.0
210
0.0
220
0.0
230
1.0
0
LINE
5
18A
330
22
100
AcDbEntity
8
AM_8
62
256
6
ByLayer
370
-1
48
1.0
60
0
100
AcDbLine
10
1630.62282003014
20
315.479441537881
30
0.0
11
1606.64785991248
21
294.664452050666
31
0.0
39
0.0
210
0.0
220
0.0
230
1.0
0
LINE
5
18B
330
22
100
AcDbEntity
8
AM_8
62
256
6
ByLayer
370
-1
48
1.0
60
0
100
AcDbLine
10
1564.75691995275
20
275.113450815618
30
0.0
11
1546.42428164808
21
259.197108443798
31
0.0
39
0.0
210
0.0
220
0.0
230
1.0
0
LINE
5
18C
330
22
100
AcDbEntity
8
AM_8
62
256
6
ByLayer
370
-1
48
1.0
60
0
100
AcDbLine
10
1603.11685614109
20
308.417433995193
30
0.0
11
1579.14189602337
21
287.602444507923
31
0.0
39
0.0
210
0.0
220
0.0
230
1.0
0
LINE
5
18D
330
22
100
AcDbEntity
8
AM_8
62
256
6
ByLayer
370
-1
48
1.0
60
0
100
AcDbLine
10
1630.04984294039
20
331.800573501301
30
0.0
11
1617.50183221171
21
320.906427687526
31
0.0
39
0.0
210
0.0
220
0.0
230
1.0
0
LINE
5
18E
330
22
100
AcDbEntity
8
AM_8
62
256
6
ByLayer
370
-1
48
1.0
60
0
100
AcDbLine
10
1537.25095606364
20
268.051443272905
30
0.0
11
1528.34600301844
21
260.320189368354
31
0.0
39
0.0
210
0.0
220
0.0
230
1.0
0
LINE
5
18F
330
22
100
AcDbEntity
8
AM_8
62
256
6
ByLayer
370
-1
48
1.0
60
0
100
AcDbLine
10
1575.61089225204
20
301.355426452475
30
0.0
11
1551.63593213426
21
280.540436965239
31
0.0
39
0.0
210
0.0
220
0.0
230
1.0
0
LINE
5
190
330
22
100
AcDbEntity
8
AM_8
62
256
6
ByLayer
370
-1
48
1.0
60
0
100
AcDbLine
10
1613.97082844032
20
334.659409632053
30
0.0
11
1589.99586832266
21
313.844420144838
31
0.0
39
0.0
210
0.0
220
0.0
230
1.0
0
LINE
5
191
330
22
100
AcDbEntity
8
AM_8
62
256
6
ByLayer
370
-1
48
1.0
60
0
100
AcDbLine
10
1548.10492836299
20
294.293418909787
30
0.0
11
1524.12996824527
21
273.478429422546
31
0.0
39
0.0
210
0.0
220
0.0
230
1.0
0
LINE
5
192
330
22
100
AcDbEntity
8
AM_8
62
256
6
ByLayer
370
-1
48
1.0
60
0
100
AcDbLine
10
1586.46486455127
20
327.597402089365
30
0.0
11
1562.48990443355
21
306.782412602124
31
0.0
39
0.0
210
0.0
220
0.0
230
1.0
0
LINE
5
193
330
22
100
AcDbEntity
8
AM_8
62
256
6
ByLayer
370
-1
48
1.0
60
0
100
AcDbLine
10
1604.60184730158
20
343.343876887386
30
0.0
11
1600.84984062195
21
340.086395781694
31
0.0
39
0.0
210
0.0
220
0.0
230
1.0
0
LINE
5
194
330
22
100
AcDbEntity
8
AM_8
62
256
6
ByLayer
370
-1
48
1.0
60
0
100
AcDbLine
10
1520.59896447383
20
287.231411367077
30
0.0
11
1496.62400435617
21
266.416421879861
31
0.0
39
0.0
210
0.0
220
0.0
230
1.0
0
LINE
5
195
330
22
100
AcDbEntity
8
AM_8
62
256
6
ByLayer
370
-1
48
1.0
60
0
100
AcDbLine
10
1558.95890066222
20
320.535394546647
30
0.0
11
1534.98394054451
21
299.720405059436
31
0.0
39
0.0
210
0.0
220
0.0
230
1.0
0
LINE
5
196
330
22
100
AcDbEntity
8
AM_8
62
256
6
ByLayer
370
-1
48
1.0
60
0
100
AcDbLine
10
1588.48893830427
20
346.173285915734
30
0.0
11
1573.34387673285
21
333.02438823901
31
0.0
39
0.0
210
0.0
220
0.0
230
1.0
0
LINE
5
197
330
22
100
AcDbEntity
8
AM_8
62
256
6
ByLayer
370
-1
48
1.0
60
0
100
AcDbLine
10
1531.45293677318
20
313.473387003959
30
0.0
11
1507.47797665546
21
292.658397516718
31
0.0
39
0.0
210
0.0
220
0.0
230
1.0
0
LINE
5
198
330
22
100
AcDbEntity
8
AM_8
62
256
6
ByLayer
370
-1
48
1.0
60
0
100
AcDbLine
10
1569.81287296152
20
346.777370183533
30
0.0
11
1545.83791284374
21
325.962380696267
31
0.0
39
0.0
210
0.0
220
0.0
230
1.0
0
LINE
5
199
330
22
100
AcDbEntity
8
AM_8
62
256
6
ByLayer
370
-1
48
1.0
60
0
100
AcDbLine
10
1503.94697288407
20
306.411379461245
30
0.0
11
1479.97201276641
21
285.596389974
31
0.0
39
0.0
210
0.0
220
0.0
230
1.0
0
LINE
5
19A
330
22
100
AcDbEntity
8
AM_8
62
256
6
ByLayer
370
-1
48
1.0
60
0
100
AcDbLine
10
1542.30690907241
20
339.715362640848
30
0.0
11
1518.33194895469
21
318.900373153608
31
0.0
39
0.0
210
0.0
220
0.0
230
1.0
0
LINE
5
19B
330
22
100
AcDbEntity
8
AM_8
62
256
6
ByLayer
370
-1
48
1.0
60
0
100
AcDbLine
10
1514.80094518336
20
332.653355098102
30
0.0
11
1490.82598506564
21
311.83836561089
31
0.0
39
0.0
210
0.0
220
0.0
230
1.0
0
LINE
5
19C
330
22
100
AcDbEntity
8
AM_8
62
256
6
ByLayer
370
-1
48
1.0
60
0
100
AcDbLine
10
1607.00048370509
20
342.687938166119
30
0.0
11
1643.46331081951
21
300.689606801018
31
0.0
39
0.0
210
0.0
220
0.0
230
1.0
0
LINE
5
19D
330
22
100
AcDbEntity
8
AM_8
62
256
6
ByLayer
370
-1
48
1.0
60
0
100
AcDbLine
10
1587.03554550371
20
346.311941780296
30
0.0
11
1637.31647604352
21
288.397749456949
31
0.0
39
0.0
210
0.0
220
0.0
230
1.0
0
LINE
5
19E
330
22
100
AcDbEntity
8
AM_8
62
256
6
ByLayer
370
-1
48
1.0
60
0
100
AcDbLine
10
1569.80367827053
20
346.787960741384
30
0.0
11
1628.68008794714
21
278.973390153309
31
0.0
39
0.0
210
0.0
220
0.0
230
1.0
0
LINE
5
19F
330
22
100
AcDbEntity
8
AM_8
62
256
6
ByLayer
370
-1
48
1.0
60
0
100
AcDbLine
10
1553.74953619293
20
345.907461427249
30
0.0
11
1618.40811488974
21
271.432917662836
31
0.0
39
0.0
210
0.0
220
0.0
230
1.0
0
LINE
5
1A0
330
22
100
AcDbEntity
8
AM_8
62
256
6
ByLayer
370
-1
48
1.0
60
0
100
AcDbLine
10
1539.40843746008
20
343.05385778397
30
0.0
11
1606.49994359998
21
265.777038358885
31
0.0
39
0.0
210
0.0
220
0.0
230
1.0
0
LINE
5
1A1
330
22
100
AcDbEntity
8
AM_8
62
256
6
ByLayer
370
-1
48
1.0
60
0
100
AcDbLine
10
1526.42281505649
20
338.638999884319
30
0.0
11
1592.78504849243
21
262.202165701686
31
0.0
39
0.0
210
0.0
220
0.0
230
1.0
0
LINE
5
1A2
330
22
100
AcDbEntity
8
AM_8
62
256
6
ByLayer
370
-1
48
1.0
60
0
100
AcDbLine
10
1513.66865436967
20
333.957541541198
30
0.0
11
1577.63265587756
21
260.283020299531
31
0.0
39
0.0
210
0.0
220
0.0
230
1.0
0
LINE
5
1A3
330
22
100
AcDbEntity
8
AM_8
62
256
6
ByLayer
370
-1
48
1.0
60
0
100
AcDbLine
10
1500.18300064752
20
330.118625845357
30
0.0
11
1561.76307518947
21
259.189940913956
31
0.0
39
0.0
210
0.0
220
0.0
230
1.0
0
LINE
5
1A4
330
22
100
AcDbEntity
8
AM_8
62
256
6
ByLayer
370
-1
48
1.0
60
0
100
AcDbLine
10
1485.10236410853
20
328.116830915118
30
0.0
11
1544.88778218287
21
259.255253308616
31
0.0
39
0.0
210
0.0
220
0.0
230
1.0
0
LINE
5
1A5
330
22
100
AcDbEntity
8
AM_8
62
256
6
ByLayer
370
-1
48
1.0
60
0
100
AcDbLine
10
2233.9741432618
20
623.462660206132
30
0.0
11
2218.23778384934
21
637.124920920253
31
0.0
39
0.0
210
0.0
220
0.0
230
-1.0
0
LINE
5
1A6
330
22
100
AcDbEntity
8
AM_8
62
256
6
ByLayer
370
-1
48
1.0
60
0
100
AcDbLine
10
2228.17612397127
20
578.040716475074
30
0.0
11
2204.20116385361
21
598.85570596229
31
0.0
39
0.0
210
0.0
220
0.0
230
-1.0
0
LINE
5
1A7
330
22
100
AcDbEntity
8
AM_8
62
256
6
ByLayer
370
-1
48
1.0
60
0
100
AcDbLine
10
2208.44839918401
20
574.689938179808
30
0.0
11
2267.92786959063
21
643.199121511207
31
0.0
39
0.0
210
0.0
220
0.0
230
-1.0
0
LINE
5
1A8
330
22
100
AcDbEntity
8
AM_8
62
256
6
ByLayer
370
-1
48
1.0
60
0
100
AcDbLine
10
2188.68380606238
20
571.296694485106
30
0.0
11
2249.38833722688
21
641.216917818586
31
0.0
39
0.0
210
0.0
220
0.0
230
-1.0
0
LINE
5
1A9
330
22
100
AcDbEntity
8
AM_8
62
256
6
ByLayer
370
-1
48
1.0
60
0
100
AcDbLine
10
2168.25038461987
20
567.133086129383
30
0.0
11
2230.43818692781
21
638.761759353334
31
0.0
39
0.0
210
0.0
220
0.0
230
-1.0
0
LINE
5
1AA
330
22
100
AcDbEntity
8
AM_8
62
256
6
ByLayer
370
-1
48
1.0
60
0
100
AcDbLine
10
2206.46817937275
20
630.52466774882
30
0.0
11
2201.27066512927
21
635.037134247473
31
0.0
39
0.0
210
0.0
220
0.0
230
-1.0
0
LINE
5
1AB
330
22
100
AcDbEntity
8
AM_8
62
256
6
ByLayer
370
-1
48
1.0
60
0
100
AcDbLine
10
2217.32215167204
20
604.282692111964
30
0.0
11
2193.34719155432
21
625.097681599204
31
0.0
39
0.0
210
0.0
220
0.0
230
-1.0
0
LINE
5
1AC
330
22
100
AcDbEntity
8
AM_8
62
256
6
ByLayer
370
-1
48
1.0
60
0
100
AcDbLine
10
2189.81618778299
20
611.344699654652
30
0.0
11
2165.84122766527
21
632.159689141864
31
0.0
39
0.0
210
0.0
220
0.0
230
-1.0
0
LINE
5
1AD
330
22
100
AcDbEntity
8
AM_8
62
256
6
ByLayer
370
-1
48
1.0
60
0
100
AcDbLine
10
2162.31022389394
20
618.406707197341
30
0.0
11
2147.51001749168
21
631.256202635867
31
0.0
39
0.0
210
0.0
220
0.0
230
-1.0
0
LINE
5
1AE
330
22
100
AcDbEntity
8
AM_8
62
256
6
ByLayer
370
-1
48
1.0
60
0
100
AcDbLine
10
2200.67016008223
20
585.102724017763
30
0.0
11
2176.69519996451
21
605.917713505003
31
0.0
39
0.0
210
0.0
220
0.0
230
-1.0
0
LINE
5
1AF
330
22
100
AcDbEntity
8
AM_8
62
256
6
ByLayer
370
-1
48
1.0
60
0
100
AcDbLine
10
2134.80426000484
20
625.468714740055
30
0.0
11
2133.19269137153
21
626.867873862501
31
0.0
39
0.0
210
0.0
220
0.0
230
-1.0
0
LINE
5
1B0
330
22
100
AcDbEntity
8
AM_8
62
256
6
ByLayer
370
-1
48
1.0
60
0
100
AcDbLine
10
2173.16419619318
20
592.16473156048
30
0.0
11
2149.18923607546
21
612.979721047721
31
0.0
39
0.0
210
0.0
220
0.0
230
-1.0
0
LINE
5
1B1
330
22
100
AcDbEntity
8
AM_8
62
256
6
ByLayer
370
-1
48
1.0
60
0
100
AcDbLine
10
2195.77865098274
20
572.530928776579
30
0.0
11
2187.54917226385
21
579.675737868151
31
0.0
39
0.0
210
0.0
220
0.0
230
-1.0
0
LINE
5
1B2
330
22
100
AcDbEntity
8
AM_8
62
256
6
ByLayer
370
-1
48
1.0
60
0
100
AcDbLine
10
2145.65823230413
20
599.226739103169
30
0.0
11
2123.27595934495
21
618.658962308421
31
0.0
39
0.0
210
0.0
220
0.0
230
-1.0
0
LINE
5
1B3
330
22
100
AcDbEntity
8
AM_8
62
256
6
ByLayer
370
-1
48
1.0
60
0
100
AcDbLine
10
2179.76860497925
20
569.612214401024
30
0.0
11
2160.04320837475
21
586.737745410835
31
0.0
39
0.0
210
0.0
220
0.0
230
-1.0
0
LINE
5
1B4
330
22
100
AcDbEntity
8
AM_8
62
256
6
ByLayer
370
-1
48
1.0
60
0
100
AcDbLine
10
2118.15226841502
20
606.288746645854
30
0.0
11
2117.72514452557
21
606.659574343907
31
0.0
39
0.0
210
0.0
220
0.0
230
-1.0
0
LINE
5
1B5
330
22
100
AcDbEntity
8
AM_8
62
256
6
ByLayer
370
-1
48
1.0
60
0
100
AcDbLine
10
2156.51220460342
20
572.984763466283
30
0.0
11
2132.5372444857
21
593.799752953524
31
0.0
39
0.0
210
0.0
220
0.0
230
-1.0
0
LINE
5
1B6
330
22
100
AcDbEntity
8
AM_8
62
256
6
ByLayer
370
-1
48
1.0
60
0
100
AcDbLine
10
2129.00624071437
20
580.046771009001
30
0.0
11
2119.22841274159
21
588.535852344758
31
0.0
39
0.0
210
0.0
220
0.0
230
-1.0
0
LINE
5
1B7
330
22
100
AcDbEntity
8
AM_8
62
256
6
ByLayer
370
-1
48
1.0
60
0
100
AcDbLine
10
2147.65057103009
20
563.85981855471
30
0.0
11
2143.39121678493
21
567.557777316663
31
0.0
39
0.0
210
0.0
220
0.0
230
-1.0
0
LINE
5
1B8
330
22
100
AcDbEntity
8
AM_8
62
256
6
ByLayer
370
-1
48
1.0
60
0
100
AcDbLine
10
2148.6393017431
20
563.916657416944
30
0.0
11
2211.4354019523
21
636.245975622281
31
0.0
39
0.0
210
0.0
220
0.0
230
-1.0
0
LINE
5
1B9
330
22
100
AcDbEntity
8
AM_8
62
256
6
ByLayer
370
-1
48
1.0
60
0
100
AcDbLine
10
2133.45781421963
20
565.802290946589
30
0.0
11
2192.80281347777
21
634.156588760366
31
0.0
39
0.0
210
0.0
220
0.0
230
-1.0
0
LINE
5
1BA
330
22
100
AcDbEntity
8
AM_8
62
256
6
ByLayer
370
-1
48
1.0
60
0
100
AcDbLine
10
2124.36633247987
20
574.702467811619
30
0.0
11
2174.79895612859
21
632.791382117886
31
0.0
39
0.0
210
0.0
220
0.0
230
-1.0
0
LINE
5
1BB
330
22
100
AcDbEntity
8
AM_8
62
256
6
ByLayer
370
-1
48
1.0
60
0
100
AcDbLine
10
2119.29116601766
20
588.228685859904
30
0.0
11
2157.25695755564
21
631.958150076934
31
0.0
39
0.0
210
0.0
220
0.0
230
-1.0
0
LINE
5
1BC
330
22
100
AcDbEntity
8
AM_8
62
256
6
ByLayer
370
-1
48
1.0
60
0
100
AcDbLine
10
2117.59282612006
20
605.644374150829
30
0.0
11
2137.9269177219
21
629.065430187504
31
0.0
39
0.0
210
0.0
220
0.0
230
-1.0
0
LINE
5
1BD
330
22
100
AcDbEntity
8
AM_8
62
256
6
ByLayer
370
-1
48
1.0
60
0
100
AcDbLine
10
2376.48595039399
20
617.464453470583
30
0.0
11
2364.18099417926
21
628.147580073993
31
0.0
39
0.0
210
0.0
220
0.0
230
-1.0
0
LINE
5
1BE
330
22
100
AcDbEntity
8
AM_8
62
256
6
ByLayer
370
-1
48
1.0
60
0
100
AcDbLine
10
2360.64999040787
20
614.394598129466
30
0.0
11
2336.67503029015
21
635.209587616707
31
0.0
39
0.0
210
0.0
220
0.0
230
-1.0
0
LINE
5
1BF
330
22
100
AcDbEntity
8
AM_8
62
256
6
ByLayer
370
-1
48
1.0
60
0
100
AcDbLine
10
2385.21686464772
20
593.065710551566
30
0.0
11
2375.03496647855
21
601.905604437137
31
0.0
39
0.0
210
0.0
220
0.0
230
-1.0
0
LINE
5
1C0
330
22
100
AcDbEntity
8
AM_8
62
256
6
ByLayer
370
-1
48
1.0
60
0
100
AcDbLine
10
2333.14402651882
20
621.456605672184
30
0.0
11
2309.1690664011
21
642.271595159396
31
0.0
39
0.0
210
0.0
220
0.0
230
-1.0
0
LINE
5
1C1
330
22
100
AcDbEntity
8
AM_8
62
256
6
ByLayer
370
-1
48
1.0
60
0
100
AcDbLine
10
2371.50396270716
20
588.15262249261
30
0.0
11
2347.5290025895
21
608.967611979826
31
0.0
39
0.0
210
0.0
220
0.0
230
-1.0
0
LINE
5
1C2
330
22
100
AcDbEntity
8
AM_8
62
256
6
ByLayer
370
-1
48
1.0
60
0
100
AcDbLine
10
2305.63806262977
20
628.518613214873
30
0.0
11
2287.3054243251
21
644.434955586694
31
0.0
39
0.0
210
0.0
220
0.0
230
-1.0
0
LINE
5
1C3
330
22
100
AcDbEntity
8
AM_8
62
256
6
ByLayer
370
-1
48
1.0
60
0
100
AcDbLine
10
2343.99799881811
20
595.214630035298
30
0.0
11
2320.02303870039
21
616.029619522568
31
0.0
39
0.0
210
0.0
220
0.0
230
-1.0
0
LINE
5
1C4
330
22
100
AcDbEntity
8
AM_8
62
256
6
ByLayer
370
-1
48
1.0
60
0
100
AcDbLine
10
2370.93098561741
20
571.83149052919
30
0.0
11
2358.38297488873
21
582.725636342965
31
0.0
39
0.0
210
0.0
220
0.0
230
-1.0
0
LINE
5
1C5
330
22
100
AcDbEntity
8
AM_8
62
256
6
ByLayer
370
-1
48
1.0
60
0
100
AcDbLine
10
2278.13209874066
20
635.580620757586
30
0.0
11
2269.22714569546
21
643.311874662137
31
0.0
39
0.0
210
0.0
220
0.0
230
-1.0
0
LINE
5
1C6
330
22
100
AcDbEntity
8
AM_8
62
256
6
ByLayer
370
-1
48
1.0
60
0
100
AcDbLine
10
2316.49203492906
20
602.276637578016
30
0.0
11
2292.51707481128
21
623.091627065253
31
0.0
39
0.0
210
0.0
220
0.0
230
-1.0
0
LINE
5
1C7
330
22
100
AcDbEntity
8
AM_8
62
256
6
ByLayer
370
-1
48
1.0
60
0
100
AcDbLine
10
2354.85197111734
20
568.972654398438
30
0.0
11
2330.87701099968
21
589.787643885653
31
0.0
39
0.0
210
0.0
220
0.0
230
-1.0
0
LINE
5
1C8
330
22
100
AcDbEntity
8
AM_8
62
256
6
ByLayer
370
-1
48
1.0
60
0
100
AcDbLine
10
2288.98607104001
20
609.338645120705
30
0.0
11
2265.01111092229
21
630.153634607945
31
0.0
39
0.0
210
0.0
220
0.0
230
-1.0
0
LINE
5
1C9
330
22
100
AcDbEntity
8
AM_8
62
256
6
ByLayer
370
-1
48
1.0
60
0
100
AcDbLine
10
2327.3460072283
20
576.034661941126
30
0.0
11
2303.37104711058
21
596.849651428367
31
0.0
39
0.0
210
0.0
220
0.0
230
-1.0
0
LINE
5
1CA
330
22
100
AcDbEntity
8
AM_8
62
256
6
ByLayer
370
-1
48
1.0
60
0
100
AcDbLine
10
2345.4829899786
20
560.288187143105
30
0.0
11
2341.73098329897
21
563.545668248797
31
0.0
39
0.0
210
0.0
220
0.0
230
-1.0
0
LINE
5
1CB
330
22
100
AcDbEntity
8
AM_8
62
256
6
ByLayer
370
-1
48
1.0
60
0
100
AcDbLine
10
2261.48010715085
20
616.400652663414
30
0.0
11
2237.50514703319
21
637.21564215063
31
0.0
39
0.0
210
0.0
220
0.0
230
-1.0
0
LINE
5
1CC
330
22
100
AcDbEntity
8
AM_8
62
256
6
ByLayer
370
-1
48
1.0
60
0
100
AcDbLine
10
2299.84004333925
20
583.096669483844
30
0.0
11
2275.86508322153
21
603.911658971056
31
0.0
39
0.0
210
0.0
220
0.0
230
-1.0
0
LINE
5
1CD
330
22
100
AcDbEntity
8
AM_8
62
256
6
ByLayer
370
-1
48
1.0
60
0
100
AcDbLine
10
2329.37008098129
20
557.458778114757
30
0.0
11
2314.22501940987
21
570.607675791481
31
0.0
39
0.0
210
0.0
220
0.0
230
-1.0
0
LINE
5
1CE
330
22
100
AcDbEntity
8
AM_8
62
256
6
ByLayer
370
-1
48
1.0
60
0
100
AcDbLine
10
2272.3340794502
20
590.158677026533
30
0.0
11
2248.35911933248
21
610.973666513773
31
0.0
39
0.0
210
0.0
220
0.0
230
-1.0
0
LINE
5
1CF
330
22
100
AcDbEntity
8
AM_8
62
256
6
ByLayer
370
-1
48
1.0
60
0
100
AcDbLine
10
2310.69401563854
20
556.854693846958
30
0.0
11
2286.71905552076
21
577.669683334224
31
0.0
39
0.0
210
0.0
220
0.0
230
-1.0
0
LINE
5
1D0
330
22
100
AcDbEntity
8
AM_8
62
256
6
ByLayer
370
-1
48
1.0
60
0
100
AcDbLine
10
2244.82811556109
20
597.220684569246
30
0.0
11
2220.85315544343
21
618.035674056491
31
0.0
39
0.0
210
0.0
220
0.0
230
-1.0
0
LINE
5
1D1
330
22
100
AcDbEntity
8
AM_8
62
256
6
ByLayer
370
-1
48
1.0
60
0
100
AcDbLine
10
2283.18805174943
20
563.916701389643
30
0.0
11
2259.21309163171
21
584.731690876883
31
0.0
39
0.0
210
0.0
220
0.0
230
-1.0
0
LINE
5
1D2
330
22
100
AcDbEntity
8
AM_8
62
256
6
ByLayer
370
-1
48
1.0
60
0
100
AcDbLine
10
2255.68208786038
20
570.97870893239
30
0.0
11
2231.70712774266
21
591.793698419601
31
0.0
39
0.0
210
0.0
220
0.0
230
-1.0
0
LINE
5
1D3
330
22
100
AcDbEntity
8
AM_8
62
256
6
ByLayer
370
-1
48
1.0
60
0
100
AcDbLine
10
2347.88162638211
20
560.944125864372
30
0.0
11
2384.34445349653
21
602.942457229473
31
0.0
39
0.0
210
0.0
220
0.0
230
-1.0
0
LINE
5
1D4
330
22
100
AcDbEntity
8
AM_8
62
256
6
ByLayer
370
-1
48
1.0
60
0
100
AcDbLine
10
2327.91668818074
20
557.320122250195
30
0.0
11
2378.19761872055
21
615.234314573542
31
0.0
39
0.0
210
0.0
220
0.0
230
-1.0
0
LINE
5
1D5
330
22
100
AcDbEntity
8
AM_8
62
256
6
ByLayer
370
-1
48
1.0
60
0
100
AcDbLine
10
2310.68482094755
20
556.844103289107
30
0.0
11
2369.56123062416
21
624.658673877182
31
0.0
39
0.0
210
0.0
220
0.0
230
-1.0
0
LINE
5
1D6
330
22
100
AcDbEntity
8
AM_8
62
256
6
ByLayer
370
-1
48
1.0
60
0
100
AcDbLine
10
2294.63067886995
20
557.724602603242
30
0.0
11
2359.28925756677
21
632.199146367655
31
0.0
39
0.0
210
0.0
220
0.0
230
-1.0
0
LINE
5
1D7
330
22
100
AcDbEntity
8
AM_8
62
256
6
ByLayer
370
-1
48
1.0
60
0
100
AcDbLine
10
2280.2895801371
20
560.578206246521
30
0.0
11
2347.381086277
21
637.855025671606
31
0.0
39
0.0
210
0.0
220
0.0
230
-1.0
0
LINE
5
1D8
330
22
100
AcDbEntity
8
AM_8
62
256
6
ByLayer
370
-1
48
1.0
60
0
100
AcDbLine
10
2267.30395773352
20
564.993064146172
30
0.0
11
2333.66619116946
21
641.429898328805
31
0.0
39
0.0
210
0.0
220
0.0
230
-1.0
0
LINE
5
1D9
330
22
100
AcDbEntity
8
AM_8
62
256
6
ByLayer
370
-1
48
1.0
60
0
100
AcDbLine
10
2254.54979704669
20
569.674522489293
30
0.0
11
2318.51379855458
21
643.34904373096
31
0.0
39
0.0
210
0.0
220
0.0
230
-1.0
0
LINE
5
1DA
330
22
100
AcDbEntity
8
AM_8
62
256
6
ByLayer
370
-1
48
1.0
60
0
100
AcDbLine
10
2241.06414332454
20
573.513438185135
30
0.0
11
2302.6442178665
21
644.442123116535
31
0.0
39
0.0
210
0.0
220
0.0
230
-1.0
0
LINE
5
1DB
330
22
100
AcDbEntity
8
AM_8
62
256
6
ByLayer
370
-1
48
1.0
60
0
100
AcDbLine
10
2225.98350678555
20
575.515233115373
30
0.0
11
2285.76892485989
21
644.376810721875
31
0.0
39
0.0
210
0.0
220
0.0
230
-1.0
0
LINE
5
1DC
330
22
100
AcDbEntity
8
AM_8
62
256
6
ByLayer
370
-1
48
1.0
60
0
100
AcDbLine
10
1981.09300058479
20
280.169403824359
30
0.0
11
1965.35664117234
21
266.507143110238
31
0.0
39
0.0
210
0.0
220
0.0
230
1.0
0
LINE
5
1DD
330
22
100
AcDbEntity
8
AM_8
62
256
6
ByLayer
370
-1
48
1.0
60
0
100
AcDbLine
10
1975.29498129427
20
325.591347555417
30
0.0
11
1951.32002117661
21
304.776358068201
31
0.0
39
0.0
210
0.0
220
0.0
230
1.0
0
LINE
5
1DE
330
22
100
AcDbEntity
8
AM_8
62
256
6
ByLayer
370
-1
48
1.0
60
0
100
AcDbLine
10
1955.567256507
20
328.942125850684
30
0.0
11
2015.04672691362
21
260.432942519284
31
0.0
39
0.0
210
0.0
220
0.0
230
1.0
0
LINE
5
1DF
330
22
100
AcDbEntity
8
AM_8
62
256
6
ByLayer
370
-1
48
1.0
60
0
100
AcDbLine
10
1935.80266338537
20
332.335369545385
30
0.0
11
1996.50719454987
21
262.415146211905
31
0.0
39
0.0
210
0.0
220
0.0
230
1.0
0
LINE
5
1E0
330
22
100
AcDbEntity
8
AM_8
62
256
6
ByLayer
370
-1
48
1.0
60
0
100
AcDbLine
10
1915.36924194286
20
336.498977901108
30
0.0
11
1977.5570442508
21
264.870304677157
31
0.0
39
0.0
210
0.0
220
0.0
230
1.0
0
LINE
5
1E1
330
22
100
AcDbEntity
8
AM_8
62
256
6
ByLayer
370
-1
48
1.0
60
0
100
AcDbLine
10
1953.58703669574
20
273.107396281671
30
0.0
11
1948.38952245227
21
268.594929783018
31
0.0
39
0.0
210
0.0
220
0.0
230
1.0
0
LINE
5
1E2
330
22
100
AcDbEntity
8
AM_8
62
256
6
ByLayer
370
-1
48
1.0
60
0
100
AcDbLine
10
1964.44100899503
20
299.349371918527
30
0.0
11
1940.46604887731
21
278.534382431287
31
0.0
39
0.0
210
0.0
220
0.0
230
1.0
0
LINE
5
1E3
330
22
100
AcDbEntity
8
AM_8
62
256
6
ByLayer
370
-1
48
1.0
60
0
100
AcDbLine
10
1936.93504510599
20
292.287364375839
30
0.0
11
1912.96008498827
21
271.472374888627
31
0.0
39
0.0
210
0.0
220
0.0
230
1.0
0
LINE
5
1E4
330
22
100
AcDbEntity
8
AM_8
62
256
6
ByLayer
370
-1
48
1.0
60
0
100
AcDbLine
10
1909.42908121694
20
285.22535683315
30
0.0
11
1894.62887481467
21
272.375861394625
31
0.0
39
0.0
210
0.0
220
0.0
230
1.0
0
LINE
5
1E5
330
22
100
AcDbEntity
8
AM_8
62
256
6
ByLayer
370
-1
48
1.0
60
0
100
AcDbLine
10
1947.78901740522
20
318.529340012729
30
0.0
11
1923.8140572875
21
297.714350525488
31
0.0
39
0.0
210
0.0
220
0.0
230
1.0
0
LINE
5
1E6
330
22
100
AcDbEntity
8
AM_8
62
256
6
ByLayer
370
-1
48
1.0
60
0
100
AcDbLine
10
1881.92311732783
20
278.163349290437
30
0.0
11
1880.31154869452
21
276.76419016799
31
0.0
39
0.0
210
0.0
220
0.0
230
1.0
0
LINE
5
1E7
330
22
100
AcDbEntity
8
AM_8
62
256
6
ByLayer
370
-1
48
1.0
60
0
100
AcDbLine
10
1920.28305351617
20
311.467332470011
30
0.0
11
1896.30809339845
21
290.65234298277
31
0.0
39
0.0
210
0.0
220
0.0
230
1.0
0
LINE
5
1E8
330
22
100
AcDbEntity
8
AM_8
62
256
6
ByLayer
370
-1
48
1.0
60
0
100
AcDbLine
10
1942.89750830574
20
331.101135253913
30
0.0
11
1934.66802958685
21
323.95632616234
31
0.0
39
0.0
210
0.0
220
0.0
230
1.0
0
LINE
5
1E9
330
22
100
AcDbEntity
8
AM_8
62
256
6
ByLayer
370
-1
48
1.0
60
0
100
AcDbLine
10
1892.77708962712
20
304.405324927322
30
0.0
11
1870.39481666794
21
284.97310172207
31
0.0
39
0.0
210
0.0
220
0.0
230
1.0
0
LINE
5
1EA
330
22
100
AcDbEntity
8
AM_8
62
256
6
ByLayer
370
-1
48
1.0
60
0
100
AcDbLine
10
1926.88746230224
20
334.019849629467
30
0.0
11
1907.16206569774
21
316.894318619656
31
0.0
39
0.0
210
0.0
220
0.0
230
1.0
0
LINE
5
1EB
330
22
100
AcDbEntity
8
AM_8
62
256
6
ByLayer
370
-1
48
1.0
60
0
100
AcDbLine
10
1865.27112573802
20
297.343317384638
30
0.0
11
1864.84400184856
21
296.972489686584
31
0.0
39
0.0
210
0.0
220
0.0
230
1.0
0
LINE
5
1EC
330
22
100
AcDbEntity
8
AM_8
62
256
6
ByLayer
370
-1
48
1.0
60
0
100
AcDbLine
10
1903.63106192641
20
330.647300564208
30
0.0
11
1879.65610180869
21
309.832311076967
31
0.0
39
0.0
210
0.0
220
0.0
230
1.0
0
LINE
5
1ED
330
22
100
AcDbEntity
8
AM_8
62
256
6
ByLayer
370
-1
48
1.0
60
0
100
AcDbLine
10
1876.12509803736
20
323.58529302149
30
0.0
11
1866.34727006458
21
315.096211685733
31
0.0
39
0.0
210
0.0
220
0.0
230
1.0
0
LINE
5
1EE
330
22
100
AcDbEntity
8
AM_8
62
256
6
ByLayer
370
-1
48
1.0
60
0
100
AcDbLine
10
1894.76942835309
20
339.772245475781
30
0.0
11
1890.51007410793
21
336.074286713828
31
0.0
39
0.0
210
0.0
220
0.0
230
1.0
0
LINE
5
1EF
330
22
100
AcDbEntity
8
AM_8
62
256
6
ByLayer
370
-1
48
1.0
60
0
100
AcDbLine
10
1895.7581590661
20
339.715406613547
30
0.0
11
1958.5542592753
21
267.386088408211
31
0.0
39
0.0
210
0.0
220
0.0
230
1.0
0
LINE
5
1F0
330
22
100
AcDbEntity
8
AM_8
62
256
6
ByLayer
370
-1
48
1.0
60
0
100
AcDbLine
10
1880.57667154262
20
337.829773083903
30
0.0
11
1939.92167080077
21
269.475475270125
31
0.0
39
0.0
210
0.0
220
0.0
230
1.0
0
LINE
5
1F1
330
22
100
AcDbEntity
8
AM_8
62
256
6
ByLayer
370
-1
48
1.0
60
0
100
AcDbLine
10
1871.48518980286
20
328.929596218873
30
0.0
11
1921.91781345159
21
270.840681912605
31
0.0
39
0.0
210
0.0
220
0.0
230
1.0
0
LINE
5
1F2
330
22
100
AcDbEntity
8
AM_8
62
256
6
ByLayer
370
-1
48
1.0
60
0
100
AcDbLine
10
1866.41002334066
20
315.403378170587
30
0.0
11
1904.37581487864
21
271.673913953557
31
0.0
39
0.0
210
0.0
220
0.0
230
1.0
0
LINE
5
1F3
330
22
100
AcDbEntity
8
AM_8
62
256
6
ByLayer
370
-1
48
1.0
60
0
100
AcDbLine
10
1864.71168344306
20
297.987689879662
30
0.0
11
1885.04577504489
21
274.566633842987
31
0.0
39
0.0
210
0.0
220
0.0
230
1.0
0
LINE
5
1F4
330
22
100
AcDbEntity
8
AM_8
62
256
6
ByLayer
370
-1
48
1.0
60
0
100
AcDbLine
10
2123.60480771699
20
286.167610559908
30
0.0
11
2111.29985150225
21
275.484483956498
31
0.0
39
0.0
210
0.0
220
0.0
230
1.0
0
LINE
5
1F5
330
22
100
AcDbEntity
8
AM_8
62
256
6
ByLayer
370
-1
48
1.0
60
0
100
AcDbLine
10
2107.76884773087
20
289.237465901025
30
0.0
11
2083.79388761314
21
268.422476413784
31
0.0
39
0.0
210
0.0
220
0.0
230
1.0
0
LINE
5
1F6
330
22
100
AcDbEntity
8
AM_8
62
256
6
ByLayer
370
-1
48
1.0
60
0
100
AcDbLine
10
2132.33572197071
20
310.566353478925
30
0.0
11
2122.15382380154
21
301.726459593354
31
0.0
39
0.0
210
0.0
220
0.0
230
1.0
0
LINE
5
1F7
330
22
100
AcDbEntity
8
AM_8
62
256
6
ByLayer
370
-1
48
1.0
60
0
100
AcDbLine
10
2080.26288384181
20
282.175458358307
30
0.0
11
2056.2879237241
21
261.360468871095
31
0.0
39
0.0
210
0.0
220
0.0
230
1.0
0
LINE
5
1F8
330
22
100
AcDbEntity
8
AM_8
62
256
6
ByLayer
370
-1
48
1.0
60
0
100
AcDbLine
10
2118.62282003016
20
315.479441537881
30
0.0
11
2094.6478599125
21
294.664452050666
31
0.0
39
0.0
210
0.0
220
0.0
230
1.0
0
LINE
5
1F9
330
22
100
AcDbEntity
8
AM_8
62
256
6
ByLayer
370
-1
48
1.0
60
0
100
AcDbLine
10
2052.75691995277
20
275.113450815618
30
0.0
11
2034.4242816481
21
259.197108443798
31
0.0
39
0.0
210
0.0
220
0.0
230
1.0
0
LINE
5
1FA
330
22
100
AcDbEntity
8
AM_8
62
256
6
ByLayer
370
-1
48
1.0
60
0
100
AcDbLine
10
2091.11685614111
20
308.417433995193
30
0.0
11
2067.14189602339
21
287.602444507923
31
0.0
39
0.0
210
0.0
220
0.0
230
1.0
0
LINE
5
1FB
330
22
100
AcDbEntity
8
AM_8
62
256
6
ByLayer
370
-1
48
1.0
60
0
100
AcDbLine
10
2118.0498429404
20
331.800573501301
30
0.0
11
2105.50183221173
21
320.906427687526
31
0.0
39
0.0
210
0.0
220
0.0
230
1.0
0
LINE
5
1FC
330
22
100
AcDbEntity
8
AM_8
62
256
6
ByLayer
370
-1
48
1.0
60
0
100
AcDbLine
10
2025.25095606366
20
268.051443272905
30
0.0
11
2016.34600301846
21
260.320189368354
31
0.0
39
0.0
210
0.0
220
0.0
230
1.0
0
LINE
5
1FD
330
22
100
AcDbEntity
8
AM_8
62
256
6
ByLayer
370
-1
48
1.0
60
0
100
AcDbLine
10
2063.61089225206
20
301.355426452475
30
0.0
11
2039.63593213428
21
280.540436965239
31
0.0
39
0.0
210
0.0
220
0.0
230
1.0
0
LINE
5
1FE
330
22
100
AcDbEntity
8
AM_8
62
256
6
ByLayer
370
-1
48
1.0
60
0
100
AcDbLine
10
2101.97082844034
20
334.659409632053
30
0.0
11
2077.99586832268
21
313.844420144838
31
0.0
39
0.0
210
0.0
220
0.0
230
1.0
0
LINE
5
1FF
330
22
100
AcDbEntity
8
AM_8
62
256
6
ByLayer
370
-1
48
1.0
60
0
100
AcDbLine
10
2036.10492836301
20
294.293418909787
30
0.0
11
2012.12996824529
21
273.478429422546
31
0.0
39
0.0
210
0.0
220
0.0
230
1.0
0
LINE
5
200
330
22
100
AcDbEntity
8
AM_8
62
256
6
ByLayer
370
-1
48
1.0
60
0
100
AcDbLine
10
2074.46486455129
20
327.597402089365
30
0.0
11
2050.48990443357
21
306.782412602124
31
0.0
39
0.0
210
0.0
220
0.0
230
1.0
0
LINE
5
201
330
22
100
AcDbEntity
8
AM_8
62
256
6
ByLayer
370
-1
48
1.0
60
0
100
AcDbLine
10
2092.6018473016
20
343.343876887386
30
0.0
11
2088.84984062197
21
340.086395781694
31
0.0
39
0.0
210
0.0
220
0.0
230
1.0
0
LINE
5
202
330
22
100
AcDbEntity
8
AM_8
62
256
6
ByLayer
370
-1
48
1.0
60
0
100
AcDbLine
10
2008.59896447384
20
287.231411367077
30
0.0
11
1984.62400435618
21
266.416421879861
31
0.0
39
0.0
210
0.0
220
0.0
230
1.0
0
LINE
5
203
330
22
100
AcDbEntity
8
AM_8
62
256
6
ByLayer
370
-1
48
1.0
60
0
100
AcDbLine
10
2046.95890066224
20
320.535394546647
30
0.0
11
2022.98394054452
21
299.720405059436
31
0.0
39
0.0
210
0.0
220
0.0
230
1.0
0
LINE
5
204
330
22
100
AcDbEntity
8
AM_8
62
256
6
ByLayer
370
-1
48
1.0
60
0
100
AcDbLine
10
2076.48893830429
20
346.173285915734
30
0.0
11
2061.34387673286
21
333.02438823901
31
0.0
39
0.0
210
0.0
220
0.0
230
1.0
0
LINE
5
205
330
22
100
AcDbEntity
8
AM_8
62
256
6
ByLayer
370
-1
48
1.0
60
0
100
AcDbLine
10
2019.45293677319
20
313.473387003959
30
0.0
11
1995.47797665547
21
292.658397516718
31
0.0
39
0.0
210
0.0
220
0.0
230
1.0
0
LINE
5
206
330
22
100
AcDbEntity
8
AM_8
62
256
6
ByLayer
370
-1
48
1.0
60
0
100
AcDbLine
10
2057.81287296153
20
346.777370183533
30
0.0
11
2033.83791284375
21
325.962380696267
31
0.0
39
0.0
210
0.0
220
0.0
230
1.0
0
LINE
5
207
330
22
100
AcDbEntity
8
AM_8
62
256
6
ByLayer
370
-1
48
1.0
60
0
100
AcDbLine
10
1991.94697288408
20
306.411379461245
30
0.0
11
1967.97201276642
21
285.596389974
31
0.0
39
0.0
210
0.0
220
0.0
230
1.0
0
LINE
5
208
330
22
100
AcDbEntity
8
AM_8
62
256
6
ByLayer
370
-1
48
1.0
60
0
100
AcDbLine
10
2030.30690907243
20
339.715362640848
30
0.0
11
2006.33194895471
21
318.900373153608
31
0.0
39
0.0
210
0.0
220
0.0
230
1.0
0
LINE
5
209
330
22
100
AcDbEntity
8
AM_8
62
256
6
ByLayer
370
-1
48
1.0
60
0
100
AcDbLine
10
2002.80094518337
20
332.653355098102
30
0.0
11
1978.82598506566
21
311.83836561089
31
0.0
39
0.0
210
0.0
220
0.0
230
1.0
0
LINE
5
20A
330
22
100
AcDbEntity
8
AM_8
62
256
6
ByLayer
370
-1
48
1.0
60
0
100
AcDbLine
10
2095.00048370511
20
342.687938166119
30
0.0
11
2131.46331081953
21
300.689606801018
31
0.0
39
0.0
210
0.0
220
0.0
230
1.0
0
LINE
5
20B
330
22
100
AcDbEntity
8
AM_8
62
256
6
ByLayer
370
-1
48
1.0
60
0
100
AcDbLine
10
2075.03554550373
20
346.311941780296
30
0.0
11
2125.31647604354
21
288.397749456949
31
0.0
39
0.0
210
0.0
220
0.0
230
1.0
0
LINE
5
20C
330
22
100
AcDbEntity
8
AM_8
62
256
6
ByLayer
370
-1
48
1.0
60
0
100
AcDbLine
10
2057.80367827055
20
346.787960741384
30
0.0
11
2116.68008794715
21
278.973390153309
31
0.0
39
0.0
210
0.0
220
0.0
230
1.0
0
LINE
5
20D
330
22
100
AcDbEntity
8
AM_8
62
256
6
ByLayer
370
-1
48
1.0
60
0
100
AcDbLine
10
2041.74953619295
20
345.907461427249
30
0.0
11
2106.40811488976
21
271.432917662836
31
0.0
39
0.0
210
0.0
220
0.0
230
1.0
0
LINE
5
20E
330
22
100
AcDbEntity
8
AM_8
62
256
6
ByLayer
370
-1
48
1.0
60
0
100
AcDbLine
10
2027.4084374601
20
343.05385778397
30
0.0
11
2094.4999436
21
265.777038358885
31
0.0
39
0.0
210
0.0
220
0.0
230
1.0
0
LINE
5
20F
330
22
100
AcDbEntity
8
AM_8
62
256
6
ByLayer
370
-1
48
1.0
60
0
100
AcDbLine
10
2014.42281505651
20
338.638999884319
30
0.0
11
2080.78504849245
21
262.202165701686
31
0.0
39
0.0
210
0.0
220
0.0
230
1.0
0
LINE
5
210
330
22
100
AcDbEntity
8
AM_8
62
256
6
ByLayer
370
-1
48
1.0
60
0
100
AcDbLine
10
2001.66865436969
20
333.957541541198
30
0.0
11
2065.63265587758
21
260.283020299531
31
0.0
39
0.0
210
0.0
220
0.0
230
1.0
0
LINE
5
211
330
22
100
AcDbEntity
8
AM_8
62
256
6
ByLayer
370
-1
48
1.0
60
0
100
AcDbLine
10
1988.18300064754
20
330.118625845357
30
0.0
11
2049.76307518949
21
259.189940913956
31
0.0
39
0.0
210
0.0
220
0.0
230
1.0
0
LINE
5
212
330
22
100
AcDbEntity
8
AM_8
62
256
6
ByLayer
370
-1
48
1.0
60
0
100
AcDbLine
10
1973.10236410855
20
328.116830915118
30
0.0
11
2032.88778218289
21
259.255253308616
31
0.0
39
0.0
210
0.0
220
0.0
230
1.0
0
LINE
5
213
330
22
100
AcDbEntity
8
AM_8
62
256
6
ByLayer
370
-1
48
1.0
60
0
100
AcDbLine
10
2721.97414326181
20
623.462660206119
30
0.0
11
2706.23778384936
21
637.124920920241
31
0.0
39
0.0
210
0.0
220
0.0
230
-1.0
0
LINE
5
214
330
22
100
AcDbEntity
8
AM_8
62
256
6
ByLayer
370
-1
48
1.0
60
0
100
AcDbLine
10
2716.17612397129
20
578.040716475061
30
0.0
11
2692.20116385363
21
598.855705962277
31
0.0
39
0.0
210
0.0
220
0.0
230
-1.0
0
LINE
5
215
330
22
100
AcDbEntity
8
AM_8
62
256
6
ByLayer
370
-1
48
1.0
60
0
100
AcDbLine
10
2696.44839918402
20
574.689938179795
30
0.0
11
2755.92786959064
21
643.199121511194
31
0.0
39
0.0
210
0.0
220
0.0
230
-1.0
0
LINE
5
216
330
22
100
AcDbEntity
8
AM_8
62
256
6
ByLayer
370
-1
48
1.0
60
0
100
AcDbLine
10
2676.68380606239
20
571.296694485093
30
0.0
11
2737.38833722689
21
641.216917818573
31
0.0
39
0.0
210
0.0
220
0.0
230
-1.0
0
LINE
5
217
330
22
100
AcDbEntity
8
AM_8
62
256
6
ByLayer
370
-1
48
1.0
60
0
100
AcDbLine
10
2656.25038461988
20
567.133086129371
30
0.0
11
2718.43818692782
21
638.761759353322
31
0.0
39
0.0
210
0.0
220
0.0
230
-1.0
0
LINE
5
218
330
22
100
AcDbEntity
8
AM_8
62
256
6
ByLayer
370
-1
48
1.0
60
0
100
AcDbLine
10
2694.46817937276
20
630.524667748808
30
0.0
11
2689.27066512929
21
635.03713424746
31
0.0
39
0.0
210
0.0
220
0.0
230
-1.0
0
LINE
5
219
330
22
100
AcDbEntity
8
AM_8
62
256
6
ByLayer
370
-1
48
1.0
60
0
100
AcDbLine
10
2705.32215167205
20
604.282692111951
30
0.0
11
2681.34719155433
21
625.097681599192
31
0.0
39
0.0
210
0.0
220
0.0
230
-1.0
0
LINE
5
21A
330
22
100
AcDbEntity
8
AM_8
62
256
6
ByLayer
370
-1
48
1.0
60
0
100
AcDbLine
10
2677.81618778301
20
611.34469965464
30
0.0
11
2653.84122766529
21
632.159689141851
31
0.0
39
0.0
210
0.0
220
0.0
230
-1.0
0
LINE
5
21B
330
22
100
AcDbEntity
8
AM_8
62
256
6
ByLayer
370
-1
48
1.0
60
0
100
AcDbLine
10
2650.31022389396
20
618.406707197328
30
0.0
11
2635.51001749169
21
631.256202635854
31
0.0
39
0.0
210
0.0
220
0.0
230
-1.0
0
LINE
5
21C
330
22
100
AcDbEntity
8
AM_8
62
256
6
ByLayer
370
-1
48
1.0
60
0
100
AcDbLine
10
2688.67016008224
20
585.10272401775
30
0.0
11
2664.69519996452
21
605.917713504991
31
0.0
39
0.0
210
0.0
220
0.0
230
-1.0
0
LINE
5
21D
330
22
100
AcDbEntity
8
AM_8
62
256
6
ByLayer
370
-1
48
1.0
60
0
100
AcDbLine
10
2622.80426000485
20
625.468714740042
30
0.0
11
2621.19269137154
21
626.867873862489
31
0.0
39
0.0
210
0.0
220
0.0
230
-1.0
0
LINE
5
21E
330
22
100
AcDbEntity
8
AM_8
62
256
6
ByLayer
370
-1
48
1.0
60
0
100
AcDbLine
10
2661.16419619319
20
592.164731560468
30
0.0
11
2637.18923607547
21
612.979721047708
31
0.0
39
0.0
210
0.0
220
0.0
230
-1.0
0
LINE
5
21F
330
22
100
AcDbEntity
8
AM_8
62
256
6
ByLayer
370
-1
48
1.0
60
0
100
AcDbLine
10
2683.77865098276
20
572.530928776566
30
0.0
11
2675.54917226387
21
579.675737868138
31
0.0
39
0.0
210
0.0
220
0.0
230
-1.0
0
LINE
5
220
330
22
100
AcDbEntity
8
AM_8
62
256
6
ByLayer
370
-1
48
1.0
60
0
100
AcDbLine
10
2633.65823230414
20
599.226739103156
30
0.0
11
2611.27595934496
21
618.658962308409
31
0.0
39
0.0
210
0.0
220
0.0
230
-1.0
0
LINE
5
221
330
22
100
AcDbEntity
8
AM_8
62
256
6
ByLayer
370
-1
48
1.0
60
0
100
AcDbLine
10
2667.76860497926
20
569.612214401012
30
0.0
11
2648.04320837476
21
586.737745410823
31
0.0
39
0.0
210
0.0
220
0.0
230
-1.0
0
LINE
5
222
330
22
100
AcDbEntity
8
AM_8
62
256
6
ByLayer
370
-1
48
1.0
60
0
100
AcDbLine
10
2606.15226841504
20
606.288746645841
30
0.0
11
2605.72514452558
21
606.659574343894
31
0.0
39
0.0
210
0.0
220
0.0
230
-1.0
0
LINE
5
223
330
22
100
AcDbEntity
8
AM_8
62
256
6
ByLayer
370
-1
48
1.0
60
0
100
AcDbLine
10
2644.51220460343
20
572.984763466271
30
0.0
11
2620.53724448571
21
593.799752953511
31
0.0
39
0.0
210
0.0
220
0.0
230
-1.0
0
LINE
5
224
330
22
100
AcDbEntity
8
AM_8
62
256
6
ByLayer
370
-1
48
1.0
60
0
100
AcDbLine
10
2617.00624071438
20
580.046771008988
30
0.0
11
2607.2284127416
21
588.535852344746
31
0.0
39
0.0
210
0.0
220
0.0
230
-1.0
0
LINE
5
225
330
22
100
AcDbEntity
8
AM_8
62
256
6
ByLayer
370
-1
48
1.0
60
0
100
AcDbLine
10
2635.65057103011
20
563.859818554698
30
0.0
11
2631.39121678495
21
567.557777316651
31
0.0
39
0.0
210
0.0
220
0.0
230
-1.0
0
LINE
5
226
330
22
100
AcDbEntity
8
AM_8
62
256
6
ByLayer
370
-1
48
1.0
60
0
100
AcDbLine
10
2636.63930174311
20
563.916657416931
30
0.0
11
2699.43540195232
21
636.245975622268
31
0.0
39
0.0
210
0.0
220
0.0
230
-1.0
0
LINE
5
227
330
22
100
AcDbEntity
8
AM_8
62
256
6
ByLayer
370
-1
48
1.0
60
0
100
AcDbLine
10
2621.45781421964
20
565.802290946576
30
0.0
11
2680.80281347779
21
634.156588760354
31
0.0
39
0.0
210
0.0
220
0.0
230
-1.0
0
LINE
5
228
330
22
100
AcDbEntity
8
AM_8
62
256
6
ByLayer
370
-1
48
1.0
60
0
100
AcDbLine
10
2612.36633247988
20
574.702467811606
30
0.0
11
2662.7989561286
21
632.791382117873
31
0.0
39
0.0
210
0.0
220
0.0
230
-1.0
0
LINE
5
229
330
22
100
AcDbEntity
8
AM_8
62
256
6
ByLayer
370
-1
48
1.0
60
0
100
AcDbLine
10
2607.29116601768
20
588.228685859891
30
0.0
11
2645.25695755566
21
631.958150076921
31
0.0
39
0.0
210
0.0
220
0.0
230
-1.0
0
LINE
5
22A
330
22
100
AcDbEntity
8
AM_8
62
256
6
ByLayer
370
-1
48
1.0
60
0
100
AcDbLine
10
2605.59282612008
20
605.644374150816
30
0.0
11
2625.92691772191
21
629.065430187491
31
0.0
39
0.0
210
0.0
220
0.0
230
-1.0
0
LINE
5
22B
330
22
100
AcDbEntity
8
AM_8
62
256
6
ByLayer
370
-1
48
1.0
60
0
100
AcDbLine
10
2864.48595039401
20
617.464453470571
30
0.0
11
2852.18099417927
21
628.147580073981
31
0.0
39
0.0
210
0.0
220
0.0
230
-1.0
0
LINE
5
22C
330
22
100
AcDbEntity
8
AM_8
62
256
6
ByLayer
370
-1
48
1.0
60
0
100
AcDbLine
10
2848.64999040788
20
614.394598129454
30
0.0
11
2824.67503029016
21
635.209587616694
31
0.0
39
0.0
210
0.0
220
0.0
230
-1.0
0
LINE
5
22D
330
22
100
AcDbEntity
8
AM_8
62
256
6
ByLayer
370
-1
48
1.0
60
0
100
AcDbLine
10
2873.21686464773
20
593.065710551553
30
0.0
11
2863.03496647856
21
601.905604437124
31
0.0
39
0.0
210
0.0
220
0.0
230
-1.0
0
LINE
5
22E
330
22
100
AcDbEntity
8
AM_8
62
256
6
ByLayer
370
-1
48
1.0
60
0
100
AcDbLine
10
2821.14402651883
20
621.456605672171
30
0.0
11
2797.16906640112
21
642.271595159383
31
0.0
39
0.0
210
0.0
220
0.0
230
-1.0
0
LINE
5
22F
330
22
100
AcDbEntity
8
AM_8
62
256
6
ByLayer
370
-1
48
1.0
60
0
100
AcDbLine
10
2859.50396270717
20
588.152622492597
30
0.0
11
2835.52900258951
21
608.967611979813
31
0.0
39
0.0
210
0.0
220
0.0
230
-1.0
0
LINE
5
230
330
22
100
AcDbEntity
8
AM_8
62
256
6
ByLayer
370
-1
48
1.0
60
0
100
AcDbLine
10
2793.63806262979
20
628.51861321486
30
0.0
11
2775.30542432512
21
644.434955586681
31
0.0
39
0.0
210
0.0
220
0.0
230
-1.0
0
LINE
5
231
330
22
100
AcDbEntity
8
AM_8
62
256
6
ByLayer
370
-1
48
1.0
60
0
100
AcDbLine
10
2831.99799881813
20
595.214630035286
30
0.0
11
2808.0230387004
21
616.029619522555
31
0.0
39
0.0
210
0.0
220
0.0
230
-1.0
0
LINE
5
232
330
22
100
AcDbEntity
8
AM_8
62
256
6
ByLayer
370
-1
48
1.0
60
0
100
AcDbLine
10
2858.93098561742
20
571.831490529177
30
0.0
11
2846.38297488875
21
582.725636342952
31
0.0
39
0.0
210
0.0
220
0.0
230
-1.0
0
LINE
5
233
330
22
100
AcDbEntity
8
AM_8
62
256
6
ByLayer
370
-1
48
1.0
60
0
100
AcDbLine
10
2766.13209874068
20
635.580620757573
30
0.0
11
2757.22714569547
21
643.311874662125
31
0.0
39
0.0
210
0.0
220
0.0
230
-1.0
0
LINE
5
234
330
22
100
AcDbEntity
8
AM_8
62
256
6
ByLayer
370
-1
48
1.0
60
0
100
AcDbLine
10
2804.49203492908
20
602.276637578003
30
0.0
11
2780.5170748113
21
623.09162706524
31
0.0
39
0.0
210
0.0
220
0.0
230
-1.0
0
LINE
5
235
330
22
100
AcDbEntity
8
AM_8
62
256
6
ByLayer
370
-1
48
1.0
60
0
100
AcDbLine
10
2842.85197111736
20
568.972654398425
30
0.0
11
2818.8770109997
21
589.787643885641
31
0.0
39
0.0
210
0.0
220
0.0
230
-1.0
0
LINE
5
236
330
22
100
AcDbEntity
8
AM_8
62
256
6
ByLayer
370
-1
48
1.0
60
0
100
AcDbLine
10
2776.98607104003
20
609.338645120692
30
0.0
11
2753.01111092231
21
630.153634607933
31
0.0
39
0.0
210
0.0
220
0.0
230
-1.0
0
LINE
5
237
330
22
100
AcDbEntity
8
AM_8
62
256
6
ByLayer
370
-1
48
1.0
60
0
100
AcDbLine
10
2815.34600722831
20
576.034661941114
30
0.0
11
2791.37104711059
21
596.849651428354
31
0.0
39
0.0
210
0.0
220
0.0
230
-1.0
0
LINE
5
238
330
22
100
AcDbEntity
8
AM_8
62
256
6
ByLayer
370
-1
48
1.0
60
0
100
AcDbLine
10
2833.48298997862
20
560.288187143093
30
0.0
11
2829.73098329899
21
563.545668248784
31
0.0
39
0.0
210
0.0
220
0.0
230
-1.0
0
LINE
5
239
330
22
100
AcDbEntity
8
AM_8
62
256
6
ByLayer
370
-1
48
1.0
60
0
100
AcDbLine
10
2749.48010715086
20
616.400652663401
30
0.0
11
2725.5051470332
21
637.215642150617
31
0.0
39
0.0
210
0.0
220
0.0
230
-1.0
0
LINE
5
23A
330
22
100
AcDbEntity
8
AM_8
62
256
6
ByLayer
370
-1
48
1.0
60
0
100
AcDbLine
10
2787.84004333926
20
583.096669483831
30
0.0
11
2763.86508322154
21
603.911658971043
31
0.0
39
0.0
210
0.0
220
0.0
230
-1.0
0
LINE
5
23B
330
22
100
AcDbEntity
8
AM_8
62
256
6
ByLayer
370
-1
48
1.0
60
0
100
AcDbLine
10
2817.3700809813
20
557.458778114744
30
0.0
11
2802.22501940988
21
570.607675791469
31
0.0
39
0.0
210
0.0
220
0.0
230
-1.0
0
LINE
5
23C
330
22
100
AcDbEntity
8
AM_8
62
256
6
ByLayer
370
-1
48
1.0
60
0
100
AcDbLine
10
2760.33407945021
20
590.15867702652
30
0.0
11
2736.35911933249
21
610.97366651376
31
0.0
39
0.0
210
0.0
220
0.0
230
-1.0
0
LINE
5
23D
330
22
100
AcDbEntity
8
AM_8
62
256
6
ByLayer
370
-1
48
1.0
60
0
100
AcDbLine
10
2798.69401563855
20
556.854693846946
30
0.0
11
2774.71905552077
21
577.669683334211
31
0.0
39
0.0
210
0.0
220
0.0
230
-1.0
0
LINE
5
23E
330
22
100
AcDbEntity
8
AM_8
62
256
6
ByLayer
370
-1
48
1.0
60
0
100
AcDbLine
10
2732.8281155611
20
597.220684569233
30
0.0
11
2708.85315544344
21
618.035674056478
31
0.0
39
0.0
210
0.0
220
0.0
230
-1.0
0
LINE
5
23F
330
22
100
AcDbEntity
8
AM_8
62
256
6
ByLayer
370
-1
48
1.0
60
0
100
AcDbLine
10
2771.18805174945
20
563.91670138963
30
0.0
11
2747.21309163173
21
584.731690876871
31
0.0
39
0.0
210
0.0
220
0.0
230
-1.0
0
LINE
5
240
330
22
100
AcDbEntity
8
AM_8
62
256
6
ByLayer
370
-1
48
1.0
60
0
100
AcDbLine
10
2743.68208786039
20
570.978708932377
30
0.0
11
2719.70712774268
21
591.793698419588
31
0.0
39
0.0
210
0.0
220
0.0
230
-1.0
0
LINE
5
241
330
22
100
AcDbEntity
8
AM_8
62
256
6
ByLayer
370
-1
48
1.0
60
0
100
AcDbLine
10
2835.88162638213
20
560.944125864359
30
0.0
11
2872.34445349655
21
602.94245722946
31
0.0
39
0.0
210
0.0
220
0.0
230
-1.0
0
LINE
5
242
330
22
100
AcDbEntity
8
AM_8
62
256
6
ByLayer
370
-1
48
1.0
60
0
100
AcDbLine
10
2815.91668818075
20
557.320122250182
30
0.0
11
2866.19761872056
21
615.234314573529
31
0.0
39
0.0
210
0.0
220
0.0
230
-1.0
0
LINE
5
243
330
22
100
AcDbEntity
8
AM_8
62
256
6
ByLayer
370
-1
48
1.0
60
0
100
AcDbLine
10
2798.68482094757
20
556.844103289094
30
0.0
11
2857.56123062417
21
624.658673877169
31
0.0
39
0.0
210
0.0
220
0.0
230
-1.0
0
LINE
5
244
330
22
100
AcDbEntity
8
AM_8
62
256
6
ByLayer
370
-1
48
1.0
60
0
100
AcDbLine
10
2782.63067886997
20
557.724602603229
30
0.0
11
2847.28925756678
21
632.199146367643
31
0.0
39
0.0
210
0.0
220
0.0
230
-1.0
0
LINE
5
245
330
22
100
AcDbEntity
8
AM_8
62
256
6
ByLayer
370
-1
48
1.0
60
0
100
AcDbLine
10
2768.28958013712
20
560.578206246509
30
0.0
11
2835.38108627701
21
637.855025671593
31
0.0
39
0.0
210
0.0
220
0.0
230
-1.0
0
LINE
5
246
330
22
100
AcDbEntity
8
AM_8
62
256
6
ByLayer
370
-1
48
1.0
60
0
100
AcDbLine
10
2755.30395773353
20
564.993064146159
30
0.0
11
2821.66619116947
21
641.429898328792
31
0.0
39
0.0
210
0.0
220
0.0
230
-1.0
0
LINE
5
247
330
22
100
AcDbEntity
8
AM_8
62
256
6
ByLayer
370
-1
48
1.0
60
0
100
AcDbLine
10
2742.54979704671
20
569.67452248928
30
0.0
11
2806.5137985546
21
643.349043730947
31
0.0
39
0.0
210
0.0
220
0.0
230
-1.0
0
LINE
5
248
330
22
100
AcDbEntity
8
AM_8
62
256
6
ByLayer
370
-1
48
1.0
60
0
100
AcDbLine
10
2729.06414332456
20
573.513438185122
30
0.0
11
2790.64421786651
21
644.442123116522
31
0.0
39
0.0
210
0.0
220
0.0
230
-1.0
0
LINE
5
249
330
22
100
AcDbEntity
8
AM_8
62
256
6
ByLayer
370
-1
48
1.0
60
0
100
AcDbLine
10
2713.98350678557
20
575.51523311536
30
0.0
11
2773.76892485991
21
644.376810721862
31
0.0
39
0.0
210
0.0
220
0.0
230
-1.0
0
LINE
5
24A
330
22
100
AcDbEntity
8
AM_3
62
256
6
AM_ISO02W050x2
370
-1
48
0.5
60
0
100
AcDbLine
10
2247.20902165972
20
830.000000000096
30
0.0
11
2247.20902165972
21
130.000000000069
31
0.0
39
0.0
210
0.0
220
0.0
230
1.0
0
LINE
5
24E
330
22
100
AcDbEntity
8
AM_0
62
256
6
ByLayer
370
-1
48
1.0
60
0
100
AcDbLine
10
2247.20902165972
20
130.000000000069
30
0.0
11
1972.20902292402
21
130.000000000082
31
0.0
39
0.0
210
0.0
220
0.0
230
1.0
0
LINE
5
251
330
22
100
AcDbEntity
8
AM_0
62
256
6
ByLayer
370
-1
48
1.0
60
0
100
AcDbLine
10
1972.20902292402
20
130.000000000082
30
0.0
11
1972.20902292402
21
830.000000000096
31
0.0
39
0.0
210
0.0
220
0.0
230
1.0
0
LINE
5
252
330
22
100
AcDbEntity
8
AM_0
62
256
6
ByLayer
370
-1
48
1.0
60
0
100
AcDbLine
10
1972.20902292402
20
830.000000000096
30
0.0
11
2247.20902165972
21
830.000000000096
31
0.0
39
0.0
210
0.0
220
0.0
230
1.0
0
LINE
5
253
330
22
100
AcDbEntity
8
AM_3
62
256
6
AM_ISO02W050x2
370
-1
48
0.5
60
0
100
AcDbLine
10
1997.20902165972
20
830.000000000096
30
0.0
11
1997.20902165972
21
130.000000000069
31
0.0
39
0.0
210
0.0
220
0.0
230
1.0
0
LINE
5
254
330
22
100
AcDbEntity
8
AM_0
62
256
6
ByLayer
370
-1
48
1.0
60
0
100
AcDbLine
10
1997.20902165972
20
130.000000000069
30
0.0
11
1722.20902292402
21
130.000000000082
31
0.0
39
0.0
210
0.0
220
0.0
230
1.0
0
LINE
5
255
330
22
100
AcDbEntity
8
AM_0
62
256
6
ByLayer
370
-1
48
1.0
60
0
100
AcDbLine
10
1722.20902292402
20
130.000000000082
30
0.0
11
1722.20902292402
21
830.000000000096
31
0.0
39
0.0
210
0.0
220
0.0
230
1.0
0
LINE
5
256
330
22
100
AcDbEntity
8
AM_0
62
256
6
ByLayer
370
-1
48
1.0
60
0
100
AcDbLine
10
1722.20902292402
20
830.000000000096
30
0.0
11
1997.20902165972
21
830.000000000096
31
0.0
39
0.0
210
0.0
220
0.0
230
1.0
0
LINE
5
257
330
22
100
AcDbEntity
8
AM_3
62
256
6
AM_ISO02W050x2
370
-1
48
0.5
60
0
100
AcDbLine
10
1747.20902165971
20
830.000000000091
30
0.0
11
1747.20902165971
21
130.000000000064
31
0.0
39
0.0
210
0.0
220
0.0
230
1.0
0
LINE
5
258
330
22
100
AcDbEntity
8
AM_0
62
256
6
ByLayer
370
-1
48
1.0
60
0
100
AcDbLine
10
1747.20902165971
20
130.000000000064
30
0.0
11
1472.20902292401
21
130.000000000076
31
0.0
39
0.0
210
0.0
220
0.0
230
1.0
0
LINE
5
259
330
22
100
AcDbEntity
8
AM_0
62
256
6
ByLayer
370
-1
48
1.0
60
0
100
AcDbLine
10
1472.20902292401
20
130.000000000076
30
0.0
11
1472.20902292401
21
830.000000000091
31
0.0
39
0.0
210
0.0
220
0.0
230
1.0
0
LINE
5
25A
330
22
100
AcDbEntity
8
AM_0
62
256
6
ByLayer
370
-1
48
1.0
60
0
100
AcDbLine
10
1472.20902292401
20
830.000000000091
30
0.0
11
1747.20902165971
21
830.000000000091
31
0.0
39
0.0
210
0.0
220
0.0
230
1.0
0
LINE
5
25B
330
22
100
AcDbEntity
8
AM_3
62
256
6
AM_ISO02W050x2
370
-1
48
0.5
60
0
100
AcDbLine
10
1497.20902165971
20
830.000000000091
30
0.0
11
1497.20902165971
21
130.000000000064
31
0.0
39
0.0
210
0.0
220
0.0
230
1.0
0
LINE
5
25C
330
22
100
AcDbEntity
8
AM_0
62
256
6
ByLayer
370
-1
48
1.0
60
0
100
AcDbLine
10
1497.20902165971
20
130.000000000064
30
0.0
11
1222.20902292401
21
130.000000000076
31
0.0
39
0.0
210
0.0
220
0.0
230
1.0
0
LINE
5
25D
330
22
100
AcDbEntity
8
AM_0
62
256
6
ByLayer
370
-1
48
1.0
60
0
100
AcDbLine
10
1222.20902292401
20
130.000000000076
30
0.0
11
1222.20902292401
21
830.000000000091
31
0.0
39
0.0
210
0.0
220
0.0
230
1.0
0
LINE
5
25E
330
22
100
AcDbEntity
8
AM_0
62
256
6
ByLayer
370
-1
48
1.0
60
0
100
AcDbLine
10
1222.20902292401
20
830.000000000091
30
0.0
11
1497.20902165971
21
830.000000000091
31
0.0
39
0.0
210
0.0
220
0.0
230
1.0
0
LINE
5
25F
330
22
100
AcDbEntity
8
AM_3
62
256
6
AM_ISO02W050x2
370
-1
48
0.5
60
0
100
AcDbLine
10
1247.20902165972
20
830.000000000096
30
0.0
11
1247.20902165972
21
130.000000000069
31
0.0
39
0.0
210
0.0
220
0.0
230
1.0
0
LINE
5
260
330
22
100
AcDbEntity
8
AM_0
62
256
6
ByLayer
370
-1
48
1.0
60
0
100
AcDbLine
10
1247.20902165972
20
130.000000000069
30
0.0
11
972.209022924017
21
130.000000000082
31
0.0
39
0.0
210
0.0
220
0.0
230
1.0
0
LINE
5
261
330
22
100
AcDbEntity
8
AM_0
62
256
6
ByLayer
370
-1
48
1.0
60
0
100
AcDbLine
10
972.209022924017
20
130.000000000082
30
0.0
11
972.209022924017
21
830.000000000096
31
0.0
39
0.0
210
0.0
220
0.0
230
1.0
0
LINE
5
262
330
22
100
AcDbEntity
8
AM_0
62
256
6
ByLayer
370
-1
48
1.0
60
0
100
AcDbLine
10
972.209022924017
20
830.000000000096
30
0.0
11
1247.20902165972
21
830.000000000096
31
0.0
39
0.0
210
0.0
220
0.0
230
1.0
0
LINE
5
263
330
22
100
AcDbEntity
8
AM_3
62
256
6
AM_ISO02W050x2
370
-1
48
0.5
60
0
100
AcDbLine
10
997.209021659717
20
830.000000000091
30
0.0
11
997.209021659717
21
130.000000000064
31
0.0
39
0.0
210
0.0
220
0.0
230
1.0
0
LINE
5
264
330
22
100
AcDbEntity
8
AM_0
62
256
6
ByLayer
370
-1
48
1.0
60
0
100
AcDbLine
10
997.209021659717
20
130.000000000064
30
0.0
11
722.209022924017
21
130.000000000076
31
0.0
39
0.0
210
0.0
220
0.0
230
1.0
0
LINE
5
265
330
22
100
AcDbEntity
8
AM_0
62
256
6
ByLayer
370
-1
48
1.0
60
0
100
AcDbLine
10
722.209022924017
20
130.000000000076
30
0.0
11
722.209022924017
21
830.000000000091
31
0.0
39
0.0
210
0.0
220
0.0
230
1.0
0
LINE
5
266
330
22
100
AcDbEntity
8
AM_0
62
256
6
ByLayer
370
-1
48
1.0
60
0
100
AcDbLine
10
722.209022924017
20
830.000000000091
30
0.0
11
997.209021659717
21
830.000000000091
31
0.0
39
0.0
210
0.0
220
0.0
230
1.0
0
LINE
5
267
330
22
100
AcDbEntity
8
AM_3
62
256
6
AM_ISO02W050x2
370
-1
48
0.5
60
0
100
AcDbLine
10
747.209021659717
20
830.000000000091
30
0.0
11
747.209021659717
21
130.000000000064
31
0.0
39
0.0
210
0.0
220
0.0
230
1.0
0
LINE
5
268
330
22
100
AcDbEntity
8
AM_0
62
256
6
ByLayer
370
-1
48
1.0
60
0
100
AcDbLine
10
747.209021659717
20
130.000000000064
30
0.0
11
472.209022924017
21
130.000000000076
31
0.0
39
0.0
210
0.0
220
0.0
230
1.0
0
LINE
5
269
330
22
100
AcDbEntity
8
AM_0
62
256
6
ByLayer
370
-1
48
1.0
60
0
100
AcDbLine
10
472.209022924017
20
130.000000000076
30
0.0
11
472.209022924017
21
830.000000000091
31
0.0
39
0.0
210
0.0
220
0.0
230
1.0
0
LINE
5
26A
330
22
100
AcDbEntity
8
AM_0
62
256
6
ByLayer
370
-1
48
1.0
60
0
100
AcDbLine
10
472.209022924017
20
830.000000000091
30
0.0
11
747.209021659717
21
830.000000000091
31
0.0
39
0.0
210
0.0
220
0.0
230
1.0
0
LINE
5
26B
330
22
100
AcDbEntity
8
AM_3
62
256
6
AM_ISO02W050x2
370
-1
48
0.5
60
0
100
AcDbLine
10
2497.90676624338
20
830.000000000098
30
0.0
11
2497.90676624338
21
130.000000000071
31
0.0
39
0.0
210
0.0
220
0.0
230
1.0
0
LINE
5
26C
330
22
100
AcDbEntity
8
AM_0
62
256
6
ByLayer
370
-1
48
1.0
60
0
100
AcDbLine
10
2497.90676624338
20
130.000000000071
30
0.0
11
2222.90676750768
21
130.000000000084
31
0.0
39
0.0
210
0.0
220
0.0
230
1.0
0
LINE
5
26D
330
22
100
AcDbEntity
8
AM_0
62
256
6
ByLayer
370
-1
48
1.0
60
0
100
AcDbLine
10
2222.90676750768
20
130.000000000084
30
0.0
11
2222.90676750768
21
830.000000000098
31
0.0
39
0.0
210
0.0
220
0.0
230
1.0
0
LINE
5
26E
330
22
100
AcDbEntity
8
AM_0
62
256
6
ByLayer
370
-1
48
1.0
60
0
100
AcDbLine
10
2222.90676750768
20
830.000000000098
30
0.0
11
2497.90676624338
21
830.000000000098
31
0.0
39
0.0
210
0.0
220
0.0
230
1.0
0
LINE
5
26F
330
22
100
AcDbEntity
8
AM_3
62
256
6
AM_ISO02W050x2
370
-1
48
0.5
60
0
100
AcDbLine
10
2748.60451082703
20
830.000000000102
30
0.0
11
2748.60451082703
21
130.000000000075
31
0.0
39
0.0
210
0.0
220
0.0
230
1.0
0
LINE
5
270
330
22
100
AcDbEntity
8
AM_0
62
256
6
ByLayer
370
-1
48
1.0
60
0
100
AcDbLine
10
2748.60451082703
20
130.000000000075
30
0.0
11
2473.60451209133
21
130.000000000087
31
0.0
39
0.0
210
0.0
220
0.0
230
1.0
0
LINE
5
271
330
22
100
AcDbEntity
8
AM_0
62
256
6
ByLayer
370
-1
48
1.0
60
0
100
AcDbLine
10
2473.60451209133
20
130.000000000087
30
0.0
11
2473.60451209133
21
830.000000000102
31
0.0
39
0.0
210
0.0
220
0.0
230
1.0
0
LINE
5
272
330
22
100
AcDbEntity
8
AM_0
62
256
6
ByLayer
370
-1
48
1.0
60
0
100
AcDbLine
10
2473.60451209133
20
830.000000000102
30
0.0
11
2748.60451082703
21
830.000000000102
31
0.0
39
0.0
210
0.0
220
0.0
230
1.0
0
LINE
5
273
330
22
100
AcDbEntity
8
AM_3
62
256
6
AM_ISO02W050x2
370
-1
48
0.5
60
0
100
AcDbLine
10
2999.3022554107
20
830.000000000109
30
0.0
11
2999.3022554107
21
130.000000000082
31
0.0
39
0.0
210
0.0
220
0.0
230
1.0
0
LINE
5
274
330
22
100
AcDbEntity
8
AM_0
62
256
6
ByLayer
370
-1
48
1.0
60
0
100
AcDbLine
10
2999.3022554107
20
130.000000000082
30
0.0
11
2724.302256675
21
130.000000000095
31
0.0
39
0.0
210
0.0
220
0.0
230
1.0
0
LINE
5
275
330
22
100
AcDbEntity
8
AM_0
62
256
6
ByLayer
370
-1
48
1.0
60
0
100
AcDbLine
10
2724.302256675
20
130.000000000095
30
0.0
11
2724.302256675
21
830.000000000109
31
0.0
39
0.0
210
0.0
220
0.0
230
1.0
0
LINE
5
276
330
22
100
AcDbEntity
8
AM_0
62
256
6
ByLayer
370
-1
48
1.0
60
0
100
AcDbLine
10
2724.302256675
20
830.000000000109
30
0.0
11
2999.3022554107
21
830.000000000109
31
0.0
39
0.0
210
0.0
220
0.0
230
1.0
0
LINE
5
277
330
22
100
AcDbEntity
8
AM_3
62
256
6
AM_ISO02W050x2
370
-1
48
0.5
60
0
100
AcDbLine
10
3249.99999999436
20
830.000000000109
30
0.0
11
3249.99999999436
21
130.000000000082
31
0.0
39
0.0
210
0.0
220
0.0
230
1.0
0
LINE
5
278
330
22
100
AcDbEntity
8
AM_0
62
256
6
ByLayer
370
-1
48
1.0
60
0
100
AcDbLine
10
3249.99999999436
20
130.000000000082
30
0.0
11
2975.00000125866
21
130.000000000095
31
0.0
39
0.0
210
0.0
220
0.0
230
1.0
0
LINE
5
279
330
22
100
AcDbEntity
8
AM_0
62
256
6
ByLayer
370
-1
48
1.0
60
0
100
AcDbLine
10
2975.00000125866
20
130.000000000095
30
0.0
11
2975.00000125866
21
830.000000000109
31
0.0
39
0.0
210
0.0
220
0.0
230
1.0
0
LINE
5
27A
330
22
100
AcDbEntity
8
AM_0
62
256
6
ByLayer
370
-1
48
1.0
60
0
100
AcDbLine
10
2975.00000125866
20
830.000000000109
30
0.0
11
3249.99999999436
21
830.000000000109
31
0.0
39
0.0
210
0.0
220
0.0
230
1.0
0
LINE
5
27B
330
22
100
AcDbEntity
8
AM_3
62
256
6
AM_ISO02W050x2
370
-1
48
0.5
60
0
100
AcDbLine
10
497.20902165971
20
830.000000000091
30
0.0
11
497.20902165971
21
130.000000000064
31
0.0
39
0.0
210
0.0
220
0.0
230
1.0
0
LINE
5
27C
330
22
100
AcDbEntity
8
AM_0
62
256
6
ByLayer
370
-1
48
1.0
60
0
100
AcDbLine
10
497.20902165971
20
130.000000000064
30
0.0
11
222.209022924009
21
130.000000000076
31
0.0
39
0.0
210
0.0
220
0.0
230
1.0
0
LINE
5
27D
330
22
100
AcDbEntity
8
AM_0
62
256
6
ByLayer
370
-1
48
1.0
60
0
100
AcDbLine
10
222.209022924009
20
130.000000000076
30
0.0
11
222.209022924009
21
830.000000000091
31
0.0
39
0.0
210
0.0
220
0.0
230
1.0
0
LINE
5
27E
330
22
100
AcDbEntity
8
AM_0
62
256
6
ByLayer
370
-1
48
1.0
60
0
100
AcDbLine
10
222.209022924009
20
830.000000000091
30
0.0
11
497.20902165971
21
830.000000000091
31
0.0
39
0.0
210
0.0
220
0.0
230
1.0
0
LINE
5
27F
330
22
100
AcDbEntity
8
AM_3
62
256
6
AM_ISO02W050x2
370
-1
48
0.5
60
0
100
AcDbLine
10
247.20902165971
20
830.000000000091
30
0.0
11
247.20902165971
21
130.000000000064
31
0.0
39
0.0
210
0.0
220
0.0
230
1.0
0
LINE
5
280
330
22
100
AcDbEntity
8
AM_0
62
256
6
ByLayer
370
-1
48
1.0
60
0
100
AcDbLine
10
247.20902165971
20
130.000000000064
30
0.0
11
-27.7909770759907
21
130.000000000076
31
0.0
39
0.0
210
0.0
220
0.0
230
1.0
0
LINE
5
281
330
22
100
AcDbEntity
8
AM_0
62
256
6
ByLayer
370
-1
48
1.0
60
0
100
AcDbLine
10
-27.7909770759907
20
130.000000000076
30
0.0
11
-27.7909770759907
21
830.000000000091
31
0.0
39
0.0
210
0.0
220
0.0
230
1.0
0
LINE
5
282
330
22
100
AcDbEntity
8
AM_0
62
256
6
ByLayer
370
-1
48
1.0
60
0
100
AcDbLine
10
-27.7909770759907
20
830.000000000091
30
0.0
11
247.20902165971
21
830.000000000091
31
0.0
39
0.0
210
0.0
220
0.0
230
1.0
0
LINE
5
283
330
22
100
AcDbEntity
8
AM_3
62
256
6
AM_ISO02W050x2
370
-1
48
0.5
60
0
100
AcDbLine
10
17.2090216597098
20
830.0000000001
30
0.0
11
17.2090216597098
21
130.000000000073
31
0.0
39
0.0
210
0.0
220
0.0
230
1.0
0
LINE
5
284
330
22
100
AcDbEntity
8
AM_0
62
256
6
ByLayer
370
-1
48
1.0
60
0
100
AcDbLine
10
17.2090216597098
20
130.000000000073
30
0.0
11
-257.790977075991
21
130.000000000085
31
0.0
39
0.0
210
0.0
220
0.0
230
1.0
0
LINE
5
285
330
22
100
AcDbEntity
8
AM_0
62
256
6
ByLayer
370
-1
48
1.0
60
0
100
AcDbLine
10
-257.790977075991
20
130.000000000085
30
0.0
11
-257.790977075991
21
830.0000000001
31
0.0
39
0.0
210
0.0
220
0.0
230
1.0
0
LINE
5
286
330
22
100
AcDbEntity
8
AM_0
62
256
6
ByLayer
370
-1
48
1.0
60
0
100
AcDbLine
10
-257.790977075991
20
830.0000000001
30
0.0
11
17.2090216597098
21
830.0000000001
31
0.0
39
0.0
210
0.0
220
0.0
230
1.0
0
LINE
5
287
330
22
100
AcDbEntity
8
AM_3
62
256
6
AM_ISO02W050x2
370
-1
48
0.5
60
0
100
AcDbLine
10
-212.790978340283
20
830.000000000085
30
0.0
11
-212.790978340283
21
130.000000000058
31
0.0
39
0.0
210
0.0
220
0.0
230
1.0
0
LINE
5
288
330
22
100
AcDbEntity
8
AM_0
62
256
6
ByLayer
370
-1
48
1.0
60
0
100
AcDbLine
10
-212.790978340283
20
130.000000000058
30
0.0
11
-487.790977075983
21
130.000000000071
31
0.0
39
0.0
210
0.0
220
0.0
230
1.0
0
LINE
5
289
330
22
100
AcDbEntity
8
AM_0
62
256
6
ByLayer
370
-1
48
1.0
60
0
100
AcDbLine
10
-487.790977075983
20
130.000000000071
30
0.0
11
-487.790977075983
21
830.000000000085
31
0.0
39
0.0
210
0.0
220
0.0
230
1.0
0
LINE
5
28A
330
22
100
AcDbEntity
8
AM_0
62
256
6
ByLayer
370
-1
48
1.0
60
0
100
AcDbLine
10
-487.790977075983
20
830.000000000085
30
0.0
11
-212.790978340283
21
830.000000000085
31
0.0
39
0.0
210
0.0
220
0.0
230
1.0
0
LINE
5
28B
330
22
100
AcDbEntity
8
AM_3
62
256
6
AM_ISO02W050x2
370
-1
48
0.5
60
0
100
AcDbLine
10
-442.79097834029
20
830.000000000091
30
0.0
11
-442.79097834029
21
130.000000000064
31
0.0
39
0.0
210
0.0
220
0.0
230
1.0
0
LINE
5
28C
330
22
100
AcDbEntity
8
AM_0
62
256
6
ByLayer
370
-1
48
1.0
60
0
100
AcDbLine
10
-442.79097834029
20
130.000000000064
30
0.0
11
-717.790977075991
21
130.000000000076
31
0.0
39
0.0
210
0.0
220
0.0
230
1.0
0
LINE
5
28D
330
22
100
AcDbEntity
8
AM_0
62
256
6
ByLayer
370
-1
48
1.0
60
0
100
AcDbLine
10
-717.790977075991
20
130.000000000076
30
0.0
11
-717.790977075991
21
830.000000000091
31
0.0
39
0.0
210
0.0
220
0.0
230
1.0
0
LINE
5
28E
330
22
100
AcDbEntity
8
AM_0
62
256
6
ByLayer
370
-1
48
1.0
60
0
100
AcDbLine
10
-717.790977075991
20
830.000000000091
30
0.0
11
-442.79097834029
21
830.000000000091
31
0.0
39
0.0
210
0.0
220
0.0
230
1.0
0
ENDBLK
5
23
330
22
100
AcDbEntity
8
0
100
AcDbBlockEnd
0
BLOCK
5
291
330
28F
100
AcDbEntity
67
1
8
0
100
AcDbBlockBegin
2
*Paper_Space
70
0
10
0.0
20
0.0
30
0.0
3
*Paper_Space
4

0
ENDBLK
5
290
330
28F
100
AcDbEntity
8
0
100
AcDbBlockEnd
0
ENDSEC
0
SECTION
2
ENTITIES
0
VIEWPORT
5
293
330
28F
100
AcDbEntity
67
1
8
0
62
256
6
ByLayer
370
-1
48
1.0
60
0
100
AcDbViewport
10
0.0
20
0.0
30
0.0
40
297.0
41
210.0
68
1
69
1
12
50.0
22
100.0
13
0.0
23
0.0
14
10.0
24
10.0
15
10.0
25
10.0
16
0.0
26
0.0
36
1.0
17
0.0
27
0.0
37
0.0
42
50.0
43
0.0
44
0.0
45
250.0
50
0.0
51
0.0
72
1000
90
819232
110
0.0
120
0.0
130
0.0
111
1.0
121
0.0
131
0.0
112
0.0
122
1.0
132
0.0
0
ENDSEC
0
SECTION
2
OBJECTS
0
DICTIONARY
5
298
330
0
100
AcDbDictionary
280
1
281
1
3
ACAD_GROUP
350
12
3
ACAD_LAYOUT
350
292
3
ACAD_DGNDEFINITIONS
350
F
3
ACAD_DWFDEFINITIONS
350
10
3
ACAD_PDFDEFINITIONS
350
11
3
ACAD_MLINESTYLE
350
B
3
ACAD_IMAGE_DICT
350
E
3
ACAD_IMAGE_VARS
350
21
0
DICTIONARY
5
12
330
298
100
AcDbDictionary
280
1
281
1
0
DICTIONARY
5
292
330
298
100
AcDbDictionary
280
1
281
1
3
Model
350
20
3
Layout1
350
294
0
DICTIONARY
5
F
330
298
100
AcDbDictionary
280
1
281
1
0
DICTIONARY
5
10
330
298
100
AcDbDictionary
280
1
281
1
0
DICTIONARY
5
11
330
298
100
AcDbDictionary
280
1
281
1
0
DICTIONARY
5
B
330
298
100
AcDbDictionary
280
1
281
1
3
Standard
350
1B
0
DICTIONARY
5
E
330
298
100
AcDbDictionary
280
1
281
1
0
DICTIONARY
5
6
330
5
100
AcDbDictionary
280
1
281
1
3
ACAD_LAYERSTATES
360
299
0
DICTIONARY
5
299
330
6
100
AcDbDictionary
280
1
281
1
0
LAYOUT
5
20
330
292
100
AcDbPlotSettings
1

2
none_device
4
ISO_A4_(210.00_x_297.00_MM)
6

40
7.5
41
20.0
42
7.5
43
20.0
44
210.0
45
297.0
46
0.0
47
0.0
48
0.0
49
0.0
140
0.0
141
0.0
142
1.0
143
1.0
70
11952
72
1
73
1
74
1
7

75
0
76
0
77
2
78
300
147
1.0
148
0.0
149
0.0
100
AcDbLayout
1
Model
71
0
10
-20.0
20
-7.5
11
277.0
21
202.5
12
0.0
22
0.0
32
0.0
14
25.7
24
19.5
34
0.0
15
231.3
25
175.5
35
0.0
146
0.0
13
0.0
23
0.0
33
0.0
16
1.0
26
0.0
36
0.0
17
0.0
27
1.0
37
0.0
76
0
330
1C
0
LAYOUT
5
294
330
292
100
AcDbPlotSettings
1

2
none_device
4
ISO_A4_(210.00_x_297.00_MM)
6

40
7.5
41
20.0
42
7.5
43
20.0
44
210.0
45
297.0
46
0.0
47
0.0
48
0.0
49
0.0
140
0.0
141
0.0
142
1.0
143
1.0
70
688
72
1
73
1
74
1
7

75
0
76
0
77
2
78
300
147
1.0
148
0.0
149
0.0
100
AcDbLayout
1
Layout1
71
1
10
-20.0
20
-7.5
11
277.0
21
202.5
12
0.0
22
0.0
32
0.0
14
25.7
24
19.5
34
0.0
15
231.3
25
175.5
35
0.0
146
0.0
13
0.0
23
0.0
33
0.0
16
1.0
26
0.0
36
0.0
17
0.0
27
1.0
37
0.0
76
0
330
28F
0
MLINESTYLE
5
1B
330
B
100
AcDbMlineStyle
2
Standard
70
0
3

62
256
51
90.0
52
90.0
71
2
49
0.5
62
256
6
ByLayer
49
-0.5
62
256
6
ByLayer
0
RASTERVARIABLES
5
21
330
E
100
AcDbRasterVariables
90
0
70
1
71
1
72
0
0
ENDSEC
0
EOF
