999
DXF file generated by netDxf https://github.com/haplokuon/netDxf, Copyright(C) 2009-2020 Daniel Carvajal, Licensed under LGPL
0
SECTION
2
HEADER
9
$ACADVER
1
AC1015
9
$DWGCODEPAGE
3
ANSI_1252
9
$HANDSEED
5
149
9
$ANGBASE
50
0.0
9
$ANGDIR
70
0
9
$ATTMODE
70
1
9
$AUNITS
70
0
9
$AUPREC
70
0
9
$CECOLOR
62
256
9
$CELTSCALE
40
1.0
9
$CELTYPE
6
ByLayer
9
$CELWEIGHT
370
-1
9
$CLAYER
8
0
9
$CMLJUST
70
0
9
$CMLSCALE
40
20.0
9
$CMLSTYLE
2
Standard
9
$DIMSTYLE
2
Standard
9
$TEXTSIZE
40
2.5
9
$TEXTSTYLE
7
Standard
9
$LUNITS
70
2
9
$LUPREC
70
4
9
$MIRRTEXT
70
0
9
$EXTNAMES
290
1
9
$INSBASE
10
0.0
20
0.0
30
0.0
9
$INSUNITS
70
0
9
$LTSCALE
40
1.0
9
$LWDISPLAY
290
0
9
$PDMODE
70
0
9
$PDSIZE
40
0.0
9
$PLINEGEN
70
0
9
$PSLTSCALE
70
1
9
$TDCREATE
40
2459821.45292259
9
$TDUCREATE
40
2459821.11958926
9
$TDUPDATE
40
2459821.45292259
9
$TDUUPDATE
40
2459821.11958926
9
$TDINDWG
40
0.0
9
$UCSORG
10
0.0
20
0.0
30
0.0
9
$UCSXDIR
10
1.0
20
0.0
30
0.0
9
$UCSYDIR
10
0.0
20
1.0
30
0.0
9
$DIMADEC
70
0
9
$DIMALT
70
0
9
$DIMALTD
70
2
9
$DIMALTF
40
25.4
9
$DIMALTRND
40
0.0
9
$DIMALTTD
70
2
9
$DIMALTTZ
70
0
9
$DIMALTU
70
2
9
$DIMALTZ
70
0
9
$DIMAPOST
1

9
$DIMATFIT
70
3
9
$DIMAUNIT
70
0
9
$DIMASZ
40
0.18
9
$DIMAZIN
70
0
9
$DIMSAH
70
0
9
$DIMBLK
1

9
$DIMLDRBLK
1

9
$DIMCEN
40
0.09
9
$DIMCLRD
70
0
9
$DIMCLRE
70
0
9
$DIMCLRT
70
0
9
$DIMDEC
70
4
9
$DIMDLE
40
0.0
9
$DIMDLI
40
0.38
9
$DIMDSEP
70
46
9
$DIMEXE
40
0.18
9
$DIMEXO
40
0.0625
9
$DIMFXLON
70
0
9
$DIMFXL
40
1.0
9
$DIMGAP
40
0.09
9
$DIMJUST
70
0
9
$DIMLFAC
40
1.0
9
$DIMLUNIT
70
2
9
$DIMLWD
70
-2
9
$DIMLWE
70
-2
9
$DIMPOST
1

9
$DIMRND
40
0.0
9
$DIMSCALE
40
1.0
9
$DIMSD1
70
0
9
$DIMSD2
70
0
9
$DIMSE1
70
0
9
$DIMSE2
70
0
9
$DIMSOXD
70
0
9
$DIMTAD
70
0
9
$DIMTDEC
70
4
9
$DIMTFAC
40
1.0
9
$DIMTIH
70
0
9
$DIMTIX
70
0
9
$DIMTM
40
0.0
9
$DIMTMOVE
70
0
9
$DIMTOFL
70
0
9
$DIMTOH
70
0
9
$DIMTOL
70
0
9
$DIMLIM
70
0
9
$DIMTOLJ
70
1
9
$DIMTP
40
0.0
9
$DIMTXT
40
0.18
9
$DIMTXTDIRECTION
70
0
9
$DIMTZIN
70
0
9
$DIMZIN
70
0
9
$DIMFRAC
70
0
9
$DIMLTYPE
6
ByBlock
9
$DIMLTEX1
6
ByBlock
9
$DIMLTEX2
6
ByBlock
0
ENDSEC
0
SECTION
2
CLASSES
0
CLASS
1
RASTERVARIABLES
2
AcDbRasterVariables
3
ISM
90
0
280
0
281
0
0
ENDSEC
0
SECTION
2
TABLES
0
TABLE
2
APPID
5
4
330
0
100
AcDbSymbolTable
70
5
0
APPID
5
19
330
4
100
AcDbSymbolTableRecord
100
AcDbRegAppTableRecord
2
ACAD
70
0
0
APPID
5
28
330
4
100
AcDbSymbolTableRecord
100
AcDbRegAppTableRecord
2
AcAecLayerStandard
70
0
0
APPID
5
144
330
4
100
AcDbSymbolTableRecord
100
AcDbRegAppTableRecord
2
AcCmTransparency
70
0
0
APPID
5
145
330
4
100
AcDbSymbolTableRecord
100
AcDbRegAppTableRecord
2
GradientColor1ACI
70
0
0
APPID
5
146
330
4
100
AcDbSymbolTableRecord
100
AcDbRegAppTableRecord
2
GradientColor2ACI
70
0
0
ENDTAB
0
TABLE
2
VPORT
5
1
330
0
100
AcDbSymbolTable
70
1
0
VPORT
5
2
330
1
100
AcDbSymbolTableRecord
100
AcDbViewportTableRecord
2
*Active
70
0
10
0.0
20
0.0
11
1.0
21
1.0
12
0.0
22
0.0
13
0.0
23
0.0
14
0.5
24
0.5
15
10.0
25
10.0
16
0.0
26
0.0
36
1.0
17
0.0
27
0.0
37
0.0
40
10.0
41
1.0
75
0
76
1
0
ENDTAB
0
TABLE
2
LTYPE
5
7
330
0
100
AcDbSymbolTable
70
4
0
LTYPE
5
15
330
7
100
AcDbSymbolTableRecord
100
AcDbLinetypeTableRecord
2
Continuous
70
0
3
Solid line
72
65
73
0
40
0.0
0
LTYPE
5
16
330
7
100
AcDbSymbolTableRecord
100
AcDbLinetypeTableRecord
2
ByLayer
70
0
3

72
65
73
0
40
0.0
0
LTYPE
5
17
330
7
100
AcDbSymbolTableRecord
100
AcDbLinetypeTableRecord
2
ByBlock
70
0
3

72
65
73
0
40
0.0
0
LTYPE
5
27
330
7
100
AcDbSymbolTableRecord
100
AcDbLinetypeTableRecord
2
\U+865A\U+7EBF
70
0
3
\U+865A\U+7EBF: __ __ __ __ __ __ __ __ __ __ __ __ __
72
65
73
2
40
2.0
49
1.0
74
0
49
-1.0
74
0
0
ENDTAB
0
TABLE
2
LAYER
5
5
102
{ACAD_XDICTIONARY
360
6
102
}
330
0
100
AcDbSymbolTable
70
2
0
LAYER
5
14
330
5
100
AcDbSymbolTableRecord
100
AcDbLayerTableRecord
2
0
70
0
62
7
6
Continuous
290
1
370
-3
390
0
0
LAYER
5
26
330
5
100
AcDbSymbolTableRecord
100
AcDbLayerTableRecord
2
\U+865A\U+7EBF\U+5C42
70
0
62
6
6
\U+865A\U+7EBF
290
1
370
25
390
0
1001
AcAecLayerStandard
1000

1000
\U+865A\U+7EBF\U+5C42
0
ENDTAB
0
TABLE
2
STYLE
5
8
330
0
100
AcDbSymbolTable
70
1
0
STYLE
5
18
330
8
100
AcDbSymbolTableRecord
100
AcDbTextStyleTableRecord
2
Standard
3
simplex.shx
70
0
71
0
40
0.0
41
1.0
42
0.0
50
0.0
0
ENDTAB
0
TABLE
2
DIMSTYLE
5
A
330
0
100
AcDbSymbolTable
70
1
100
AcDbDimStyleTable
0
DIMSTYLE
105
1A
330
A
100
AcDbSymbolTableRecord
100
AcDbDimStyleTableRecord
2
Standard
3

4

40
1.0
41
0.18
42
0.0625
43
0.38
44
0.18
45
0.0
46
0.0
47
0.0
48
0.0
49
1.0
70
0
71
0
72
0
73
0
74
0
75
0
76
0
77
0
78
0
79
0
140
0.18
141
0.09
143
25.4
144
1.0
146
1.0
147
0.09
148
0.0
170
0
171
2
172
0
174
0
175
0
176
0
177
0
178
0
179
0
271
4
272
4
273
2
274
2
275
0
276
0
277
2
278
46
279
0
280
0
281
0
282
0
283
1
284
0
285
0
286
0
289
3
290
0
294
0
340
18
173
0
345
17
346
17
347
17
371
-2
372
-2
0
ENDTAB
0
TABLE
2
VIEW
5
3
330
0
100
AcDbSymbolTable
70
0
0
ENDTAB
0
TABLE
2
UCS
5
C
330
0
100
AcDbSymbolTable
70
0
0
ENDTAB
0
TABLE
2
BLOCK_RECORD
5
D
330
0
100
AcDbSymbolTable
70
3
0
BLOCK_RECORD
5
1C
330
D
100
AcDbSymbolTableRecord
100
AcDbBlockTableRecord
2
*Model_Space
340
20
0
BLOCK_RECORD
5
22
330
D
100
AcDbSymbolTableRecord
100
AcDbBlockTableRecord
2
BLOCK2_2
340
0
70
0
280
1
281
0
1001
ACAD
1000
DesignCenter Data
1002
{
1070
1
1070
0
1002
}
0
BLOCK_RECORD
5
13E
330
D
100
AcDbSymbolTableRecord
100
AcDbBlockTableRecord
2
*Paper_Space
340
143
0
ENDTAB
0
ENDSEC
0
SECTION
2
BLOCKS
0
BLOCK
5
1E
330
1C
100
AcDbEntity
67
0
8
0
100
AcDbBlockBegin
2
*Model_Space
70
0
10
0.0
20
0.0
30
0.0
3
*Model_Space
4

0
ENDBLK
5
1D
330
1C
100
AcDbEntity
8
0
100
AcDbBlockEnd
0
BLOCK
5
24
330
22
100
AcDbEntity
8
0
100
AcDbBlockBegin
2
BLOCK2_2
70
0
10
0.0
20
0.0
30
0.0
3
BLOCK2_2
4

0
LINE
5
25
330
22
100
AcDbEntity
8
\U+865A\U+7EBF\U+5C42
62
256
6
ByLayer
370
-1
48
1.0
60
0
100
AcDbLine
10
0.0
20
0.0
30
0.0
11
0.0
21
-50.0000000000009
31
0.0
39
0.0
210
0.0
220
0.0
230
1.0
0
LINE
5
29
330
22
100
AcDbEntity
8
\U+865A\U+7EBF\U+5C42
62
256
6
ByLayer
370
-1
48
1.0
60
0
100
AcDbLine
10
0.0
20
-50.0000000000009
30
0.0
11
2.0
21
-50.0000000000009
31
0.0
39
0.0
210
0.0
220
0.0
230
1.0
0
ARC
5
2A
330
22
100
AcDbEntity
8
\U+865A\U+7EBF\U+5C42
62
256
6
ByLayer
370
-1
48
1.0
60
0
100
AcDbCircle
39
0.0
10
2.0
20
-47.0000000000009
30
0.0
40
3.0
210
0.0
220
0.0
230
1.0
100
AcDbArc
50
270.0
51
0.0
0
ARC
5
2B
330
22
100
AcDbEntity
8
\U+865A\U+7EBF\U+5C42
62
256
6
ByLayer
370
-1
48
1.0
60
0
100
AcDbCircle
39
0.0
10
11.0
20
-11.0
30
0.0
40
6.0
210
0.0
220
0.0
230
1.0
100
AcDbArc
50
90.0
51
180.0
0
ARC
5
2C
330
22
100
AcDbEntity
8
\U+865A\U+7EBF\U+5C42
62
256
6
ByLayer
370
-1
48
1.0
60
0
100
AcDbCircle
39
0.0
10
47.0
20
-2.0
30
0.0
40
3.0
210
0.0
220
0.0
230
1.0
100
AcDbArc
50
270.0
51
0.0
0
LINE
5
2D
330
22
100
AcDbEntity
8
\U+865A\U+7EBF\U+5C42
62
256
6
ByLayer
370
-1
48
1.0
60
0
100
AcDbLine
10
5.0
20
-47.0000000000009
30
0.0
11
5.0
21
-11.0
31
0.0
39
0.0
210
0.0
220
0.0
230
1.0
0
LINE
5
2E
330
22
100
AcDbEntity
8
\U+865A\U+7EBF\U+5C42
62
256
6
ByLayer
370
-1
48
1.0
60
0
100
AcDbLine
10
11.0
20
-5.0
30
0.0
11
47.0
21
-5.0
31
0.0
39
0.0
210
0.0
220
0.0
230
1.0
0
LINE
5
2F
330
22
100
AcDbEntity
8
\U+865A\U+7EBF\U+5C42
62
256
6
ByLayer
370
-1
48
1.0
60
0
100
AcDbLine
10
50.0
20
-2.0
30
0.0
11
50.0
21
0.0
31
0.0
39
0.0
210
0.0
220
0.0
230
1.0
0
LINE
5
30
330
22
100
AcDbEntity
8
\U+865A\U+7EBF\U+5C42
62
256
6
ByLayer
370
-1
48
1.0
60
0
100
AcDbLine
10
0.0
20
0.0
30
0.0
11
50.0
21
0.0
31
0.0
39
0.0
210
0.0
220
0.0
230
1.0
0
LINE
5
31
330
22
100
AcDbEntity
8
\U+865A\U+7EBF\U+5C42
62
256
6
ByLayer
370
-1
48
1.0
60
0
100
AcDbLine
10
0.0000000000090949
20
-2485.5
30
0.0
11
0.0000000000090949
21
-2435.5
31
0.0
39
0.0
210
0.0
220
0.0
230
1.0
0
LINE
5
32
330
22
100
AcDbEntity
8
\U+865A\U+7EBF\U+5C42
62
256
6
ByLayer
370
-1
48
1.0
60
0
100
AcDbLine
10
0.0000000000090949
20
-2435.5
30
0.0
11
2.00000000000728
21
-2435.5
31
0.0
39
0.0
210
0.0
220
0.0
230
1.0
0
ARC
5
33
330
22
100
AcDbEntity
8
\U+865A\U+7EBF\U+5C42
62
256
6
ByLayer
370
-1
48
1.0
60
0
100
AcDbCircle
39
0.0
10
2.00000000000909
20
-2438.5
30
0.0
40
3.0
210
0.0
220
0.0
230
1.0
100
AcDbArc
50
0.0
51
90.0
0
ARC
5
34
330
22
100
AcDbEntity
8
\U+865A\U+7EBF\U+5C42
62
256
6
ByLayer
370
-1
48
1.0
60
0
100
AcDbCircle
39
0.0
10
11.0000000000091
20
-2474.5
30
0.0
40
6.0
210
0.0
220
0.0
230
1.0
100
AcDbArc
50
180.0
51
270.0
0
ARC
5
35
330
22
100
AcDbEntity
8
\U+865A\U+7EBF\U+5C42
62
256
6
ByLayer
370
-1
48
1.0
60
0
100
AcDbCircle
39
0.0
10
47.0000000000091
20
-2483.5
30
0.0
40
3.0
210
0.0
220
0.0
230
1.0
100
AcDbArc
50
0.0
51
90.0
0
LINE
5
36
330
22
100
AcDbEntity
8
\U+865A\U+7EBF\U+5C42
62
256
6
ByLayer
370
-1
48
1.0
60
0
100
AcDbLine
10
5.00000000000909
20
-2438.5
30
0.0
11
5.00000000000909
21
-2474.5
31
0.0
39
0.0
210
0.0
220
0.0
230
1.0
0
LINE
5
37
330
22
100
AcDbEntity
8
\U+865A\U+7EBF\U+5C42
62
256
6
ByLayer
370
-1
48
1.0
60
0
100
AcDbLine
10
11.0000000000091
20
-2480.5
30
0.0
11
47.0000000000091
21
-2480.5
31
0.0
39
0.0
210
0.0
220
0.0
230
1.0
0
LINE
5
38
330
22
100
AcDbEntity
8
\U+865A\U+7EBF\U+5C42
62
256
6
ByLayer
370
-1
48
1.0
60
0
100
AcDbLine
10
50.0000000000091
20
-2483.5
30
0.0
11
50.0000000000091
21
-2485.5
31
0.0
39
0.0
210
0.0
220
0.0
230
1.0
0
LINE
5
39
330
22
100
AcDbEntity
8
\U+865A\U+7EBF\U+5C42
62
256
6
ByLayer
370
-1
48
1.0
60
0
100
AcDbLine
10
0.0000000000090949
20
-2485.5
30
0.0
11
50.0000000000091
21
-2485.5
31
0.0
39
0.0
210
0.0
220
0.0
230
1.0
0
LINE
5
3A
330
22
100
AcDbEntity
8
\U+865A\U+7EBF\U+5C42
62
256
6
ByLayer
370
-1
48
1.0
60
0
100
AcDbLine
10
5.00000000000546
20
-604.249999999999
30
0.0
11
-44.9999999999945
21
-604.25
31
0.0
39
0.0
210
0.0
220
0.0
230
1.0
0
LINE
5
3B
330
22
100
AcDbEntity
8
\U+865A\U+7EBF\U+5C42
62
256
6
ByLayer
370
-1
48
1.0
60
0
100
AcDbLine
10
-44.9999999999945
20
-604.25
30
0.0
11
-44.9999999999945
21
-606.25
31
0.0
39
0.0
210
0.0
220
0.0
230
1.0
0
ARC
5
3C
330
22
100
AcDbEntity
8
\U+865A\U+7EBF\U+5C42
62
256
6
ByLayer
370
-1
48
1.0
60
0
100
AcDbCircle
39
0.0
10
-41.9999999999945
20
-606.25
30
0.0
40
3.0
210
0.0
220
0.0
230
1.0
100
AcDbArc
50
179.999999999998
51
270.0
0
ARC
5
3D
330
22
100
AcDbEntity
8
\U+865A\U+7EBF\U+5C42
62
256
6
ByLayer
370
-1
48
1.0
60
0
100
AcDbCircle
39
0.0
10
-5.99999999999454
20
-615.249999999999
30
0.0
40
6.0
210
0.0
220
0.0
230
1.0
100
AcDbArc
50
0.0
51
90.0
0
ARC
5
3E
330
22
100
AcDbEntity
8
\U+865A\U+7EBF\U+5C42
62
256
6
ByLayer
370
-1
48
1.0
60
0
100
AcDbCircle
39
0.0
10
3.00000000000546
20
-651.249999999999
30
0.0
40
3.0
210
0.0
220
0.0
230
1.0
100
AcDbArc
50
180.0
51
270.0
0
LINE
5
3F
330
22
100
AcDbEntity
8
\U+865A\U+7EBF\U+5C42
62
256
6
ByLayer
370
-1
48
1.0
60
0
100
AcDbLine
10
-41.9999999999945
20
-609.25
30
0.0
11
-5.99999999999454
21
-609.249999999999
31
0.0
39
0.0
210
0.0
220
0.0
230
1.0
0
LINE
5
40
330
22
100
AcDbEntity
8
\U+865A\U+7EBF\U+5C42
62
256
6
ByLayer
370
-1
48
1.0
60
0
100
AcDbLine
10
0.000000000005457
20
-615.249999999999
30
0.0
11
0.000000000005457
21
-651.249999999999
31
0.0
39
0.0
210
0.0
220
0.0
230
1.0
0
LINE
5
41
330
22
100
AcDbEntity
8
\U+865A\U+7EBF\U+5C42
62
256
6
ByLayer
370
-1
48
1.0
60
0
100
AcDbLine
10
3.00000000000546
20
-654.249999999999
30
0.0
11
5.00000000000546
21
-654.249999999999
31
0.0
39
0.0
210
0.0
220
0.0
230
1.0
0
LINE
5
42
330
22
100
AcDbEntity
8
\U+865A\U+7EBF\U+5C42
62
256
6
ByLayer
370
-1
48
1.0
60
0
100
AcDbLine
10
5.00000000000546
20
-604.249999999999
30
0.0
11
5.00000000000546
21
-654.249999999999
31
0.0
39
0.0
210
0.0
220
0.0
230
1.0
0
LINE
5
43
330
22
100
AcDbEntity
8
\U+865A\U+7EBF\U+5C42
62
256
6
ByLayer
370
-1
48
1.0
60
0
100
AcDbLine
10
5.00000000000728
20
-1217.75
30
0.0
11
-44.9999999999927
21
-1217.75
31
0.0
39
0.0
210
0.0
220
0.0
230
1.0
0
LINE
5
44
330
22
100
AcDbEntity
8
\U+865A\U+7EBF\U+5C42
62
256
6
ByLayer
370
-1
48
1.0
60
0
100
AcDbLine
10
-44.9999999999927
20
-1217.75
30
0.0
11
-44.9999999999927
21
-1219.75
31
0.0
39
0.0
210
0.0
220
0.0
230
1.0
0
ARC
5
45
330
22
100
AcDbEntity
8
\U+865A\U+7EBF\U+5C42
62
256
6
ByLayer
370
-1
48
1.0
60
0
100
AcDbCircle
39
0.0
10
-41.9999999999927
20
-1219.75
30
0.0
40
3.0
210
0.0
220
0.0
230
1.0
100
AcDbArc
50
179.999999999996
51
270.0
0
ARC
5
46
330
22
100
AcDbEntity
8
\U+865A\U+7EBF\U+5C42
62
256
6
ByLayer
370
-1
48
1.0
60
0
100
AcDbCircle
39
0.0
10
-5.99999999999272
20
-1228.75
30
0.0
40
6.0
210
0.0
220
0.0
230
1.0
100
AcDbArc
50
0.0
51
90.0
0
ARC
5
47
330
22
100
AcDbEntity
8
\U+865A\U+7EBF\U+5C42
62
256
6
ByLayer
370
-1
48
1.0
60
0
100
AcDbCircle
39
0.0
10
3.00000000000728
20
-1264.75
30
0.0
40
3.0
210
0.0
220
0.0
230
1.0
100
AcDbArc
50
179.999999999996
51
270.0
0
LINE
5
48
330
22
100
AcDbEntity
8
\U+865A\U+7EBF\U+5C42
62
256
6
ByLayer
370
-1
48
1.0
60
0
100
AcDbLine
10
-41.9999999999927
20
-1222.75
30
0.0
11
-5.99999999999272
21
-1222.75
31
0.0
39
0.0
210
0.0
220
0.0
230
1.0
0
LINE
5
49
330
22
100
AcDbEntity
8
\U+865A\U+7EBF\U+5C42
62
256
6
ByLayer
370
-1
48
1.0
60
0
100
AcDbLine
10
0.000000000007276
20
-1228.75
30
0.0
11
0.000000000007276
21
-1264.75
31
0.0
39
0.0
210
0.0
220
0.0
230
1.0
0
LINE
5
4A
330
22
100
AcDbEntity
8
\U+865A\U+7EBF\U+5C42
62
256
6
ByLayer
370
-1
48
1.0
60
0
100
AcDbLine
10
3.00000000000728
20
-1267.75
30
0.0
11
5.00000000000728
21
-1267.75
31
0.0
39
0.0
210
0.0
220
0.0
230
1.0
0
LINE
5
4B
330
22
100
AcDbEntity
8
\U+865A\U+7EBF\U+5C42
62
256
6
ByLayer
370
-1
48
1.0
60
0
100
AcDbLine
10
5.00000000000728
20
-1217.75
30
0.0
11
5.00000000000728
21
-1267.75
31
0.0
39
0.0
210
0.0
220
0.0
230
1.0
0
LINE
5
4C
330
22
100
AcDbEntity
8
\U+865A\U+7EBF\U+5C42
62
256
6
ByLayer
370
-1
48
1.0
60
0
100
AcDbLine
10
2.49999999999818
20
-17.0000000000009
30
0.0
11
-10.5000000000018
21
-17.0000000000009
31
0.0
39
0.0
210
0.0
220
0.0
230
1.0
0
ARC
5
4D
330
22
100
AcDbEntity
8
\U+865A\U+7EBF\U+5C42
62
256
6
ByLayer
370
-1
48
1.0
60
0
100
AcDbCircle
39
0.0
10
-4.61880215351994
20
-10.0717967697246
30
0.0
40
4.618802153517
210
0.0
220
0.0
230
1.0
100
AcDbArc
50
330.000000000006
51
30.0000000000055
0
ARC
5
4E
330
22
100
AcDbEntity
8
\U+865A\U+7EBF\U+5C42
62
256
6
ByLayer
370
-1
48
1.0
60
0
100
AcDbCircle
39
0.0
10
-3.38119784648552
20
-10.0717967697246
30
0.0
40
4.618802153517
210
0.0
220
0.0
230
1.0
100
AcDbArc
50
149.999999999998
51
209.999999999998
0
LINE
5
4F
330
22
100
AcDbEntity
8
\U+865A\U+7EBF\U+5C42
62
256
6
ByLayer
370
-1
48
1.0
60
0
100
AcDbLine
10
-0.618802153519937
20
-7.76239569296649
30
0.0
11
-7.38119784648552
21
-7.76239569296649
31
0.0
39
0.0
210
0.0
220
0.0
230
1.0
0
ARC
5
50
330
22
100
AcDbEntity
8
\U+865A\U+7EBF\U+5C42
62
256
6
ByLayer
370
-1
48
1.0
60
0
100
AcDbCircle
39
0.0
10
-4.61880215351994
20
-23.9282032302763
30
0.0
40
4.618802153517
210
0.0
220
0.0
230
1.0
100
AcDbArc
50
330.000000000003
51
30.0000000000026
0
ARC
5
51
330
22
100
AcDbEntity
8
\U+865A\U+7EBF\U+5C42
62
256
6
ByLayer
370
-1
48
1.0
60
0
100
AcDbCircle
39
0.0
10
-3.38119784648552
20
-23.9282032302763
30
0.0
40
4.618802153517
210
0.0
220
0.0
230
1.0
100
AcDbArc
50
150.000000000006
51
210.000000000006
0
ARC
5
52
330
22
100
AcDbEntity
8
\U+865A\U+7EBF\U+5C42
62
256
6
ByLayer
370
-1
48
1.0
60
0
100
AcDbCircle
39
0.0
10
9.54700538379075
20
-17.0000000000009
30
0.0
40
17.5470053837925
210
0.0
220
0.0
230
1.0
100
AcDbArc
50
164.738519575146
51
195.261480424866
0
ARC
5
53
330
22
100
AcDbEntity
8
\U+865A\U+7EBF\U+5C42
62
256
6
ByLayer
370
-1
48
1.0
60
0
100
AcDbCircle
39
0.0
10
-17.5470053837944
20
-17.0000000000009
30
0.0
40
17.5470053837925
210
0.0
220
0.0
230
1.0
100
AcDbArc
50
344.738519575142
51
15.2614804248624
0
LINE
5
54
330
22
100
AcDbEntity
8
\U+865A\U+7EBF\U+5C42
62
256
6
ByLayer
370
-1
48
1.0
60
0
100
AcDbLine
10
-0.618802153519937
20
-12.3811978464837
30
0.0
11
-7.38119784648552
21
-12.3811978464837
31
0.0
39
0.0
210
0.0
220
0.0
230
1.0
0
LINE
5
55
330
22
100
AcDbEntity
8
\U+865A\U+7EBF\U+5C42
62
256
6
ByLayer
370
-1
48
1.0
60
0
100
AcDbLine
10
-0.618802153519937
20
-21.6188021535172
30
0.0
11
-7.38119784648552
21
-21.6188021535172
31
0.0
39
0.0
210
0.0
220
0.0
230
1.0
0
LINE
5
56
330
22
100
AcDbEntity
8
\U+865A\U+7EBF\U+5C42
62
256
6
ByLayer
370
-1
48
1.0
60
0
100
AcDbLine
10
-0.000000000001819
20
-10.0717967697246
30
0.0
11
-0.000000000001819
21
-23.9282032302763
31
0.0
39
0.0
210
0.0
220
0.0
230
1.0
0
LINE
5
57
330
22
100
AcDbEntity
8
\U+865A\U+7EBF\U+5C42
62
256
6
ByLayer
370
-1
48
1.0
60
0
100
AcDbLine
10
-8.00000000000182
20
-10.0717967697246
30
0.0
11
-8.00000000000182
21
-23.9282032302763
31
0.0
39
0.0
210
0.0
220
0.0
230
1.0
0
LINE
5
58
330
22
100
AcDbEntity
8
\U+865A\U+7EBF\U+5C42
62
256
6
ByLayer
370
-1
48
1.0
60
0
100
AcDbLine
10
-0.618802153519937
20
-26.2376043070344
30
0.0
11
-7.38119784648552
21
-26.2376043070344
31
0.0
39
0.0
210
0.0
220
0.0
230
1.0
0
LINE
5
59
330
22
100
AcDbEntity
8
\U+865A\U+7EBF\U+5C42
62
256
6
ByLayer
370
-1
48
1.0
60
0
100
AcDbLine
10
2.5
20
-629.25
30
0.0
11
-10.5
21
-629.25
31
0.0
39
0.0
210
0.0
220
0.0
230
1.0
0
ARC
5
5A
330
22
100
AcDbEntity
8
\U+865A\U+7EBF\U+5C42
62
256
6
ByLayer
370
-1
48
1.0
60
0
100
AcDbCircle
39
0.0
10
-4.61880215351812
20
-622.321796769725
30
0.0
40
4.61880215351702
210
0.0
220
0.0
230
1.0
100
AcDbArc
50
329.999999999998
51
29.9999999999999
0
ARC
5
5B
330
22
100
AcDbEntity
8
\U+865A\U+7EBF\U+5C42
62
256
6
ByLayer
370
-1
48
1.0
60
0
100
AcDbCircle
39
0.0
10
-3.3811978464837
20
-622.321796769725
30
0.0
40
4.618802153517
210
0.0
220
0.0
230
1.0
100
AcDbArc
50
149.999999999998
51
210.0
0
LINE
5
5C
330
22
100
AcDbEntity
8
\U+865A\U+7EBF\U+5C42
62
256
6
ByLayer
370
-1
48
1.0
60
0
100
AcDbLine
10
-0.618802153518118
20
-620.012395692966
30
0.0
11
-7.3811978464837
21
-620.012395692966
31
0.0
39
0.0
210
0.0
220
0.0
230
1.0
0
ARC
5
5D
330
22
100
AcDbEntity
8
\U+865A\U+7EBF\U+5C42
62
256
6
ByLayer
370
-1
48
1.0
60
0
100
AcDbCircle
39
0.0
10
-4.61880215351812
20
-636.178203230275
30
0.0
40
4.61880215351701
210
0.0
220
0.0
230
1.0
100
AcDbArc
50
330.000000000003
51
30.0000000000023
0
ARC
5
5E
330
22
100
AcDbEntity
8
\U+865A\U+7EBF\U+5C42
62
256
6
ByLayer
370
-1
48
1.0
60
0
100
AcDbCircle
39
0.0
10
-3.3811978464837
20
-636.178203230275
30
0.0
40
4.618802153517
210
0.0
220
0.0
230
1.0
100
AcDbArc
50
150.000000000002
51
210.000000000002
0
ARC
5
5F
330
22
100
AcDbEntity
8
\U+865A\U+7EBF\U+5C42
62
256
6
ByLayer
370
-1
48
1.0
60
0
100
AcDbCircle
39
0.0
10
9.54700538379257
20
-629.25
30
0.0
40
17.5470053837925
210
0.0
220
0.0
230
1.0
100
AcDbArc
50
164.738519575149
51
195.261480424869
0
ARC
5
60
330
22
100
AcDbEntity
8
\U+865A\U+7EBF\U+5C42
62
256
6
ByLayer
370
-1
48
1.0
60
0
100
AcDbCircle
39
0.0
10
-17.5470053837926
20
-629.25
30
0.0
40
17.5470053837925
210
0.0
220
0.0
230
1.0
100
AcDbArc
50
344.738519575138
51
15.2614804248586
0
LINE
5
61
330
22
100
AcDbEntity
8
\U+865A\U+7EBF\U+5C42
62
256
6
ByLayer
370
-1
48
1.0
60
0
100
AcDbLine
10
-0.618802153518118
20
-624.631197846483
30
0.0
11
-7.3811978464837
21
-624.631197846483
31
0.0
39
0.0
210
0.0
220
0.0
230
1.0
0
LINE
5
62
330
22
100
AcDbEntity
8
\U+865A\U+7EBF\U+5C42
62
256
6
ByLayer
370
-1
48
1.0
60
0
100
AcDbLine
10
-0.618802153518118
20
-633.868802153517
30
0.0
11
-7.3811978464837
21
-633.868802153517
31
0.0
39
0.0
210
0.0
220
0.0
230
1.0
0
LINE
5
63
330
22
100
AcDbEntity
8
\U+865A\U+7EBF\U+5C42
62
256
6
ByLayer
370
-1
48
1.0
60
0
100
AcDbLine
10
0.0
20
-622.321796769725
30
0.0
11
0.0
21
-636.178203230275
31
0.0
39
0.0
210
0.0
220
0.0
230
1.0
0
LINE
5
64
330
22
100
AcDbEntity
8
\U+865A\U+7EBF\U+5C42
62
256
6
ByLayer
370
-1
48
1.0
60
0
100
AcDbLine
10
-8.0
20
-622.321796769725
30
0.0
11
-8.0
21
-636.178203230275
31
0.0
39
0.0
210
0.0
220
0.0
230
1.0
0
LINE
5
65
330
22
100
AcDbEntity
8
\U+865A\U+7EBF\U+5C42
62
256
6
ByLayer
370
-1
48
1.0
60
0
100
AcDbLine
10
-0.618802153518118
20
-638.487604307034
30
0.0
11
-7.3811978464837
21
-638.487604307034
31
0.0
39
0.0
210
0.0
220
0.0
230
1.0
0
LINE
5
66
330
22
100
AcDbEntity
8
\U+865A\U+7EBF\U+5C42
62
256
6
ByLayer
370
-1
48
1.0
60
0
100
AcDbLine
10
2.50000000000182
20
-1242.75
30
0.0
11
-10.4999999999982
21
-1242.75
31
0.0
39
0.0
210
0.0
220
0.0
230
1.0
0
ARC
5
67
330
22
100
AcDbEntity
8
\U+865A\U+7EBF\U+5C42
62
256
6
ByLayer
370
-1
48
1.0
60
0
100
AcDbCircle
39
0.0
10
-4.6188021535163
20
-1235.82179676972
30
0.0
40
4.61880215351699
210
0.0
220
0.0
230
1.0
100
AcDbArc
50
330.000000000004
51
30.0000000000054
0
ARC
5
68
330
22
100
AcDbEntity
8
\U+865A\U+7EBF\U+5C42
62
256
6
ByLayer
370
-1
48
1.0
60
0
100
AcDbCircle
39
0.0
10
-3.38119784648188
20
-1235.82179676972
30
0.0
40
4.61880215351699
210
0.0
220
0.0
230
1.0
100
AcDbArc
50
149.999999999998
51
209.999999999999
0
LINE
5
69
330
22
100
AcDbEntity
8
\U+865A\U+7EBF\U+5C42
62
256
6
ByLayer
370
-1
48
1.0
60
0
100
AcDbLine
10
-0.618802153516299
20
-1233.51239569297
30
0.0
11
-7.38119784648188
21
-1233.51239569297
31
0.0
39
0.0
210
0.0
220
0.0
230
1.0
0
ARC
5
6A
330
22
100
AcDbEntity
8
\U+865A\U+7EBF\U+5C42
62
256
6
ByLayer
370
-1
48
1.0
60
0
100
AcDbCircle
39
0.0
10
-4.6188021535163
20
-1249.67820323028
30
0.0
40
4.618802153517
210
0.0
220
0.0
230
1.0
100
AcDbArc
50
330.000000000005
51
30.0000000000049
0
ARC
5
6B
330
22
100
AcDbEntity
8
\U+865A\U+7EBF\U+5C42
62
256
6
ByLayer
370
-1
48
1.0
60
0
100
AcDbCircle
39
0.0
10
-3.38119784648188
20
-1249.67820323028
30
0.0
40
4.61880215351701
210
0.0
220
0.0
230
1.0
100
AcDbArc
50
150.000000000009
51
210.000000000009
0
ARC
5
6C
330
22
100
AcDbEntity
8
\U+865A\U+7EBF\U+5C42
62
256
6
ByLayer
370
-1
48
1.0
60
0
100
AcDbCircle
39
0.0
10
9.54700538379439
20
-1242.75
30
0.0
40
17.5470053837925
210
0.0
220
0.0
230
1.0
100
AcDbArc
50
164.738519575146
51
195.261480424866
0
ARC
5
6D
330
22
100
AcDbEntity
8
\U+865A\U+7EBF\U+5C42
62
256
6
ByLayer
370
-1
48
1.0
60
0
100
AcDbCircle
39
0.0
10
-17.5470053837908
20
-1242.75
30
0.0
40
17.5470053837925
210
0.0
220
0.0
230
1.0
100
AcDbArc
50
344.738519575143
51
15.2614804248639
0
LINE
5
6E
330
22
100
AcDbEntity
8
\U+865A\U+7EBF\U+5C42
62
256
6
ByLayer
370
-1
48
1.0
60
0
100
AcDbLine
10
-0.618802153516299
20
-1238.13119784648
30
0.0
11
-7.38119784648188
21
-1238.13119784649
31
0.0
39
0.0
210
0.0
220
0.0
230
1.0
0
LINE
5
6F
330
22
100
AcDbEntity
8
\U+865A\U+7EBF\U+5C42
62
256
6
ByLayer
370
-1
48
1.0
60
0
100
AcDbLine
10
-0.618802153516299
20
-1247.36880215352
30
0.0
11
-7.38119784648188
21
-1247.36880215352
31
0.0
39
0.0
210
0.0
220
0.0
230
1.0
0
LINE
5
70
330
22
100
AcDbEntity
8
\U+865A\U+7EBF\U+5C42
62
256
6
ByLayer
370
-1
48
1.0
60
0
100
AcDbLine
10
0.000000000001819
20
-1235.82179676972
30
0.0
11
0.000000000001819
21
-1249.67820323028
31
0.0
39
0.0
210
0.0
220
0.0
230
1.0
0
LINE
5
71
330
22
100
AcDbEntity
8
\U+865A\U+7EBF\U+5C42
62
256
6
ByLayer
370
-1
48
1.0
60
0
100
AcDbLine
10
-7.99999999999818
20
-1235.82179676972
30
0.0
11
-7.99999999999818
21
-1249.67820323028
31
0.0
39
0.0
210
0.0
220
0.0
230
1.0
0
LINE
5
72
330
22
100
AcDbEntity
8
\U+865A\U+7EBF\U+5C42
62
256
6
ByLayer
370
-1
48
1.0
60
0
100
AcDbLine
10
-0.618802153516299
20
-1251.98760430703
30
0.0
11
-7.38119784648188
21
-1251.98760430704
31
0.0
39
0.0
210
0.0
220
0.0
230
1.0
0
LINE
5
73
330
22
100
AcDbEntity
8
\U+865A\U+7EBF\U+5C42
62
256
6
ByLayer
370
-1
48
1.0
60
0
100
AcDbLine
10
2.50000000000546
20
-2468.5
30
0.0
11
-10.4999999999945
21
-2468.5
31
0.0
39
0.0
210
0.0
220
0.0
230
1.0
0
ARC
5
74
330
22
100
AcDbEntity
8
\U+865A\U+7EBF\U+5C42
62
256
6
ByLayer
370
-1
48
1.0
60
0
100
AcDbCircle
39
0.0
10
-4.61880215351266
20
-2461.57179676973
30
0.0
40
4.61880215351704
210
0.0
220
0.0
230
1.0
100
AcDbArc
50
329.999999999993
51
29.9999999999938
0
ARC
5
75
330
22
100
AcDbEntity
8
\U+865A\U+7EBF\U+5C42
62
256
6
ByLayer
370
-1
48
1.0
60
0
100
AcDbCircle
39
0.0
10
-3.38119784647824
20
-2461.57179676973
30
0.0
40
4.61880215351699
210
0.0
220
0.0
230
1.0
100
AcDbArc
50
150.00000000001
51
210.000000000014
0
LINE
5
76
330
22
100
AcDbEntity
8
\U+865A\U+7EBF\U+5C42
62
256
6
ByLayer
370
-1
48
1.0
60
0
100
AcDbLine
10
-0.618802153512661
20
-2459.26239569297
30
0.0
11
-7.38119784647824
21
-2459.26239569297
31
0.0
39
0.0
210
0.0
220
0.0
230
1.0
0
ARC
5
77
330
22
100
AcDbEntity
8
\U+865A\U+7EBF\U+5C42
62
256
6
ByLayer
370
-1
48
1.0
60
0
100
AcDbCircle
39
0.0
10
-4.61880215351266
20
-2475.42820323028
30
0.0
40
4.61880215351699
210
0.0
220
0.0
230
1.0
100
AcDbArc
50
330.000000000004
51
30.0000000000054
0
ARC
5
78
330
22
100
AcDbEntity
8
\U+865A\U+7EBF\U+5C42
62
256
6
ByLayer
370
-1
48
1.0
60
0
100
AcDbCircle
39
0.0
10
-3.38119784647824
20
-2475.42820323028
30
0.0
40
4.61880215351697
210
0.0
220
0.0
230
1.0
100
AcDbArc
50
150.000000000017
51
210.000000000012
0
ARC
5
79
330
22
100
AcDbEntity
8
\U+865A\U+7EBF\U+5C42
62
256
6
ByLayer
370
-1
48
1.0
60
0
100
AcDbCircle
39
0.0
10
9.54700538379802
20
-2468.5
30
0.0
40
17.5470053837925
210
0.0
220
0.0
230
1.0
100
AcDbArc
50
164.738519575144
51
195.261480424864
0
ARC
5
7A
330
22
100
AcDbEntity
8
\U+865A\U+7EBF\U+5C42
62
256
6
ByLayer
370
-1
48
1.0
60
0
100
AcDbCircle
39
0.0
10
-17.5470053837871
20
-2468.5
30
0.0
40
17.5470053837925
210
0.0
220
0.0
230
1.0
100
AcDbArc
50
344.738519575139
51
15.2614804248593
0
LINE
5
7B
330
22
100
AcDbEntity
8
\U+865A\U+7EBF\U+5C42
62
256
6
ByLayer
370
-1
48
1.0
60
0
100
AcDbLine
10
-0.618802153512661
20
-2463.88119784649
30
0.0
11
-7.38119784647824
21
-2463.88119784649
31
0.0
39
0.0
210
0.0
220
0.0
230
1.0
0
LINE
5
7C
330
22
100
AcDbEntity
8
\U+865A\U+7EBF\U+5C42
62
256
6
ByLayer
370
-1
48
1.0
60
0
100
AcDbLine
10
-0.618802153512661
20
-2473.11880215352
30
0.0
11
-7.38119784647824
21
-2473.11880215352
31
0.0
39
0.0
210
0.0
220
0.0
230
1.0
0
LINE
5
7D
330
22
100
AcDbEntity
8
\U+865A\U+7EBF\U+5C42
62
256
6
ByLayer
370
-1
48
1.0
60
0
100
AcDbLine
10
0.000000000005457
20
-2461.57179676973
30
0.0
11
0.000000000005457
21
-2475.42820323028
31
0.0
39
0.0
210
0.0
220
0.0
230
1.0
0
LINE
5
7E
330
22
100
AcDbEntity
8
\U+865A\U+7EBF\U+5C42
62
256
6
ByLayer
370
-1
48
1.0
60
0
100
AcDbLine
10
-7.99999999999454
20
-2461.57179676973
30
0.0
11
-7.99999999999454
21
-2475.42820323028
31
0.0
39
0.0
210
0.0
220
0.0
230
1.0
0
LINE
5
7F
330
22
100
AcDbEntity
8
\U+865A\U+7EBF\U+5C42
62
256
6
ByLayer
370
-1
48
1.0
60
0
100
AcDbLine
10
-0.618802153512661
20
-2477.73760430704
30
0.0
11
-7.38119784647824
21
-2477.73760430704
31
0.0
39
0.0
210
0.0
220
0.0
230
1.0
0
LINE
5
80
330
22
100
AcDbEntity
8
\U+865A\U+7EBF\U+5C42
62
256
6
ByLayer
370
-1
48
1.0
60
0
100
AcDbLine
10
2.49999999999818
20
-72.4999999999991
30
0.0
11
-10.5000000000018
21
-72.4999999999991
31
0.0
39
0.0
210
0.0
220
0.0
230
1.0
0
ARC
5
81
330
22
100
AcDbEntity
8
\U+865A\U+7EBF\U+5C42
62
256
6
ByLayer
370
-1
48
1.0
60
0
100
AcDbCircle
39
0.0
10
-4.61880215351994
20
-65.5717967697237
30
0.0
40
4.618802153517
210
0.0
220
0.0
230
1.0
100
AcDbArc
50
329.999999999998
51
29.999999999998
0
ARC
5
82
330
22
100
AcDbEntity
8
\U+865A\U+7EBF\U+5C42
62
256
6
ByLayer
370
-1
48
1.0
60
0
100
AcDbCircle
39
0.0
10
-3.38119784648552
20
-65.5717967697237
30
0.0
40
4.61880215351701
210
0.0
220
0.0
230
1.0
100
AcDbArc
50
150.000000000004
51
210.000000000004
0
LINE
5
83
330
22
100
AcDbEntity
8
\U+865A\U+7EBF\U+5C42
62
256
6
ByLayer
370
-1
48
1.0
60
0
100
AcDbLine
10
-0.618802153519937
20
-63.2623956929656
30
0.0
11
-7.38119784648552
21
-63.2623956929656
31
0.0
39
0.0
210
0.0
220
0.0
230
1.0
0
ARC
5
84
330
22
100
AcDbEntity
8
\U+865A\U+7EBF\U+5C42
62
256
6
ByLayer
370
-1
48
1.0
60
0
100
AcDbCircle
39
0.0
10
-4.61880215351994
20
-79.4282032302754
30
0.0
40
4.618802153517
210
0.0
220
0.0
230
1.0
100
AcDbArc
50
329.999999999999
51
29.9999999999986
0
ARC
5
85
330
22
100
AcDbEntity
8
\U+865A\U+7EBF\U+5C42
62
256
6
ByLayer
370
-1
48
1.0
60
0
100
AcDbCircle
39
0.0
10
-3.38119784648552
20
-79.4282032302754
30
0.0
40
4.618802153517
210
0.0
220
0.0
230
1.0
100
AcDbArc
50
150.000000000006
51
210.000000000006
0
ARC
5
86
330
22
100
AcDbEntity
8
\U+865A\U+7EBF\U+5C42
62
256
6
ByLayer
370
-1
48
1.0
60
0
100
AcDbCircle
39
0.0
10
9.54700538379075
20
-72.4999999999991
30
0.0
40
17.5470053837925
210
0.0
220
0.0
230
1.0
100
AcDbArc
50
164.738519575146
51
195.261480424866
0
ARC
5
87
330
22
100
AcDbEntity
8
\U+865A\U+7EBF\U+5C42
62
256
6
ByLayer
370
-1
48
1.0
60
0
100
AcDbCircle
39
0.0
10
-17.5470053837944
20
-72.4999999999991
30
0.0
40
17.5470053837925
210
0.0
220
0.0
230
1.0
100
AcDbArc
50
344.738519575136
51
15.2614804248557
0
LINE
5
88
330
22
100
AcDbEntity
8
\U+865A\U+7EBF\U+5C42
62
256
6
ByLayer
370
-1
48
1.0
60
0
100
AcDbLine
10
-0.618802153519937
20
-67.8811978464828
30
0.0
11
-7.38119784648552
21
-67.8811978464828
31
0.0
39
0.0
210
0.0
220
0.0
230
1.0
0
LINE
5
89
330
22
100
AcDbEntity
8
\U+865A\U+7EBF\U+5C42
62
256
6
ByLayer
370
-1
48
1.0
60
0
100
AcDbLine
10
-0.618802153519937
20
-77.1188021535163
30
0.0
11
-7.38119784648552
21
-77.1188021535163
31
0.0
39
0.0
210
0.0
220
0.0
230
1.0
0
LINE
5
8A
330
22
100
AcDbEntity
8
\U+865A\U+7EBF\U+5C42
62
256
6
ByLayer
370
-1
48
1.0
60
0
100
AcDbLine
10
-0.000000000001819
20
-65.5717967697237
30
0.0
11
-0.000000000001819
21
-79.4282032302754
31
0.0
39
0.0
210
0.0
220
0.0
230
1.0
0
LINE
5
8B
330
22
100
AcDbEntity
8
\U+865A\U+7EBF\U+5C42
62
256
6
ByLayer
370
-1
48
1.0
60
0
100
AcDbLine
10
-8.00000000000182
20
-65.5717967697237
30
0.0
11
-8.00000000000182
21
-79.4282032302754
31
0.0
39
0.0
210
0.0
220
0.0
230
1.0
0
LINE
5
8C
330
22
100
AcDbEntity
8
\U+865A\U+7EBF\U+5C42
62
256
6
ByLayer
370
-1
48
1.0
60
0
100
AcDbLine
10
-0.618802153519937
20
-81.7376043070335
30
0.0
11
-7.38119784648552
21
-81.7376043070335
31
0.0
39
0.0
210
0.0
220
0.0
230
1.0
0
LINE
5
8D
330
22
100
AcDbEntity
8
\U+865A\U+7EBF\U+5C42
62
256
6
ByLayer
370
-1
48
1.0
60
0
100
AcDbLine
10
2.5
20
-572.499999999999
30
0.0
11
-10.5
21
-572.499999999999
31
0.0
39
0.0
210
0.0
220
0.0
230
1.0
0
ARC
5
8E
330
22
100
AcDbEntity
8
\U+865A\U+7EBF\U+5C42
62
256
6
ByLayer
370
-1
48
1.0
60
0
100
AcDbCircle
39
0.0
10
-4.61880215351994
20
-565.571796769725
30
0.0
40
4.61880215351701
210
0.0
220
0.0
230
1.0
100
AcDbArc
50
330.0
51
30.0000000000011
0
ARC
5
8F
330
22
100
AcDbEntity
8
\U+865A\U+7EBF\U+5C42
62
256
6
ByLayer
370
-1
48
1.0
60
0
100
AcDbCircle
39
0.0
10
-3.3811978464837
20
-565.571796769725
30
0.0
40
4.61880215351701
210
0.0
220
0.0
230
1.0
100
AcDbArc
50
150.000000000005
51
210.000000000005
0
LINE
5
90
330
22
100
AcDbEntity
8
\U+865A\U+7EBF\U+5C42
62
256
6
ByLayer
370
-1
48
1.0
60
0
100
AcDbLine
10
-0.618802153519937
20
-563.262395692966
30
0.0
11
-7.3811978464837
21
-563.262395692966
31
0.0
39
0.0
210
0.0
220
0.0
230
1.0
0
ARC
5
91
330
22
100
AcDbEntity
8
\U+865A\U+7EBF\U+5C42
62
256
6
ByLayer
370
-1
48
1.0
60
0
100
AcDbCircle
39
0.0
10
-4.61880215351812
20
-579.428203230275
30
0.0
40
4.618802153517
210
0.0
220
0.0
230
1.0
100
AcDbArc
50
330.000000000003
51
30.0000000000033
0
ARC
5
92
330
22
100
AcDbEntity
8
\U+865A\U+7EBF\U+5C42
62
256
6
ByLayer
370
-1
48
1.0
60
0
100
AcDbCircle
39
0.0
10
-3.3811978464837
20
-579.428203230275
30
0.0
40
4.61880215351701
210
0.0
220
0.0
230
1.0
100
AcDbArc
50
150.000000000002
51
210.000000000003
0
ARC
5
93
330
22
100
AcDbEntity
8
\U+865A\U+7EBF\U+5C42
62
256
6
ByLayer
370
-1
48
1.0
60
0
100
AcDbCircle
39
0.0
10
9.54700538379257
20
-572.499999999999
30
0.0
40
17.5470053837925
210
0.0
220
0.0
230
1.0
100
AcDbArc
50
164.738519575142
51
195.261480424863
0
ARC
5
94
330
22
100
AcDbEntity
8
\U+865A\U+7EBF\U+5C42
62
256
6
ByLayer
370
-1
48
1.0
60
0
100
AcDbCircle
39
0.0
10
-17.5470053837926
20
-572.5
30
0.0
40
17.5470053837925
210
0.0
220
0.0
230
1.0
100
AcDbArc
50
344.738519575146
51
15.2614804248665
0
LINE
5
95
330
22
100
AcDbEntity
8
\U+865A\U+7EBF\U+5C42
62
256
6
ByLayer
370
-1
48
1.0
60
0
100
AcDbLine
10
-0.618802153519937
20
-567.881197846483
30
0.0
11
-7.3811978464837
21
-567.881197846483
31
0.0
39
0.0
210
0.0
220
0.0
230
1.0
0
LINE
5
96
330
22
100
AcDbEntity
8
\U+865A\U+7EBF\U+5C42
62
256
6
ByLayer
370
-1
48
1.0
60
0
100
AcDbLine
10
-0.618802153518118
20
-577.118802153517
30
0.0
11
-7.3811978464837
21
-577.118802153517
31
0.0
39
0.0
210
0.0
220
0.0
230
1.0
0
LINE
5
97
330
22
100
AcDbEntity
8
\U+865A\U+7EBF\U+5C42
62
256
6
ByLayer
370
-1
48
1.0
60
0
100
AcDbLine
10
0.0
20
-565.571796769725
30
0.0
11
0.0
21
-579.428203230275
31
0.0
39
0.0
210
0.0
220
0.0
230
1.0
0
LINE
5
98
330
22
100
AcDbEntity
8
\U+865A\U+7EBF\U+5C42
62
256
6
ByLayer
370
-1
48
1.0
60
0
100
AcDbLine
10
-8.0
20
-565.571796769725
30
0.0
11
-8.0
21
-579.428203230275
31
0.0
39
0.0
210
0.0
220
0.0
230
1.0
0
LINE
5
99
330
22
100
AcDbEntity
8
\U+865A\U+7EBF\U+5C42
62
256
6
ByLayer
370
-1
48
1.0
60
0
100
AcDbLine
10
-0.618802153518118
20
-581.737604307034
30
0.0
11
-7.3811978464837
21
-581.737604307034
31
0.0
39
0.0
210
0.0
220
0.0
230
1.0
0
LINE
5
9A
330
22
100
AcDbEntity
8
\U+865A\U+7EBF\U+5C42
62
256
6
ByLayer
370
-1
48
1.0
60
0
100
AcDbLine
10
2.5
20
-685.999999999999
30
0.0
11
-10.5
21
-685.999999999999
31
0.0
39
0.0
210
0.0
220
0.0
230
1.0
0
ARC
5
9B
330
22
100
AcDbEntity
8
\U+865A\U+7EBF\U+5C42
62
256
6
ByLayer
370
-1
48
1.0
60
0
100
AcDbCircle
39
0.0
10
-4.61880215351812
20
-679.071796769725
30
0.0
40
4.61880215351701
210
0.0
220
0.0
230
1.0
100
AcDbArc
50
330.000000000002
51
30.0000000000038
0
ARC
5
9C
330
22
100
AcDbEntity
8
\U+865A\U+7EBF\U+5C42
62
256
6
ByLayer
370
-1
48
1.0
60
0
100
AcDbCircle
39
0.0
10
-3.3811978464837
20
-679.071796769725
30
0.0
40
4.618802153517
210
0.0
220
0.0
230
1.0
100
AcDbArc
50
150.0
51
210.0
0
LINE
5
9D
330
22
100
AcDbEntity
8
\U+865A\U+7EBF\U+5C42
62
256
6
ByLayer
370
-1
48
1.0
60
0
100
AcDbLine
10
-0.618802153518118
20
-676.762395692965
30
0.0
11
-7.3811978464837
21
-676.762395692965
31
0.0
39
0.0
210
0.0
220
0.0
230
1.0
0
ARC
5
9E
330
22
100
AcDbEntity
8
\U+865A\U+7EBF\U+5C42
62
256
6
ByLayer
370
-1
48
1.0
60
0
100
AcDbCircle
39
0.0
10
-4.61880215351812
20
-692.928203230275
30
0.0
40
4.61880215351699
210
0.0
220
0.0
230
1.0
100
AcDbArc
50
330.000000000005
51
30.000000000005
0
ARC
5
9F
330
22
100
AcDbEntity
8
\U+865A\U+7EBF\U+5C42
62
256
6
ByLayer
370
-1
48
1.0
60
0
100
AcDbCircle
39
0.0
10
-3.3811978464837
20
-692.928203230275
30
0.0
40
4.61880215351702
210
0.0
220
0.0
230
1.0
100
AcDbArc
50
150.000000000007
51
210.000000000006
0
ARC
5
A0
330
22
100
AcDbEntity
8
\U+865A\U+7EBF\U+5C42
62
256
6
ByLayer
370
-1
48
1.0
60
0
100
AcDbCircle
39
0.0
10
9.54700538379257
20
-685.999999999999
30
0.0
40
17.5470053837925
210
0.0
220
0.0
230
1.0
100
AcDbArc
50
164.738519575144
51
195.261480424864
0
ARC
5
A1
330
22
100
AcDbEntity
8
\U+865A\U+7EBF\U+5C42
62
256
6
ByLayer
370
-1
48
1.0
60
0
100
AcDbCircle
39
0.0
10
-17.5470053837926
20
-686.0
30
0.0
40
17.5470053837925
210
0.0
220
0.0
230
1.0
100
AcDbArc
50
344.73851957514
51
15.26148042486
0
LINE
5
A2
330
22
100
AcDbEntity
8
\U+865A\U+7EBF\U+5C42
62
256
6
ByLayer
370
-1
48
1.0
60
0
100
AcDbLine
10
-0.618802153518118
20
-681.381197846483
30
0.0
11
-7.3811978464837
21
-681.381197846483
31
0.0
39
0.0
210
0.0
220
0.0
230
1.0
0
LINE
5
A3
330
22
100
AcDbEntity
8
\U+865A\U+7EBF\U+5C42
62
256
6
ByLayer
370
-1
48
1.0
60
0
100
AcDbLine
10
-0.618802153518118
20
-690.618802153517
30
0.0
11
-7.3811978464837
21
-690.618802153517
31
0.0
39
0.0
210
0.0
220
0.0
230
1.0
0
LINE
5
A4
330
22
100
AcDbEntity
8
\U+865A\U+7EBF\U+5C42
62
256
6
ByLayer
370
-1
48
1.0
60
0
100
AcDbLine
10
0.0
20
-679.071796769725
30
0.0
11
0.0
21
-692.928203230275
31
0.0
39
0.0
210
0.0
220
0.0
230
1.0
0
LINE
5
A5
330
22
100
AcDbEntity
8
\U+865A\U+7EBF\U+5C42
62
256
6
ByLayer
370
-1
48
1.0
60
0
100
AcDbLine
10
-8.0
20
-679.071796769725
30
0.0
11
-8.0
21
-692.928203230275
31
0.0
39
0.0
210
0.0
220
0.0
230
1.0
0
LINE
5
A6
330
22
100
AcDbEntity
8
\U+865A\U+7EBF\U+5C42
62
256
6
ByLayer
370
-1
48
1.0
60
0
100
AcDbLine
10
-0.618802153518118
20
-695.237604307033
30
0.0
11
-7.3811978464837
21
-695.237604307033
31
0.0
39
0.0
210
0.0
220
0.0
230
1.0
0
LINE
5
A7
330
22
100
AcDbEntity
8
\U+865A\U+7EBF\U+5C42
62
256
6
ByLayer
370
-1
48
1.0
60
0
100
AcDbLine
10
2.50000000000182
20
-935.999999999999
30
0.0
11
-10.4999999999982
21
-935.999999999999
31
0.0
39
0.0
210
0.0
220
0.0
230
1.0
0
ARC
5
A8
330
22
100
AcDbEntity
8
\U+865A\U+7EBF\U+5C42
62
256
6
ByLayer
370
-1
48
1.0
60
0
100
AcDbCircle
39
0.0
10
-4.6188021535163
20
-929.071796769725
30
0.0
40
4.61880215351699
210
0.0
220
0.0
230
1.0
100
AcDbArc
50
330.000000000002
51
30.0000000000012
0
ARC
5
A9
330
22
100
AcDbEntity
8
\U+865A\U+7EBF\U+5C42
62
256
6
ByLayer
370
-1
48
1.0
60
0
100
AcDbCircle
39
0.0
10
-3.38119784648188
20
-929.071796769725
30
0.0
40
4.61880215351703
210
0.0
220
0.0
230
1.0
100
AcDbArc
50
149.999999999999
51
209.999999999998
0
LINE
5
AA
330
22
100
AcDbEntity
8
\U+865A\U+7EBF\U+5C42
62
256
6
ByLayer
370
-1
48
1.0
60
0
100
AcDbLine
10
-0.618802153516299
20
-926.762395692965
30
0.0
11
-7.38119784648188
21
-926.762395692965
31
0.0
39
0.0
210
0.0
220
0.0
230
1.0
0
ARC
5
AB
330
22
100
AcDbEntity
8
\U+865A\U+7EBF\U+5C42
62
256
6
ByLayer
370
-1
48
1.0
60
0
100
AcDbCircle
39
0.0
10
-4.6188021535163
20
-942.928203230275
30
0.0
40
4.61880215351701
210
0.0
220
0.0
230
1.0
100
AcDbArc
50
330.000000000003
51
30.0000000000038
0
ARC
5
AC
330
22
100
AcDbEntity
8
\U+865A\U+7EBF\U+5C42
62
256
6
ByLayer
370
-1
48
1.0
60
0
100
AcDbCircle
39
0.0
10
-3.38119784648188
20
-942.928203230275
30
0.0
40
4.61880215351701
210
0.0
220
0.0
230
1.0
100
AcDbArc
50
150.000000000006
51
210.000000000005
0
ARC
5
AD
330
22
100
AcDbEntity
8
\U+865A\U+7EBF\U+5C42
62
256
6
ByLayer
370
-1
48
1.0
60
0
100
AcDbCircle
39
0.0
10
9.54700538379439
20
-935.999999999999
30
0.0
40
17.5470053837925
210
0.0
220
0.0
230
1.0
100
AcDbArc
50
164.738519575143
51
195.261480424863
0
ARC
5
AE
330
22
100
AcDbEntity
8
\U+865A\U+7EBF\U+5C42
62
256
6
ByLayer
370
-1
48
1.0
60
0
100
AcDbCircle
39
0.0
10
-17.5470053837908
20
-936.0
30
0.0
40
17.5470053837925
210
0.0
220
0.0
230
1.0
100
AcDbArc
50
344.738519575138
51
15.2614804248578
0
LINE
5
AF
330
22
100
AcDbEntity
8
\U+865A\U+7EBF\U+5C42
62
256
6
ByLayer
370
-1
48
1.0
60
0
100
AcDbLine
10
-0.618802153516299
20
-931.381197846483
30
0.0
11
-7.38119784648188
21
-931.381197846483
31
0.0
39
0.0
210
0.0
220
0.0
230
1.0
0
LINE
5
B0
330
22
100
AcDbEntity
8
\U+865A\U+7EBF\U+5C42
62
256
6
ByLayer
370
-1
48
1.0
60
0
100
AcDbLine
10
-0.618802153516299
20
-940.618802153517
30
0.0
11
-7.38119784648188
21
-940.618802153517
31
0.0
39
0.0
210
0.0
220
0.0
230
1.0
0
LINE
5
B1
330
22
100
AcDbEntity
8
\U+865A\U+7EBF\U+5C42
62
256
6
ByLayer
370
-1
48
1.0
60
0
100
AcDbLine
10
0.000000000001819
20
-929.071796769725
30
0.0
11
0.000000000001819
21
-942.928203230275
31
0.0
39
0.0
210
0.0
220
0.0
230
1.0
0
LINE
5
B2
330
22
100
AcDbEntity
8
\U+865A\U+7EBF\U+5C42
62
256
6
ByLayer
370
-1
48
1.0
60
0
100
AcDbLine
10
-7.99999999999818
20
-929.071796769725
30
0.0
11
-7.99999999999818
21
-942.928203230275
31
0.0
39
0.0
210
0.0
220
0.0
230
1.0
0
LINE
5
B3
330
22
100
AcDbEntity
8
\U+865A\U+7EBF\U+5C42
62
256
6
ByLayer
370
-1
48
1.0
60
0
100
AcDbLine
10
-0.618802153516299
20
-945.237604307034
30
0.0
11
-7.38119784648188
21
-945.237604307034
31
0.0
39
0.0
210
0.0
220
0.0
230
1.0
0
LINE
5
B4
330
22
100
AcDbEntity
8
\U+865A\U+7EBF\U+5C42
62
256
6
ByLayer
370
-1
48
1.0
60
0
100
AcDbLine
10
2.50000000000182
20
-1186.0
30
0.0
11
-10.4999999999982
21
-1186.0
31
0.0
39
0.0
210
0.0
220
0.0
230
1.0
0
ARC
5
B5
330
22
100
AcDbEntity
8
\U+865A\U+7EBF\U+5C42
62
256
6
ByLayer
370
-1
48
1.0
60
0
100
AcDbCircle
39
0.0
10
-4.6188021535163
20
-1179.07179676972
30
0.0
40
4.61880215351699
210
0.0
220
0.0
230
1.0
100
AcDbArc
50
330.000000000001
51
30.0000000000019
0
ARC
5
B6
330
22
100
AcDbEntity
8
\U+865A\U+7EBF\U+5C42
62
256
6
ByLayer
370
-1
48
1.0
60
0
100
AcDbCircle
39
0.0
10
-3.38119784648188
20
-1179.07179676972
30
0.0
40
4.61880215351704
210
0.0
220
0.0
230
1.0
100
AcDbArc
50
149.999999999999
51
210.000000000001
0
LINE
5
B7
330
22
100
AcDbEntity
8
\U+865A\U+7EBF\U+5C42
62
256
6
ByLayer
370
-1
48
1.0
60
0
100
AcDbLine
10
-0.618802153516299
20
-1176.76239569296
30
0.0
11
-7.38119784648188
21
-1176.76239569297
31
0.0
39
0.0
210
0.0
220
0.0
230
1.0
0
ARC
5
B8
330
22
100
AcDbEntity
8
\U+865A\U+7EBF\U+5C42
62
256
6
ByLayer
370
-1
48
1.0
60
0
100
AcDbCircle
39
0.0
10
-4.6188021535163
20
-1192.92820323027
30
0.0
40
4.61880215351702
210
0.0
220
0.0
230
1.0
100
AcDbArc
50
329.999999999996
51
29.9999999999978
0
ARC
5
B9
330
22
100
AcDbEntity
8
\U+865A\U+7EBF\U+5C42
62
256
6
ByLayer
370
-1
48
1.0
60
0
100
AcDbCircle
39
0.0
10
-3.38119784648188
20
-1192.92820323027
30
0.0
40
4.61880215351701
210
0.0
220
0.0
230
1.0
100
AcDbArc
50
150.000000000005
51
210.000000000005
0
ARC
5
BA
330
22
100
AcDbEntity
8
\U+865A\U+7EBF\U+5C42
62
256
6
ByLayer
370
-1
48
1.0
60
0
100
AcDbCircle
39
0.0
10
9.54700538379439
20
-1186.0
30
0.0
40
17.5470053837925
210
0.0
220
0.0
230
1.0
100
AcDbArc
50
164.738519575146
51
195.261480424866
0
ARC
5
BB
330
22
100
AcDbEntity
8
\U+865A\U+7EBF\U+5C42
62
256
6
ByLayer
370
-1
48
1.0
60
0
100
AcDbCircle
39
0.0
10
-17.5470053837908
20
-1186.0
30
0.0
40
17.5470053837925
210
0.0
220
0.0
230
1.0
100
AcDbArc
50
344.738519575139
51
15.2614804248593
0
LINE
5
BC
330
22
100
AcDbEntity
8
\U+865A\U+7EBF\U+5C42
62
256
6
ByLayer
370
-1
48
1.0
60
0
100
AcDbLine
10
-0.618802153516299
20
-1181.38119784648
30
0.0
11
-7.38119784648188
21
-1181.38119784648
31
0.0
39
0.0
210
0.0
220
0.0
230
1.0
0
LINE
5
BD
330
22
100
AcDbEntity
8
\U+865A\U+7EBF\U+5C42
62
256
6
ByLayer
370
-1
48
1.0
60
0
100
AcDbLine
10
-0.618802153516299
20
-1190.61880215352
30
0.0
11
-7.38119784648188
21
-1190.61880215352
31
0.0
39
0.0
210
0.0
220
0.0
230
1.0
0
LINE
5
BE
330
22
100
AcDbEntity
8
\U+865A\U+7EBF\U+5C42
62
256
6
ByLayer
370
-1
48
1.0
60
0
100
AcDbLine
10
0.000000000001819
20
-1179.07179676972
30
0.0
11
0.000000000001819
21
-1192.92820323027
31
0.0
39
0.0
210
0.0
220
0.0
230
1.0
0
LINE
5
BF
330
22
100
AcDbEntity
8
\U+865A\U+7EBF\U+5C42
62
256
6
ByLayer
370
-1
48
1.0
60
0
100
AcDbLine
10
-7.99999999999818
20
-1179.07179676972
30
0.0
11
-7.99999999999818
21
-1192.92820323027
31
0.0
39
0.0
210
0.0
220
0.0
230
1.0
0
LINE
5
C0
330
22
100
AcDbEntity
8
\U+865A\U+7EBF\U+5C42
62
256
6
ByLayer
370
-1
48
1.0
60
0
100
AcDbLine
10
-0.618802153516299
20
-1195.23760430703
30
0.0
11
-7.38119784648188
21
-1195.23760430703
31
0.0
39
0.0
210
0.0
220
0.0
230
1.0
0
LINE
5
C1
330
22
100
AcDbEntity
8
\U+865A\U+7EBF\U+5C42
62
256
6
ByLayer
370
-1
48
1.0
60
0
100
AcDbLine
10
2.50000000000182
20
-1913.0
30
0.0
11
-10.4999999999982
21
-1913.0
31
0.0
39
0.0
210
0.0
220
0.0
230
1.0
0
ARC
5
C2
330
22
100
AcDbEntity
8
\U+865A\U+7EBF\U+5C42
62
256
6
ByLayer
370
-1
48
1.0
60
0
100
AcDbCircle
39
0.0
10
-4.6188021535163
20
-1906.07179676972
30
0.0
40
4.618802153517
210
0.0
220
0.0
230
1.0
100
AcDbArc
50
330.000000000001
51
30.0000000000042
0
ARC
5
C3
330
22
100
AcDbEntity
8
\U+865A\U+7EBF\U+5C42
62
256
6
ByLayer
370
-1
48
1.0
60
0
100
AcDbCircle
39
0.0
10
-3.38119784648188
20
-1906.07179676972
30
0.0
40
4.61880215351697
210
0.0
220
0.0
230
1.0
100
AcDbArc
50
150.000000000005
51
210.000000000006
0
LINE
5
C4
330
22
100
AcDbEntity
8
\U+865A\U+7EBF\U+5C42
62
256
6
ByLayer
370
-1
48
1.0
60
0
100
AcDbLine
10
-0.618802153516299
20
-1903.76239569296
30
0.0
11
-7.38119784648188
21
-1903.76239569297
31
0.0
39
0.0
210
0.0
220
0.0
230
1.0
0
ARC
5
C5
330
22
100
AcDbEntity
8
\U+865A\U+7EBF\U+5C42
62
256
6
ByLayer
370
-1
48
1.0
60
0
100
AcDbCircle
39
0.0
10
-4.6188021535163
20
-1919.92820323027
30
0.0
40
4.61880215351702
210
0.0
220
0.0
230
1.0
100
AcDbArc
50
329.999999999996
51
29.9999999999954
0
ARC
5
C6
330
22
100
AcDbEntity
8
\U+865A\U+7EBF\U+5C42
62
256
6
ByLayer
370
-1
48
1.0
60
0
100
AcDbCircle
39
0.0
10
-3.38119784648188
20
-1919.92820323027
30
0.0
40
4.61880215351697
210
0.0
220
0.0
230
1.0
100
AcDbArc
50
150.000000000005
51
210.000000000006
0
ARC
5
C7
330
22
100
AcDbEntity
8
\U+865A\U+7EBF\U+5C42
62
256
6
ByLayer
370
-1
48
1.0
60
0
100
AcDbCircle
39
0.0
10
9.54700538379439
20
-1913.0
30
0.0
40
17.5470053837925
210
0.0
220
0.0
230
1.0
100
AcDbArc
50
164.738519575146
51
195.261480424866
0
ARC
5
C8
330
22
100
AcDbEntity
8
\U+865A\U+7EBF\U+5C42
62
256
6
ByLayer
370
-1
48
1.0
60
0
100
AcDbCircle
39
0.0
10
-17.5470053837908
20
-1913.0
30
0.0
40
17.5470053837925
210
0.0
220
0.0
230
1.0
100
AcDbArc
50
344.738519575141
51
15.2614804248607
0
LINE
5
C9
330
22
100
AcDbEntity
8
\U+865A\U+7EBF\U+5C42
62
256
6
ByLayer
370
-1
48
1.0
60
0
100
AcDbLine
10
-0.618802153516299
20
-1908.38119784648
30
0.0
11
-7.38119784648188
21
-1908.38119784649
31
0.0
39
0.0
210
0.0
220
0.0
230
1.0
0
LINE
5
CA
330
22
100
AcDbEntity
8
\U+865A\U+7EBF\U+5C42
62
256
6
ByLayer
370
-1
48
1.0
60
0
100
AcDbLine
10
-0.618802153516299
20
-1917.61880215352
30
0.0
11
-7.38119784648188
21
-1917.61880215352
31
0.0
39
0.0
210
0.0
220
0.0
230
1.0
0
LINE
5
CB
330
22
100
AcDbEntity
8
\U+865A\U+7EBF\U+5C42
62
256
6
ByLayer
370
-1
48
1.0
60
0
100
AcDbLine
10
0.000000000001819
20
-1906.07179676972
30
0.0
11
0.000000000001819
21
-1919.92820323027
31
0.0
39
0.0
210
0.0
220
0.0
230
1.0
0
LINE
5
CC
330
22
100
AcDbEntity
8
\U+865A\U+7EBF\U+5C42
62
256
6
ByLayer
370
-1
48
1.0
60
0
100
AcDbLine
10
-7.99999999999818
20
-1906.07179676972
30
0.0
11
-7.99999999999818
21
-1919.92820323028
31
0.0
39
0.0
210
0.0
220
0.0
230
1.0
0
LINE
5
CD
330
22
100
AcDbEntity
8
\U+865A\U+7EBF\U+5C42
62
256
6
ByLayer
370
-1
48
1.0
60
0
100
AcDbLine
10
-0.618802153516299
20
-1922.23760430703
30
0.0
11
-7.38119784648188
21
-1922.23760430703
31
0.0
39
0.0
210
0.0
220
0.0
230
1.0
0
LINE
5
CE
330
22
100
AcDbEntity
8
\U+865A\U+7EBF\U+5C42
62
256
6
ByLayer
370
-1
48
1.0
60
0
100
AcDbLine
10
2.50000000000364
20
-2163.0
30
0.0
11
-10.4999999999964
21
-2163.0
31
0.0
39
0.0
210
0.0
220
0.0
230
1.0
0
ARC
5
CF
330
22
100
AcDbEntity
8
\U+865A\U+7EBF\U+5C42
62
256
6
ByLayer
370
-1
48
1.0
60
0
100
AcDbCircle
39
0.0
10
-4.61880215351448
20
-2156.07179676973
30
0.0
40
4.618802153517
210
0.0
220
0.0
230
1.0
100
AcDbArc
50
330.000000000006
51
30.0000000000008
0
ARC
5
D0
330
22
100
AcDbEntity
8
\U+865A\U+7EBF\U+5C42
62
256
6
ByLayer
370
-1
48
1.0
60
0
100
AcDbCircle
39
0.0
10
-3.38119784648006
20
-2156.07179676973
30
0.0
40
4.61880215351697
210
0.0
220
0.0
230
1.0
100
AcDbArc
50
149.999999999998
51
210.000000000001
0
LINE
5
D1
330
22
100
AcDbEntity
8
\U+865A\U+7EBF\U+5C42
62
256
6
ByLayer
370
-1
48
1.0
60
0
100
AcDbLine
10
-0.61880215351448
20
-2153.76239569297
30
0.0
11
-7.38119784648006
21
-2153.76239569297
31
0.0
39
0.0
210
0.0
220
0.0
230
1.0
0
ARC
5
D2
330
22
100
AcDbEntity
8
\U+865A\U+7EBF\U+5C42
62
256
6
ByLayer
370
-1
48
1.0
60
0
100
AcDbCircle
39
0.0
10
-4.61880215351448
20
-2169.92820323027
30
0.0
40
4.61880215351698
210
0.0
220
0.0
230
1.0
100
AcDbArc
50
329.999999999999
51
29.9999999999943
0
ARC
5
D3
330
22
100
AcDbEntity
8
\U+865A\U+7EBF\U+5C42
62
256
6
ByLayer
370
-1
48
1.0
60
0
100
AcDbCircle
39
0.0
10
-3.38119784648006
20
-2169.92820323027
30
0.0
40
4.61880215351699
210
0.0
220
0.0
230
1.0
100
AcDbArc
50
150.000000000006
51
210.000000000001
0
ARC
5
D4
330
22
100
AcDbEntity
8
\U+865A\U+7EBF\U+5C42
62
256
6
ByLayer
370
-1
48
1.0
60
0
100
AcDbCircle
39
0.0
10
9.5470053837962
20
-2163.0
30
0.0
40
17.5470053837925
210
0.0
220
0.0
230
1.0
100
AcDbArc
50
164.738519575145
51
195.261480424865
0
ARC
5
D5
330
22
100
AcDbEntity
8
\U+865A\U+7EBF\U+5C42
62
256
6
ByLayer
370
-1
48
1.0
60
0
100
AcDbCircle
39
0.0
10
-17.5470053837889
20
-2163.0
30
0.0
40
17.5470053837925
210
0.0
220
0.0
230
1.0
100
AcDbArc
50
344.738519575142
51
15.2614804248623
0
LINE
5
D6
330
22
100
AcDbEntity
8
\U+865A\U+7EBF\U+5C42
62
256
6
ByLayer
370
-1
48
1.0
60
0
100
AcDbLine
10
-0.61880215351448
20
-2158.38119784648
30
0.0
11
-7.38119784648006
21
-2158.38119784649
31
0.0
39
0.0
210
0.0
220
0.0
230
1.0
0
LINE
5
D7
330
22
100
AcDbEntity
8
\U+865A\U+7EBF\U+5C42
62
256
6
ByLayer
370
-1
48
1.0
60
0
100
AcDbLine
10
-0.61880215351448
20
-2167.61880215352
30
0.0
11
-7.38119784648006
21
-2167.61880215352
31
0.0
39
0.0
210
0.0
220
0.0
230
1.0
0
LINE
5
D8
330
22
100
AcDbEntity
8
\U+865A\U+7EBF\U+5C42
62
256
6
ByLayer
370
-1
48
1.0
60
0
100
AcDbLine
10
0.000000000003638
20
-2156.07179676973
30
0.0
11
0.000000000003638
21
-2169.92820323027
31
0.0
39
0.0
210
0.0
220
0.0
230
1.0
0
LINE
5
D9
330
22
100
AcDbEntity
8
\U+865A\U+7EBF\U+5C42
62
256
6
ByLayer
370
-1
48
1.0
60
0
100
AcDbLine
10
-7.99999999999636
20
-2156.07179676973
30
0.0
11
-7.99999999999636
21
-2169.92820323028
31
0.0
39
0.0
210
0.0
220
0.0
230
1.0
0
LINE
5
DA
330
22
100
AcDbEntity
8
\U+865A\U+7EBF\U+5C42
62
256
6
ByLayer
370
-1
48
1.0
60
0
100
AcDbLine
10
-0.61880215351448
20
-2172.23760430703
30
0.0
11
-7.38119784648006
21
-2172.23760430703
31
0.0
39
0.0
210
0.0
220
0.0
230
1.0
0
LINE
5
DB
330
22
100
AcDbEntity
8
\U+865A\U+7EBF\U+5C42
62
256
6
ByLayer
370
-1
48
1.0
60
0
100
AcDbLine
10
2.50000000000546
20
-2413.0
30
0.0
11
-10.4999999999945
21
-2413.0
31
0.0
39
0.0
210
0.0
220
0.0
230
1.0
0
ARC
5
DC
330
22
100
AcDbEntity
8
\U+865A\U+7EBF\U+5C42
62
256
6
ByLayer
370
-1
48
1.0
60
0
100
AcDbCircle
39
0.0
10
-4.61880215351266
20
-2406.07179676973
30
0.0
40
4.61880215351697
210
0.0
220
0.0
230
1.0
100
AcDbArc
50
330.000000000001
51
29.9999999999966
0
ARC
5
DD
330
22
100
AcDbEntity
8
\U+865A\U+7EBF\U+5C42
62
256
6
ByLayer
370
-1
48
1.0
60
0
100
AcDbCircle
39
0.0
10
-3.38119784647824
20
-2406.07179676973
30
0.0
40
4.61880215351703
210
0.0
220
0.0
230
1.0
100
AcDbArc
50
150.000000000006
51
210.000000000007
0
LINE
5
DE
330
22
100
AcDbEntity
8
\U+865A\U+7EBF\U+5C42
62
256
6
ByLayer
370
-1
48
1.0
60
0
100
AcDbLine
10
-0.618802153512661
20
-2403.76239569297
30
0.0
11
-7.38119784647824
21
-2403.76239569297
31
0.0
39
0.0
210
0.0
220
0.0
230
1.0
0
ARC
5
DF
330
22
100
AcDbEntity
8
\U+865A\U+7EBF\U+5C42
62
256
6
ByLayer
370
-1
48
1.0
60
0
100
AcDbCircle
39
0.0
10
-4.61880215351266
20
-2419.92820323028
30
0.0
40
4.61880215351709
210
0.0
220
0.0
230
1.0
100
AcDbArc
50
329.999999999993
51
29.9999999999951
0
ARC
5
E0
330
22
100
AcDbEntity
8
\U+865A\U+7EBF\U+5C42
62
256
6
ByLayer
370
-1
48
1.0
60
0
100
AcDbCircle
39
0.0
10
-3.38119784647824
20
-2419.92820323028
30
0.0
40
4.61880215351704
210
0.0
220
0.0
230
1.0
100
AcDbArc
50
149.999999999993
51
209.999999999998
0
ARC
5
E1
330
22
100
AcDbEntity
8
\U+865A\U+7EBF\U+5C42
62
256
6
ByLayer
370
-1
48
1.0
60
0
100
AcDbCircle
39
0.0
10
9.54700538379802
20
-2413.0
30
0.0
40
17.5470053837925
210
0.0
220
0.0
230
1.0
100
AcDbArc
50
164.738519575147
51
195.261480424867
0
ARC
5
E2
330
22
100
AcDbEntity
8
\U+865A\U+7EBF\U+5C42
62
256
6
ByLayer
370
-1
48
1.0
60
0
100
AcDbCircle
39
0.0
10
-17.5470053837871
20
-2413.0
30
0.0
40
17.5470053837925
210
0.0
220
0.0
230
1.0
100
AcDbArc
50
344.738519575145
51
15.2614804248654
0
LINE
5
E3
330
22
100
AcDbEntity
8
\U+865A\U+7EBF\U+5C42
62
256
6
ByLayer
370
-1
48
1.0
60
0
100
AcDbLine
10
-0.618802153512661
20
-2408.38119784648
30
0.0
11
-7.38119784647824
21
-2408.38119784649
31
0.0
39
0.0
210
0.0
220
0.0
230
1.0
0
LINE
5
E4
330
22
100
AcDbEntity
8
\U+865A\U+7EBF\U+5C42
62
256
6
ByLayer
370
-1
48
1.0
60
0
100
AcDbLine
10
-0.618802153512661
20
-2417.61880215352
30
0.0
11
-7.38119784647824
21
-2417.61880215352
31
0.0
39
0.0
210
0.0
220
0.0
230
1.0
0
LINE
5
E5
330
22
100
AcDbEntity
8
\U+865A\U+7EBF\U+5C42
62
256
6
ByLayer
370
-1
48
1.0
60
0
100
AcDbLine
10
0.000000000005457
20
-2406.07179676973
30
0.0
11
0.000000000005457
21
-2419.92820323028
31
0.0
39
0.0
210
0.0
220
0.0
230
1.0
0
LINE
5
E6
330
22
100
AcDbEntity
8
\U+865A\U+7EBF\U+5C42
62
256
6
ByLayer
370
-1
48
1.0
60
0
100
AcDbLine
10
-7.99999999999454
20
-2406.07179676973
30
0.0
11
-7.99999999999454
21
-2419.92820323028
31
0.0
39
0.0
210
0.0
220
0.0
230
1.0
0
LINE
5
E7
330
22
100
AcDbEntity
8
\U+865A\U+7EBF\U+5C42
62
256
6
ByLayer
370
-1
48
1.0
60
0
100
AcDbLine
10
-0.618802153512661
20
-2422.23760430703
30
0.0
11
-7.38119784647824
21
-2422.23760430703
31
0.0
39
0.0
210
0.0
220
0.0
230
1.0
0
LINE
5
E8
330
22
100
AcDbEntity
8
\U+865A\U+7EBF\U+5C42
62
256
6
ByLayer
370
-1
48
1.0
60
0
100
AcDbLine
10
2.49999999999818
20
-322.500000000001
30
0.0
11
-10.5000000000018
21
-322.500000000001
31
0.0
39
0.0
210
0.0
220
0.0
230
1.0
0
ARC
5
E9
330
22
100
AcDbEntity
8
\U+865A\U+7EBF\U+5C42
62
256
6
ByLayer
370
-1
48
1.0
60
0
100
AcDbCircle
39
0.0
10
-4.61880215351994
20
-315.571796769726
30
0.0
40
4.618802153517
210
0.0
220
0.0
230
1.0
100
AcDbArc
50
330.000000000005
51
30.0000000000047
0
ARC
5
EA
330
22
100
AcDbEntity
8
\U+865A\U+7EBF\U+5C42
62
256
6
ByLayer
370
-1
48
1.0
60
0
100
AcDbCircle
39
0.0
10
-3.38119784648552
20
-315.571796769726
30
0.0
40
4.61880215351701
210
0.0
220
0.0
230
1.0
100
AcDbArc
50
150.000000000006
51
210.000000000006
0
LINE
5
EB
330
22
100
AcDbEntity
8
\U+865A\U+7EBF\U+5C42
62
256
6
ByLayer
370
-1
48
1.0
60
0
100
AcDbLine
10
-0.618802153519937
20
-313.262395692967
30
0.0
11
-7.38119784648552
21
-313.262395692967
31
0.0
39
0.0
210
0.0
220
0.0
230
1.0
0
ARC
5
EC
330
22
100
AcDbEntity
8
\U+865A\U+7EBF\U+5C42
62
256
6
ByLayer
370
-1
48
1.0
60
0
100
AcDbCircle
39
0.0
10
-4.61880215351994
20
-329.428203230277
30
0.0
40
4.61880215351701
210
0.0
220
0.0
230
1.0
100
AcDbArc
50
330.000000000004
51
30.0000000000044
0
ARC
5
ED
330
22
100
AcDbEntity
8
\U+865A\U+7EBF\U+5C42
62
256
6
ByLayer
370
-1
48
1.0
60
0
100
AcDbCircle
39
0.0
10
-3.38119784648552
20
-329.428203230277
30
0.0
40
4.61880215351701
210
0.0
220
0.0
230
1.0
100
AcDbArc
50
150.000000000003
51
210.000000000004
0
ARC
5
EE
330
22
100
AcDbEntity
8
\U+865A\U+7EBF\U+5C42
62
256
6
ByLayer
370
-1
48
1.0
60
0
100
AcDbCircle
39
0.0
10
9.54700538379075
20
-322.500000000001
30
0.0
40
17.5470053837925
210
0.0
220
0.0
230
1.0
100
AcDbArc
50
164.738519575144
51
195.261480424864
0
ARC
5
EF
330
22
100
AcDbEntity
8
\U+865A\U+7EBF\U+5C42
62
256
6
ByLayer
370
-1
48
1.0
60
0
100
AcDbCircle
39
0.0
10
-17.5470053837944
20
-322.500000000001
30
0.0
40
17.5470053837925
210
0.0
220
0.0
230
1.0
100
AcDbArc
50
344.738519575136
51
15.2614804248567
0
LINE
5
F0
330
22
100
AcDbEntity
8
\U+865A\U+7EBF\U+5C42
62
256
6
ByLayer
370
-1
48
1.0
60
0
100
AcDbLine
10
-0.618802153519937
20
-317.881197846485
30
0.0
11
-7.38119784648552
21
-317.881197846485
31
0.0
39
0.0
210
0.0
220
0.0
230
1.0
0
LINE
5
F1
330
22
100
AcDbEntity
8
\U+865A\U+7EBF\U+5C42
62
256
6
ByLayer
370
-1
48
1.0
60
0
100
AcDbLine
10
-0.618802153519937
20
-327.118802153518
30
0.0
11
-7.38119784648552
21
-327.118802153518
31
0.0
39
0.0
210
0.0
220
0.0
230
1.0
0
LINE
5
F2
330
22
100
AcDbEntity
8
\U+865A\U+7EBF\U+5C42
62
256
6
ByLayer
370
-1
48
1.0
60
0
100
AcDbLine
10
-0.000000000001819
20
-315.571796769726
30
0.0
11
-0.000000000001819
21
-329.428203230277
31
0.0
39
0.0
210
0.0
220
0.0
230
1.0
0
LINE
5
F3
330
22
100
AcDbEntity
8
\U+865A\U+7EBF\U+5C42
62
256
6
ByLayer
370
-1
48
1.0
60
0
100
AcDbLine
10
-8.00000000000182
20
-315.571796769726
30
0.0
11
-8.00000000000182
21
-329.428203230277
31
0.0
39
0.0
210
0.0
220
0.0
230
1.0
0
LINE
5
F4
330
22
100
AcDbEntity
8
\U+865A\U+7EBF\U+5C42
62
256
6
ByLayer
370
-1
48
1.0
60
0
100
AcDbLine
10
-0.618802153519937
20
-331.737604307035
30
0.0
11
-7.38119784648552
21
-331.737604307035
31
0.0
39
0.0
210
0.0
220
0.0
230
1.0
0
LINE
5
F5
330
22
100
AcDbEntity
8
\U+865A\U+7EBF\U+5C42
62
256
6
ByLayer
370
-1
48
1.0
60
0
100
AcDbLine
10
-48.8393537815227
20
-936.0
30
0.0
11
98.8393537815336
21
-935.999999999999
31
0.0
39
0.0
210
0.0
220
0.0
230
1.0
0
LINE
5
F6
330
22
100
AcDbEntity
8
\U+865A\U+7EBF\U+5C42
62
256
6
ByLayer
370
-1
48
1.0
60
0
100
AcDbLine
10
0.000000000007276
20
-2435.5
30
0.0
11
0.000000000003638
21
-1881.25
31
0.0
39
0.0
210
0.0
220
0.0
230
1.0
0
LINE
5
F7
330
22
100
AcDbEntity
8
\U+865A\U+7EBF\U+5C42
62
256
6
ByLayer
370
-1
48
1.0
60
0
100
AcDbLine
10
5.00000000000728
20
-1881.25
30
0.0
11
5.00000000000728
21
-2460.5
31
0.0
39
0.0
210
0.0
220
0.0
230
1.0
0
LINE
5
F8
330
22
100
AcDbEntity
8
\U+865A\U+7EBF\U+5C42
62
256
6
ByLayer
370
-1
48
1.0
60
0
100
AcDbLine
10
50.0000000000036
20
-1881.25
30
0.0
11
50.0000000000073
21
-2485.5
31
0.0
39
0.0
210
0.0
220
0.0
230
1.0
0
LINE
5
F9
330
22
100
AcDbEntity
8
\U+865A\U+7EBF\U+5C42
62
256
6
ByLayer
370
-1
48
1.0
60
0
100
AcDbLine
10
0.000000000003638
20
-1267.75000000001
30
0.0
11
0.000000000001819
21
-654.250000000003
31
0.0
39
0.0
210
0.0
220
0.0
230
1.0
0
LINE
5
FA
330
22
100
AcDbEntity
8
\U+865A\U+7EBF\U+5C42
62
256
6
ByLayer
370
-1
48
1.0
60
0
100
AcDbLine
10
0.000000000001819
20
-654.250000000003
30
0.0
11
0.0
21
-50.0
31
0.0
39
0.0
210
0.0
220
0.0
230
1.0
0
LINE
5
FB
330
22
100
AcDbEntity
8
\U+865A\U+7EBF\U+5C42
62
256
6
ByLayer
370
-1
48
1.0
60
0
100
AcDbLine
10
5.00000000000364
20
-47.0
30
0.0
11
5.00000000000364
21
-654.249999999999
31
0.0
39
0.0
210
0.0
220
0.0
230
1.0
0
LINE
5
FC
330
22
100
AcDbEntity
8
\U+865A\U+7EBF\U+5C42
62
256
6
ByLayer
370
-1
48
1.0
60
0
100
AcDbLine
10
5.00000000000364
20
-654.249999999999
30
0.0
11
5.00000000000728
21
-1267.75
31
0.0
39
0.0
210
0.0
220
0.0
230
1.0
0
LINE
5
FD
330
22
100
AcDbEntity
8
\U+865A\U+7EBF\U+5C42
62
256
6
ByLayer
370
-1
48
1.0
60
0
100
AcDbLine
10
50.0
20
0.0
30
0.0
11
50.0000000000036
21
-654.250000000003
31
0.0
39
0.0
210
0.0
220
0.0
230
1.0
0
LINE
5
FE
330
22
100
AcDbEntity
8
\U+865A\U+7EBF\U+5C42
62
256
6
ByLayer
370
-1
48
1.0
60
0
100
AcDbLine
10
50.0000000000036
20
-654.250000000003
30
0.0
11
50.0000000000036
21
-1267.75
31
0.0
39
0.0
210
0.0
220
0.0
230
1.0
0
LINE
5
FF
330
22
100
AcDbEntity
8
\U+865A\U+7EBF\U+5C42
62
256
6
ByLayer
370
-1
48
1.0
60
0
100
AcDbLine
10
5.00000000000728
20
-1831.25
30
0.0
11
-44.9999999999927
21
-1831.25
31
0.0
39
0.0
210
0.0
220
0.0
230
1.0
0
LINE
5
100
330
22
100
AcDbEntity
8
\U+865A\U+7EBF\U+5C42
62
256
6
ByLayer
370
-1
48
1.0
60
0
100
AcDbLine
10
-44.9999999999927
20
-1831.25
30
0.0
11
-44.9999999999927
21
-1833.25
31
0.0
39
0.0
210
0.0
220
0.0
230
1.0
0
ARC
5
101
330
22
100
AcDbEntity
8
\U+865A\U+7EBF\U+5C42
62
256
6
ByLayer
370
-1
48
1.0
60
0
100
AcDbCircle
39
0.0
10
-41.9999999999927
20
-1833.25
30
0.0
40
3.0
210
0.0
220
0.0
230
1.0
100
AcDbArc
50
179.999999999996
51
270.0
0
ARC
5
102
330
22
100
AcDbEntity
8
\U+865A\U+7EBF\U+5C42
62
256
6
ByLayer
370
-1
48
1.0
60
0
100
AcDbCircle
39
0.0
10
-5.99999999999272
20
-1842.25
30
0.0
40
6.0
210
0.0
220
0.0
230
1.0
100
AcDbArc
50
359.999999999998
51
90.0
0
LINE
5
103
330
22
100
AcDbEntity
8
\U+865A\U+7EBF\U+5C42
62
256
6
ByLayer
370
-1
48
1.0
60
0
100
AcDbLine
10
-41.9999999999927
20
-1836.25
30
0.0
11
-5.99999999999272
21
-1836.25
31
0.0
39
0.0
210
0.0
220
0.0
230
1.0
0
LINE
5
104
330
22
100
AcDbEntity
8
\U+865A\U+7EBF\U+5C42
62
256
6
ByLayer
370
-1
48
1.0
60
0
100
AcDbLine
10
0.000000000007276
20
-1842.25
30
0.0
11
0.000000000007276
21
-1878.25
31
0.0
39
0.0
210
0.0
220
0.0
230
1.0
0
LINE
5
105
330
22
100
AcDbEntity
8
\U+865A\U+7EBF\U+5C42
62
256
6
ByLayer
370
-1
48
1.0
60
0
100
AcDbLine
10
5.00000000000728
20
-1831.25
30
0.0
11
5.00000000000728
21
-1881.25
31
0.0
39
0.0
210
0.0
220
0.0
230
1.0
0
LINE
5
106
330
22
100
AcDbEntity
8
\U+865A\U+7EBF\U+5C42
62
256
6
ByLayer
370
-1
48
1.0
60
0
100
AcDbLine
10
2.50000000000182
20
-1856.25
30
0.0
11
-10.4999999999982
21
-1856.25
31
0.0
39
0.0
210
0.0
220
0.0
230
1.0
0
ARC
5
107
330
22
100
AcDbEntity
8
\U+865A\U+7EBF\U+5C42
62
256
6
ByLayer
370
-1
48
1.0
60
0
100
AcDbCircle
39
0.0
10
-4.6188021535163
20
-1849.32179676973
30
0.0
40
4.61880215351703
210
0.0
220
0.0
230
1.0
100
AcDbArc
50
329.999999999999
51
29.9999999999995
0
ARC
5
108
330
22
100
AcDbEntity
8
\U+865A\U+7EBF\U+5C42
62
256
6
ByLayer
370
-1
48
1.0
60
0
100
AcDbCircle
39
0.0
10
-3.38119784648188
20
-1849.32179676973
30
0.0
40
4.61880215351697
210
0.0
220
0.0
230
1.0
100
AcDbArc
50
150.000000000001
51
210.000000000002
0
LINE
5
109
330
22
100
AcDbEntity
8
\U+865A\U+7EBF\U+5C42
62
256
6
ByLayer
370
-1
48
1.0
60
0
100
AcDbLine
10
-0.618802153516299
20
-1847.01239569296
30
0.0
11
-7.38119784648188
21
-1847.01239569296
31
0.0
39
0.0
210
0.0
220
0.0
230
1.0
0
ARC
5
10A
330
22
100
AcDbEntity
8
\U+865A\U+7EBF\U+5C42
62
256
6
ByLayer
370
-1
48
1.0
60
0
100
AcDbCircle
39
0.0
10
-4.6188021535163
20
-1863.17820323027
30
0.0
40
4.618802153517
210
0.0
220
0.0
230
1.0
100
AcDbArc
50
329.999999999997
51
29.9999999999967
0
ARC
5
10B
330
22
100
AcDbEntity
8
\U+865A\U+7EBF\U+5C42
62
256
6
ByLayer
370
-1
48
1.0
60
0
100
AcDbCircle
39
0.0
10
-3.38119784648188
20
-1863.17820323027
30
0.0
40
4.61880215351703
210
0.0
220
0.0
230
1.0
100
AcDbArc
50
150.000000000017
51
210.000000000016
0
ARC
5
10C
330
22
100
AcDbEntity
8
\U+865A\U+7EBF\U+5C42
62
256
6
ByLayer
370
-1
48
1.0
60
0
100
AcDbCircle
39
0.0
10
9.54700538379439
20
-1856.25
30
0.0
40
17.5470053837925
210
0.0
220
0.0
230
1.0
100
AcDbArc
50
164.738519575145
51
195.261480424865
0
ARC
5
10D
330
22
100
AcDbEntity
8
\U+865A\U+7EBF\U+5C42
62
256
6
ByLayer
370
-1
48
1.0
60
0
100
AcDbCircle
39
0.0
10
-17.5470053837908
20
-1856.25
30
0.0
40
17.5470053837925
210
0.0
220
0.0
230
1.0
100
AcDbArc
50
344.738519575142
51
15.2614804248632
0
LINE
5
10E
330
22
100
AcDbEntity
8
\U+865A\U+7EBF\U+5C42
62
256
6
ByLayer
370
-1
48
1.0
60
0
100
AcDbLine
10
-0.618802153516299
20
-1851.63119784648
30
0.0
11
-7.38119784648188
21
-1851.63119784648
31
0.0
39
0.0
210
0.0
220
0.0
230
1.0
0
LINE
5
10F
330
22
100
AcDbEntity
8
\U+865A\U+7EBF\U+5C42
62
256
6
ByLayer
370
-1
48
1.0
60
0
100
AcDbLine
10
-0.618802153516299
20
-1860.86880215352
30
0.0
11
-7.38119784648188
21
-1860.86880215352
31
0.0
39
0.0
210
0.0
220
0.0
230
1.0
0
LINE
5
110
330
22
100
AcDbEntity
8
\U+865A\U+7EBF\U+5C42
62
256
6
ByLayer
370
-1
48
1.0
60
0
100
AcDbLine
10
0.000000000001819
20
-1849.32179676973
30
0.0
11
0.000000000001819
21
-1863.17820323027
31
0.0
39
0.0
210
0.0
220
0.0
230
1.0
0
LINE
5
111
330
22
100
AcDbEntity
8
\U+865A\U+7EBF\U+5C42
62
256
6
ByLayer
370
-1
48
1.0
60
0
100
AcDbLine
10
-7.99999999999818
20
-1849.32179676973
30
0.0
11
-7.99999999999818
21
-1863.17820323028
31
0.0
39
0.0
210
0.0
220
0.0
230
1.0
0
LINE
5
112
330
22
100
AcDbEntity
8
\U+865A\U+7EBF\U+5C42
62
256
6
ByLayer
370
-1
48
1.0
60
0
100
AcDbLine
10
-0.618802153516299
20
-1865.48760430703
30
0.0
11
-7.38119784648188
21
-1865.48760430703
31
0.0
39
0.0
210
0.0
220
0.0
230
1.0
0
LINE
5
113
330
22
100
AcDbEntity
8
\U+865A\U+7EBF\U+5C42
62
256
6
ByLayer
370
-1
48
1.0
60
0
100
AcDbLine
10
2.5
20
-1299.5
30
0.0
11
-10.5
21
-1299.5
31
0.0
39
0.0
210
0.0
220
0.0
230
1.0
0
ARC
5
114
330
22
100
AcDbEntity
8
\U+865A\U+7EBF\U+5C42
62
256
6
ByLayer
370
-1
48
1.0
60
0
100
AcDbCircle
39
0.0
10
-4.61880215351812
20
-1292.57179676972
30
0.0
40
4.618802153517
210
0.0
220
0.0
230
1.0
100
AcDbArc
50
330.000000000004
51
30.0000000000051
0
ARC
5
115
330
22
100
AcDbEntity
8
\U+865A\U+7EBF\U+5C42
62
256
6
ByLayer
370
-1
48
1.0
60
0
100
AcDbCircle
39
0.0
10
-3.3811978464837
20
-1292.57179676972
30
0.0
40
4.61880215351701
210
0.0
220
0.0
230
1.0
100
AcDbArc
50
150.000000000002
51
210.000000000001
0
LINE
5
116
330
22
100
AcDbEntity
8
\U+865A\U+7EBF\U+5C42
62
256
6
ByLayer
370
-1
48
1.0
60
0
100
AcDbLine
10
-0.618802153518118
20
-1290.26239569296
30
0.0
11
-7.3811978464837
21
-1290.26239569296
31
0.0
39
0.0
210
0.0
220
0.0
230
1.0
0
ARC
5
117
330
22
100
AcDbEntity
8
\U+865A\U+7EBF\U+5C42
62
256
6
ByLayer
370
-1
48
1.0
60
0
100
AcDbCircle
39
0.0
10
-4.61880215351812
20
-1306.42820323027
30
0.0
40
4.618802153517
210
0.0
220
0.0
230
1.0
100
AcDbArc
50
330.000000000002
51
30.0000000000059
0
ARC
5
118
330
22
100
AcDbEntity
8
\U+865A\U+7EBF\U+5C42
62
256
6
ByLayer
370
-1
48
1.0
60
0
100
AcDbCircle
39
0.0
10
-3.3811978464837
20
-1306.42820323027
30
0.0
40
4.618802153517
210
0.0
220
0.0
230
1.0
100
AcDbArc
50
150.000000000006
51
210.000000000005
0
ARC
5
119
330
22
100
AcDbEntity
8
\U+865A\U+7EBF\U+5C42
62
256
6
ByLayer
370
-1
48
1.0
60
0
100
AcDbCircle
39
0.0
10
9.54700538379257
20
-1299.5
30
0.0
40
17.5470053837925
210
0.0
220
0.0
230
1.0
100
AcDbArc
50
164.738519575142
51
195.261480424863
0
ARC
5
11A
330
22
100
AcDbEntity
8
\U+865A\U+7EBF\U+5C42
62
256
6
ByLayer
370
-1
48
1.0
60
0
100
AcDbCircle
39
0.0
10
-17.5470053837926
20
-1299.5
30
0.0
40
17.5470053837925
210
0.0
220
0.0
230
1.0
100
AcDbArc
50
344.738519575139
51
15.2614804248593
0
LINE
5
11B
330
22
100
AcDbEntity
8
\U+865A\U+7EBF\U+5C42
62
256
6
ByLayer
370
-1
48
1.0
60
0
100
AcDbLine
10
-0.618802153518118
20
-1294.88119784648
30
0.0
11
-7.3811978464837
21
-1294.88119784648
31
0.0
39
0.0
210
0.0
220
0.0
230
1.0
0
LINE
5
11C
330
22
100
AcDbEntity
8
\U+865A\U+7EBF\U+5C42
62
256
6
ByLayer
370
-1
48
1.0
60
0
100
AcDbLine
10
-0.618802153518118
20
-1304.11880215352
30
0.0
11
-7.3811978464837
21
-1304.11880215352
31
0.0
39
0.0
210
0.0
220
0.0
230
1.0
0
LINE
5
11D
330
22
100
AcDbEntity
8
\U+865A\U+7EBF\U+5C42
62
256
6
ByLayer
370
-1
48
1.0
60
0
100
AcDbLine
10
0.0
20
-1292.57179676972
30
0.0
11
0.0
21
-1306.42820323027
31
0.0
39
0.0
210
0.0
220
0.0
230
1.0
0
LINE
5
11E
330
22
100
AcDbEntity
8
\U+865A\U+7EBF\U+5C42
62
256
6
ByLayer
370
-1
48
1.0
60
0
100
AcDbLine
10
-8.0
20
-1292.57179676972
30
0.0
11
-8.0
21
-1306.42820323027
31
0.0
39
0.0
210
0.0
220
0.0
230
1.0
0
LINE
5
11F
330
22
100
AcDbEntity
8
\U+865A\U+7EBF\U+5C42
62
256
6
ByLayer
370
-1
48
1.0
60
0
100
AcDbLine
10
-0.618802153518118
20
-1308.73760430703
30
0.0
11
-7.3811978464837
21
-1308.73760430703
31
0.0
39
0.0
210
0.0
220
0.0
230
1.0
0
LINE
5
120
330
22
100
AcDbEntity
8
\U+865A\U+7EBF\U+5C42
62
256
6
ByLayer
370
-1
48
1.0
60
0
100
AcDbLine
10
2.50000000000182
20
-1549.5
30
0.0
11
-10.4999999999982
21
-1549.5
31
0.0
39
0.0
210
0.0
220
0.0
230
1.0
0
ARC
5
121
330
22
100
AcDbEntity
8
\U+865A\U+7EBF\U+5C42
62
256
6
ByLayer
370
-1
48
1.0
60
0
100
AcDbCircle
39
0.0
10
-4.6188021535163
20
-1542.57179676973
30
0.0
40
4.61880215351702
210
0.0
220
0.0
230
1.0
100
AcDbArc
50
329.999999999999
51
29.9999999999978
0
ARC
5
122
330
22
100
AcDbEntity
8
\U+865A\U+7EBF\U+5C42
62
256
6
ByLayer
370
-1
48
1.0
60
0
100
AcDbCircle
39
0.0
10
-3.38119784648188
20
-1542.57179676973
30
0.0
40
4.61880215351701
210
0.0
220
0.0
230
1.0
100
AcDbArc
50
150.000000000002
51
210.000000000001
0
LINE
5
123
330
22
100
AcDbEntity
8
\U+865A\U+7EBF\U+5C42
62
256
6
ByLayer
370
-1
48
1.0
60
0
100
AcDbLine
10
-0.618802153516299
20
-1540.26239569296
30
0.0
11
-7.38119784648188
21
-1540.26239569296
31
0.0
39
0.0
210
0.0
220
0.0
230
1.0
0
ARC
5
124
330
22
100
AcDbEntity
8
\U+865A\U+7EBF\U+5C42
62
256
6
ByLayer
370
-1
48
1.0
60
0
100
AcDbCircle
39
0.0
10
-4.6188021535163
20
-1556.42820323027
30
0.0
40
4.61880215351705
210
0.0
220
0.0
230
1.0
100
AcDbArc
50
329.999999999996
51
29.9999999999989
0
ARC
5
125
330
22
100
AcDbEntity
8
\U+865A\U+7EBF\U+5C42
62
256
6
ByLayer
370
-1
48
1.0
60
0
100
AcDbCircle
39
0.0
10
-3.38119784648188
20
-1556.42820323027
30
0.0
40
4.61880215351697
210
0.0
220
0.0
230
1.0
100
AcDbArc
50
150.000000000014
51
210.000000000014
0
ARC
5
126
330
22
100
AcDbEntity
8
\U+865A\U+7EBF\U+5C42
62
256
6
ByLayer
370
-1
48
1.0
60
0
100
AcDbCircle
39
0.0
10
9.54700538379439
20
-1549.5
30
0.0
40
17.5470053837925
210
0.0
220
0.0
230
1.0
100
AcDbArc
50
164.738519575143
51
195.261480424864
0
ARC
5
127
330
22
100
AcDbEntity
8
\U+865A\U+7EBF\U+5C42
62
256
6
ByLayer
370
-1
48
1.0
60
0
100
AcDbCircle
39
0.0
10
-17.5470053837908
20
-1549.5
30
0.0
40
17.5470053837925
210
0.0
220
0.0
230
1.0
100
AcDbArc
50
344.738519575137
51
15.2614804248579
0
LINE
5
128
330
22
100
AcDbEntity
8
\U+865A\U+7EBF\U+5C42
62
256
6
ByLayer
370
-1
48
1.0
60
0
100
AcDbLine
10
-0.618802153516299
20
-1544.88119784648
30
0.0
11
-7.38119784648188
21
-1544.88119784648
31
0.0
39
0.0
210
0.0
220
0.0
230
1.0
0
LINE
5
129
330
22
100
AcDbEntity
8
\U+865A\U+7EBF\U+5C42
62
256
6
ByLayer
370
-1
48
1.0
60
0
100
AcDbLine
10
-0.618802153516299
20
-1554.11880215352
30
0.0
11
-7.38119784648188
21
-1554.11880215352
31
0.0
39
0.0
210
0.0
220
0.0
230
1.0
0
LINE
5
12A
330
22
100
AcDbEntity
8
\U+865A\U+7EBF\U+5C42
62
256
6
ByLayer
370
-1
48
1.0
60
0
100
AcDbLine
10
0.000000000001819
20
-1542.57179676973
30
0.0
11
0.000000000001819
21
-1556.42820323027
31
0.0
39
0.0
210
0.0
220
0.0
230
1.0
0
LINE
5
12B
330
22
100
AcDbEntity
8
\U+865A\U+7EBF\U+5C42
62
256
6
ByLayer
370
-1
48
1.0
60
0
100
AcDbLine
10
-7.99999999999818
20
-1542.57179676973
30
0.0
11
-7.99999999999818
21
-1556.42820323027
31
0.0
39
0.0
210
0.0
220
0.0
230
1.0
0
LINE
5
12C
330
22
100
AcDbEntity
8
\U+865A\U+7EBF\U+5C42
62
256
6
ByLayer
370
-1
48
1.0
60
0
100
AcDbLine
10
-0.618802153516299
20
-1558.73760430703
30
0.0
11
-7.38119784648188
21
-1558.73760430703
31
0.0
39
0.0
210
0.0
220
0.0
230
1.0
0
LINE
5
12D
330
22
100
AcDbEntity
8
\U+865A\U+7EBF\U+5C42
62
256
6
ByLayer
370
-1
48
1.0
60
0
100
AcDbLine
10
2.50000000000182
20
-1799.5
30
0.0
11
-10.4999999999982
21
-1799.5
31
0.0
39
0.0
210
0.0
220
0.0
230
1.0
0
ARC
5
12E
330
22
100
AcDbEntity
8
\U+865A\U+7EBF\U+5C42
62
256
6
ByLayer
370
-1
48
1.0
60
0
100
AcDbCircle
39
0.0
10
-4.6188021535163
20
-1792.57179676972
30
0.0
40
4.61880215351696
210
0.0
220
0.0
230
1.0
100
AcDbArc
50
330.000000000007
51
30.0000000000074
0
ARC
5
12F
330
22
100
AcDbEntity
8
\U+865A\U+7EBF\U+5C42
62
256
6
ByLayer
370
-1
48
1.0
60
0
100
AcDbCircle
39
0.0
10
-3.38119784648188
20
-1792.57179676972
30
0.0
40
4.61880215351703
210
0.0
220
0.0
230
1.0
100
AcDbArc
50
150.000000000001
51
210.000000000004
0
LINE
5
130
330
22
100
AcDbEntity
8
\U+865A\U+7EBF\U+5C42
62
256
6
ByLayer
370
-1
48
1.0
60
0
100
AcDbLine
10
-0.618802153516299
20
-1790.26239569296
30
0.0
11
-7.38119784648188
21
-1790.26239569296
31
0.0
39
0.0
210
0.0
220
0.0
230
1.0
0
ARC
5
131
330
22
100
AcDbEntity
8
\U+865A\U+7EBF\U+5C42
62
256
6
ByLayer
370
-1
48
1.0
60
0
100
AcDbCircle
39
0.0
10
-4.6188021535163
20
-1806.42820323027
30
0.0
40
4.61880215351697
210
0.0
220
0.0
230
1.0
100
AcDbArc
50
330.000000000004
51
30.0000000000069
0
ARC
5
132
330
22
100
AcDbEntity
8
\U+865A\U+7EBF\U+5C42
62
256
6
ByLayer
370
-1
48
1.0
60
0
100
AcDbCircle
39
0.0
10
-3.38119784648188
20
-1806.42820323027
30
0.0
40
4.61880215351703
210
0.0
220
0.0
230
1.0
100
AcDbArc
50
149.999999999999
51
209.999999999999
0
ARC
5
133
330
22
100
AcDbEntity
8
\U+865A\U+7EBF\U+5C42
62
256
6
ByLayer
370
-1
48
1.0
60
0
100
AcDbCircle
39
0.0
10
9.54700538379439
20
-1799.5
30
0.0
40
17.5470053837925
210
0.0
220
0.0
230
1.0
100
AcDbArc
50
164.738519575146
51
195.261480424866
0
ARC
5
134
330
22
100
AcDbEntity
8
\U+865A\U+7EBF\U+5C42
62
256
6
ByLayer
370
-1
48
1.0
60
0
100
AcDbCircle
39
0.0
10
-17.5470053837908
20
-1799.5
30
0.0
40
17.5470053837925
210
0.0
220
0.0
230
1.0
100
AcDbArc
50
344.738519575141
51
15.2614804248608
0
LINE
5
135
330
22
100
AcDbEntity
8
\U+865A\U+7EBF\U+5C42
62
256
6
ByLayer
370
-1
48
1.0
60
0
100
AcDbLine
10
-0.618802153516299
20
-1794.88119784648
30
0.0
11
-7.38119784648188
21
-1794.88119784648
31
0.0
39
0.0
210
0.0
220
0.0
230
1.0
0
LINE
5
136
330
22
100
AcDbEntity
8
\U+865A\U+7EBF\U+5C42
62
256
6
ByLayer
370
-1
48
1.0
60
0
100
AcDbLine
10
-0.618802153516299
20
-1804.11880215351
30
0.0
11
-7.38119784648188
21
-1804.11880215352
31
0.0
39
0.0
210
0.0
220
0.0
230
1.0
0
LINE
5
137
330
22
100
AcDbEntity
8
\U+865A\U+7EBF\U+5C42
62
256
6
ByLayer
370
-1
48
1.0
60
0
100
AcDbLine
10
0.000000000001819
20
-1792.57179676972
30
0.0
11
0.000000000001819
21
-1806.42820323027
31
0.0
39
0.0
210
0.0
220
0.0
230
1.0
0
LINE
5
138
330
22
100
AcDbEntity
8
\U+865A\U+7EBF\U+5C42
62
256
6
ByLayer
370
-1
48
1.0
60
0
100
AcDbLine
10
-7.99999999999818
20
-1792.57179676972
30
0.0
11
-7.99999999999818
21
-1806.42820323027
31
0.0
39
0.0
210
0.0
220
0.0
230
1.0
0
LINE
5
139
330
22
100
AcDbEntity
8
\U+865A\U+7EBF\U+5C42
62
256
6
ByLayer
370
-1
48
1.0
60
0
100
AcDbLine
10
-0.618802153516299
20
-1808.73760430703
30
0.0
11
-7.38119784648188
21
-1808.73760430703
31
0.0
39
0.0
210
0.0
220
0.0
230
1.0
0
LINE
5
13A
330
22
100
AcDbEntity
8
\U+865A\U+7EBF\U+5C42
62
256
6
ByLayer
370
-1
48
1.0
60
0
100
AcDbLine
10
-48.8393537815227
20
-1549.5
30
0.0
11
98.8393537815336
21
-1549.5
31
0.0
39
0.0
210
0.0
220
0.0
230
1.0
0
LINE
5
13B
330
22
100
AcDbEntity
8
\U+865A\U+7EBF\U+5C42
62
256
6
ByLayer
370
-1
48
1.0
60
0
100
AcDbLine
10
0.000000000003638
20
-1881.25
30
0.0
11
0.000000000001819
21
-1267.75
31
0.0
39
0.0
210
0.0
220
0.0
230
1.0
0
LINE
5
13C
330
22
100
AcDbEntity
8
\U+865A\U+7EBF\U+5C42
62
256
6
ByLayer
370
-1
48
1.0
60
0
100
AcDbLine
10
5.00000000000364
20
-1267.75
30
0.0
11
5.00000000000728
21
-1881.25
31
0.0
39
0.0
210
0.0
220
0.0
230
1.0
0
LINE
5
13D
330
22
100
AcDbEntity
8
\U+865A\U+7EBF\U+5C42
62
256
6
ByLayer
370
-1
48
1.0
60
0
100
AcDbLine
10
50.0000000000036
20
-1267.75
30
0.0
11
50.0000000000036
21
-1881.25
31
0.0
39
0.0
210
0.0
220
0.0
230
1.0
0
ENDBLK
5
23
330
22
100
AcDbEntity
8
0
100
AcDbBlockEnd
0
BLOCK
5
140
330
13E
100
AcDbEntity
67
1
8
0
100
AcDbBlockBegin
2
*Paper_Space
70
0
10
0.0
20
0.0
30
0.0
3
*Paper_Space
4

0
ENDBLK
5
13F
330
13E
100
AcDbEntity
8
0
100
AcDbBlockEnd
0
ENDSEC
0
SECTION
2
ENTITIES
0
VIEWPORT
5
142
330
13E
100
AcDbEntity
67
1
8
0
62
256
6
ByLayer
370
-1
48
1.0
60
0
100
AcDbViewport
10
0.0
20
0.0
30
0.0
40
297.0
41
210.0
68
1
69
1
12
50.0
22
100.0
13
0.0
23
0.0
14
10.0
24
10.0
15
10.0
25
10.0
16
0.0
26
0.0
36
1.0
17
0.0
27
0.0
37
0.0
42
50.0
43
0.0
44
0.0
45
250.0
50
0.0
51
0.0
72
1000
90
819232
110
0.0
120
0.0
130
0.0
111
1.0
121
0.0
131
0.0
112
0.0
122
1.0
132
0.0
0
ENDSEC
0
SECTION
2
OBJECTS
0
DICTIONARY
5
147
330
0
100
AcDbDictionary
280
1
281
1
3
ACAD_GROUP
350
12
3
ACAD_LAYOUT
350
141
3
ACAD_DGNDEFINITIONS
350
F
3
ACAD_DWFDEFINITIONS
350
10
3
ACAD_PDFDEFINITIONS
350
11
3
ACAD_MLINESTYLE
350
B
3
ACAD_IMAGE_DICT
350
E
3
ACAD_IMAGE_VARS
350
21
0
DICTIONARY
5
12
330
147
100
AcDbDictionary
280
1
281
1
0
DICTIONARY
5
141
330
147
100
AcDbDictionary
280
1
281
1
3
Model
350
20
3
Layout1
350
143
0
DICTIONARY
5
F
330
147
100
AcDbDictionary
280
1
281
1
0
DICTIONARY
5
10
330
147
100
AcDbDictionary
280
1
281
1
0
DICTIONARY
5
11
330
147
100
AcDbDictionary
280
1
281
1
0
DICTIONARY
5
B
330
147
100
AcDbDictionary
280
1
281
1
3
Standard
350
1B
0
DICTIONARY
5
E
330
147
100
AcDbDictionary
280
1
281
1
0
DICTIONARY
5
6
330
5
100
AcDbDictionary
280
1
281
1
3
ACAD_LAYERSTATES
360
148
0
DICTIONARY
5
148
330
6
100
AcDbDictionary
280
1
281
1
0
LAYOUT
5
20
330
141
100
AcDbPlotSettings
1

2
none_device
4
ISO_A4_(210.00_x_297.00_MM)
6

40
7.5
41
20.0
42
7.5
43
20.0
44
210.0
45
297.0
46
0.0
47
0.0
48
0.0
49
0.0
140
0.0
141
0.0
142
1.0
143
1.0
70
11952
72
1
73
1
74
1
7

75
0
76
0
77
2
78
300
147
1.0
148
0.0
149
0.0
100
AcDbLayout
1
Model
71
0
10
-20.0
20
-7.5
11
277.0
21
202.5
12
0.0
22
0.0
32
0.0
14
25.7
24
19.5
34
0.0
15
231.3
25
175.5
35
0.0
146
0.0
13
0.0
23
0.0
33
0.0
16
1.0
26
0.0
36
0.0
17
0.0
27
1.0
37
0.0
76
0
330
1C
0
LAYOUT
5
143
330
141
100
AcDbPlotSettings
1

2
none_device
4
ISO_A4_(210.00_x_297.00_MM)
6

40
7.5
41
20.0
42
7.5
43
20.0
44
210.0
45
297.0
46
0.0
47
0.0
48
0.0
49
0.0
140
0.0
141
0.0
142
1.0
143
1.0
70
688
72
1
73
1
74
1
7

75
0
76
0
77
2
78
300
147
1.0
148
0.0
149
0.0
100
AcDbLayout
1
Layout1
71
1
10
-20.0
20
-7.5
11
277.0
21
202.5
12
0.0
22
0.0
32
0.0
14
25.7
24
19.5
34
0.0
15
231.3
25
175.5
35
0.0
146
0.0
13
0.0
23
0.0
33
0.0
16
1.0
26
0.0
36
0.0
17
0.0
27
1.0
37
0.0
76
0
330
13E
0
MLINESTYLE
5
1B
330
B
100
AcDbMlineStyle
2
Standard
70
0
3

62
256
51
90.0
52
90.0
71
2
49
0.5
62
256
6
ByLayer
49
-0.5
62
256
6
ByLayer
0
RASTERVARIABLES
5
21
330
E
100
AcDbRasterVariables
90
0
70
1
71
1
72
0
0
ENDSEC
0
EOF
