999
DXF file generated by netDxf https://github.com/haplokuon/netDxf, Copyright(C) 2009-2020 Daniel Carvajal, Licensed under LGPL
0
SECTION
2
HEADER
9
$ACADVER
1
AC1015
9
$DWGCODEPAGE
3
ANSI_1252
9
$HANDSEED
5
B6
9
$ANGBASE
50
0.0
9
$ANGDIR
70
0
9
$ATTMODE
70
1
9
$AUNITS
70
0
9
$AUPREC
70
0
9
$CECOLOR
62
256
9
$CELTSCALE
40
1.0
9
$CELTYPE
6
ByLayer
9
$CELWEIGHT
370
-1
9
$CLAYER
8
0
9
$CMLJUST
70
0
9
$CMLSCALE
40
20.0
9
$CMLSTYLE
2
Standard
9
$DIMSTYLE
2
Standard
9
$TEXTSIZE
40
2.5
9
$TEXTSTYLE
7
Standard
9
$LUNITS
70
2
9
$LUPREC
70
4
9
$MIRRTEXT
70
0
9
$EXTNAMES
290
1
9
$INSBASE
10
0.0
20
0.0
30
0.0
9
$INSUNITS
70
0
9
$LTSCALE
40
1.0
9
$LWDISPLAY
290
0
9
$PDMODE
70
0
9
$PDSIZE
40
0.0
9
$PLINEGEN
70
0
9
$PSLTSCALE
70
1
9
$TDCREATE
40
2459821.45292779
9
$TDUCREATE
40
2459821.11959446
9
$TDUPDATE
40
2459821.45292779
9
$TDUUPDATE
40
2459821.11959446
9
$TDINDWG
40
0.0
9
$UCSORG
10
0.0
20
0.0
30
0.0
9
$UCSXDIR
10
1.0
20
0.0
30
0.0
9
$UCSYDIR
10
0.0
20
1.0
30
0.0
9
$DIMADEC
70
0
9
$DIMALT
70
0
9
$DIMALTD
70
2
9
$DIMALTF
40
25.4
9
$DIMALTRND
40
0.0
9
$DIMALTTD
70
2
9
$DIMALTTZ
70
0
9
$DIMALTU
70
2
9
$DIMALTZ
70
0
9
$DIMAPOST
1

9
$DIMATFIT
70
3
9
$DIMAUNIT
70
0
9
$DIMASZ
40
0.18
9
$DIMAZIN
70
0
9
$DIMSAH
70
0
9
$DIMBLK
1

9
$DIMLDRBLK
1

9
$DIMCEN
40
0.09
9
$DIMCLRD
70
0
9
$DIMCLRE
70
0
9
$DIMCLRT
70
0
9
$DIMDEC
70
4
9
$DIMDLE
40
0.0
9
$DIMDLI
40
0.38
9
$DIMDSEP
70
46
9
$DIMEXE
40
0.18
9
$DIMEXO
40
0.0625
9
$DIMFXLON
70
0
9
$DIMFXL
40
1.0
9
$DIMGAP
40
0.09
9
$DIMJUST
70
0
9
$DIMLFAC
40
1.0
9
$DIMLUNIT
70
2
9
$DIMLWD
70
-2
9
$DIMLWE
70
-2
9
$DIMPOST
1

9
$DIMRND
40
0.0
9
$DIMSCALE
40
1.0
9
$DIMSD1
70
0
9
$DIMSD2
70
0
9
$DIMSE1
70
0
9
$DIMSE2
70
0
9
$DIMSOXD
70
0
9
$DIMTAD
70
0
9
$DIMTDEC
70
4
9
$DIMTFAC
40
1.0
9
$DIMTIH
70
0
9
$DIMTIX
70
0
9
$DIMTM
40
0.0
9
$DIMTMOVE
70
0
9
$DIMTOFL
70
0
9
$DIMTOH
70
0
9
$DIMTOL
70
0
9
$DIMLIM
70
0
9
$DIMTOLJ
70
1
9
$DIMTP
40
0.0
9
$DIMTXT
40
0.18
9
$DIMTXTDIRECTION
70
0
9
$DIMTZIN
70
0
9
$DIMZIN
70
0
9
$DIMFRAC
70
0
9
$DIMLTYPE
6
ByBlock
9
$DIMLTEX1
6
ByBlock
9
$DIMLTEX2
6
ByBlock
0
ENDSEC
0
SECTION
2
CLASSES
0
CLASS
1
RASTERVARIABLES
2
AcDbRasterVariables
3
ISM
90
0
280
0
281
0
0
ENDSEC
0
SECTION
2
TABLES
0
TABLE
2
APPID
5
4
330
0
100
AcDbSymbolTable
70
5
0
APPID
5
19
330
4
100
AcDbSymbolTableRecord
100
AcDbRegAppTableRecord
2
ACAD
70
0
0
APPID
5
27
330
4
100
AcDbSymbolTableRecord
100
AcDbRegAppTableRecord
2
RAK
70
0
0
APPID
5
B1
330
4
100
AcDbSymbolTableRecord
100
AcDbRegAppTableRecord
2
AcCmTransparency
70
0
0
APPID
5
B2
330
4
100
AcDbSymbolTableRecord
100
AcDbRegAppTableRecord
2
GradientColor1ACI
70
0
0
APPID
5
B3
330
4
100
AcDbSymbolTableRecord
100
AcDbRegAppTableRecord
2
GradientColor2ACI
70
0
0
ENDTAB
0
TABLE
2
VPORT
5
1
330
0
100
AcDbSymbolTable
70
1
0
VPORT
5
2
330
1
100
AcDbSymbolTableRecord
100
AcDbViewportTableRecord
2
*Active
70
0
10
0.0
20
0.0
11
1.0
21
1.0
12
0.0
22
0.0
13
0.0
23
0.0
14
0.5
24
0.5
15
10.0
25
10.0
16
0.0
26
0.0
36
1.0
17
0.0
27
0.0
37
0.0
40
10.0
41
1.0
75
0
76
1
0
ENDTAB
0
TABLE
2
LTYPE
5
7
330
0
100
AcDbSymbolTable
70
3
0
LTYPE
5
15
330
7
100
AcDbSymbolTableRecord
100
AcDbLinetypeTableRecord
2
Continuous
70
0
3
Solid line
72
65
73
0
40
0.0
0
LTYPE
5
16
330
7
100
AcDbSymbolTableRecord
100
AcDbLinetypeTableRecord
2
ByLayer
70
0
3

72
65
73
0
40
0.0
0
LTYPE
5
17
330
7
100
AcDbSymbolTableRecord
100
AcDbLinetypeTableRecord
2
ByBlock
70
0
3

72
65
73
0
40
0.0
0
ENDTAB
0
TABLE
2
LAYER
5
5
102
{ACAD_XDICTIONARY
360
6
102
}
330
0
100
AcDbSymbolTable
70
2
0
LAYER
5
14
330
5
100
AcDbSymbolTableRecord
100
AcDbLayerTableRecord
2
0
70
0
62
7
6
Continuous
290
1
370
-3
390
0
0
LAYER
5
26
330
5
100
AcDbSymbolTableRecord
100
AcDbLayerTableRecord
2
\U+8BBE\U+5907\U+5B9A\U+4F4D\U+53CA\U+516C\U+7528\U+8D44\U+6599
70
0
62
2
6
Continuous
290
1
370
-3
390
0
1001
RAK
1000
{ACET-LAYISO
1070
0
1070
2
1000
CONTINUOUS
1071
-3
1071
1
1005
1D4F
1000
ACET-LAYISO}
0
ENDTAB
0
TABLE
2
STYLE
5
8
330
0
100
AcDbSymbolTable
70
1
0
STYLE
5
18
330
8
100
AcDbSymbolTableRecord
100
AcDbTextStyleTableRecord
2
Standard
3
simplex.shx
70
0
71
0
40
0.0
41
1.0
42
0.0
50
0.0
0
ENDTAB
0
TABLE
2
DIMSTYLE
5
A
330
0
100
AcDbSymbolTable
70
1
100
AcDbDimStyleTable
0
DIMSTYLE
105
1A
330
A
100
AcDbSymbolTableRecord
100
AcDbDimStyleTableRecord
2
Standard
3

4

40
1.0
41
0.18
42
0.0625
43
0.38
44
0.18
45
0.0
46
0.0
47
0.0
48
0.0
49
1.0
70
0
71
0
72
0
73
0
74
0
75
0
76
0
77
0
78
0
79
0
140
0.18
141
0.09
143
25.4
144
1.0
146
1.0
147
0.09
148
0.0
170
0
171
2
172
0
174
0
175
0
176
0
177
0
178
0
179
0
271
4
272
4
273
2
274
2
275
0
276
0
277
2
278
46
279
0
280
0
281
0
282
0
283
1
284
0
285
0
286
0
289
3
290
0
294
0
340
18
173
0
345
17
346
17
347
17
371
-2
372
-2
0
ENDTAB
0
TABLE
2
VIEW
5
3
330
0
100
AcDbSymbolTable
70
0
0
ENDTAB
0
TABLE
2
UCS
5
C
330
0
100
AcDbSymbolTable
70
0
0
ENDTAB
0
TABLE
2
BLOCK_RECORD
5
D
330
0
100
AcDbSymbolTable
70
3
0
BLOCK_RECORD
5
1C
330
D
100
AcDbSymbolTableRecord
100
AcDbBlockTableRecord
2
*Model_Space
340
20
0
BLOCK_RECORD
5
22
330
D
100
AcDbSymbolTableRecord
100
AcDbBlockTableRecord
2
\U+73ED\U+7EC4\U+539F\U+5730-12\U+4EBA
340
0
70
0
280
1
281
0
1001
ACAD
1000
DesignCenter Data
1002
{
1070
1
1070
0
1002
}
0
BLOCK_RECORD
5
AB
330
D
100
AcDbSymbolTableRecord
100
AcDbBlockTableRecord
2
*Paper_Space
340
B0
0
ENDTAB
0
ENDSEC
0
SECTION
2
BLOCKS
0
BLOCK
5
1E
330
1C
100
AcDbEntity
67
0
8
0
100
AcDbBlockBegin
2
*Model_Space
70
0
10
0.0
20
0.0
30
0.0
3
*Model_Space
4

0
ENDBLK
5
1D
330
1C
100
AcDbEntity
8
0
100
AcDbBlockEnd
0
BLOCK
5
24
330
22
100
AcDbEntity
8
0
100
AcDbBlockBegin
2
\U+73ED\U+7EC4\U+539F\U+5730-12\U+4EBA
70
0
10
0.0
20
0.0
30
0.0
3
\U+73ED\U+7EC4\U+539F\U+5730-12\U+4EBA
4

0
LINE
5
25
330
22
100
AcDbEntity
8
\U+8BBE\U+5907\U+5B9A\U+4F4D\U+53CA\U+516C\U+7528\U+8D44\U+6599
62
256
6
Continuous
370
-1
48
1.0
60
0
100
AcDbLine
10
4916.70736499631
20
-486.073771535186
30
-0.0000029999999242
11
4508.70736499631
21
-486.073771535186
31
-0.0000029999999242
39
0.0
210
0.0
220
0.0
230
1.0
0
ARC
5
28
330
22
100
AcDbEntity
8
\U+8BBE\U+5907\U+5B9A\U+4F4D\U+53CA\U+516C\U+7528\U+8D44\U+6599
62
256
6
Continuous
370
-1
48
1.0
60
0
100
AcDbCircle
39
0.0
10
4712.70736499631
20
344.926228464814
30
-0.0000029999999242
40
879.0
210
0.0
220
0.0
230
1.0
100
AcDbArc
50
256.580300012535
51
283.419699987465
0
LINE
5
29
330
22
100
AcDbEntity
8
\U+8BBE\U+5907\U+5B9A\U+4F4D\U+53CA\U+516C\U+7528\U+8D44\U+6599
62
256
6
Continuous
370
-1
48
1.0
60
0
100
AcDbLine
10
4916.70736499631
20
-558.073771535186
30
-0.0000029999999242
11
4508.70736499631
21
-558.073771535186
31
-0.0000029999999242
39
0.0
210
0.0
220
0.0
230
1.0
0
ARC
5
2A
330
22
100
AcDbEntity
8
\U+8BBE\U+5907\U+5B9A\U+4F4D\U+53CA\U+516C\U+7528\U+8D44\U+6599
62
256
6
Continuous
370
-1
48
1.0
60
0
100
AcDbCircle
39
0.0
10
4712.70736499631
20
-15.0737715351861
30
-0.0000029999999242
40
879.0
210
0.0
220
0.0
230
1.0
100
AcDbArc
50
256.580300012535
51
283.419699987465
0
LINE
5
2B
330
22
100
AcDbEntity
8
\U+8BBE\U+5907\U+5B9A\U+4F4D\U+53CA\U+516C\U+7528\U+8D44\U+6599
62
256
6
Continuous
370
-1
48
1.0
60
0
100
AcDbLine
10
4916.70736499631
20
-486.073771535186
30
-0.0000029999999242
11
4916.70736499631
21
-510.073771535186
31
-0.0000029999999242
39
0.0
210
0.0
220
0.0
230
1.0
0
LINE
5
2C
330
22
100
AcDbEntity
8
\U+8BBE\U+5907\U+5B9A\U+4F4D\U+53CA\U+516C\U+7528\U+8D44\U+6599
62
256
6
Continuous
370
-1
48
1.0
60
0
100
AcDbLine
10
4916.70736499631
20
-558.073771535186
30
-0.0000029999999242
11
4916.70736499631
21
-870.073771535186
31
-0.0000029999999242
39
0.0
210
0.0
220
0.0
230
1.0
0
LINE
5
2D
330
22
100
AcDbEntity
8
\U+8BBE\U+5907\U+5B9A\U+4F4D\U+53CA\U+516C\U+7528\U+8D44\U+6599
62
256
6
Continuous
370
-1
48
1.0
60
0
100
AcDbLine
10
4760.70736499631
20
-558.073771535186
30
-0.0000029999999242
11
4760.70736499631
21
-532.525771535118
31
-0.0000029999999242
39
0.0
210
0.0
220
0.0
230
1.0
0
LINE
5
2E
330
22
100
AcDbEntity
8
\U+8BBE\U+5907\U+5B9A\U+4F4D\U+53CA\U+516C\U+7528\U+8D44\U+6599
62
256
6
Continuous
370
-1
48
1.0
60
0
100
AcDbLine
10
4508.70736499631
20
-486.073771535186
30
-0.0000029999999242
11
4508.70736499631
21
-510.073771535186
31
-0.0000029999999242
39
0.0
210
0.0
220
0.0
230
1.0
0
LINE
5
2F
330
22
100
AcDbEntity
8
\U+8BBE\U+5907\U+5B9A\U+4F4D\U+53CA\U+516C\U+7528\U+8D44\U+6599
62
256
6
Continuous
370
-1
48
1.0
60
0
100
AcDbLine
10
4664.70736499631
20
-533.056171535281
30
-0.0000029999999242
11
4664.70736499631
21
-558.073771535186
31
-0.0000029999999242
39
0.0
210
0.0
220
0.0
230
1.0
0
LINE
5
30
330
22
100
AcDbEntity
8
\U+8BBE\U+5907\U+5B9A\U+4F4D\U+53CA\U+516C\U+7528\U+8D44\U+6599
62
256
6
Continuous
370
-1
48
1.0
60
0
100
AcDbLine
10
4508.70736499631
20
-558.073771535186
30
-0.0000029999999242
11
4508.70736499631
21
-870.073771535186
31
-0.0000029999999242
39
0.0
210
0.0
220
0.0
230
1.0
0
LINE
5
31
330
22
100
AcDbEntity
8
\U+8BBE\U+5907\U+5B9A\U+4F4D\U+53CA\U+516C\U+7528\U+8D44\U+6599
62
256
6
Continuous
370
-1
48
1.0
60
0
100
AcDbLine
10
4124.70736499631
20
-486.073771535186
30
-0.0000029999999242
11
3716.70736499631
21
-486.073771535186
31
-0.0000029999999242
39
0.0
210
0.0
220
0.0
230
1.0
0
ARC
5
32
330
22
100
AcDbEntity
8
\U+8BBE\U+5907\U+5B9A\U+4F4D\U+53CA\U+516C\U+7528\U+8D44\U+6599
62
256
6
Continuous
370
-1
48
1.0
60
0
100
AcDbCircle
39
0.0
10
3920.70736499631
20
344.926228464814
30
-0.0000029999999242
40
879.0
210
0.0
220
0.0
230
1.0
100
AcDbArc
50
256.580300012535
51
283.419699987465
0
LINE
5
33
330
22
100
AcDbEntity
8
\U+8BBE\U+5907\U+5B9A\U+4F4D\U+53CA\U+516C\U+7528\U+8D44\U+6599
62
256
6
Continuous
370
-1
48
1.0
60
0
100
AcDbLine
10
4124.70736499631
20
-558.073771535186
30
-0.0000029999999242
11
3716.70736499631
21
-558.073771535186
31
-0.0000029999999242
39
0.0
210
0.0
220
0.0
230
1.0
0
ARC
5
34
330
22
100
AcDbEntity
8
\U+8BBE\U+5907\U+5B9A\U+4F4D\U+53CA\U+516C\U+7528\U+8D44\U+6599
62
256
6
Continuous
370
-1
48
1.0
60
0
100
AcDbCircle
39
0.0
10
3920.70736499631
20
-15.0737715351861
30
-0.0000029999999242
40
879.0
210
0.0
220
0.0
230
1.0
100
AcDbArc
50
256.580300012535
51
283.419699987465
0
LINE
5
35
330
22
100
AcDbEntity
8
\U+8BBE\U+5907\U+5B9A\U+4F4D\U+53CA\U+516C\U+7528\U+8D44\U+6599
62
256
6
Continuous
370
-1
48
1.0
60
0
100
AcDbLine
10
4124.70736499631
20
-486.073771535186
30
-0.0000029999999242
11
4124.70736499631
21
-510.073771535186
31
-0.0000029999999242
39
0.0
210
0.0
220
0.0
230
1.0
0
LINE
5
36
330
22
100
AcDbEntity
8
\U+8BBE\U+5907\U+5B9A\U+4F4D\U+53CA\U+516C\U+7528\U+8D44\U+6599
62
256
6
Continuous
370
-1
48
1.0
60
0
100
AcDbLine
10
4124.70736499631
20
-558.073771535186
30
-0.0000029999999242
11
4124.70736499631
21
-870.073771535186
31
-0.0000029999999242
39
0.0
210
0.0
220
0.0
230
1.0
0
LINE
5
37
330
22
100
AcDbEntity
8
\U+8BBE\U+5907\U+5B9A\U+4F4D\U+53CA\U+516C\U+7528\U+8D44\U+6599
62
256
6
Continuous
370
-1
48
1.0
60
0
100
AcDbLine
10
3968.70736499631
20
-558.073771535186
30
-0.0000029999999242
11
3968.70736499631
21
-532.525771535118
31
-0.0000029999999242
39
0.0
210
0.0
220
0.0
230
1.0
0
LINE
5
38
330
22
100
AcDbEntity
8
\U+8BBE\U+5907\U+5B9A\U+4F4D\U+53CA\U+516C\U+7528\U+8D44\U+6599
62
256
6
Continuous
370
-1
48
1.0
60
0
100
AcDbLine
10
3716.70736499631
20
-486.073771535186
30
-0.0000029999999242
11
3716.70736499631
21
-510.073771535186
31
-0.0000029999999242
39
0.0
210
0.0
220
0.0
230
1.0
0
LINE
5
39
330
22
100
AcDbEntity
8
\U+8BBE\U+5907\U+5B9A\U+4F4D\U+53CA\U+516C\U+7528\U+8D44\U+6599
62
256
6
Continuous
370
-1
48
1.0
60
0
100
AcDbLine
10
3872.70736499631
20
-533.056171535281
30
-0.0000029999999242
11
3872.70736499631
21
-558.073771535186
31
-0.0000029999999242
39
0.0
210
0.0
220
0.0
230
1.0
0
LINE
5
3A
330
22
100
AcDbEntity
8
\U+8BBE\U+5907\U+5B9A\U+4F4D\U+53CA\U+516C\U+7528\U+8D44\U+6599
62
256
6
Continuous
370
-1
48
1.0
60
0
100
AcDbLine
10
3716.70736499631
20
-558.073771535186
30
-0.0000029999999242
11
3716.70736499631
21
-870.073771535186
31
-0.0000029999999242
39
0.0
210
0.0
220
0.0
230
1.0
0
LINE
5
3B
330
22
100
AcDbEntity
8
\U+8BBE\U+5907\U+5B9A\U+4F4D\U+53CA\U+516C\U+7528\U+8D44\U+6599
62
256
6
Continuous
370
-1
48
1.0
60
0
100
AcDbLine
10
3332.70736499631
20
-486.073771535186
30
-0.0000029999999242
11
2924.70736499631
21
-486.073771535186
31
-0.0000029999999242
39
0.0
210
0.0
220
0.0
230
1.0
0
ARC
5
3C
330
22
100
AcDbEntity
8
\U+8BBE\U+5907\U+5B9A\U+4F4D\U+53CA\U+516C\U+7528\U+8D44\U+6599
62
256
6
Continuous
370
-1
48
1.0
60
0
100
AcDbCircle
39
0.0
10
3128.70736499631
20
344.926228464814
30
-0.0000029999999242
40
879.0
210
0.0
220
0.0
230
1.0
100
AcDbArc
50
256.580300012535
51
283.419699987465
0
LINE
5
3D
330
22
100
AcDbEntity
8
\U+8BBE\U+5907\U+5B9A\U+4F4D\U+53CA\U+516C\U+7528\U+8D44\U+6599
62
256
6
Continuous
370
-1
48
1.0
60
0
100
AcDbLine
10
3332.70736499631
20
-558.073771535186
30
-0.0000029999999242
11
2924.70736499631
21
-558.073771535186
31
-0.0000029999999242
39
0.0
210
0.0
220
0.0
230
1.0
0
ARC
5
3E
330
22
100
AcDbEntity
8
\U+8BBE\U+5907\U+5B9A\U+4F4D\U+53CA\U+516C\U+7528\U+8D44\U+6599
62
256
6
Continuous
370
-1
48
1.0
60
0
100
AcDbCircle
39
0.0
10
3128.70736499631
20
-15.0737715351861
30
-0.0000029999999242
40
879.0
210
0.0
220
0.0
230
1.0
100
AcDbArc
50
256.580300012535
51
283.419699987465
0
LINE
5
3F
330
22
100
AcDbEntity
8
\U+8BBE\U+5907\U+5B9A\U+4F4D\U+53CA\U+516C\U+7528\U+8D44\U+6599
62
256
6
Continuous
370
-1
48
1.0
60
0
100
AcDbLine
10
3332.70736499631
20
-486.073771535186
30
-0.0000029999999242
11
3332.70736499631
21
-510.073771535186
31
-0.0000029999999242
39
0.0
210
0.0
220
0.0
230
1.0
0
LINE
5
40
330
22
100
AcDbEntity
8
\U+8BBE\U+5907\U+5B9A\U+4F4D\U+53CA\U+516C\U+7528\U+8D44\U+6599
62
256
6
Continuous
370
-1
48
1.0
60
0
100
AcDbLine
10
3332.70736499631
20
-558.073771535186
30
-0.0000029999999242
11
3332.70736499631
21
-870.073771535186
31
-0.0000029999999242
39
0.0
210
0.0
220
0.0
230
1.0
0
LINE
5
41
330
22
100
AcDbEntity
8
\U+8BBE\U+5907\U+5B9A\U+4F4D\U+53CA\U+516C\U+7528\U+8D44\U+6599
62
256
6
Continuous
370
-1
48
1.0
60
0
100
AcDbLine
10
3176.70736499631
20
-558.073771535186
30
-0.0000029999999242
11
3176.70736499631
21
-532.525771535118
31
-0.0000029999999242
39
0.0
210
0.0
220
0.0
230
1.0
0
LINE
5
42
330
22
100
AcDbEntity
8
\U+8BBE\U+5907\U+5B9A\U+4F4D\U+53CA\U+516C\U+7528\U+8D44\U+6599
62
256
6
Continuous
370
-1
48
1.0
60
0
100
AcDbLine
10
2924.70736499631
20
-486.073771535186
30
-0.0000029999999242
11
2924.70736499631
21
-510.073771535186
31
-0.0000029999999242
39
0.0
210
0.0
220
0.0
230
1.0
0
LINE
5
43
330
22
100
AcDbEntity
8
\U+8BBE\U+5907\U+5B9A\U+4F4D\U+53CA\U+516C\U+7528\U+8D44\U+6599
62
256
6
Continuous
370
-1
48
1.0
60
0
100
AcDbLine
10
3080.70736499631
20
-533.056171535281
30
-0.0000029999999242
11
3080.70736499631
21
-558.073771535186
31
-0.0000029999999242
39
0.0
210
0.0
220
0.0
230
1.0
0
LINE
5
44
330
22
100
AcDbEntity
8
\U+8BBE\U+5907\U+5B9A\U+4F4D\U+53CA\U+516C\U+7528\U+8D44\U+6599
62
256
6
Continuous
370
-1
48
1.0
60
0
100
AcDbLine
10
2924.70736499631
20
-558.073771535186
30
-0.0000029999999242
11
2924.70736499631
21
-870.073771535186
31
-0.0000029999999242
39
0.0
210
0.0
220
0.0
230
1.0
0
LWPOLYLINE
5
45
330
22
100
AcDbEntity
8
\U+8BBE\U+5907\U+5B9A\U+4F4D\U+53CA\U+516C\U+7528\U+8D44\U+6599
62
256
6
ByLayer
370
-1
48
1.0
60
0
100
AcDbPolyline
90
4
70
1
38
-0.0000029999999242
39
0.0
10
4316.70736499596
20
-1562.50740007672
40
0.0
41
0.0
42
0.0
10
4316.70736499596
20
-989.50740007672
40
0.0
41
0.0
42
0.0
10
3524.70736499596
20
-989.50740007672
40
0.0
41
0.0
42
0.0
10
3524.70736499596
20
-1562.50740007672
40
0.0
41
0.0
42
0.0
210
0.0
220
0.0
230
1.0
0
LWPOLYLINE
5
46
330
22
100
AcDbEntity
8
\U+8BBE\U+5907\U+5B9A\U+4F4D\U+53CA\U+516C\U+7528\U+8D44\U+6599
62
256
6
ByLayer
370
-1
48
1.0
60
0
100
AcDbPolyline
90
4
70
1
38
-0.0000029999999242
39
0.0
10
5108.70736499596
20
-1562.50740007672
40
0.0
41
0.0
42
0.0
10
5108.70736499596
20
-989.50740007672
40
0.0
41
0.0
42
0.0
10
4316.70736499596
20
-989.50740007672
40
0.0
41
0.0
42
0.0
10
4316.70736499596
20
-1562.50740007672
40
0.0
41
0.0
42
0.0
210
0.0
220
0.0
230
1.0
0
LWPOLYLINE
5
47
330
22
100
AcDbEntity
8
\U+8BBE\U+5907\U+5B9A\U+4F4D\U+53CA\U+516C\U+7528\U+8D44\U+6599
62
256
6
ByLayer
370
-1
48
1.0
60
0
100
AcDbPolyline
90
4
70
1
38
-0.0000029999999242
39
0.0
10
3524.70736499596
20
-1562.50740007672
40
0.0
41
0.0
42
0.0
10
3524.70736499596
20
-989.50740007672
40
0.0
41
0.0
42
0.0
10
2732.70736499596
20
-989.50740007672
40
0.0
41
0.0
42
0.0
10
2732.70736499596
20
-1562.50740007672
40
0.0
41
0.0
42
0.0
210
0.0
220
0.0
230
1.0
0
LINE
5
48
330
22
100
AcDbEntity
8
\U+8BBE\U+5907\U+5B9A\U+4F4D\U+53CA\U+516C\U+7528\U+8D44\U+6599
62
256
6
Continuous
370
-1
48
1.0
60
0
100
AcDbLine
10
4916.70736499631
20
-2638.94102861814
30
-0.0000029999999242
11
4508.70736499631
21
-2638.94102861814
31
-0.0000029999999242
39
0.0
210
0.0
220
0.0
230
1.0
0
ARC
5
49
330
22
100
AcDbEntity
8
\U+8BBE\U+5907\U+5B9A\U+4F4D\U+53CA\U+516C\U+7528\U+8D44\U+6599
62
256
6
Continuous
370
-1
48
1.0
60
0
100
AcDbCircle
39
0.0
10
4712.70736499631
20
-3469.94102861849
30
-0.0000029999999242
40
879.0
210
0.0
220
0.0
230
1.0
100
AcDbArc
50
76.580300012535
51
103.419699987465
0
LINE
5
4A
330
22
100
AcDbEntity
8
\U+8BBE\U+5907\U+5B9A\U+4F4D\U+53CA\U+516C\U+7528\U+8D44\U+6599
62
256
6
Continuous
370
-1
48
1.0
60
0
100
AcDbLine
10
4916.70736499631
20
-2566.94102861814
30
-0.0000029999999242
11
4508.70736499631
21
-2566.94102861814
31
-0.0000029999999242
39
0.0
210
0.0
220
0.0
230
1.0
0
ARC
5
4B
330
22
100
AcDbEntity
8
\U+8BBE\U+5907\U+5B9A\U+4F4D\U+53CA\U+516C\U+7528\U+8D44\U+6599
62
256
6
Continuous
370
-1
48
1.0
60
0
100
AcDbCircle
39
0.0
10
4712.70736499631
20
-3109.94102861849
30
-0.0000029999999242
40
879.0
210
0.0
220
0.0
230
1.0
100
AcDbArc
50
76.580300012535
51
103.419699987465
0
LINE
5
4C
330
22
100
AcDbEntity
8
\U+8BBE\U+5907\U+5B9A\U+4F4D\U+53CA\U+516C\U+7528\U+8D44\U+6599
62
256
6
Continuous
370
-1
48
1.0
60
0
100
AcDbLine
10
4916.70736499631
20
-2638.94102861814
30
-0.0000029999999242
11
4916.70736499631
21
-2614.94102861814
31
-0.0000029999999242
39
0.0
210
0.0
220
0.0
230
1.0
0
LINE
5
4D
330
22
100
AcDbEntity
8
\U+8BBE\U+5907\U+5B9A\U+4F4D\U+53CA\U+516C\U+7528\U+8D44\U+6599
62
256
6
Continuous
370
-1
48
1.0
60
0
100
AcDbLine
10
4916.70736499631
20
-2566.94102861837
30
-0.0000029999999242
11
4916.70736499631
21
-2254.94102861814
31
-0.0000029999999242
39
0.0
210
0.0
220
0.0
230
1.0
0
LINE
5
4E
330
22
100
AcDbEntity
8
\U+8BBE\U+5907\U+5B9A\U+4F4D\U+53CA\U+516C\U+7528\U+8D44\U+6599
62
256
6
Continuous
370
-1
48
1.0
60
0
100
AcDbLine
10
4760.70736499631
20
-2566.94102861814
30
-0.0000029999999242
11
4760.70736499631
21
-2592.48902861821
31
-0.0000029999999242
39
0.0
210
0.0
220
0.0
230
1.0
0
LINE
5
4F
330
22
100
AcDbEntity
8
\U+8BBE\U+5907\U+5B9A\U+4F4D\U+53CA\U+516C\U+7528\U+8D44\U+6599
62
256
6
Continuous
370
-1
48
1.0
60
0
100
AcDbLine
10
4508.70736499631
20
-2638.94102861814
30
-0.0000029999999242
11
4508.70736499631
21
-2614.94102861814
31
-0.0000029999999242
39
0.0
210
0.0
220
0.0
230
1.0
0
LINE
5
50
330
22
100
AcDbEntity
8
\U+8BBE\U+5907\U+5B9A\U+4F4D\U+53CA\U+516C\U+7528\U+8D44\U+6599
62
256
6
Continuous
370
-1
48
1.0
60
0
100
AcDbLine
10
4664.70736499631
20
-2591.95862861827
30
-0.0000029999999242
11
4664.70736499631
21
-2566.94102861814
31
-0.0000029999999242
39
0.0
210
0.0
220
0.0
230
1.0
0
LINE
5
51
330
22
100
AcDbEntity
8
\U+8BBE\U+5907\U+5B9A\U+4F4D\U+53CA\U+516C\U+7528\U+8D44\U+6599
62
256
6
Continuous
370
-1
48
1.0
60
0
100
AcDbLine
10
4508.70736499631
20
-2566.94102861837
30
-0.0000029999999242
11
4508.70736499631
21
-2254.94102861814
31
-0.0000029999999242
39
0.0
210
0.0
220
0.0
230
1.0
0
LINE
5
52
330
22
100
AcDbEntity
8
\U+8BBE\U+5907\U+5B9A\U+4F4D\U+53CA\U+516C\U+7528\U+8D44\U+6599
62
256
6
Continuous
370
-1
48
1.0
60
0
100
AcDbLine
10
4124.70736499631
20
-2638.94102861814
30
-0.0000029999999242
11
3716.70736499631
21
-2638.94102861814
31
-0.0000029999999242
39
0.0
210
0.0
220
0.0
230
1.0
0
ARC
5
53
330
22
100
AcDbEntity
8
\U+8BBE\U+5907\U+5B9A\U+4F4D\U+53CA\U+516C\U+7528\U+8D44\U+6599
62
256
6
Continuous
370
-1
48
1.0
60
0
100
AcDbCircle
39
0.0
10
3920.70736499631
20
-3469.94102861849
30
-0.0000029999999242
40
879.0
210
0.0
220
0.0
230
1.0
100
AcDbArc
50
76.580300012535
51
103.419699987465
0
LINE
5
54
330
22
100
AcDbEntity
8
\U+8BBE\U+5907\U+5B9A\U+4F4D\U+53CA\U+516C\U+7528\U+8D44\U+6599
62
256
6
Continuous
370
-1
48
1.0
60
0
100
AcDbLine
10
4124.70736499631
20
-2566.94102861814
30
-0.0000029999999242
11
3716.70736499631
21
-2566.94102861814
31
-0.0000029999999242
39
0.0
210
0.0
220
0.0
230
1.0
0
ARC
5
55
330
22
100
AcDbEntity
8
\U+8BBE\U+5907\U+5B9A\U+4F4D\U+53CA\U+516C\U+7528\U+8D44\U+6599
62
256
6
Continuous
370
-1
48
1.0
60
0
100
AcDbCircle
39
0.0
10
3920.70736499631
20
-3109.94102861849
30
-0.0000029999999242
40
879.0
210
0.0
220
0.0
230
1.0
100
AcDbArc
50
76.580300012535
51
103.419699987465
0
LINE
5
56
330
22
100
AcDbEntity
8
\U+8BBE\U+5907\U+5B9A\U+4F4D\U+53CA\U+516C\U+7528\U+8D44\U+6599
62
256
6
Continuous
370
-1
48
1.0
60
0
100
AcDbLine
10
4124.70736499631
20
-2638.94102861814
30
-0.0000029999999242
11
4124.70736499631
21
-2614.94102861814
31
-0.0000029999999242
39
0.0
210
0.0
220
0.0
230
1.0
0
LINE
5
57
330
22
100
AcDbEntity
8
\U+8BBE\U+5907\U+5B9A\U+4F4D\U+53CA\U+516C\U+7528\U+8D44\U+6599
62
256
6
Continuous
370
-1
48
1.0
60
0
100
AcDbLine
10
4124.70736499631
20
-2566.94102861837
30
-0.0000029999999242
11
4124.70736499631
21
-2254.94102861814
31
-0.0000029999999242
39
0.0
210
0.0
220
0.0
230
1.0
0
LINE
5
58
330
22
100
AcDbEntity
8
\U+8BBE\U+5907\U+5B9A\U+4F4D\U+53CA\U+516C\U+7528\U+8D44\U+6599
62
256
6
Continuous
370
-1
48
1.0
60
0
100
AcDbLine
10
3968.70736499631
20
-2566.94102861814
30
-0.0000029999999242
11
3968.70736499631
21
-2592.48902861821
31
-0.0000029999999242
39
0.0
210
0.0
220
0.0
230
1.0
0
LINE
5
59
330
22
100
AcDbEntity
8
\U+8BBE\U+5907\U+5B9A\U+4F4D\U+53CA\U+516C\U+7528\U+8D44\U+6599
62
256
6
Continuous
370
-1
48
1.0
60
0
100
AcDbLine
10
3716.70736499631
20
-2638.94102861814
30
-0.0000029999999242
11
3716.70736499631
21
-2614.94102861814
31
-0.0000029999999242
39
0.0
210
0.0
220
0.0
230
1.0
0
LINE
5
5A
330
22
100
AcDbEntity
8
\U+8BBE\U+5907\U+5B9A\U+4F4D\U+53CA\U+516C\U+7528\U+8D44\U+6599
62
256
6
Continuous
370
-1
48
1.0
60
0
100
AcDbLine
10
3872.70736499631
20
-2591.95862861827
30
-0.0000029999999242
11
3872.70736499631
21
-2566.94102861814
31
-0.0000029999999242
39
0.0
210
0.0
220
0.0
230
1.0
0
LINE
5
5B
330
22
100
AcDbEntity
8
\U+8BBE\U+5907\U+5B9A\U+4F4D\U+53CA\U+516C\U+7528\U+8D44\U+6599
62
256
6
Continuous
370
-1
48
1.0
60
0
100
AcDbLine
10
3716.70736499631
20
-2566.94102861837
30
-0.0000029999999242
11
3716.70736499631
21
-2254.94102861814
31
-0.0000029999999242
39
0.0
210
0.0
220
0.0
230
1.0
0
LINE
5
5C
330
22
100
AcDbEntity
8
\U+8BBE\U+5907\U+5B9A\U+4F4D\U+53CA\U+516C\U+7528\U+8D44\U+6599
62
256
6
Continuous
370
-1
48
1.0
60
0
100
AcDbLine
10
3332.70736499631
20
-2638.94102861814
30
-0.0000029999999242
11
2924.70736499631
21
-2638.94102861814
31
-0.0000029999999242
39
0.0
210
0.0
220
0.0
230
1.0
0
ARC
5
5D
330
22
100
AcDbEntity
8
\U+8BBE\U+5907\U+5B9A\U+4F4D\U+53CA\U+516C\U+7528\U+8D44\U+6599
62
256
6
Continuous
370
-1
48
1.0
60
0
100
AcDbCircle
39
0.0
10
3128.70736499631
20
-3469.94102861849
30
-0.0000029999999242
40
879.0
210
0.0
220
0.0
230
1.0
100
AcDbArc
50
76.580300012535
51
103.419699987465
0
LINE
5
5E
330
22
100
AcDbEntity
8
\U+8BBE\U+5907\U+5B9A\U+4F4D\U+53CA\U+516C\U+7528\U+8D44\U+6599
62
256
6
Continuous
370
-1
48
1.0
60
0
100
AcDbLine
10
3332.70736499631
20
-2566.94102861814
30
-0.0000029999999242
11
2924.70736499631
21
-2566.94102861814
31
-0.0000029999999242
39
0.0
210
0.0
220
0.0
230
1.0
0
ARC
5
5F
330
22
100
AcDbEntity
8
\U+8BBE\U+5907\U+5B9A\U+4F4D\U+53CA\U+516C\U+7528\U+8D44\U+6599
62
256
6
Continuous
370
-1
48
1.0
60
0
100
AcDbCircle
39
0.0
10
3128.70736499631
20
-3109.94102861849
30
-0.0000029999999242
40
879.0
210
0.0
220
0.0
230
1.0
100
AcDbArc
50
76.580300012535
51
103.419699987465
0
LINE
5
60
330
22
100
AcDbEntity
8
\U+8BBE\U+5907\U+5B9A\U+4F4D\U+53CA\U+516C\U+7528\U+8D44\U+6599
62
256
6
Continuous
370
-1
48
1.0
60
0
100
AcDbLine
10
3332.70736499631
20
-2638.94102861814
30
-0.0000029999999242
11
3332.70736499631
21
-2614.94102861814
31
-0.0000029999999242
39
0.0
210
0.0
220
0.0
230
1.0
0
LINE
5
61
330
22
100
AcDbEntity
8
\U+8BBE\U+5907\U+5B9A\U+4F4D\U+53CA\U+516C\U+7528\U+8D44\U+6599
62
256
6
Continuous
370
-1
48
1.0
60
0
100
AcDbLine
10
3332.70736499631
20
-2566.94102861837
30
-0.0000029999999242
11
3332.70736499631
21
-2254.94102861814
31
-0.0000029999999242
39
0.0
210
0.0
220
0.0
230
1.0
0
LINE
5
62
330
22
100
AcDbEntity
8
\U+8BBE\U+5907\U+5B9A\U+4F4D\U+53CA\U+516C\U+7528\U+8D44\U+6599
62
256
6
Continuous
370
-1
48
1.0
60
0
100
AcDbLine
10
3176.70736499631
20
-2566.94102861814
30
-0.0000029999999242
11
3176.70736499631
21
-2592.48902861821
31
-0.0000029999999242
39
0.0
210
0.0
220
0.0
230
1.0
0
LINE
5
63
330
22
100
AcDbEntity
8
\U+8BBE\U+5907\U+5B9A\U+4F4D\U+53CA\U+516C\U+7528\U+8D44\U+6599
62
256
6
Continuous
370
-1
48
1.0
60
0
100
AcDbLine
10
2924.70736499631
20
-2638.94102861814
30
-0.0000029999999242
11
2924.70736499631
21
-2614.94102861814
31
-0.0000029999999242
39
0.0
210
0.0
220
0.0
230
1.0
0
LINE
5
64
330
22
100
AcDbEntity
8
\U+8BBE\U+5907\U+5B9A\U+4F4D\U+53CA\U+516C\U+7528\U+8D44\U+6599
62
256
6
Continuous
370
-1
48
1.0
60
0
100
AcDbLine
10
3080.70736499631
20
-2591.95862861827
30
-0.0000029999999242
11
3080.70736499631
21
-2566.94102861814
31
-0.0000029999999242
39
0.0
210
0.0
220
0.0
230
1.0
0
LINE
5
65
330
22
100
AcDbEntity
8
\U+8BBE\U+5907\U+5B9A\U+4F4D\U+53CA\U+516C\U+7528\U+8D44\U+6599
62
256
6
Continuous
370
-1
48
1.0
60
0
100
AcDbLine
10
2924.70736499631
20
-2566.94102861837
30
-0.0000029999999242
11
2924.70736499631
21
-2254.94102861814
31
-0.0000029999999242
39
0.0
210
0.0
220
0.0
230
1.0
0
LWPOLYLINE
5
66
330
22
100
AcDbEntity
8
\U+8BBE\U+5907\U+5B9A\U+4F4D\U+53CA\U+516C\U+7528\U+8D44\U+6599
62
256
6
ByLayer
370
-1
48
1.0
60
0
100
AcDbPolyline
90
4
70
1
38
-0.0000029999999242
39
0.0
10
4316.70736499596
20
-1562.50740007672
40
0.0
41
0.0
42
0.0
10
4316.70736499596
20
-2135.50740007672
40
0.0
41
0.0
42
0.0
10
3524.70736499596
20
-2135.50740007672
40
0.0
41
0.0
42
0.0
10
3524.70736499596
20
-1562.50740007672
40
0.0
41
0.0
42
0.0
210
0.0
220
0.0
230
1.0
0
LWPOLYLINE
5
67
330
22
100
AcDbEntity
8
\U+8BBE\U+5907\U+5B9A\U+4F4D\U+53CA\U+516C\U+7528\U+8D44\U+6599
62
256
6
ByLayer
370
-1
48
1.0
60
0
100
AcDbPolyline
90
4
70
1
38
-0.0000029999999242
39
0.0
10
5108.70736499596
20
-1562.50740007672
40
0.0
41
0.0
42
0.0
10
5108.70736499596
20
-2135.50740007672
40
0.0
41
0.0
42
0.0
10
4316.70736499596
20
-2135.50740007672
40
0.0
41
0.0
42
0.0
10
4316.70736499596
20
-1562.50740007672
40
0.0
41
0.0
42
0.0
210
0.0
220
0.0
230
1.0
0
LWPOLYLINE
5
68
330
22
100
AcDbEntity
8
\U+8BBE\U+5907\U+5B9A\U+4F4D\U+53CA\U+516C\U+7528\U+8D44\U+6599
62
256
6
ByLayer
370
-1
48
1.0
60
0
100
AcDbPolyline
90
4
70
1
38
-0.0000029999999242
39
0.0
10
3524.70736499596
20
-1562.50740007672
40
0.0
41
0.0
42
0.0
10
3524.70736499596
20
-2135.50740007672
40
0.0
41
0.0
42
0.0
10
2732.70736499596
20
-2135.50740007672
40
0.0
41
0.0
42
0.0
10
2732.70736499596
20
-1562.50740007672
40
0.0
41
0.0
42
0.0
210
0.0
220
0.0
230
1.0
0
LINE
5
69
330
22
100
AcDbEntity
8
\U+8BBE\U+5907\U+5B9A\U+4F4D\U+53CA\U+516C\U+7528\U+8D44\U+6599
62
256
6
Continuous
370
-1
48
1.0
60
0
100
AcDbLine
10
2540.70736499631
20
-486.073771535186
30
-0.0000029999999242
11
2132.70736499631
21
-486.073771535186
31
-0.0000029999999242
39
0.0
210
0.0
220
0.0
230
1.0
0
ARC
5
6A
330
22
100
AcDbEntity
8
\U+8BBE\U+5907\U+5B9A\U+4F4D\U+53CA\U+516C\U+7528\U+8D44\U+6599
62
256
6
Continuous
370
-1
48
1.0
60
0
100
AcDbCircle
39
0.0
10
2336.70736499631
20
344.926228464814
30
-0.0000029999999242
40
879.0
210
0.0
220
0.0
230
1.0
100
AcDbArc
50
256.580300012535
51
283.419699987465
0
LINE
5
6B
330
22
100
AcDbEntity
8
\U+8BBE\U+5907\U+5B9A\U+4F4D\U+53CA\U+516C\U+7528\U+8D44\U+6599
62
256
6
Continuous
370
-1
48
1.0
60
0
100
AcDbLine
10
2540.70736499631
20
-558.073771535186
30
-0.0000029999999242
11
2132.70736499631
21
-558.073771535186
31
-0.0000029999999242
39
0.0
210
0.0
220
0.0
230
1.0
0
ARC
5
6C
330
22
100
AcDbEntity
8
\U+8BBE\U+5907\U+5B9A\U+4F4D\U+53CA\U+516C\U+7528\U+8D44\U+6599
62
256
6
Continuous
370
-1
48
1.0
60
0
100
AcDbCircle
39
0.0
10
2336.70736499631
20
-15.0737715351861
30
-0.0000029999999242
40
879.0
210
0.0
220
0.0
230
1.0
100
AcDbArc
50
256.580300012535
51
283.419699987465
0
LINE
5
6D
330
22
100
AcDbEntity
8
\U+8BBE\U+5907\U+5B9A\U+4F4D\U+53CA\U+516C\U+7528\U+8D44\U+6599
62
256
6
Continuous
370
-1
48
1.0
60
0
100
AcDbLine
10
2540.70736499631
20
-486.073771535186
30
-0.0000029999999242
11
2540.70736499631
21
-510.073771535186
31
-0.0000029999999242
39
0.0
210
0.0
220
0.0
230
1.0
0
LINE
5
6E
330
22
100
AcDbEntity
8
\U+8BBE\U+5907\U+5B9A\U+4F4D\U+53CA\U+516C\U+7528\U+8D44\U+6599
62
256
6
Continuous
370
-1
48
1.0
60
0
100
AcDbLine
10
2540.70736499631
20
-558.073771535186
30
-0.0000029999999242
11
2540.70736499631
21
-870.073771535186
31
-0.0000029999999242
39
0.0
210
0.0
220
0.0
230
1.0
0
LINE
5
6F
330
22
100
AcDbEntity
8
\U+8BBE\U+5907\U+5B9A\U+4F4D\U+53CA\U+516C\U+7528\U+8D44\U+6599
62
256
6
Continuous
370
-1
48
1.0
60
0
100
AcDbLine
10
2384.70736499631
20
-558.073771535186
30
-0.0000029999999242
11
2384.70736499631
21
-532.525771535118
31
-0.0000029999999242
39
0.0
210
0.0
220
0.0
230
1.0
0
LINE
5
70
330
22
100
AcDbEntity
8
\U+8BBE\U+5907\U+5B9A\U+4F4D\U+53CA\U+516C\U+7528\U+8D44\U+6599
62
256
6
Continuous
370
-1
48
1.0
60
0
100
AcDbLine
10
2132.70736499631
20
-486.073771535186
30
-0.0000029999999242
11
2132.70736499631
21
-510.073771535186
31
-0.0000029999999242
39
0.0
210
0.0
220
0.0
230
1.0
0
LINE
5
71
330
22
100
AcDbEntity
8
\U+8BBE\U+5907\U+5B9A\U+4F4D\U+53CA\U+516C\U+7528\U+8D44\U+6599
62
256
6
Continuous
370
-1
48
1.0
60
0
100
AcDbLine
10
2288.70736499631
20
-533.056171535281
30
-0.0000029999999242
11
2288.70736499631
21
-558.073771535186
31
-0.0000029999999242
39
0.0
210
0.0
220
0.0
230
1.0
0
LINE
5
72
330
22
100
AcDbEntity
8
\U+8BBE\U+5907\U+5B9A\U+4F4D\U+53CA\U+516C\U+7528\U+8D44\U+6599
62
256
6
Continuous
370
-1
48
1.0
60
0
100
AcDbLine
10
2132.70736499631
20
-558.073771535186
30
-0.0000029999999242
11
2132.70736499631
21
-870.073771535186
31
-0.0000029999999242
39
0.0
210
0.0
220
0.0
230
1.0
0
LINE
5
73
330
22
100
AcDbEntity
8
\U+8BBE\U+5907\U+5B9A\U+4F4D\U+53CA\U+516C\U+7528\U+8D44\U+6599
62
256
6
Continuous
370
-1
48
1.0
60
0
100
AcDbLine
10
1748.70736499631
20
-486.073771535186
30
-0.0000029999999242
11
1340.70736499631
21
-486.073771535186
31
-0.0000029999999242
39
0.0
210
0.0
220
0.0
230
1.0
0
ARC
5
74
330
22
100
AcDbEntity
8
\U+8BBE\U+5907\U+5B9A\U+4F4D\U+53CA\U+516C\U+7528\U+8D44\U+6599
62
256
6
Continuous
370
-1
48
1.0
60
0
100
AcDbCircle
39
0.0
10
1544.70736499631
20
344.926228464814
30
-0.0000029999999242
40
879.0
210
0.0
220
0.0
230
1.0
100
AcDbArc
50
256.580300012535
51
283.419699987465
0
LINE
5
75
330
22
100
AcDbEntity
8
\U+8BBE\U+5907\U+5B9A\U+4F4D\U+53CA\U+516C\U+7528\U+8D44\U+6599
62
256
6
Continuous
370
-1
48
1.0
60
0
100
AcDbLine
10
1748.70736499631
20
-558.073771535186
30
-0.0000029999999242
11
1340.70736499631
21
-558.073771535186
31
-0.0000029999999242
39
0.0
210
0.0
220
0.0
230
1.0
0
ARC
5
76
330
22
100
AcDbEntity
8
\U+8BBE\U+5907\U+5B9A\U+4F4D\U+53CA\U+516C\U+7528\U+8D44\U+6599
62
256
6
Continuous
370
-1
48
1.0
60
0
100
AcDbCircle
39
0.0
10
1544.70736499631
20
-15.0737715351861
30
-0.0000029999999242
40
879.0
210
0.0
220
0.0
230
1.0
100
AcDbArc
50
256.580300012535
51
283.419699987465
0
LINE
5
77
330
22
100
AcDbEntity
8
\U+8BBE\U+5907\U+5B9A\U+4F4D\U+53CA\U+516C\U+7528\U+8D44\U+6599
62
256
6
Continuous
370
-1
48
1.0
60
0
100
AcDbLine
10
1748.70736499631
20
-486.073771535186
30
-0.0000029999999242
11
1748.70736499631
21
-510.073771535186
31
-0.0000029999999242
39
0.0
210
0.0
220
0.0
230
1.0
0
LINE
5
78
330
22
100
AcDbEntity
8
\U+8BBE\U+5907\U+5B9A\U+4F4D\U+53CA\U+516C\U+7528\U+8D44\U+6599
62
256
6
Continuous
370
-1
48
1.0
60
0
100
AcDbLine
10
1748.70736499631
20
-558.073771535186
30
-0.0000029999999242
11
1748.70736499631
21
-870.073771535186
31
-0.0000029999999242
39
0.0
210
0.0
220
0.0
230
1.0
0
LINE
5
79
330
22
100
AcDbEntity
8
\U+8BBE\U+5907\U+5B9A\U+4F4D\U+53CA\U+516C\U+7528\U+8D44\U+6599
62
256
6
Continuous
370
-1
48
1.0
60
0
100
AcDbLine
10
1592.70736499631
20
-558.073771535186
30
-0.0000029999999242
11
1592.70736499631
21
-532.525771535118
31
-0.0000029999999242
39
0.0
210
0.0
220
0.0
230
1.0
0
LINE
5
7A
330
22
100
AcDbEntity
8
\U+8BBE\U+5907\U+5B9A\U+4F4D\U+53CA\U+516C\U+7528\U+8D44\U+6599
62
256
6
Continuous
370
-1
48
1.0
60
0
100
AcDbLine
10
1340.70736499631
20
-486.073771535186
30
-0.0000029999999242
11
1340.70736499631
21
-510.073771535186
31
-0.0000029999999242
39
0.0
210
0.0
220
0.0
230
1.0
0
LINE
5
7B
330
22
100
AcDbEntity
8
\U+8BBE\U+5907\U+5B9A\U+4F4D\U+53CA\U+516C\U+7528\U+8D44\U+6599
62
256
6
Continuous
370
-1
48
1.0
60
0
100
AcDbLine
10
1496.70736499631
20
-533.056171535281
30
-0.0000029999999242
11
1496.70736499631
21
-558.073771535186
31
-0.0000029999999242
39
0.0
210
0.0
220
0.0
230
1.0
0
LINE
5
7C
330
22
100
AcDbEntity
8
\U+8BBE\U+5907\U+5B9A\U+4F4D\U+53CA\U+516C\U+7528\U+8D44\U+6599
62
256
6
Continuous
370
-1
48
1.0
60
0
100
AcDbLine
10
1340.70736499631
20
-558.073771535186
30
-0.0000029999999242
11
1340.70736499631
21
-870.073771535186
31
-0.0000029999999242
39
0.0
210
0.0
220
0.0
230
1.0
0
LINE
5
7D
330
22
100
AcDbEntity
8
\U+8BBE\U+5907\U+5B9A\U+4F4D\U+53CA\U+516C\U+7528\U+8D44\U+6599
62
256
6
Continuous
370
-1
48
1.0
60
0
100
AcDbLine
10
956.707364996313
20
-486.073771535186
30
-0.0000029999999242
11
548.707364996313
21
-486.073771535186
31
-0.0000029999999242
39
0.0
210
0.0
220
0.0
230
1.0
0
ARC
5
7E
330
22
100
AcDbEntity
8
\U+8BBE\U+5907\U+5B9A\U+4F4D\U+53CA\U+516C\U+7528\U+8D44\U+6599
62
256
6
Continuous
370
-1
48
1.0
60
0
100
AcDbCircle
39
0.0
10
752.707364996313
20
344.926228464814
30
-0.0000029999999242
40
879.0
210
0.0
220
0.0
230
1.0
100
AcDbArc
50
256.580300012535
51
283.419699987465
0
LINE
5
7F
330
22
100
AcDbEntity
8
\U+8BBE\U+5907\U+5B9A\U+4F4D\U+53CA\U+516C\U+7528\U+8D44\U+6599
62
256
6
Continuous
370
-1
48
1.0
60
0
100
AcDbLine
10
956.707364996313
20
-558.073771535186
30
-0.0000029999999242
11
548.707364996313
21
-558.073771535186
31
-0.0000029999999242
39
0.0
210
0.0
220
0.0
230
1.0
0
ARC
5
80
330
22
100
AcDbEntity
8
\U+8BBE\U+5907\U+5B9A\U+4F4D\U+53CA\U+516C\U+7528\U+8D44\U+6599
62
256
6
Continuous
370
-1
48
1.0
60
0
100
AcDbCircle
39
0.0
10
752.707364996313
20
-15.0737715351861
30
-0.0000029999999242
40
879.0
210
0.0
220
0.0
230
1.0
100
AcDbArc
50
256.580300012535
51
283.419699987465
0
LINE
5
81
330
22
100
AcDbEntity
8
\U+8BBE\U+5907\U+5B9A\U+4F4D\U+53CA\U+516C\U+7528\U+8D44\U+6599
62
256
6
Continuous
370
-1
48
1.0
60
0
100
AcDbLine
10
956.707364996313
20
-486.073771535186
30
-0.0000029999999242
11
956.707364996313
21
-510.073771535186
31
-0.0000029999999242
39
0.0
210
0.0
220
0.0
230
1.0
0
LINE
5
82
330
22
100
AcDbEntity
8
\U+8BBE\U+5907\U+5B9A\U+4F4D\U+53CA\U+516C\U+7528\U+8D44\U+6599
62
256
6
Continuous
370
-1
48
1.0
60
0
100
AcDbLine
10
956.707364996313
20
-558.073771535186
30
-0.0000029999999242
11
956.707364996313
21
-870.073771535186
31
-0.0000029999999242
39
0.0
210
0.0
220
0.0
230
1.0
0
LINE
5
83
330
22
100
AcDbEntity
8
\U+8BBE\U+5907\U+5B9A\U+4F4D\U+53CA\U+516C\U+7528\U+8D44\U+6599
62
256
6
Continuous
370
-1
48
1.0
60
0
100
AcDbLine
10
800.707364996313
20
-558.073771535186
30
-0.0000029999999242
11
800.707364996313
21
-532.525771535118
31
-0.0000029999999242
39
0.0
210
0.0
220
0.0
230
1.0
0
LINE
5
84
330
22
100
AcDbEntity
8
\U+8BBE\U+5907\U+5B9A\U+4F4D\U+53CA\U+516C\U+7528\U+8D44\U+6599
62
256
6
Continuous
370
-1
48
1.0
60
0
100
AcDbLine
10
548.707364996313
20
-486.073771535186
30
-0.0000029999999242
11
548.707364996313
21
-510.073771535186
31
-0.0000029999999242
39
0.0
210
0.0
220
0.0
230
1.0
0
LINE
5
85
330
22
100
AcDbEntity
8
\U+8BBE\U+5907\U+5B9A\U+4F4D\U+53CA\U+516C\U+7528\U+8D44\U+6599
62
256
6
Continuous
370
-1
48
1.0
60
0
100
AcDbLine
10
704.707364996313
20
-533.056171535281
30
-0.0000029999999242
11
704.707364996313
21
-558.073771535186
31
-0.0000029999999242
39
0.0
210
0.0
220
0.0
230
1.0
0
LINE
5
86
330
22
100
AcDbEntity
8
\U+8BBE\U+5907\U+5B9A\U+4F4D\U+53CA\U+516C\U+7528\U+8D44\U+6599
62
256
6
Continuous
370
-1
48
1.0
60
0
100
AcDbLine
10
548.707364996313
20
-558.073771535186
30
-0.0000029999999242
11
548.707364996313
21
-870.073771535186
31
-0.0000029999999242
39
0.0
210
0.0
220
0.0
230
1.0
0
LWPOLYLINE
5
87
330
22
100
AcDbEntity
8
\U+8BBE\U+5907\U+5B9A\U+4F4D\U+53CA\U+516C\U+7528\U+8D44\U+6599
62
256
6
ByLayer
370
-1
48
1.0
60
0
100
AcDbPolyline
90
4
70
1
38
-0.0000029999999242
39
0.0
10
1940.70736499596
20
-1562.50740007672
40
0.0
41
0.0
42
0.0
10
1940.70736499596
20
-989.50740007672
40
0.0
41
0.0
42
0.0
10
1148.70736499596
20
-989.50740007672
40
0.0
41
0.0
42
0.0
10
1148.70736499596
20
-1562.50740007672
40
0.0
41
0.0
42
0.0
210
0.0
220
0.0
230
1.0
0
LWPOLYLINE
5
88
330
22
100
AcDbEntity
8
\U+8BBE\U+5907\U+5B9A\U+4F4D\U+53CA\U+516C\U+7528\U+8D44\U+6599
62
256
6
ByLayer
370
-1
48
1.0
60
0
100
AcDbPolyline
90
4
70
1
38
-0.0000029999999242
39
0.0
10
2732.70736499596
20
-1562.50740007672
40
0.0
41
0.0
42
0.0
10
2732.70736499596
20
-989.50740007672
40
0.0
41
0.0
42
0.0
10
1940.70736499596
20
-989.50740007672
40
0.0
41
0.0
42
0.0
10
1940.70736499596
20
-1562.50740007672
40
0.0
41
0.0
42
0.0
210
0.0
220
0.0
230
1.0
0
LWPOLYLINE
5
89
330
22
100
AcDbEntity
8
\U+8BBE\U+5907\U+5B9A\U+4F4D\U+53CA\U+516C\U+7528\U+8D44\U+6599
62
256
6
ByLayer
370
-1
48
1.0
60
0
100
AcDbPolyline
90
4
70
1
38
-0.0000029999999242
39
0.0
10
1148.70736499596
20
-1562.50740007672
40
0.0
41
0.0
42
0.0
10
1148.70736499596
20
-989.50740007672
40
0.0
41
0.0
42
0.0
10
356.707364995964
20
-989.50740007672
40
0.0
41
0.0
42
0.0
10
356.707364995964
20
-1562.50740007672
40
0.0
41
0.0
42
0.0
210
0.0
220
0.0
230
1.0
0
LINE
5
8A
330
22
100
AcDbEntity
8
\U+8BBE\U+5907\U+5B9A\U+4F4D\U+53CA\U+516C\U+7528\U+8D44\U+6599
62
256
6
Continuous
370
-1
48
1.0
60
0
100
AcDbLine
10
2540.70736499631
20
-2638.94102861814
30
-0.0000029999999242
11
2132.70736499631
21
-2638.94102861814
31
-0.0000029999999242
39
0.0
210
0.0
220
0.0
230
1.0
0
ARC
5
8B
330
22
100
AcDbEntity
8
\U+8BBE\U+5907\U+5B9A\U+4F4D\U+53CA\U+516C\U+7528\U+8D44\U+6599
62
256
6
Continuous
370
-1
48
1.0
60
0
100
AcDbCircle
39
0.0
10
2336.70736499631
20
-3469.94102861849
30
-0.0000029999999242
40
879.0
210
0.0
220
0.0
230
1.0
100
AcDbArc
50
76.580300012535
51
103.419699987465
0
LINE
5
8C
330
22
100
AcDbEntity
8
\U+8BBE\U+5907\U+5B9A\U+4F4D\U+53CA\U+516C\U+7528\U+8D44\U+6599
62
256
6
Continuous
370
-1
48
1.0
60
0
100
AcDbLine
10
2540.70736499631
20
-2566.94102861814
30
-0.0000029999999242
11
2132.70736499631
21
-2566.94102861814
31
-0.0000029999999242
39
0.0
210
0.0
220
0.0
230
1.0
0
ARC
5
8D
330
22
100
AcDbEntity
8
\U+8BBE\U+5907\U+5B9A\U+4F4D\U+53CA\U+516C\U+7528\U+8D44\U+6599
62
256
6
Continuous
370
-1
48
1.0
60
0
100
AcDbCircle
39
0.0
10
2336.70736499631
20
-3109.94102861849
30
-0.0000029999999242
40
879.0
210
0.0
220
0.0
230
1.0
100
AcDbArc
50
76.580300012535
51
103.419699987465
0
LINE
5
8E
330
22
100
AcDbEntity
8
\U+8BBE\U+5907\U+5B9A\U+4F4D\U+53CA\U+516C\U+7528\U+8D44\U+6599
62
256
6
Continuous
370
-1
48
1.0
60
0
100
AcDbLine
10
2540.70736499631
20
-2638.94102861814
30
-0.0000029999999242
11
2540.70736499631
21
-2614.94102861814
31
-0.0000029999999242
39
0.0
210
0.0
220
0.0
230
1.0
0
LINE
5
8F
330
22
100
AcDbEntity
8
\U+8BBE\U+5907\U+5B9A\U+4F4D\U+53CA\U+516C\U+7528\U+8D44\U+6599
62
256
6
Continuous
370
-1
48
1.0
60
0
100
AcDbLine
10
2540.70736499631
20
-2566.94102861837
30
-0.0000029999999242
11
2540.70736499631
21
-2254.94102861814
31
-0.0000029999999242
39
0.0
210
0.0
220
0.0
230
1.0
0
LINE
5
90
330
22
100
AcDbEntity
8
\U+8BBE\U+5907\U+5B9A\U+4F4D\U+53CA\U+516C\U+7528\U+8D44\U+6599
62
256
6
Continuous
370
-1
48
1.0
60
0
100
AcDbLine
10
2384.70736499631
20
-2566.94102861814
30
-0.0000029999999242
11
2384.70736499631
21
-2592.48902861821
31
-0.0000029999999242
39
0.0
210
0.0
220
0.0
230
1.0
0
LINE
5
91
330
22
100
AcDbEntity
8
\U+8BBE\U+5907\U+5B9A\U+4F4D\U+53CA\U+516C\U+7528\U+8D44\U+6599
62
256
6
Continuous
370
-1
48
1.0
60
0
100
AcDbLine
10
2132.70736499631
20
-2638.94102861814
30
-0.0000029999999242
11
2132.70736499631
21
-2614.94102861814
31
-0.0000029999999242
39
0.0
210
0.0
220
0.0
230
1.0
0
LINE
5
92
330
22
100
AcDbEntity
8
\U+8BBE\U+5907\U+5B9A\U+4F4D\U+53CA\U+516C\U+7528\U+8D44\U+6599
62
256
6
Continuous
370
-1
48
1.0
60
0
100
AcDbLine
10
2288.70736499631
20
-2591.95862861827
30
-0.0000029999999242
11
2288.70736499631
21
-2566.94102861814
31
-0.0000029999999242
39
0.0
210
0.0
220
0.0
230
1.0
0
LINE
5
93
330
22
100
AcDbEntity
8
\U+8BBE\U+5907\U+5B9A\U+4F4D\U+53CA\U+516C\U+7528\U+8D44\U+6599
62
256
6
Continuous
370
-1
48
1.0
60
0
100
AcDbLine
10
2132.70736499631
20
-2566.94102861837
30
-0.0000029999999242
11
2132.70736499631
21
-2254.94102861814
31
-0.0000029999999242
39
0.0
210
0.0
220
0.0
230
1.0
0
LINE
5
94
330
22
100
AcDbEntity
8
\U+8BBE\U+5907\U+5B9A\U+4F4D\U+53CA\U+516C\U+7528\U+8D44\U+6599
62
256
6
Continuous
370
-1
48
1.0
60
0
100
AcDbLine
10
1748.70736499631
20
-2638.94102861814
30
-0.0000029999999242
11
1340.70736499631
21
-2638.94102861814
31
-0.0000029999999242
39
0.0
210
0.0
220
0.0
230
1.0
0
ARC
5
95
330
22
100
AcDbEntity
8
\U+8BBE\U+5907\U+5B9A\U+4F4D\U+53CA\U+516C\U+7528\U+8D44\U+6599
62
256
6
Continuous
370
-1
48
1.0
60
0
100
AcDbCircle
39
0.0
10
1544.70736499631
20
-3469.94102861849
30
-0.0000029999999242
40
879.0
210
0.0
220
0.0
230
1.0
100
AcDbArc
50
76.580300012535
51
103.419699987465
0
LINE
5
96
330
22
100
AcDbEntity
8
\U+8BBE\U+5907\U+5B9A\U+4F4D\U+53CA\U+516C\U+7528\U+8D44\U+6599
62
256
6
Continuous
370
-1
48
1.0
60
0
100
AcDbLine
10
1748.70736499631
20
-2566.94102861814
30
-0.0000029999999242
11
1340.70736499631
21
-2566.94102861814
31
-0.0000029999999242
39
0.0
210
0.0
220
0.0
230
1.0
0
ARC
5
97
330
22
100
AcDbEntity
8
\U+8BBE\U+5907\U+5B9A\U+4F4D\U+53CA\U+516C\U+7528\U+8D44\U+6599
62
256
6
Continuous
370
-1
48
1.0
60
0
100
AcDbCircle
39
0.0
10
1544.70736499631
20
-3109.94102861849
30
-0.0000029999999242
40
879.0
210
0.0
220
0.0
230
1.0
100
AcDbArc
50
76.580300012535
51
103.419699987465
0
LINE
5
98
330
22
100
AcDbEntity
8
\U+8BBE\U+5907\U+5B9A\U+4F4D\U+53CA\U+516C\U+7528\U+8D44\U+6599
62
256
6
Continuous
370
-1
48
1.0
60
0
100
AcDbLine
10
1748.70736499631
20
-2638.94102861814
30
-0.0000029999999242
11
1748.70736499631
21
-2614.94102861814
31
-0.0000029999999242
39
0.0
210
0.0
220
0.0
230
1.0
0
LINE
5
99
330
22
100
AcDbEntity
8
\U+8BBE\U+5907\U+5B9A\U+4F4D\U+53CA\U+516C\U+7528\U+8D44\U+6599
62
256
6
Continuous
370
-1
48
1.0
60
0
100
AcDbLine
10
1748.70736499631
20
-2566.94102861837
30
-0.0000029999999242
11
1748.70736499631
21
-2254.94102861814
31
-0.0000029999999242
39
0.0
210
0.0
220
0.0
230
1.0
0
LINE
5
9A
330
22
100
AcDbEntity
8
\U+8BBE\U+5907\U+5B9A\U+4F4D\U+53CA\U+516C\U+7528\U+8D44\U+6599
62
256
6
Continuous
370
-1
48
1.0
60
0
100
AcDbLine
10
1592.70736499631
20
-2566.94102861814
30
-0.0000029999999242
11
1592.70736499631
21
-2592.48902861821
31
-0.0000029999999242
39
0.0
210
0.0
220
0.0
230
1.0
0
LINE
5
9B
330
22
100
AcDbEntity
8
\U+8BBE\U+5907\U+5B9A\U+4F4D\U+53CA\U+516C\U+7528\U+8D44\U+6599
62
256
6
Continuous
370
-1
48
1.0
60
0
100
AcDbLine
10
1340.70736499631
20
-2638.94102861814
30
-0.0000029999999242
11
1340.70736499631
21
-2614.94102861814
31
-0.0000029999999242
39
0.0
210
0.0
220
0.0
230
1.0
0
LINE
5
9C
330
22
100
AcDbEntity
8
\U+8BBE\U+5907\U+5B9A\U+4F4D\U+53CA\U+516C\U+7528\U+8D44\U+6599
62
256
6
Continuous
370
-1
48
1.0
60
0
100
AcDbLine
10
1496.70736499631
20
-2591.95862861827
30
-0.0000029999999242
11
1496.70736499631
21
-2566.94102861814
31
-0.0000029999999242
39
0.0
210
0.0
220
0.0
230
1.0
0
LINE
5
9D
330
22
100
AcDbEntity
8
\U+8BBE\U+5907\U+5B9A\U+4F4D\U+53CA\U+516C\U+7528\U+8D44\U+6599
62
256
6
Continuous
370
-1
48
1.0
60
0
100
AcDbLine
10
1340.70736499631
20
-2566.94102861837
30
-0.0000029999999242
11
1340.70736499631
21
-2254.94102861814
31
-0.0000029999999242
39
0.0
210
0.0
220
0.0
230
1.0
0
LINE
5
9E
330
22
100
AcDbEntity
8
\U+8BBE\U+5907\U+5B9A\U+4F4D\U+53CA\U+516C\U+7528\U+8D44\U+6599
62
256
6
Continuous
370
-1
48
1.0
60
0
100
AcDbLine
10
956.707364996313
20
-2638.94102861814
30
-0.0000029999999242
11
548.707364996313
21
-2638.94102861814
31
-0.0000029999999242
39
0.0
210
0.0
220
0.0
230
1.0
0
ARC
5
9F
330
22
100
AcDbEntity
8
\U+8BBE\U+5907\U+5B9A\U+4F4D\U+53CA\U+516C\U+7528\U+8D44\U+6599
62
256
6
Continuous
370
-1
48
1.0
60
0
100
AcDbCircle
39
0.0
10
752.707364996313
20
-3469.94102861849
30
-0.0000029999999242
40
879.0
210
0.0
220
0.0
230
1.0
100
AcDbArc
50
76.580300012535
51
103.419699987465
0
LINE
5
A0
330
22
100
AcDbEntity
8
\U+8BBE\U+5907\U+5B9A\U+4F4D\U+53CA\U+516C\U+7528\U+8D44\U+6599
62
256
6
Continuous
370
-1
48
1.0
60
0
100
AcDbLine
10
956.707364996313
20
-2566.94102861814
30
-0.0000029999999242
11
548.707364996313
21
-2566.94102861814
31
-0.0000029999999242
39
0.0
210
0.0
220
0.0
230
1.0
0
ARC
5
A1
330
22
100
AcDbEntity
8
\U+8BBE\U+5907\U+5B9A\U+4F4D\U+53CA\U+516C\U+7528\U+8D44\U+6599
62
256
6
Continuous
370
-1
48
1.0
60
0
100
AcDbCircle
39
0.0
10
752.707364996313
20
-3109.94102861849
30
-0.0000029999999242
40
879.0
210
0.0
220
0.0
230
1.0
100
AcDbArc
50
76.580300012535
51
103.419699987465
0
LINE
5
A2
330
22
100
AcDbEntity
8
\U+8BBE\U+5907\U+5B9A\U+4F4D\U+53CA\U+516C\U+7528\U+8D44\U+6599
62
256
6
Continuous
370
-1
48
1.0
60
0
100
AcDbLine
10
956.707364996313
20
-2638.94102861814
30
-0.0000029999999242
11
956.707364996313
21
-2614.94102861814
31
-0.0000029999999242
39
0.0
210
0.0
220
0.0
230
1.0
0
LINE
5
A3
330
22
100
AcDbEntity
8
\U+8BBE\U+5907\U+5B9A\U+4F4D\U+53CA\U+516C\U+7528\U+8D44\U+6599
62
256
6
Continuous
370
-1
48
1.0
60
0
100
AcDbLine
10
956.707364996313
20
-2566.94102861837
30
-0.0000029999999242
11
956.707364996313
21
-2254.94102861814
31
-0.0000029999999242
39
0.0
210
0.0
220
0.0
230
1.0
0
LINE
5
A4
330
22
100
AcDbEntity
8
\U+8BBE\U+5907\U+5B9A\U+4F4D\U+53CA\U+516C\U+7528\U+8D44\U+6599
62
256
6
Continuous
370
-1
48
1.0
60
0
100
AcDbLine
10
800.707364996313
20
-2566.94102861814
30
-0.0000029999999242
11
800.707364996313
21
-2592.48902861821
31
-0.0000029999999242
39
0.0
210
0.0
220
0.0
230
1.0
0
LINE
5
A5
330
22
100
AcDbEntity
8
\U+8BBE\U+5907\U+5B9A\U+4F4D\U+53CA\U+516C\U+7528\U+8D44\U+6599
62
256
6
Continuous
370
-1
48
1.0
60
0
100
AcDbLine
10
548.707364996313
20
-2638.94102861814
30
-0.0000029999999242
11
548.707364996313
21
-2614.94102861814
31
-0.0000029999999242
39
0.0
210
0.0
220
0.0
230
1.0
0
LINE
5
A6
330
22
100
AcDbEntity
8
\U+8BBE\U+5907\U+5B9A\U+4F4D\U+53CA\U+516C\U+7528\U+8D44\U+6599
62
256
6
Continuous
370
-1
48
1.0
60
0
100
AcDbLine
10
704.707364996313
20
-2591.95862861827
30
-0.0000029999999242
11
704.707364996313
21
-2566.94102861814
31
-0.0000029999999242
39
0.0
210
0.0
220
0.0
230
1.0
0
LINE
5
A7
330
22
100
AcDbEntity
8
\U+8BBE\U+5907\U+5B9A\U+4F4D\U+53CA\U+516C\U+7528\U+8D44\U+6599
62
256
6
Continuous
370
-1
48
1.0
60
0
100
AcDbLine
10
548.707364996313
20
-2566.94102861837
30
-0.0000029999999242
11
548.707364996313
21
-2254.94102861814
31
-0.0000029999999242
39
0.0
210
0.0
220
0.0
230
1.0
0
LWPOLYLINE
5
A8
330
22
100
AcDbEntity
8
\U+8BBE\U+5907\U+5B9A\U+4F4D\U+53CA\U+516C\U+7528\U+8D44\U+6599
62
256
6
ByLayer
370
-1
48
1.0
60
0
100
AcDbPolyline
90
4
70
1
38
-0.0000029999999242
39
0.0
10
1940.70736499596
20
-1562.50740007672
40
0.0
41
0.0
42
0.0
10
1940.70736499596
20
-2135.50740007672
40
0.0
41
0.0
42
0.0
10
1148.70736499596
20
-2135.50740007672
40
0.0
41
0.0
42
0.0
10
1148.70736499596
20
-1562.50740007672
40
0.0
41
0.0
42
0.0
210
0.0
220
0.0
230
1.0
0
LWPOLYLINE
5
A9
330
22
100
AcDbEntity
8
\U+8BBE\U+5907\U+5B9A\U+4F4D\U+53CA\U+516C\U+7528\U+8D44\U+6599
62
256
6
ByLayer
370
-1
48
1.0
60
0
100
AcDbPolyline
90
4
70
1
38
-0.0000029999999242
39
0.0
10
2732.70736499596
20
-1562.50740007672
40
0.0
41
0.0
42
0.0
10
2732.70736499596
20
-2135.50740007672
40
0.0
41
0.0
42
0.0
10
1940.70736499596
20
-2135.50740007672
40
0.0
41
0.0
42
0.0
10
1940.70736499596
20
-1562.50740007672
40
0.0
41
0.0
42
0.0
210
0.0
220
0.0
230
1.0
0
LWPOLYLINE
5
AA
330
22
100
AcDbEntity
8
\U+8BBE\U+5907\U+5B9A\U+4F4D\U+53CA\U+516C\U+7528\U+8D44\U+6599
62
256
6
ByLayer
370
-1
48
1.0
60
0
100
AcDbPolyline
90
4
70
1
38
-0.0000029999999242
39
0.0
10
1148.70736499596
20
-1562.50740007672
40
0.0
41
0.0
42
0.0
10
1148.70736499596
20
-2135.50740007672
40
0.0
41
0.0
42
0.0
10
356.707364995964
20
-2135.50740007672
40
0.0
41
0.0
42
0.0
10
356.707364995964
20
-1562.50740007672
40
0.0
41
0.0
42
0.0
210
0.0
220
0.0
230
1.0
0
ENDBLK
5
23
330
22
100
AcDbEntity
8
0
100
AcDbBlockEnd
0
BLOCK
5
AD
330
AB
100
AcDbEntity
67
1
8
0
100
AcDbBlockBegin
2
*Paper_Space
70
0
10
0.0
20
0.0
30
0.0
3
*Paper_Space
4

0
ENDBLK
5
AC
330
AB
100
AcDbEntity
8
0
100
AcDbBlockEnd
0
ENDSEC
0
SECTION
2
ENTITIES
0
VIEWPORT
5
AF
330
AB
100
AcDbEntity
67
1
8
0
62
256
6
ByLayer
370
-1
48
1.0
60
0
100
AcDbViewport
10
0.0
20
0.0
30
0.0
40
297.0
41
210.0
68
1
69
1
12
50.0
22
100.0
13
0.0
23
0.0
14
10.0
24
10.0
15
10.0
25
10.0
16
0.0
26
0.0
36
1.0
17
0.0
27
0.0
37
0.0
42
50.0
43
0.0
44
0.0
45
250.0
50
0.0
51
0.0
72
1000
90
819232
110
0.0
120
0.0
130
0.0
111
1.0
121
0.0
131
0.0
112
0.0
122
1.0
132
0.0
0
ENDSEC
0
SECTION
2
OBJECTS
0
DICTIONARY
5
B4
330
0
100
AcDbDictionary
280
1
281
1
3
ACAD_GROUP
350
12
3
ACAD_LAYOUT
350
AE
3
ACAD_DGNDEFINITIONS
350
F
3
ACAD_DWFDEFINITIONS
350
10
3
ACAD_PDFDEFINITIONS
350
11
3
ACAD_MLINESTYLE
350
B
3
ACAD_IMAGE_DICT
350
E
3
ACAD_IMAGE_VARS
350
21
0
DICTIONARY
5
12
330
B4
100
AcDbDictionary
280
1
281
1
0
DICTIONARY
5
AE
330
B4
100
AcDbDictionary
280
1
281
1
3
Model
350
20
3
Layout1
350
B0
0
DICTIONARY
5
F
330
B4
100
AcDbDictionary
280
1
281
1
0
DICTIONARY
5
10
330
B4
100
AcDbDictionary
280
1
281
1
0
DICTIONARY
5
11
330
B4
100
AcDbDictionary
280
1
281
1
0
DICTIONARY
5
B
330
B4
100
AcDbDictionary
280
1
281
1
3
Standard
350
1B
0
DICTIONARY
5
E
330
B4
100
AcDbDictionary
280
1
281
1
0
DICTIONARY
5
6
330
5
100
AcDbDictionary
280
1
281
1
3
ACAD_LAYERSTATES
360
B5
0
DICTIONARY
5
B5
330
6
100
AcDbDictionary
280
1
281
1
0
LAYOUT
5
20
330
AE
100
AcDbPlotSettings
1

2
none_device
4
ISO_A4_(210.00_x_297.00_MM)
6

40
7.5
41
20.0
42
7.5
43
20.0
44
210.0
45
297.0
46
0.0
47
0.0
48
0.0
49
0.0
140
0.0
141
0.0
142
1.0
143
1.0
70
11952
72
1
73
1
74
1
7

75
0
76
0
77
2
78
300
147
1.0
148
0.0
149
0.0
100
AcDbLayout
1
Model
71
0
10
-20.0
20
-7.5
11
277.0
21
202.5
12
0.0
22
0.0
32
0.0
14
25.7
24
19.5
34
0.0
15
231.3
25
175.5
35
0.0
146
0.0
13
0.0
23
0.0
33
0.0
16
1.0
26
0.0
36
0.0
17
0.0
27
1.0
37
0.0
76
0
330
1C
0
LAYOUT
5
B0
330
AE
100
AcDbPlotSettings
1

2
none_device
4
ISO_A4_(210.00_x_297.00_MM)
6

40
7.5
41
20.0
42
7.5
43
20.0
44
210.0
45
297.0
46
0.0
47
0.0
48
0.0
49
0.0
140
0.0
141
0.0
142
1.0
143
1.0
70
688
72
1
73
1
74
1
7

75
0
76
0
77
2
78
300
147
1.0
148
0.0
149
0.0
100
AcDbLayout
1
Layout1
71
1
10
-20.0
20
-7.5
11
277.0
21
202.5
12
0.0
22
0.0
32
0.0
14
25.7
24
19.5
34
0.0
15
231.3
25
175.5
35
0.0
146
0.0
13
0.0
23
0.0
33
0.0
16
1.0
26
0.0
36
0.0
17
0.0
27
1.0
37
0.0
76
0
330
AB
0
MLINESTYLE
5
1B
330
B
100
AcDbMlineStyle
2
Standard
70
0
3

62
256
51
90.0
52
90.0
71
2
49
0.5
62
256
6
ByLayer
49
-0.5
62
256
6
ByLayer
0
RASTERVARIABLES
5
21
330
E
100
AcDbRasterVariables
90
0
70
1
71
1
72
0
0
ENDSEC
0
EOF
